<svg width="374" height="176" viewBox="0 0 374 176" fill="none" xmlns="http://www.w3.org/2000/svg">
<path d="M0 41.106V3.54363H65.9725V176H23.5786V41.106H0Z" fill="#EF6C0D"/>
<path d="M93.8326 87.4094C93.8326 60.3204 99.0723 38.9799 109.552 23.3879C120.19 7.79598 137.259 0 160.758 0C184.257 0 201.246 7.79598 211.726 23.3879C222.364 38.9799 227.683 60.3204 227.683 87.4094C227.683 114.813 222.364 136.311 211.726 151.903C201.246 167.495 184.257 175.291 160.758 175.291C137.259 175.291 120.19 167.495 109.552 151.903C99.0723 136.311 93.8326 114.813 93.8326 87.4094ZM187.671 87.4094C187.671 71.5025 185.924 59.2966 182.431 50.792C178.938 42.1298 171.714 37.7987 160.758 37.7987C149.802 37.7987 142.578 42.1298 139.085 50.792C135.591 59.2966 133.845 71.5025 133.845 87.4094C133.845 98.119 134.48 107.017 135.75 114.105C137.02 121.034 139.561 126.704 143.372 131.114C147.341 135.366 153.136 137.493 160.758 137.493C168.379 137.493 174.095 135.366 177.906 131.114C181.875 126.704 184.495 121.034 185.765 114.105C187.036 107.017 187.671 98.119 187.671 87.4094Z" fill="#EF6C0D"/>
<path d="M374 111.506H332.559V153.557H293.976V111.506H252.534V75.3611H293.976V33.0738H332.559V75.3611H374V111.506Z" fill="#EF6C0D"/>
</svg>
