<svg width="44" height="44" viewBox="0 0 44 44" fill="none" xmlns="http://www.w3.org/2000/svg">
<path d="M3.29903 6.8081V16.0895L13.4578 26.2482C13.0883 26.7562 12.8575 27.4026 12.8575 28.0491C12.8575 29.7576 14.2428 31.1429 15.9513 31.1429C17.6598 31.1429 19.0451 29.7576 19.0451 28.0491C19.0451 26.3406 17.6598 24.9553 15.9513 24.9553C15.2586 24.9553 14.6583 25.1862 14.1504 25.5556L4.22255 15.7201V6.8081C5.70018 6.57722 6.85458 5.33047 6.85458 3.76048C6.85458 2.05197 5.4693 0.666687 3.76079 0.666687C2.05227 0.666687 0.666992 2.05197 0.666992 3.76048C0.713168 5.33047 1.82139 6.57722 3.29903 6.8081ZM18.0754 28.0491C18.0754 29.2497 17.1057 30.2194 15.9051 30.2194C14.7045 30.2194 13.7348 29.2497 13.7348 28.0491C13.7348 26.8485 14.7045 25.8788 15.9051 25.8788C17.1057 25.925 18.0754 26.8947 18.0754 28.0491ZM3.76079 1.63638C4.96136 1.63638 5.93106 2.60608 5.93106 3.80666C5.93106 5.00724 4.96136 5.97693 3.76079 5.97693C2.56021 5.97693 1.59051 5.00724 1.59051 3.80666C1.63669 2.60608 2.60639 1.63638 3.76079 1.63638Z" fill="#444444"/>
<path d="M3.29903 6.8081V16.0895L13.4578 26.2482C13.0883 26.7562 12.8575 27.4026 12.8575 28.0491C12.8575 29.7576 14.2428 31.1429 15.9513 31.1429C17.6598 31.1429 19.0451 29.7576 19.0451 28.0491C19.0451 26.3406 17.6598 24.9553 15.9513 24.9553C15.2586 24.9553 14.6583 25.1862 14.1504 25.5556L4.22255 15.7201V6.8081C5.70018 6.57722 6.85458 5.33047 6.85458 3.76048C6.85458 2.05197 5.4693 0.666687 3.76079 0.666687C2.05227 0.666687 0.666992 2.05197 0.666992 3.76048C0.713168 5.33047 1.82139 6.57722 3.29903 6.8081ZM18.0754 28.0491C18.0754 29.2497 17.1057 30.2194 15.9051 30.2194C14.7045 30.2194 13.7348 29.2497 13.7348 28.0491C13.7348 26.8485 14.7045 25.8788 15.9051 25.8788C17.1057 25.925 18.0754 26.8947 18.0754 28.0491ZM3.76079 1.63638C4.96136 1.63638 5.93106 2.60608 5.93106 3.80666C5.93106 5.00724 4.96136 5.97693 3.76079 5.97693C2.56021 5.97693 1.59051 5.00724 1.59051 3.80666C1.63669 2.60608 2.60639 1.63638 3.76079 1.63638Z" fill="white" fill-opacity="0.4"/>
<path d="M3.29903 6.8081V16.0895L13.4578 26.2482C13.0883 26.7562 12.8575 27.4026 12.8575 28.0491C12.8575 29.7576 14.2428 31.1429 15.9513 31.1429C17.6598 31.1429 19.0451 29.7576 19.0451 28.0491C19.0451 26.3406 17.6598 24.9553 15.9513 24.9553C15.2586 24.9553 14.6583 25.1862 14.1504 25.5556L4.22255 15.7201V6.8081C5.70018 6.57722 6.85458 5.33047 6.85458 3.76048C6.85458 2.05197 5.4693 0.666687 3.76079 0.666687C2.05227 0.666687 0.666992 2.05197 0.666992 3.76048C0.713168 5.33047 1.82139 6.57722 3.29903 6.8081ZM18.0754 28.0491C18.0754 29.2497 17.1057 30.2194 15.9051 30.2194C14.7045 30.2194 13.7348 29.2497 13.7348 28.0491C13.7348 26.8485 14.7045 25.8788 15.9051 25.8788C17.1057 25.925 18.0754 26.8947 18.0754 28.0491ZM3.76079 1.63638C4.96136 1.63638 5.93106 2.60608 5.93106 3.80666C5.93106 5.00724 4.96136 5.97693 3.76079 5.97693C2.56021 5.97693 1.59051 5.00724 1.59051 3.80666C1.63669 2.60608 2.60639 1.63638 3.76079 1.63638Z" stroke="#8F8F8F" stroke-width="0.2"/>
<path d="M40.6557 12.9033V6.8081C42.1333 6.57722 43.2877 5.33047 43.2877 3.76048C43.2877 2.05197 41.9024 0.666687 40.1939 0.666687C38.6701 0.666687 37.3772 1.82109 37.1463 3.29872H18.9529C18.7221 1.82109 17.4753 0.666687 15.9053 0.666687C14.1968 0.666687 12.8115 2.05197 12.8115 3.76048C12.8115 5.469 14.1968 6.85428 15.9053 6.85428C17.4291 6.85428 18.7221 5.69988 18.9529 4.22224H37.1925C37.3772 5.56135 38.4392 6.57722 39.7783 6.8081V12.9033C38.3007 13.1342 37.1463 14.381 37.1463 15.951C37.1463 16.6436 37.3772 17.2439 37.7466 17.7518L29.8967 25.6018C29.3887 25.2323 28.7423 25.0015 28.0958 25.0015C26.3873 25.0015 25.002 26.3867 25.002 28.0953C25.002 29.8038 26.3873 31.1891 28.0958 31.1891C29.8043 31.1891 31.1896 29.8038 31.1896 28.0953C31.1896 27.4026 30.9587 26.8023 30.5893 26.2944L38.4392 18.4445C38.9472 18.8139 39.5936 19.0448 40.2401 19.0448C41.9486 19.0448 43.3339 17.6595 43.3339 15.951C43.2877 14.381 42.1333 13.088 40.6557 12.9033ZM15.9053 5.93076C14.7047 5.93076 13.735 4.96106 13.735 3.76048C13.735 2.55991 14.7047 1.59021 15.9053 1.59021C17.1059 1.59021 18.0756 2.55991 18.0756 3.76048C18.0756 4.96106 17.1059 5.93076 15.9053 5.93076ZM38.0698 3.76048C38.0698 2.55991 39.0395 1.59021 40.2401 1.59021C41.4407 1.59021 42.4104 2.55991 42.4104 3.76048C42.4104 4.96106 41.4407 5.93076 40.2401 5.93076C39.0395 5.93076 38.0698 4.96106 38.0698 3.76048ZM28.0496 30.2194C26.849 30.2194 25.8793 29.2497 25.8793 28.0491C25.8793 26.8485 26.849 25.8788 28.0496 25.8788C29.2502 25.8788 30.2199 26.8485 30.2199 28.0491C30.2199 29.2497 29.2502 30.2194 28.0496 30.2194ZM40.1939 18.0751C38.9933 18.0751 38.0236 17.1054 38.0236 15.9048C38.0236 14.7042 38.9933 13.7345 40.1939 13.7345C41.3945 13.7345 42.3642 14.7042 42.3642 15.9048C42.3642 17.1054 41.3945 18.0751 40.1939 18.0751Z" fill="#444444"/>
<path d="M40.6557 12.9033V6.8081C42.1333 6.57722 43.2877 5.33047 43.2877 3.76048C43.2877 2.05197 41.9024 0.666687 40.1939 0.666687C38.6701 0.666687 37.3772 1.82109 37.1463 3.29872H18.9529C18.7221 1.82109 17.4753 0.666687 15.9053 0.666687C14.1968 0.666687 12.8115 2.05197 12.8115 3.76048C12.8115 5.469 14.1968 6.85428 15.9053 6.85428C17.4291 6.85428 18.7221 5.69988 18.9529 4.22224H37.1925C37.3772 5.56135 38.4392 6.57722 39.7783 6.8081V12.9033C38.3007 13.1342 37.1463 14.381 37.1463 15.951C37.1463 16.6436 37.3772 17.2439 37.7466 17.7518L29.8967 25.6018C29.3887 25.2323 28.7423 25.0015 28.0958 25.0015C26.3873 25.0015 25.002 26.3867 25.002 28.0953C25.002 29.8038 26.3873 31.1891 28.0958 31.1891C29.8043 31.1891 31.1896 29.8038 31.1896 28.0953C31.1896 27.4026 30.9587 26.8023 30.5893 26.2944L38.4392 18.4445C38.9472 18.8139 39.5936 19.0448 40.2401 19.0448C41.9486 19.0448 43.3339 17.6595 43.3339 15.951C43.2877 14.381 42.1333 13.088 40.6557 12.9033ZM15.9053 5.93076C14.7047 5.93076 13.735 4.96106 13.735 3.76048C13.735 2.55991 14.7047 1.59021 15.9053 1.59021C17.1059 1.59021 18.0756 2.55991 18.0756 3.76048C18.0756 4.96106 17.1059 5.93076 15.9053 5.93076ZM38.0698 3.76048C38.0698 2.55991 39.0395 1.59021 40.2401 1.59021C41.4407 1.59021 42.4104 2.55991 42.4104 3.76048C42.4104 4.96106 41.4407 5.93076 40.2401 5.93076C39.0395 5.93076 38.0698 4.96106 38.0698 3.76048ZM28.0496 30.2194C26.849 30.2194 25.8793 29.2497 25.8793 28.0491C25.8793 26.8485 26.849 25.8788 28.0496 25.8788C29.2502 25.8788 30.2199 26.8485 30.2199 28.0491C30.2199 29.2497 29.2502 30.2194 28.0496 30.2194ZM40.1939 18.0751C38.9933 18.0751 38.0236 17.1054 38.0236 15.9048C38.0236 14.7042 38.9933 13.7345 40.1939 13.7345C41.3945 13.7345 42.3642 14.7042 42.3642 15.9048C42.3642 17.1054 41.3945 18.0751 40.1939 18.0751Z" fill="white" fill-opacity="0.4"/>
<path d="M40.6557 12.9033V6.8081C42.1333 6.57722 43.2877 5.33047 43.2877 3.76048C43.2877 2.05197 41.9024 0.666687 40.1939 0.666687C38.6701 0.666687 37.3772 1.82109 37.1463 3.29872H18.9529C18.7221 1.82109 17.4753 0.666687 15.9053 0.666687C14.1968 0.666687 12.8115 2.05197 12.8115 3.76048C12.8115 5.469 14.1968 6.85428 15.9053 6.85428C17.4291 6.85428 18.7221 5.69988 18.9529 4.22224H37.1925C37.3772 5.56135 38.4392 6.57722 39.7783 6.8081V12.9033C38.3007 13.1342 37.1463 14.381 37.1463 15.951C37.1463 16.6436 37.3772 17.2439 37.7466 17.7518L29.8967 25.6018C29.3887 25.2323 28.7423 25.0015 28.0958 25.0015C26.3873 25.0015 25.002 26.3867 25.002 28.0953C25.002 29.8038 26.3873 31.1891 28.0958 31.1891C29.8043 31.1891 31.1896 29.8038 31.1896 28.0953C31.1896 27.4026 30.9587 26.8023 30.5893 26.2944L38.4392 18.4445C38.9472 18.8139 39.5936 19.0448 40.2401 19.0448C41.9486 19.0448 43.3339 17.6595 43.3339 15.951C43.2877 14.381 42.1333 13.088 40.6557 12.9033ZM15.9053 5.93076C14.7047 5.93076 13.735 4.96106 13.735 3.76048C13.735 2.55991 14.7047 1.59021 15.9053 1.59021C17.1059 1.59021 18.0756 2.55991 18.0756 3.76048C18.0756 4.96106 17.1059 5.93076 15.9053 5.93076ZM38.0698 3.76048C38.0698 2.55991 39.0395 1.59021 40.2401 1.59021C41.4407 1.59021 42.4104 2.55991 42.4104 3.76048C42.4104 4.96106 41.4407 5.93076 40.2401 5.93076C39.0395 5.93076 38.0698 4.96106 38.0698 3.76048ZM28.0496 30.2194C26.849 30.2194 25.8793 29.2497 25.8793 28.0491C25.8793 26.8485 26.849 25.8788 28.0496 25.8788C29.2502 25.8788 30.2199 26.8485 30.2199 28.0491C30.2199 29.2497 29.2502 30.2194 28.0496 30.2194ZM40.1939 18.0751C38.9933 18.0751 38.0236 17.1054 38.0236 15.9048C38.0236 14.7042 38.9933 13.7345 40.1939 13.7345C41.3945 13.7345 42.3642 14.7042 42.3642 15.9048C42.3642 17.1054 41.3945 18.0751 40.1939 18.0751Z" stroke="#8F8F8F" stroke-width="0.2"/>
<path d="M43.287 28.0491C43.287 26.3405 41.9017 24.9553 40.1932 24.9553C38.4847 24.9553 37.0994 26.3405 37.0994 28.0491C37.0994 29.5729 38.2538 30.8658 39.7314 31.0967V37.1919C38.3923 37.3766 37.3764 38.4387 37.1456 39.7778H31.0965C30.8656 38.3001 29.6189 37.1457 28.0489 37.1457C26.3404 37.1457 24.9551 38.531 24.9551 40.2395C24.9551 41.948 26.3404 43.3333 28.0489 43.3333C29.5727 43.3333 30.8656 42.1789 31.0965 40.7013H37.1917C37.4226 42.1789 38.6694 43.3333 40.2393 43.3333C41.9479 43.3333 43.3331 41.948 43.3331 40.2395C43.3331 38.7157 42.1787 37.4228 40.7011 37.1919V31.0967C42.1326 30.8658 43.287 29.5729 43.287 28.0491ZM28.0489 42.3636C26.8483 42.3636 25.8786 41.3939 25.8786 40.1934C25.8786 38.9928 26.8483 38.0231 28.0489 38.0231C29.2494 38.0231 30.2191 38.9928 30.2191 40.1934C30.2191 41.3939 29.2494 42.3636 28.0489 42.3636ZM38.0691 28.0491C38.0691 26.8485 39.0388 25.8788 40.2393 25.8788C41.4399 25.8788 42.4096 26.8485 42.4096 28.0491C42.4096 29.2496 41.4399 30.2193 40.2393 30.2193C39.0388 30.2193 38.0691 29.2496 38.0691 28.0491ZM42.3634 40.1934C42.3634 41.3939 41.3938 42.3636 40.1932 42.3636C38.9926 42.3636 38.0229 41.3939 38.0229 40.1934C38.0229 38.9928 38.9926 38.0231 40.1932 38.0231C41.3938 38.0231 42.3634 39.039 42.3634 40.1934Z" fill="#444444"/>
<path d="M43.287 28.0491C43.287 26.3405 41.9017 24.9553 40.1932 24.9553C38.4847 24.9553 37.0994 26.3405 37.0994 28.0491C37.0994 29.5729 38.2538 30.8658 39.7314 31.0967V37.1919C38.3923 37.3766 37.3764 38.4387 37.1456 39.7778H31.0965C30.8656 38.3001 29.6189 37.1457 28.0489 37.1457C26.3404 37.1457 24.9551 38.531 24.9551 40.2395C24.9551 41.948 26.3404 43.3333 28.0489 43.3333C29.5727 43.3333 30.8656 42.1789 31.0965 40.7013H37.1917C37.4226 42.1789 38.6694 43.3333 40.2393 43.3333C41.9479 43.3333 43.3331 41.948 43.3331 40.2395C43.3331 38.7157 42.1787 37.4228 40.7011 37.1919V31.0967C42.1326 30.8658 43.287 29.5729 43.287 28.0491ZM28.0489 42.3636C26.8483 42.3636 25.8786 41.3939 25.8786 40.1934C25.8786 38.9928 26.8483 38.0231 28.0489 38.0231C29.2494 38.0231 30.2191 38.9928 30.2191 40.1934C30.2191 41.3939 29.2494 42.3636 28.0489 42.3636ZM38.0691 28.0491C38.0691 26.8485 39.0388 25.8788 40.2393 25.8788C41.4399 25.8788 42.4096 26.8485 42.4096 28.0491C42.4096 29.2496 41.4399 30.2193 40.2393 30.2193C39.0388 30.2193 38.0691 29.2496 38.0691 28.0491ZM42.3634 40.1934C42.3634 41.3939 41.3938 42.3636 40.1932 42.3636C38.9926 42.3636 38.0229 41.3939 38.0229 40.1934C38.0229 38.9928 38.9926 38.0231 40.1932 38.0231C41.3938 38.0231 42.3634 39.039 42.3634 40.1934Z" fill="white" fill-opacity="0.4"/>
<path d="M43.287 28.0491C43.287 26.3405 41.9017 24.9553 40.1932 24.9553C38.4847 24.9553 37.0994 26.3405 37.0994 28.0491C37.0994 29.5729 38.2538 30.8658 39.7314 31.0967V37.1919C38.3923 37.3766 37.3764 38.4387 37.1456 39.7778H31.0965C30.8656 38.3001 29.6189 37.1457 28.0489 37.1457C26.3404 37.1457 24.9551 38.531 24.9551 40.2395C24.9551 41.948 26.3404 43.3333 28.0489 43.3333C29.5727 43.3333 30.8656 42.1789 31.0965 40.7013H37.1917C37.4226 42.1789 38.6694 43.3333 40.2393 43.3333C41.9479 43.3333 43.3331 41.948 43.3331 40.2395C43.3331 38.7157 42.1787 37.4228 40.7011 37.1919V31.0967C42.1326 30.8658 43.287 29.5729 43.287 28.0491ZM28.0489 42.3636C26.8483 42.3636 25.8786 41.3939 25.8786 40.1934C25.8786 38.9928 26.8483 38.0231 28.0489 38.0231C29.2494 38.0231 30.2191 38.9928 30.2191 40.1934C30.2191 41.3939 29.2494 42.3636 28.0489 42.3636ZM38.0691 28.0491C38.0691 26.8485 39.0388 25.8788 40.2393 25.8788C41.4399 25.8788 42.4096 26.8485 42.4096 28.0491C42.4096 29.2496 41.4399 30.2193 40.2393 30.2193C39.0388 30.2193 38.0691 29.2496 38.0691 28.0491ZM42.3634 40.1934C42.3634 41.3939 41.3938 42.3636 40.1932 42.3636C38.9926 42.3636 38.0229 41.3939 38.0229 40.1934C38.0229 38.9928 38.9926 38.0231 40.1932 38.0231C41.3938 38.0231 42.3634 39.039 42.3634 40.1934Z" stroke="#8F8F8F" stroke-width="0.2"/>
<path d="M25.0479 16.3665C25.2788 17.8442 26.5256 18.9986 28.0956 18.9986C29.8041 18.9986 31.1894 17.6133 31.1894 15.9048C31.1894 14.1963 29.8041 12.811 28.0956 12.811C26.5718 12.811 25.2788 13.9654 25.0479 15.443H18.9527C18.7218 13.9654 17.4751 12.811 15.9051 12.811C14.1966 12.811 12.8113 14.1963 12.8113 15.9048C12.8113 17.6133 14.1966 18.9986 15.9051 18.9986C17.4289 18.9986 18.7218 17.8442 18.9527 16.3665H21.5386V28.0491V33.9134L15.7204 39.7316H6.80841C6.6237 38.3925 5.56165 37.3766 4.22255 37.1457V31.0967C5.70018 30.8658 6.85458 29.6191 6.85458 28.0491C6.85458 26.3406 5.4693 24.9553 3.76079 24.9553C2.05227 24.9553 0.666992 26.3406 0.666992 28.0491C0.666992 29.5729 1.82139 30.8658 3.29903 31.0967V37.1919C1.82139 37.4228 0.666992 38.6696 0.666992 40.2395C0.666992 41.9481 2.05227 43.3333 3.76079 43.3333C5.2846 43.3333 6.57753 42.1789 6.80841 40.7013H16.0898L22.4621 34.329V34.1443V28.0491V16.3665H25.0479ZM28.0494 13.7807C29.25 13.7807 30.2197 14.7504 30.2197 15.9509C30.2197 17.1515 29.25 18.1212 28.0494 18.1212C26.8488 18.1212 25.8791 17.1515 25.8791 15.9509C25.9253 14.7504 26.895 13.7807 28.0494 13.7807ZM15.9051 18.075C14.7045 18.075 13.7348 17.1053 13.7348 15.9048C13.7348 14.7042 14.7045 13.7345 15.9051 13.7345C17.1057 13.7345 18.0754 14.7042 18.0754 15.9048C18.0754 17.1053 17.1057 18.075 15.9051 18.075ZM1.63669 28.0491C1.63669 26.8485 2.60639 25.8788 3.80696 25.8788C5.00754 25.8788 5.97724 26.8485 5.97724 28.0491C5.97724 29.2496 5.00754 30.2193 3.80696 30.2193C2.60639 30.2193 1.63669 29.2496 1.63669 28.0491ZM3.76079 42.3636C2.56021 42.3636 1.59051 41.3939 1.59051 40.1934C1.59051 38.9928 2.56021 38.0231 3.76079 38.0231C4.96136 38.0231 5.93106 38.9928 5.93106 40.1934C5.93106 41.3939 4.96136 42.3636 3.76079 42.3636Z" fill="#444444"/>
<path d="M25.0479 16.3665C25.2788 17.8442 26.5256 18.9986 28.0956 18.9986C29.8041 18.9986 31.1894 17.6133 31.1894 15.9048C31.1894 14.1963 29.8041 12.811 28.0956 12.811C26.5718 12.811 25.2788 13.9654 25.0479 15.443H18.9527C18.7218 13.9654 17.4751 12.811 15.9051 12.811C14.1966 12.811 12.8113 14.1963 12.8113 15.9048C12.8113 17.6133 14.1966 18.9986 15.9051 18.9986C17.4289 18.9986 18.7218 17.8442 18.9527 16.3665H21.5386V28.0491V33.9134L15.7204 39.7316H6.80841C6.6237 38.3925 5.56165 37.3766 4.22255 37.1457V31.0967C5.70018 30.8658 6.85458 29.6191 6.85458 28.0491C6.85458 26.3406 5.4693 24.9553 3.76079 24.9553C2.05227 24.9553 0.666992 26.3406 0.666992 28.0491C0.666992 29.5729 1.82139 30.8658 3.29903 31.0967V37.1919C1.82139 37.4228 0.666992 38.6696 0.666992 40.2395C0.666992 41.9481 2.05227 43.3333 3.76079 43.3333C5.2846 43.3333 6.57753 42.1789 6.80841 40.7013H16.0898L22.4621 34.329V34.1443V28.0491V16.3665H25.0479ZM28.0494 13.7807C29.25 13.7807 30.2197 14.7504 30.2197 15.9509C30.2197 17.1515 29.25 18.1212 28.0494 18.1212C26.8488 18.1212 25.8791 17.1515 25.8791 15.9509C25.9253 14.7504 26.895 13.7807 28.0494 13.7807ZM15.9051 18.075C14.7045 18.075 13.7348 17.1053 13.7348 15.9048C13.7348 14.7042 14.7045 13.7345 15.9051 13.7345C17.1057 13.7345 18.0754 14.7042 18.0754 15.9048C18.0754 17.1053 17.1057 18.075 15.9051 18.075ZM1.63669 28.0491C1.63669 26.8485 2.60639 25.8788 3.80696 25.8788C5.00754 25.8788 5.97724 26.8485 5.97724 28.0491C5.97724 29.2496 5.00754 30.2193 3.80696 30.2193C2.60639 30.2193 1.63669 29.2496 1.63669 28.0491ZM3.76079 42.3636C2.56021 42.3636 1.59051 41.3939 1.59051 40.1934C1.59051 38.9928 2.56021 38.0231 3.76079 38.0231C4.96136 38.0231 5.93106 38.9928 5.93106 40.1934C5.93106 41.3939 4.96136 42.3636 3.76079 42.3636Z" fill="white" fill-opacity="0.4"/>
<path d="M25.0479 16.3665C25.2788 17.8442 26.5256 18.9986 28.0956 18.9986C29.8041 18.9986 31.1894 17.6133 31.1894 15.9048C31.1894 14.1963 29.8041 12.811 28.0956 12.811C26.5718 12.811 25.2788 13.9654 25.0479 15.443H18.9527C18.7218 13.9654 17.4751 12.811 15.9051 12.811C14.1966 12.811 12.8113 14.1963 12.8113 15.9048C12.8113 17.6133 14.1966 18.9986 15.9051 18.9986C17.4289 18.9986 18.7218 17.8442 18.9527 16.3665H21.5386V28.0491V33.9134L15.7204 39.7316H6.80841C6.6237 38.3925 5.56165 37.3766 4.22255 37.1457V31.0967C5.70018 30.8658 6.85458 29.6191 6.85458 28.0491C6.85458 26.3406 5.4693 24.9553 3.76079 24.9553C2.05227 24.9553 0.666992 26.3406 0.666992 28.0491C0.666992 29.5729 1.82139 30.8658 3.29903 31.0967V37.1919C1.82139 37.4228 0.666992 38.6696 0.666992 40.2395C0.666992 41.9481 2.05227 43.3333 3.76079 43.3333C5.2846 43.3333 6.57753 42.1789 6.80841 40.7013H16.0898L22.4621 34.329V34.1443V28.0491V16.3665H25.0479ZM28.0494 13.7807C29.25 13.7807 30.2197 14.7504 30.2197 15.9509C30.2197 17.1515 29.25 18.1212 28.0494 18.1212C26.8488 18.1212 25.8791 17.1515 25.8791 15.9509C25.9253 14.7504 26.895 13.7807 28.0494 13.7807ZM15.9051 18.075C14.7045 18.075 13.7348 17.1053 13.7348 15.9048C13.7348 14.7042 14.7045 13.7345 15.9051 13.7345C17.1057 13.7345 18.0754 14.7042 18.0754 15.9048C18.0754 17.1053 17.1057 18.075 15.9051 18.075ZM1.63669 28.0491C1.63669 26.8485 2.60639 25.8788 3.80696 25.8788C5.00754 25.8788 5.97724 26.8485 5.97724 28.0491C5.97724 29.2496 5.00754 30.2193 3.80696 30.2193C2.60639 30.2193 1.63669 29.2496 1.63669 28.0491ZM3.76079 42.3636C2.56021 42.3636 1.59051 41.3939 1.59051 40.1934C1.59051 38.9928 2.56021 38.0231 3.76079 38.0231C4.96136 38.0231 5.93106 38.9928 5.93106 40.1934C5.93106 41.3939 4.96136 42.3636 3.76079 42.3636Z" stroke="#8F8F8F" stroke-width="0.2"/>
</svg>
