<svg width="44" height="44" viewBox="0 0 44 44" fill="none" xmlns="http://www.w3.org/2000/svg">
<path d="M3.29866 6.8081V16.0895L13.4574 26.2482C13.088 26.7562 12.8571 27.4026 12.8571 28.0491C12.8571 29.7576 14.2424 31.1429 15.9509 31.1429C17.6594 31.1429 19.0447 29.7576 19.0447 28.0491C19.0447 26.3406 17.6594 24.9553 15.9509 24.9553C15.2583 24.9553 14.658 25.1862 14.15 25.5556L4.22218 15.7201V6.8081C5.69981 6.57722 6.85422 5.33047 6.85422 3.76048C6.85422 2.05197 5.46893 0.666687 3.76042 0.666687C2.05191 0.666687 0.666626 2.05197 0.666626 3.76048C0.712802 5.33047 1.82103 6.57722 3.29866 6.8081ZM18.075 28.0491C18.075 29.2497 17.1053 30.2194 15.9047 30.2194C14.7041 30.2194 13.7344 29.2497 13.7344 28.0491C13.7344 26.8485 14.7041 25.8788 15.9047 25.8788C17.1053 25.925 18.075 26.8947 18.075 28.0491ZM3.76042 1.63638C4.961 1.63638 5.93069 2.60608 5.93069 3.80666C5.93069 5.00724 4.961 5.97693 3.76042 5.97693C2.55984 5.97693 1.59015 5.00724 1.59015 3.80666C1.63632 2.60608 2.60602 1.63638 3.76042 1.63638Z" fill="white" stroke="white" stroke-width="0.5"/>
<path d="M40.6551 12.9033V6.8081C42.1327 6.57722 43.2871 5.33047 43.2871 3.76048C43.2871 2.05197 41.9018 0.666687 40.1933 0.666687C38.6695 0.666687 37.3766 1.82109 37.1457 3.29872H18.9523C18.7214 1.82109 17.4747 0.666687 15.9047 0.666687C14.1962 0.666687 12.8109 2.05197 12.8109 3.76048C12.8109 5.469 14.1962 6.85428 15.9047 6.85428C17.4285 6.85428 18.7214 5.69988 18.9523 4.22224H37.1919C37.3766 5.56135 38.4386 6.57722 39.7777 6.8081V12.9033C38.3001 13.1342 37.1457 14.381 37.1457 15.951C37.1457 16.6436 37.3766 17.2439 37.746 17.7518L29.896 25.6018C29.3881 25.2323 28.7416 25.0015 28.0952 25.0015C26.3867 25.0015 25.0014 26.3867 25.0014 28.0953C25.0014 29.8038 26.3867 31.1891 28.0952 31.1891C29.8037 31.1891 31.189 29.8038 31.189 28.0953C31.189 27.4026 30.9581 26.8023 30.5887 26.2944L38.4386 18.4445C38.9466 18.8139 39.593 19.0448 40.2395 19.0448C41.948 19.0448 43.3333 17.6595 43.3333 15.951C43.2871 14.381 42.1327 13.088 40.6551 12.9033ZM15.9047 5.93076C14.7041 5.93076 13.7344 4.96106 13.7344 3.76048C13.7344 2.55991 14.7041 1.59021 15.9047 1.59021C17.1053 1.59021 18.075 2.55991 18.075 3.76048C18.075 4.96106 17.1053 5.93076 15.9047 5.93076ZM38.0692 3.76048C38.0692 2.55991 39.0389 1.59021 40.2395 1.59021C41.4401 1.59021 42.4098 2.55991 42.4098 3.76048C42.4098 4.96106 41.4401 5.93076 40.2395 5.93076C39.0389 5.93076 38.0692 4.96106 38.0692 3.76048ZM28.049 30.2194C26.8484 30.2194 25.8787 29.2497 25.8787 28.0491C25.8787 26.8485 26.8484 25.8788 28.049 25.8788C29.2496 25.8788 30.2193 26.8485 30.2193 28.0491C30.2193 29.2497 29.2496 30.2194 28.049 30.2194ZM40.1933 18.0751C38.9927 18.0751 38.023 17.1054 38.023 15.9048C38.023 14.7042 38.9927 13.7345 40.1933 13.7345C41.3939 13.7345 42.3636 14.7042 42.3636 15.9048C42.3636 17.1054 41.3939 18.0751 40.1933 18.0751Z" fill="white" stroke="white" stroke-width="0.5"/>
<path d="M43.2871 28.0491C43.2871 26.3405 41.9018 24.9553 40.1933 24.9553C38.4848 24.9553 37.0995 26.3405 37.0995 28.0491C37.0995 29.5729 38.2539 30.8658 39.7315 31.0967V37.1919C38.3924 37.3766 37.3766 38.4387 37.1457 39.7778H31.0966C30.8657 38.3001 29.619 37.1457 28.049 37.1457C26.3405 37.1457 24.9552 38.531 24.9552 40.2395C24.9552 41.948 26.3405 43.3333 28.049 43.3333C29.5728 43.3333 30.8657 42.1789 31.0966 40.7013H37.1919C37.4227 42.1789 38.6695 43.3333 40.2395 43.3333C41.948 43.3333 43.3333 41.948 43.3333 40.2395C43.3333 38.7157 42.1789 37.4228 40.7012 37.1919V31.0967C42.1327 30.8658 43.2871 29.5729 43.2871 28.0491ZM28.049 42.3636C26.8484 42.3636 25.8787 41.3939 25.8787 40.1934C25.8787 38.9928 26.8484 38.0231 28.049 38.0231C29.2496 38.0231 30.2193 38.9928 30.2193 40.1934C30.2193 41.3939 29.2496 42.3636 28.049 42.3636ZM38.0692 28.0491C38.0692 26.8485 39.0389 25.8788 40.2395 25.8788C41.44 25.8788 42.4097 26.8485 42.4097 28.0491C42.4097 29.2496 41.44 30.2193 40.2395 30.2193C39.0389 30.2193 38.0692 29.2496 38.0692 28.0491ZM42.3636 40.1934C42.3636 41.3939 41.3939 42.3636 40.1933 42.3636C38.9927 42.3636 38.023 41.3939 38.023 40.1934C38.023 38.9928 38.9927 38.0231 40.1933 38.0231C41.3939 38.0231 42.3636 39.039 42.3636 40.1934Z" fill="white" stroke="white" stroke-width="0.5"/>
<path d="M25.0475 16.3665C25.2783 17.8442 26.5251 18.9986 28.0951 18.9986C29.8036 18.9986 31.1889 17.6133 31.1889 15.9048C31.1889 14.1963 29.8036 12.811 28.0951 12.811C26.5713 12.811 25.2783 13.9654 25.0475 15.443H18.9522C18.7213 13.9654 17.4746 12.811 15.9046 12.811C14.1961 12.811 12.8108 14.1963 12.8108 15.9048C12.8108 17.6133 14.1961 18.9986 15.9046 18.9986C17.4284 18.9986 18.7213 17.8442 18.9522 16.3665H21.5381V28.0491V33.9134L15.7199 39.7316H6.80792C6.62321 38.3925 5.56116 37.3766 4.22206 37.1457V31.0967C5.69969 30.8658 6.85409 29.6191 6.85409 28.0491C6.85409 26.3406 5.46881 24.9553 3.7603 24.9553C2.05179 24.9553 0.666504 26.3406 0.666504 28.0491C0.666504 29.5729 1.8209 30.8658 3.29854 31.0967V37.1919C1.8209 37.4228 0.666504 38.6696 0.666504 40.2395C0.666504 41.9481 2.05179 43.3333 3.7603 43.3333C5.28411 43.3333 6.57704 42.1789 6.80792 40.7013H16.0893L22.4616 34.329V34.1443V28.0491V16.3665H25.0475ZM28.0489 13.7807C29.2495 13.7807 30.2192 14.7504 30.2192 15.9509C30.2192 17.1515 29.2495 18.1212 28.0489 18.1212C26.8483 18.1212 25.8786 17.1515 25.8786 15.9509C25.9248 14.7504 26.8945 13.7807 28.0489 13.7807ZM15.9046 18.075C14.704 18.075 13.7343 17.1053 13.7343 15.9048C13.7343 14.7042 14.704 13.7345 15.9046 13.7345C17.1052 13.7345 18.0749 14.7042 18.0749 15.9048C18.0749 17.1053 17.1052 18.075 15.9046 18.075ZM1.6362 28.0491C1.6362 26.8485 2.6059 25.8788 3.80648 25.8788C5.00705 25.8788 5.97675 26.8485 5.97675 28.0491C5.97675 29.2496 5.00705 30.2193 3.80648 30.2193C2.6059 30.2193 1.6362 29.2496 1.6362 28.0491ZM3.7603 42.3636C2.55972 42.3636 1.59002 41.3939 1.59002 40.1934C1.59002 38.9928 2.55972 38.0231 3.7603 38.0231C4.96088 38.0231 5.93057 38.9928 5.93057 40.1934C5.93057 41.3939 4.96088 42.3636 3.7603 42.3636Z" fill="white" stroke="white" stroke-width="0.5"/>
</svg>
