<svg width="53" height="44" viewBox="0 0 53 44" fill="none" xmlns="http://www.w3.org/2000/svg">
<path d="M34.406 1.65905H0.854655C0.686909 1.65905 0.526033 1.72548 0.407419 1.84373C0.288805 1.96198 0.222168 2.12236 0.222168 2.28959V42.7028C0.222168 42.87 0.288805 43.0304 0.407419 43.1486C0.526033 43.2669 0.686909 43.3333 0.854655 43.3333H34.406C34.5737 43.3333 34.7346 43.2669 34.8532 43.1486C34.9718 43.0304 35.0385 42.87 35.0385 42.7028V2.28959C35.0385 2.12236 34.9718 1.96198 34.8532 1.84373C34.7346 1.72548 34.5737 1.65905 34.406 1.65905ZM1.48714 2.92014H11.4059V42.0722H1.48714V2.92014ZM12.6709 2.92014H22.5898V42.0722H12.6709V2.92014ZM33.7735 42.0722H23.8547V2.92014H33.7735V42.0722Z" fill="#444444"/>
<path d="M34.406 1.65905H0.854655C0.686909 1.65905 0.526033 1.72548 0.407419 1.84373C0.288805 1.96198 0.222168 2.12236 0.222168 2.28959V42.7028C0.222168 42.87 0.288805 43.0304 0.407419 43.1486C0.526033 43.2669 0.686909 43.3333 0.854655 43.3333H34.406C34.5737 43.3333 34.7346 43.2669 34.8532 43.1486C34.9718 43.0304 35.0385 42.87 35.0385 42.7028V2.28959C35.0385 2.12236 34.9718 1.96198 34.8532 1.84373C34.7346 1.72548 34.5737 1.65905 34.406 1.65905ZM1.48714 2.92014H11.4059V42.0722H1.48714V2.92014ZM12.6709 2.92014H22.5898V42.0722H12.6709V2.92014ZM33.7735 42.0722H23.8547V2.92014H33.7735V42.0722Z" fill="white" fill-opacity="0.4"/>
<path d="M47.5539 1.22683C47.5351 1.06068 47.4508 0.908782 47.3197 0.80449C47.1886 0.700198 47.0214 0.652037 46.8547 0.670583L35.7409 1.9158C35.6584 1.92505 35.5785 1.95042 35.5058 1.99046C35.4331 2.03049 35.369 2.08442 35.3172 2.14915C35.2654 2.21387 35.2269 2.28814 35.2039 2.36771C35.1809 2.44727 35.1738 2.53057 35.1831 2.61286L39.7113 42.7732C39.7206 42.8555 39.746 42.9351 39.7861 43.0076C39.8263 43.0801 39.8804 43.144 39.9453 43.1957C40.0102 43.2473 40.0847 43.2857 40.1646 43.3087C40.2444 43.3316 40.3279 43.3387 40.4105 43.3294L51.5242 42.0842C51.6068 42.0749 51.6867 42.0496 51.7594 42.0095C51.8321 41.9695 51.8962 41.9156 51.948 41.8508C51.9998 41.7861 52.0383 41.7119 52.0613 41.6323C52.0843 41.5527 52.0914 41.4694 52.0821 41.3871L47.5539 1.22683ZM40.8977 42.0058L36.5108 3.09859L46.367 1.9943L50.754 40.9014L40.8977 42.0058Z" fill="#444444"/>
<path d="M47.5539 1.22683C47.5351 1.06068 47.4508 0.908782 47.3197 0.80449C47.1886 0.700198 47.0214 0.652037 46.8547 0.670583L35.7409 1.9158C35.6584 1.92505 35.5785 1.95042 35.5058 1.99046C35.4331 2.03049 35.369 2.08442 35.3172 2.14915C35.2654 2.21387 35.2269 2.28814 35.2039 2.36771C35.1809 2.44727 35.1738 2.53057 35.1831 2.61286L39.7113 42.7732C39.7206 42.8555 39.746 42.9351 39.7861 43.0076C39.8263 43.0801 39.8804 43.144 39.9453 43.1957C40.0102 43.2473 40.0847 43.2857 40.1646 43.3087C40.2444 43.3316 40.3279 43.3387 40.4105 43.3294L51.5242 42.0842C51.6068 42.0749 51.6867 42.0496 51.7594 42.0095C51.8321 41.9695 51.8962 41.9156 51.948 41.8508C51.9998 41.7861 52.0383 41.7119 52.0613 41.6323C52.0843 41.5527 52.0914 41.4694 52.0821 41.3871L47.5539 1.22683ZM40.8977 42.0058L36.5108 3.09859L46.367 1.9943L50.754 40.9014L40.8977 42.0058Z" fill="white" fill-opacity="0.4"/>
<path d="M6.44657 7.23325C5.76852 7.23327 5.1057 7.43374 4.54194 7.8093C3.97817 8.18487 3.53877 8.71866 3.27931 9.34318C3.01985 9.96769 2.95198 10.6549 3.08428 11.3179C3.21659 11.9808 3.54312 12.5898 4.02259 13.0678C4.50206 13.5457 5.11293 13.8712 5.77796 14.0031C6.44298 14.1349 7.1323 14.0672 7.75873 13.8085C8.38516 13.5498 8.92057 13.1118 9.29726 12.5497C9.67394 11.9876 9.87499 11.3269 9.87497 10.6509C9.87391 9.74476 9.51236 8.87605 8.86963 8.23535C8.22691 7.59464 7.3555 7.23425 6.44657 7.23325ZM6.44657 12.8075C6.01872 12.8075 5.60047 12.681 5.24473 12.444C4.88899 12.207 4.61173 11.8702 4.44801 11.4761C4.28429 11.0821 4.24146 10.6484 4.32494 10.2301C4.40843 9.81174 4.61447 9.42746 4.91702 9.12586C5.21957 8.82426 5.60504 8.61887 6.02468 8.53566C6.44432 8.45245 6.87928 8.49517 7.27457 8.6584C7.66986 8.82164 8.00772 9.09806 8.24542 9.45272C8.48312 9.80738 8.61 10.2243 8.61 10.6509C8.60933 11.2227 8.38118 11.7709 7.9756 12.1752C7.57002 12.5795 7.02013 12.8069 6.44657 12.8075Z" fill="#444444"/>
<path d="M6.44657 7.23325C5.76852 7.23327 5.1057 7.43374 4.54194 7.8093C3.97817 8.18487 3.53877 8.71866 3.27931 9.34318C3.01985 9.96769 2.95198 10.6549 3.08428 11.3179C3.21659 11.9808 3.54312 12.5898 4.02259 13.0678C4.50206 13.5457 5.11293 13.8712 5.77796 14.0031C6.44298 14.1349 7.1323 14.0672 7.75873 13.8085C8.38516 13.5498 8.92057 13.1118 9.29726 12.5497C9.67394 11.9876 9.87499 11.3269 9.87497 10.6509C9.87391 9.74476 9.51236 8.87605 8.86963 8.23535C8.22691 7.59464 7.3555 7.23425 6.44657 7.23325ZM6.44657 12.8075C6.01872 12.8075 5.60047 12.681 5.24473 12.444C4.88899 12.207 4.61173 11.8702 4.44801 11.4761C4.28429 11.0821 4.24146 10.6484 4.32494 10.2301C4.40843 9.81174 4.61447 9.42746 4.91702 9.12586C5.21957 8.82426 5.60504 8.61887 6.02468 8.53566C6.44432 8.45245 6.87928 8.49517 7.27457 8.6584C7.66986 8.82164 8.00772 9.09806 8.24542 9.45272C8.48312 9.80738 8.61 10.2243 8.61 10.6509C8.60933 11.2227 8.38118 11.7709 7.9756 12.1752C7.57002 12.5795 7.02013 12.8069 6.44657 12.8075Z" fill="white" fill-opacity="0.4"/>
<path d="M17.6303 7.23325C16.9523 7.23327 16.2895 7.43374 15.7257 7.8093C15.1619 8.18487 14.7225 8.71866 14.4631 9.34318C14.2036 9.96769 14.1358 10.6549 14.2681 11.3179C14.4004 11.9808 14.7269 12.5898 15.2064 13.0678C15.6858 13.5457 16.2967 13.8712 16.9617 14.0031C17.6268 14.1349 18.3161 14.0672 18.9425 13.8085C19.5689 13.5498 20.1043 13.1118 20.481 12.5497C20.8577 11.9876 21.0588 11.3269 21.0587 10.6509C21.0577 9.74476 20.6961 8.87605 20.0534 8.23535C19.4107 7.59464 18.5393 7.23425 17.6303 7.23325ZM17.6303 12.8075C17.2025 12.8075 16.7842 12.681 16.4285 12.444C16.0728 12.207 15.7955 11.8702 15.6318 11.4761C15.4681 11.0821 15.4252 10.6484 15.5087 10.2301C15.5922 9.81174 15.7982 9.42746 16.1008 9.12586C16.4033 8.82426 16.7888 8.61887 17.2084 8.53566C17.6281 8.45245 18.063 8.49517 18.4583 8.6584C18.8536 8.82164 19.1915 9.09806 19.4292 9.45272C19.6669 9.80738 19.7938 10.2243 19.7938 10.6509C19.7931 11.2227 19.565 11.7709 19.1594 12.1752C18.7538 12.5795 18.2039 12.8069 17.6303 12.8075Z" fill="#444444"/>
<path d="M17.6303 7.23325C16.9523 7.23327 16.2895 7.43374 15.7257 7.8093C15.1619 8.18487 14.7225 8.71866 14.4631 9.34318C14.2036 9.96769 14.1358 10.6549 14.2681 11.3179C14.4004 11.9808 14.7269 12.5898 15.2064 13.0678C15.6858 13.5457 16.2967 13.8712 16.9617 14.0031C17.6268 14.1349 18.3161 14.0672 18.9425 13.8085C19.5689 13.5498 20.1043 13.1118 20.481 12.5497C20.8577 11.9876 21.0588 11.3269 21.0587 10.6509C21.0577 9.74476 20.6961 8.87605 20.0534 8.23535C19.4107 7.59464 18.5393 7.23425 17.6303 7.23325ZM17.6303 12.8075C17.2025 12.8075 16.7842 12.681 16.4285 12.444C16.0728 12.207 15.7955 11.8702 15.6318 11.4761C15.4681 11.0821 15.4252 10.6484 15.5087 10.2301C15.5922 9.81174 15.7982 9.42746 16.1008 9.12586C16.4033 8.82426 16.7888 8.61887 17.2084 8.53566C17.6281 8.45245 18.063 8.49517 18.4583 8.6584C18.8536 8.82164 19.1915 9.09806 19.4292 9.45272C19.6669 9.80738 19.7938 10.2243 19.7938 10.6509C19.7931 11.2227 19.565 11.7709 19.1594 12.1752C18.7538 12.5795 18.2039 12.8069 17.6303 12.8075Z" fill="white" fill-opacity="0.4"/>
<path d="M28.8141 14.0686C29.4921 14.0686 30.1549 13.8681 30.7187 13.4926C31.2825 13.117 31.7219 12.5832 31.9813 11.9587C32.2408 11.3342 32.3087 10.647 32.1764 9.98406C32.0441 9.32109 31.7176 8.71212 31.2381 8.23415C30.7586 7.75618 30.1478 7.43068 29.4827 7.29881C28.8177 7.16695 28.1284 7.23464 27.502 7.49332C26.8756 7.752 26.3401 8.19007 25.9634 8.75211C25.5867 9.31415 25.3857 9.97493 25.3857 10.6509C25.3867 11.557 25.7483 12.4257 26.391 13.0665C27.0337 13.7072 27.9051 14.0676 28.8141 14.0686ZM28.8141 8.49434C29.2419 8.49436 29.6602 8.62086 30.0159 8.85786C30.3717 9.09485 30.6489 9.43169 30.8126 9.82578C30.9764 10.2199 31.0192 10.6535 30.9357 11.0718C30.8522 11.4902 30.6461 11.8745 30.3436 12.1761C30.041 12.4777 29.6555 12.683 29.2359 12.7662C28.8162 12.8494 28.3813 12.8067 27.986 12.6435C27.5907 12.4802 27.2529 12.2038 27.0152 11.8491C26.7775 11.4944 26.6506 11.0774 26.6506 10.6509C26.6513 10.0791 26.8795 9.53096 27.2851 9.12667C27.6907 8.72238 28.2405 8.49498 28.8141 8.49434Z" fill="#444444"/>
<path d="M28.8141 14.0686C29.4921 14.0686 30.1549 13.8681 30.7187 13.4926C31.2825 13.117 31.7219 12.5832 31.9813 11.9587C32.2408 11.3342 32.3087 10.647 32.1764 9.98406C32.0441 9.32109 31.7176 8.71212 31.2381 8.23415C30.7586 7.75618 30.1478 7.43068 29.4827 7.29881C28.8177 7.16695 28.1284 7.23464 27.502 7.49332C26.8756 7.752 26.3401 8.19007 25.9634 8.75211C25.5867 9.31415 25.3857 9.97493 25.3857 10.6509C25.3867 11.557 25.7483 12.4257 26.391 13.0665C27.0337 13.7072 27.9051 14.0676 28.8141 14.0686ZM28.8141 8.49434C29.2419 8.49436 29.6602 8.62086 30.0159 8.85786C30.3717 9.09485 30.6489 9.43169 30.8126 9.82578C30.9764 10.2199 31.0192 10.6535 30.9357 11.0718C30.8522 11.4902 30.6461 11.8745 30.3436 12.1761C30.041 12.4777 29.6555 12.683 29.2359 12.7662C28.8162 12.8494 28.3813 12.8067 27.986 12.6435C27.5907 12.4802 27.2529 12.2038 27.0152 11.8491C26.7775 11.4944 26.6506 11.0774 26.6506 10.6509C26.6513 10.0791 26.8795 9.53096 27.2851 9.12667C27.6907 8.72238 28.2405 8.49498 28.8141 8.49434Z" fill="white" fill-opacity="0.4"/>
<path d="M42.2346 7.23325C41.5565 7.23329 40.8937 7.43378 40.33 7.80935C39.7662 8.18493 39.3268 8.71873 39.0674 9.34325C38.808 9.96777 38.7401 10.655 38.8724 11.3179C39.0047 11.9809 39.3313 12.5899 39.8107 13.0678C40.2902 13.5458 40.9011 13.8712 41.5661 14.0031C42.2311 14.1349 42.9204 14.0672 43.5469 13.8085C44.1733 13.5498 44.7087 13.1117 45.0854 12.5497C45.4621 11.9876 45.6631 11.3268 45.6631 10.6509C45.662 9.74474 45.3005 8.87602 44.6577 8.23531C44.015 7.5946 43.1435 7.23422 42.2346 7.23325ZM42.2346 12.8075C41.8067 12.8075 41.3885 12.681 41.0328 12.444C40.677 12.207 40.3998 11.8701 40.2361 11.4761C40.0724 11.082 40.0296 10.6484 40.1131 10.23C40.1966 9.81168 40.4026 9.42742 40.7052 9.12582C41.0077 8.82423 41.3932 8.61885 41.8128 8.53565C42.2325 8.45245 42.6674 8.49517 43.0627 8.65841C43.458 8.82165 43.7958 9.09808 44.0335 9.45273C44.2712 9.80739 44.3981 10.2243 44.3981 10.6509C44.3974 11.2227 44.1693 11.7709 43.7637 12.1752C43.3581 12.5795 42.8082 12.8069 42.2346 12.8075Z" fill="#444444"/>
<path d="M42.2346 7.23325C41.5565 7.23329 40.8937 7.43378 40.33 7.80935C39.7662 8.18493 39.3268 8.71873 39.0674 9.34325C38.808 9.96777 38.7401 10.655 38.8724 11.3179C39.0047 11.9809 39.3313 12.5899 39.8107 13.0678C40.2902 13.5458 40.9011 13.8712 41.5661 14.0031C42.2311 14.1349 42.9204 14.0672 43.5469 13.8085C44.1733 13.5498 44.7087 13.1117 45.0854 12.5497C45.4621 11.9876 45.6631 11.3268 45.6631 10.6509C45.662 9.74474 45.3005 8.87602 44.6577 8.23531C44.015 7.5946 43.1435 7.23422 42.2346 7.23325ZM42.2346 12.8075C41.8067 12.8075 41.3885 12.681 41.0328 12.444C40.677 12.207 40.3998 11.8701 40.2361 11.4761C40.0724 11.082 40.0296 10.6484 40.1131 10.23C40.1966 9.81168 40.4026 9.42742 40.7052 9.12582C41.0077 8.82423 41.3932 8.61885 41.8128 8.53565C42.2325 8.45245 42.6674 8.49517 43.0627 8.65841C43.458 8.82165 43.7958 9.09808 44.0335 9.45273C44.2712 9.80739 44.3981 10.2243 44.3981 10.6509C44.3974 11.2227 44.1693 11.7709 43.7637 12.1752C43.3581 12.5795 42.8082 12.8069 42.2346 12.8075Z" fill="white" fill-opacity="0.4"/>
<path d="M8.17148 22.5675C8.00374 22.5675 7.84286 22.6339 7.72425 22.7521C7.60563 22.8704 7.539 23.0308 7.539 23.198V33.9592C7.539 34.1265 7.60563 34.2868 7.72425 34.4051C7.84286 34.5233 8.00374 34.5898 8.17148 34.5898C8.33923 34.5898 8.5001 34.5233 8.61872 34.4051C8.73733 34.2868 8.80397 34.1265 8.80397 33.9592V23.198C8.80397 23.0308 8.73733 22.8704 8.61872 22.7521C8.5001 22.6339 8.33923 22.5675 8.17148 22.5675Z" fill="#444444"/>
<path d="M8.17148 22.5675C8.00374 22.5675 7.84286 22.6339 7.72425 22.7521C7.60563 22.8704 7.539 23.0308 7.539 23.198V33.9592C7.539 34.1265 7.60563 34.2868 7.72425 34.4051C7.84286 34.5233 8.00374 34.5898 8.17148 34.5898C8.33923 34.5898 8.5001 34.5233 8.61872 34.4051C8.73733 34.2868 8.80397 34.1265 8.80397 33.9592V23.198C8.80397 23.0308 8.73733 22.8704 8.61872 22.7521C8.5001 22.6339 8.33923 22.5675 8.17148 22.5675Z" fill="white" fill-opacity="0.4"/>
<path d="M4.72154 22.5675C4.5538 22.5675 4.39292 22.6339 4.27431 22.7521C4.15569 22.8704 4.08906 23.0308 4.08906 23.198V33.9592C4.08906 34.1265 4.15569 34.2868 4.27431 34.4051C4.39292 34.5233 4.5538 34.5898 4.72154 34.5898C4.88929 34.5898 5.05016 34.5233 5.16878 34.4051C5.28739 34.2868 5.35403 34.1265 5.35403 33.9592V23.198C5.35403 23.0308 5.28739 22.8704 5.16878 22.7521C5.05016 22.6339 4.88929 22.5675 4.72154 22.5675Z" fill="#444444"/>
<path d="M4.72154 22.5675C4.5538 22.5675 4.39292 22.6339 4.27431 22.7521C4.15569 22.8704 4.08906 23.0308 4.08906 23.198V33.9592C4.08906 34.1265 4.15569 34.2868 4.27431 34.4051C4.39292 34.5233 4.5538 34.5898 4.72154 34.5898C4.88929 34.5898 5.05016 34.5233 5.16878 34.4051C5.28739 34.2868 5.35403 34.1265 5.35403 33.9592V23.198C5.35403 23.0308 5.28739 22.8704 5.16878 22.7521C5.05016 22.6339 4.88929 22.5675 4.72154 22.5675Z" fill="white" fill-opacity="0.4"/>
<path d="M19.3549 22.5675C19.1872 22.5675 19.0263 22.6339 18.9077 22.7521C18.789 22.8704 18.7224 23.0308 18.7224 23.198V33.9592C18.7224 34.1265 18.789 34.2868 18.9077 34.4051C19.0263 34.5233 19.1872 34.5898 19.3549 34.5898C19.5226 34.5898 19.6835 34.5233 19.8021 34.4051C19.9207 34.2868 19.9874 34.1265 19.9874 33.9592V23.198C19.9874 23.0308 19.9207 22.8704 19.8021 22.7521C19.6835 22.6339 19.5226 22.5675 19.3549 22.5675Z" fill="#444444"/>
<path d="M19.3549 22.5675C19.1872 22.5675 19.0263 22.6339 18.9077 22.7521C18.789 22.8704 18.7224 23.0308 18.7224 23.198V33.9592C18.7224 34.1265 18.789 34.2868 18.9077 34.4051C19.0263 34.5233 19.1872 34.5898 19.3549 34.5898C19.5226 34.5898 19.6835 34.5233 19.8021 34.4051C19.9207 34.2868 19.9874 34.1265 19.9874 33.9592V23.198C19.9874 23.0308 19.9207 22.8704 19.8021 22.7521C19.6835 22.6339 19.5226 22.5675 19.3549 22.5675Z" fill="white" fill-opacity="0.4"/>
<path d="M15.9053 22.5675C15.7376 22.5675 15.5767 22.6339 15.4581 22.7521C15.3395 22.8704 15.2728 23.0308 15.2728 23.198V33.9592C15.2728 34.1265 15.3395 34.2868 15.4581 34.4051C15.5767 34.5233 15.7376 34.5898 15.9053 34.5898C16.0731 34.5898 16.2339 34.5233 16.3525 34.4051C16.4712 34.2868 16.5378 34.1265 16.5378 33.9592V23.198C16.5378 23.0308 16.4712 22.8704 16.3525 22.7521C16.2339 22.6339 16.0731 22.5675 15.9053 22.5675Z" fill="#444444"/>
<path d="M15.9053 22.5675C15.7376 22.5675 15.5767 22.6339 15.4581 22.7521C15.3395 22.8704 15.2728 23.0308 15.2728 23.198V33.9592C15.2728 34.1265 15.3395 34.2868 15.4581 34.4051C15.5767 34.5233 15.7376 34.5898 15.9053 34.5898C16.0731 34.5898 16.2339 34.5233 16.3525 34.4051C16.4712 34.2868 16.5378 34.1265 16.5378 33.9592V23.198C16.5378 23.0308 16.4712 22.8704 16.3525 22.7521C16.2339 22.6339 16.0731 22.5675 15.9053 22.5675Z" fill="white" fill-opacity="0.4"/>
<path d="M30.5394 22.5675C30.3716 22.5675 30.2108 22.6339 30.0921 22.7521C29.9735 22.8704 29.9069 23.0308 29.9069 23.198V33.9592C29.9069 34.1265 29.9735 34.2868 30.0921 34.4051C30.2108 34.5233 30.3716 34.5898 30.5394 34.5898C30.7071 34.5898 30.868 34.5233 30.9866 34.4051C31.1052 34.2868 31.1719 34.1265 31.1719 33.9592V23.198C31.1719 23.0308 31.1052 22.8704 30.9866 22.7521C30.868 22.6339 30.7071 22.5675 30.5394 22.5675Z" fill="#444444"/>
<path d="M30.5394 22.5675C30.3716 22.5675 30.2108 22.6339 30.0921 22.7521C29.9735 22.8704 29.9069 23.0308 29.9069 23.198V33.9592C29.9069 34.1265 29.9735 34.2868 30.0921 34.4051C30.2108 34.5233 30.3716 34.5898 30.5394 34.5898C30.7071 34.5898 30.868 34.5233 30.9866 34.4051C31.1052 34.2868 31.1719 34.1265 31.1719 33.9592V23.198C31.1719 23.0308 31.1052 22.8704 30.9866 22.7521C30.868 22.6339 30.7071 22.5675 30.5394 22.5675Z" fill="white" fill-opacity="0.4"/>
<path d="M27.0892 22.5675C26.9214 22.5675 26.7606 22.6339 26.6419 22.7521C26.5233 22.8704 26.4567 23.0308 26.4567 23.198V33.9592C26.4567 34.1265 26.5233 34.2868 26.6419 34.4051C26.7606 34.5233 26.9214 34.5898 27.0892 34.5898C27.2569 34.5898 27.4178 34.5233 27.5364 34.4051C27.655 34.2868 27.7217 34.1265 27.7217 33.9592V23.198C27.7217 23.0308 27.655 22.8704 27.5364 22.7521C27.4178 22.6339 27.2569 22.5675 27.0892 22.5675Z" fill="#444444"/>
<path d="M27.0892 22.5675C26.9214 22.5675 26.7606 22.6339 26.6419 22.7521C26.5233 22.8704 26.4567 23.0308 26.4567 23.198V33.9592C26.4567 34.1265 26.5233 34.2868 26.6419 34.4051C26.7606 34.5233 26.9214 34.5898 27.0892 34.5898C27.2569 34.5898 27.4178 34.5233 27.5364 34.4051C27.655 34.2868 27.7217 34.1265 27.7217 33.9592V23.198C27.7217 23.0308 27.655 22.8704 27.5364 22.7521C27.4178 22.6339 27.2569 22.5675 27.0892 22.5675Z" fill="white" fill-opacity="0.4"/>
<path d="M45.5627 22.428C45.3958 22.4444 45.2422 22.5262 45.1358 22.6555C45.0294 22.7848 44.9788 22.9509 44.9953 23.1173L46.0542 33.8268C46.0696 33.9825 46.1425 34.1269 46.2587 34.232C46.3748 34.3371 46.5261 34.3954 46.6829 34.3956C46.7041 34.3956 46.7252 34.3946 46.7462 34.3924C46.9131 34.376 47.0666 34.2942 47.173 34.1649C47.2794 34.0356 47.33 33.8696 47.3135 33.7031L46.2541 22.9935C46.2462 22.911 46.222 22.8309 46.1829 22.7578C46.1438 22.6847 46.0906 22.62 46.0264 22.5674C45.9621 22.5148 45.8881 22.4755 45.8085 22.4516C45.7289 22.4276 45.6454 22.4196 45.5627 22.428Z" fill="#444444"/>
<path d="M45.5627 22.428C45.3958 22.4444 45.2422 22.5262 45.1358 22.6555C45.0294 22.7848 44.9788 22.9509 44.9953 23.1173L46.0542 33.8268C46.0696 33.9825 46.1425 34.1269 46.2587 34.232C46.3748 34.3371 46.5261 34.3954 46.6829 34.3956C46.7041 34.3956 46.7252 34.3946 46.7462 34.3924C46.9131 34.376 47.0666 34.2942 47.173 34.1649C47.2794 34.0356 47.33 33.8696 47.3135 33.7031L46.2541 22.9935C46.2462 22.911 46.222 22.8309 46.1829 22.7578C46.1438 22.6847 46.0906 22.62 46.0264 22.5674C45.9621 22.5148 45.8881 22.4755 45.8085 22.4516C45.7289 22.4276 45.6454 22.4196 45.5627 22.428Z" fill="white" fill-opacity="0.4"/>
<path d="M42.8209 23.3308C42.804 23.1647 42.7218 23.0121 42.5922 22.9063C42.4626 22.8006 42.2962 22.7505 42.1295 22.7668C41.9629 22.7832 41.8096 22.8648 41.7032 22.9938C41.5968 23.1227 41.546 23.2884 41.562 23.4546L42.6209 34.1642C42.6363 34.3198 42.7092 34.4642 42.8254 34.5692C42.9415 34.6743 43.0928 34.7326 43.2496 34.7328C43.2707 34.7329 43.2919 34.7319 43.3129 34.7297C43.4798 34.7134 43.6334 34.6315 43.7398 34.5023C43.8462 34.373 43.8968 34.2069 43.8803 34.0405L42.8209 23.3308Z" fill="#444444"/>
<path d="M42.8209 23.3308C42.804 23.1647 42.7218 23.0121 42.5922 22.9063C42.4626 22.8006 42.2962 22.7505 42.1295 22.7668C41.9629 22.7832 41.8096 22.8648 41.7032 22.9938C41.5968 23.1227 41.546 23.2884 41.562 23.4546L42.6209 34.1642C42.6363 34.3198 42.7092 34.4642 42.8254 34.5692C42.9415 34.6743 43.0928 34.7326 43.2496 34.7328C43.2707 34.7329 43.2919 34.7319 43.3129 34.7297C43.4798 34.7134 43.6334 34.6315 43.7398 34.5023C43.8462 34.373 43.8968 34.2069 43.8803 34.0405L42.8209 23.3308Z" fill="white" fill-opacity="0.4"/>
</svg>
