<svg width="53" height="44" viewBox="0 0 53 44" fill="none" xmlns="http://www.w3.org/2000/svg">
<path d="M34.4065 1.65905H0.855143C0.687397 1.65905 0.526522 1.72548 0.407907 1.84373C0.289293 1.96198 0.222656 2.12236 0.222656 2.28959V42.7028C0.222656 42.87 0.289293 43.0304 0.407907 43.1486C0.526522 43.2669 0.687397 43.3333 0.855143 43.3333H34.4065C34.5742 43.3333 34.7351 43.2669 34.8537 43.1486C34.9723 43.0304 35.039 42.87 35.039 42.7028V2.28959C35.039 2.12236 34.9723 1.96198 34.8537 1.84373C34.7351 1.72548 34.5742 1.65905 34.4065 1.65905ZM1.48763 2.92014H11.4064V42.0722H1.48763V2.92014ZM12.6714 2.92014H22.5902V42.0722H12.6714V2.92014ZM33.774 42.0722H23.8552V2.92014H33.774V42.0722Z" fill="white"/>
<path d="M47.5544 1.22683C47.5355 1.06068 47.4513 0.908782 47.3202 0.80449C47.1891 0.700198 47.0219 0.652037 46.8552 0.670583L35.7414 1.9158C35.6589 1.92505 35.579 1.95042 35.5063 1.99046C35.4336 2.03049 35.3695 2.08442 35.3177 2.14915C35.2659 2.21387 35.2274 2.28814 35.2044 2.36771C35.1814 2.44727 35.1743 2.53057 35.1836 2.61286L39.7118 42.7732C39.721 42.8555 39.7465 42.9351 39.7866 43.0076C39.8268 43.0801 39.8809 43.144 39.9458 43.1957C40.0107 43.2473 40.0852 43.2857 40.1651 43.3087C40.2449 43.3316 40.3284 43.3387 40.411 43.3294L51.5247 42.0842C51.6073 42.0749 51.6872 42.0496 51.7599 42.0095C51.8326 41.9695 51.8967 41.9156 51.9485 41.8508C52.0003 41.7861 52.0388 41.7119 52.0618 41.6323C52.0848 41.5527 52.0919 41.4694 52.0826 41.3871L47.5544 1.22683ZM40.8982 42.0058L36.5113 3.09859L46.3675 1.9943L50.7545 40.9014L40.8982 42.0058Z" fill="white"/>
<path d="M6.44706 7.23325C5.76901 7.23327 5.10619 7.43374 4.54242 7.8093C3.97866 8.18487 3.53926 8.71866 3.2798 9.34318C3.02034 9.96769 2.95247 10.6549 3.08477 11.3179C3.21707 11.9808 3.54361 12.5898 4.02308 13.0678C4.50255 13.5457 5.11342 13.8712 5.77845 14.0031C6.44347 14.1349 7.13278 14.0672 7.75921 13.8085C8.38564 13.5498 8.92106 13.1118 9.29774 12.5497C9.67443 11.9876 9.87548 11.3269 9.87546 10.6509C9.8744 9.74476 9.51285 8.87605 8.87012 8.23535C8.2274 7.59464 7.35598 7.23425 6.44706 7.23325ZM6.44706 12.8075C6.0192 12.8075 5.60096 12.681 5.24522 12.444C4.88948 12.207 4.61221 11.8702 4.44849 11.4761C4.28477 11.0821 4.24195 10.6484 4.32543 10.2301C4.40892 9.81174 4.61496 9.42746 4.91751 9.12586C5.22006 8.82426 5.60553 8.61887 6.02516 8.53566C6.4448 8.45245 6.87977 8.49517 7.27506 8.6584C7.67035 8.82164 8.0082 9.09806 8.24591 9.45272C8.48361 9.80738 8.61048 10.2243 8.61048 10.6509C8.60981 11.2227 8.38167 11.7709 7.97609 12.1752C7.57051 12.5795 7.02062 12.8069 6.44706 12.8075Z" fill="white"/>
<path d="M17.6308 7.23325C16.9528 7.23327 16.29 7.43374 15.7262 7.8093C15.1624 8.18487 14.723 8.71866 14.4636 9.34318C14.2041 9.96769 14.1362 10.6549 14.2685 11.3179C14.4008 11.9808 14.7274 12.5898 15.2068 13.0678C15.6863 13.5457 16.2972 13.8712 16.9622 14.0031C17.6272 14.1349 18.3166 14.0672 18.943 13.8085C19.5694 13.5498 20.1048 13.1118 20.4815 12.5497C20.8582 11.9876 21.0592 11.3269 21.0592 10.6509C21.0582 9.74476 20.6966 8.87605 20.0539 8.23535C19.4112 7.59464 18.5398 7.23425 17.6308 7.23325ZM17.6308 12.8075C17.203 12.8075 16.7847 12.681 16.429 12.444C16.0732 12.207 15.796 11.8702 15.6323 11.4761C15.4685 11.0821 15.4257 10.6484 15.5092 10.2301C15.5927 9.81174 15.7987 9.42746 16.1013 9.12586C16.4038 8.82426 16.7893 8.61887 17.2089 8.53566C17.6286 8.45245 18.0635 8.49517 18.4588 8.6584C18.8541 8.82164 19.192 9.09806 19.4297 9.45272C19.6674 9.80738 19.7943 10.2243 19.7943 10.6509C19.7936 11.2227 19.5655 11.7709 19.1599 12.1752C18.7543 12.5795 18.2044 12.8069 17.6308 12.8075Z" fill="white"/>
<path d="M28.8146 14.0686C29.4926 14.0686 30.1554 13.8681 30.7192 13.4926C31.2829 13.117 31.7223 12.5832 31.9818 11.9587C32.2413 11.3342 32.3091 10.647 32.1768 9.98406C32.0446 9.32109 31.718 8.71212 31.2386 8.23415C30.7591 7.75618 30.1483 7.43068 29.4832 7.29881C28.8182 7.16695 28.1289 7.23464 27.5025 7.49332C26.876 7.752 26.3406 8.19007 25.9639 8.75211C25.5872 9.31415 25.3862 9.97493 25.3862 10.6509C25.3872 11.557 25.7488 12.4257 26.3915 13.0665C27.0342 13.7072 27.9056 14.0676 28.8146 14.0686ZM28.8146 8.49434C29.2424 8.49436 29.6607 8.62086 30.0164 8.85786C30.3722 9.09485 30.6494 9.43169 30.8131 9.82578C30.9768 10.2199 31.0197 10.6535 30.9362 11.0718C30.8527 11.4902 30.6466 11.8745 30.3441 12.1761C30.0415 12.4777 29.656 12.683 29.2364 12.7662C28.8167 12.8494 28.3818 12.8067 27.9865 12.6435C27.5912 12.4802 27.2533 12.2038 27.0157 11.8491C26.778 11.4944 26.6511 11.0774 26.6511 10.6509C26.6518 10.0791 26.88 9.53096 27.2856 9.12667C27.6911 8.72238 28.241 8.49498 28.8146 8.49434Z" fill="white"/>
<path d="M42.2351 7.23325C41.557 7.23329 40.8942 7.43378 40.3305 7.80935C39.7667 8.18493 39.3273 8.71873 39.0679 9.34325C38.8084 9.96777 38.7406 10.655 38.8729 11.3179C39.0052 11.9809 39.3318 12.5899 39.8112 13.0678C40.2907 13.5458 40.9016 13.8712 41.5666 14.0031C42.2316 14.1349 42.9209 14.0672 43.5474 13.8085C44.1738 13.5498 44.7092 13.1117 45.0859 12.5497C45.4626 11.9876 45.6636 11.3268 45.6636 10.6509C45.6625 9.74474 45.3009 8.87602 44.6582 8.23531C44.0155 7.5946 43.144 7.23422 42.2351 7.23325ZM42.2351 12.8075C41.8072 12.8075 41.389 12.681 41.0333 12.444C40.6775 12.207 40.4003 11.8701 40.2366 11.4761C40.0729 11.082 40.0301 10.6484 40.1136 10.23C40.1971 9.81168 40.4031 9.42742 40.7057 9.12582C41.0082 8.82423 41.3937 8.61885 41.8133 8.53565C42.233 8.45245 42.6679 8.49517 43.0632 8.65841C43.4585 8.82165 43.7963 9.09808 44.034 9.45273C44.2717 9.80739 44.3986 10.2243 44.3986 10.6509C44.3979 11.2227 44.1698 11.7709 43.7642 12.1752C43.3586 12.5795 42.8087 12.8069 42.2351 12.8075Z" fill="white"/>
<path d="M8.17197 22.5675C8.00423 22.5675 7.84335 22.6339 7.72474 22.7521C7.60612 22.8704 7.53949 23.0308 7.53949 23.198V33.9592C7.53949 34.1265 7.60612 34.2868 7.72474 34.4051C7.84335 34.5233 8.00423 34.5898 8.17197 34.5898C8.33972 34.5898 8.50059 34.5233 8.61921 34.4051C8.73782 34.2868 8.80446 34.1265 8.80446 33.9592V23.198C8.80446 23.0308 8.73782 22.8704 8.61921 22.7521C8.50059 22.6339 8.33972 22.5675 8.17197 22.5675Z" fill="white"/>
<path d="M4.72203 22.5675C4.55428 22.5675 4.39341 22.6339 4.27479 22.7521C4.15618 22.8704 4.08954 23.0308 4.08954 23.198V33.9592C4.08954 34.1265 4.15618 34.2868 4.27479 34.4051C4.39341 34.5233 4.55428 34.5898 4.72203 34.5898C4.88978 34.5898 5.05065 34.5233 5.16927 34.4051C5.28788 34.2868 5.35452 34.1265 5.35452 33.9592V23.198C5.35452 23.0308 5.28788 22.8704 5.16927 22.7521C5.05065 22.6339 4.88978 22.5675 4.72203 22.5675Z" fill="white"/>
<path d="M19.3554 22.5675C19.1876 22.5675 19.0268 22.6339 18.9081 22.7521C18.7895 22.8704 18.7229 23.0308 18.7229 23.198V33.9592C18.7229 34.1265 18.7895 34.2868 18.9081 34.4051C19.0268 34.5233 19.1876 34.5898 19.3554 34.5898C19.5231 34.5898 19.684 34.5233 19.8026 34.4051C19.9212 34.2868 19.9879 34.1265 19.9879 33.9592V23.198C19.9879 23.0308 19.9212 22.8704 19.8026 22.7521C19.684 22.6339 19.5231 22.5675 19.3554 22.5675Z" fill="white"/>
<path d="M15.9058 22.5675C15.7381 22.5675 15.5772 22.6339 15.4586 22.7521C15.3399 22.8704 15.2733 23.0308 15.2733 23.198V33.9592C15.2733 34.1265 15.3399 34.2868 15.4586 34.4051C15.5772 34.5233 15.7381 34.5898 15.9058 34.5898C16.0735 34.5898 16.2344 34.5233 16.353 34.4051C16.4717 34.2868 16.5383 34.1265 16.5383 33.9592V23.198C16.5383 23.0308 16.4717 22.8704 16.353 22.7521C16.2344 22.6339 16.0735 22.5675 15.9058 22.5675Z" fill="white"/>
<path d="M30.5399 22.5675C30.3721 22.5675 30.2112 22.6339 30.0926 22.7521C29.974 22.8704 29.9074 23.0308 29.9074 23.198V33.9592C29.9074 34.1265 29.974 34.2868 30.0926 34.4051C30.2112 34.5233 30.3721 34.5898 30.5399 34.5898C30.7076 34.5898 30.8685 34.5233 30.9871 34.4051C31.1057 34.2868 31.1723 34.1265 31.1723 33.9592V23.198C31.1723 23.0308 31.1057 22.8704 30.9871 22.7521C30.8685 22.6339 30.7076 22.5675 30.5399 22.5675Z" fill="white"/>
<path d="M27.0897 22.5675C26.9219 22.5675 26.761 22.6339 26.6424 22.7521C26.5238 22.8704 26.4572 23.0308 26.4572 23.198V33.9592C26.4572 34.1265 26.5238 34.2868 26.6424 34.4051C26.761 34.5233 26.9219 34.5898 27.0897 34.5898C27.2574 34.5898 27.4183 34.5233 27.5369 34.4051C27.6555 34.2868 27.7222 34.1265 27.7222 33.9592V23.198C27.7222 23.0308 27.6555 22.8704 27.5369 22.7521C27.4183 22.6339 27.2574 22.5675 27.0897 22.5675Z" fill="white"/>
<path d="M45.5632 22.428C45.3963 22.4444 45.2427 22.5262 45.1363 22.6555C45.0299 22.7848 44.9793 22.9509 44.9957 23.1173L46.0547 33.8268C46.0701 33.9825 46.143 34.1269 46.2591 34.232C46.3753 34.3371 46.5265 34.3954 46.6834 34.3956C46.7045 34.3956 46.7257 34.3946 46.7467 34.3924C46.9136 34.376 47.0671 34.2942 47.1735 34.1649C47.2799 34.0356 47.3304 33.8696 47.314 33.7031L46.2546 22.9935C46.2467 22.911 46.2225 22.8309 46.1834 22.7578C46.1443 22.6847 46.0911 22.62 46.0269 22.5674C45.9626 22.5148 45.8886 22.4755 45.809 22.4516C45.7294 22.4276 45.6459 22.4196 45.5632 22.428Z" fill="white"/>
<path d="M42.8214 23.3308C42.8045 23.1647 42.7223 23.0121 42.5927 22.9063C42.4631 22.8006 42.2967 22.7505 42.13 22.7668C41.9634 22.7832 41.81 22.8648 41.7037 22.9938C41.5973 23.1227 41.5465 23.2884 41.5625 23.4546L42.6214 34.1642C42.6368 34.3198 42.7097 34.4642 42.8259 34.5692C42.942 34.6743 43.0932 34.7326 43.2501 34.7328C43.2712 34.7329 43.2923 34.7319 43.3134 34.7297C43.4803 34.7134 43.6339 34.6315 43.7403 34.5023C43.8467 34.373 43.8972 34.2069 43.8808 34.0405L42.8214 23.3308Z" fill="white"/>
</svg>
