<svg width="36" height="44" viewBox="0 0 36 44" fill="none" xmlns="http://www.w3.org/2000/svg">
<path fill-rule="evenodd" clip-rule="evenodd" d="M17.2307 4.29622C13.8125 4.84235 10.5594 6.36839 8.38185 8.81319C5.99986 11.4874 5.12203 15.006 5.97154 19.0963C5.98996 19.185 5.98922 19.2764 5.96937 19.3647C5.94952 19.453 5.91101 19.5362 5.85636 19.6088L1.80654 25.0038C1.72986 25.1074 1.69574 25.2358 1.71106 25.3633C1.72637 25.4907 1.78998 25.6077 1.88909 25.6907L3.71002 27.1897C3.78467 27.2509 3.84454 27.3277 3.88523 27.4147C3.92592 27.5016 3.94641 27.5965 3.9452 27.6922L3.91352 29.8493C3.91352 30.0034 3.97495 30.2285 4.12326 30.2698L4.92525 30.4855C5.03036 30.5139 5.12659 30.5679 5.20516 30.6425C5.28373 30.7171 5.34215 30.8099 5.37507 30.9125C5.408 31.0152 5.41439 31.1243 5.39367 31.2299C5.37294 31.3356 5.32576 31.4345 5.25642 31.5175C4.95056 31.8544 4.66848 32.2116 4.41219 32.5866C4.37498 32.6516 4.36336 32.7279 4.37955 32.8009L5.19547 35.6785C5.2528 35.9017 5.38152 36.1007 5.5625 36.2459C5.74348 36.3911 5.96705 36.4748 6.2 36.4844L11.4795 36.7243C11.9568 36.7416 12.4178 36.9012 12.8017 37.182C13.1856 37.4628 13.4745 37.8518 13.6306 38.2978L15.0378 42.215H28.8867C29.1544 42.2169 29.4185 42.1549 29.6567 42.0343C29.8949 41.9138 30.1001 41.7382 30.2549 41.5226C30.4097 41.3069 30.5096 41.0576 30.5459 40.7957C30.5823 40.5337 30.5542 40.267 30.4639 40.0182L28.2273 33.7182C28.0881 33.3391 28.0314 32.9353 28.061 32.5332C28.0906 32.131 28.2058 31.7395 28.3991 31.3843C28.748 30.6955 29.06 30.0963 29.3864 29.4691C31.5068 25.392 34.2036 20.209 34.2036 16.68C34.2036 13.1168 33.022 10.3463 31.1416 8.32632C29.0452 6.18304 26.2953 4.77785 23.3131 4.32608V13.9498C24.0638 14.4443 24.6795 15.114 25.1059 15.8995C25.5322 16.685 25.756 17.5622 25.7575 18.4535V22.1963C25.7536 23.5202 25.2607 24.7972 24.3713 25.7877C23.4819 26.7781 22.2571 27.4139 20.9268 27.5756V28.4716C20.9256 29.1574 20.6493 29.8148 20.1584 30.2997C19.6675 30.7846 19.002 31.0575 18.3077 31.0586H13.4698C13.3313 31.4708 13.0651 31.8296 12.7089 32.0841C12.3526 32.3386 11.9244 32.4761 11.4847 32.4771H10.0785C9.524 32.4771 8.99223 32.2595 8.60015 31.8722C8.20808 31.485 7.98781 30.9597 7.98781 30.412C7.98781 29.8643 8.20808 29.3391 8.60015 28.9518C8.99223 28.5645 9.524 28.3469 10.0785 28.3469H11.4847C11.9244 28.3479 12.3526 28.4854 12.7089 28.7399C13.0651 28.9945 13.3313 29.3532 13.4698 29.7654H18.3077C18.6548 29.7644 18.9873 29.6277 19.2327 29.3853C19.4781 29.1429 19.6165 28.8144 19.6175 28.4716V27.5756C18.2868 27.4141 17.0617 26.7783 16.1721 25.7876C15.2824 24.7969 14.7895 23.5196 14.7858 22.1954V18.4525C14.7874 17.5612 15.0113 16.684 15.4377 15.8985C15.8641 15.113 16.4799 14.4433 17.2307 13.9488V4.29622ZM12.2661 30.412C12.2655 30.6166 12.183 30.8127 12.0366 30.9576C11.8903 31.1024 11.6919 31.1842 11.4847 31.1852H10.0785C9.87125 31.1852 9.6725 31.1039 9.52597 30.9592C9.37944 30.8144 9.29712 30.6181 9.29712 30.4134C9.29712 30.2087 9.37944 30.0124 9.52597 29.8677C9.6725 29.723 9.87125 29.6416 10.0785 29.6416H11.4847C11.6916 29.6426 11.8898 29.7243 12.0361 29.8688C12.1824 30.0133 12.2651 30.209 12.2661 30.4134V30.412ZM23.3136 3.01906C26.662 3.48759 29.7558 5.0481 32.1034 7.4526C34.1969 9.70208 35.511 12.7651 35.511 16.68C35.511 21.1197 31.8557 27.4253 29.5419 32.0082C29.437 32.2046 29.3753 32.4206 29.3608 32.6422C29.3464 32.8638 29.3794 33.0858 29.4579 33.2939L31.6945 39.5991C31.8518 40.0422 31.8994 40.5161 31.8332 40.9811C31.767 41.4461 31.589 41.8887 31.314 42.2718C31.0391 42.6549 30.6752 42.9673 30.2529 43.1829C29.8306 43.3986 29.3621 43.5111 28.8867 43.5112H14.5751C14.4399 43.511 14.3081 43.4695 14.1977 43.3924C14.0873 43.3152 14.0039 43.2062 13.9589 43.0802L12.3966 38.7311C12.3279 38.5276 12.1975 38.3499 12.0232 38.2221C11.8488 38.0942 11.6389 38.0223 11.4219 38.0162L6.14241 37.7763C5.63291 37.7555 5.14357 37.5739 4.74622 37.2582C4.34888 36.9425 4.06443 36.5093 3.93464 36.0222L3.11872 33.1441C3.04855 32.8447 3.05677 32.5326 3.14259 32.2373C3.22841 31.9419 3.38901 31.673 3.60923 31.4559C3.29627 31.3163 3.03314 31.0868 2.85413 30.7974C2.67512 30.5079 2.58853 30.1719 2.60566 29.8332L2.63253 27.9814L1.05542 26.6815C0.698041 26.3894 0.467965 25.9728 0.41276 25.5179C0.357556 25.0629 0.481444 24.6045 0.75881 24.2372L4.63632 19.0722C3.77769 14.6192 4.85134 10.8233 7.39987 7.96081C9.83994 5.22161 13.4472 3.56425 17.2307 2.99109V2.62179C17.2316 2.15069 17.4214 1.69913 17.7587 1.36601C18.0959 1.03289 18.5531 0.84536 19.03 0.844482H21.5142C21.9911 0.845484 22.4482 1.03306 22.7854 1.36615C23.1227 1.69924 23.3126 2.15072 23.3136 2.62179V3.01906ZM22.0043 13.3126C20.8799 12.9414 19.6639 12.9414 18.5395 13.3126V2.62179C18.5404 2.49356 18.5924 2.37083 18.6842 2.28015C18.7759 2.18948 18.9002 2.13815 19.03 2.13728H21.5142C21.644 2.13815 21.7682 2.18949 21.8599 2.28018C21.9517 2.37087 22.0035 2.4936 22.0043 2.62179V13.3126ZM18.2607 18.4535C18.256 18.6219 18.1851 18.7819 18.0628 18.8994C17.9406 19.0169 17.7768 19.0826 17.6062 19.0826C17.4357 19.0826 17.2719 19.0169 17.1497 18.8994C17.0274 18.7819 16.9565 18.6219 16.9518 18.4535C16.9539 17.5839 17.3045 16.7505 17.927 16.1356C18.5495 15.5208 19.3932 15.1744 20.2736 15.1724C20.4441 15.177 20.606 15.2471 20.725 15.3678C20.8439 15.4885 20.9105 15.6504 20.9105 15.8188C20.9105 15.9873 20.8439 16.1491 20.725 16.2698C20.606 16.3906 20.4441 16.4607 20.2736 16.4652C19.7403 16.4672 19.2295 16.6773 18.8525 17.0498C18.4754 17.4222 18.2627 17.9268 18.2607 18.4535ZM22.2865 22.1963C22.2911 22.0279 22.3621 21.8679 22.4843 21.7504C22.6065 21.6329 22.7703 21.5672 22.9409 21.5672C23.1114 21.5672 23.2753 21.6329 23.3975 21.7504C23.5197 21.8679 23.5907 22.0279 23.5953 22.1963C23.5933 23.0659 23.2427 23.8994 22.6202 24.5143C21.9977 25.1293 21.154 25.4757 20.2736 25.4778C20.0999 25.4778 19.9334 25.4097 19.8107 25.2885C19.6879 25.1672 19.6189 25.0027 19.6189 24.8312C19.6189 24.6597 19.6879 24.4952 19.8107 24.374C19.9334 24.2527 20.0999 24.1846 20.2736 24.1846C20.8068 24.1826 21.3176 23.9725 21.6947 23.6C22.0717 23.2276 22.2845 22.723 22.2865 22.1963ZM20.2736 14.3267C21.3797 14.3308 22.4394 14.7667 23.2215 15.5392C24.0037 16.3118 24.445 17.3585 24.4491 18.4511V22.1939C24.4491 23.2882 24.0091 24.3376 23.2257 25.1114C22.4424 25.8851 21.3799 26.3198 20.2721 26.3198C19.1643 26.3198 18.1019 25.8851 17.3185 25.1114C16.5352 24.3376 16.0951 23.2882 16.0951 22.1939V18.4525C16.0987 17.3593 16.5399 16.3119 17.3224 15.5388C18.105 14.7657 19.1654 14.3298 20.2721 14.3262L20.2736 14.3267Z" fill="#444444"/>
<path fill-rule="evenodd" clip-rule="evenodd" d="M17.2307 4.29622C13.8125 4.84235 10.5594 6.36839 8.38185 8.81319C5.99986 11.4874 5.12203 15.006 5.97154 19.0963C5.98996 19.185 5.98922 19.2764 5.96937 19.3647C5.94952 19.453 5.91101 19.5362 5.85636 19.6088L1.80654 25.0038C1.72986 25.1074 1.69574 25.2358 1.71106 25.3633C1.72637 25.4907 1.78998 25.6077 1.88909 25.6907L3.71002 27.1897C3.78467 27.2509 3.84454 27.3277 3.88523 27.4147C3.92592 27.5016 3.94641 27.5965 3.9452 27.6922L3.91352 29.8493C3.91352 30.0034 3.97495 30.2285 4.12326 30.2698L4.92525 30.4855C5.03036 30.5139 5.12659 30.5679 5.20516 30.6425C5.28373 30.7171 5.34215 30.8099 5.37507 30.9125C5.408 31.0152 5.41439 31.1243 5.39367 31.2299C5.37294 31.3356 5.32576 31.4345 5.25642 31.5175C4.95056 31.8544 4.66848 32.2116 4.41219 32.5866C4.37498 32.6516 4.36336 32.7279 4.37955 32.8009L5.19547 35.6785C5.2528 35.9017 5.38152 36.1007 5.5625 36.2459C5.74348 36.3911 5.96705 36.4748 6.2 36.4844L11.4795 36.7243C11.9568 36.7416 12.4178 36.9012 12.8017 37.182C13.1856 37.4628 13.4745 37.8518 13.6306 38.2978L15.0378 42.215H28.8867C29.1544 42.2169 29.4185 42.1549 29.6567 42.0343C29.8949 41.9138 30.1001 41.7382 30.2549 41.5226C30.4097 41.3069 30.5096 41.0576 30.5459 40.7957C30.5823 40.5337 30.5542 40.267 30.4639 40.0182L28.2273 33.7182C28.0881 33.3391 28.0314 32.9353 28.061 32.5332C28.0906 32.131 28.2058 31.7395 28.3991 31.3843C28.748 30.6955 29.06 30.0963 29.3864 29.4691C31.5068 25.392 34.2036 20.209 34.2036 16.68C34.2036 13.1168 33.022 10.3463 31.1416 8.32632C29.0452 6.18304 26.2953 4.77785 23.3131 4.32608V13.9498C24.0638 14.4443 24.6795 15.114 25.1059 15.8995C25.5322 16.685 25.756 17.5622 25.7575 18.4535V22.1963C25.7536 23.5202 25.2607 24.7972 24.3713 25.7877C23.4819 26.7781 22.2571 27.4139 20.9268 27.5756V28.4716C20.9256 29.1574 20.6493 29.8148 20.1584 30.2997C19.6675 30.7846 19.002 31.0575 18.3077 31.0586H13.4698C13.3313 31.4708 13.0651 31.8296 12.7089 32.0841C12.3526 32.3386 11.9244 32.4761 11.4847 32.4771H10.0785C9.524 32.4771 8.99223 32.2595 8.60015 31.8722C8.20808 31.485 7.98781 30.9597 7.98781 30.412C7.98781 29.8643 8.20808 29.3391 8.60015 28.9518C8.99223 28.5645 9.524 28.3469 10.0785 28.3469H11.4847C11.9244 28.3479 12.3526 28.4854 12.7089 28.7399C13.0651 28.9945 13.3313 29.3532 13.4698 29.7654H18.3077C18.6548 29.7644 18.9873 29.6277 19.2327 29.3853C19.4781 29.1429 19.6165 28.8144 19.6175 28.4716V27.5756C18.2868 27.4141 17.0617 26.7783 16.1721 25.7876C15.2824 24.7969 14.7895 23.5196 14.7858 22.1954V18.4525C14.7874 17.5612 15.0113 16.684 15.4377 15.8985C15.8641 15.113 16.4799 14.4433 17.2307 13.9488V4.29622ZM12.2661 30.412C12.2655 30.6166 12.183 30.8127 12.0366 30.9576C11.8903 31.1024 11.6919 31.1842 11.4847 31.1852H10.0785C9.87125 31.1852 9.6725 31.1039 9.52597 30.9592C9.37944 30.8144 9.29712 30.6181 9.29712 30.4134C9.29712 30.2087 9.37944 30.0124 9.52597 29.8677C9.6725 29.723 9.87125 29.6416 10.0785 29.6416H11.4847C11.6916 29.6426 11.8898 29.7243 12.0361 29.8688C12.1824 30.0133 12.2651 30.209 12.2661 30.4134V30.412ZM23.3136 3.01906C26.662 3.48759 29.7558 5.0481 32.1034 7.4526C34.1969 9.70208 35.511 12.7651 35.511 16.68C35.511 21.1197 31.8557 27.4253 29.5419 32.0082C29.437 32.2046 29.3753 32.4206 29.3608 32.6422C29.3464 32.8638 29.3794 33.0858 29.4579 33.2939L31.6945 39.5991C31.8518 40.0422 31.8994 40.5161 31.8332 40.9811C31.767 41.4461 31.589 41.8887 31.314 42.2718C31.0391 42.6549 30.6752 42.9673 30.2529 43.1829C29.8306 43.3986 29.3621 43.5111 28.8867 43.5112H14.5751C14.4399 43.511 14.3081 43.4695 14.1977 43.3924C14.0873 43.3152 14.0039 43.2062 13.9589 43.0802L12.3966 38.7311C12.3279 38.5276 12.1975 38.3499 12.0232 38.2221C11.8488 38.0942 11.6389 38.0223 11.4219 38.0162L6.14241 37.7763C5.63291 37.7555 5.14357 37.5739 4.74622 37.2582C4.34888 36.9425 4.06443 36.5093 3.93464 36.0222L3.11872 33.1441C3.04855 32.8447 3.05677 32.5326 3.14259 32.2373C3.22841 31.9419 3.38901 31.673 3.60923 31.4559C3.29627 31.3163 3.03314 31.0868 2.85413 30.7974C2.67512 30.5079 2.58853 30.1719 2.60566 29.8332L2.63253 27.9814L1.05542 26.6815C0.698041 26.3894 0.467965 25.9728 0.41276 25.5179C0.357556 25.0629 0.481444 24.6045 0.75881 24.2372L4.63632 19.0722C3.77769 14.6192 4.85134 10.8233 7.39987 7.96081C9.83994 5.22161 13.4472 3.56425 17.2307 2.99109V2.62179C17.2316 2.15069 17.4214 1.69913 17.7587 1.36601C18.0959 1.03289 18.5531 0.84536 19.03 0.844482H21.5142C21.9911 0.845484 22.4482 1.03306 22.7854 1.36615C23.1227 1.69924 23.3126 2.15072 23.3136 2.62179V3.01906ZM22.0043 13.3126C20.8799 12.9414 19.6639 12.9414 18.5395 13.3126V2.62179C18.5404 2.49356 18.5924 2.37083 18.6842 2.28015C18.7759 2.18948 18.9002 2.13815 19.03 2.13728H21.5142C21.644 2.13815 21.7682 2.18949 21.8599 2.28018C21.9517 2.37087 22.0035 2.4936 22.0043 2.62179V13.3126ZM18.2607 18.4535C18.256 18.6219 18.1851 18.7819 18.0628 18.8994C17.9406 19.0169 17.7768 19.0826 17.6062 19.0826C17.4357 19.0826 17.2719 19.0169 17.1497 18.8994C17.0274 18.7819 16.9565 18.6219 16.9518 18.4535C16.9539 17.5839 17.3045 16.7505 17.927 16.1356C18.5495 15.5208 19.3932 15.1744 20.2736 15.1724C20.4441 15.177 20.606 15.2471 20.725 15.3678C20.8439 15.4885 20.9105 15.6504 20.9105 15.8188C20.9105 15.9873 20.8439 16.1491 20.725 16.2698C20.606 16.3906 20.4441 16.4607 20.2736 16.4652C19.7403 16.4672 19.2295 16.6773 18.8525 17.0498C18.4754 17.4222 18.2627 17.9268 18.2607 18.4535ZM22.2865 22.1963C22.2911 22.0279 22.3621 21.8679 22.4843 21.7504C22.6065 21.6329 22.7703 21.5672 22.9409 21.5672C23.1114 21.5672 23.2753 21.6329 23.3975 21.7504C23.5197 21.8679 23.5907 22.0279 23.5953 22.1963C23.5933 23.0659 23.2427 23.8994 22.6202 24.5143C21.9977 25.1293 21.154 25.4757 20.2736 25.4778C20.0999 25.4778 19.9334 25.4097 19.8107 25.2885C19.6879 25.1672 19.6189 25.0027 19.6189 24.8312C19.6189 24.6597 19.6879 24.4952 19.8107 24.374C19.9334 24.2527 20.0999 24.1846 20.2736 24.1846C20.8068 24.1826 21.3176 23.9725 21.6947 23.6C22.0717 23.2276 22.2845 22.723 22.2865 22.1963ZM20.2736 14.3267C21.3797 14.3308 22.4394 14.7667 23.2215 15.5392C24.0037 16.3118 24.445 17.3585 24.4491 18.4511V22.1939C24.4491 23.2882 24.0091 24.3376 23.2257 25.1114C22.4424 25.8851 21.3799 26.3198 20.2721 26.3198C19.1643 26.3198 18.1019 25.8851 17.3185 25.1114C16.5352 24.3376 16.0951 23.2882 16.0951 22.1939V18.4525C16.0987 17.3593 16.5399 16.3119 17.3224 15.5388C18.105 14.7657 19.1654 14.3298 20.2721 14.3262L20.2736 14.3267Z" fill="white" fill-opacity="0.4"/>
</svg>
