<svg width="36" height="44" viewBox="0 0 36 44" fill="none" xmlns="http://www.w3.org/2000/svg">
<path fill-rule="evenodd" clip-rule="evenodd" d="M17.2302 4.29622C13.812 4.84235 10.5589 6.36839 8.38136 8.81319C5.99937 11.4874 5.12155 15.006 5.97106 19.0963C5.98947 19.185 5.98873 19.2764 5.96888 19.3647C5.94903 19.453 5.91052 19.5362 5.85587 19.6088L1.80605 25.0038C1.72937 25.1074 1.69525 25.2358 1.71057 25.3633C1.72589 25.4907 1.7895 25.6077 1.8886 25.6907L3.70953 27.1897C3.78418 27.2509 3.84405 27.3277 3.88474 27.4147C3.92543 27.5016 3.94592 27.5965 3.94471 27.6922L3.91303 29.8493C3.91303 30.0034 3.97447 30.2285 4.12277 30.2698L4.92477 30.4855C5.02987 30.5139 5.1261 30.5679 5.20467 30.6425C5.28325 30.7171 5.34166 30.8099 5.37458 30.9125C5.40751 31.0152 5.4139 31.1243 5.39318 31.2299C5.37245 31.3356 5.32527 31.4345 5.25593 31.5175C4.95007 31.8544 4.66799 32.2116 4.4117 32.5866C4.37449 32.6516 4.36287 32.7279 4.37906 32.8009L5.19498 35.6785C5.25231 35.9017 5.38103 36.1007 5.56201 36.2459C5.74299 36.3911 5.96656 36.4748 6.19951 36.4844L11.479 36.7243C11.9564 36.7416 12.4173 36.9012 12.8012 37.182C13.1851 37.4628 13.4741 37.8518 13.6301 38.2978L15.0373 42.215H28.8863C29.1539 42.2169 29.418 42.1549 29.6562 42.0343C29.8944 41.9138 30.0996 41.7382 30.2544 41.5226C30.4093 41.3069 30.5091 41.0576 30.5455 40.7957C30.5818 40.5337 30.5537 40.267 30.4634 40.0182L28.2268 33.7182C28.0876 33.3391 28.0309 32.9353 28.0605 32.5332C28.0901 32.131 28.2053 31.7395 28.3986 31.3843C28.7476 30.6955 29.0595 30.0963 29.3859 29.4691C31.5063 25.392 34.2031 20.209 34.2031 16.68C34.2031 13.1168 33.0215 10.3463 31.1411 8.32632C29.0448 6.18304 26.2948 4.77785 23.3126 4.32608V13.9498C24.0633 14.4443 24.6791 15.114 25.1054 15.8995C25.5317 16.685 25.7555 17.5622 25.757 18.4535V22.1963C25.7531 23.5202 25.2602 24.7972 24.3708 25.7877C23.4814 26.7781 22.2566 27.4139 20.9263 27.5756V28.4716C20.9251 29.1574 20.6488 29.8148 20.1579 30.2997C19.667 30.7846 19.0015 31.0575 18.3072 31.0586H13.4693C13.3308 31.4708 13.0646 31.8296 12.7084 32.0841C12.3521 32.3386 11.9239 32.4761 11.4842 32.4771H10.078C9.52351 32.4771 8.99174 32.2595 8.59967 31.8722C8.20759 31.485 7.98733 30.9597 7.98733 30.412C7.98733 29.8643 8.20759 29.3391 8.59967 28.9518C8.99174 28.5645 9.52351 28.3469 10.078 28.3469H11.4842C11.9239 28.3479 12.3521 28.4854 12.7084 28.7399C13.0646 28.9945 13.3308 29.3532 13.4693 29.7654H18.3072C18.6543 29.7644 18.9868 29.6277 19.2322 29.3853C19.4777 29.1429 19.616 28.8144 19.617 28.4716V27.5756C18.2864 27.4141 17.0612 26.7783 16.1716 25.7876C15.2819 24.7969 14.789 23.5196 14.7853 22.1954V18.4525C14.7869 17.5612 15.0108 16.684 15.4372 15.8985C15.8636 15.113 16.4794 14.4433 17.2302 13.9488V4.29622ZM12.2656 30.412C12.265 30.6166 12.1825 30.8127 12.0361 30.9576C11.8898 31.1024 11.6914 31.1842 11.4842 31.1852H10.078C9.87076 31.1852 9.67202 31.1039 9.52548 30.9592C9.37895 30.8144 9.29663 30.6181 9.29663 30.4134C9.29663 30.2087 9.37895 30.0124 9.52548 29.8677C9.67202 29.723 9.87076 29.6416 10.078 29.6416H11.4842C11.6912 29.6426 11.8893 29.7243 12.0356 29.8688C12.1819 30.0133 12.2646 30.209 12.2656 30.4134V30.412ZM23.3131 3.01906C26.6615 3.48759 29.7553 5.0481 32.1029 7.4526C34.1964 9.70208 35.5105 12.7651 35.5105 16.68C35.5105 21.1197 31.8552 27.4253 29.5414 32.0082C29.4365 32.2046 29.3748 32.4206 29.3603 32.6422C29.3459 32.8638 29.3789 33.0858 29.4574 33.2939L31.694 39.5991C31.8513 40.0422 31.8989 40.5161 31.8327 40.9811C31.7665 41.4461 31.5885 41.8887 31.3135 42.2718C31.0386 42.6549 30.6747 42.9673 30.2524 43.1829C29.8301 43.3986 29.3617 43.5111 28.8863 43.5112H14.5746C14.4394 43.511 14.3076 43.4695 14.1972 43.3924C14.0869 43.3152 14.0034 43.2062 13.9584 43.0802L12.3961 38.7311C12.3274 38.5276 12.197 38.3499 12.0227 38.2221C11.8483 38.0942 11.6384 38.0223 11.4214 38.0162L6.14192 37.7763C5.63242 37.7555 5.14309 37.5739 4.74574 37.2582C4.34839 36.9425 4.06394 36.5093 3.93415 36.0222L3.11823 33.1441C3.04807 32.8447 3.05628 32.5326 3.1421 32.2373C3.22792 31.9419 3.38852 31.673 3.60874 31.4559C3.29578 31.3163 3.03265 31.0868 2.85364 30.7974C2.67463 30.5079 2.58805 30.1719 2.60517 29.8332L2.63205 27.9814L1.05493 26.6815C0.697552 26.3894 0.467477 25.9728 0.412272 25.5179C0.357067 25.0629 0.480955 24.6045 0.758322 24.2372L4.63584 19.0722C3.77721 14.6192 4.85085 10.8233 7.39939 7.96081C9.83945 5.22161 13.4468 3.56425 17.2302 2.99109V2.62179C17.2311 2.15069 17.4209 1.69913 17.7582 1.36601C18.0954 1.03289 18.5526 0.84536 19.0295 0.844482H21.5138C21.9907 0.845484 22.4477 1.03306 22.785 1.36615C23.1222 1.69924 23.3121 2.15072 23.3131 2.62179V3.01906ZM22.0038 13.3126C20.8794 12.9414 19.6634 12.9414 18.539 13.3126V2.62179C18.5399 2.49356 18.5919 2.37083 18.6837 2.28015C18.7755 2.18948 18.8997 2.13815 19.0295 2.13728H21.5138C21.6435 2.13815 21.7677 2.18949 21.8594 2.28018C21.9512 2.37087 22.003 2.4936 22.0038 2.62179V13.3126ZM18.2602 18.4535C18.2556 18.6219 18.1846 18.7819 18.0624 18.8994C17.9401 19.0169 17.7763 19.0826 17.6058 19.0826C17.4352 19.0826 17.2714 19.0169 17.1492 18.8994C17.0269 18.7819 16.956 18.6219 16.9513 18.4535C16.9534 17.5839 17.304 16.7505 17.9265 16.1356C18.549 15.5208 19.3927 15.1744 20.2731 15.1724C20.4436 15.177 20.6055 15.2471 20.7245 15.3678C20.8434 15.4885 20.91 15.6504 20.91 15.8188C20.91 15.9873 20.8434 16.1491 20.7245 16.2698C20.6055 16.3906 20.4436 16.4607 20.2731 16.4652C19.7398 16.4672 19.229 16.6773 18.852 17.0498C18.4749 17.4222 18.2622 17.9268 18.2602 18.4535ZM22.286 22.1963C22.2906 22.0279 22.3616 21.8679 22.4838 21.7504C22.606 21.6329 22.7698 21.5672 22.9404 21.5672C23.111 21.5672 23.2748 21.6329 23.397 21.7504C23.5192 21.8679 23.5902 22.0279 23.5948 22.1963C23.5928 23.0659 23.2422 23.8994 22.6197 24.5143C21.9972 25.1293 21.1535 25.4757 20.2731 25.4778C20.0995 25.4778 19.9329 25.4097 19.8102 25.2885C19.6874 25.1672 19.6184 25.0027 19.6184 24.8312C19.6184 24.6597 19.6874 24.4952 19.8102 24.374C19.9329 24.2527 20.0995 24.1846 20.2731 24.1846C20.8063 24.1826 21.3171 23.9725 21.6942 23.6C22.0712 23.2276 22.284 22.723 22.286 22.1963ZM20.2731 14.3267C21.3792 14.3308 22.4389 14.7667 23.221 15.5392C24.0032 16.3118 24.4445 17.3585 24.4486 18.4511V22.1939C24.4486 23.2882 24.0086 24.3376 23.2252 25.1114C22.4419 25.8851 21.3795 26.3198 20.2716 26.3198C19.1638 26.3198 18.1014 25.8851 17.3181 25.1114C16.5347 24.3376 16.0946 23.2882 16.0946 22.1939V18.4525C16.0982 17.3593 16.5394 16.3119 17.3219 15.5388C18.1045 14.7657 19.1649 14.3298 20.2716 14.3262L20.2731 14.3267Z" fill="white"/>
</svg>
