<svg width="50" height="50" viewBox="0 0 50 50" fill="none" xmlns="http://www.w3.org/2000/svg">
<circle cx="25" cy="25" r="24" fill="#444444"/>
<circle cx="25" cy="25" r="24" fill="white" fill-opacity="0.8"/>
<path d="M25 1.5C25 0.671573 25.6722 -0.00469072 26.4992 0.0449798C30.9168 0.310325 35.1947 1.74461 38.8893 4.21326C43.0005 6.9603 46.2048 10.8648 48.097 15.4329C49.9892 20.0011 50.4843 25.0277 49.5196 29.8773C48.555 34.7268 46.174 39.1814 42.6777 42.6777C39.1814 46.174 34.7268 48.555 29.8773 49.5196C25.0277 50.4843 20.0011 49.9892 15.4329 48.097C10.8648 46.2048 6.96029 43.0005 4.21326 38.8893C1.74461 35.1947 0.310325 30.9168 0.0449797 26.4992C-0.00469077 25.6722 0.671573 25 1.5 25C2.32843 25 2.99467 25.6724 3.05111 26.4989C3.3122 30.3227 4.56873 34.0214 6.70767 37.2225C9.12506 40.8404 12.561 43.6602 16.581 45.3253C20.6009 46.9905 25.0244 47.4262 29.292 46.5773C33.5596 45.7284 37.4796 43.6331 40.5564 40.5564C43.6331 37.4796 45.7284 33.5596 46.5773 29.292C47.4262 25.0244 46.9905 20.6009 45.3254 16.581C43.6602 12.561 40.8404 9.12506 37.2225 6.70767C34.0214 4.56873 30.3227 3.3122 26.4989 3.05111C25.6724 2.99467 25 2.32843 25 1.5Z" fill="#444444"/>
<circle cx="25" cy="25" r="22" fill="#444444"/>
<circle cx="25" cy="25" r="22" fill="white" fill-opacity="0.95"/>
<path d="M23 19L29 25L23 31" stroke="#444444" stroke-width="2.5" stroke-linecap="round" stroke-linejoin="round"/>
</svg>
