<svg width="28" height="19" viewBox="0 0 28 19" fill="none" xmlns="http://www.w3.org/2000/svg">
<path d="M0.736 13.568V12.192L6.112 4.48H8.32V11.984H9.808V13.568H8.32V16H6.528V13.568H0.736ZM6.608 6.336L2.832 11.984H6.608V6.336ZM17.4794 0.895999L13.1274 18.8H11.3354L15.6714 0.895999H17.4794ZM25.8101 7.04C25.6928 6.54933 25.4795 6.18133 25.1701 5.936C24.8608 5.69067 24.4288 5.568 23.8741 5.568C23.0315 5.568 22.4021 5.89333 21.9861 6.544C21.5701 7.184 21.3515 8.25067 21.3301 9.744C21.6075 9.27467 22.0128 8.912 22.5461 8.656C23.0795 8.4 23.6555 8.272 24.2741 8.272C24.9781 8.272 25.5968 8.42667 26.1301 8.736C26.6741 9.03467 27.0955 9.472 27.3941 10.048C27.7035 10.624 27.8581 11.312 27.8581 12.112C27.8581 12.8587 27.7088 13.5253 27.4101 14.112C27.1221 14.6987 26.6901 15.1627 26.1141 15.504C25.5381 15.8347 24.8448 16 24.0341 16C22.9355 16 22.0715 15.76 21.4421 15.28C20.8235 14.7893 20.3861 14.1013 20.1301 13.216C19.8848 12.3307 19.7621 11.2267 19.7621 9.904C19.7621 6 21.1381 4.048 23.8901 4.048C24.9568 4.048 25.7941 4.336 26.4021 4.912C27.0208 5.488 27.3835 6.19733 27.4901 7.04H25.8101ZM23.8741 9.808C23.2235 9.808 22.6688 10.0053 22.2101 10.4C21.7621 10.784 21.5381 11.344 21.5381 12.08C21.5381 12.816 21.7461 13.4027 22.1621 13.84C22.5888 14.2667 23.1808 14.48 23.9381 14.48C24.6101 14.48 25.1381 14.272 25.5221 13.856C25.9168 13.44 26.1141 12.8853 26.1141 12.192C26.1141 11.4667 25.9221 10.8907 25.5381 10.464C25.1648 10.0267 24.6101 9.808 23.8741 9.808Z" fill="#444444"/>
</svg>
