<svg width="50" height="50" viewBox="0 0 50 50" fill="none" xmlns="http://www.w3.org/2000/svg">
<circle cx="25" cy="25" r="24" fill="#444444"/>
<circle cx="25" cy="25" r="24" fill="white" fill-opacity="0.8"/>
<path d="M25 1.5C25 0.671573 25.6722 -0.00469 26.4992 0.0449835C30.454 0.282547 34.3035 1.45737 37.726 3.48145C41.5798 5.76054 44.7507 9.03273 46.9077 12.9562C49.0646 16.8796 50.1283 21.3103 49.9877 25.7853C49.847 30.2603 48.5072 34.6154 46.1082 38.3957C43.7092 42.1759 40.339 45.2425 36.3498 47.2752C32.3605 49.3078 27.8986 50.2318 23.4302 49.9507C18.9618 49.6695 14.6509 48.1936 10.9479 45.677C7.65923 43.442 4.95718 40.4591 3.05834 36.9818C2.6613 36.2547 2.98698 35.3585 3.73657 35.0058C4.48615 34.6531 5.37527 34.9778 5.77824 35.7016C7.44431 38.6942 9.78993 41.2628 12.6342 43.1958C15.8928 45.4104 19.6864 46.7092 23.6186 46.9566C27.5508 47.204 31.4773 46.3908 34.9878 44.6021C38.4983 42.8134 41.4641 40.1148 43.5752 36.7882C45.6864 33.4616 46.8654 29.6291 46.9891 25.691C47.1129 21.753 46.1768 17.854 44.2787 14.4014C42.3807 10.9488 39.5902 8.06928 36.1989 6.06368C33.2389 4.31314 29.916 3.28445 26.4989 3.05111C25.6724 2.99467 25 2.32843 25 1.5Z" fill="#444444"/>
<circle cx="25" cy="25" r="22" fill="#444444"/>
<circle cx="25" cy="25" r="22" fill="white" fill-opacity="0.95"/>
<path d="M23 19L29 25L23 31" stroke="#444444" stroke-width="2.5" stroke-linecap="round" stroke-linejoin="round"/>
</svg>
