<svg width="24" height="19" viewBox="0 0 24 19" fill="none" xmlns="http://www.w3.org/2000/svg">
<path d="M0.72 6V4.336H4.048V16H2.208V6H0.72ZM12.7138 0.895999L8.36175 18.8H6.56975L10.9058 0.895999H12.7138ZM21.0445 7.04C20.9272 6.54933 20.7138 6.18133 20.4045 5.936C20.0952 5.69067 19.6632 5.568 19.1085 5.568C18.2658 5.568 17.6365 5.89333 17.2205 6.544C16.8045 7.184 16.5858 8.25067 16.5645 9.744C16.8418 9.27467 17.2472 8.912 17.7805 8.656C18.3138 8.4 18.8898 8.272 19.5085 8.272C20.2125 8.272 20.8312 8.42667 21.3645 8.736C21.9085 9.03467 22.3298 9.472 22.6285 10.048C22.9378 10.624 23.0925 11.312 23.0925 12.112C23.0925 12.8587 22.9432 13.5253 22.6445 14.112C22.3565 14.6987 21.9245 15.1627 21.3485 15.504C20.7725 15.8347 20.0792 16 19.2685 16C18.1698 16 17.3058 15.76 16.6765 15.28C16.0578 14.7893 15.6205 14.1013 15.3645 13.216C15.1192 12.3307 14.9965 11.2267 14.9965 9.904C14.9965 6 16.3725 4.048 19.1245 4.048C20.1912 4.048 21.0285 4.336 21.6365 4.912C22.2552 5.488 22.6178 6.19733 22.7245 7.04H21.0445ZM19.1085 9.808C18.4578 9.808 17.9032 10.0053 17.4445 10.4C16.9965 10.784 16.7725 11.344 16.7725 12.08C16.7725 12.816 16.9805 13.4027 17.3965 13.84C17.8232 14.2667 18.4152 14.48 19.1725 14.48C19.8445 14.48 20.3725 14.272 20.7565 13.856C21.1512 13.44 21.3485 12.8853 21.3485 12.192C21.3485 11.4667 21.1565 10.8907 20.7725 10.464C20.3992 10.0267 19.8445 9.808 19.1085 9.808Z" fill="#444444"/>
</svg>
