<svg width="50" height="50" viewBox="0 0 50 50" fill="none" xmlns="http://www.w3.org/2000/svg">
<circle cx="25" cy="25" r="24" fill="#444444"/>
<circle cx="25" cy="25" r="24" fill="white" fill-opacity="0.8"/>
<path d="M25 1.5C25 0.671573 25.6722 -0.00469 26.4992 0.0449835C30.454 0.282547 34.3035 1.45737 37.726 3.48145C41.1486 5.50553 44.0326 8.31291 46.146 11.6641C46.5879 12.3648 46.3192 13.2797 45.5932 13.6788C44.8673 14.0779 43.9595 13.8097 43.5119 13.1126C41.6612 10.2305 39.1589 7.81421 36.1989 6.06368C33.2389 4.31314 29.916 3.28445 26.4989 3.05111C25.6724 2.99467 25 2.32843 25 1.5Z" fill="#444444"/>
<circle cx="25" cy="25" r="22" fill="#444444"/>
<circle cx="25" cy="25" r="22" fill="white" fill-opacity="0.95"/>
<path d="M23 19L29 25L23 31" stroke="#444444" stroke-width="2.5" stroke-linecap="round" stroke-linejoin="round"/>
</svg>
