<svg width="32" height="32" viewBox="0 0 32 32" fill="none" xmlns="http://www.w3.org/2000/svg">
<path fill-rule="evenodd" clip-rule="evenodd" d="M30.7947 30.7683C32.4018 29.1577 32.4018 26.5048 30.7947 24.8941L21.8139 15.9882L30.7002 7.08216C32.3072 5.4715 32.3072 2.81865 30.7002 1.20799C29.0931 -0.402665 26.4461 -0.402665 24.839 1.20799L1.20532 24.8941C-0.401773 26.5048 -0.401773 29.1577 1.20532 30.7683C1.9616 31.621 3.09601 32 4.13589 32C5.17578 32 6.21566 31.621 7.06647 30.7683L15.9527 21.8623L24.9335 30.7683C25.6898 31.621 26.8242 32 27.8641 32C28.904 32 29.9439 31.621 30.7947 30.7683Z" fill="white"/>
<path d="M1.20532 7.08216L6.63884 12.295C6.63884 12.295 9.40323 15.0806 12.2419 12.2419C15.0806 9.40323 12.5 6.42087 12.5 6.42087L7.06647 1.20799C5.45938 -0.402665 2.81241 -0.402665 1.20532 1.20799C-0.401773 2.81865 -0.401773 5.4715 1.20532 7.08216Z" fill="white"/>
</svg>
