<svg width="50" height="50" viewBox="0 0 50 50" fill="none" xmlns="http://www.w3.org/2000/svg">
<circle cx="25" cy="25" r="24" fill="#444444"/>
<circle cx="25" cy="25" r="24" fill="white" fill-opacity="0.8"/>
<path d="M25 1.5C25 0.671573 25.6723 -0.00469152 26.4992 0.0449705C31.7802 0.362125 36.8393 2.34843 40.9356 5.73717C45.4181 9.44545 48.4671 14.6009 49.5572 20.3155C50.6473 26.03 49.7103 31.9458 46.9077 37.0438C44.105 42.1418 39.6122 46.1028 34.2031 48.2444C28.794 50.386 22.8074 50.5742 17.2746 48.7764C11.7417 46.9787 7.00902 43.3076 3.8918 38.3957C0.774575 33.4837 -0.532007 27.6384 0.197133 21.8667C0.863444 16.5923 3.19164 11.6811 6.82424 7.83484C7.39305 7.23256 8.34605 7.26533 8.91315 7.86923C9.48025 8.47313 9.44616 9.4191 8.88229 10.026C5.75607 13.3909 3.75227 17.661 3.17348 22.2427C2.53183 27.3218 3.68163 32.4657 6.42478 36.7882C9.16794 41.1107 13.3327 44.3412 18.2016 45.9232C23.0705 47.5053 28.3388 47.3397 33.0987 45.4551C37.8587 43.5705 41.8124 40.0848 44.2787 35.5986C46.7451 31.1123 47.5696 25.9064 46.6103 20.8776C45.651 15.8488 42.968 11.312 39.0233 8.04871C35.4651 5.10506 31.0812 3.36393 26.4989 3.0511C25.6724 2.99467 25 2.32843 25 1.5Z" fill="#444444"/>
<circle cx="25" cy="25" r="22" fill="#444444"/>
<circle cx="25" cy="25" r="22" fill="white" fill-opacity="0.95"/>
<path d="M27 19L21 25L27 31" stroke="#444444" stroke-width="2.5" stroke-linecap="round" stroke-linejoin="round"/>
</svg>
