<svg width="27" height="19" viewBox="0 0 27 19" fill="none" xmlns="http://www.w3.org/2000/svg">
<path d="M1.968 13.52C2.992 12.6347 3.79733 11.9093 4.384 11.344C4.98133 10.768 5.47733 10.1707 5.872 9.552C6.26667 8.93333 6.464 8.31467 6.464 7.696C6.464 7.056 6.30933 6.55467 6 6.192C5.70133 5.82933 5.22667 5.648 4.576 5.648C3.94667 5.648 3.456 5.85067 3.104 6.256C2.76267 6.65067 2.58133 7.184 2.56 7.856H0.8C0.832 6.64 1.19467 5.712 1.888 5.072C2.592 4.42133 3.48267 4.096 4.56 4.096C5.72267 4.096 6.62933 4.416 7.28 5.056C7.94133 5.696 8.272 6.54933 8.272 7.616C8.272 8.384 8.07467 9.12533 7.68 9.84C7.296 10.544 6.832 11.1787 6.288 11.744C5.75467 12.2987 5.072 12.944 4.24 13.68L3.52 14.32H8.592V15.84H0.816V14.512L1.968 13.52ZM16.3544 0.895999L12.0024 18.8H10.2104L14.5464 0.895999H16.3544ZM24.6851 7.04C24.5678 6.54933 24.3545 6.18133 24.0451 5.936C23.7358 5.69067 23.3038 5.568 22.7491 5.568C21.9065 5.568 21.2771 5.89333 20.8611 6.544C20.4451 7.184 20.2265 8.25067 20.2051 9.744C20.4825 9.27467 20.8878 8.912 21.4211 8.656C21.9545 8.4 22.5305 8.272 23.1491 8.272C23.8531 8.272 24.4718 8.42667 25.0051 8.736C25.5491 9.03467 25.9705 9.472 26.2691 10.048C26.5785 10.624 26.7331 11.312 26.7331 12.112C26.7331 12.8587 26.5838 13.5253 26.2851 14.112C25.9971 14.6987 25.5651 15.1627 24.9891 15.504C24.4131 15.8347 23.7198 16 22.9091 16C21.8105 16 20.9465 15.76 20.3171 15.28C19.6985 14.7893 19.2611 14.1013 19.0051 13.216C18.7598 12.3307 18.6371 11.2267 18.6371 9.904C18.6371 6 20.0131 4.048 22.7651 4.048C23.8318 4.048 24.6691 4.336 25.2771 4.912C25.8958 5.488 26.2585 6.19733 26.3651 7.04H24.6851ZM22.7491 9.808C22.0985 9.808 21.5438 10.0053 21.0851 10.4C20.6371 10.784 20.4131 11.344 20.4131 12.08C20.4131 12.816 20.6211 13.4027 21.0371 13.84C21.4638 14.2667 22.0558 14.48 22.8131 14.48C23.4851 14.48 24.0131 14.272 24.3971 13.856C24.7918 13.44 24.9891 12.8853 24.9891 12.192C24.9891 11.4667 24.7971 10.8907 24.4131 10.464C24.0398 10.0267 23.4851 9.808 22.7491 9.808Z" fill="#444444"/>
</svg>
