<svg width="50" height="50" viewBox="0 0 50 50" fill="none" xmlns="http://www.w3.org/2000/svg">
<circle cx="25" cy="25" r="24" fill="#444444"/>
<circle cx="25" cy="25" r="24" fill="white" fill-opacity="0.8"/>
<path d="M25 1.5C25 0.671573 25.6722 -0.00469 26.4992 0.0449835C30.454 0.282547 34.3035 1.45737 37.726 3.48145C41.5798 5.76054 44.7507 9.03273 46.9077 12.9562C49.0646 16.8796 50.1283 21.3103 49.9877 25.7853C49.8628 29.7596 48.792 33.6393 46.8735 37.1058C46.4724 37.8306 45.5412 38.0358 44.8417 37.5919C44.1422 37.148 43.94 36.2233 44.3352 35.4953C45.9692 32.4851 46.8811 29.1282 46.9891 25.691C47.1129 21.753 46.1768 17.854 44.2787 14.4014C42.3807 10.9488 39.5902 8.06928 36.1989 6.06368C33.2389 4.31314 29.916 3.28445 26.4989 3.05111C25.6724 2.99467 25 2.32843 25 1.5Z" fill="#444444"/>
<circle cx="25" cy="25" r="22" fill="#444444"/>
<circle cx="25" cy="25" r="22" fill="white" fill-opacity="0.95"/>
<path d="M23 19L29 25L23 31" stroke="#444444" stroke-width="2.5" stroke-linecap="round" stroke-linejoin="round"/>
</svg>
