<svg width="72" height="72" viewBox="0 0 72 72" fill="none" xmlns="http://www.w3.org/2000/svg">
<path d="M5.31818 11.0758V26.303L21.9848 42.9697C21.3788 43.803 21 44.8636 21 45.9242C21 48.7273 23.2727 51 26.0758 51C28.8788 51 31.1515 48.7273 31.1515 45.9242C31.1515 43.1212 28.8788 40.8485 26.0758 40.8485C24.9394 40.8485 23.9545 41.2273 23.1212 41.8333L6.83333 25.697V11.0758C9.25758 10.697 11.1515 8.65151 11.1515 6.07576C11.1515 3.27273 8.87879 1 6.07576 1C3.27273 1 1 3.27273 1 6.07576C1.07576 8.65151 2.89394 10.697 5.31818 11.0758ZM29.5606 45.9242C29.5606 47.8939 27.9697 49.4848 26 49.4848C24.0303 49.4848 22.4394 47.8939 22.4394 45.9242C22.4394 43.9545 24.0303 42.3636 26 42.3636C27.9697 42.4394 29.5606 44.0303 29.5606 45.9242ZM6.07576 2.59091C8.04545 2.59091 9.63636 4.18182 9.63636 6.15151C9.63636 8.12121 8.04545 9.71212 6.07576 9.71212C4.10606 9.71212 2.51515 8.12121 2.51515 6.15151C2.59091 4.18182 4.18182 2.59091 6.07576 2.59091Z" fill="#444444"/>
<path d="M5.31818 11.0758V26.303L21.9848 42.9697C21.3788 43.803 21 44.8636 21 45.9242C21 48.7273 23.2727 51 26.0758 51C28.8788 51 31.1515 48.7273 31.1515 45.9242C31.1515 43.1212 28.8788 40.8485 26.0758 40.8485C24.9394 40.8485 23.9545 41.2273 23.1212 41.8333L6.83333 25.697V11.0758C9.25758 10.697 11.1515 8.65151 11.1515 6.07576C11.1515 3.27273 8.87879 1 6.07576 1C3.27273 1 1 3.27273 1 6.07576C1.07576 8.65151 2.89394 10.697 5.31818 11.0758ZM29.5606 45.9242C29.5606 47.8939 27.9697 49.4848 26 49.4848C24.0303 49.4848 22.4394 47.8939 22.4394 45.9242C22.4394 43.9545 24.0303 42.3636 26 42.3636C27.9697 42.4394 29.5606 44.0303 29.5606 45.9242ZM6.07576 2.59091C8.04545 2.59091 9.63636 4.18182 9.63636 6.15151C9.63636 8.12121 8.04545 9.71212 6.07576 9.71212C4.10606 9.71212 2.51515 8.12121 2.51515 6.15151C2.59091 4.18182 4.18182 2.59091 6.07576 2.59091Z" fill="white" fill-opacity="0.5"/>
<path d="M5.31818 11.0758V26.303L21.9848 42.9697C21.3788 43.803 21 44.8636 21 45.9242C21 48.7273 23.2727 51 26.0758 51C28.8788 51 31.1515 48.7273 31.1515 45.9242C31.1515 43.1212 28.8788 40.8485 26.0758 40.8485C24.9394 40.8485 23.9545 41.2273 23.1212 41.8333L6.83333 25.697V11.0758C9.25758 10.697 11.1515 8.65151 11.1515 6.07576C11.1515 3.27273 8.87879 1 6.07576 1C3.27273 1 1 3.27273 1 6.07576C1.07576 8.65151 2.89394 10.697 5.31818 11.0758ZM29.5606 45.9242C29.5606 47.8939 27.9697 49.4848 26 49.4848C24.0303 49.4848 22.4394 47.8939 22.4394 45.9242C22.4394 43.9545 24.0303 42.3636 26 42.3636C27.9697 42.4394 29.5606 44.0303 29.5606 45.9242ZM6.07576 2.59091C8.04545 2.59091 9.63636 4.18182 9.63636 6.15151C9.63636 8.12121 8.04545 9.71212 6.07576 9.71212C4.10606 9.71212 2.51515 8.12121 2.51515 6.15151C2.59091 4.18182 4.18182 2.59091 6.07576 2.59091Z" stroke="#444444" stroke-width="0.820312"/>
<path d="M5.31818 11.0758V26.303L21.9848 42.9697C21.3788 43.803 21 44.8636 21 45.9242C21 48.7273 23.2727 51 26.0758 51C28.8788 51 31.1515 48.7273 31.1515 45.9242C31.1515 43.1212 28.8788 40.8485 26.0758 40.8485C24.9394 40.8485 23.9545 41.2273 23.1212 41.8333L6.83333 25.697V11.0758C9.25758 10.697 11.1515 8.65151 11.1515 6.07576C11.1515 3.27273 8.87879 1 6.07576 1C3.27273 1 1 3.27273 1 6.07576C1.07576 8.65151 2.89394 10.697 5.31818 11.0758ZM29.5606 45.9242C29.5606 47.8939 27.9697 49.4848 26 49.4848C24.0303 49.4848 22.4394 47.8939 22.4394 45.9242C22.4394 43.9545 24.0303 42.3636 26 42.3636C27.9697 42.4394 29.5606 44.0303 29.5606 45.9242ZM6.07576 2.59091C8.04545 2.59091 9.63636 4.18182 9.63636 6.15151C9.63636 8.12121 8.04545 9.71212 6.07576 9.71212C4.10606 9.71212 2.51515 8.12121 2.51515 6.15151C2.59091 4.18182 4.18182 2.59091 6.07576 2.59091Z" stroke="white" stroke-opacity="0.5" stroke-width="0.820312"/>
<path d="M66.6061 21.0758V11.0758C69.0304 10.697 70.9243 8.65152 70.9243 6.07576C70.9243 3.27273 68.6516 1 65.8486 1C63.3486 1 61.2273 2.89394 60.8486 5.31818H31.0001C30.6213 2.89394 28.5758 1 26.0001 1C23.197 1 20.9243 3.27273 20.9243 6.07576C20.9243 8.87879 23.197 11.1515 26.0001 11.1515C28.5001 11.1515 30.6213 9.25758 31.0001 6.83333H60.9243C61.2273 9.0303 62.9698 10.697 65.1667 11.0758V21.0758C62.7425 21.4545 60.8486 23.5 60.8486 26.0758C60.8486 27.2121 61.2273 28.197 61.8334 29.0303L48.9546 41.9091C48.1213 41.303 47.0607 40.9242 46.0001 40.9242C43.197 40.9242 40.9243 43.197 40.9243 46C40.9243 48.803 43.197 51.0758 46.0001 51.0758C48.8031 51.0758 51.0758 48.803 51.0758 46C51.0758 44.8636 50.697 43.8788 50.091 43.0455L62.9698 30.1667C63.8031 30.7727 64.8637 31.1515 65.9243 31.1515C68.7273 31.1515 71.0001 28.8788 71.0001 26.0758C70.9243 23.5 69.0304 21.3788 66.6061 21.0758ZM26.0001 9.63636C24.0304 9.63636 22.4395 8.04545 22.4395 6.07576C22.4395 4.10606 24.0304 2.51515 26.0001 2.51515C27.9698 2.51515 29.5607 4.10606 29.5607 6.07576C29.5607 8.04545 27.9698 9.63636 26.0001 9.63636ZM62.3637 6.07576C62.3637 4.10606 63.9546 2.51515 65.9243 2.51515C67.894 2.51515 69.4849 4.10606 69.4849 6.07576C69.4849 8.04545 67.894 9.63636 65.9243 9.63636C63.9546 9.63636 62.3637 8.04545 62.3637 6.07576ZM45.9243 49.4848C43.9546 49.4848 42.3637 47.8939 42.3637 45.9242C42.3637 43.9545 43.9546 42.3636 45.9243 42.3636C47.894 42.3636 49.4849 43.9545 49.4849 45.9242C49.4849 47.8939 47.894 49.4848 45.9243 49.4848ZM65.8486 29.5606C63.8789 29.5606 62.288 27.9697 62.288 26C62.288 24.0303 63.8789 22.4394 65.8486 22.4394C67.8183 22.4394 69.4092 24.0303 69.4092 26C69.4092 27.9697 67.8183 29.5606 65.8486 29.5606Z" fill="#444444"/>
<path d="M66.6061 21.0758V11.0758C69.0304 10.697 70.9243 8.65152 70.9243 6.07576C70.9243 3.27273 68.6516 1 65.8486 1C63.3486 1 61.2273 2.89394 60.8486 5.31818H31.0001C30.6213 2.89394 28.5758 1 26.0001 1C23.197 1 20.9243 3.27273 20.9243 6.07576C20.9243 8.87879 23.197 11.1515 26.0001 11.1515C28.5001 11.1515 30.6213 9.25758 31.0001 6.83333H60.9243C61.2273 9.0303 62.9698 10.697 65.1667 11.0758V21.0758C62.7425 21.4545 60.8486 23.5 60.8486 26.0758C60.8486 27.2121 61.2273 28.197 61.8334 29.0303L48.9546 41.9091C48.1213 41.303 47.0607 40.9242 46.0001 40.9242C43.197 40.9242 40.9243 43.197 40.9243 46C40.9243 48.803 43.197 51.0758 46.0001 51.0758C48.8031 51.0758 51.0758 48.803 51.0758 46C51.0758 44.8636 50.697 43.8788 50.091 43.0455L62.9698 30.1667C63.8031 30.7727 64.8637 31.1515 65.9243 31.1515C68.7273 31.1515 71.0001 28.8788 71.0001 26.0758C70.9243 23.5 69.0304 21.3788 66.6061 21.0758ZM26.0001 9.63636C24.0304 9.63636 22.4395 8.04545 22.4395 6.07576C22.4395 4.10606 24.0304 2.51515 26.0001 2.51515C27.9698 2.51515 29.5607 4.10606 29.5607 6.07576C29.5607 8.04545 27.9698 9.63636 26.0001 9.63636ZM62.3637 6.07576C62.3637 4.10606 63.9546 2.51515 65.9243 2.51515C67.894 2.51515 69.4849 4.10606 69.4849 6.07576C69.4849 8.04545 67.894 9.63636 65.9243 9.63636C63.9546 9.63636 62.3637 8.04545 62.3637 6.07576ZM45.9243 49.4848C43.9546 49.4848 42.3637 47.8939 42.3637 45.9242C42.3637 43.9545 43.9546 42.3636 45.9243 42.3636C47.894 42.3636 49.4849 43.9545 49.4849 45.9242C49.4849 47.8939 47.894 49.4848 45.9243 49.4848ZM65.8486 29.5606C63.8789 29.5606 62.288 27.9697 62.288 26C62.288 24.0303 63.8789 22.4394 65.8486 22.4394C67.8183 22.4394 69.4092 24.0303 69.4092 26C69.4092 27.9697 67.8183 29.5606 65.8486 29.5606Z" fill="white" fill-opacity="0.5"/>
<path d="M66.6061 21.0758V11.0758C69.0304 10.697 70.9243 8.65152 70.9243 6.07576C70.9243 3.27273 68.6516 1 65.8486 1C63.3486 1 61.2273 2.89394 60.8486 5.31818H31.0001C30.6213 2.89394 28.5758 1 26.0001 1C23.197 1 20.9243 3.27273 20.9243 6.07576C20.9243 8.87879 23.197 11.1515 26.0001 11.1515C28.5001 11.1515 30.6213 9.25758 31.0001 6.83333H60.9243C61.2273 9.0303 62.9698 10.697 65.1667 11.0758V21.0758C62.7425 21.4545 60.8486 23.5 60.8486 26.0758C60.8486 27.2121 61.2273 28.197 61.8334 29.0303L48.9546 41.9091C48.1213 41.303 47.0607 40.9242 46.0001 40.9242C43.197 40.9242 40.9243 43.197 40.9243 46C40.9243 48.803 43.197 51.0758 46.0001 51.0758C48.8031 51.0758 51.0758 48.803 51.0758 46C51.0758 44.8636 50.697 43.8788 50.091 43.0455L62.9698 30.1667C63.8031 30.7727 64.8637 31.1515 65.9243 31.1515C68.7273 31.1515 71.0001 28.8788 71.0001 26.0758C70.9243 23.5 69.0304 21.3788 66.6061 21.0758ZM26.0001 9.63636C24.0304 9.63636 22.4395 8.04545 22.4395 6.07576C22.4395 4.10606 24.0304 2.51515 26.0001 2.51515C27.9698 2.51515 29.5607 4.10606 29.5607 6.07576C29.5607 8.04545 27.9698 9.63636 26.0001 9.63636ZM62.3637 6.07576C62.3637 4.10606 63.9546 2.51515 65.9243 2.51515C67.894 2.51515 69.4849 4.10606 69.4849 6.07576C69.4849 8.04545 67.894 9.63636 65.9243 9.63636C63.9546 9.63636 62.3637 8.04545 62.3637 6.07576ZM45.9243 49.4848C43.9546 49.4848 42.3637 47.8939 42.3637 45.9242C42.3637 43.9545 43.9546 42.3636 45.9243 42.3636C47.894 42.3636 49.4849 43.9545 49.4849 45.9242C49.4849 47.8939 47.894 49.4848 45.9243 49.4848ZM65.8486 29.5606C63.8789 29.5606 62.288 27.9697 62.288 26C62.288 24.0303 63.8789 22.4394 65.8486 22.4394C67.8183 22.4394 69.4092 24.0303 69.4092 26C69.4092 27.9697 67.8183 29.5606 65.8486 29.5606Z" stroke="#444444" stroke-width="0.820312"/>
<path d="M66.6061 21.0758V11.0758C69.0304 10.697 70.9243 8.65152 70.9243 6.07576C70.9243 3.27273 68.6516 1 65.8486 1C63.3486 1 61.2273 2.89394 60.8486 5.31818H31.0001C30.6213 2.89394 28.5758 1 26.0001 1C23.197 1 20.9243 3.27273 20.9243 6.07576C20.9243 8.87879 23.197 11.1515 26.0001 11.1515C28.5001 11.1515 30.6213 9.25758 31.0001 6.83333H60.9243C61.2273 9.0303 62.9698 10.697 65.1667 11.0758V21.0758C62.7425 21.4545 60.8486 23.5 60.8486 26.0758C60.8486 27.2121 61.2273 28.197 61.8334 29.0303L48.9546 41.9091C48.1213 41.303 47.0607 40.9242 46.0001 40.9242C43.197 40.9242 40.9243 43.197 40.9243 46C40.9243 48.803 43.197 51.0758 46.0001 51.0758C48.8031 51.0758 51.0758 48.803 51.0758 46C51.0758 44.8636 50.697 43.8788 50.091 43.0455L62.9698 30.1667C63.8031 30.7727 64.8637 31.1515 65.9243 31.1515C68.7273 31.1515 71.0001 28.8788 71.0001 26.0758C70.9243 23.5 69.0304 21.3788 66.6061 21.0758ZM26.0001 9.63636C24.0304 9.63636 22.4395 8.04545 22.4395 6.07576C22.4395 4.10606 24.0304 2.51515 26.0001 2.51515C27.9698 2.51515 29.5607 4.10606 29.5607 6.07576C29.5607 8.04545 27.9698 9.63636 26.0001 9.63636ZM62.3637 6.07576C62.3637 4.10606 63.9546 2.51515 65.9243 2.51515C67.894 2.51515 69.4849 4.10606 69.4849 6.07576C69.4849 8.04545 67.894 9.63636 65.9243 9.63636C63.9546 9.63636 62.3637 8.04545 62.3637 6.07576ZM45.9243 49.4848C43.9546 49.4848 42.3637 47.8939 42.3637 45.9242C42.3637 43.9545 43.9546 42.3636 45.9243 42.3636C47.894 42.3636 49.4849 43.9545 49.4849 45.9242C49.4849 47.8939 47.894 49.4848 45.9243 49.4848ZM65.8486 29.5606C63.8789 29.5606 62.288 27.9697 62.288 26C62.288 24.0303 63.8789 22.4394 65.8486 22.4394C67.8183 22.4394 69.4092 24.0303 69.4092 26C69.4092 27.9697 67.8183 29.5606 65.8486 29.5606Z" stroke="white" stroke-opacity="0.5" stroke-width="0.820312"/>
<path d="M70.9241 45.9242C70.9241 43.1212 68.6514 40.8484 65.8484 40.8484C63.0454 40.8484 60.7726 43.1212 60.7726 45.9242C60.7726 48.4242 62.6666 50.5454 65.0908 50.9242V60.9242C62.8938 61.2272 61.2272 62.9697 60.8484 65.1666H50.9241C50.5454 62.7424 48.4999 60.8484 45.9241 60.8484C43.1211 60.8484 40.8484 63.1212 40.8484 65.9242C40.8484 68.7272 43.1211 71 45.9241 71C48.4241 71 50.5454 69.106 50.9241 66.6818H60.9241C61.3029 69.106 63.3484 71 65.9241 71C68.7272 71 70.9999 68.7272 70.9999 65.9242C70.9999 63.4242 69.106 61.303 66.6817 60.9242V50.9242C69.0302 50.5454 70.9241 48.4242 70.9241 45.9242ZM45.9241 69.4091C43.9544 69.4091 42.3635 67.8181 42.3635 65.8484C42.3635 63.8787 43.9544 62.2878 45.9241 62.2878C47.8938 62.2878 49.4848 63.8787 49.4848 65.8484C49.4848 67.8181 47.8938 69.4091 45.9241 69.4091ZM62.3635 45.9242C62.3635 43.9545 63.9544 42.3636 65.9241 42.3636C67.8938 42.3636 69.4847 43.9545 69.4847 45.9242C69.4847 47.8939 67.8938 49.4848 65.9241 49.4848C63.9544 49.4848 62.3635 47.8939 62.3635 45.9242ZM69.409 65.8484C69.409 67.8181 67.8181 69.4091 65.8484 69.4091C63.8787 69.4091 62.2878 67.8181 62.2878 65.8484C62.2878 63.8787 63.8787 62.2878 65.8484 62.2878C67.8181 62.2878 69.409 63.9545 69.409 65.8484Z" fill="#444444"/>
<path d="M70.9241 45.9242C70.9241 43.1212 68.6514 40.8484 65.8484 40.8484C63.0454 40.8484 60.7726 43.1212 60.7726 45.9242C60.7726 48.4242 62.6666 50.5454 65.0908 50.9242V60.9242C62.8938 61.2272 61.2272 62.9697 60.8484 65.1666H50.9241C50.5454 62.7424 48.4999 60.8484 45.9241 60.8484C43.1211 60.8484 40.8484 63.1212 40.8484 65.9242C40.8484 68.7272 43.1211 71 45.9241 71C48.4241 71 50.5454 69.106 50.9241 66.6818H60.9241C61.3029 69.106 63.3484 71 65.9241 71C68.7272 71 70.9999 68.7272 70.9999 65.9242C70.9999 63.4242 69.106 61.303 66.6817 60.9242V50.9242C69.0302 50.5454 70.9241 48.4242 70.9241 45.9242ZM45.9241 69.4091C43.9544 69.4091 42.3635 67.8181 42.3635 65.8484C42.3635 63.8787 43.9544 62.2878 45.9241 62.2878C47.8938 62.2878 49.4848 63.8787 49.4848 65.8484C49.4848 67.8181 47.8938 69.4091 45.9241 69.4091ZM62.3635 45.9242C62.3635 43.9545 63.9544 42.3636 65.9241 42.3636C67.8938 42.3636 69.4847 43.9545 69.4847 45.9242C69.4847 47.8939 67.8938 49.4848 65.9241 49.4848C63.9544 49.4848 62.3635 47.8939 62.3635 45.9242ZM69.409 65.8484C69.409 67.8181 67.8181 69.4091 65.8484 69.4091C63.8787 69.4091 62.2878 67.8181 62.2878 65.8484C62.2878 63.8787 63.8787 62.2878 65.8484 62.2878C67.8181 62.2878 69.409 63.9545 69.409 65.8484Z" fill="white" fill-opacity="0.5"/>
<path d="M70.9241 45.9242C70.9241 43.1212 68.6514 40.8484 65.8484 40.8484C63.0454 40.8484 60.7726 43.1212 60.7726 45.9242C60.7726 48.4242 62.6666 50.5454 65.0908 50.9242V60.9242C62.8938 61.2272 61.2272 62.9697 60.8484 65.1666H50.9241C50.5454 62.7424 48.4999 60.8484 45.9241 60.8484C43.1211 60.8484 40.8484 63.1212 40.8484 65.9242C40.8484 68.7272 43.1211 71 45.9241 71C48.4241 71 50.5454 69.106 50.9241 66.6818H60.9241C61.3029 69.106 63.3484 71 65.9241 71C68.7272 71 70.9999 68.7272 70.9999 65.9242C70.9999 63.4242 69.106 61.303 66.6817 60.9242V50.9242C69.0302 50.5454 70.9241 48.4242 70.9241 45.9242ZM45.9241 69.4091C43.9544 69.4091 42.3635 67.8181 42.3635 65.8484C42.3635 63.8787 43.9544 62.2878 45.9241 62.2878C47.8938 62.2878 49.4848 63.8787 49.4848 65.8484C49.4848 67.8181 47.8938 69.4091 45.9241 69.4091ZM62.3635 45.9242C62.3635 43.9545 63.9544 42.3636 65.9241 42.3636C67.8938 42.3636 69.4847 43.9545 69.4847 45.9242C69.4847 47.8939 67.8938 49.4848 65.9241 49.4848C63.9544 49.4848 62.3635 47.8939 62.3635 45.9242ZM69.409 65.8484C69.409 67.8181 67.8181 69.4091 65.8484 69.4091C63.8787 69.4091 62.2878 67.8181 62.2878 65.8484C62.2878 63.8787 63.8787 62.2878 65.8484 62.2878C67.8181 62.2878 69.409 63.9545 69.409 65.8484Z" stroke="#444444" stroke-width="0.820312"/>
<path d="M70.9241 45.9242C70.9241 43.1212 68.6514 40.8484 65.8484 40.8484C63.0454 40.8484 60.7726 43.1212 60.7726 45.9242C60.7726 48.4242 62.6666 50.5454 65.0908 50.9242V60.9242C62.8938 61.2272 61.2272 62.9697 60.8484 65.1666H50.9241C50.5454 62.7424 48.4999 60.8484 45.9241 60.8484C43.1211 60.8484 40.8484 63.1212 40.8484 65.9242C40.8484 68.7272 43.1211 71 45.9241 71C48.4241 71 50.5454 69.106 50.9241 66.6818H60.9241C61.3029 69.106 63.3484 71 65.9241 71C68.7272 71 70.9999 68.7272 70.9999 65.9242C70.9999 63.4242 69.106 61.303 66.6817 60.9242V50.9242C69.0302 50.5454 70.9241 48.4242 70.9241 45.9242ZM45.9241 69.4091C43.9544 69.4091 42.3635 67.8181 42.3635 65.8484C42.3635 63.8787 43.9544 62.2878 45.9241 62.2878C47.8938 62.2878 49.4848 63.8787 49.4848 65.8484C49.4848 67.8181 47.8938 69.4091 45.9241 69.4091ZM62.3635 45.9242C62.3635 43.9545 63.9544 42.3636 65.9241 42.3636C67.8938 42.3636 69.4847 43.9545 69.4847 45.9242C69.4847 47.8939 67.8938 49.4848 65.9241 49.4848C63.9544 49.4848 62.3635 47.8939 62.3635 45.9242ZM69.409 65.8484C69.409 67.8181 67.8181 69.4091 65.8484 69.4091C63.8787 69.4091 62.2878 67.8181 62.2878 65.8484C62.2878 63.8787 63.8787 62.2878 65.8484 62.2878C67.8181 62.2878 69.409 63.9545 69.409 65.8484Z" stroke="white" stroke-opacity="0.5" stroke-width="0.820312"/>
<path d="M40.9998 26.7575C41.3785 29.1818 43.424 31.0757 45.9998 31.0757C48.8028 31.0757 51.0755 28.803 51.0755 26C51.0755 23.1969 48.8028 20.9242 45.9998 20.9242C43.4998 20.9242 41.3785 22.8181 40.9998 25.2424H30.9998C30.621 22.8181 28.5755 20.9242 25.9998 20.9242C23.1967 20.9242 20.924 23.1969 20.924 26C20.924 28.803 23.1967 31.0757 25.9998 31.0757C28.4998 31.0757 30.621 29.1818 30.9998 26.7575H35.2422V45.9242V55.5454L25.6967 65.0909H11.0755C10.7725 62.8939 9.03006 61.2272 6.83309 60.8484V50.9242C9.25733 50.5454 11.1513 48.5 11.1513 45.9242C11.1513 43.1212 8.87854 40.8484 6.07551 40.8484C3.27248 40.8484 0.999756 43.1212 0.999756 45.9242C0.999756 48.4242 2.89369 50.5454 5.31794 50.9242V60.9242C2.89369 61.303 0.999756 63.3484 0.999756 65.9242C0.999756 68.7272 3.27248 71 6.07551 71C8.57551 71 10.6967 69.106 11.0755 66.6818H26.3028L36.7573 56.2272V55.9242V45.9242V26.7575H40.9998ZM45.924 22.5151C47.8937 22.5151 49.4846 24.106 49.4846 26.0757C49.4846 28.0454 47.8937 29.6363 45.924 29.6363C43.9543 29.6363 42.3634 28.0454 42.3634 26.0757C42.4392 24.106 44.0301 22.5151 45.924 22.5151ZM25.9998 29.5606C24.0301 29.5606 22.4391 27.9696 22.4391 26C22.4391 24.0303 24.0301 22.4393 25.9998 22.4393C27.9695 22.4393 29.5604 24.0303 29.5604 26C29.5604 27.9696 27.9695 29.5606 25.9998 29.5606ZM2.59067 45.9242C2.59067 43.9545 4.18157 42.3636 6.15127 42.3636C8.12097 42.3636 9.71188 43.9545 9.71188 45.9242C9.71188 47.8939 8.12097 49.4848 6.15127 49.4848C4.18157 49.4848 2.59067 47.8939 2.59067 45.9242ZM6.07551 69.409C4.10582 69.409 2.51491 67.8181 2.51491 65.8484C2.51491 63.8787 4.10582 62.2878 6.07551 62.2878C8.04521 62.2878 9.63612 63.8787 9.63612 65.8484C9.63612 67.8181 8.04521 69.409 6.07551 69.409Z" fill="#444444"/>
<path d="M40.9998 26.7575C41.3785 29.1818 43.424 31.0757 45.9998 31.0757C48.8028 31.0757 51.0755 28.803 51.0755 26C51.0755 23.1969 48.8028 20.9242 45.9998 20.9242C43.4998 20.9242 41.3785 22.8181 40.9998 25.2424H30.9998C30.621 22.8181 28.5755 20.9242 25.9998 20.9242C23.1967 20.9242 20.924 23.1969 20.924 26C20.924 28.803 23.1967 31.0757 25.9998 31.0757C28.4998 31.0757 30.621 29.1818 30.9998 26.7575H35.2422V45.9242V55.5454L25.6967 65.0909H11.0755C10.7725 62.8939 9.03006 61.2272 6.83309 60.8484V50.9242C9.25733 50.5454 11.1513 48.5 11.1513 45.9242C11.1513 43.1212 8.87854 40.8484 6.07551 40.8484C3.27248 40.8484 0.999756 43.1212 0.999756 45.9242C0.999756 48.4242 2.89369 50.5454 5.31794 50.9242V60.9242C2.89369 61.303 0.999756 63.3484 0.999756 65.9242C0.999756 68.7272 3.27248 71 6.07551 71C8.57551 71 10.6967 69.106 11.0755 66.6818H26.3028L36.7573 56.2272V55.9242V45.9242V26.7575H40.9998ZM45.924 22.5151C47.8937 22.5151 49.4846 24.106 49.4846 26.0757C49.4846 28.0454 47.8937 29.6363 45.924 29.6363C43.9543 29.6363 42.3634 28.0454 42.3634 26.0757C42.4392 24.106 44.0301 22.5151 45.924 22.5151ZM25.9998 29.5606C24.0301 29.5606 22.4391 27.9696 22.4391 26C22.4391 24.0303 24.0301 22.4393 25.9998 22.4393C27.9695 22.4393 29.5604 24.0303 29.5604 26C29.5604 27.9696 27.9695 29.5606 25.9998 29.5606ZM2.59067 45.9242C2.59067 43.9545 4.18157 42.3636 6.15127 42.3636C8.12097 42.3636 9.71188 43.9545 9.71188 45.9242C9.71188 47.8939 8.12097 49.4848 6.15127 49.4848C4.18157 49.4848 2.59067 47.8939 2.59067 45.9242ZM6.07551 69.409C4.10582 69.409 2.51491 67.8181 2.51491 65.8484C2.51491 63.8787 4.10582 62.2878 6.07551 62.2878C8.04521 62.2878 9.63612 63.8787 9.63612 65.8484C9.63612 67.8181 8.04521 69.409 6.07551 69.409Z" fill="white" fill-opacity="0.5"/>
<path d="M40.9998 26.7575C41.3785 29.1818 43.424 31.0757 45.9998 31.0757C48.8028 31.0757 51.0755 28.803 51.0755 26C51.0755 23.1969 48.8028 20.9242 45.9998 20.9242C43.4998 20.9242 41.3785 22.8181 40.9998 25.2424H30.9998C30.621 22.8181 28.5755 20.9242 25.9998 20.9242C23.1967 20.9242 20.924 23.1969 20.924 26C20.924 28.803 23.1967 31.0757 25.9998 31.0757C28.4998 31.0757 30.621 29.1818 30.9998 26.7575H35.2422V45.9242V55.5454L25.6967 65.0909H11.0755C10.7725 62.8939 9.03006 61.2272 6.83309 60.8484V50.9242C9.25733 50.5454 11.1513 48.5 11.1513 45.9242C11.1513 43.1212 8.87854 40.8484 6.07551 40.8484C3.27248 40.8484 0.999756 43.1212 0.999756 45.9242C0.999756 48.4242 2.89369 50.5454 5.31794 50.9242V60.9242C2.89369 61.303 0.999756 63.3484 0.999756 65.9242C0.999756 68.7272 3.27248 71 6.07551 71C8.57551 71 10.6967 69.106 11.0755 66.6818H26.3028L36.7573 56.2272V55.9242V45.9242V26.7575H40.9998ZM45.924 22.5151C47.8937 22.5151 49.4846 24.106 49.4846 26.0757C49.4846 28.0454 47.8937 29.6363 45.924 29.6363C43.9543 29.6363 42.3634 28.0454 42.3634 26.0757C42.4392 24.106 44.0301 22.5151 45.924 22.5151ZM25.9998 29.5606C24.0301 29.5606 22.4391 27.9696 22.4391 26C22.4391 24.0303 24.0301 22.4393 25.9998 22.4393C27.9695 22.4393 29.5604 24.0303 29.5604 26C29.5604 27.9696 27.9695 29.5606 25.9998 29.5606ZM2.59067 45.9242C2.59067 43.9545 4.18157 42.3636 6.15127 42.3636C8.12097 42.3636 9.71188 43.9545 9.71188 45.9242C9.71188 47.8939 8.12097 49.4848 6.15127 49.4848C4.18157 49.4848 2.59067 47.8939 2.59067 45.9242ZM6.07551 69.409C4.10582 69.409 2.51491 67.8181 2.51491 65.8484C2.51491 63.8787 4.10582 62.2878 6.07551 62.2878C8.04521 62.2878 9.63612 63.8787 9.63612 65.8484C9.63612 67.8181 8.04521 69.409 6.07551 69.409Z" stroke="#444444" stroke-width="0.820312"/>
<path d="M40.9998 26.7575C41.3785 29.1818 43.424 31.0757 45.9998 31.0757C48.8028 31.0757 51.0755 28.803 51.0755 26C51.0755 23.1969 48.8028 20.9242 45.9998 20.9242C43.4998 20.9242 41.3785 22.8181 40.9998 25.2424H30.9998C30.621 22.8181 28.5755 20.9242 25.9998 20.9242C23.1967 20.9242 20.924 23.1969 20.924 26C20.924 28.803 23.1967 31.0757 25.9998 31.0757C28.4998 31.0757 30.621 29.1818 30.9998 26.7575H35.2422V45.9242V55.5454L25.6967 65.0909H11.0755C10.7725 62.8939 9.03006 61.2272 6.83309 60.8484V50.9242C9.25733 50.5454 11.1513 48.5 11.1513 45.9242C11.1513 43.1212 8.87854 40.8484 6.07551 40.8484C3.27248 40.8484 0.999756 43.1212 0.999756 45.9242C0.999756 48.4242 2.89369 50.5454 5.31794 50.9242V60.9242C2.89369 61.303 0.999756 63.3484 0.999756 65.9242C0.999756 68.7272 3.27248 71 6.07551 71C8.57551 71 10.6967 69.106 11.0755 66.6818H26.3028L36.7573 56.2272V55.9242V45.9242V26.7575H40.9998ZM45.924 22.5151C47.8937 22.5151 49.4846 24.106 49.4846 26.0757C49.4846 28.0454 47.8937 29.6363 45.924 29.6363C43.9543 29.6363 42.3634 28.0454 42.3634 26.0757C42.4392 24.106 44.0301 22.5151 45.924 22.5151ZM25.9998 29.5606C24.0301 29.5606 22.4391 27.9696 22.4391 26C22.4391 24.0303 24.0301 22.4393 25.9998 22.4393C27.9695 22.4393 29.5604 24.0303 29.5604 26C29.5604 27.9696 27.9695 29.5606 25.9998 29.5606ZM2.59067 45.9242C2.59067 43.9545 4.18157 42.3636 6.15127 42.3636C8.12097 42.3636 9.71188 43.9545 9.71188 45.9242C9.71188 47.8939 8.12097 49.4848 6.15127 49.4848C4.18157 49.4848 2.59067 47.8939 2.59067 45.9242ZM6.07551 69.409C4.10582 69.409 2.51491 67.8181 2.51491 65.8484C2.51491 63.8787 4.10582 62.2878 6.07551 62.2878C8.04521 62.2878 9.63612 63.8787 9.63612 65.8484C9.63612 67.8181 8.04521 69.409 6.07551 69.409Z" stroke="white" stroke-opacity="0.5" stroke-width="0.820312"/>
</svg>
