<svg width="139" height="113" viewBox="0 0 139 113" fill="none" xmlns="http://www.w3.org/2000/svg">
<path d="M39.4845 40.33H17.6445V49.99C18.5778 48.9633 19.8845 48.1233 21.5645 47.47C23.2445 46.8167 25.0645 46.49 27.0245 46.49C30.5245 46.49 33.4178 47.2833 35.7045 48.87C38.0378 50.4567 39.7412 52.51 40.8145 55.03C41.8878 57.55 42.4245 60.28 42.4245 63.22C42.4245 68.68 40.8845 73.02 37.8045 76.24C34.7245 79.4133 30.3845 81 24.7845 81C21.0512 81 17.8078 80.37 15.0545 79.11C12.3012 77.8033 10.1778 76.0067 8.68449 73.72C7.19116 71.4333 6.37449 68.7967 6.23449 65.81H17.9245C18.2045 67.2567 18.8812 68.47 19.9545 69.45C21.0278 70.3833 22.4978 70.85 24.3645 70.85C26.5578 70.85 28.1912 70.15 29.2645 68.75C30.3378 67.35 30.8745 65.4833 30.8745 63.15C30.8745 60.8633 30.3145 59.1133 29.1945 57.9C28.0745 56.6867 26.4412 56.08 24.2945 56.08C22.7078 56.08 21.4012 56.4767 20.3745 57.27C19.3478 58.0167 18.6712 59.02 18.3445 60.28H6.79449V29.83H39.4845V40.33ZM78.7118 81L62.1918 59.3V81H50.2218V31.86H62.1918V53.42L78.5718 31.86H92.6418L73.6018 55.94L93.3418 81H78.7118ZM134.52 61.89H122.34V74.35H111V61.89H98.8204V51.18H111V38.65H122.34V51.18H134.52V61.89Z" fill="white"/>
<path d="M9.74986 96.756V102.246C9.74986 102.618 9.83386 102.888 10.0019 103.056C10.1819 103.212 10.4819 103.29 10.9019 103.29H12.1619V105H10.5419C9.61786 105 8.90986 104.784 8.41786 104.352C7.92586 103.92 7.67986 103.218 7.67986 102.246V96.756H6.50986V95.082H7.67986V92.616H9.74986V95.082H12.1619V96.756H9.74986ZM16.1051 96.522C16.4051 96.018 16.8011 95.628 17.2931 95.352C17.7971 95.064 18.3911 94.92 19.0751 94.92V97.044H18.5531C17.7491 97.044 17.1371 97.248 16.7171 97.656C16.3091 98.064 16.1051 98.772 16.1051 99.78V105H14.0531V95.082H16.1051V96.522ZM29.9433 95.082V105H27.8913V103.83C27.5673 104.238 27.1413 104.562 26.6133 104.802C26.0973 105.03 25.5453 105.144 24.9573 105.144C24.1773 105.144 23.4753 104.982 22.8513 104.658C22.2393 104.334 21.7533 103.854 21.3933 103.218C21.0453 102.582 20.8713 101.814 20.8713 100.914V95.082H22.9053V100.608C22.9053 101.496 23.1273 102.18 23.5713 102.66C24.0153 103.128 24.6213 103.362 25.3893 103.362C26.1573 103.362 26.7633 103.128 27.2073 102.66C27.6633 102.18 27.8913 101.496 27.8913 100.608V95.082H29.9433ZM36.2508 105.162C35.4708 105.162 34.7688 105.024 34.1448 104.748C33.5328 104.46 33.0468 104.076 32.6868 103.596C32.3268 103.104 32.1348 102.558 32.1108 101.958H34.2348C34.2708 102.378 34.4688 102.732 34.8288 103.02C35.2008 103.296 35.6628 103.434 36.2148 103.434C36.7908 103.434 37.2348 103.326 37.5468 103.11C37.8708 102.882 38.0328 102.594 38.0328 102.246C38.0328 101.874 37.8528 101.598 37.4928 101.418C37.1448 101.238 36.5868 101.04 35.8188 100.824C35.0748 100.62 34.4688 100.422 34.0008 100.23C33.5328 100.038 33.1248 99.744 32.7768 99.348C32.4408 98.952 32.2728 98.43 32.2728 97.782C32.2728 97.254 32.4288 96.774 32.7408 96.342C33.0528 95.898 33.4968 95.55 34.0728 95.298C34.6608 95.046 35.3328 94.92 36.0888 94.92C37.2168 94.92 38.1228 95.208 38.8068 95.784C39.5028 96.348 39.8748 97.122 39.9228 98.106H37.8708C37.8348 97.662 37.6548 97.308 37.3308 97.044C37.0068 96.78 36.5688 96.648 36.0168 96.648C35.4768 96.648 35.0628 96.75 34.7748 96.954C34.4868 97.158 34.3428 97.428 34.3428 97.764C34.3428 98.028 34.4388 98.25 34.6308 98.43C34.8228 98.61 35.0568 98.754 35.3328 98.862C35.6088 98.958 36.0168 99.084 36.5568 99.24C37.2768 99.432 37.8648 99.63 38.3208 99.834C38.7888 100.026 39.1908 100.314 39.5268 100.698C39.8628 101.082 40.0368 101.592 40.0488 102.228C40.0488 102.792 39.8928 103.296 39.5808 103.74C39.2688 104.184 38.8248 104.532 38.2488 104.784C37.6848 105.036 37.0188 105.162 36.2508 105.162ZM44.66 96.756V102.246C44.66 102.618 44.744 102.888 44.912 103.056C45.092 103.212 45.392 103.29 45.812 103.29H47.072V105H45.452C44.528 105 43.82 104.784 43.328 104.352C42.836 103.92 42.59 103.218 42.59 102.246V96.756H41.42V95.082H42.59V92.616H44.66V95.082H47.072V96.756H44.66ZM58.0533 99.798C58.0533 100.17 58.0293 100.506 57.9813 100.806H50.4033C50.4633 101.598 50.7573 102.234 51.2853 102.714C51.8133 103.194 52.4613 103.434 53.2293 103.434C54.3333 103.434 55.1133 102.972 55.5693 102.048H57.7833C57.4833 102.96 56.9373 103.71 56.1453 104.298C55.3653 104.874 54.3933 105.162 53.2293 105.162C52.2813 105.162 51.4293 104.952 50.6733 104.532C49.9293 104.1 49.3413 103.5 48.9093 102.732C48.4893 101.952 48.2793 101.052 48.2793 100.032C48.2793 99.012 48.4833 98.118 48.8913 97.35C49.3113 96.57 49.8933 95.97 50.6373 95.55C51.3933 95.13 52.2573 94.92 53.2293 94.92C54.1653 94.92 54.9993 95.124 55.7313 95.532C56.4633 95.94 57.0333 96.516 57.4413 97.26C57.8493 97.992 58.0533 98.838 58.0533 99.798ZM55.9113 99.15C55.8993 98.394 55.6293 97.788 55.1013 97.332C54.5733 96.876 53.9193 96.648 53.1393 96.648C52.4313 96.648 51.8253 96.876 51.3213 97.332C50.8173 97.776 50.5173 98.382 50.4213 99.15H55.9113ZM59.3887 99.996C59.3887 99 59.5927 98.118 60.0007 97.35C60.4207 96.582 60.9847 95.988 61.6927 95.568C62.4127 95.136 63.2107 94.92 64.0867 94.92C64.7347 94.92 65.3707 95.064 65.9947 95.352C66.6307 95.628 67.1347 96 67.5067 96.468V91.68H69.5767V105H67.5067V103.506C67.1707 103.986 66.7027 104.382 66.1027 104.694C65.5147 105.006 64.8367 105.162 64.0687 105.162C63.2047 105.162 62.4127 104.946 61.6927 104.514C60.9847 104.07 60.4207 103.458 60.0007 102.678C59.5927 101.886 59.3887 100.992 59.3887 99.996ZM67.5067 100.032C67.5067 99.348 67.3627 98.754 67.0747 98.25C66.7987 97.746 66.4327 97.362 65.9767 97.098C65.5207 96.834 65.0287 96.702 64.5007 96.702C63.9727 96.702 63.4807 96.834 63.0247 97.098C62.5687 97.35 62.1967 97.728 61.9087 98.232C61.6327 98.724 61.4947 99.312 61.4947 99.996C61.4947 100.68 61.6327 101.28 61.9087 101.796C62.1967 102.312 62.5687 102.708 63.0247 102.984C63.4927 103.248 63.9847 103.38 64.5007 103.38C65.0287 103.38 65.5207 103.248 65.9767 102.984C66.4327 102.72 66.7987 102.336 67.0747 101.832C67.3627 101.316 67.5067 100.716 67.5067 100.032ZM76.2637 100.032C76.2637 99.012 76.4677 98.118 76.8757 97.35C77.2957 96.57 77.8717 95.97 78.6037 95.55C79.3357 95.13 80.1757 94.92 81.1237 94.92C82.3237 94.92 83.3137 95.208 84.0937 95.784C84.8857 96.348 85.4197 97.158 85.6957 98.214H83.4817C83.3017 97.722 83.0137 97.338 82.6177 97.062C82.2217 96.786 81.7237 96.648 81.1237 96.648C80.2837 96.648 79.6117 96.948 79.1077 97.548C78.6157 98.136 78.3697 98.964 78.3697 100.032C78.3697 101.1 78.6157 101.934 79.1077 102.534C79.6117 103.134 80.2837 103.434 81.1237 103.434C82.3117 103.434 83.0977 102.912 83.4817 101.868H85.6957C85.4077 102.876 84.8677 103.68 84.0757 104.28C83.2837 104.868 82.2997 105.162 81.1237 105.162C80.1757 105.162 79.3357 104.952 78.6037 104.532C77.8717 104.1 77.2957 103.5 76.8757 102.732C76.4677 101.952 76.2637 101.052 76.2637 100.032ZM89.7926 91.68V105H87.7406V91.68H89.7926ZM93.5307 93.768C93.1587 93.768 92.8467 93.642 92.5947 93.39C92.3427 93.138 92.2167 92.826 92.2167 92.454C92.2167 92.082 92.3427 91.77 92.5947 91.518C92.8467 91.266 93.1587 91.14 93.5307 91.14C93.8907 91.14 94.1967 91.266 94.4487 91.518C94.7007 91.77 94.8267 92.082 94.8267 92.454C94.8267 92.826 94.7007 93.138 94.4487 93.39C94.1967 93.642 93.8907 93.768 93.5307 93.768ZM94.5387 95.082V105H92.4867V95.082H94.5387ZM106.323 99.798C106.323 100.17 106.299 100.506 106.251 100.806H98.6728C98.7328 101.598 99.0268 102.234 99.5548 102.714C100.083 103.194 100.731 103.434 101.499 103.434C102.603 103.434 103.383 102.972 103.839 102.048H106.053C105.753 102.96 105.207 103.71 104.415 104.298C103.635 104.874 102.663 105.162 101.499 105.162C100.551 105.162 99.6988 104.952 98.9428 104.532C98.1988 104.1 97.6108 103.5 97.1788 102.732C96.7588 101.952 96.5488 101.052 96.5488 100.032C96.5488 99.012 96.7528 98.118 97.1608 97.35C97.5808 96.57 98.1628 95.97 98.9068 95.55C99.6628 95.13 100.527 94.92 101.499 94.92C102.435 94.92 103.269 95.124 104.001 95.532C104.733 95.94 105.303 96.516 105.711 97.26C106.119 97.992 106.323 98.838 106.323 99.798ZM104.181 99.15C104.169 98.394 103.899 97.788 103.371 97.332C102.843 96.876 102.189 96.648 101.409 96.648C100.701 96.648 100.095 96.876 99.5908 97.332C99.0868 97.776 98.7868 98.382 98.6908 99.15H104.181ZM113.346 94.92C114.126 94.92 114.822 95.082 115.434 95.406C116.058 95.73 116.544 96.21 116.892 96.846C117.24 97.482 117.414 98.25 117.414 99.15V105H115.38V99.456C115.38 98.568 115.158 97.89 114.714 97.422C114.27 96.942 113.664 96.702 112.896 96.702C112.128 96.702 111.516 96.942 111.06 97.422C110.616 97.89 110.394 98.568 110.394 99.456V105H108.342V95.082H110.394V96.216C110.73 95.808 111.156 95.49 111.672 95.262C112.2 95.034 112.758 94.92 113.346 94.92ZM122.426 96.756V102.246C122.426 102.618 122.51 102.888 122.678 103.056C122.858 103.212 123.158 103.29 123.578 103.29H124.838V105H123.218C122.294 105 121.586 104.784 121.094 104.352C120.602 103.92 120.356 103.218 120.356 102.246V96.756H119.186V95.082H120.356V92.616H122.426V95.082H124.838V96.756H122.426ZM130.329 105.162C129.549 105.162 128.847 105.024 128.223 104.748C127.611 104.46 127.125 104.076 126.765 103.596C126.405 103.104 126.213 102.558 126.189 101.958H128.313C128.349 102.378 128.547 102.732 128.907 103.02C129.279 103.296 129.741 103.434 130.293 103.434C130.869 103.434 131.313 103.326 131.625 103.11C131.949 102.882 132.111 102.594 132.111 102.246C132.111 101.874 131.931 101.598 131.571 101.418C131.223 101.238 130.665 101.04 129.897 100.824C129.153 100.62 128.547 100.422 128.079 100.23C127.611 100.038 127.203 99.744 126.855 99.348C126.519 98.952 126.351 98.43 126.351 97.782C126.351 97.254 126.507 96.774 126.819 96.342C127.131 95.898 127.575 95.55 128.151 95.298C128.739 95.046 129.411 94.92 130.167 94.92C131.295 94.92 132.201 95.208 132.885 95.784C133.581 96.348 133.953 97.122 134.001 98.106H131.949C131.913 97.662 131.733 97.308 131.409 97.044C131.085 96.78 130.647 96.648 130.095 96.648C129.555 96.648 129.141 96.75 128.853 96.954C128.565 97.158 128.421 97.428 128.421 97.764C128.421 98.028 128.517 98.25 128.709 98.43C128.901 98.61 129.135 98.754 129.411 98.862C129.687 98.958 130.095 99.084 130.635 99.24C131.355 99.432 131.943 99.63 132.399 99.834C132.867 100.026 133.269 100.314 133.605 100.698C133.941 101.082 134.115 101.592 134.127 102.228C134.127 102.792 133.971 103.296 133.659 103.74C133.347 104.184 132.903 104.532 132.327 104.784C131.763 105.036 131.097 105.162 130.329 105.162Z" fill="white"/>
</svg>
