<svg width="130" height="48" viewBox="0 0 130 48" fill="none" xmlns="http://www.w3.org/2000/svg">
<rect width="130" height="48" rx="24" fill="white"/>
<path d="M30.3797 30L27.8197 25.552H26.4277V30H24.6037V18.88H28.4437C29.2971 18.88 30.0171 19.0293 30.6037 19.328C31.2011 19.6267 31.6437 20.0267 31.9317 20.528C32.2304 21.0293 32.3797 21.5893 32.3797 22.208C32.3797 22.9333 32.1664 23.5947 31.7397 24.192C31.3237 24.7787 30.6784 25.1787 29.8037 25.392L32.5557 30H30.3797ZM26.4277 24.096H28.4437C29.1264 24.096 29.6384 23.9253 29.9797 23.584C30.3317 23.2427 30.5077 22.784 30.5077 22.208C30.5077 21.632 30.3371 21.184 29.9957 20.864C29.6544 20.5333 29.1371 20.368 28.4437 20.368H26.4277V24.096ZM42.4731 25.376C42.4731 25.7067 42.4518 26.0053 42.4091 26.272H35.6731C35.7265 26.976 35.9878 27.5413 36.4571 27.968C36.9265 28.3947 37.5025 28.608 38.1851 28.608C39.1665 28.608 39.8598 28.1973 40.2651 27.376H42.2331C41.9665 28.1867 41.4811 28.8533 40.7771 29.376C40.0838 29.888 39.2198 30.144 38.1851 30.144C37.3425 30.144 36.5851 29.9573 35.9131 29.584C35.2518 29.2 34.7291 28.6667 34.3451 27.984C33.9718 27.2907 33.7851 26.4907 33.7851 25.584C33.7851 24.6773 33.9665 23.8827 34.3291 23.2C34.7025 22.5067 35.2198 21.9733 35.8811 21.6C36.5531 21.2267 37.3211 21.04 38.1851 21.04C39.0171 21.04 39.7585 21.2213 40.4091 21.584C41.0598 21.9467 41.5665 22.4587 41.9291 23.12C42.2918 23.7707 42.4731 24.5227 42.4731 25.376ZM40.5691 24.8C40.5585 24.128 40.3185 23.5893 39.8491 23.184C39.3798 22.7787 38.7985 22.576 38.1051 22.576C37.4758 22.576 36.9371 22.7787 36.4891 23.184C36.0411 23.5787 35.7745 24.1173 35.6891 24.8H40.5691ZM43.3401 25.552C43.3401 24.6667 43.5215 23.8827 43.8841 23.2C44.2575 22.5173 44.7588 21.9893 45.3881 21.616C46.0281 21.232 46.7321 21.04 47.5001 21.04C48.1935 21.04 48.7961 21.1787 49.3081 21.456C49.8308 21.7227 50.2468 22.0587 50.5561 22.464V21.184H52.3961V30H50.5561V28.688C50.2468 29.104 49.8255 29.4507 49.2921 29.728C48.7588 30.0053 48.1508 30.144 47.4681 30.144C46.7108 30.144 46.0175 29.952 45.3881 29.568C44.7588 29.1733 44.2575 28.6293 43.8841 27.936C43.5215 27.232 43.3401 26.4373 43.3401 25.552ZM50.5561 25.584C50.5561 24.976 50.4281 24.448 50.1721 24C49.9268 23.552 49.6015 23.2107 49.1961 22.976C48.7908 22.7413 48.3535 22.624 47.8841 22.624C47.4148 22.624 46.9775 22.7413 46.5721 22.976C46.1668 23.2 45.8361 23.536 45.5801 23.984C45.3348 24.4213 45.2121 24.944 45.2121 25.552C45.2121 26.16 45.3348 26.6933 45.5801 27.152C45.8361 27.6107 46.1668 27.9627 46.5721 28.208C46.9881 28.4427 47.4255 28.56 47.8841 28.56C48.3535 28.56 48.7908 28.4427 49.1961 28.208C49.6015 27.9733 49.9268 27.632 50.1721 27.184C50.4281 26.7253 50.5561 26.192 50.5561 25.584ZM53.8639 25.552C53.8639 24.6667 54.0452 23.8827 54.4079 23.2C54.7812 22.5173 55.2825 21.9893 55.9119 21.616C56.5519 21.232 57.2612 21.04 58.0399 21.04C58.6159 21.04 59.1812 21.168 59.7359 21.424C60.3012 21.6693 60.7492 22 61.0799 22.416V18.16H62.9199V30H61.0799V28.672C60.7812 29.0987 60.3652 29.4507 59.8319 29.728C59.3092 30.0053 58.7065 30.144 58.0239 30.144C57.2559 30.144 56.5519 29.952 55.9119 29.568C55.2825 29.1733 54.7812 28.6293 54.4079 27.936C54.0452 27.232 53.8639 26.4373 53.8639 25.552ZM61.0799 25.584C61.0799 24.976 60.9519 24.448 60.6959 24C60.4505 23.552 60.1252 23.2107 59.7199 22.976C59.3145 22.7413 58.8772 22.624 58.4079 22.624C57.9385 22.624 57.5012 22.7413 57.0959 22.976C56.6905 23.2 56.3599 23.536 56.1039 23.984C55.8585 24.4213 55.7359 24.944 55.7359 25.552C55.7359 26.16 55.8585 26.6933 56.1039 27.152C56.3599 27.6107 56.6905 27.9627 57.0959 28.208C57.5119 28.4427 57.9492 28.56 58.4079 28.56C58.8772 28.56 59.3145 28.4427 59.7199 28.208C60.1252 27.9733 60.4505 27.632 60.6959 27.184C60.9519 26.7253 61.0799 26.192 61.0799 25.584ZM80.5439 18.88V30H78.7199V22.384L75.3279 30H74.0639L70.6559 22.384V30H68.8319V18.88H70.7999L74.7039 27.6L78.5919 18.88H80.5439ZM86.4452 30.144C85.6132 30.144 84.8612 29.9573 84.1892 29.584C83.5172 29.2 82.9892 28.6667 82.6052 27.984C82.2212 27.2907 82.0292 26.4907 82.0292 25.584C82.0292 24.688 82.2266 23.8933 82.6212 23.2C83.0159 22.5067 83.5546 21.9733 84.2372 21.6C84.9199 21.2267 85.6826 21.04 86.5252 21.04C87.3679 21.04 88.1306 21.2267 88.8132 21.6C89.4959 21.9733 90.0346 22.5067 90.4292 23.2C90.8239 23.8933 91.0212 24.688 91.0212 25.584C91.0212 26.48 90.8186 27.2747 90.4132 27.968C90.0079 28.6613 89.4533 29.2 88.7492 29.584C88.0559 29.9573 87.2879 30.144 86.4452 30.144ZM86.4452 28.56C86.9146 28.56 87.3519 28.448 87.7572 28.224C88.1732 28 88.5092 27.664 88.7652 27.216C89.0212 26.768 89.1492 26.224 89.1492 25.584C89.1492 24.944 89.0266 24.4053 88.7812 23.968C88.5359 23.52 88.2106 23.184 87.8052 22.96C87.3999 22.736 86.9626 22.624 86.4932 22.624C86.0239 22.624 85.5866 22.736 85.1812 22.96C84.7866 23.184 84.4719 23.52 84.2372 23.968C84.0026 24.4053 83.8852 24.944 83.8852 25.584C83.8852 26.5333 84.1252 27.2693 84.6052 27.792C85.0959 28.304 85.7092 28.56 86.4452 28.56ZM94.3284 22.464C94.595 22.016 94.947 21.6693 95.3844 21.424C95.8324 21.168 96.3604 21.04 96.9684 21.04V22.928H96.5044C95.7897 22.928 95.2457 23.1093 94.8724 23.472C94.5097 23.8347 94.3284 24.464 94.3284 25.36V30H92.5044V21.184H94.3284V22.464ZM106.405 25.376C106.405 25.7067 106.384 26.0053 106.341 26.272H99.605C99.6583 26.976 99.9197 27.5413 100.389 27.968C100.858 28.3947 101.434 28.608 102.117 28.608C103.098 28.608 103.792 28.1973 104.197 27.376H106.165C105.898 28.1867 105.413 28.8533 104.709 29.376C104.016 29.888 103.152 30.144 102.117 30.144C101.274 30.144 100.517 29.9573 99.845 29.584C99.1837 29.2 98.661 28.6667 98.277 27.984C97.9037 27.2907 97.717 26.4907 97.717 25.584C97.717 24.6773 97.8983 23.8827 98.261 23.2C98.6343 22.5067 99.1517 21.9733 99.813 21.6C100.485 21.2267 101.253 21.04 102.117 21.04C102.949 21.04 103.69 21.2213 104.341 21.584C104.992 21.9467 105.498 22.4587 105.861 23.12C106.224 23.7707 106.405 24.5227 106.405 25.376ZM104.501 24.8C104.49 24.128 104.25 23.5893 103.781 23.184C103.312 22.7787 102.73 22.576 102.037 22.576C101.408 22.576 100.869 22.7787 100.421 23.184C99.973 23.5787 99.7063 24.1173 99.621 24.8H104.501Z" fill="#444444"/>
</svg>
