<svg width="27" height="19" viewBox="0 0 27 19" fill="none" xmlns="http://www.w3.org/2000/svg">
<path d="M0.928 7.216C0.992 6.224 1.37067 5.45067 2.064 4.896C2.768 4.34133 3.664 4.064 4.752 4.064C5.49867 4.064 6.144 4.19733 6.688 4.464C7.232 4.73067 7.64267 5.09333 7.92 5.552C8.19733 6.01067 8.336 6.528 8.336 7.104C8.336 7.76533 8.16 8.33067 7.808 8.8C7.456 9.26933 7.03467 9.584 6.544 9.744V9.808C7.17333 10 7.664 10.352 8.016 10.864C8.368 11.3653 8.544 12.0107 8.544 12.8C8.544 13.4293 8.4 13.9893 8.112 14.48C7.824 14.9707 7.39733 15.36 6.832 15.648C6.26667 15.9253 5.58933 16.064 4.8 16.064C3.648 16.064 2.69867 15.7707 1.952 15.184C1.216 14.5867 0.821333 13.7333 0.768 12.624H2.528C2.57067 13.1893 2.78933 13.6533 3.184 14.016C3.57867 14.368 4.112 14.544 4.784 14.544C5.43467 14.544 5.936 14.368 6.288 14.016C6.64 13.6533 6.816 13.1893 6.816 12.624C6.816 11.8773 6.576 11.3493 6.096 11.04C5.62667 10.72 4.90133 10.56 3.92 10.56H3.504V9.056H3.936C4.8 9.04533 5.456 8.90133 5.904 8.624C6.36267 8.34667 6.592 7.90933 6.592 7.312C6.592 6.8 6.42667 6.39467 6.096 6.096C5.76533 5.78667 5.296 5.632 4.688 5.632C4.09067 5.632 3.62667 5.78667 3.296 6.096C2.96533 6.39467 2.768 6.768 2.704 7.216H0.928ZM16.62 0.895999L12.268 18.8H10.476L14.812 0.895999H16.62ZM24.9508 7.04C24.8334 6.54933 24.6201 6.18133 24.3108 5.936C24.0014 5.69067 23.5694 5.568 23.0148 5.568C22.1721 5.568 21.5428 5.89333 21.1268 6.544C20.7108 7.184 20.4921 8.25067 20.4708 9.744C20.7481 9.27467 21.1534 8.912 21.6868 8.656C22.2201 8.4 22.7961 8.272 23.4148 8.272C24.1188 8.272 24.7374 8.42667 25.2708 8.736C25.8148 9.03467 26.2361 9.472 26.5347 10.048C26.8441 10.624 26.9988 11.312 26.9988 12.112C26.9988 12.8587 26.8494 13.5253 26.5508 14.112C26.2628 14.6987 25.8308 15.1627 25.2548 15.504C24.6788 15.8347 23.9854 16 23.1748 16C22.0761 16 21.2121 15.76 20.5828 15.28C19.9641 14.7893 19.5268 14.1013 19.2708 13.216C19.0254 12.3307 18.9028 11.2267 18.9028 9.904C18.9028 6 20.2788 4.048 23.0308 4.048C24.0974 4.048 24.9348 4.336 25.5428 4.912C26.1614 5.488 26.5241 6.19733 26.6308 7.04H24.9508ZM23.0148 9.808C22.3641 9.808 21.8094 10.0053 21.3508 10.4C20.9028 10.784 20.6788 11.344 20.6788 12.08C20.6788 12.816 20.8868 13.4027 21.3028 13.84C21.7294 14.2667 22.3214 14.48 23.0788 14.48C23.7508 14.48 24.2788 14.272 24.6628 13.856C25.0574 13.44 25.2548 12.8853 25.2548 12.192C25.2548 11.4667 25.0628 10.8907 24.6788 10.464C24.3054 10.0267 23.7508 9.808 23.0148 9.808Z" fill="#444444"/>
</svg>
