<svg width="50" height="50" viewBox="0 0 50 50" fill="none" xmlns="http://www.w3.org/2000/svg">
<circle cx="25" cy="25" r="24" fill="#444444"/>
<circle cx="25" cy="25" r="24" fill="white" fill-opacity="0.8"/>
<path d="M25 1.5C25 0.671573 25.6722 -0.00468961 26.4991 0.0449862C29.3352 0.215353 32.1252 0.868172 34.7482 1.97886C37.8322 3.28479 40.6224 5.19707 42.9532 7.60218C45.2839 10.0073 47.1076 12.8562 48.316 15.9797C49.5244 19.1033 50.0929 22.4378 49.9877 25.7853C49.8825 29.1328 49.1057 32.425 47.7036 35.4665C46.3014 38.508 44.3024 41.2368 41.8253 43.4908C39.3482 45.7448 36.4434 47.4781 33.2834 48.5878C30.5959 49.5316 27.7703 50.0079 24.9292 49.9999C24.1008 49.9976 23.4724 49.2804 23.5244 48.4536C23.5764 47.6268 24.2893 47.0041 25.1177 46.9997C27.5572 46.9866 29.9811 46.5679 32.2894 45.7573C35.0702 44.7807 37.6264 43.2554 39.8063 41.2719C41.9861 39.2884 43.7453 36.887 44.9791 34.2105C46.213 31.534 46.8966 28.6368 46.9891 25.691C47.0817 22.7452 46.5815 19.8109 45.5181 17.0622C44.4547 14.3134 42.8498 11.8064 40.7988 9.68992C38.7478 7.57342 36.2924 5.89061 33.5784 4.7414C31.3256 3.78745 28.9327 3.21732 26.4989 3.05112C25.6724 2.99468 25 2.32843 25 1.5Z" fill="#444444"/>
<circle cx="25" cy="25" r="22" fill="#444444"/>
<circle cx="25" cy="25" r="22" fill="white" fill-opacity="0.95"/>
<path d="M23 19L29 25L23 31" stroke="#444444" stroke-width="2.5" stroke-linecap="round" stroke-linejoin="round"/>
</svg>
