<svg width="50" height="50" viewBox="0 0 50 50" fill="none" xmlns="http://www.w3.org/2000/svg">
<circle cx="25" cy="25" r="24" fill="#444444"/>
<circle cx="25" cy="25" r="24" fill="white" fill-opacity="0.8"/>
<path d="M25 1.5C25 0.671573 25.6722 -0.00469043 26.4991 0.0449836C30.0583 0.258786 33.5368 1.23198 36.6982 2.90586C40.3023 4.8141 43.3848 7.57503 45.677 10.9479C47.9692 14.3208 49.4015 18.2032 49.849 22.2566C50.2965 26.3101 49.7456 30.4114 48.2444 34.2031C46.7432 37.9948 44.3372 41.3617 41.2362 44.0101C38.1352 46.6586 34.4334 48.5083 30.4536 49.3979C26.4737 50.2875 22.3367 50.19 18.4032 49.1139C14.9528 48.17 11.7509 46.4982 9.00994 44.2177C8.37312 43.6878 8.34605 42.7347 8.91315 42.1308C9.48025 41.5269 10.4265 41.5015 11.0676 42.0261C13.4486 43.9745 16.2165 45.4055 19.1948 46.2203C22.6563 47.1672 26.2969 47.253 29.7992 46.4702C33.3014 45.6873 36.559 44.0596 39.2879 41.7289C42.0167 39.3983 44.134 36.4354 45.4551 33.0987C46.7762 29.7621 47.2609 26.1529 46.8671 22.5858C46.4733 19.0188 45.2129 15.6023 43.1958 12.6342C41.1786 9.66603 38.466 7.23641 35.2945 5.55716C32.5656 4.11232 29.5683 3.26072 26.4989 3.05112C25.6724 2.99468 25 2.32843 25 1.5Z" fill="#444444"/>
<circle cx="25" cy="25" r="22" fill="#444444"/>
<circle cx="25" cy="25" r="22" fill="white" fill-opacity="0.95"/>
<path d="M23 19L29 25L23 31" stroke="#444444" stroke-width="2.5" stroke-linecap="round" stroke-linejoin="round"/>
</svg>
