<svg width="27" height="19" viewBox="0 0 27 19" fill="none" xmlns="http://www.w3.org/2000/svg">
<path d="M7.48 5.904H2.12V9.088C2.344 8.78933 2.67467 8.53867 3.112 8.336C3.56 8.13333 4.03467 8.032 4.536 8.032C5.432 8.032 6.15733 8.224 6.712 8.608C7.27733 8.992 7.67733 9.47733 7.912 10.064C8.15733 10.6507 8.28 11.2693 8.28 11.92C8.28 12.7093 8.12533 13.4133 7.816 14.032C7.51733 14.64 7.064 15.12 6.456 15.472C5.85867 15.824 5.12267 16 4.248 16C3.08533 16 2.152 15.712 1.448 15.136C0.744 14.56 0.322667 13.7973 0.184 12.848H1.96C2.07733 13.3493 2.33867 13.7493 2.744 14.048C3.14933 14.336 3.656 14.48 4.264 14.48C5.02133 14.48 5.58667 14.2507 5.96 13.792C6.344 13.3333 6.536 12.7253 6.536 11.968C6.536 11.2 6.344 10.6133 5.96 10.208C5.576 9.792 5.01067 9.584 4.264 9.584C3.74133 9.584 3.29867 9.71733 2.936 9.984C2.584 10.24 2.328 10.592 2.168 11.04H0.44V4.304H7.48V5.904ZM16.3388 0.895999L11.9868 18.8H10.1948L14.5308 0.895999H16.3388ZM24.6695 7.04C24.5522 6.54933 24.3388 6.18133 24.0295 5.936C23.7202 5.69067 23.2882 5.568 22.7335 5.568C21.8908 5.568 21.2615 5.89333 20.8455 6.544C20.4295 7.184 20.2108 8.25067 20.1895 9.744C20.4668 9.27467 20.8722 8.912 21.4055 8.656C21.9388 8.4 22.5148 8.272 23.1335 8.272C23.8375 8.272 24.4562 8.42667 24.9895 8.736C25.5335 9.03467 25.9548 9.472 26.2535 10.048C26.5628 10.624 26.7175 11.312 26.7175 12.112C26.7175 12.8587 26.5682 13.5253 26.2695 14.112C25.9815 14.6987 25.5495 15.1627 24.9735 15.504C24.3975 15.8347 23.7042 16 22.8935 16C21.7948 16 20.9308 15.76 20.3015 15.28C19.6828 14.7893 19.2455 14.1013 18.9895 13.216C18.7442 12.3307 18.6215 11.2267 18.6215 9.904C18.6215 6 19.9975 4.048 22.7495 4.048C23.8162 4.048 24.6535 4.336 25.2615 4.912C25.8802 5.488 26.2428 6.19733 26.3495 7.04H24.6695ZM22.7335 9.808C22.0828 9.808 21.5282 10.0053 21.0695 10.4C20.6215 10.784 20.3975 11.344 20.3975 12.08C20.3975 12.816 20.6055 13.4027 21.0215 13.84C21.4482 14.2667 22.0402 14.48 22.7975 14.48C23.4695 14.48 23.9975 14.272 24.3815 13.856C24.7762 13.44 24.9735 12.8853 24.9735 12.192C24.9735 11.4667 24.7815 10.8907 24.3975 10.464C24.0242 10.0267 23.4695 9.808 22.7335 9.808Z" fill="#444444"/>
</svg>
