<svg width="50" height="50" viewBox="0 0 50 50" fill="none" xmlns="http://www.w3.org/2000/svg">
<circle cx="25" cy="25" r="24" fill="#444444"/>
<circle cx="25" cy="25" r="24" fill="white" fill-opacity="0.8"/>
<path d="M25 1.5C25 0.671573 25.6722 -0.00469194 26.4992 0.0449718C31.5805 0.35014 36.4611 2.20088 40.4773 5.36708C44.8873 8.84358 47.9983 13.7036 49.3092 19.1639C50.6202 24.6242 50.0546 30.3668 47.7036 35.4665C45.3526 40.5662 41.3532 44.7258 36.3498 47.2752C31.3463 49.8245 25.6303 50.6152 20.1227 49.5196C14.6152 48.4241 9.6368 45.5062 5.98985 41.2362C2.34289 36.9662 0.239735 31.5926 0.0192739 25.9815C-0.181509 20.8712 1.18995 15.8349 3.92977 11.5447C4.37565 10.8465 5.31789 10.7001 5.9881 11.187C6.65832 11.674 6.80208 12.6096 6.36193 13.3114C4.01507 17.0535 2.84264 21.4269 3.01696 25.8637C3.21097 30.8015 5.06174 35.5302 8.27107 39.2879C11.4804 43.0455 15.8613 45.6132 20.708 46.5773C25.5547 47.5413 30.5848 46.8456 34.9878 44.6021C39.3908 42.3587 42.9103 38.6982 44.9791 34.2105C47.048 29.7228 47.5457 24.6693 46.3921 19.8642C45.2385 15.0591 42.5008 10.7824 38.6201 7.72303C35.1331 4.97411 30.9058 3.35198 26.4989 3.0511C25.6724 2.99467 25 2.32843 25 1.5Z" fill="#444444"/>
<circle cx="25" cy="25" r="22" fill="#444444"/>
<circle cx="25" cy="25" r="22" fill="white" fill-opacity="0.95"/>
<path d="M23 19L29 25L23 31" stroke="#444444" stroke-width="2.5" stroke-linecap="round" stroke-linejoin="round"/>
</svg>
