<svg width="50" height="50" viewBox="0 0 50 50" fill="none" xmlns="http://www.w3.org/2000/svg">
<circle cx="25" cy="25" r="24" fill="#444444"/>
<circle cx="25" cy="25" r="24" fill="white" fill-opacity="0.8"/>
<path d="M25 1.5C25 0.671573 25.6723 -0.00469165 26.4992 0.044971C31.7136 0.358128 36.7133 2.2987 40.7838 5.61261C45.2431 9.243 48.3145 14.2996 49.4806 19.9303C50.6466 25.561 49.836 31.4216 47.1853 36.5244C44.5346 41.6271 40.2059 45.6602 34.9287 47.9439C29.6514 50.2275 23.7483 50.6222 18.214 49.0614C12.6797 47.5005 7.85263 44.0796 4.54625 39.3751C1.23987 34.6706 -0.343689 28.9701 0.0624306 23.2343C0.433146 17.9985 2.44107 13.0255 5.7823 9.00997C6.31217 8.37316 7.26535 8.34604 7.86924 8.91314C8.47314 9.48024 8.49851 10.4265 7.97387 11.0676C5.10225 14.5767 3.37691 18.8989 3.05494 23.4462C2.69755 28.4937 4.09109 33.5101 7.0007 37.6501C9.91032 41.7901 14.1581 44.8005 19.0283 46.174C23.8985 47.5475 29.0933 47.2002 33.7373 45.1906C38.3812 43.181 42.1905 39.6319 44.5231 35.1414C46.8557 30.651 47.569 25.4937 46.5429 20.5387C45.5168 15.5837 42.8139 11.1338 38.8898 7.93909C35.3545 5.06093 31.0227 3.35995 26.4989 3.0511C25.6724 2.99467 25 2.32843 25 1.5Z" fill="#444444"/>
<circle cx="25" cy="25" r="22" fill="#444444"/>
<circle cx="25" cy="25" r="22" fill="white" fill-opacity="0.95"/>
<path d="M23 19L29 25L23 31" stroke="#444444" stroke-width="2.5" stroke-linecap="round" stroke-linejoin="round"/>
</svg>
