<svg width="71" height="71" viewBox="0 0 71 71" fill="none" xmlns="http://www.w3.org/2000/svg">
<path d="M55.5724 37.042L39.79 31.21L33.9763 15.4153C33.632 14.48 33.0092 13.6728 32.1917 13.1027C31.3743 12.5325 30.4016 12.2268 29.405 12.2268C28.4083 12.2268 27.4357 12.5325 26.6182 13.1027C25.8008 13.6728 25.1779 14.48 24.8336 15.4153L18.9833 31.21L3.18852 37.0237C2.25323 37.368 1.44604 37.9908 0.875874 38.8083C0.305707 39.6257 0 40.5984 0 41.595C0 42.5917 0.305707 43.5644 0.875874 44.3818C1.44604 45.1992 2.25323 45.8221 3.18852 46.1664L18.9833 52.0167L24.7969 67.8115C25.1412 68.7468 25.764 69.554 26.5815 70.1241C27.3989 70.6943 28.3716 71 29.3682 71C30.3649 71 31.3376 70.6943 32.155 70.1241C32.9724 69.554 33.5953 68.7468 33.9396 67.8115L39.79 52.0167L55.5847 46.2031C56.52 45.8588 57.3272 45.236 57.8973 44.4185C58.4675 43.6011 58.7732 42.6284 58.7732 41.6318C58.7732 40.6351 58.4675 39.6624 57.8973 38.845C57.3272 38.0276 56.52 37.4047 55.5847 37.0604L55.5724 37.042ZM37.0361 47.8003C36.7039 47.9228 36.4021 48.1159 36.1517 48.3663C35.9013 48.6167 35.7082 48.9184 35.5858 49.2507L29.3866 66.046L23.1997 49.2629C23.0774 48.9272 22.8831 48.6222 22.6304 48.3696C22.3778 48.1169 22.0728 47.9226 21.7371 47.8003L4.95403 41.6134L21.7371 35.4265C22.0728 35.3042 22.3778 35.1099 22.6304 34.8572C22.8831 34.6046 23.0774 34.2996 23.1997 33.9639L29.3866 17.1808L35.5735 33.9639C35.696 34.2961 35.8891 34.5979 36.1395 34.8483C36.3899 35.0987 36.6916 35.2918 37.0239 35.4142L53.8192 41.6134L37.0361 47.8003ZM39.178 9.79139C39.178 9.14218 39.4359 8.51956 39.8949 8.0605C40.354 7.60144 40.9766 7.34354 41.6258 7.34354H46.5215V2.44785C46.5215 1.79864 46.7794 1.17602 47.2385 0.716958C47.6975 0.257897 48.3202 0 48.9694 0C49.6186 0 50.2412 0.257897 50.7003 0.716958C51.1593 1.17602 51.4172 1.79864 51.4172 2.44785V7.34354H56.3129C56.9621 7.34354 57.5847 7.60144 58.0438 8.0605C58.5029 8.51956 58.7608 9.14218 58.7608 9.79139C58.7608 10.4406 58.5029 11.0632 58.0438 11.5223C57.5847 11.9813 56.9621 12.2392 56.3129 12.2392H51.4172V17.1349C51.4172 17.7841 51.1593 18.4068 50.7003 18.8658C50.2412 19.3249 49.6186 19.5828 48.9694 19.5828C48.3202 19.5828 47.6975 19.3249 47.2385 18.8658C46.7794 18.4068 46.5215 17.7841 46.5215 17.1349V12.2392H41.6258C40.9766 12.2392 40.354 11.9813 39.8949 11.5223C39.4359 11.0632 39.178 10.4406 39.178 9.79139ZM71 24.4785C71 25.1277 70.7421 25.7503 70.283 26.2094C69.824 26.6684 69.2014 26.9263 68.5522 26.9263H66.1043V29.3742C66.1043 30.0234 65.8464 30.646 65.3873 31.1051C64.9283 31.5641 64.3057 31.822 63.6565 31.822C63.0072 31.822 62.3846 31.5641 61.9256 31.1051C61.4665 30.646 61.2086 30.0234 61.2086 29.3742V26.9263H58.7608C58.1116 26.9263 57.4889 26.6684 57.0299 26.2094C56.5708 25.7503 56.3129 25.1277 56.3129 24.4785C56.3129 23.8293 56.5708 23.2066 57.0299 22.7476C57.4889 22.2885 58.1116 22.0306 58.7608 22.0306H61.2086V19.5828C61.2086 18.9336 61.4665 18.3109 61.9256 17.8519C62.3846 17.3928 63.0072 17.1349 63.6565 17.1349C64.3057 17.1349 64.9283 17.3928 65.3873 17.8519C65.8464 18.3109 66.1043 18.9336 66.1043 19.5828V22.0306H68.5522C69.2014 22.0306 69.824 22.2885 70.283 22.7476C70.7421 23.2066 71 23.8293 71 24.4785Z" fill="#444444"/>
</svg>
