<svg width="70" height="64" viewBox="0 0 70 64" fill="none" xmlns="http://www.w3.org/2000/svg">
<path d="M34.9997 4.92434C29.0666 4.92434 23.2666 6.6567 18.3334 9.90236C13.4002 13.148 9.55517 17.7612 7.28465 23.1585C5.01413 28.5559 4.42006 34.4949 5.57756 40.2247C6.73506 45.9545 9.59215 51.2176 13.7875 55.3486C17.9829 59.4795 23.3281 62.2927 29.1473 63.4324C34.9664 64.5721 40.9981 63.9872 46.4797 61.7516C51.9612 59.5159 56.6463 55.73 59.9426 50.8725C63.2389 46.015 64.9983 40.3042 64.9983 34.4622C64.9892 26.631 61.8257 19.1231 56.2019 13.5857C50.578 8.04819 42.953 4.9333 34.9997 4.92434ZM34.9997 59.077C30.0554 59.077 25.2222 57.6334 21.1111 54.9287C17.0001 52.2239 13.7959 48.3796 11.9038 43.8819C10.0117 39.3841 9.51667 34.4349 10.4813 29.66C11.4458 24.8852 13.8267 20.4993 17.3229 17.0568C20.819 13.6144 25.2734 11.27 30.1227 10.3203C34.972 9.37051 39.9984 9.85796 44.5663 11.721C49.1343 13.584 53.0386 16.739 55.7855 20.7869C58.5324 24.8348 59.9985 29.5938 59.9985 34.4622C59.9911 40.9882 57.3549 47.2448 52.6683 51.8594C47.9817 56.474 41.6275 59.0697 34.9997 59.077ZM14.2695 4.20435L4.26994 14.0503C3.80086 14.5122 3.16465 14.7716 2.50127 14.7716C1.83789 14.7716 1.20168 14.5122 0.732605 14.0503C0.263526 13.5884 6.98983e-09 12.962 0 12.3088C-6.98982e-09 11.6556 0.263526 11.0292 0.732605 10.5673L10.7321 0.721353C11.2012 0.259478 11.8374 0 12.5008 0C13.1642 0 13.8004 0.259478 14.2695 0.721353C14.7385 1.18323 15.0021 1.80966 15.0021 2.46285C15.0021 3.11604 14.7385 3.74248 14.2695 4.20435ZM69.2668 14.0503C69.0347 14.2792 68.7589 14.4607 68.4555 14.5846C68.152 14.7085 67.8267 14.7722 67.4982 14.7722C67.1696 14.7722 66.8443 14.7085 66.5408 14.5846C66.2374 14.4607 65.9617 14.2792 65.7295 14.0503L55.73 4.20435C55.2609 3.74248 54.9974 3.11604 54.9974 2.46285C54.9974 1.80966 55.2609 1.18323 55.73 0.721353C56.199 0.259478 56.8353 1.28759e-08 57.4986 0C58.162 -1.28759e-08 58.7982 0.259478 59.2673 0.721353L69.2668 10.5673C69.4993 10.7959 69.6836 11.0674 69.8094 11.3662C69.9352 11.665 70 11.9853 70 12.3088C70 12.6323 69.9352 12.9526 69.8094 13.2514C69.6836 13.5502 69.4993 13.8217 69.2668 14.0503ZM52.4989 32.0007C53.1619 32.0007 53.7977 32.26 54.2666 32.7216C54.7354 33.1832 54.9988 33.8093 54.9988 34.4622C54.9988 35.115 54.7354 35.7411 54.2666 36.2027C53.7977 36.6643 53.1619 36.9236 52.4989 36.9236H34.9997C34.3367 36.9236 33.7008 36.6643 33.232 36.2027C32.7632 35.7411 32.4998 35.115 32.4998 34.4622V17.2318C32.4998 16.5789 32.7632 15.9529 33.232 15.4912C33.7008 15.0296 34.3367 14.7703 34.9997 14.7703C35.6627 14.7703 36.2986 15.0296 36.7674 15.4912C37.2362 15.9529 37.4996 16.5789 37.4996 17.2318V32.0007H52.4989Z" fill="#444444"/>
</svg>
