<svg width="70" height="70" viewBox="0 0 70 70" fill="none" xmlns="http://www.w3.org/2000/svg">
<path d="M1.07696 34.4667C1.35982 34.6788 1.68169 34.8331 2.0242 34.9208C2.36671 35.0086 2.72314 35.028 3.07316 34.978C3.42318 34.928 3.75992 34.8096 4.06416 34.6295C4.3684 34.4494 4.63417 34.2111 4.84632 33.9283C6.47645 31.7552 8.59023 29.9914 11.0203 28.7766C13.4503 27.5618 16.1299 26.9293 18.8468 26.9293C21.5637 26.9293 24.2432 27.5618 26.6733 28.7766C29.1033 29.9914 31.2171 31.7552 32.8473 33.9283C33.2762 34.4989 33.9143 34.8759 34.6211 34.9762C35.328 35.0765 36.0458 34.892 36.6166 34.4633C36.8201 34.312 37.0004 34.1318 37.1517 33.9283C38.7819 31.7552 40.8956 29.9914 43.3257 28.7766C45.7557 27.5618 48.4353 26.9293 51.1522 26.9293C53.8691 26.9293 56.5486 27.5618 58.9787 28.7766C61.4087 29.9914 63.5225 31.7552 65.1527 33.9283C65.5816 34.4995 66.2198 34.8769 66.927 34.9775C67.6342 35.0782 68.3525 34.8938 68.9237 34.465C69.495 34.0362 69.8724 33.3981 69.9731 32.691C70.0738 31.9839 69.8894 31.2658 69.4605 30.6946C67.0773 27.5002 63.8993 24.9852 60.2424 23.3995C62.2472 21.5695 63.6518 19.1762 64.2718 16.5338C64.8918 13.8914 64.6984 11.1232 63.7168 8.59272C62.7352 6.06219 61.0113 3.8875 58.7714 2.35404C56.5316 0.820575 53.8803 0 51.1657 0C48.451 0 45.7998 0.820575 43.5599 2.35404C41.32 3.8875 39.5962 6.06219 38.6146 8.59272C37.633 11.1232 37.4395 13.8914 38.0595 16.5338C38.6795 19.1762 40.0841 21.5695 42.0889 23.3995C39.4485 24.5411 37.0498 26.1753 35.0214 28.2147C32.9929 26.1753 30.5942 24.5411 27.9538 23.3995C29.9586 21.5695 31.3632 19.1762 31.9832 16.5338C32.6033 13.8914 32.4098 11.1232 31.4282 8.59272C30.4466 6.06219 28.7227 3.8875 26.4829 2.35404C24.243 0.820575 21.5917 0 18.8771 0C16.1624 0 13.5112 0.820575 11.2713 2.35404C9.03142 3.8875 7.30757 6.06219 6.32597 8.59272C5.34437 11.1232 5.15089 13.8914 5.77093 16.5338C6.39097 19.1762 7.79554 21.5695 9.80033 23.3995C6.1274 24.98 2.93371 27.4967 0.53848 30.698C0.326337 30.9808 0.171985 31.3026 0.0842351 31.6451C-0.00351444 31.9875 -0.0229423 32.3439 0.0270601 32.6938C0.0770626 33.0438 0.195517 33.3805 0.375659 33.6847C0.555801 33.9888 0.794103 34.2546 1.07696 34.4667ZM51.1556 5.39397C52.7531 5.39397 54.3147 5.86761 55.643 6.75498C56.9713 7.64236 58.0066 8.90362 58.6179 10.3793C59.2293 11.8549 59.3892 13.4787 59.0776 15.0452C58.7659 16.6118 57.9966 18.0507 56.867 19.1801C55.7374 20.3096 54.2982 21.0787 52.7313 21.3903C51.1645 21.7019 49.5405 21.542 48.0646 20.9307C46.5886 20.3195 45.3272 19.2844 44.4396 17.9564C43.5521 16.6283 43.0784 15.067 43.0784 13.4697C43.0784 11.3279 43.9294 9.2738 45.4441 7.75931C46.9589 6.24481 49.0134 5.39397 51.1556 5.39397ZM18.8468 5.39397C20.4443 5.39397 22.0059 5.86761 23.3342 6.75498C24.6625 7.64236 25.6978 8.90362 26.3091 10.3793C26.9205 11.8549 27.0804 13.4787 26.7688 15.0452C26.4571 16.6118 25.6878 18.0507 24.5582 19.1801C23.4286 20.3096 21.9894 21.0787 20.4226 21.3903C18.8557 21.7019 17.2317 21.542 15.7558 20.9307C14.2799 20.3195 13.0184 19.2844 12.1308 17.9564C11.2433 16.6283 10.7696 15.067 10.7696 13.4697C10.7696 11.3279 11.6206 9.2738 13.1353 7.75931C14.6501 6.24481 16.7046 5.39397 18.8468 5.39397ZM60.2424 58.3945C62.2472 56.5644 63.6518 54.1712 64.2718 51.5287C64.8918 48.8863 64.6984 46.1182 63.7168 43.5876C62.7352 41.0571 61.0113 38.8824 58.7714 37.349C56.5316 35.8155 53.8803 34.9949 51.1657 34.9949C48.451 34.9949 45.7998 35.8155 43.5599 37.349C41.32 38.8824 39.5962 41.0571 38.6146 43.5876C37.633 46.1182 37.4395 48.8863 38.0595 51.5287C38.6795 54.1712 40.0841 56.5644 42.0889 58.3945C39.4485 59.536 37.0498 61.1702 35.0214 63.2096C32.9929 61.1702 30.5942 59.536 27.9538 58.3945C29.9586 56.5644 31.3632 54.1712 31.9832 51.5287C32.6033 48.8863 32.4098 46.1182 31.4282 43.5876C30.4466 41.0571 28.7227 38.8824 26.4829 37.349C24.243 35.8155 21.5917 34.9949 18.8771 34.9949C16.1624 34.9949 13.5112 35.8155 11.2713 37.349C9.03142 38.8824 7.30757 41.0571 6.32597 43.5876C5.34437 46.1182 5.15089 48.8863 5.77093 51.5287C6.39097 54.1712 7.79554 56.5644 9.80033 58.3945C6.1274 59.9749 2.93371 62.4916 0.53848 65.6929C0.326337 65.9757 0.171985 66.2975 0.0842351 66.64C-0.00351444 66.9824 -0.0229423 67.3388 0.0270601 67.6888C0.0770626 68.0387 0.195517 68.3754 0.375659 68.6796C0.555801 68.9838 0.794103 69.2495 1.07696 69.4616C1.35982 69.6737 1.68169 69.828 2.0242 69.9158C2.36671 70.0035 2.72314 70.0229 3.07316 69.9729C3.42318 69.923 3.75992 69.8045 4.06416 69.6244C4.3684 69.4443 4.63417 69.206 4.84632 68.9232C6.47645 66.7501 8.59023 64.9863 11.0203 63.7715C13.4503 62.5567 16.1299 61.9242 18.8468 61.9242C21.5637 61.9242 24.2432 62.5567 26.6733 63.7715C29.1033 64.9863 31.2171 66.7501 32.8473 68.9232C33.2762 69.4939 33.9143 69.8708 34.6211 69.9711C35.328 70.0714 36.0458 69.887 36.6166 69.4582C36.8201 69.3069 37.0004 69.1267 37.1517 68.9232C38.7819 66.7501 40.8956 64.9863 43.3257 63.7715C45.7557 62.5567 48.4353 61.9242 51.1522 61.9242C53.8691 61.9242 56.5486 62.5567 58.9787 63.7715C61.4087 64.9863 63.5225 66.7501 65.1527 68.9232C65.5816 69.4944 66.2198 69.8718 66.927 69.9725C67.6342 70.0731 68.3525 69.8887 68.9237 69.4599C69.495 69.0311 69.8724 68.393 69.9731 67.6859C70.0738 66.9788 69.8894 66.2607 69.4605 65.6896C67.0773 62.4952 63.8993 59.9801 60.2424 58.3945ZM18.8468 40.3889C20.4443 40.3889 22.0059 40.8625 23.3342 41.7499C24.6625 42.6373 25.6978 43.8985 26.3091 45.3742C26.9205 46.8498 27.0804 48.4736 26.7688 50.0402C26.4571 51.6067 25.6878 53.0457 24.5582 54.1751C23.4286 55.3045 21.9894 56.0736 20.4226 56.3852C18.8557 56.6968 17.2317 56.5369 15.7558 55.9257C14.2799 55.3144 13.0184 54.2794 12.1308 52.9513C11.2433 51.6232 10.7696 50.0619 10.7696 48.4647C10.7696 46.3228 11.6206 44.2687 13.1353 42.7542C14.6501 41.2397 16.7046 40.3889 18.8468 40.3889ZM51.1556 40.3889C52.7531 40.3889 54.3147 40.8625 55.643 41.7499C56.9713 42.6373 58.0066 43.8985 58.6179 45.3742C59.2293 46.8498 59.3892 48.4736 59.0776 50.0402C58.7659 51.6067 57.9966 53.0457 56.867 54.1751C55.7374 55.3045 54.2982 56.0736 52.7313 56.3852C51.1645 56.6968 49.5405 56.5369 48.0646 55.9257C46.5886 55.3144 45.3272 54.2794 44.4396 52.9513C43.5521 51.6232 43.0784 50.0619 43.0784 48.4647C43.0784 46.3228 43.9294 44.2687 45.4441 42.7542C46.9589 41.2397 49.0134 40.3889 51.1556 40.3889Z" fill="#444444"/>
</svg>
