<svg width="70" height="70" viewBox="0 0 70 70" fill="none" xmlns="http://www.w3.org/2000/svg">
<path d="M35 0C28.0777 0 21.3108 2.05271 15.5551 5.89856C9.79933 9.74441 5.3133 15.2107 2.66423 21.6061C0.015165 28.0015 -0.677952 35.0388 0.672531 41.8282C2.02301 48.6175 5.35644 54.8539 10.2513 59.7487C15.1461 64.6436 21.3825 67.977 28.1718 69.3275C34.9612 70.6779 41.9985 69.9848 48.3939 67.3358C54.7893 64.6867 60.2556 60.2007 64.1014 54.4449C67.9473 48.6892 70 41.9223 70 35C69.9902 25.7204 66.2996 16.8237 59.7379 10.2621C53.1763 3.70043 44.2796 0.00979939 35 0ZM35 64.6154C29.1426 64.6154 23.4168 62.8785 18.5466 59.6243C13.6764 56.3701 9.88048 51.7448 7.63897 46.3333C5.39745 40.9218 4.81096 34.9671 5.95368 29.2223C7.0964 23.4775 9.91699 18.2005 14.0588 14.0588C18.2006 9.91697 23.4775 7.09638 29.2223 5.95367C34.9672 4.81095 40.9218 5.39743 46.3333 7.63895C51.7448 9.88047 56.3701 13.6763 59.6243 18.5466C62.8785 23.4168 64.6154 29.1426 64.6154 35C64.6065 42.8517 61.4834 50.3794 55.9314 55.9314C50.3794 61.4834 42.8518 64.6065 35 64.6154ZM48.4615 41.7308C48.4615 44.2299 47.4688 46.6267 45.7016 48.3939C43.9344 50.161 41.5376 51.1538 39.0385 51.1538H37.6923V53.8461C37.6923 54.5602 37.4087 55.245 36.9038 55.7499C36.3989 56.2548 35.7141 56.5384 35 56.5384C34.286 56.5384 33.6012 56.2548 33.0963 55.7499C32.5914 55.245 32.3077 54.5602 32.3077 53.8461V51.1538H26.9231C26.209 51.1538 25.5242 50.8702 25.0193 50.3653C24.5144 49.8604 24.2308 49.1756 24.2308 48.4615C24.2308 47.7475 24.5144 47.0627 25.0193 46.5578C25.5242 46.0529 26.209 45.7692 26.9231 45.7692H39.0385C40.1095 45.7692 41.1367 45.3437 41.8941 44.5864C42.6514 43.829 43.0769 42.8018 43.0769 41.7308C43.0769 40.6597 42.6514 39.6325 41.8941 38.8751C41.1367 38.1178 40.1095 37.6923 39.0385 37.6923H30.9615C28.4624 37.6923 26.0656 36.6995 24.2984 34.9323C22.5313 33.1652 21.5385 30.7684 21.5385 28.2692C21.5385 25.7701 22.5313 23.3733 24.2984 21.6061C26.0656 19.8389 28.4624 18.8461 30.9615 18.8461H32.3077V16.1538C32.3077 15.4398 32.5914 14.755 33.0963 14.2501C33.6012 13.7452 34.286 13.4615 35 13.4615C35.7141 13.4615 36.3989 13.7452 36.9038 14.2501C37.4087 14.755 37.6923 15.4398 37.6923 16.1538V18.8461H43.0769C43.791 18.8461 44.4758 19.1298 44.9807 19.6347C45.4856 20.1396 45.7692 20.8244 45.7692 21.5385C45.7692 22.2525 45.4856 22.9373 44.9807 23.4422C44.4758 23.9471 43.791 24.2308 43.0769 24.2308H30.9615C29.8905 24.2308 28.8633 24.6562 28.1059 25.4136C27.3486 26.171 26.9231 27.1982 26.9231 28.2692C26.9231 29.3403 27.3486 30.3675 28.1059 31.1248C28.8633 31.8822 29.8905 32.3077 30.9615 32.3077H39.0385C41.5376 32.3077 43.9344 33.3005 45.7016 35.0676C47.4688 36.8348 48.4615 39.2316 48.4615 41.7308Z" fill="#444444"/>
</svg>
