<svg width="70" height="52" viewBox="0 0 70 52" fill="none" xmlns="http://www.w3.org/2000/svg">
<path d="M51.3333 14.6457V13C51.3333 5.59 40.2996 0 25.6667 0C11.0338 0 0 5.59 0 13V24.8182C0 30.9902 7.65625 35.8948 18.6667 37.3632V39C18.6667 46.41 29.7004 52 44.3333 52C58.9662 52 70 46.41 70 39V27.1818C70 21.0659 62.5858 16.1555 51.3333 14.6457ZM65.3333 27.1818C65.3333 31.0877 56.3529 35.4545 44.3333 35.4545C43.2454 35.4545 42.1662 35.4161 41.1017 35.3452C47.3929 33.023 51.3333 29.25 51.3333 24.8182V19.4232C60.0454 20.738 65.3333 24.307 65.3333 27.1818ZM18.6667 32.5739V25.545C20.9877 25.8514 23.326 26.0033 25.6667 26C28.0073 26.0033 30.3456 25.8514 32.6667 25.545V32.5739C30.3491 32.9207 28.0094 33.0935 25.6667 33.0909C23.3239 33.0935 20.9842 32.9207 18.6667 32.5739ZM46.6667 20.6611V24.8182C46.6667 27.297 43.0471 29.9591 37.3333 31.5752V24.6705C41.0987 23.7457 44.2867 22.3689 46.6667 20.6611ZM25.6667 4.72727C37.6862 4.72727 46.6667 9.09409 46.6667 13C46.6667 16.9059 37.6862 21.2727 25.6667 21.2727C13.6471 21.2727 4.66667 16.9059 4.66667 13C4.66667 9.09409 13.6471 4.72727 25.6667 4.72727ZM4.66667 24.8182V20.6611C7.04667 22.3689 10.2346 23.7457 14 24.6705V31.5752C8.28625 29.9591 4.66667 27.297 4.66667 24.8182ZM23.3333 39V37.768C24.1004 37.7975 24.8762 37.8182 25.6667 37.8182C26.7983 37.8182 27.9037 37.7798 28.9887 37.7148C30.1941 38.1519 31.4218 38.5227 32.6667 38.8257V45.757C26.9529 44.1409 23.3333 41.4789 23.3333 39ZM37.3333 46.7557V39.7091C39.6536 40.025 41.9922 40.183 44.3333 40.1818C46.674 40.1852 49.0123 40.0332 51.3333 39.7268V46.7557C46.6915 47.4451 41.9752 47.4451 37.3333 46.7557ZM56 45.757V38.8523C59.7654 37.9275 62.9533 36.5507 65.3333 34.8429V39C65.3333 41.4789 61.7137 44.1409 56 45.757Z" fill="#444444"/>
</svg>
