<svg width="70" height="70" viewBox="0 0 70 70" fill="none" xmlns="http://www.w3.org/2000/svg">
<path d="M34.995 18.9424C31.8201 18.9424 28.7165 19.8839 26.0766 21.6478C23.4368 23.4116 21.3793 25.9187 20.1643 28.8519C18.9494 31.7852 18.6315 35.0128 19.2509 38.1267C19.8702 41.2406 21.3991 44.1009 23.6441 46.3459C25.8891 48.5909 28.7494 50.1197 31.8633 50.7391C34.9772 51.3585 38.2048 51.0406 41.138 49.8256C44.0713 48.6107 46.5783 46.5532 48.3422 43.9133C50.1061 41.2735 51.0476 38.1699 51.0476 34.995C51.0431 30.7389 49.3505 26.6585 46.341 23.649C43.3315 20.6395 39.251 18.9468 34.995 18.9424ZM34.995 45.6967C32.8784 45.6967 30.8093 45.0691 29.0494 43.8931C27.2895 42.7172 25.9179 41.0458 25.1079 39.0904C24.2979 37.1349 24.086 34.9831 24.4989 32.9072C24.9118 30.8313 25.9311 28.9244 27.4277 27.4277C28.9244 25.9311 30.8313 24.9118 32.9072 24.4989C34.9831 24.086 37.1349 24.2979 39.0904 25.1079C41.0458 25.9179 42.7172 27.2895 43.8931 29.0494C45.0691 30.8093 45.6967 32.8784 45.6967 34.995C45.6967 37.8333 44.5692 40.5553 42.5622 42.5622C40.5553 44.5692 37.8333 45.6967 34.995 45.6967ZM64.4247 35.7174C64.4381 35.2358 64.4381 34.7542 64.4247 34.2726L69.4144 28.0389C69.676 27.7116 69.8571 27.3274 69.9431 26.9173C70.0291 26.5072 70.0175 26.0826 69.9093 25.6778C69.0914 22.6031 67.8678 19.6509 66.2708 16.899C66.0617 16.5389 65.7714 16.2326 65.423 16.0044C65.0747 15.7762 64.6779 15.6325 64.2642 15.5847L56.3315 14.7018C56.0016 14.354 55.6671 14.0196 55.3283 13.6986L54.3918 5.74585C54.3437 5.33187 54.1995 4.93486 53.9707 4.58648C53.7419 4.23811 53.4349 3.948 53.0742 3.73928C50.3213 2.14521 47.3694 0.922831 44.2954 0.104035C43.8904 -0.00366178 43.4657 -0.0146769 43.0555 0.0718769C42.6454 0.158431 42.2614 0.340132 41.9344 0.602333L35.7174 5.56526C35.2358 5.56526 34.7542 5.56526 34.2726 5.56526L28.0389 0.585612C27.7116 0.323983 27.3274 0.142888 26.9173 0.0569175C26.5072 -0.0290532 26.0826 -0.0174966 25.6778 0.0906571C22.6036 0.910098 19.6516 2.13363 16.899 3.72924C16.5389 3.93835 16.2326 4.22863 16.0044 4.57698C15.7762 4.92533 15.6325 5.32214 15.5847 5.73581L14.7018 13.6818C14.354 14.014 14.0196 14.3485 13.6986 14.6851L5.74585 15.5981C5.33187 15.6463 4.93486 15.7905 4.58648 16.0193C4.23811 16.248 3.948 16.555 3.73928 16.9158C2.14521 19.6687 0.922831 22.6206 0.104035 25.6945C-0.00366178 26.0996 -0.0146769 26.5243 0.0718769 26.9344C0.158431 27.3445 0.340132 27.7286 0.602333 28.0556L5.56526 34.2726C5.56526 34.7542 5.56526 35.2358 5.56526 35.7174L0.585612 41.9511C0.323983 42.2784 0.142888 42.6626 0.0569175 43.0727C-0.0290532 43.4828 -0.0174966 43.9073 0.0906571 44.3122C0.908635 47.3869 2.13224 50.3391 3.72924 53.0909C3.93835 53.451 4.22863 53.7574 4.57698 53.9855C4.92533 54.2137 5.32214 54.3574 5.73581 54.4052L13.6685 55.2881C14.0007 55.6359 14.3351 55.9704 14.6718 56.2914L15.5981 64.2441C15.6463 64.6581 15.7905 65.0551 16.0193 65.4035C16.248 65.7519 16.555 66.042 16.9158 66.2507C19.6687 67.8448 22.6206 69.0671 25.6945 69.8859C26.0996 69.9936 26.5243 70.0046 26.9344 69.9181C27.3445 69.8315 27.7286 69.6498 28.0556 69.3876L34.2726 64.4247C34.7542 64.4381 35.2358 64.4381 35.7174 64.4247L41.9511 69.4144C42.2784 69.676 42.6626 69.8571 43.0727 69.9431C43.4828 70.0291 43.9073 70.0175 44.3122 69.9093C47.3869 69.0914 50.3391 67.8678 53.0909 66.2708C53.451 66.0617 53.7574 65.7714 53.9855 65.423C54.2137 65.0747 54.3574 64.6779 54.4052 64.2642L55.2881 56.3315C55.6359 56.0016 55.9704 55.6671 56.2914 55.3283L64.2441 54.3918C64.6581 54.3437 65.0551 54.1995 65.4035 53.9707C65.7519 53.7419 66.042 53.4349 66.2507 53.0742C67.8448 50.3213 69.0671 47.3694 69.8859 44.2954C69.9936 43.8904 70.0046 43.4657 69.9181 43.0555C69.8315 42.6454 69.6498 42.2614 69.3876 41.9344L64.4247 35.7174ZM59.0404 33.5436C59.0973 34.5103 59.0973 35.4796 59.0404 36.4464C59.0006 37.1083 59.2079 37.7614 59.6223 38.2791L64.3679 44.2085C63.8233 45.9391 63.1261 47.6178 62.2844 49.2249L54.7263 50.0811C54.0681 50.1541 53.4604 50.4687 53.0207 50.964C52.3769 51.688 51.6913 52.3736 50.9673 53.0173C50.4721 53.457 50.1575 54.0647 50.0844 54.7229L49.245 62.2743C47.6381 63.1165 45.9593 63.8137 44.2286 64.3578L38.2958 59.6123C37.8211 59.233 37.2313 59.0266 36.6236 59.027H36.4631C35.4963 59.0839 34.5271 59.0839 33.5603 59.027C32.8984 58.9872 32.2453 59.1946 31.7276 59.6089L25.7815 64.3578C24.0509 63.8133 22.3722 63.1161 20.765 62.2743L19.9089 54.7263C19.8358 54.0681 19.5213 53.4604 19.026 53.0207C18.302 52.3769 17.6164 51.6913 16.9726 50.9673C16.533 50.4721 15.9252 50.1575 15.267 50.0844L7.71563 49.2416C6.87351 47.6347 6.17626 45.9559 5.63214 44.2252L10.3777 38.2924C10.7921 37.7748 10.9994 37.1217 10.9596 36.4598C10.9027 35.493 10.9027 34.5237 10.9596 33.5569C10.9994 32.895 10.7921 32.2419 10.3777 31.7243L5.63214 25.7815C6.17668 24.0509 6.87391 22.3722 7.71563 20.765L15.2637 19.9089C15.9219 19.8358 16.5296 19.5213 16.9693 19.026C17.613 18.302 18.2987 17.6164 19.0227 16.9726C19.5199 16.5327 19.8358 15.9236 19.9089 15.2637L20.7483 7.71563C22.3553 6.87351 24.034 6.17626 25.7648 5.63214L31.6975 10.3777C32.2152 10.7921 32.8683 10.9994 33.5302 10.9596C34.497 10.9027 35.4663 10.9027 36.433 10.9596C37.0949 10.9994 37.748 10.7921 38.2657 10.3777L44.2085 5.63214C45.9391 6.17668 47.6178 6.87391 49.2249 7.71563L50.0811 15.2637C50.1541 15.9219 50.4687 16.5296 50.964 16.9693C51.688 17.613 52.3736 18.2987 53.0173 19.0227C53.457 19.5179 54.0647 19.8325 54.7229 19.9056L62.2743 20.745C63.1165 22.3519 63.8137 24.0307 64.3578 25.7614L59.6123 31.6942C59.1939 32.2162 58.9863 32.876 59.0304 33.5436H59.0404Z" fill="#444444"/>
</svg>
