<svg width="64" height="70" viewBox="0 0 64 70" fill="none" xmlns="http://www.w3.org/2000/svg">
<path d="M54.7352 9.58125C51.7906 6.56056 48.2882 4.15942 44.4287 2.51533C40.5692 0.87124 36.4282 0.0164823 32.243 0H31.9999C23.513 0 15.3737 3.4241 9.37255 9.51903C3.37141 15.614 0 23.8805 0 32.5V50C0 51.9891 0.778017 53.8968 2.1629 55.3033C3.54778 56.7098 5.42607 57.5 7.38459 57.5H12.3076C14.2662 57.5 16.1445 56.7098 17.5293 55.3033C18.9142 53.8968 19.6922 51.9891 19.6922 50V37.5C19.6922 35.5109 18.9142 33.6032 17.5293 32.1967C16.1445 30.7902 14.2662 30 12.3076 30H5.03383C5.50854 24.7873 7.43639 19.82 10.5914 15.6803C13.7465 11.5406 17.9979 8.4001 22.8476 6.62676C27.6973 4.85343 32.9441 4.52079 37.9733 5.66783C43.0024 6.81488 47.6055 9.39407 51.2429 13.1031C55.6887 17.6416 58.4233 23.6221 58.969 30H51.6921C49.7336 30 47.8553 30.7902 46.4704 32.1967C45.0855 33.6032 44.3075 35.5109 44.3075 37.5V50C44.3075 51.9891 45.0855 53.8968 46.4704 55.3033C47.8553 56.7098 49.7336 57.5 51.6921 57.5H59.0767C59.0767 59.4891 58.2987 61.3968 56.9138 62.8033C55.5289 64.2098 53.6506 65 51.6921 65H34.4614C33.8086 65 33.1825 65.2634 32.7208 65.7322C32.2592 66.2011 31.9999 66.837 31.9999 67.5C31.9999 68.163 32.2592 68.7989 32.7208 69.2678C33.1825 69.7366 33.8086 70 34.4614 70H51.6921C54.9563 70 58.0868 68.683 60.3949 66.3388C62.7031 63.9946 63.9998 60.8152 63.9998 57.5V32.5C64.0158 28.2487 63.2057 24.0359 61.6159 20.1031C60.0261 16.1703 57.6879 12.5947 54.7352 9.58125ZM12.3076 35C12.9605 35 13.5866 35.2634 14.0482 35.7322C14.5098 36.2011 14.7692 36.837 14.7692 37.5V50C14.7692 50.663 14.5098 51.2989 14.0482 51.7678C13.5866 52.2366 12.9605 52.5 12.3076 52.5H7.38459C6.73175 52.5 6.10565 52.2366 5.64402 51.7678C5.1824 51.2989 4.92306 50.663 4.92306 50V35H12.3076ZM51.6921 52.5C51.0393 52.5 50.4132 52.2366 49.9516 51.7678C49.4899 51.2989 49.2306 50.663 49.2306 50V37.5C49.2306 36.837 49.4899 36.2011 49.9516 35.7322C50.4132 35.2634 51.0393 35 51.6921 35H59.0767V52.5H51.6921Z" fill="#444444"/>
</svg>
