<svg width="64" height="72" viewBox="0 0 64 72" fill="none" xmlns="http://www.w3.org/2000/svg">
<path d="M32 34.6667C29.7587 34.6674 27.5924 35.4747 25.8973 36.941C24.2021 38.4073 23.0912 40.4346 22.7676 42.6525C22.444 44.8703 22.9293 47.1306 24.1349 49.0201C25.3404 50.9096 27.1857 52.3022 29.3333 52.9433V58.6667C29.3333 59.3739 29.6143 60.0522 30.1144 60.5523C30.6145 61.0524 31.2928 61.3333 32 61.3333C32.7072 61.3333 33.3855 61.0524 33.8856 60.5523C34.3857 60.0522 34.6667 59.3739 34.6667 58.6667V52.9433C36.8144 52.3022 38.6596 50.9096 39.8651 49.0201C41.0707 47.1306 41.556 44.8703 41.2324 42.6525C40.9088 40.4346 39.7979 38.4073 38.1027 36.941C36.4076 35.4747 34.2413 34.6674 32 34.6667ZM32 48C31.2089 48 30.4355 47.7654 29.7777 47.3259C29.1199 46.8864 28.6072 46.2616 28.3045 45.5307C28.0017 44.7998 27.9225 43.9956 28.0769 43.2196C28.2312 42.4437 28.6122 41.731 29.1716 41.1716C29.731 40.6122 30.4437 40.2312 31.2196 40.0769C31.9956 39.9225 32.7998 40.0017 33.5307 40.3045C34.2616 40.6072 34.8864 41.1199 35.3259 41.7777C35.7654 42.4355 36 43.2089 36 44C36 45.0609 35.5786 46.0783 34.8284 46.8284C34.0783 47.5786 33.0609 48 32 48ZM58.6667 24H48V16C48 11.7565 46.3143 7.68687 43.3137 4.68629C40.3131 1.68571 36.2435 0 32 0C27.7565 0 23.6869 1.68571 20.6863 4.68629C17.6857 7.68687 16 11.7565 16 16V24H5.33333C3.91885 24 2.56229 24.5619 1.5621 25.5621C0.561903 26.5623 0 27.9188 0 29.3333V66.6667C0 68.0812 0.561903 69.4377 1.5621 70.4379C2.56229 71.4381 3.91885 72 5.33333 72H58.6667C60.0812 72 61.4377 71.4381 62.4379 70.4379C63.4381 69.4377 64 68.0812 64 66.6667V29.3333C64 27.9188 63.4381 26.5623 62.4379 25.5621C61.4377 24.5619 60.0812 24 58.6667 24ZM21.3333 16C21.3333 13.171 22.4571 10.4579 24.4575 8.45753C26.4579 6.45714 29.171 5.33333 32 5.33333C34.829 5.33333 37.5421 6.45714 39.5425 8.45753C41.5429 10.4579 42.6667 13.171 42.6667 16V24H21.3333V16ZM58.6667 66.6667H5.33333V29.3333H58.6667V66.6667Z" fill="#444444"/>
</svg>
