<svg width="58" height="70" viewBox="0 0 58 70" fill="none" xmlns="http://www.w3.org/2000/svg">
<path fill-rule="evenodd" clip-rule="evenodd" d="M27.613 5.663C22.005 6.559 16.6679 9.06267 13.0954 13.0737C9.18743 17.4611 7.74725 23.2338 9.14097 29.9444C9.17119 30.0898 9.16997 30.2399 9.1374 30.3848C9.10484 30.5297 9.04166 30.6661 8.95199 30.7852L2.30777 39.6363C2.18196 39.8063 2.12599 40.017 2.15111 40.2261C2.17624 40.4352 2.2806 40.6272 2.4432 40.7633L5.43066 43.2227C5.55314 43.323 5.65135 43.4491 5.71811 43.5917C5.78487 43.7344 5.81849 43.89 5.8165 44.0471L5.76453 47.586C5.76453 47.8388 5.86532 48.2082 6.10863 48.2759L7.42441 48.6298C7.59685 48.6764 7.75472 48.765 7.88363 48.8874C8.01254 49.0097 8.10837 49.162 8.16239 49.3304C8.21641 49.4987 8.2269 49.6778 8.19289 49.8512C8.15889 50.0245 8.08148 50.1867 7.96772 50.323C7.46591 50.8756 7.00314 51.4616 6.58266 52.0769C6.52161 52.1836 6.50254 52.3087 6.52911 52.4284L7.86772 57.1496C7.96179 57.5158 8.17297 57.8423 8.46988 58.0805C8.7668 58.3187 9.1336 58.4559 9.51579 58.4718L18.1774 58.8653C18.9606 58.8938 19.7168 59.1556 20.3467 59.6163C20.9765 60.077 21.4506 60.7151 21.7066 61.4468L24.0153 67.8736H46.7362C47.1753 67.8766 47.6087 67.7749 47.9994 67.5771C48.3902 67.3793 48.7269 67.0913 48.9809 66.7375C49.2349 66.3837 49.3987 65.9746 49.4584 65.5449C49.518 65.1152 49.4718 64.6776 49.3237 64.2693L45.6543 53.9334C45.4259 53.3116 45.3329 52.649 45.3815 51.9892C45.4301 51.3294 45.6191 50.6871 45.9362 50.1044C46.5087 48.9743 47.0205 47.9912 47.5559 46.9622C51.0347 40.2733 55.4592 31.7699 55.4592 25.9801C55.4592 20.1343 53.5206 15.589 50.4355 12.2749C46.9963 8.75858 42.4846 6.45318 37.5919 5.712V21.5009C38.8236 22.3122 39.8338 23.4109 40.5333 24.6996C41.2327 25.9884 41.5999 27.4275 41.6023 28.8898V35.0303C41.5959 37.2024 40.7873 39.2975 39.328 40.9224C37.8688 42.5473 35.8594 43.5904 33.6769 43.8558V45.3258C33.675 46.4509 33.2217 47.5294 32.4163 48.3249C31.6109 49.1205 30.519 49.5683 29.38 49.5701H21.4428C21.2156 50.2463 20.7788 50.8349 20.1944 51.2525C19.61 51.6701 18.9074 51.8957 18.186 51.8972H15.8789C14.9692 51.8972 14.0968 51.5403 13.4535 50.9049C12.8103 50.2695 12.4489 49.4078 12.4489 48.5092C12.4489 47.6107 12.8103 46.7489 13.4535 46.1135C14.0968 45.4782 14.9692 45.1212 15.8789 45.1212H18.186C18.9074 45.1228 19.61 45.3483 20.1944 45.7659C20.7788 46.1836 21.2156 46.7721 21.4428 47.4483H29.38C29.9494 47.4467 30.495 47.2225 30.8976 46.8248C31.3002 46.4271 31.5272 45.8882 31.5288 45.3258V43.8558C29.3458 43.5907 27.3358 42.5476 25.8762 40.9223C24.4166 39.297 23.6079 37.2013 23.6019 35.0288V28.8882C23.6044 27.4259 23.9717 25.9867 24.6713 24.698C25.371 23.4092 26.3813 22.3106 27.613 21.4993V5.663ZM19.468 48.5092C19.4669 48.8449 19.3316 49.1667 19.0915 49.4043C18.8514 49.6419 18.5259 49.7761 18.186 49.7778H15.8789C15.5389 49.7778 15.2129 49.6444 14.9725 49.4069C14.732 49.1694 14.597 48.8474 14.597 48.5116C14.597 48.1757 14.732 47.8537 14.9725 47.6162C15.2129 47.3787 15.5389 47.2453 15.8789 47.2453H18.186C18.5255 47.247 18.8506 47.3809 19.0907 47.618C19.3307 47.8551 19.4663 48.1762 19.468 48.5116V48.5092ZM37.5927 3.56767C43.0862 4.33634 48.162 6.89656 52.0135 10.8414C55.4482 14.532 57.6042 19.5572 57.6042 25.9801C57.6042 33.264 51.6072 43.6092 47.8111 51.128C47.639 51.4502 47.5378 51.8046 47.514 52.1681C47.4903 52.5316 47.5445 52.896 47.6733 53.2373L51.3426 63.5818C51.6008 64.3088 51.6788 65.0863 51.5702 65.8492C51.4616 66.612 51.1696 67.3381 50.7185 67.9666C50.2674 68.5951 49.6705 69.1077 48.9776 69.4615C48.2848 69.8153 47.5162 69.9999 46.7362 70H23.2562C23.0344 69.9998 22.8181 69.9317 22.637 69.8051C22.456 69.6785 22.3191 69.4996 22.2452 69.293L19.6821 62.1577C19.5693 61.8239 19.3554 61.5324 19.0694 61.3226C18.7834 61.1128 18.439 60.9949 18.0829 60.9848L9.4213 60.5912C8.5854 60.5571 7.78259 60.2592 7.13068 59.7412C6.47878 59.2233 6.01212 58.5126 5.79918 57.7134L4.46056 52.9916C4.34544 52.5004 4.35892 51.9883 4.49972 51.5038C4.64052 51.0192 4.90401 50.578 5.26531 50.2219C4.75185 49.9929 4.32015 49.6164 4.02647 49.1415C3.73278 48.6666 3.59072 48.1153 3.61882 47.5596L3.66291 44.5216L1.07546 42.3889C0.489133 41.9096 0.111665 41.2262 0.0210948 40.4798C-0.0694752 39.7334 0.133779 38.9812 0.588833 38.3787L6.95038 29.9048C5.54169 22.5991 7.30314 16.3714 11.4843 11.6752C15.4876 7.18122 21.4058 4.46211 27.613 3.52178V2.91589C27.6145 2.14299 27.9259 1.40216 28.4792 0.855634C29.0325 0.30911 29.7826 0.0014391 30.565 0H34.6407C35.4231 0.0016439 36.173 0.309381 36.7263 0.85586C37.2795 1.40234 37.5911 2.14305 37.5927 2.91589V3.56767ZM35.4447 20.4556C33.6 19.8465 31.6049 19.8465 29.7603 20.4556V2.91589C29.7617 2.70551 29.847 2.50416 29.9976 2.35539C30.1482 2.20663 30.352 2.12243 30.565 2.121H34.6407C34.8536 2.12243 35.0574 2.20666 35.2079 2.35544C35.3583 2.50423 35.4434 2.70558 35.4447 2.91589V20.4556ZM29.3028 28.8898C29.2952 29.1661 29.1788 29.4285 28.9783 29.6213C28.7777 29.8141 28.509 29.9219 28.2292 29.9219C27.9493 29.9219 27.6806 29.8141 27.4801 29.6213C27.2795 29.4285 27.1631 29.1661 27.1555 28.8898C27.1588 27.4631 27.7341 26.0959 28.7554 25.0871C29.7767 24.0783 31.1609 23.5101 32.6052 23.5068C32.8849 23.5143 33.1507 23.6293 33.3458 23.8273C33.541 24.0254 33.6502 24.2909 33.6502 24.5673C33.6502 24.8437 33.541 25.1092 33.3458 25.3072C33.1507 25.5053 32.8849 25.6203 32.6052 25.6278C31.7304 25.6311 30.8923 25.9758 30.2737 26.5868C29.6551 27.1979 29.3061 28.0257 29.3028 28.8898ZM35.9077 35.0303C35.9152 34.754 36.0317 34.4916 36.2322 34.2988C36.4327 34.106 36.7015 33.9982 36.9813 33.9982C37.2611 33.9982 37.5299 34.106 37.7304 34.2988C37.9309 34.4916 38.0474 34.754 38.055 35.0303C38.0516 36.4571 37.4764 37.8244 36.4551 38.8333C35.4339 39.8423 34.0496 40.4106 32.6052 40.4141C32.3204 40.4141 32.0472 40.3023 31.8458 40.1034C31.6444 39.9044 31.5312 39.6346 31.5312 39.3532C31.5312 39.0719 31.6444 38.802 31.8458 38.6031C32.0472 38.4041 32.3204 38.2923 32.6052 38.2923C33.4801 38.2891 34.3181 37.9443 34.9367 37.3333C35.5553 36.7223 35.9043 35.8945 35.9077 35.0303ZM32.6052 22.1192C34.42 22.126 36.1585 22.8411 37.4417 24.1086C38.725 25.3761 39.4489 27.0933 39.4558 28.8859V35.0264C39.4558 36.8217 38.7338 38.5434 37.4486 39.8129C36.1634 41.0823 34.4204 41.7954 32.6029 41.7954C30.7854 41.7954 29.0423 41.0823 27.7571 39.8129C26.472 38.5434 25.75 36.8217 25.75 35.0264V28.8882C25.7558 27.0947 26.4796 25.3762 27.7635 24.1079C29.0474 22.8396 30.7871 22.1244 32.6029 22.1184L32.6052 22.1192Z" fill="#444444"/>
<path fill-rule="evenodd" clip-rule="evenodd" d="M27.613 5.663C22.005 6.559 16.6679 9.06267 13.0954 13.0737C9.18743 17.4611 7.74725 23.2338 9.14097 29.9444C9.17119 30.0898 9.16997 30.2399 9.1374 30.3848C9.10484 30.5297 9.04166 30.6661 8.95199 30.7852L2.30777 39.6363C2.18196 39.8063 2.12599 40.017 2.15111 40.2261C2.17624 40.4352 2.2806 40.6272 2.4432 40.7633L5.43066 43.2227C5.55314 43.323 5.65135 43.4491 5.71811 43.5917C5.78487 43.7344 5.81849 43.89 5.8165 44.0471L5.76453 47.586C5.76453 47.8388 5.86532 48.2082 6.10863 48.2759L7.42441 48.6298C7.59685 48.6764 7.75472 48.765 7.88363 48.8874C8.01254 49.0097 8.10837 49.162 8.16239 49.3304C8.21641 49.4987 8.2269 49.6778 8.19289 49.8512C8.15889 50.0245 8.08148 50.1867 7.96772 50.323C7.46591 50.8756 7.00314 51.4616 6.58266 52.0769C6.52161 52.1836 6.50254 52.3087 6.52911 52.4284L7.86772 57.1496C7.96179 57.5158 8.17297 57.8423 8.46988 58.0805C8.7668 58.3187 9.1336 58.4559 9.51579 58.4718L18.1774 58.8653C18.9606 58.8938 19.7168 59.1556 20.3467 59.6163C20.9765 60.077 21.4506 60.7151 21.7066 61.4468L24.0153 67.8736H46.7362C47.1753 67.8766 47.6087 67.7749 47.9994 67.5771C48.3902 67.3793 48.7269 67.0913 48.9809 66.7375C49.2349 66.3837 49.3987 65.9746 49.4584 65.5449C49.518 65.1152 49.4718 64.6776 49.3237 64.2693L45.6543 53.9334C45.4259 53.3116 45.3329 52.649 45.3815 51.9892C45.4301 51.3294 45.6191 50.6871 45.9362 50.1044C46.5087 48.9743 47.0205 47.9912 47.5559 46.9622C51.0347 40.2733 55.4592 31.7699 55.4592 25.9801C55.4592 20.1343 53.5206 15.589 50.4355 12.2749C46.9963 8.75858 42.4846 6.45318 37.5919 5.712V21.5009C38.8236 22.3122 39.8338 23.4109 40.5333 24.6996C41.2327 25.9884 41.5999 27.4275 41.6023 28.8898V35.0303C41.5959 37.2024 40.7873 39.2975 39.328 40.9224C37.8688 42.5473 35.8594 43.5904 33.6769 43.8558V45.3258C33.675 46.4509 33.2217 47.5294 32.4163 48.3249C31.6109 49.1205 30.519 49.5683 29.38 49.5701H21.4428C21.2156 50.2463 20.7788 50.8349 20.1944 51.2525C19.61 51.6701 18.9074 51.8957 18.186 51.8972H15.8789C14.9692 51.8972 14.0968 51.5403 13.4535 50.9049C12.8103 50.2695 12.4489 49.4078 12.4489 48.5092C12.4489 47.6107 12.8103 46.7489 13.4535 46.1135C14.0968 45.4782 14.9692 45.1212 15.8789 45.1212H18.186C18.9074 45.1228 19.61 45.3483 20.1944 45.7659C20.7788 46.1836 21.2156 46.7721 21.4428 47.4483H29.38C29.9494 47.4467 30.495 47.2225 30.8976 46.8248C31.3002 46.4271 31.5272 45.8882 31.5288 45.3258V43.8558C29.3458 43.5907 27.3358 42.5476 25.8762 40.9223C24.4166 39.297 23.6079 37.2013 23.6019 35.0288V28.8882C23.6044 27.4259 23.9717 25.9867 24.6713 24.698C25.371 23.4092 26.3813 22.3106 27.613 21.4993V5.663ZM19.468 48.5092C19.4669 48.8449 19.3316 49.1667 19.0915 49.4043C18.8514 49.6419 18.5259 49.7761 18.186 49.7778H15.8789C15.5389 49.7778 15.2129 49.6444 14.9725 49.4069C14.732 49.1694 14.597 48.8474 14.597 48.5116C14.597 48.1757 14.732 47.8537 14.9725 47.6162C15.2129 47.3787 15.5389 47.2453 15.8789 47.2453H18.186C18.5255 47.247 18.8506 47.3809 19.0907 47.618C19.3307 47.8551 19.4663 48.1762 19.468 48.5116V48.5092ZM37.5927 3.56767C43.0862 4.33634 48.162 6.89656 52.0135 10.8414C55.4482 14.532 57.6042 19.5572 57.6042 25.9801C57.6042 33.264 51.6072 43.6092 47.8111 51.128C47.639 51.4502 47.5378 51.8046 47.514 52.1681C47.4903 52.5316 47.5445 52.896 47.6733 53.2373L51.3426 63.5818C51.6008 64.3088 51.6788 65.0863 51.5702 65.8492C51.4616 66.612 51.1696 67.3381 50.7185 67.9666C50.2674 68.5951 49.6705 69.1077 48.9776 69.4615C48.2848 69.8153 47.5162 69.9999 46.7362 70H23.2562C23.0344 69.9998 22.8181 69.9317 22.637 69.8051C22.456 69.6785 22.3191 69.4996 22.2452 69.293L19.6821 62.1577C19.5693 61.8239 19.3554 61.5324 19.0694 61.3226C18.7834 61.1128 18.439 60.9949 18.0829 60.9848L9.4213 60.5912C8.5854 60.5571 7.78259 60.2592 7.13068 59.7412C6.47878 59.2233 6.01212 58.5126 5.79918 57.7134L4.46056 52.9916C4.34544 52.5004 4.35892 51.9883 4.49972 51.5038C4.64052 51.0192 4.90401 50.578 5.26531 50.2219C4.75185 49.9929 4.32015 49.6164 4.02647 49.1415C3.73278 48.6666 3.59072 48.1153 3.61882 47.5596L3.66291 44.5216L1.07546 42.3889C0.489133 41.9096 0.111665 41.2262 0.0210948 40.4798C-0.0694752 39.7334 0.133779 38.9812 0.588833 38.3787L6.95038 29.9048C5.54169 22.5991 7.30314 16.3714 11.4843 11.6752C15.4876 7.18122 21.4058 4.46211 27.613 3.52178V2.91589C27.6145 2.14299 27.9259 1.40216 28.4792 0.855634C29.0325 0.30911 29.7826 0.0014391 30.565 0H34.6407C35.4231 0.0016439 36.173 0.309381 36.7263 0.85586C37.2795 1.40234 37.5911 2.14305 37.5927 2.91589V3.56767ZM35.4447 20.4556C33.6 19.8465 31.6049 19.8465 29.7603 20.4556V2.91589C29.7617 2.70551 29.847 2.50416 29.9976 2.35539C30.1482 2.20663 30.352 2.12243 30.565 2.121H34.6407C34.8536 2.12243 35.0574 2.20666 35.2079 2.35544C35.3583 2.50423 35.4434 2.70558 35.4447 2.91589V20.4556ZM29.3028 28.8898C29.2952 29.1661 29.1788 29.4285 28.9783 29.6213C28.7777 29.8141 28.509 29.9219 28.2292 29.9219C27.9493 29.9219 27.6806 29.8141 27.4801 29.6213C27.2795 29.4285 27.1631 29.1661 27.1555 28.8898C27.1588 27.4631 27.7341 26.0959 28.7554 25.0871C29.7767 24.0783 31.1609 23.5101 32.6052 23.5068C32.8849 23.5143 33.1507 23.6293 33.3458 23.8273C33.541 24.0254 33.6502 24.2909 33.6502 24.5673C33.6502 24.8437 33.541 25.1092 33.3458 25.3072C33.1507 25.5053 32.8849 25.6203 32.6052 25.6278C31.7304 25.6311 30.8923 25.9758 30.2737 26.5868C29.6551 27.1979 29.3061 28.0257 29.3028 28.8898ZM35.9077 35.0303C35.9152 34.754 36.0317 34.4916 36.2322 34.2988C36.4327 34.106 36.7015 33.9982 36.9813 33.9982C37.2611 33.9982 37.5299 34.106 37.7304 34.2988C37.9309 34.4916 38.0474 34.754 38.055 35.0303C38.0516 36.4571 37.4764 37.8244 36.4551 38.8333C35.4339 39.8423 34.0496 40.4106 32.6052 40.4141C32.3204 40.4141 32.0472 40.3023 31.8458 40.1034C31.6444 39.9044 31.5312 39.6346 31.5312 39.3532C31.5312 39.0719 31.6444 38.802 31.8458 38.6031C32.0472 38.4041 32.3204 38.2923 32.6052 38.2923C33.4801 38.2891 34.3181 37.9443 34.9367 37.3333C35.5553 36.7223 35.9043 35.8945 35.9077 35.0303ZM32.6052 22.1192C34.42 22.126 36.1585 22.8411 37.4417 24.1086C38.725 25.3761 39.4489 27.0933 39.4558 28.8859V35.0264C39.4558 36.8217 38.7338 38.5434 37.4486 39.8129C36.1634 41.0823 34.4204 41.7954 32.6029 41.7954C30.7854 41.7954 29.0423 41.0823 27.7571 39.8129C26.472 38.5434 25.75 36.8217 25.75 35.0264V28.8882C25.7558 27.0947 26.4796 25.3762 27.7635 24.1079C29.0474 22.8396 30.7871 22.1244 32.6029 22.1184L32.6052 22.1192Z" fill="white" fill-opacity="0.5"/>
</svg>
