<svg width="60" height="60" viewBox="0 0 60 60" fill="none" xmlns="http://www.w3.org/2000/svg">
<path d="M55.3976 25.9774C54.5481 20.6139 52.0225 15.6571 48.1827 11.8173C44.3429 7.97744 39.386 5.4518 34.0225 4.60231L33.7208 6.50713C38.682 7.29291 43.2671 9.62914 46.819 13.181C50.3708 16.7328 52.707 21.3179 53.4928 26.2791L55.3976 25.9774Z" fill="#E2CC06"/>
<path d="M34.0225 55.3977C39.386 54.5482 44.3429 52.0226 48.1827 48.1828C52.0225 44.3429 54.5481 39.3861 55.3976 34.0226L53.4928 33.7209C52.707 38.6821 50.3708 43.2672 46.819 46.819C43.2671 50.3709 38.682 52.7071 33.7208 53.4929L34.0225 55.3977Z" fill="#E2CC06"/>
<path d="M25.9773 4.60231C20.6139 5.4518 15.657 7.97744 11.8172 11.8173C7.97737 15.6571 5.45172 20.6139 4.60223 25.9774L6.50706 26.2791C7.29284 21.3179 9.62906 16.7328 13.1809 13.181C16.7327 9.62913 21.3178 7.29291 26.279 6.50713L25.9773 4.60231Z" fill="#E2CC06"/>
<path d="M4.60223 34.0226C5.45172 39.3861 7.97736 44.3429 11.8172 48.1827C15.657 52.0226 20.6139 54.5482 25.9773 55.3977L26.279 53.4929C21.3178 52.7071 16.7327 50.3709 13.1809 46.819C9.62906 43.2672 7.29284 38.6821 6.50706 33.7209L4.60223 34.0226Z" fill="#E2CC06"/>
<path d="M30 0L30.6364 29.3636L60 30L30.6364 30.6364L30 60L29.3636 30.6364L0 30L29.3636 29.3636L30 0Z" fill="#EF6C0D"/>
<path d="M51.4287 30C51.4287 41.8347 41.8348 51.4286 30.0001 51.4286C18.1654 51.4286 8.57153 41.8347 8.57153 30C8.57153 18.1653 18.1654 8.57144 30.0001 8.57144C41.8348 8.57144 51.4287 18.1653 51.4287 30ZM10.1787 30C10.1787 40.9471 19.053 49.8214 30.0001 49.8214C40.9472 49.8214 49.8215 40.9471 49.8215 30C49.8215 19.0529 40.9472 10.1786 30.0001 10.1786C19.053 10.1786 10.1787 19.0529 10.1787 30Z" fill="#EF6C0D"/>
</svg>
