<svg width="221" height="60" viewBox="0 0 221 60" fill="none" xmlns="http://www.w3.org/2000/svg">
<path d="M55.3976 25.9774C54.5481 20.6139 52.0225 15.6571 48.1827 11.8173C44.3429 7.97744 39.386 5.4518 34.0225 4.60231L33.7208 6.50713C38.682 7.29291 43.2671 9.62914 46.819 13.181C50.3708 16.7328 52.707 21.3179 53.4928 26.2791L55.3976 25.9774Z" fill="#E2CC06"/>
<path d="M34.0225 55.3977C39.386 54.5482 44.3429 52.0226 48.1827 48.1828C52.0225 44.3429 54.5481 39.3861 55.3976 34.0226L53.4928 33.7209C52.707 38.6821 50.3708 43.2672 46.819 46.819C43.2671 50.3709 38.682 52.7071 33.7208 53.4929L34.0225 55.3977Z" fill="#E2CC06"/>
<path d="M25.9773 4.60231C20.6139 5.4518 15.657 7.97744 11.8172 11.8173C7.97737 15.6571 5.45172 20.6139 4.60223 25.9774L6.50706 26.2791C7.29284 21.3179 9.62906 16.7328 13.1809 13.181C16.7327 9.62913 21.3178 7.29291 26.279 6.50713L25.9773 4.60231Z" fill="#E2CC06"/>
<path d="M4.60223 34.0226C5.45172 39.3861 7.97736 44.3429 11.8172 48.1827C15.657 52.0226 20.6139 54.5482 25.9773 55.3977L26.279 53.4929C21.3178 52.7071 16.7327 50.3709 13.1809 46.819C9.62906 43.2672 7.29284 38.6821 6.50706 33.7209L4.60223 34.0226Z" fill="#E2CC06"/>
<path d="M30 0L30.6364 29.3636L60 30L30.6364 30.6364L30 60L29.3636 30.6364L0 30L29.3636 29.3636L30 0Z" fill="#EF6C0D"/>
<path d="M51.4287 30C51.4287 41.8347 41.8348 51.4286 30.0001 51.4286C18.1654 51.4286 8.57153 41.8347 8.57153 30C8.57153 18.1653 18.1654 8.57144 30.0001 8.57144C41.8348 8.57144 51.4287 18.1653 51.4287 30ZM10.1787 30C10.1787 40.9471 19.053 49.8214 30.0001 49.8214C40.9472 49.8214 49.8215 40.9471 49.8215 30C49.8215 19.0529 40.9472 10.1786 30.0001 10.1786C19.053 10.1786 10.1787 19.0529 10.1787 30Z" fill="#EF6C0D"/>
<path d="M84.52 26.12C84.056 25.144 83.384 24.392 82.504 23.864C81.624 23.32 80.6 23.048 79.432 23.048C78.264 23.048 77.208 23.32 76.264 23.864C75.336 24.392 74.6 25.16 74.056 26.168C73.528 27.16 73.264 28.312 73.264 29.624C73.264 30.936 73.528 32.088 74.056 33.08C74.6 34.072 75.336 34.84 76.264 35.384C77.208 35.912 78.264 36.176 79.432 36.176C81.064 36.176 82.408 35.688 83.464 34.712C84.52 33.736 85.136 32.416 85.312 30.752H78.64V28.976H87.64V30.656C87.512 32.032 87.08 33.296 86.344 34.448C85.608 35.584 84.64 36.488 83.44 37.16C82.24 37.816 80.904 38.144 79.432 38.144C77.88 38.144 76.464 37.784 75.184 37.064C73.904 36.328 72.888 35.312 72.136 34.016C71.4 32.72 71.032 31.256 71.032 29.624C71.032 27.992 71.4 26.528 72.136 25.232C72.888 23.92 73.904 22.904 75.184 22.184C76.464 21.448 77.88 21.08 79.432 21.08C81.208 21.08 82.776 21.52 84.136 22.4C85.512 23.28 86.512 24.52 87.136 26.12H84.52ZM103.008 30.92C103.008 31.336 102.984 31.776 102.936 32.24H92.4237C92.5037 33.536 92.9437 34.552 93.7437 35.288C94.5597 36.008 95.5437 36.368 96.6957 36.368C97.6397 36.368 98.4237 36.152 99.0477 35.72C99.6877 35.272 100.136 34.68 100.392 33.944H102.744C102.392 35.208 101.688 36.24 100.632 37.04C99.5757 37.824 98.2637 38.216 96.6957 38.216C95.4477 38.216 94.3277 37.936 93.3357 37.376C92.3597 36.816 91.5917 36.024 91.0317 35C90.4717 33.96 90.1917 32.76 90.1917 31.4C90.1917 30.04 90.4637 28.848 91.0077 27.824C91.5517 26.8 92.3117 26.016 93.2877 25.472C94.2797 24.912 95.4157 24.632 96.6957 24.632C97.9437 24.632 99.0477 24.904 100.008 25.448C100.968 25.992 101.704 26.744 102.216 27.704C102.744 28.648 103.008 29.72 103.008 30.92ZM100.752 30.464C100.752 29.632 100.568 28.92 100.2 28.328C99.8317 27.72 99.3277 27.264 98.6877 26.96C98.0637 26.64 97.3677 26.48 96.5997 26.48C95.4957 26.48 94.5517 26.832 93.7677 27.536C92.9997 28.24 92.5597 29.216 92.4477 30.464H100.752ZM112.106 38.216C110.874 38.216 109.754 37.936 108.746 37.376C107.754 36.816 106.97 36.024 106.394 35C105.834 33.96 105.554 32.76 105.554 31.4C105.554 30.056 105.842 28.872 106.418 27.848C107.01 26.808 107.81 26.016 108.818 25.472C109.826 24.912 110.954 24.632 112.202 24.632C113.45 24.632 114.578 24.912 115.586 25.472C116.595 26.016 117.386 26.8 117.962 27.824C118.554 28.848 118.85 30.04 118.85 31.4C118.85 32.76 118.546 33.96 117.938 35C117.346 36.024 116.538 36.816 115.514 37.376C114.49 37.936 113.354 38.216 112.106 38.216ZM112.106 36.296C112.89 36.296 113.626 36.112 114.314 35.744C115.002 35.376 115.554 34.824 115.97 34.088C116.402 33.352 116.618 32.456 116.618 31.4C116.618 30.344 116.41 29.448 115.994 28.712C115.578 27.976 115.034 27.432 114.362 27.08C113.69 26.712 112.962 26.528 112.178 26.528C111.378 26.528 110.642 26.712 109.97 27.08C109.314 27.432 108.786 27.976 108.386 28.712C107.986 29.448 107.786 30.344 107.786 31.4C107.786 32.472 107.978 33.376 108.362 34.112C108.762 34.848 109.29 35.4 109.946 35.768C110.602 36.12 111.322 36.296 112.106 36.296ZM121.386 31.376C121.386 30.032 121.658 28.856 122.202 27.848C122.746 26.824 123.49 26.032 124.434 25.472C125.394 24.912 126.466 24.632 127.65 24.632C128.674 24.632 129.626 24.872 130.506 25.352C131.386 25.816 132.058 26.432 132.522 27.2V20.24H134.73V38H132.522V35.528C132.09 36.312 131.45 36.96 130.602 37.472C129.754 37.968 128.762 38.216 127.626 38.216C126.458 38.216 125.394 37.928 124.434 37.352C123.49 36.776 122.746 35.968 122.202 34.928C121.658 33.888 121.386 32.704 121.386 31.376ZM132.522 31.4C132.522 30.408 132.322 29.544 131.922 28.808C131.522 28.072 130.978 27.512 130.29 27.128C129.618 26.728 128.874 26.528 128.058 26.528C127.242 26.528 126.498 26.72 125.826 27.104C125.154 27.488 124.618 28.048 124.218 28.784C123.818 29.52 123.618 30.384 123.618 31.376C123.618 32.384 123.818 33.264 124.218 34.016C124.618 34.752 125.154 35.32 125.826 35.72C126.498 36.104 127.242 36.296 128.058 36.296C128.874 36.296 129.618 36.104 130.29 35.72C130.978 35.32 131.522 34.752 131.922 34.016C132.322 33.264 132.522 32.392 132.522 31.4ZM150.901 30.92C150.901 31.336 150.877 31.776 150.829 32.24H140.317C140.397 33.536 140.837 34.552 141.637 35.288C142.453 36.008 143.437 36.368 144.589 36.368C145.533 36.368 146.317 36.152 146.941 35.72C147.581 35.272 148.029 34.68 148.285 33.944H150.637C150.285 35.208 149.581 36.24 148.525 37.04C147.469 37.824 146.157 38.216 144.589 38.216C143.341 38.216 142.221 37.936 141.229 37.376C140.253 36.816 139.485 36.024 138.925 35C138.365 33.96 138.085 32.76 138.085 31.4C138.085 30.04 138.357 28.848 138.901 27.824C139.445 26.8 140.205 26.016 141.181 25.472C142.173 24.912 143.309 24.632 144.589 24.632C145.837 24.632 146.941 24.904 147.901 25.448C148.861 25.992 149.597 26.744 150.109 27.704C150.637 28.648 150.901 29.72 150.901 30.92ZM148.645 30.464C148.645 29.632 148.461 28.92 148.093 28.328C147.725 27.72 147.221 27.264 146.581 26.96C145.957 26.64 145.261 26.48 144.493 26.48C143.389 26.48 142.445 26.832 141.661 27.536C140.893 28.24 140.453 29.216 140.341 30.464H148.645ZM159.616 26.648H156.856V38H154.672V26.648H152.968V24.848H154.672V23.912C154.672 22.44 155.048 21.368 155.8 20.696C156.568 20.008 157.792 19.664 159.472 19.664V21.488C158.512 21.488 157.832 21.68 157.432 22.064C157.048 22.432 156.856 23.048 156.856 23.912V24.848H159.616V26.648ZM163.77 22.712C163.354 22.712 163.002 22.568 162.714 22.28C162.426 21.992 162.282 21.64 162.282 21.224C162.282 20.808 162.426 20.456 162.714 20.168C163.002 19.88 163.354 19.736 163.77 19.736C164.17 19.736 164.506 19.88 164.778 20.168C165.066 20.456 165.21 20.808 165.21 21.224C165.21 21.64 165.066 21.992 164.778 22.28C164.506 22.568 164.17 22.712 163.77 22.712ZM164.826 24.848V38H162.642V24.848H164.826ZM175.436 24.608C177.036 24.608 178.332 25.096 179.324 26.072C180.316 27.032 180.812 28.424 180.812 30.248V38H178.652V30.56C178.652 29.248 178.324 28.248 177.668 27.56C177.012 26.856 176.116 26.504 174.98 26.504C173.828 26.504 172.908 26.864 172.22 27.584C171.548 28.304 171.212 29.352 171.212 30.728V38H169.028V24.848H171.212V26.72C171.644 26.048 172.228 25.528 172.964 25.16C173.716 24.792 174.54 24.608 175.436 24.608ZM196.86 30.92C196.86 31.336 196.836 31.776 196.788 32.24H186.276C186.356 33.536 186.796 34.552 187.596 35.288C188.412 36.008 189.396 36.368 190.548 36.368C191.492 36.368 192.276 36.152 192.9 35.72C193.54 35.272 193.988 34.68 194.244 33.944H196.596C196.244 35.208 195.54 36.24 194.484 37.04C193.428 37.824 192.116 38.216 190.548 38.216C189.3 38.216 188.18 37.936 187.188 37.376C186.212 36.816 185.444 36.024 184.884 35C184.324 33.96 184.044 32.76 184.044 31.4C184.044 30.04 184.316 28.848 184.86 27.824C185.404 26.8 186.164 26.016 187.14 25.472C188.132 24.912 189.268 24.632 190.548 24.632C191.796 24.632 192.9 24.904 193.86 25.448C194.82 25.992 195.556 26.744 196.068 27.704C196.596 28.648 196.86 29.72 196.86 30.92ZM194.604 30.464C194.604 29.632 194.42 28.92 194.052 28.328C193.684 27.72 193.18 27.264 192.54 26.96C191.916 26.64 191.22 26.48 190.452 26.48C189.348 26.48 188.404 26.832 187.62 27.536C186.852 28.24 186.412 29.216 186.3 30.464H194.604ZM202.407 26.984C202.791 26.232 203.335 25.648 204.039 25.232C204.759 24.816 205.631 24.608 206.655 24.608V26.864H206.079C203.631 26.864 202.407 28.192 202.407 30.848V38H200.223V24.848H202.407V26.984ZM214.312 38.216C213.304 38.216 212.4 38.048 211.6 37.712C210.8 37.36 210.168 36.88 209.704 36.272C209.24 35.648 208.984 34.936 208.936 34.136H211.192C211.256 34.792 211.56 35.328 212.104 35.744C212.664 36.16 213.392 36.368 214.288 36.368C215.12 36.368 215.776 36.184 216.256 35.816C216.736 35.448 216.976 34.984 216.976 34.424C216.976 33.848 216.72 33.424 216.208 33.152C215.696 32.864 214.904 32.584 213.832 32.312C212.856 32.056 212.056 31.8 211.432 31.544C210.824 31.272 210.296 30.88 209.848 30.368C209.416 29.84 209.2 29.152 209.2 28.304C209.2 27.632 209.4 27.016 209.8 26.456C210.2 25.896 210.768 25.456 211.504 25.136C212.24 24.8 213.08 24.632 214.024 24.632C215.48 24.632 216.656 25 217.552 25.736C218.448 26.472 218.928 27.48 218.992 28.76H216.808C216.76 28.072 216.48 27.52 215.968 27.104C215.472 26.688 214.8 26.48 213.952 26.48C213.168 26.48 212.544 26.648 212.08 26.984C211.616 27.32 211.384 27.76 211.384 28.304C211.384 28.736 211.52 29.096 211.792 29.384C212.08 29.656 212.432 29.88 212.848 30.056C213.28 30.216 213.872 30.4 214.624 30.608C215.568 30.864 216.336 31.12 216.928 31.376C217.52 31.616 218.024 31.984 218.44 32.48C218.872 32.976 219.096 33.624 219.112 34.424C219.112 35.144 218.912 35.792 218.512 36.368C218.112 36.944 217.544 37.4 216.808 37.736C216.088 38.056 215.256 38.216 214.312 38.216Z" fill="#444444"/>
</svg>
