<svg width="10" height="16" viewBox="0 0 10 16" fill="none" xmlns="http://www.w3.org/2000/svg">
<path d="M5.0001 15.0187C6.10037 15.0187 7.15556 14.5967 7.93357 13.8456C8.71157 13.0944 9.14865 12.0756 9.14865 11.0134V5.00534C9.14865 3.94306 8.71157 2.92428 7.93357 2.17314C7.15556 1.42199 6.10037 1 5.0001 1C3.89984 1 2.84464 1.42199 2.06664 2.17314C1.28864 2.92428 0.851563 3.94306 0.851563 5.00534L0.851563 11.0134C0.851563 12.0756 1.28864 13.0944 2.06664 13.8456C2.84464 14.5967 3.89984 15.0187 5.0001 15.0187ZM2.92583 5.00534C2.92583 4.4742 3.14437 3.96481 3.53337 3.58924C3.92238 3.21367 4.44997 3.00267 5.0001 3.00267C5.55024 3.00267 6.07783 3.21367 6.46684 3.58924C6.85584 3.96481 7.07438 4.4742 7.07438 5.00534V11.0134C7.07438 11.5445 6.85584 12.0539 6.46684 12.4295C6.07783 12.805 5.55024 13.016 5.0001 13.016C4.44997 13.016 3.92238 12.805 3.53337 12.4295C3.14437 12.0539 2.92583 11.5445 2.92583 11.0134L2.92583 5.00534Z" fill="#444444" stroke="white" stroke-width="0.4"/>
</svg>
