<svg width="18" height="9" viewBox="0 0 18 9" fill="none" xmlns="http://www.w3.org/2000/svg">
<path d="M16.2599 1.01469C16.1292 0.976163 15.9919 0.962972 15.8558 0.975873C15.7198 0.988773 15.5877 1.02751 15.4672 1.08986C15.3468 1.15221 15.2402 1.23694 15.1538 1.33917C15.0673 1.44141 15.0027 1.55913 14.9635 1.68558C14.5807 2.92557 13.7935 4.0131 12.719 4.78639C11.6445 5.55968 10.3402 5.97739 9 5.97739C7.65984 5.97739 6.35549 5.55968 5.281 4.78639C4.2065 4.0131 3.41929 2.92557 3.03647 1.68558C2.99731 1.55913 2.93265 1.44141 2.84621 1.33917C2.75976 1.23694 2.65324 1.15221 2.53276 1.08986C2.41228 1.02751 2.28022 0.988773 2.14418 0.975873C2.00813 0.962972 1.87079 0.976163 1.74005 1.01469C1.60908 1.05249 1.48715 1.11492 1.38126 1.19838C1.27537 1.28184 1.18761 1.38469 1.12303 1.50101C1.05845 1.61734 1.01833 1.74484 1.00497 1.87618C0.991605 2.00753 1.00527 2.14013 1.04517 2.26636C1.55368 3.92231 2.60293 5.37523 4.03647 6.40849C5.47 7.44175 7.21105 8 9 8C10.789 8 12.53 7.44175 13.9635 6.40849C15.3971 5.37523 16.4463 3.92231 16.9548 2.26636C16.9947 2.14013 17.0084 2.00753 16.995 1.87618C16.9817 1.74484 16.9415 1.61734 16.877 1.50101C16.8124 1.38469 16.7246 1.28184 16.6187 1.19838C16.5129 1.11492 16.3909 1.05249 16.2599 1.01469Z" fill="#444444" stroke="white" stroke-width="0.4"/>
</svg>
