<svg width="50" height="50" viewBox="0 0 50 50" fill="none" xmlns="http://www.w3.org/2000/svg">
<circle cx="25" cy="25" r="24" fill="#444444"/>
<circle cx="25" cy="25" r="24" fill="white" fill-opacity="0.8"/>
<path d="M48.5 25C49.3284 25 50.0047 24.3278 49.955 23.5009C49.7886 20.7305 49.1618 18.0035 48.097 15.4329C46.8406 12.3998 44.9991 9.6438 42.6777 7.32233C40.3562 5.00087 37.6002 3.15938 34.5671 1.90301C31.9965 0.838243 29.2695 0.21141 26.4991 0.044986C25.6722 -0.00468972 25 0.671573 25 1.5C25 2.32843 25.6724 2.99468 26.4989 3.05112C28.875 3.21338 31.2125 3.76068 33.419 4.67465C36.0882 5.78025 38.5135 7.40076 40.5564 9.44365C42.5992 11.4865 44.2197 13.9118 45.3253 16.581C46.2393 18.7875 46.7866 21.125 46.9489 23.5011C47.0053 24.3276 47.6716 25 48.5 25Z" fill="#444444"/>
<circle cx="25" cy="25" r="22" fill="white"/>
<path d="M23 19L29 25L23 31" stroke="#444444" stroke-width="2.5" stroke-linecap="round" stroke-linejoin="round"/>
</svg>
