<svg width="50" height="50" viewBox="0 0 50 50" fill="none" xmlns="http://www.w3.org/2000/svg">
<circle cx="25" cy="25" r="25" fill="#444444"/>
<path d="M33.9994 29.9738V32.9846C34.0005 33.2642 33.946 33.5408 33.8394 33.7969C33.7328 34.053 33.5765 34.2829 33.3804 34.4719C33.1844 34.6608 32.9529 34.8047 32.7009 34.8942C32.4489 34.9838 32.1818 35.017 31.9168 34.9919C28.9772 34.6563 26.1534 33.601 23.6725 31.9108C21.3643 30.3699 19.4073 28.3141 17.9406 25.8892C16.3261 23.271 15.3213 20.2901 15.0078 17.1879C14.9839 16.9104 15.0153 16.6307 15.0999 16.3666C15.1846 16.1025 15.3207 15.8599 15.4995 15.6541C15.6783 15.4483 15.896 15.2838 16.1386 15.1712C16.3813 15.0586 16.6436 15.0004 16.9088 15.0001H19.7748C20.2384 14.9953 20.6879 15.1678 21.0394 15.4854C21.3909 15.803 21.6205 16.244 21.6854 16.7263C21.8064 17.6898 22.0307 18.6359 22.3541 19.5464C22.4827 19.9056 22.5105 20.296 22.4343 20.6713C22.3581 21.0466 22.1811 21.3911 21.9242 21.664L20.711 22.9386C22.0709 25.4512 24.0512 27.5315 26.4429 28.9602L27.6561 27.6856C27.9159 27.4158 28.2438 27.2298 28.601 27.1498C28.9583 27.0698 29.3299 27.099 29.6718 27.234C30.5386 27.5738 31.4391 27.8095 32.3563 27.9365C32.8203 28.0053 33.2441 28.2509 33.5471 28.6265C33.8501 29.0021 34.011 29.4817 33.9994 29.9738Z" fill="white"/>
</svg>
