<svg width="287" height="60" viewBox="0 0 287 60" fill="none" xmlns="http://www.w3.org/2000/svg">
<path d="M17.3479 28.1889H31.7243V29.2143C31.7243 30.8605 31.5778 32.3742 31.2849 33.7553C30.9919 35.1364 30.5525 36.4199 29.9665 37.6057C28.6412 40.1867 26.7997 42.2026 24.442 43.6535C22.0982 45.0904 19.4824 45.8089 16.5946 45.8089C14.5717 45.8089 12.6395 45.4182 10.798 44.637C8.95647 43.8557 7.31724 42.7257 5.8803 41.2469C4.41546 39.7681 3.29939 38.094 2.53209 36.2246C1.76479 34.3412 1.38114 32.3602 1.38114 30.2815C1.38114 28.2028 1.76479 26.2288 2.53209 24.3594C3.29939 22.476 4.41546 20.7949 5.8803 19.3161C7.31724 17.8513 8.98437 16.7352 10.8817 15.9679C12.779 15.2006 14.8228 14.817 17.0131 14.817C19.2592 14.817 21.3518 15.2564 23.291 16.1353C25.2302 17.0142 27.1066 18.3744 28.9202 20.216L26.2626 22.9155C24.7698 21.3948 23.2561 20.2718 21.7215 19.5463C20.2009 18.8209 18.5896 18.4581 16.8876 18.4581C15.7575 18.4581 14.6833 18.5977 13.6649 18.8767C12.6604 19.1557 11.7327 19.5742 10.8817 20.1322C9.15178 21.2344 7.8125 22.6713 6.86384 24.4431C5.91518 26.2009 5.44085 28.1331 5.44085 30.2397C5.44085 31.8301 5.71987 33.3368 6.2779 34.7598C6.84989 36.1827 7.67299 37.4662 8.74721 38.6102C9.77957 39.6984 10.9724 40.5424 12.3256 41.1423C13.6928 41.7282 15.1158 42.0212 16.5946 42.0212C19.4685 42.0212 21.8959 41.1074 23.8769 39.2798C25.8719 37.4523 27.0717 35.0109 27.4763 31.9556H17.3479V28.1889ZM53.1947 18.8767C53.0273 18.8627 52.8529 18.8557 52.6716 18.8557C52.4902 18.8418 52.2252 18.8348 51.8764 18.8348C48.1654 18.8348 45.2288 19.6091 43.0664 21.1576C40.904 22.6922 39.5089 24.9941 38.8811 28.0633H53.1947V31.6208H38.6719C39.1741 34.9411 40.5204 37.4523 42.7107 39.1543C44.9009 40.8423 47.9004 41.6864 51.709 41.6864C52.1136 41.6864 52.4205 41.6864 52.6297 41.6864C52.839 41.6724 53.0273 41.6585 53.1947 41.6445V45.2857H52.0438C49.8256 45.2857 47.8725 45.1113 46.1844 44.7625C44.4964 44.4138 43.0804 43.8906 41.9364 43.1931C39.5368 41.7282 37.7093 39.9007 36.4537 37.7104C35.1981 35.5061 34.5703 33.0298 34.5703 30.2815C34.5703 27.5471 35.1981 25.0848 36.4537 22.8945C37.7093 20.7042 39.5368 18.8836 41.9364 17.4328C43.0804 16.7352 44.4964 16.212 46.1844 15.8633C47.8725 15.5006 49.8256 15.3192 52.0438 15.3192H53.1947V18.8767Z" fill="#444444"/>
<path d="M121.199 41.6445C121.311 41.6445 121.478 41.6515 121.702 41.6655C121.925 41.6794 122.085 41.6864 122.183 41.6864C125.908 41.6864 128.893 40.6401 131.139 38.5474C133.4 36.4409 134.53 33.6716 134.53 30.2397C134.53 26.738 133.379 23.9548 131.077 21.8901C128.775 19.8253 125.657 18.793 121.723 18.793C121.513 18.793 121.276 18.8 121.011 18.8139C120.746 18.8279 120.355 18.8488 119.839 18.8767L119.818 45.2857H115.884V15.3192H121.032C123.334 15.3192 125.308 15.4936 126.954 15.8424C128.614 16.1911 130.037 16.7213 131.223 17.4328C133.637 18.8837 135.471 20.7043 136.727 22.8945C137.982 25.0848 138.61 27.5472 138.61 30.2815C138.61 33.0159 137.948 35.5061 136.622 37.7522C135.311 39.9983 133.441 41.8399 131.014 43.2768C129.898 43.9325 128.538 44.4347 126.933 44.7835C125.329 45.1183 123.529 45.2857 121.534 45.2857H121.199V41.6445ZM160.018 18.8767C159.85 18.8627 159.676 18.8558 159.495 18.8558C159.313 18.8418 159.048 18.8348 158.699 18.8348C154.989 18.8348 152.052 19.6091 149.889 21.1577C147.727 22.6923 146.332 24.9942 145.704 28.0633H160.018V31.6208H145.495C145.997 34.9411 147.343 37.4523 149.534 39.1543C151.724 40.8424 154.723 41.6864 158.532 41.6864C158.937 41.6864 159.244 41.6864 159.453 41.6864C159.662 41.6724 159.85 41.6585 160.018 41.6445V45.2857H158.867C156.649 45.2857 154.696 45.1113 153.007 44.7626C151.319 44.4138 149.903 43.8906 148.759 43.1931C146.36 41.7282 144.532 39.9007 143.277 37.7104C142.021 35.5061 141.393 33.0299 141.393 30.2815C141.393 27.5472 142.021 25.0848 143.277 22.8945C144.532 20.7043 146.36 18.8837 148.759 17.4328C149.903 16.7352 151.319 16.2121 153.007 15.8633C154.696 15.5006 156.649 15.3192 158.867 15.3192H160.018V18.8767ZM164.182 45.2857V25.7405C164.182 22.2249 165.054 19.6091 166.798 17.8931C168.542 16.1772 171.199 15.3192 174.771 15.3192H179.04V19.0232H174.08C172.169 19.0232 170.697 19.5533 169.665 20.6136C168.632 21.6599 168.116 23.1666 168.116 25.1337V28.4819H179.04V32.1649H168.116V45.2857H164.182ZM183.853 45.2857V15.3192H187.85V45.2857H183.853ZM197.246 45.2857H193.479V19.358C193.479 17.949 193.758 16.8678 194.316 16.1144C194.888 15.3611 195.697 14.9844 196.744 14.9844C197.483 14.9844 198.146 15.2285 198.732 15.7168C199.331 16.2051 199.882 16.9584 200.385 17.9769L211.183 40.4099V15.3192H214.991V41.3516C214.991 42.7188 214.712 43.786 214.154 44.5533C213.596 45.3206 212.822 45.7042 211.831 45.7042C211.05 45.7042 210.346 45.4601 209.718 44.9718C209.104 44.4696 208.56 43.7162 208.086 42.7118L197.246 20.1323V45.2857ZM237.78 18.8767C237.613 18.8627 237.438 18.8558 237.257 18.8558C237.076 18.8418 236.81 18.8348 236.462 18.8348C232.751 18.8348 229.814 19.6091 227.652 21.1577C225.489 22.6923 224.094 24.9942 223.466 28.0633H237.78V31.6208H223.257C223.759 34.9411 225.106 37.4523 227.296 39.1543C229.486 40.8424 232.486 41.6864 236.294 41.6864C236.699 41.6864 237.006 41.6864 237.215 41.6864C237.424 41.6724 237.613 41.6585 237.78 41.6445V45.2857H236.629C234.411 45.2857 232.458 45.1113 230.77 44.7626C229.082 44.4138 227.666 43.8906 226.522 43.1931C224.122 41.7282 222.295 39.9007 221.039 37.7104C219.783 35.5061 219.156 33.0299 219.156 30.2815C219.156 27.5472 219.783 25.0848 221.039 22.8945C222.295 20.7043 224.122 18.8837 226.522 17.4328C227.666 16.7352 229.082 16.2121 230.77 15.8633C232.458 15.5006 234.411 15.3192 236.629 15.3192H237.78V18.8767ZM241.944 45.2857V26.0753C241.944 22.5737 242.809 19.8253 244.539 17.8304C246.283 15.8214 248.676 14.817 251.717 14.817C254.41 14.817 256.656 15.6331 258.455 17.2654C260.269 18.8837 261.176 20.8786 261.176 23.2503C261.176 24.6733 260.834 25.9428 260.15 27.0589C259.467 28.175 258.469 29.0957 257.158 29.8212C258.706 30.2397 259.836 31.0349 260.548 32.2068C261.259 33.3647 261.615 35.0109 261.615 37.1454V45.2857H257.66V38.6521C257.66 36.1409 257.249 34.4319 256.425 33.5251C255.616 32.6183 254.144 32.1649 252.01 32.1649H247.469V28.5237H250.985C252.924 28.5237 254.43 28.0843 255.505 27.2054C256.579 26.3265 257.116 25.0988 257.116 23.5223C257.116 22.0435 256.607 20.8368 255.588 19.9021C254.584 18.9674 253.28 18.5 251.675 18.5C249.903 18.5 248.494 19.0999 247.448 20.2997C246.402 21.4995 245.879 23.1247 245.879 25.1755V45.2857H241.944ZM264.942 45.2857V41.3097H275.175C276.808 41.3097 278.042 40.9888 278.879 40.3471C279.73 39.7054 280.156 38.7637 280.156 37.5221C280.156 36.5594 279.828 35.7224 279.172 35.0109C278.531 34.2854 277.317 33.4693 275.531 32.5625L270.509 29.9886C268.667 29.0539 267.3 27.9796 266.407 26.7659C265.514 25.5382 265.068 24.1431 265.068 22.5806C265.068 20.3346 265.884 18.5628 267.516 17.2654C269.149 15.9679 271.388 15.3192 274.234 15.3192H282.897V19.2743H272.915C271.771 19.2743 270.858 19.5673 270.174 20.1532C269.504 20.7252 269.17 21.4855 269.17 22.4342C269.17 23.2991 269.463 24.0525 270.048 24.6942C270.648 25.322 272.071 26.2149 274.317 27.3728L278.691 29.591C280.602 30.5675 282.011 31.6836 282.918 32.9392C283.839 34.1948 284.299 35.6526 284.299 37.3128C284.299 39.8379 283.434 41.798 281.704 43.1931C279.988 44.5882 277.554 45.2857 274.401 45.2857H264.942Z" fill="#444444"/>
<path d="M110.684 25.9774C109.834 20.6139 107.308 15.6571 103.469 11.8172C99.6287 7.97743 94.6719 5.45178 89.3084 4.60229L89.0067 6.50712C93.9679 7.2929 98.553 9.62912 102.105 13.181C105.657 16.7328 107.993 21.3179 108.779 26.2791L110.684 25.9774Z" fill="#E2CC06"/>
<path d="M89.3084 55.3977C94.6719 54.5482 99.6287 52.0226 103.469 48.1827C107.308 44.3429 109.834 39.3861 110.684 34.0226L108.779 33.7209C107.993 38.6821 105.657 43.2672 102.105 46.819C98.553 50.3709 93.9679 52.7071 89.0067 53.4929L89.3084 55.3977Z" fill="#E2CC06"/>
<path d="M81.2632 4.60229C75.8997 5.45178 70.9429 7.97743 67.1031 11.8172C63.2633 15.6571 60.7376 20.6139 59.8881 25.9774L61.7929 26.2791C62.5787 21.3179 64.9149 16.7328 68.4668 13.181C72.0186 9.62912 76.6037 7.2929 81.5649 6.50712L81.2632 4.60229Z" fill="#E2CC06"/>
<path d="M59.8881 34.0226C60.7376 39.3861 63.2633 44.3429 67.1031 48.1827C70.9429 52.0226 75.8997 54.5482 81.2632 55.3977L81.5649 53.4929C76.6037 52.7071 72.0186 50.3709 68.4668 46.819C64.9149 43.2672 62.5787 38.6821 61.7929 33.7209L59.8881 34.0226Z" fill="#E2CC06"/>
<path d="M85.2856 0L85.922 29.3636L115.286 30L85.922 30.6364L85.2856 60L84.6492 30.6364L55.2856 30L84.6492 29.3636L85.2856 0Z" fill="#EF6C0D"/>
<path d="M106.714 30C106.714 41.8347 97.1204 51.4286 85.2857 51.4286C73.4511 51.4286 63.8572 41.8347 63.8572 30C63.8572 18.1653 73.4511 8.57143 85.2857 8.57143C97.1204 8.57143 106.714 18.1653 106.714 30ZM65.4643 30C65.4643 40.9471 74.3387 49.8214 85.2857 49.8214C96.2328 49.8214 105.107 40.9471 105.107 30C105.107 19.0529 96.2328 10.1786 85.2857 10.1786C74.3387 10.1786 65.4643 19.0529 65.4643 30Z" fill="#EF6C0D"/>
</svg>
