<svg width="12" height="12" viewBox="0 0 12 12" fill="none" xmlns="http://www.w3.org/2000/svg">
<path d="M11.1126 0H3.88177C3.6562 0.0151157 3.4448 0.115294 3.29038 0.280253C3.13596 0.445213 3.05006 0.662627 3.05006 0.888479C3.05006 1.11433 3.13596 1.33175 3.29038 1.49671C3.4448 1.66167 3.6562 1.76184 3.88177 1.77696H8.96216L0.29232 10.4501C0.20295 10.5311 0.130981 10.6295 0.080778 10.7391C0.0305746 10.8488 0.00318284 10.9674 0.000261233 11.088C-0.00266037 11.2085 0.0189502 11.3284 0.0637827 11.4403C0.108615 11.5523 0.175735 11.6539 0.261074 11.7392C0.346414 11.8244 0.448196 11.8915 0.560248 11.9363C0.672301 11.9811 0.792291 12.0027 0.912944 11.9997C1.0336 11.9968 1.1524 11.9695 1.26215 11.9193C1.3719 11.8691 1.47032 11.7973 1.55143 11.708L10.2213 3.04679V8.12211C10.2364 8.34745 10.3367 8.55863 10.5018 8.7129C10.6669 8.86716 10.8846 8.95298 11.1106 8.95298C11.3367 8.95298 11.5543 8.86716 11.7195 8.7129C11.8846 8.55863 11.9849 8.34745 12 8.12211V0.902455C12.0003 0.785392 11.9776 0.669414 11.933 0.561154C11.8884 0.452894 11.8229 0.354477 11.7402 0.271536C11.5745 0.10272 11.3493 0.00527887 11.1126 0Z" fill="white"/>
</svg>
