<svg width="169" height="50" viewBox="0 0 169 50" fill="none" xmlns="http://www.w3.org/2000/svg">
<circle cx="89" cy="25" r="24" fill="white"/>
<path d="M89 1.5C89 0.671573 89.6722 -0.00468969 90.4991 0.0449861C93.2695 0.21141 95.9965 0.838243 98.5671 1.90301C101.6 3.15938 104.356 5.00087 106.678 7.32233C108.999 9.6438 110.841 12.3998 112.097 15.4329C113.162 18.0035 113.789 20.7305 113.955 23.5009C114.005 24.3278 113.328 25 112.5 25C111.672 25 111.005 24.3276 110.949 23.5011C110.787 21.125 110.239 18.7875 109.325 16.581C108.22 13.9118 106.599 11.4865 104.556 9.44365C102.513 7.40076 100.088 5.78025 97.419 4.67465C95.2125 3.76068 92.875 3.21338 90.4989 3.05112C89.6724 2.99468 89 2.32843 89 1.5Z" fill="#444444"/>
<circle cx="89" cy="25" r="22" fill="#444444"/>
<circle cx="89" cy="25" r="22" fill="#E2CC06"/>
<path d="M87 19L93 25L87 31" stroke="#444444" stroke-width="2.5" stroke-linecap="round" stroke-linejoin="round"/>
<circle cx="25" cy="25" r="24" fill="white"/>
<path d="M50 25C50 38.8071 38.8071 50 25 50C11.1929 50 0 38.8071 0 25C0 11.1929 11.1929 0 25 0C38.8071 0 50 11.1929 50 25ZM3 25C3 37.1503 12.8497 47 25 47C37.1503 47 47 37.1503 47 25C47 12.8497 37.1503 3 25 3C12.8497 3 3 12.8497 3 25Z" fill="#444444"/>
<circle cx="25" cy="25" r="22" fill="#444444"/>
<circle cx="25" cy="25" r="22" fill="#E2CC06"/>
<path d="M27 19L21 25L27 31" stroke="#444444" stroke-width="2.5" stroke-linecap="round" stroke-linejoin="round"/>
<path d="M144.72 21V19.336H148.048V31H146.208V21H144.72ZM156.714 15.896L152.362 33.8H150.57L154.906 15.896H156.714ZM158.549 28.568V27.192L163.925 19.48H166.133V26.984H167.621V28.568H166.133V31H164.341V28.568H158.549ZM164.421 21.336L160.645 26.984H164.421V21.336Z" fill="#444444"/>
</svg>
