<svg width="145" height="48" viewBox="0 0 145 48" fill="none" xmlns="http://www.w3.org/2000/svg">
<rect width="145" height="48" rx="24" fill="white"/>
<path d="M33.694 18.88L29.518 30H27.406L23.214 18.88H25.166L28.462 28.128L31.774 18.88H33.694ZM35.8274 20.016C35.4967 20.016 35.2194 19.904 34.9954 19.68C34.7714 19.456 34.6594 19.1787 34.6594 18.848C34.6594 18.5173 34.7714 18.24 34.9954 18.016C35.2194 17.792 35.4967 17.68 35.8274 17.68C36.1474 17.68 36.4194 17.792 36.6434 18.016C36.8674 18.24 36.9794 18.5173 36.9794 18.848C36.9794 19.1787 36.8674 19.456 36.6434 19.68C36.4194 19.904 36.1474 20.016 35.8274 20.016ZM36.7234 21.184V30H34.8994V21.184H36.7234ZM41.9981 30.144C41.3048 30.144 40.6808 30.0213 40.1261 29.776C39.5821 29.52 39.1501 29.1787 38.8301 28.752C38.5101 28.3147 38.3395 27.8293 38.3181 27.296H40.2061C40.2381 27.6693 40.4141 27.984 40.7341 28.24C41.0648 28.4853 41.4755 28.608 41.9661 28.608C42.4781 28.608 42.8728 28.512 43.1501 28.32C43.4381 28.1173 43.5821 27.8613 43.5821 27.552C43.5821 27.2213 43.4221 26.976 43.1021 26.816C42.7928 26.656 42.2968 26.48 41.6141 26.288C40.9528 26.1067 40.4141 25.9307 39.9981 25.76C39.5821 25.5893 39.2195 25.328 38.9101 24.976C38.6115 24.624 38.4621 24.16 38.4621 23.584C38.4621 23.1147 38.6008 22.688 38.8781 22.304C39.1555 21.9093 39.5501 21.6 40.0621 21.376C40.5848 21.152 41.1821 21.04 41.8541 21.04C42.8568 21.04 43.6621 21.296 44.2701 21.808C44.8888 22.3093 45.2195 22.9973 45.2621 23.872H43.4381C43.4061 23.4773 43.2461 23.1627 42.9581 22.928C42.6701 22.6933 42.2808 22.576 41.7901 22.576C41.3101 22.576 40.9421 22.6667 40.6861 22.848C40.4301 23.0293 40.3021 23.2693 40.3021 23.568C40.3021 23.8027 40.3875 24 40.5581 24.16C40.7288 24.32 40.9368 24.448 41.1821 24.544C41.4275 24.6293 41.7901 24.7413 42.2701 24.88C42.9101 25.0507 43.4328 25.2267 43.8381 25.408C44.2541 25.5787 44.6115 25.8347 44.9101 26.176C45.2088 26.5173 45.3635 26.9707 45.3741 27.536C45.3741 28.0373 45.2355 28.4853 44.9581 28.88C44.6808 29.2747 44.2861 29.584 43.7741 29.808C43.2728 30.032 42.6808 30.144 41.9981 30.144ZM47.953 20.016C47.6223 20.016 47.345 19.904 47.121 19.68C46.897 19.456 46.785 19.1787 46.785 18.848C46.785 18.5173 46.897 18.24 47.121 18.016C47.345 17.792 47.6223 17.68 47.953 17.68C48.273 17.68 48.545 17.792 48.769 18.016C48.993 18.24 49.105 18.5173 49.105 18.848C49.105 19.1787 48.993 19.456 48.769 19.68C48.545 19.904 48.273 20.016 47.953 20.016ZM48.849 21.184V30H47.025V21.184H48.849ZM53.0518 22.672V27.552C53.0518 27.8827 53.1264 28.1227 53.2758 28.272C53.4358 28.4107 53.7024 28.48 54.0758 28.48H55.1958V30H53.7558C52.9344 30 52.3051 29.808 51.8678 29.424C51.4304 29.04 51.2118 28.416 51.2118 27.552V22.672H50.1718V21.184H51.2118V18.992H53.0518V21.184H55.1958V22.672H53.0518ZM68.1691 22.192C68.1691 22.7573 68.0358 23.2907 67.7691 23.792C67.5025 24.2933 67.0758 24.704 66.4891 25.024C65.9025 25.3333 65.1505 25.488 64.2331 25.488H62.2171V30H60.3931V18.88H64.2331C65.0865 18.88 65.8065 19.0293 66.3931 19.328C66.9905 19.616 67.4331 20.0107 67.7211 20.512C68.0198 21.0133 68.1691 21.5733 68.1691 22.192ZM64.2331 24C64.9265 24 65.4438 23.8453 65.7851 23.536C66.1265 23.216 66.2971 22.768 66.2971 22.192C66.2971 20.976 65.6091 20.368 64.2331 20.368H62.2171V24H64.2331ZM71.4128 22.464C71.6794 22.016 72.0314 21.6693 72.4688 21.424C72.9168 21.168 73.4448 21.04 74.0528 21.04V22.928H73.5888C72.8741 22.928 72.3301 23.1093 71.9568 23.472C71.5941 23.8347 71.4128 24.464 71.4128 25.36V30H69.5888V21.184H71.4128V22.464ZM79.2334 30.144C78.4014 30.144 77.6494 29.9573 76.9774 29.584C76.3054 29.2 75.7774 28.6667 75.3934 27.984C75.0094 27.2907 74.8174 26.4907 74.8174 25.584C74.8174 24.688 75.0147 23.8933 75.4094 23.2C75.804 22.5067 76.3427 21.9733 77.0254 21.6C77.708 21.2267 78.4707 21.04 79.3134 21.04C80.156 21.04 80.9187 21.2267 81.6014 21.6C82.284 21.9733 82.8227 22.5067 83.2174 23.2C83.612 23.8933 83.8094 24.688 83.8094 25.584C83.8094 26.48 83.6067 27.2747 83.2014 27.968C82.796 28.6613 82.2414 29.2 81.5374 29.584C80.844 29.9573 80.076 30.144 79.2334 30.144ZM79.2334 28.56C79.7027 28.56 80.14 28.448 80.5454 28.224C80.9614 28 81.2974 27.664 81.5534 27.216C81.8094 26.768 81.9374 26.224 81.9374 25.584C81.9374 24.944 81.8147 24.4053 81.5694 23.968C81.324 23.52 80.9987 23.184 80.5934 22.96C80.188 22.736 79.7507 22.624 79.2814 22.624C78.812 22.624 78.3747 22.736 77.9694 22.96C77.5747 23.184 77.26 23.52 77.0254 23.968C76.7907 24.4053 76.6734 24.944 76.6734 25.584C76.6734 26.5333 76.9134 27.2693 77.3934 27.792C77.884 28.304 78.4974 28.56 79.2334 28.56ZM86.2205 20.016C85.8898 20.016 85.6125 19.904 85.3885 19.68C85.1645 19.456 85.0525 19.1787 85.0525 18.848C85.0525 18.5173 85.1645 18.24 85.3885 18.016C85.6125 17.792 85.8898 17.68 86.2205 17.68C86.5405 17.68 86.8125 17.792 87.0365 18.016C87.2605 18.24 87.3725 18.5173 87.3725 18.848C87.3725 19.1787 87.2605 19.456 87.0365 19.68C86.8125 19.904 86.5405 20.016 86.2205 20.016ZM87.1165 31.728C87.1165 32.592 86.8978 33.216 86.4605 33.6C86.0338 33.9947 85.4098 34.192 84.5885 34.192H83.6445V32.656H84.2685C84.6418 32.656 84.9032 32.5813 85.0525 32.432C85.2125 32.2933 85.2925 32.0587 85.2925 31.728V21.184H87.1165V31.728ZM97.2713 25.376C97.2713 25.7067 97.2499 26.0053 97.2073 26.272H90.4713C90.5246 26.976 90.7859 27.5413 91.2553 27.968C91.7246 28.3947 92.3006 28.608 92.9833 28.608C93.9646 28.608 94.6579 28.1973 95.0633 27.376H97.0313C96.7646 28.1867 96.2793 28.8533 95.5753 29.376C94.8819 29.888 94.0179 30.144 92.9833 30.144C92.1406 30.144 91.3833 29.9573 90.7113 29.584C90.0499 29.2 89.5273 28.6667 89.1433 27.984C88.7699 27.2907 88.5833 26.4907 88.5833 25.584C88.5833 24.6773 88.7646 23.8827 89.1273 23.2C89.5006 22.5067 90.0179 21.9733 90.6793 21.6C91.3513 21.2267 92.1193 21.04 92.9833 21.04C93.8153 21.04 94.5566 21.2213 95.2073 21.584C95.8579 21.9467 96.3646 22.4587 96.7273 23.12C97.0899 23.7707 97.2713 24.5227 97.2713 25.376ZM95.3673 24.8C95.3566 24.128 95.1166 23.5893 94.6473 23.184C94.1779 22.7787 93.5966 22.576 92.9033 22.576C92.2739 22.576 91.7353 22.7787 91.2873 23.184C90.8393 23.5787 90.5726 24.1173 90.4873 24.8H95.3673ZM98.1383 25.584C98.1383 24.6773 98.3196 23.8827 98.6823 23.2C99.0556 22.5067 99.5676 21.9733 100.218 21.6C100.869 21.2267 101.616 21.04 102.458 21.04C103.525 21.04 104.405 21.296 105.098 21.808C105.802 22.3093 106.277 23.0293 106.522 23.968H104.554C104.394 23.5307 104.138 23.1893 103.786 22.944C103.434 22.6987 102.992 22.576 102.458 22.576C101.712 22.576 101.114 22.8427 100.666 23.376C100.229 23.8987 100.01 24.6347 100.01 25.584C100.01 26.5333 100.229 27.2747 100.666 27.808C101.114 28.3413 101.712 28.608 102.458 28.608C103.514 28.608 104.213 28.144 104.554 27.216H106.522C106.266 28.112 105.786 28.8267 105.082 29.36C104.378 29.8827 103.504 30.144 102.458 30.144C101.616 30.144 100.869 29.9573 100.218 29.584C99.5676 29.2 99.0556 28.6667 98.6823 27.984C98.3196 27.2907 98.1383 26.4907 98.1383 25.584ZM110.148 22.672V27.552C110.148 27.8827 110.223 28.1227 110.372 28.272C110.532 28.4107 110.799 28.48 111.172 28.48H112.292V30H110.852C110.031 30 109.401 29.808 108.964 29.424C108.527 29.04 108.308 28.416 108.308 27.552V22.672H107.268V21.184H108.308V18.992H110.148V21.184H112.292V22.672H110.148ZM116.853 30.144C116.16 30.144 115.536 30.0213 114.981 29.776C114.437 29.52 114.005 29.1787 113.685 28.752C113.365 28.3147 113.194 27.8293 113.173 27.296H115.061C115.093 27.6693 115.269 27.984 115.589 28.24C115.92 28.4853 116.33 28.608 116.821 28.608C117.333 28.608 117.728 28.512 118.005 28.32C118.293 28.1173 118.437 27.8613 118.437 27.552C118.437 27.2213 118.277 26.976 117.957 26.816C117.648 26.656 117.152 26.48 116.469 26.288C115.808 26.1067 115.269 25.9307 114.853 25.76C114.437 25.5893 114.074 25.328 113.765 24.976C113.466 24.624 113.317 24.16 113.317 23.584C113.317 23.1147 113.456 22.688 113.733 22.304C114.01 21.9093 114.405 21.6 114.917 21.376C115.44 21.152 116.037 21.04 116.709 21.04C117.712 21.04 118.517 21.296 119.125 21.808C119.744 22.3093 120.074 22.9973 120.117 23.872H118.293C118.261 23.4773 118.101 23.1627 117.813 22.928C117.525 22.6933 117.136 22.576 116.645 22.576C116.165 22.576 115.797 22.6667 115.541 22.848C115.285 23.0293 115.157 23.2693 115.157 23.568C115.157 23.8027 115.242 24 115.413 24.16C115.584 24.32 115.792 24.448 116.037 24.544C116.282 24.6293 116.645 24.7413 117.125 24.88C117.765 25.0507 118.288 25.2267 118.693 25.408C119.109 25.5787 119.466 25.8347 119.765 26.176C120.064 26.5173 120.218 26.9707 120.229 27.536C120.229 28.0373 120.09 28.4853 119.813 28.88C119.536 29.2747 119.141 29.584 118.629 29.808C118.128 30.032 117.536 30.144 116.853 30.144Z" fill="#444444"/>
</svg>
