<svg width="50" height="50" viewBox="0 0 50 50" fill="none" xmlns="http://www.w3.org/2000/svg">
<circle cx="25" cy="25" r="24" fill="#444444"/>
<circle cx="25" cy="25" r="24" fill="white" fill-opacity="0.8"/>
<path d="M25 1.5C25 0.671573 25.6722 -0.00469033 26.4991 0.0449841C29.9267 0.250878 33.2808 1.1611 36.3498 2.72484C39.4188 4.28858 42.1266 6.46707 44.3079 9.11899C44.8341 9.7588 44.6821 10.7001 44.0119 11.187C43.3417 11.674 42.4075 11.5216 41.876 10.8862C39.9767 8.61508 37.6349 6.74661 34.9878 5.39786C32.3407 4.0491 29.4526 3.25282 26.4989 3.05112C25.6724 2.99468 25 2.32843 25 1.5Z" fill="#444444"/>
<circle cx="25" cy="25" r="22" fill="#444444"/>
<circle cx="25" cy="25" r="22" fill="white" fill-opacity="0.95"/>
<path d="M27 19L21 25L27 31" stroke="#444444" stroke-width="2.5" stroke-linecap="round" stroke-linejoin="round"/>
</svg>
