<svg width="50" height="50" viewBox="0 0 50 50" fill="none" xmlns="http://www.w3.org/2000/svg">
<circle cx="25" cy="25" r="24" fill="#444444"/>
<circle cx="25" cy="25" r="24" fill="white" fill-opacity="0.8"/>
<path d="M25 1.5C25 0.671573 25.6722 -0.00469052 26.4992 0.0449806C30.8506 0.306353 35.0676 1.70196 38.7256 4.10482C42.8024 6.78276 46.0067 10.5948 47.9439 15.0713C49.881 19.5478 50.4663 24.4932 49.6277 29.2982C48.8753 33.6097 47.0059 37.6391 44.2177 40.99C43.6878 41.6269 42.7347 41.654 42.1308 41.0869C41.5269 40.5198 41.5015 39.5735 42.0261 38.9324C44.4164 36.0114 46.0206 32.5171 46.6724 28.7824C47.4104 24.554 46.8953 20.2021 45.1906 16.2627C43.4859 12.3234 40.6661 8.96883 37.0785 6.61224C33.9098 4.53081 30.2645 3.30823 26.4989 3.05111C25.6724 2.99467 25 2.32843 25 1.5Z" fill="#444444"/>
<circle cx="25" cy="25" r="22" fill="#444444"/>
<circle cx="25" cy="25" r="22" fill="white" fill-opacity="0.95"/>
<path d="M27 19L21 25L27 31" stroke="#444444" stroke-width="2.5" stroke-linecap="round" stroke-linejoin="round"/>
</svg>
