<svg width="280" height="280" viewBox="0 0 280 280" fill="none" xmlns="http://www.w3.org/2000/svg">
<path fill-rule="evenodd" clip-rule="evenodd" d="M280 30C280 13.4315 266.569 0 250 0H30C13.4315 0 0 13.4315 0 30V250C0 266.569 13.4315 280 30 280H159.5C176.069 280 189.5 266.569 189.5 250V218C189.5 201.431 202.931 188 219.5 188H260C271.046 188 280 179.046 280 168V30Z" fill="#444444"/>
<path fill-rule="evenodd" clip-rule="evenodd" d="M280 30C280 13.4315 266.569 0 250 0H30C13.4315 0 0 13.4315 0 30V250C0 266.569 13.4315 280 30 280H159.5C176.069 280 189.5 266.569 189.5 250V218C189.5 201.431 202.931 188 219.5 188H260C271.046 188 280 179.046 280 168V30Z" fill="white" fill-opacity="0.95"/>
<path d="M44.8 87.1L40.2 95.96V101H37.92V95.96L33.3 87.1H35.84L39.06 93.92L42.28 87.1H44.8ZM51.3894 101.18C50.3494 101.18 49.4094 100.947 48.5694 100.48C47.7294 100 47.0694 99.3333 46.5894 98.48C46.1094 97.6133 45.8694 96.6133 45.8694 95.48C45.8694 94.36 46.116 93.3667 46.6094 92.5C47.1027 91.6333 47.776 90.9667 48.6294 90.5C49.4827 90.0333 50.436 89.8 51.4894 89.8C52.5427 89.8 53.496 90.0333 54.3494 90.5C55.2027 90.9667 55.876 91.6333 56.3694 92.5C56.8627 93.3667 57.1094 94.36 57.1094 95.48C57.1094 96.6 56.856 97.5933 56.3494 98.46C55.8427 99.3267 55.1494 100 54.2694 100.48C53.4027 100.947 52.4427 101.18 51.3894 101.18ZM51.3894 99.2C51.976 99.2 52.5227 99.06 53.0294 98.78C53.5494 98.5 53.9694 98.08 54.2894 97.52C54.6094 96.96 54.7694 96.28 54.7694 95.48C54.7694 94.68 54.616 94.0067 54.3094 93.46C54.0027 92.9 53.596 92.48 53.0894 92.2C52.5827 91.92 52.036 91.78 51.4494 91.78C50.8627 91.78 50.316 91.92 49.8094 92.2C49.316 92.48 48.9227 92.9 48.6294 93.46C48.336 94.0067 48.1894 94.68 48.1894 95.48C48.1894 96.6667 48.4894 97.5867 49.0894 98.24C49.7027 98.88 50.4694 99.2 51.3894 99.2ZM69.3433 89.98V101H67.0633V99.7C66.7033 100.153 66.2299 100.513 65.6433 100.78C65.0699 101.033 64.4566 101.16 63.8033 101.16C62.9366 101.16 62.1566 100.98 61.4633 100.62C60.7833 100.26 60.2433 99.7267 59.8433 99.02C59.4566 98.3133 59.2633 97.46 59.2633 96.46V89.98H61.5233V96.12C61.5233 97.1067 61.7699 97.8667 62.2633 98.4C62.7566 98.92 63.4299 99.18 64.2833 99.18C65.1366 99.18 65.8099 98.92 66.3033 98.4C66.8099 97.8667 67.0633 97.1067 67.0633 96.12V89.98H69.3433ZM74.6316 91.58C74.9649 91.02 75.4049 90.5867 75.9516 90.28C76.5116 89.96 77.1716 89.8 77.9316 89.8V92.16H77.3516C76.4582 92.16 75.7782 92.3867 75.3116 92.84C74.8582 93.2933 74.6316 94.08 74.6316 95.2V101H72.3516V89.98H74.6316V91.58ZM84.4627 95.44C84.4627 94.3333 84.6893 93.3533 85.1427 92.5C85.6093 91.6467 86.236 90.9867 87.0227 90.52C87.8227 90.04 88.7093 89.8 89.6827 89.8C90.4027 89.8 91.1093 89.96 91.8027 90.28C92.5093 90.5867 93.0693 91 93.4827 91.52V86.2H95.7827V101H93.4827V99.34C93.1093 99.8733 92.5893 100.313 91.9227 100.66C91.2693 101.007 90.516 101.18 89.6627 101.18C88.7027 101.18 87.8227 100.94 87.0227 100.46C86.236 99.9667 85.6093 99.2867 85.1427 98.42C84.6893 97.54 84.4627 96.5467 84.4627 95.44ZM93.4827 95.48C93.4827 94.72 93.3227 94.06 93.0027 93.5C92.696 92.94 92.2893 92.5133 91.7827 92.22C91.276 91.9267 90.7293 91.78 90.1427 91.78C89.556 91.78 89.0093 91.9267 88.5027 92.22C87.996 92.5 87.5827 92.92 87.2627 93.48C86.956 94.0267 86.8027 94.68 86.8027 95.44C86.8027 96.2 86.956 96.8667 87.2627 97.44C87.5827 98.0133 87.996 98.4533 88.5027 98.76C89.0227 99.0533 89.5693 99.2 90.1427 99.2C90.7293 99.2 91.276 99.0533 91.7827 98.76C92.2893 98.4667 92.696 98.04 93.0027 97.48C93.3227 96.9067 93.4827 96.24 93.4827 95.48ZM98.0173 95.44C98.0173 94.3333 98.244 93.3533 98.6973 92.5C99.164 91.6467 99.7907 90.9867 100.577 90.52C101.377 90.04 102.257 89.8 103.217 89.8C104.084 89.8 104.837 89.9733 105.477 90.32C106.131 90.6533 106.651 91.0733 107.037 91.58V89.98H109.337V101H107.037V99.36C106.651 99.88 106.124 100.313 105.457 100.66C104.791 101.007 104.031 101.18 103.177 101.18C102.231 101.18 101.364 100.94 100.577 100.46C99.7907 99.9667 99.164 99.2867 98.6973 98.42C98.244 97.54 98.0173 96.5467 98.0173 95.44ZM107.037 95.48C107.037 94.72 106.877 94.06 106.557 93.5C106.251 92.94 105.844 92.5133 105.337 92.22C104.831 91.9267 104.284 91.78 103.697 91.78C103.111 91.78 102.564 91.9267 102.057 92.22C101.551 92.5 101.137 92.92 100.817 93.48C100.511 94.0267 100.357 94.68 100.357 95.44C100.357 96.2 100.511 96.8667 100.817 97.44C101.137 98.0133 101.551 98.4533 102.057 98.76C102.577 99.0533 103.124 99.2 103.697 99.2C104.284 99.2 104.831 99.0533 105.337 98.76C105.844 98.4667 106.251 98.04 106.557 97.48C106.877 96.9067 107.037 96.24 107.037 95.48ZM114.992 91.84V97.94C114.992 98.3533 115.085 98.6533 115.272 98.84C115.472 99.0133 115.805 99.1 116.272 99.1H117.672V101H115.872C114.845 101 114.059 100.76 113.512 100.28C112.965 99.8 112.692 99.02 112.692 97.94V91.84H111.392V89.98H112.692V87.24H114.992V89.98H117.672V91.84H114.992ZM119.013 95.44C119.013 94.3333 119.24 93.3533 119.693 92.5C120.16 91.6467 120.787 90.9867 121.573 90.52C122.373 90.04 123.253 89.8 124.213 89.8C125.08 89.8 125.833 89.9733 126.473 90.32C127.127 90.6533 127.647 91.0733 128.033 91.58V89.98H130.333V101H128.033V99.36C127.647 99.88 127.12 100.313 126.453 100.66C125.787 101.007 125.027 101.18 124.173 101.18C123.227 101.18 122.36 100.94 121.573 100.46C120.787 99.9667 120.16 99.2867 119.693 98.42C119.24 97.54 119.013 96.5467 119.013 95.44ZM128.033 95.48C128.033 94.72 127.873 94.06 127.553 93.5C127.247 92.94 126.84 92.5133 126.333 92.22C125.827 91.9267 125.28 91.78 124.693 91.78C124.107 91.78 123.56 91.9267 123.053 92.22C122.547 92.5 122.133 92.92 121.813 93.48C121.507 94.0267 121.353 94.68 121.353 95.44C121.353 96.2 121.507 96.8667 121.813 97.44C122.133 98.0133 122.547 98.4533 123.053 98.76C123.573 99.0533 124.12 99.2 124.693 99.2C125.28 99.2 125.827 99.0533 126.333 98.76C126.84 98.4667 127.247 98.04 127.553 97.48C127.873 96.9067 128.033 96.24 128.033 95.48ZM140.803 91.6C141.19 91.0933 141.717 90.6667 142.383 90.32C143.05 89.9733 143.803 89.8 144.643 89.8C145.603 89.8 146.477 90.04 147.263 90.52C148.063 90.9867 148.69 91.6467 149.143 92.5C149.597 93.3533 149.823 94.3333 149.823 95.44C149.823 96.5467 149.597 97.54 149.143 98.42C148.69 99.2867 148.063 99.9667 147.263 100.46C146.477 100.94 145.603 101.18 144.643 101.18C143.803 101.18 143.057 101.013 142.403 100.68C141.75 100.333 141.217 99.9067 140.803 99.4V106.24H138.523V89.98H140.803V91.6ZM147.503 95.44C147.503 94.68 147.343 94.0267 147.023 93.48C146.717 92.92 146.303 92.5 145.783 92.22C145.277 91.9267 144.73 91.78 144.143 91.78C143.57 91.78 143.023 91.9267 142.503 92.22C141.997 92.5133 141.583 92.94 141.263 93.5C140.957 94.06 140.803 94.72 140.803 95.48C140.803 96.24 140.957 96.9067 141.263 97.48C141.583 98.04 141.997 98.4667 142.503 98.76C143.023 99.0533 143.57 99.2 144.143 99.2C144.73 99.2 145.277 99.0533 145.783 98.76C146.303 98.4533 146.717 98.0133 147.023 97.44C147.343 96.8667 147.503 96.2 147.503 95.44ZM154.358 91.58C154.691 91.02 155.131 90.5867 155.678 90.28C156.238 89.96 156.898 89.8 157.658 89.8V92.16H157.078C156.185 92.16 155.505 92.3867 155.038 92.84C154.585 93.2933 154.358 94.08 154.358 95.2V101H152.078V89.98H154.358V91.58ZM160.914 88.52C160.501 88.52 160.154 88.38 159.874 88.1C159.594 87.82 159.454 87.4733 159.454 87.06C159.454 86.6467 159.594 86.3 159.874 86.02C160.154 85.74 160.501 85.6 160.914 85.6C161.314 85.6 161.654 85.74 161.934 86.02C162.214 86.3 162.354 86.6467 162.354 87.06C162.354 87.4733 162.214 87.82 161.934 88.1C161.654 88.38 161.314 88.52 160.914 88.52ZM162.034 89.98V101H159.754V89.98H162.034ZM169.287 98.96L172.407 89.98H174.827L170.627 101H167.907L163.727 89.98H166.167L169.287 98.96ZM175.791 95.44C175.791 94.3333 176.017 93.3533 176.471 92.5C176.937 91.6467 177.564 90.9867 178.351 90.52C179.151 90.04 180.031 89.8 180.991 89.8C181.857 89.8 182.611 89.9733 183.251 90.32C183.904 90.6533 184.424 91.0733 184.811 91.58V89.98H187.111V101H184.811V99.36C184.424 99.88 183.897 100.313 183.231 100.66C182.564 101.007 181.804 101.18 180.951 101.18C180.004 101.18 179.137 100.94 178.351 100.46C177.564 99.9667 176.937 99.2867 176.471 98.42C176.017 97.54 175.791 96.5467 175.791 95.44ZM184.811 95.48C184.811 94.72 184.651 94.06 184.331 93.5C184.024 92.94 183.617 92.5133 183.111 92.22C182.604 91.9267 182.057 91.78 181.471 91.78C180.884 91.78 180.337 91.9267 179.831 92.22C179.324 92.5 178.911 92.92 178.591 93.48C178.284 94.0267 178.131 94.68 178.131 95.44C178.131 96.2 178.284 96.8667 178.591 97.44C178.911 98.0133 179.324 98.4533 179.831 98.76C180.351 99.0533 180.897 99.2 181.471 99.2C182.057 99.2 182.604 99.0533 183.111 98.76C183.617 98.4667 184.024 98.04 184.331 97.48C184.651 96.9067 184.811 96.24 184.811 95.48ZM189.345 95.48C189.345 94.3467 189.572 93.3533 190.025 92.5C190.492 91.6333 191.132 90.9667 191.945 90.5C192.759 90.0333 193.692 89.8 194.745 89.8C196.079 89.8 197.179 90.12 198.045 90.76C198.925 91.3867 199.519 92.2867 199.825 93.46H197.365C197.165 92.9133 196.845 92.4867 196.405 92.18C195.965 91.8733 195.412 91.72 194.745 91.72C193.812 91.72 193.065 92.0533 192.505 92.72C191.959 93.3733 191.685 94.2933 191.685 95.48C191.685 96.6667 191.959 97.5933 192.505 98.26C193.065 98.9267 193.812 99.26 194.745 99.26C196.065 99.26 196.939 98.68 197.365 97.52H199.825C199.505 98.64 198.905 99.5333 198.025 100.2C197.145 100.853 196.052 101.18 194.745 101.18C193.692 101.18 192.759 100.947 191.945 100.48C191.132 100 190.492 99.3333 190.025 98.48C189.572 97.6133 189.345 96.6133 189.345 95.48ZM212.018 89.98L205.258 106.18H202.898L205.138 100.82L200.798 89.98H203.338L206.438 98.38L209.658 89.98H212.018ZM33.74 127.44C33.74 126.333 33.9667 125.353 34.42 124.5C34.8867 123.647 35.5133 122.987 36.3 122.52C37.1 122.04 37.98 121.8 38.94 121.8C39.8067 121.8 40.56 121.973 41.2 122.32C41.8533 122.653 42.3733 123.073 42.76 123.58V121.98H45.06V133H42.76V131.36C42.3733 131.88 41.8467 132.313 41.18 132.66C40.5133 133.007 39.7533 133.18 38.9 133.18C37.9533 133.18 37.0867 132.94 36.3 132.46C35.5133 131.967 34.8867 131.287 34.42 130.42C33.9667 129.54 33.74 128.547 33.74 127.44ZM42.76 127.48C42.76 126.72 42.6 126.06 42.28 125.5C41.9733 124.94 41.5667 124.513 41.06 124.22C40.5533 123.927 40.0067 123.78 39.42 123.78C38.8333 123.78 38.2867 123.927 37.78 124.22C37.2733 124.5 36.86 124.92 36.54 125.48C36.2333 126.027 36.08 126.68 36.08 127.44C36.08 128.2 36.2333 128.867 36.54 129.44C36.86 130.013 37.2733 130.453 37.78 130.76C38.3 131.053 38.8467 131.2 39.42 131.2C40.0067 131.2 40.5533 131.053 41.06 130.76C41.5667 130.467 41.9733 130.04 42.28 129.48C42.6 128.907 42.76 128.24 42.76 127.48ZM53.6147 121.8C54.4814 121.8 55.2547 121.98 55.9347 122.34C56.628 122.7 57.168 123.233 57.5547 123.94C57.9414 124.647 58.1347 125.5 58.1347 126.5V133H55.8747V126.84C55.8747 125.853 55.628 125.1 55.1347 124.58C54.6414 124.047 53.968 123.78 53.1147 123.78C52.2614 123.78 51.5814 124.047 51.0747 124.58C50.5814 125.1 50.3347 125.853 50.3347 126.84V133H48.0547V121.98H50.3347V123.24C50.708 122.787 51.1814 122.433 51.7547 122.18C52.3414 121.927 52.9614 121.8 53.6147 121.8ZM60.283 127.44C60.283 126.333 60.5096 125.353 60.963 124.5C61.4296 123.647 62.0563 122.987 62.843 122.52C63.643 122.04 64.5296 121.8 65.503 121.8C66.223 121.8 66.9296 121.96 67.623 122.28C68.3296 122.587 68.8896 123 69.303 123.52V118.2H71.603V133H69.303V131.34C68.9296 131.873 68.4096 132.313 67.743 132.66C67.0896 133.007 66.3363 133.18 65.483 133.18C64.523 133.18 63.643 132.94 62.843 132.46C62.0563 131.967 61.4296 131.287 60.963 130.42C60.5096 129.54 60.283 128.547 60.283 127.44ZM69.303 127.48C69.303 126.72 69.143 126.06 68.823 125.5C68.5163 124.94 68.1096 124.513 67.603 124.22C67.0963 123.927 66.5496 123.78 65.963 123.78C65.3763 123.78 64.8296 123.927 64.323 124.22C63.8163 124.5 63.403 124.92 63.083 125.48C62.7763 126.027 62.623 126.68 62.623 127.44C62.623 128.2 62.7763 128.867 63.083 129.44C63.403 130.013 63.8163 130.453 64.323 130.76C64.843 131.053 65.3896 131.2 65.963 131.2C66.5496 131.2 67.0963 131.053 67.603 130.76C68.1096 130.467 68.5163 130.04 68.823 129.48C69.143 128.907 69.303 128.24 69.303 127.48ZM79.033 127.48C79.033 126.347 79.2596 125.353 79.713 124.5C80.1796 123.633 80.8196 122.967 81.633 122.5C82.4463 122.033 83.3796 121.8 84.433 121.8C85.7663 121.8 86.8663 122.12 87.733 122.76C88.613 123.387 89.2063 124.287 89.513 125.46H87.053C86.853 124.913 86.533 124.487 86.093 124.18C85.653 123.873 85.0996 123.72 84.433 123.72C83.4996 123.72 82.753 124.053 82.193 124.72C81.6463 125.373 81.373 126.293 81.373 127.48C81.373 128.667 81.6463 129.593 82.193 130.26C82.753 130.927 83.4996 131.26 84.433 131.26C85.753 131.26 86.6263 130.68 87.053 129.52H89.513C89.193 130.64 88.593 131.533 87.713 132.2C86.833 132.853 85.7396 133.18 84.433 133.18C83.3796 133.18 82.4463 132.947 81.633 132.48C80.8196 132 80.1796 131.333 79.713 130.48C79.2596 129.613 79.033 128.613 79.033 127.48ZM96.5652 133.18C95.5252 133.18 94.5852 132.947 93.7452 132.48C92.9052 132 92.2452 131.333 91.7652 130.48C91.2852 129.613 91.0452 128.613 91.0452 127.48C91.0452 126.36 91.2918 125.367 91.7852 124.5C92.2785 123.633 92.9518 122.967 93.8052 122.5C94.6585 122.033 95.6118 121.8 96.6652 121.8C97.7185 121.8 98.6718 122.033 99.5252 122.5C100.378 122.967 101.052 123.633 101.545 124.5C102.038 125.367 102.285 126.36 102.285 127.48C102.285 128.6 102.032 129.593 101.525 130.46C101.018 131.327 100.325 132 99.4452 132.48C98.5785 132.947 97.6185 133.18 96.5652 133.18ZM96.5652 131.2C97.1518 131.2 97.6985 131.06 98.2052 130.78C98.7252 130.5 99.1452 130.08 99.4652 129.52C99.7852 128.96 99.9452 128.28 99.9452 127.48C99.9452 126.68 99.7918 126.007 99.4852 125.46C99.1785 124.9 98.7718 124.48 98.2652 124.2C97.7585 123.92 97.2118 123.78 96.6252 123.78C96.0385 123.78 95.4918 123.92 94.9852 124.2C94.4918 124.48 94.0985 124.9 93.8052 125.46C93.5118 126.007 93.3652 126.68 93.3652 127.48C93.3652 128.667 93.6652 129.587 94.2652 130.24C94.8785 130.88 95.6452 131.2 96.5652 131.2ZM110.099 121.8C110.966 121.8 111.739 121.98 112.419 122.34C113.112 122.7 113.652 123.233 114.039 123.94C114.426 124.647 114.619 125.5 114.619 126.5V133H112.359V126.84C112.359 125.853 112.112 125.1 111.619 124.58C111.126 124.047 110.452 123.78 109.599 123.78C108.746 123.78 108.066 124.047 107.559 124.58C107.066 125.1 106.819 125.853 106.819 126.84V133H104.539V121.98H106.819V123.24C107.192 122.787 107.666 122.433 108.239 122.18C108.826 121.927 109.446 121.8 110.099 121.8ZM122.147 123.84H120.107V133H117.807V123.84H116.507V121.98H117.807V121.2C117.807 119.933 118.141 119.013 118.807 118.44C119.487 117.853 120.547 117.56 121.987 117.56V119.46C121.294 119.46 120.807 119.593 120.527 119.86C120.247 120.113 120.107 120.56 120.107 121.2V121.98H122.147V123.84ZM125.328 120.52C124.915 120.52 124.568 120.38 124.288 120.1C124.008 119.82 123.868 119.473 123.868 119.06C123.868 118.647 124.008 118.3 124.288 118.02C124.568 117.74 124.915 117.6 125.328 117.6C125.728 117.6 126.068 117.74 126.348 118.02C126.628 118.3 126.768 118.647 126.768 119.06C126.768 119.473 126.628 119.82 126.348 120.1C126.068 120.38 125.728 120.52 125.328 120.52ZM126.448 121.98V133H124.168V121.98H126.448ZM128.681 127.44C128.681 126.333 128.908 125.353 129.361 124.5C129.828 123.647 130.455 122.987 131.241 122.52C132.041 122.04 132.928 121.8 133.901 121.8C134.621 121.8 135.328 121.96 136.021 122.28C136.728 122.587 137.288 123 137.701 123.52V118.2H140.001V133H137.701V131.34C137.328 131.873 136.808 132.313 136.141 132.66C135.488 133.007 134.735 133.18 133.881 133.18C132.921 133.18 132.041 132.94 131.241 132.46C130.455 131.967 129.828 131.287 129.361 130.42C128.908 129.54 128.681 128.547 128.681 127.44ZM137.701 127.48C137.701 126.72 137.541 126.06 137.221 125.5C136.915 124.94 136.508 124.513 136.001 124.22C135.495 123.927 134.948 123.78 134.361 123.78C133.775 123.78 133.228 123.927 132.721 124.22C132.215 124.5 131.801 124.92 131.481 125.48C131.175 126.027 131.021 126.68 131.021 127.44C131.021 128.2 131.175 128.867 131.481 129.44C131.801 130.013 132.215 130.453 132.721 130.76C133.241 131.053 133.788 131.2 134.361 131.2C134.948 131.2 135.495 131.053 136.001 130.76C136.508 130.467 136.915 130.04 137.221 129.48C137.541 128.907 137.701 128.24 137.701 127.48ZM153.096 127.22C153.096 127.633 153.069 128.007 153.016 128.34H144.596C144.663 129.22 144.989 129.927 145.576 130.46C146.163 130.993 146.883 131.26 147.736 131.26C148.963 131.26 149.829 130.747 150.336 129.72H152.796C152.463 130.733 151.856 131.567 150.976 132.22C150.109 132.86 149.029 133.18 147.736 133.18C146.683 133.18 145.736 132.947 144.896 132.48C144.069 132 143.416 131.333 142.936 130.48C142.469 129.613 142.236 128.613 142.236 127.48C142.236 126.347 142.463 125.353 142.916 124.5C143.383 123.633 144.029 122.967 144.856 122.5C145.696 122.033 146.656 121.8 147.736 121.8C148.776 121.8 149.703 122.027 150.516 122.48C151.329 122.933 151.963 123.573 152.416 124.4C152.869 125.213 153.096 126.153 153.096 127.22ZM150.716 126.5C150.703 125.66 150.403 124.987 149.816 124.48C149.229 123.973 148.503 123.72 147.636 123.72C146.849 123.72 146.176 123.973 145.616 124.48C145.056 124.973 144.723 125.647 144.616 126.5H150.716ZM160.9 121.8C161.767 121.8 162.54 121.98 163.22 122.34C163.913 122.7 164.453 123.233 164.84 123.94C165.227 124.647 165.42 125.5 165.42 126.5V133H163.16V126.84C163.16 125.853 162.913 125.1 162.42 124.58C161.927 124.047 161.253 123.78 160.4 123.78C159.547 123.78 158.867 124.047 158.36 124.58C157.867 125.1 157.62 125.853 157.62 126.84V133H155.34V121.98H157.62V123.24C157.993 122.787 158.467 122.433 159.04 122.18C159.627 121.927 160.247 121.8 160.9 121.8ZM170.988 123.84V129.94C170.988 130.353 171.081 130.653 171.268 130.84C171.468 131.013 171.801 131.1 172.268 131.1H173.668V133H171.868C170.841 133 170.055 132.76 169.508 132.28C168.961 131.8 168.688 131.02 168.688 129.94V123.84H167.388V121.98H168.688V119.24H170.988V121.98H173.668V123.84H170.988ZM176.93 120.52C176.516 120.52 176.17 120.38 175.89 120.1C175.61 119.82 175.47 119.473 175.47 119.06C175.47 118.647 175.61 118.3 175.89 118.02C176.17 117.74 176.516 117.6 176.93 117.6C177.33 117.6 177.67 117.74 177.95 118.02C178.23 118.3 178.37 118.647 178.37 119.06C178.37 119.473 178.23 119.82 177.95 120.1C177.67 120.38 177.33 120.52 176.93 120.52ZM178.05 121.98V133H175.77V121.98H178.05ZM180.283 127.44C180.283 126.333 180.51 125.353 180.963 124.5C181.43 123.647 182.056 122.987 182.843 122.52C183.643 122.04 184.523 121.8 185.483 121.8C186.35 121.8 187.103 121.973 187.743 122.32C188.396 122.653 188.916 123.073 189.303 123.58V121.98H191.603V133H189.303V131.36C188.916 131.88 188.39 132.313 187.723 132.66C187.056 133.007 186.296 133.18 185.443 133.18C184.496 133.18 183.63 132.94 182.843 132.46C182.056 131.967 181.43 131.287 180.963 130.42C180.51 129.54 180.283 128.547 180.283 127.44ZM189.303 127.48C189.303 126.72 189.143 126.06 188.823 125.5C188.516 124.94 188.11 124.513 187.603 124.22C187.096 123.927 186.55 123.78 185.963 123.78C185.376 123.78 184.83 123.927 184.323 124.22C183.816 124.5 183.403 124.92 183.083 125.48C182.776 126.027 182.623 126.68 182.623 127.44C182.623 128.2 182.776 128.867 183.083 129.44C183.403 130.013 183.816 130.453 184.323 130.76C184.843 131.053 185.39 131.2 185.963 131.2C186.55 131.2 187.096 131.053 187.603 130.76C188.11 130.467 188.516 130.04 188.823 129.48C189.143 128.907 189.303 128.24 189.303 127.48ZM196.878 118.2V133H194.598V118.2H196.878ZM201.031 120.52C200.618 120.52 200.271 120.38 199.991 120.1C199.711 119.82 199.571 119.473 199.571 119.06C199.571 118.647 199.711 118.3 199.991 118.02C200.271 117.74 200.618 117.6 201.031 117.6C201.431 117.6 201.771 117.74 202.051 118.02C202.331 118.3 202.471 118.647 202.471 119.06C202.471 119.473 202.331 119.82 202.051 120.1C201.771 120.38 201.431 120.52 201.031 120.52ZM202.151 121.98V133H199.871V121.98H202.151ZM207.805 123.84V129.94C207.805 130.353 207.898 130.653 208.085 130.84C208.285 131.013 208.618 131.1 209.085 131.1H210.485V133H208.685C207.658 133 206.871 132.76 206.325 132.28C205.778 131.8 205.505 131.02 205.505 129.94V123.84H204.205V121.98H205.505V119.24H207.805V121.98H210.485V123.84H207.805ZM222.506 121.98L215.746 138.18H213.386L215.626 132.82L211.286 121.98H213.826L216.926 130.38L220.146 121.98H222.506ZM35.66 152.52C35.2467 152.52 34.9 152.38 34.62 152.1C34.34 151.82 34.2 151.473 34.2 151.06C34.2 150.647 34.34 150.3 34.62 150.02C34.9 149.74 35.2467 149.6 35.66 149.6C36.06 149.6 36.4 149.74 36.68 150.02C36.96 150.3 37.1 150.647 37.1 151.06C37.1 151.473 36.96 151.82 36.68 152.1C36.4 152.38 36.06 152.52 35.66 152.52ZM36.78 153.98V165H34.5V153.98H36.78ZM43.7734 165.18C42.9068 165.18 42.1268 165.027 41.4334 164.72C40.7534 164.4 40.2134 163.973 39.8134 163.44C39.4134 162.893 39.2001 162.287 39.1734 161.62H41.5334C41.5734 162.087 41.7934 162.48 42.1934 162.8C42.6068 163.107 43.1201 163.26 43.7334 163.26C44.3734 163.26 44.8668 163.14 45.2134 162.9C45.5734 162.647 45.7534 162.327 45.7534 161.94C45.7534 161.527 45.5534 161.22 45.1534 161.02C44.7668 160.82 44.1468 160.6 43.2934 160.36C42.4668 160.133 41.7934 159.913 41.2734 159.7C40.7534 159.487 40.3001 159.16 39.9134 158.72C39.5401 158.28 39.3534 157.7 39.3534 156.98C39.3534 156.393 39.5268 155.86 39.8734 155.38C40.2201 154.887 40.7134 154.5 41.3534 154.22C42.0068 153.94 42.7534 153.8 43.5934 153.8C44.8468 153.8 45.8534 154.12 46.6134 154.76C47.3868 155.387 47.8001 156.247 47.8534 157.34H45.5734C45.5334 156.847 45.3334 156.453 44.9734 156.16C44.6134 155.867 44.1268 155.72 43.5134 155.72C42.9134 155.72 42.4534 155.833 42.1334 156.06C41.8134 156.287 41.6534 156.587 41.6534 156.96C41.6534 157.253 41.7601 157.5 41.9734 157.7C42.1868 157.9 42.4468 158.06 42.7534 158.18C43.0601 158.287 43.5134 158.427 44.1134 158.6C44.9134 158.813 45.5668 159.033 46.0734 159.26C46.5934 159.473 47.0401 159.793 47.4134 160.22C47.7868 160.647 47.9801 161.213 47.9934 161.92C47.9934 162.547 47.8201 163.107 47.4734 163.6C47.1268 164.093 46.6334 164.48 45.9934 164.76C45.3668 165.04 44.6268 165.18 43.7734 165.18ZM60.4323 165.18C59.3923 165.18 58.4523 164.947 57.6123 164.48C56.7723 164 56.1123 163.333 55.6323 162.48C55.1523 161.613 54.9123 160.613 54.9123 159.48C54.9123 158.36 55.159 157.367 55.6523 156.5C56.1457 155.633 56.819 154.967 57.6723 154.5C58.5257 154.033 59.479 153.8 60.5323 153.8C61.5857 153.8 62.539 154.033 63.3923 154.5C64.2457 154.967 64.919 155.633 65.4123 156.5C65.9057 157.367 66.1523 158.36 66.1523 159.48C66.1523 160.6 65.899 161.593 65.3923 162.46C64.8857 163.327 64.1923 164 63.3123 164.48C62.4457 164.947 61.4857 165.18 60.4323 165.18ZM60.4323 163.2C61.019 163.2 61.5657 163.06 62.0723 162.78C62.5923 162.5 63.0123 162.08 63.3323 161.52C63.6523 160.96 63.8123 160.28 63.8123 159.48C63.8123 158.68 63.659 158.007 63.3523 157.46C63.0457 156.9 62.639 156.48 62.1323 156.2C61.6257 155.92 61.079 155.78 60.4923 155.78C59.9057 155.78 59.359 155.92 58.8523 156.2C58.359 156.48 57.9657 156.9 57.6723 157.46C57.379 158.007 57.2323 158.68 57.2323 159.48C57.2323 160.667 57.5323 161.587 58.1323 162.24C58.7457 162.88 59.5123 163.2 60.4323 163.2ZM78.3863 153.98V165H76.1063V163.7C75.7463 164.153 75.2729 164.513 74.6863 164.78C74.1129 165.033 73.4996 165.16 72.8463 165.16C71.9796 165.16 71.1996 164.98 70.5063 164.62C69.8263 164.26 69.2863 163.727 68.8863 163.02C68.4996 162.313 68.3063 161.46 68.3063 160.46V153.98H70.5663V160.12C70.5663 161.107 70.8129 161.867 71.3063 162.4C71.7996 162.92 72.4729 163.18 73.3263 163.18C74.1796 163.18 74.8529 162.92 75.3463 162.4C75.8529 161.867 76.1063 161.107 76.1063 160.12V153.98H78.3863ZM83.6745 155.58C84.0079 155.02 84.4479 154.587 84.9945 154.28C85.5545 153.96 86.2145 153.8 86.9745 153.8V156.16H86.3945C85.5012 156.16 84.8212 156.387 84.3545 156.84C83.9012 157.293 83.6745 158.08 83.6745 159.2V165H81.3945V153.98H83.6745V155.58ZM96.9256 155.84V161.94C96.9256 162.353 97.019 162.653 97.2056 162.84C97.4056 163.013 97.739 163.1 98.2056 163.1H99.6056V165H97.8056C96.779 165 95.9923 164.76 95.4456 164.28C94.899 163.8 94.6256 163.02 94.6256 161.94V155.84H93.3256V153.98H94.6256V151.24H96.9256V153.98H99.6056V155.84H96.9256ZM106.487 165.18C105.447 165.18 104.507 164.947 103.667 164.48C102.827 164 102.167 163.333 101.687 162.48C101.207 161.613 100.967 160.613 100.967 159.48C100.967 158.36 101.214 157.367 101.707 156.5C102.2 155.633 102.874 154.967 103.727 154.5C104.58 154.033 105.534 153.8 106.587 153.8C107.64 153.8 108.594 154.033 109.447 154.5C110.3 154.967 110.974 155.633 111.467 156.5C111.96 157.367 112.207 158.36 112.207 159.48C112.207 160.6 111.954 161.593 111.447 162.46C110.94 163.327 110.247 164 109.367 164.48C108.5 164.947 107.54 165.18 106.487 165.18ZM106.487 163.2C107.074 163.2 107.62 163.06 108.127 162.78C108.647 162.5 109.067 162.08 109.387 161.52C109.707 160.96 109.867 160.28 109.867 159.48C109.867 158.68 109.714 158.007 109.407 157.46C109.1 156.9 108.694 156.48 108.187 156.2C107.68 155.92 107.134 155.78 106.547 155.78C105.96 155.78 105.414 155.92 104.907 156.2C104.414 156.48 104.02 156.9 103.727 157.46C103.434 158.007 103.287 158.68 103.287 159.48C103.287 160.667 103.587 161.587 104.187 162.24C104.8 162.88 105.567 163.2 106.487 163.2ZM116.741 155.6C117.128 155.093 117.654 154.667 118.321 154.32C118.988 153.973 119.741 153.8 120.581 153.8C121.541 153.8 122.414 154.04 123.201 154.52C124.001 154.987 124.628 155.647 125.081 156.5C125.534 157.353 125.761 158.333 125.761 159.44C125.761 160.547 125.534 161.54 125.081 162.42C124.628 163.287 124.001 163.967 123.201 164.46C122.414 164.94 121.541 165.18 120.581 165.18C119.741 165.18 118.994 165.013 118.341 164.68C117.688 164.333 117.154 163.907 116.741 163.4V170.24H114.461V153.98H116.741V155.6ZM123.441 159.44C123.441 158.68 123.281 158.027 122.961 157.48C122.654 156.92 122.241 156.5 121.721 156.22C121.214 155.927 120.668 155.78 120.081 155.78C119.508 155.78 118.961 155.927 118.441 156.22C117.934 156.513 117.521 156.94 117.201 157.5C116.894 158.06 116.741 158.72 116.741 159.48C116.741 160.24 116.894 160.907 117.201 161.48C117.521 162.04 117.934 162.467 118.441 162.76C118.961 163.053 119.508 163.2 120.081 163.2C120.668 163.2 121.214 163.053 121.721 162.76C122.241 162.453 122.654 162.013 122.961 161.44C123.281 160.867 123.441 160.2 123.441 159.44ZM135.491 155.6C135.878 155.093 136.404 154.667 137.071 154.32C137.738 153.973 138.491 153.8 139.331 153.8C140.291 153.8 141.164 154.04 141.951 154.52C142.751 154.987 143.378 155.647 143.831 156.5C144.284 157.353 144.511 158.333 144.511 159.44C144.511 160.547 144.284 161.54 143.831 162.42C143.378 163.287 142.751 163.967 141.951 164.46C141.164 164.94 140.291 165.18 139.331 165.18C138.491 165.18 137.744 165.013 137.091 164.68C136.438 164.333 135.904 163.907 135.491 163.4V170.24H133.211V153.98H135.491V155.6ZM142.191 159.44C142.191 158.68 142.031 158.027 141.711 157.48C141.404 156.92 140.991 156.5 140.471 156.22C139.964 155.927 139.418 155.78 138.831 155.78C138.258 155.78 137.711 155.927 137.191 156.22C136.684 156.513 136.271 156.94 135.951 157.5C135.644 158.06 135.491 158.72 135.491 159.48C135.491 160.24 135.644 160.907 135.951 161.48C136.271 162.04 136.684 162.467 137.191 162.76C137.711 163.053 138.258 163.2 138.831 163.2C139.418 163.2 139.964 163.053 140.471 162.76C140.991 162.453 141.404 162.013 141.711 161.44C142.031 160.867 142.191 160.2 142.191 159.44ZM149.046 155.58C149.379 155.02 149.819 154.587 150.366 154.28C150.926 153.96 151.586 153.8 152.346 153.8V156.16H151.766C150.872 156.16 150.192 156.387 149.726 156.84C149.272 157.293 149.046 158.08 149.046 159.2V165H146.766V153.98H149.046V155.58ZM155.601 152.52C155.188 152.52 154.841 152.38 154.561 152.1C154.281 151.82 154.141 151.473 154.141 151.06C154.141 150.647 154.281 150.3 154.561 150.02C154.841 149.74 155.188 149.6 155.601 149.6C156.001 149.6 156.341 149.74 156.621 150.02C156.901 150.3 157.041 150.647 157.041 151.06C157.041 151.473 156.901 151.82 156.621 152.1C156.341 152.38 156.001 152.52 155.601 152.52ZM156.721 153.98V165H154.441V153.98H156.721ZM164.495 165.18C163.455 165.18 162.515 164.947 161.675 164.48C160.835 164 160.175 163.333 159.695 162.48C159.215 161.613 158.975 160.613 158.975 159.48C158.975 158.36 159.222 157.367 159.715 156.5C160.208 155.633 160.882 154.967 161.735 154.5C162.588 154.033 163.542 153.8 164.595 153.8C165.648 153.8 166.602 154.033 167.455 154.5C168.308 154.967 168.982 155.633 169.475 156.5C169.968 157.367 170.215 158.36 170.215 159.48C170.215 160.6 169.962 161.593 169.455 162.46C168.948 163.327 168.255 164 167.375 164.48C166.508 164.947 165.548 165.18 164.495 165.18ZM164.495 163.2C165.082 163.2 165.628 163.06 166.135 162.78C166.655 162.5 167.075 162.08 167.395 161.52C167.715 160.96 167.875 160.28 167.875 159.48C167.875 158.68 167.722 158.007 167.415 157.46C167.108 156.9 166.702 156.48 166.195 156.2C165.688 155.92 165.142 155.78 164.555 155.78C163.968 155.78 163.422 155.92 162.915 156.2C162.422 156.48 162.028 156.9 161.735 157.46C161.442 158.007 161.295 158.68 161.295 159.48C161.295 160.667 161.595 161.587 162.195 162.24C162.808 162.88 163.575 163.2 164.495 163.2ZM174.749 155.58C175.082 155.02 175.522 154.587 176.069 154.28C176.629 153.96 177.289 153.8 178.049 153.8V156.16H177.469C176.575 156.16 175.895 156.387 175.429 156.84C174.975 157.293 174.749 158.08 174.749 159.2V165H172.469V153.98H174.749V155.58ZM181.305 152.52C180.891 152.52 180.545 152.38 180.265 152.1C179.985 151.82 179.845 151.473 179.845 151.06C179.845 150.647 179.985 150.3 180.265 150.02C180.545 149.74 180.891 149.6 181.305 149.6C181.705 149.6 182.045 149.74 182.325 150.02C182.605 150.3 182.745 150.647 182.745 151.06C182.745 151.473 182.605 151.82 182.325 152.1C182.045 152.38 181.705 152.52 181.305 152.52ZM182.425 153.98V165H180.145V153.98H182.425ZM188.078 155.84V161.94C188.078 162.353 188.171 162.653 188.358 162.84C188.558 163.013 188.891 163.1 189.358 163.1H190.758V165H188.958C187.931 165 187.145 164.76 186.598 164.28C186.051 163.8 185.778 163.02 185.778 161.94V155.84H184.478V153.98H185.778V151.24H188.078V153.98H190.758V155.84H188.078ZM202.779 153.98L196.019 170.18H193.659L195.899 164.82L191.559 153.98H194.099L197.199 162.38L200.419 153.98H202.779Z" fill="#444444"/>
<path d="M33.792 48.552C33.792 46.888 34.152 45.408 34.872 44.112C35.592 42.8 36.592 41.784 37.872 41.064C39.168 40.328 40.632 39.96 42.264 39.96C44.264 39.96 45.976 40.488 47.4 41.544C48.824 42.6 49.776 44.04 50.256 45.864H45.744C45.408 45.16 44.928 44.624 44.304 44.256C43.696 43.888 43 43.704 42.216 43.704C40.952 43.704 39.928 44.144 39.144 45.024C38.36 45.904 37.968 47.08 37.968 48.552C37.968 50.024 38.36 51.2 39.144 52.08C39.928 52.96 40.952 53.4 42.216 53.4C43 53.4 43.696 53.216 44.304 52.848C44.928 52.48 45.408 51.944 45.744 51.24H50.256C49.776 53.064 48.824 54.504 47.4 55.56C45.976 56.6 44.264 57.12 42.264 57.12C40.632 57.12 39.168 56.76 37.872 56.04C36.592 55.304 35.592 54.288 34.872 52.992C34.152 51.696 33.792 50.216 33.792 48.552ZM58.8653 57.192C57.5533 57.192 56.3693 56.912 55.3133 56.352C54.2733 55.792 53.4493 54.992 52.8413 53.952C52.2493 52.912 51.9533 51.696 51.9533 50.304C51.9533 48.928 52.2573 47.72 52.8652 46.68C53.4733 45.624 54.3053 44.816 55.3613 44.256C56.4173 43.696 57.6013 43.416 58.9133 43.416C60.2253 43.416 61.4093 43.696 62.4653 44.256C63.5213 44.816 64.3533 45.624 64.9613 46.68C65.5693 47.72 65.8733 48.928 65.8733 50.304C65.8733 51.68 65.5613 52.896 64.9373 53.952C64.3293 54.992 63.4893 55.792 62.4173 56.352C61.3613 56.912 60.1773 57.192 58.8653 57.192ZM58.8653 53.64C59.6493 53.64 60.3133 53.352 60.8573 52.776C61.4173 52.2 61.6973 51.376 61.6973 50.304C61.6973 49.232 61.4253 48.408 60.8813 47.832C60.3533 47.256 59.6973 46.968 58.9133 46.968C58.1133 46.968 57.4493 47.256 56.9213 47.832C56.3933 48.392 56.1293 49.216 56.1293 50.304C56.1293 51.376 56.3853 52.2 56.8973 52.776C57.4253 53.352 58.0813 53.64 58.8653 53.64ZM76.2105 43.464C77.7785 43.464 79.0265 43.976 79.9545 45C80.8985 46.008 81.3705 47.4 81.3705 49.176V57H77.2905V49.728C77.2905 48.832 77.0585 48.136 76.5945 47.64C76.1305 47.144 75.5065 46.896 74.7225 46.896C73.9385 46.896 73.3145 47.144 72.8505 47.64C72.3865 48.136 72.1545 48.832 72.1545 49.728V57H68.0505V43.608H72.1545V45.384C72.5705 44.792 73.1305 44.328 73.8345 43.992C74.5385 43.64 75.3305 43.464 76.2105 43.464ZM90.9424 47.016H88.7344V57H84.6304V47.016H83.1424V43.608H84.6304V43.224C84.6304 41.576 85.1024 40.328 86.0464 39.48C86.9904 38.616 88.3744 38.184 90.1984 38.184C90.5024 38.184 90.7264 38.192 90.8704 38.208V41.688C90.0864 41.64 89.5344 41.752 89.2144 42.024C88.8944 42.296 88.7344 42.784 88.7344 43.488V43.608H90.9424V47.016ZM94.9348 42.216C94.2148 42.216 93.6228 42.008 93.1588 41.592C92.7108 41.16 92.4868 40.632 92.4868 40.008C92.4868 39.368 92.7108 38.84 93.1588 38.424C93.6228 37.992 94.2148 37.776 94.9348 37.776C95.6388 37.776 96.2148 37.992 96.6628 38.424C97.1268 38.84 97.3588 39.368 97.3588 40.008C97.3588 40.632 97.1268 41.16 96.6628 41.592C96.2148 42.008 95.6388 42.216 94.9348 42.216ZM96.9748 43.608V57H92.8708V43.608H96.9748ZM99.1329 50.28C99.1329 48.904 99.3889 47.696 99.9009 46.656C100.429 45.616 101.141 44.816 102.037 44.256C102.933 43.696 103.933 43.416 105.037 43.416C105.917 43.416 106.717 43.6 107.437 43.968C108.173 44.336 108.749 44.832 109.165 45.456V39.24H113.269V57H109.165V55.08C108.781 55.72 108.229 56.232 107.509 56.616C106.805 57 105.981 57.192 105.037 57.192C103.933 57.192 102.933 56.912 102.037 56.352C101.141 55.776 100.429 54.968 99.9009 53.928C99.3889 52.872 99.1329 51.656 99.1329 50.28ZM109.165 50.304C109.165 49.28 108.877 48.472 108.301 47.88C107.741 47.288 107.053 46.992 106.237 46.992C105.421 46.992 104.725 47.288 104.149 47.88C103.589 48.456 103.309 49.256 103.309 50.28C103.309 51.304 103.589 52.12 104.149 52.728C104.725 53.32 105.421 53.616 106.237 53.616C107.053 53.616 107.741 53.32 108.301 52.728C108.877 52.136 109.165 51.328 109.165 50.304ZM128.862 50.088C128.862 50.472 128.838 50.872 128.79 51.288H119.502C119.566 52.12 119.83 52.76 120.294 53.208C120.774 53.64 121.358 53.856 122.046 53.856C123.07 53.856 123.782 53.424 124.182 52.56H128.55C128.326 53.44 127.918 54.232 127.326 54.936C126.75 55.64 126.022 56.192 125.142 56.592C124.262 56.992 123.278 57.192 122.19 57.192C120.878 57.192 119.71 56.912 118.686 56.352C117.662 55.792 116.862 54.992 116.286 53.952C115.71 52.912 115.422 51.696 115.422 50.304C115.422 48.912 115.702 47.696 116.262 46.656C116.838 45.616 117.638 44.816 118.662 44.256C119.686 43.696 120.862 43.416 122.19 43.416C123.486 43.416 124.638 43.688 125.646 44.232C126.654 44.776 127.438 45.552 127.998 46.56C128.574 47.568 128.862 48.744 128.862 50.088ZM124.662 49.008C124.662 48.304 124.422 47.744 123.942 47.328C123.462 46.912 122.862 46.704 122.142 46.704C121.454 46.704 120.87 46.904 120.39 47.304C119.926 47.704 119.638 48.272 119.526 49.008H124.662ZM139.187 43.464C140.755 43.464 142.003 43.976 142.931 45C143.875 46.008 144.347 47.4 144.347 49.176V57H140.267V49.728C140.267 48.832 140.035 48.136 139.571 47.64C139.107 47.144 138.483 46.896 137.699 46.896C136.915 46.896 136.291 47.144 135.827 47.64C135.363 48.136 135.131 48.832 135.131 49.728V57H131.027V43.608H135.131V45.384C135.547 44.792 136.107 44.328 136.811 43.992C137.515 43.64 138.307 43.464 139.187 43.464ZM154.663 53.52V57H152.575C151.087 57 149.927 56.64 149.095 55.92C148.263 55.184 147.847 53.992 147.847 52.344V47.016H146.215V43.608H147.847V40.344H151.951V43.608H154.639V47.016H151.951V52.392C151.951 52.792 152.047 53.08 152.239 53.256C152.431 53.432 152.751 53.52 153.199 53.52H154.663ZM159.013 42.216C158.293 42.216 157.701 42.008 157.237 41.592C156.789 41.16 156.565 40.632 156.565 40.008C156.565 39.368 156.789 38.84 157.237 38.424C157.701 37.992 158.293 37.776 159.013 37.776C159.717 37.776 160.293 37.992 160.741 38.424C161.205 38.84 161.437 39.368 161.437 40.008C161.437 40.632 161.205 41.16 160.741 41.592C160.293 42.008 159.717 42.216 159.013 42.216ZM161.053 43.608V57H156.949V43.608H161.053ZM163.211 50.28C163.211 48.904 163.467 47.696 163.979 46.656C164.507 45.616 165.219 44.816 166.115 44.256C167.011 43.696 168.011 43.416 169.115 43.416C170.059 43.416 170.883 43.608 171.587 43.992C172.307 44.376 172.859 44.88 173.243 45.504V43.608H177.347V57H173.243V55.104C172.843 55.728 172.283 56.232 171.563 56.616C170.859 57 170.035 57.192 169.091 57.192C168.003 57.192 167.011 56.912 166.115 56.352C165.219 55.776 164.507 54.968 163.979 53.928C163.467 52.872 163.211 51.656 163.211 50.28ZM173.243 50.304C173.243 49.28 172.955 48.472 172.379 47.88C171.819 47.288 171.131 46.992 170.315 46.992C169.499 46.992 168.803 47.288 168.227 47.88C167.667 48.456 167.387 49.256 167.387 50.28C167.387 51.304 167.667 52.12 168.227 52.728C168.803 53.32 169.499 53.616 170.315 53.616C171.131 53.616 171.819 53.32 172.379 52.728C172.955 52.136 173.243 51.328 173.243 50.304ZM184.42 39.24V57H180.316V39.24H184.42ZM189.458 42.216C188.738 42.216 188.146 42.008 187.682 41.592C187.234 41.16 187.01 40.632 187.01 40.008C187.01 39.368 187.234 38.84 187.682 38.424C188.146 37.992 188.738 37.776 189.458 37.776C190.162 37.776 190.738 37.992 191.186 38.424C191.65 38.84 191.882 39.368 191.882 40.008C191.882 40.632 191.65 41.16 191.186 41.592C190.738 42.008 190.162 42.216 189.458 42.216ZM191.498 43.608V57H187.394V43.608H191.498ZM201.936 53.52V57H199.848C198.36 57 197.2 56.64 196.368 55.92C195.536 55.184 195.12 53.992 195.12 52.344V47.016H193.488V43.608H195.12V40.344H199.224V43.608H201.912V47.016H199.224V52.392C199.224 52.792 199.32 53.08 199.512 53.256C199.704 53.432 200.024 53.52 200.472 53.52H201.936ZM217.902 43.608L209.502 63.36H205.086L208.158 56.544L202.71 43.608H207.294L210.39 51.984L213.462 43.608H217.902Z" fill="#444444"/>
<rect x="210" y="210" width="70" height="70" rx="16" fill="#EF6C0D"/>
<path d="M232.425 244.75C232.425 241.31 233.085 238.6 234.405 236.62C235.745 234.64 237.895 233.65 240.855 233.65C243.815 233.65 245.955 234.64 247.275 236.62C248.615 238.6 249.285 241.31 249.285 244.75C249.285 248.23 248.615 250.96 247.275 252.94C245.955 254.92 243.815 255.91 240.855 255.91C237.895 255.91 235.745 254.92 234.405 252.94C233.085 250.96 232.425 248.23 232.425 244.75ZM244.245 244.75C244.245 242.73 244.025 241.18 243.585 240.1C243.145 239 242.235 238.45 240.855 238.45C239.475 238.45 238.565 239 238.125 240.1C237.685 241.18 237.465 242.73 237.465 244.75C237.465 246.11 237.545 247.24 237.705 248.14C237.865 249.02 238.185 249.74 238.665 250.3C239.165 250.84 239.895 251.11 240.855 251.11C241.815 251.11 242.535 250.84 243.015 250.3C243.515 249.74 243.845 249.02 244.005 248.14C244.165 247.24 244.245 246.11 244.245 244.75ZM251.456 238.87V234.1H259.766V256H254.426V238.87H251.456Z" fill="white"/>
</svg>
