<svg width="280" height="280" viewBox="0 0 280 280" fill="none" xmlns="http://www.w3.org/2000/svg">
<path fill-rule="evenodd" clip-rule="evenodd" d="M280 30C280 13.4315 266.569 0 250 0H30C13.4315 0 0 13.4315 0 30V250C0 266.569 13.4315 280 30 280H159.5C176.069 280 189.5 266.569 189.5 250V218C189.5 201.431 202.931 188 219.5 188H260C271.046 188 280 179.046 280 168V30Z" fill="#444444"/>
<path fill-rule="evenodd" clip-rule="evenodd" d="M280 30C280 13.4315 266.569 0 250 0H30C13.4315 0 0 13.4315 0 30V250C0 266.569 13.4315 280 30 280H159.5C176.069 280 189.5 266.569 189.5 250V218C189.5 201.431 202.931 188 219.5 188H260C271.046 188 280 179.046 280 168V30Z" fill="white" fill-opacity="0.95"/>
<path d="M38.9353 94.02C38.9353 92.66 39.2486 91.44 39.8753 90.36C40.5153 89.28 41.3753 88.44 42.4553 87.84C43.5486 87.2267 44.742 86.92 46.0353 86.92C47.5153 86.92 48.8286 87.2867 49.9753 88.02C51.1353 88.74 51.9753 89.7667 52.4953 91.1H49.7553C49.3953 90.3667 48.8953 89.82 48.2553 89.46C47.6153 89.1 46.8753 88.92 46.0353 88.92C45.1153 88.92 44.2953 89.1267 43.5753 89.54C42.8553 89.9533 42.2886 90.5467 41.8753 91.32C41.4753 92.0933 41.2753 92.9933 41.2753 94.02C41.2753 95.0467 41.4753 95.9467 41.8753 96.72C42.2886 97.4933 42.8553 98.0933 43.5753 98.52C44.2953 98.9333 45.1153 99.14 46.0353 99.14C46.8753 99.14 47.6153 98.96 48.2553 98.6C48.8953 98.24 49.3953 97.6933 49.7553 96.96H52.4953C51.9753 98.2933 51.1353 99.32 49.9753 100.04C48.8286 100.76 47.5153 101.12 46.0353 101.12C44.7286 101.12 43.5353 100.82 42.4553 100.22C41.3753 99.6067 40.5153 98.76 39.8753 97.68C39.2486 96.6 38.9353 95.38 38.9353 94.02ZM65.1441 89.98V101H62.8641V99.7C62.5041 100.153 62.0307 100.513 61.4441 100.78C60.8707 101.033 60.2574 101.16 59.6041 101.16C58.7374 101.16 57.9574 100.98 57.2641 100.62C56.5841 100.26 56.0441 99.7267 55.6441 99.02C55.2574 98.3133 55.0641 97.46 55.0641 96.46V89.98H57.3241V96.12C57.3241 97.1067 57.5707 97.8667 58.0641 98.4C58.5574 98.92 59.2307 99.18 60.0841 99.18C60.9374 99.18 61.6107 98.92 62.1041 98.4C62.6107 97.8667 62.8641 97.1067 62.8641 96.12V89.98H65.1441ZM72.1523 101.18C71.2857 101.18 70.5057 101.027 69.8123 100.72C69.1323 100.4 68.5923 99.9733 68.1923 99.44C67.7923 98.8933 67.579 98.2867 67.5523 97.62H69.9123C69.9523 98.0867 70.1723 98.48 70.5723 98.8C70.9857 99.1067 71.499 99.26 72.1123 99.26C72.7523 99.26 73.2457 99.14 73.5923 98.9C73.9523 98.6467 74.1323 98.3267 74.1323 97.94C74.1323 97.5267 73.9323 97.22 73.5323 97.02C73.1457 96.82 72.5257 96.6 71.6723 96.36C70.8457 96.1333 70.1723 95.9133 69.6523 95.7C69.1323 95.4867 68.679 95.16 68.2923 94.72C67.919 94.28 67.7323 93.7 67.7323 92.98C67.7323 92.3933 67.9057 91.86 68.2523 91.38C68.599 90.8867 69.0923 90.5 69.7323 90.22C70.3857 89.94 71.1323 89.8 71.9723 89.8C73.2257 89.8 74.2323 90.12 74.9923 90.76C75.7657 91.3867 76.179 92.2467 76.2323 93.34H73.9523C73.9123 92.8467 73.7123 92.4533 73.3523 92.16C72.9923 91.8667 72.5057 91.72 71.8923 91.72C71.2923 91.72 70.8323 91.8333 70.5123 92.06C70.1923 92.2867 70.0323 92.5867 70.0323 92.96C70.0323 93.2533 70.139 93.5 70.3523 93.7C70.5657 93.9 70.8257 94.06 71.1323 94.18C71.439 94.2867 71.8923 94.4267 72.4923 94.6C73.2923 94.8133 73.9457 95.0333 74.4523 95.26C74.9723 95.4733 75.419 95.7933 75.7923 96.22C76.1657 96.6467 76.359 97.2133 76.3723 97.92C76.3723 98.5467 76.199 99.1067 75.8523 99.6C75.5057 100.093 75.0123 100.48 74.3723 100.76C73.7457 101.04 73.0057 101.18 72.1523 101.18ZM81.4959 91.84V97.94C81.4959 98.3533 81.5893 98.6533 81.7759 98.84C81.9759 99.0133 82.3093 99.1 82.7759 99.1H84.1759V101H82.3759C81.3493 101 80.5626 100.76 80.0159 100.28C79.4693 99.8 79.1959 99.02 79.1959 97.94V91.84H77.8959V89.98H79.1959V87.24H81.4959V89.98H84.1759V91.84H81.4959ZM91.0573 101.18C90.0173 101.18 89.0773 100.947 88.2373 100.48C87.3973 100 86.7373 99.3333 86.2573 98.48C85.7773 97.6133 85.5373 96.6133 85.5373 95.48C85.5373 94.36 85.784 93.3667 86.2773 92.5C86.7707 91.6333 87.444 90.9667 88.2973 90.5C89.1507 90.0333 90.104 89.8 91.1573 89.8C92.2107 89.8 93.164 90.0333 94.0173 90.5C94.8707 90.9667 95.544 91.6333 96.0373 92.5C96.5307 93.3667 96.7773 94.36 96.7773 95.48C96.7773 96.6 96.524 97.5933 96.0173 98.46C95.5107 99.3267 94.8173 100 93.9373 100.48C93.0707 100.947 92.1107 101.18 91.0573 101.18ZM91.0573 99.2C91.644 99.2 92.1907 99.06 92.6973 98.78C93.2173 98.5 93.6373 98.08 93.9573 97.52C94.2773 96.96 94.4373 96.28 94.4373 95.48C94.4373 94.68 94.284 94.0067 93.9773 93.46C93.6707 92.9 93.264 92.48 92.7573 92.2C92.2507 91.92 91.704 91.78 91.1173 91.78C90.5307 91.78 89.984 91.92 89.4773 92.2C88.984 92.48 88.5907 92.9 88.2973 93.46C88.004 94.0067 87.8573 94.68 87.8573 95.48C87.8573 96.6667 88.1573 97.5867 88.7573 98.24C89.3707 98.88 90.1373 99.2 91.0573 99.2ZM112.371 89.8C113.238 89.8 114.011 89.98 114.691 90.34C115.385 90.7 115.925 91.2333 116.311 91.94C116.711 92.6467 116.911 93.5 116.911 94.5V101H114.651V94.84C114.651 93.8533 114.405 93.1 113.911 92.58C113.418 92.0467 112.745 91.78 111.891 91.78C111.038 91.78 110.358 92.0467 109.851 92.58C109.358 93.1 109.111 93.8533 109.111 94.84V101H106.851V94.84C106.851 93.8533 106.605 93.1 106.111 92.58C105.618 92.0467 104.945 91.78 104.091 91.78C103.238 91.78 102.558 92.0467 102.051 92.58C101.558 93.1 101.311 93.8533 101.311 94.84V101H99.0313V89.98H101.311V91.24C101.685 90.7867 102.158 90.4333 102.731 90.18C103.305 89.9267 103.918 89.8 104.571 89.8C105.451 89.8 106.238 89.9867 106.931 90.36C107.625 90.7333 108.158 91.2733 108.531 91.98C108.865 91.3133 109.385 90.7867 110.091 90.4C110.798 90 111.558 89.8 112.371 89.8ZM120.973 88.52C120.559 88.52 120.213 88.38 119.933 88.1C119.653 87.82 119.513 87.4733 119.513 87.06C119.513 86.6467 119.653 86.3 119.933 86.02C120.213 85.74 120.559 85.6 120.973 85.6C121.373 85.6 121.713 85.74 121.993 86.02C122.273 86.3 122.413 86.6467 122.413 87.06C122.413 87.4733 122.273 87.82 121.993 88.1C121.713 88.38 121.373 88.52 120.973 88.52ZM122.093 89.98V101H119.813V89.98H122.093ZM127.106 99.14H132.106V101H124.466V99.14L129.486 91.84H124.466V89.98H132.106V91.84L127.106 99.14ZM144.6 95.22C144.6 95.6333 144.573 96.0067 144.52 96.34H136.1C136.167 97.22 136.493 97.9267 137.08 98.46C137.667 98.9933 138.387 99.26 139.24 99.26C140.467 99.26 141.333 98.7467 141.84 97.72H144.3C143.967 98.7333 143.36 99.5667 142.48 100.22C141.613 100.86 140.533 101.18 139.24 101.18C138.187 101.18 137.24 100.947 136.4 100.48C135.573 100 134.92 99.3333 134.44 98.48C133.973 97.6133 133.74 96.6133 133.74 95.48C133.74 94.3467 133.967 93.3533 134.42 92.5C134.887 91.6333 135.533 90.9667 136.36 90.5C137.2 90.0333 138.16 89.8 139.24 89.8C140.28 89.8 141.207 90.0267 142.02 90.48C142.833 90.9333 143.467 91.5733 143.92 92.4C144.373 93.2133 144.6 94.1533 144.6 95.22ZM142.22 94.5C142.207 93.66 141.907 92.9867 141.32 92.48C140.733 91.9733 140.007 91.72 139.14 91.72C138.353 91.72 137.68 91.9733 137.12 92.48C136.56 92.9733 136.227 93.6467 136.12 94.5H142.22ZM146.084 95.44C146.084 94.3333 146.31 93.3533 146.764 92.5C147.23 91.6467 147.857 90.9867 148.644 90.52C149.444 90.04 150.33 89.8 151.304 89.8C152.024 89.8 152.73 89.96 153.424 90.28C154.13 90.5867 154.69 91 155.104 91.52V86.2H157.404V101H155.104V99.34C154.73 99.8733 154.21 100.313 153.544 100.66C152.89 101.007 152.137 101.18 151.284 101.18C150.324 101.18 149.444 100.94 148.644 100.46C147.857 99.9667 147.23 99.2867 146.764 98.42C146.31 97.54 146.084 96.5467 146.084 95.44ZM155.104 95.48C155.104 94.72 154.944 94.06 154.624 93.5C154.317 92.94 153.91 92.5133 153.404 92.22C152.897 91.9267 152.35 91.78 151.764 91.78C151.177 91.78 150.63 91.9267 150.124 92.22C149.617 92.5 149.204 92.92 148.884 93.48C148.577 94.0267 148.424 94.68 148.424 95.44C148.424 96.2 148.577 96.8667 148.884 97.44C149.204 98.0133 149.617 98.4533 150.124 98.76C150.644 99.0533 151.19 99.2 151.764 99.2C152.35 99.2 152.897 99.0533 153.404 98.76C153.91 98.4667 154.317 98.04 154.624 97.48C154.944 96.9067 155.104 96.24 155.104 95.48ZM36.78 123.6C37.1667 123.093 37.6933 122.667 38.36 122.32C39.0267 121.973 39.78 121.8 40.62 121.8C41.58 121.8 42.4533 122.04 43.24 122.52C44.04 122.987 44.6667 123.647 45.12 124.5C45.5733 125.353 45.8 126.333 45.8 127.44C45.8 128.547 45.5733 129.54 45.12 130.42C44.6667 131.287 44.04 131.967 43.24 132.46C42.4533 132.94 41.58 133.18 40.62 133.18C39.78 133.18 39.0333 133.013 38.38 132.68C37.7267 132.333 37.1933 131.907 36.78 131.4V138.24H34.5V121.98H36.78V123.6ZM43.48 127.44C43.48 126.68 43.32 126.027 43 125.48C42.6933 124.92 42.28 124.5 41.76 124.22C41.2533 123.927 40.7067 123.78 40.12 123.78C39.5467 123.78 39 123.927 38.48 124.22C37.9733 124.513 37.56 124.94 37.24 125.5C36.9333 126.06 36.78 126.72 36.78 127.48C36.78 128.24 36.9333 128.907 37.24 129.48C37.56 130.04 37.9733 130.467 38.48 130.76C39 131.053 39.5467 131.2 40.12 131.2C40.7067 131.2 41.2533 131.053 41.76 130.76C42.28 130.453 42.6933 130.013 43 129.44C43.32 128.867 43.48 128.2 43.48 127.44ZM47.2947 127.44C47.2947 126.333 47.5214 125.353 47.9747 124.5C48.4414 123.647 49.068 122.987 49.8547 122.52C50.6547 122.04 51.5347 121.8 52.4947 121.8C53.3614 121.8 54.1147 121.973 54.7547 122.32C55.408 122.653 55.928 123.073 56.3147 123.58V121.98H58.6147V133H56.3147V131.36C55.928 131.88 55.4014 132.313 54.7347 132.66C54.068 133.007 53.308 133.18 52.4547 133.18C51.508 133.18 50.6414 132.94 49.8547 132.46C49.068 131.967 48.4414 131.287 47.9747 130.42C47.5214 129.54 47.2947 128.547 47.2947 127.44ZM56.3147 127.48C56.3147 126.72 56.1547 126.06 55.8347 125.5C55.528 124.94 55.1214 124.513 54.6147 124.22C54.108 123.927 53.5614 123.78 52.9747 123.78C52.388 123.78 51.8414 123.927 51.3347 124.22C50.828 124.5 50.4147 124.92 50.0947 125.48C49.788 126.027 49.6347 126.68 49.6347 127.44C49.6347 128.2 49.788 128.867 50.0947 129.44C50.4147 130.013 50.828 130.453 51.3347 130.76C51.8547 131.053 52.4014 131.2 52.9747 131.2C53.5614 131.2 54.108 131.053 54.6147 130.76C55.1214 130.467 55.528 130.04 55.8347 129.48C56.1547 128.907 56.3147 128.24 56.3147 127.48ZM60.8494 127.48C60.8494 126.347 61.076 125.353 61.5294 124.5C61.996 123.633 62.636 122.967 63.4494 122.5C64.2627 122.033 65.196 121.8 66.2494 121.8C67.5827 121.8 68.6827 122.12 69.5494 122.76C70.4294 123.387 71.0227 124.287 71.3294 125.46H68.8694C68.6694 124.913 68.3494 124.487 67.9094 124.18C67.4694 123.873 66.916 123.72 66.2494 123.72C65.316 123.72 64.5694 124.053 64.0094 124.72C63.4627 125.373 63.1894 126.293 63.1894 127.48C63.1894 128.667 63.4627 129.593 64.0094 130.26C64.5694 130.927 65.316 131.26 66.2494 131.26C67.5694 131.26 68.4427 130.68 68.8694 129.52H71.3294C71.0094 130.64 70.4094 131.533 69.5294 132.2C68.6494 132.853 67.556 133.18 66.2494 133.18C65.196 133.18 64.2627 132.947 63.4494 132.48C62.636 132 61.996 131.333 61.5294 130.48C61.076 129.613 60.8494 128.613 60.8494 127.48ZM77.9616 127.5L83.0416 133H79.9616L75.8816 128.26V133H73.6016V118.2H75.8816V126.8L79.8816 121.98H83.0416L77.9616 127.5ZM83.9158 127.44C83.9158 126.333 84.1424 125.353 84.5958 124.5C85.0624 123.647 85.6891 122.987 86.4758 122.52C87.2758 122.04 88.1558 121.8 89.1158 121.8C89.9824 121.8 90.7358 121.973 91.3758 122.32C92.0291 122.653 92.5491 123.073 92.9358 123.58V121.98H95.2358V133H92.9358V131.36C92.5491 131.88 92.0224 132.313 91.3558 132.66C90.6891 133.007 89.9291 133.18 89.0758 133.18C88.1291 133.18 87.2624 132.94 86.4758 132.46C85.6891 131.967 85.0624 131.287 84.5958 130.42C84.1424 129.54 83.9158 128.547 83.9158 127.44ZM92.9358 127.48C92.9358 126.72 92.7758 126.06 92.4558 125.5C92.1491 124.94 91.7424 124.513 91.2358 124.22C90.7291 123.927 90.1824 123.78 89.5958 123.78C89.0091 123.78 88.4624 123.927 87.9558 124.22C87.4491 124.5 87.0358 124.92 86.7158 125.48C86.4091 126.027 86.2558 126.68 86.2558 127.44C86.2558 128.2 86.4091 128.867 86.7158 129.44C87.0358 130.013 87.4491 130.453 87.9558 130.76C88.4758 131.053 89.0224 131.2 89.5958 131.2C90.1824 131.2 90.7291 131.053 91.2358 130.76C91.7424 130.467 92.1491 130.04 92.4558 129.48C92.7758 128.907 92.9358 128.24 92.9358 127.48ZM102.67 121.8C103.524 121.8 104.277 121.973 104.93 122.32C105.597 122.653 106.117 123.073 106.49 123.58V121.98H108.79V133.18C108.79 134.193 108.577 135.093 108.15 135.88C107.724 136.68 107.104 137.307 106.29 137.76C105.49 138.213 104.53 138.44 103.41 138.44C101.917 138.44 100.677 138.087 99.6905 137.38C98.7038 136.687 98.1438 135.74 98.0105 134.54H100.27C100.444 135.113 100.81 135.573 101.37 135.92C101.944 136.28 102.624 136.46 103.41 136.46C104.33 136.46 105.07 136.18 105.63 135.62C106.204 135.06 106.49 134.247 106.49 133.18V131.34C106.104 131.86 105.577 132.3 104.91 132.66C104.257 133.007 103.51 133.18 102.67 133.18C101.71 133.18 100.83 132.94 100.03 132.46C99.2438 131.967 98.6171 131.287 98.1505 130.42C97.6971 129.54 97.4705 128.547 97.4705 127.44C97.4705 126.333 97.6971 125.353 98.1505 124.5C98.6171 123.647 99.2438 122.987 100.03 122.52C100.83 122.04 101.71 121.8 102.67 121.8ZM106.49 127.48C106.49 126.72 106.33 126.06 106.01 125.5C105.704 124.94 105.297 124.513 104.79 124.22C104.284 123.927 103.737 123.78 103.15 123.78C102.564 123.78 102.017 123.927 101.51 124.22C101.004 124.5 100.59 124.92 100.27 125.48C99.9638 126.027 99.8105 126.68 99.8105 127.44C99.8105 128.2 99.9638 128.867 100.27 129.44C100.59 130.013 101.004 130.453 101.51 130.76C102.03 131.053 102.577 131.2 103.15 131.2C103.737 131.2 104.284 131.053 104.79 130.76C105.297 130.467 105.704 130.04 106.01 129.48C106.33 128.907 106.49 128.24 106.49 127.48ZM121.885 127.22C121.885 127.633 121.858 128.007 121.805 128.34H113.385C113.452 129.22 113.778 129.927 114.365 130.46C114.952 130.993 115.672 131.26 116.525 131.26C117.752 131.26 118.618 130.747 119.125 129.72H121.585C121.252 130.733 120.645 131.567 119.765 132.22C118.898 132.86 117.818 133.18 116.525 133.18C115.472 133.18 114.525 132.947 113.685 132.48C112.858 132 112.205 131.333 111.725 130.48C111.258 129.613 111.025 128.613 111.025 127.48C111.025 126.347 111.252 125.353 111.705 124.5C112.172 123.633 112.818 122.967 113.645 122.5C114.485 122.033 115.445 121.8 116.525 121.8C117.565 121.8 118.492 122.027 119.305 122.48C120.118 122.933 120.752 123.573 121.205 124.4C121.658 125.213 121.885 126.153 121.885 127.22ZM119.505 126.5C119.492 125.66 119.192 124.987 118.605 124.48C118.018 123.973 117.292 123.72 116.425 123.72C115.638 123.72 114.965 123.973 114.405 124.48C113.845 124.973 113.512 125.647 113.405 126.5H119.505ZM128.129 133.18C127.262 133.18 126.482 133.027 125.789 132.72C125.109 132.4 124.569 131.973 124.169 131.44C123.769 130.893 123.556 130.287 123.529 129.62H125.889C125.929 130.087 126.149 130.48 126.549 130.8C126.962 131.107 127.476 131.26 128.089 131.26C128.729 131.26 129.222 131.14 129.569 130.9C129.929 130.647 130.109 130.327 130.109 129.94C130.109 129.527 129.909 129.22 129.509 129.02C129.122 128.82 128.502 128.6 127.649 128.36C126.822 128.133 126.149 127.913 125.629 127.7C125.109 127.487 124.656 127.16 124.269 126.72C123.896 126.28 123.709 125.7 123.709 124.98C123.709 124.393 123.882 123.86 124.229 123.38C124.576 122.887 125.069 122.5 125.709 122.22C126.362 121.94 127.109 121.8 127.949 121.8C129.202 121.8 130.209 122.12 130.969 122.76C131.742 123.387 132.156 124.247 132.209 125.34H129.929C129.889 124.847 129.689 124.453 129.329 124.16C128.969 123.867 128.482 123.72 127.869 123.72C127.269 123.72 126.809 123.833 126.489 124.06C126.169 124.287 126.009 124.587 126.009 124.96C126.009 125.253 126.116 125.5 126.329 125.7C126.542 125.9 126.802 126.06 127.109 126.18C127.416 126.287 127.869 126.427 128.469 126.6C129.269 126.813 129.922 127.033 130.429 127.26C130.949 127.473 131.396 127.793 131.769 128.22C132.142 128.647 132.336 129.213 132.349 129.92C132.349 130.547 132.176 131.107 131.829 131.6C131.482 132.093 130.989 132.48 130.349 132.76C129.722 133.04 128.982 133.18 128.129 133.18ZM142.668 123.84V129.94C142.668 130.353 142.761 130.653 142.948 130.84C143.148 131.013 143.481 131.1 143.948 131.1H145.348V133H143.548C142.521 133 141.734 132.76 141.188 132.28C140.641 131.8 140.368 131.02 140.368 129.94V123.84H139.068V121.98H140.368V119.24H142.668V121.98H145.348V123.84H142.668ZM152.229 133.18C151.189 133.18 150.249 132.947 149.409 132.48C148.569 132 147.909 131.333 147.429 130.48C146.949 129.613 146.709 128.613 146.709 127.48C146.709 126.36 146.956 125.367 147.449 124.5C147.943 123.633 148.616 122.967 149.469 122.5C150.323 122.033 151.276 121.8 152.329 121.8C153.383 121.8 154.336 122.033 155.189 122.5C156.043 122.967 156.716 123.633 157.209 124.5C157.703 125.367 157.949 126.36 157.949 127.48C157.949 128.6 157.696 129.593 157.189 130.46C156.683 131.327 155.989 132 155.109 132.48C154.243 132.947 153.283 133.18 152.229 133.18ZM152.229 131.2C152.816 131.2 153.363 131.06 153.869 130.78C154.389 130.5 154.809 130.08 155.129 129.52C155.449 128.96 155.609 128.28 155.609 127.48C155.609 126.68 155.456 126.007 155.149 125.46C154.843 124.9 154.436 124.48 153.929 124.2C153.423 123.92 152.876 123.78 152.289 123.78C151.703 123.78 151.156 123.92 150.649 124.2C150.156 124.48 149.763 124.9 149.469 125.46C149.176 126.007 149.029 126.68 149.029 127.48C149.029 128.667 149.329 129.587 149.929 130.24C150.543 130.88 151.309 131.2 152.229 131.2ZM169.398 133.18C168.532 133.18 167.752 133.027 167.058 132.72C166.378 132.4 165.838 131.973 165.438 131.44C165.038 130.893 164.825 130.287 164.798 129.62H167.158C167.198 130.087 167.418 130.48 167.818 130.8C168.232 131.107 168.745 131.26 169.358 131.26C169.998 131.26 170.492 131.14 170.838 130.9C171.198 130.647 171.378 130.327 171.378 129.94C171.378 129.527 171.178 129.22 170.778 129.02C170.392 128.82 169.772 128.6 168.918 128.36C168.092 128.133 167.418 127.913 166.898 127.7C166.378 127.487 165.925 127.16 165.538 126.72C165.165 126.28 164.978 125.7 164.978 124.98C164.978 124.393 165.152 123.86 165.498 123.38C165.845 122.887 166.338 122.5 166.978 122.22C167.632 121.94 168.378 121.8 169.218 121.8C170.472 121.8 171.478 122.12 172.238 122.76C173.012 123.387 173.425 124.247 173.478 125.34H171.198C171.158 124.847 170.958 124.453 170.598 124.16C170.238 123.867 169.752 123.72 169.138 123.72C168.538 123.72 168.078 123.833 167.758 124.06C167.438 124.287 167.278 124.587 167.278 124.96C167.278 125.253 167.385 125.5 167.598 125.7C167.812 125.9 168.072 126.06 168.378 126.18C168.685 126.287 169.138 126.427 169.738 126.6C170.538 126.813 171.192 127.033 171.698 127.26C172.218 127.473 172.665 127.793 173.038 128.22C173.412 128.647 173.605 129.213 173.618 129.92C173.618 130.547 173.445 131.107 173.098 131.6C172.752 132.093 172.258 132.48 171.618 132.76C170.992 133.04 170.252 133.18 169.398 133.18ZM186.062 121.98V133H183.782V131.7C183.422 132.153 182.949 132.513 182.362 132.78C181.789 133.033 181.175 133.16 180.522 133.16C179.655 133.16 178.875 132.98 178.182 132.62C177.502 132.26 176.962 131.727 176.562 131.02C176.175 130.313 175.982 129.46 175.982 128.46V121.98H178.242V128.12C178.242 129.107 178.489 129.867 178.982 130.4C179.475 130.92 180.149 131.18 181.002 131.18C181.855 131.18 182.529 130.92 183.022 130.4C183.529 129.867 183.782 129.107 183.782 128.12V121.98H186.062ZM190.23 120.52C189.817 120.52 189.47 120.38 189.19 120.1C188.91 119.82 188.77 119.473 188.77 119.06C188.77 118.647 188.91 118.3 189.19 118.02C189.47 117.74 189.817 117.6 190.23 117.6C190.63 117.6 190.97 117.74 191.25 118.02C191.53 118.3 191.67 118.647 191.67 119.06C191.67 119.473 191.53 119.82 191.25 120.1C190.97 120.38 190.63 120.52 190.23 120.52ZM191.35 121.98V133H189.07V121.98H191.35ZM197.004 123.84V129.94C197.004 130.353 197.097 130.653 197.284 130.84C197.484 131.013 197.817 131.1 198.284 131.1H199.684V133H197.884C196.857 133 196.07 132.76 195.524 132.28C194.977 131.8 194.704 131.02 194.704 129.94V123.84H193.404V121.98H194.704V119.24H197.004V121.98H199.684V123.84H197.004ZM44.42 153.98L37.66 170.18H35.3L37.54 164.82L33.2 153.98H35.74L38.84 162.38L42.06 153.98H44.42ZM50.9206 165.18C49.8806 165.18 48.9406 164.947 48.1006 164.48C47.2606 164 46.6006 163.333 46.1206 162.48C45.6406 161.613 45.4006 160.613 45.4006 159.48C45.4006 158.36 45.6473 157.367 46.1406 156.5C46.634 155.633 47.3073 154.967 48.1606 154.5C49.014 154.033 49.9673 153.8 51.0206 153.8C52.074 153.8 53.0273 154.033 53.8806 154.5C54.734 154.967 55.4073 155.633 55.9006 156.5C56.394 157.367 56.6406 158.36 56.6406 159.48C56.6406 160.6 56.3873 161.593 55.8806 162.46C55.374 163.327 54.6806 164 53.8006 164.48C52.934 164.947 51.974 165.18 50.9206 165.18ZM50.9206 163.2C51.5073 163.2 52.054 163.06 52.5606 162.78C53.0806 162.5 53.5006 162.08 53.8206 161.52C54.1406 160.96 54.3006 160.28 54.3006 159.48C54.3006 158.68 54.1473 158.007 53.8406 157.46C53.534 156.9 53.1273 156.48 52.6206 156.2C52.114 155.92 51.5673 155.78 50.9806 155.78C50.394 155.78 49.8473 155.92 49.3406 156.2C48.8473 156.48 48.454 156.9 48.1606 157.46C47.8673 158.007 47.7206 158.68 47.7206 159.48C47.7206 160.667 48.0206 161.587 48.6206 162.24C49.234 162.88 50.0006 163.2 50.9206 163.2ZM68.8745 153.98V165H66.5945V163.7C66.2345 164.153 65.7612 164.513 65.1745 164.78C64.6012 165.033 63.9879 165.16 63.3345 165.16C62.4679 165.16 61.6879 164.98 60.9945 164.62C60.3145 164.26 59.7745 163.727 59.3745 163.02C58.9879 162.313 58.7945 161.46 58.7945 160.46V153.98H61.0545V160.12C61.0545 161.107 61.3012 161.867 61.7945 162.4C62.2879 162.92 62.9612 163.18 63.8145 163.18C64.6679 163.18 65.3412 162.92 65.8345 162.4C66.3412 161.867 66.5945 161.107 66.5945 160.12V153.98H68.8745ZM74.1628 155.58C74.4961 155.02 74.9361 154.587 75.4828 154.28C76.0428 153.96 76.7028 153.8 77.4628 153.8V156.16H76.8828C75.9895 156.16 75.3095 156.387 74.8428 156.84C74.3895 157.293 74.1628 158.08 74.1628 159.2V165H71.8828V153.98H74.1628V155.58ZM87.0339 155.62C87.4206 155.087 87.9472 154.653 88.6139 154.32C89.2939 153.973 90.0472 153.8 90.8739 153.8C91.8472 153.8 92.7272 154.033 93.5139 154.5C94.3006 154.967 94.9206 155.633 95.3739 156.5C95.8272 157.353 96.0539 158.333 96.0539 159.44C96.0539 160.547 95.8272 161.54 95.3739 162.42C94.9206 163.287 94.2939 163.967 93.4939 164.46C92.7072 164.94 91.8339 165.18 90.8739 165.18C90.0206 165.18 89.2606 165.013 88.5939 164.68C87.9406 164.347 87.4206 163.92 87.0339 163.4V165H84.7539V150.2H87.0339V155.62ZM93.7339 159.44C93.7339 158.68 93.5739 158.027 93.2539 157.48C92.9472 156.92 92.5339 156.5 92.0139 156.22C91.5072 155.927 90.9606 155.78 90.3739 155.78C89.8006 155.78 89.2539 155.927 88.7339 156.22C88.2272 156.513 87.8139 156.94 87.4939 157.5C87.1872 158.06 87.0339 158.72 87.0339 159.48C87.0339 160.24 87.1872 160.907 87.4939 161.48C87.8139 162.04 88.2272 162.467 88.7339 162.76C89.2539 163.053 89.8006 163.2 90.3739 163.2C90.9606 163.2 91.5072 163.053 92.0139 162.76C92.5339 162.453 92.9472 162.013 93.2539 161.44C93.5739 160.867 93.7339 160.2 93.7339 159.44ZM108.289 153.98V165H106.009V163.7C105.649 164.153 105.175 164.513 104.589 164.78C104.015 165.033 103.402 165.16 102.749 165.16C101.882 165.16 101.102 164.98 100.409 164.62C99.7286 164.26 99.1886 163.727 98.7886 163.02C98.4019 162.313 98.2086 161.46 98.2086 160.46V153.98H100.469V160.12C100.469 161.107 100.715 161.867 101.209 162.4C101.702 162.92 102.375 163.18 103.229 163.18C104.082 163.18 104.755 162.92 105.249 162.4C105.755 161.867 106.009 161.107 106.009 160.12V153.98H108.289ZM115.297 165.18C114.43 165.18 113.65 165.027 112.957 164.72C112.277 164.4 111.737 163.973 111.337 163.44C110.937 162.893 110.724 162.287 110.697 161.62H113.057C113.097 162.087 113.317 162.48 113.717 162.8C114.13 163.107 114.644 163.26 115.257 163.26C115.897 163.26 116.39 163.14 116.737 162.9C117.097 162.647 117.277 162.327 117.277 161.94C117.277 161.527 117.077 161.22 116.677 161.02C116.29 160.82 115.67 160.6 114.817 160.36C113.99 160.133 113.317 159.913 112.797 159.7C112.277 159.487 111.824 159.16 111.437 158.72C111.064 158.28 110.877 157.7 110.877 156.98C110.877 156.393 111.05 155.86 111.397 155.38C111.744 154.887 112.237 154.5 112.877 154.22C113.53 153.94 114.277 153.8 115.117 153.8C116.37 153.8 117.377 154.12 118.137 154.76C118.91 155.387 119.324 156.247 119.377 157.34H117.097C117.057 156.847 116.857 156.453 116.497 156.16C116.137 155.867 115.65 155.72 115.037 155.72C114.437 155.72 113.977 155.833 113.657 156.06C113.337 156.287 113.177 156.587 113.177 156.96C113.177 157.253 113.284 157.5 113.497 157.7C113.71 157.9 113.97 158.06 114.277 158.18C114.584 158.287 115.037 158.427 115.637 158.6C116.437 158.813 117.09 159.033 117.597 159.26C118.117 159.473 118.564 159.793 118.937 160.22C119.31 160.647 119.504 161.213 119.517 161.92C119.517 162.547 119.344 163.107 118.997 163.6C118.65 164.093 118.157 164.48 117.517 164.76C116.89 165.04 116.15 165.18 115.297 165.18ZM123.14 152.52C122.727 152.52 122.38 152.38 122.1 152.1C121.82 151.82 121.68 151.473 121.68 151.06C121.68 150.647 121.82 150.3 122.1 150.02C122.38 149.74 122.727 149.6 123.14 149.6C123.54 149.6 123.88 149.74 124.16 150.02C124.44 150.3 124.58 150.647 124.58 151.06C124.58 151.473 124.44 151.82 124.16 152.1C123.88 152.38 123.54 152.52 123.14 152.52ZM124.26 153.98V165H121.98V153.98H124.26ZM132.814 153.8C133.681 153.8 134.454 153.98 135.134 154.34C135.827 154.7 136.367 155.233 136.754 155.94C137.141 156.647 137.334 157.5 137.334 158.5V165H135.074V158.84C135.074 157.853 134.827 157.1 134.334 156.58C133.841 156.047 133.167 155.78 132.314 155.78C131.461 155.78 130.781 156.047 130.274 156.58C129.781 157.1 129.534 157.853 129.534 158.84V165H127.254V153.98H129.534V155.24C129.907 154.787 130.381 154.433 130.954 154.18C131.541 153.927 132.161 153.8 132.814 153.8ZM150.342 159.22C150.342 159.633 150.316 160.007 150.262 160.34H141.842C141.909 161.22 142.236 161.927 142.822 162.46C143.409 162.993 144.129 163.26 144.982 163.26C146.209 163.26 147.076 162.747 147.582 161.72H150.042C149.709 162.733 149.102 163.567 148.222 164.22C147.356 164.86 146.276 165.18 144.982 165.18C143.929 165.18 142.982 164.947 142.142 164.48C141.316 164 140.662 163.333 140.182 162.48C139.716 161.613 139.482 160.613 139.482 159.48C139.482 158.347 139.709 157.353 140.162 156.5C140.629 155.633 141.276 154.967 142.102 154.5C142.942 154.033 143.902 153.8 144.982 153.8C146.022 153.8 146.949 154.027 147.762 154.48C148.576 154.933 149.209 155.573 149.662 156.4C150.116 157.213 150.342 158.153 150.342 159.22ZM147.962 158.5C147.949 157.66 147.649 156.987 147.062 156.48C146.476 155.973 145.749 155.72 144.882 155.72C144.096 155.72 143.422 155.973 142.862 156.48C142.302 156.973 141.969 157.647 141.862 158.5H147.962ZM156.586 165.18C155.719 165.18 154.939 165.027 154.246 164.72C153.566 164.4 153.026 163.973 152.626 163.44C152.226 162.893 152.013 162.287 151.986 161.62H154.346C154.386 162.087 154.606 162.48 155.006 162.8C155.419 163.107 155.933 163.26 156.546 163.26C157.186 163.26 157.679 163.14 158.026 162.9C158.386 162.647 158.566 162.327 158.566 161.94C158.566 161.527 158.366 161.22 157.966 161.02C157.579 160.82 156.959 160.6 156.106 160.36C155.279 160.133 154.606 159.913 154.086 159.7C153.566 159.487 153.113 159.16 152.726 158.72C152.353 158.28 152.166 157.7 152.166 156.98C152.166 156.393 152.339 155.86 152.686 155.38C153.033 154.887 153.526 154.5 154.166 154.22C154.819 153.94 155.566 153.8 156.406 153.8C157.659 153.8 158.666 154.12 159.426 154.76C160.199 155.387 160.613 156.247 160.666 157.34H158.386C158.346 156.847 158.146 156.453 157.786 156.16C157.426 155.867 156.939 155.72 156.326 155.72C155.726 155.72 155.266 155.833 154.946 156.06C154.626 156.287 154.466 156.587 154.466 156.96C154.466 157.253 154.573 157.5 154.786 157.7C154.999 157.9 155.259 158.06 155.566 158.18C155.873 158.287 156.326 158.427 156.926 158.6C157.726 158.813 158.379 159.033 158.886 159.26C159.406 159.473 159.853 159.793 160.226 160.22C160.599 160.647 160.793 161.213 160.806 161.92C160.806 162.547 160.633 163.107 160.286 163.6C159.939 164.093 159.446 164.48 158.806 164.76C158.179 165.04 157.439 165.18 156.586 165.18ZM167.27 165.18C166.403 165.18 165.623 165.027 164.93 164.72C164.25 164.4 163.71 163.973 163.31 163.44C162.91 162.893 162.696 162.287 162.67 161.62H165.03C165.07 162.087 165.29 162.48 165.69 162.8C166.103 163.107 166.616 163.26 167.23 163.26C167.87 163.26 168.363 163.14 168.71 162.9C169.07 162.647 169.25 162.327 169.25 161.94C169.25 161.527 169.05 161.22 168.65 161.02C168.263 160.82 167.643 160.6 166.79 160.36C165.963 160.133 165.29 159.913 164.77 159.7C164.25 159.487 163.796 159.16 163.41 158.72C163.036 158.28 162.85 157.7 162.85 156.98C162.85 156.393 163.023 155.86 163.37 155.38C163.716 154.887 164.21 154.5 164.85 154.22C165.503 153.94 166.25 153.8 167.09 153.8C168.343 153.8 169.35 154.12 170.11 154.76C170.883 155.387 171.296 156.247 171.35 157.34H169.07C169.03 156.847 168.83 156.453 168.47 156.16C168.11 155.867 167.623 155.72 167.01 155.72C166.41 155.72 165.95 155.833 165.63 156.06C165.31 156.287 165.15 156.587 165.15 156.96C165.15 157.253 165.256 157.5 165.47 157.7C165.683 157.9 165.943 158.06 166.25 158.18C166.556 158.287 167.01 158.427 167.61 158.6C168.41 158.813 169.063 159.033 169.57 159.26C170.09 159.473 170.536 159.793 170.91 160.22C171.283 160.647 171.476 161.213 171.49 161.92C171.49 162.547 171.316 163.107 170.97 163.6C170.623 164.093 170.13 164.48 169.49 164.76C168.863 165.04 168.123 165.18 167.27 165.18ZM40.06 185.8C40.9267 185.8 41.7 185.98 42.38 186.34C43.0733 186.7 43.6133 187.233 44 187.94C44.3867 188.647 44.58 189.5 44.58 190.5V197H42.32V190.84C42.32 189.853 42.0733 189.1 41.58 188.58C41.0867 188.047 40.4133 187.78 39.56 187.78C38.7067 187.78 38.0267 188.047 37.52 188.58C37.0267 189.1 36.78 189.853 36.78 190.84V197H34.5V185.98H36.78V187.24C37.1533 186.787 37.6267 186.433 38.2 186.18C38.7867 185.927 39.4067 185.8 40.06 185.8ZM57.5883 191.22C57.5883 191.633 57.5616 192.007 57.5083 192.34H49.0883C49.1549 193.22 49.4816 193.927 50.0683 194.46C50.6549 194.993 51.3749 195.26 52.2283 195.26C53.4549 195.26 54.3216 194.747 54.8283 193.72H57.2883C56.9549 194.733 56.3483 195.567 55.4683 196.22C54.6016 196.86 53.5216 197.18 52.2283 197.18C51.1749 197.18 50.2283 196.947 49.3883 196.48C48.5616 196 47.9083 195.333 47.4283 194.48C46.9616 193.613 46.7283 192.613 46.7283 191.48C46.7283 190.347 46.9549 189.353 47.4083 188.5C47.8749 187.633 48.5216 186.967 49.3483 186.5C50.1883 186.033 51.1483 185.8 52.2283 185.8C53.2683 185.8 54.1949 186.027 55.0083 186.48C55.8216 186.933 56.4549 187.573 56.9083 188.4C57.3616 189.213 57.5883 190.153 57.5883 191.22ZM55.2083 190.5C55.1949 189.66 54.8949 188.987 54.3083 188.48C53.7216 187.973 52.9949 187.72 52.1283 187.72C51.3416 187.72 50.6683 187.973 50.1083 188.48C49.5483 188.973 49.2149 189.647 49.1083 190.5H55.2083ZM69.932 191.22C69.932 191.633 69.9054 192.007 69.852 192.34H61.432C61.4987 193.22 61.8254 193.927 62.412 194.46C62.9987 194.993 63.7187 195.26 64.572 195.26C65.7987 195.26 66.6654 194.747 67.172 193.72H69.632C69.2987 194.733 68.692 195.567 67.812 196.22C66.9454 196.86 65.8654 197.18 64.572 197.18C63.5187 197.18 62.572 196.947 61.732 196.48C60.9054 196 60.252 195.333 59.772 194.48C59.3054 193.613 59.072 192.613 59.072 191.48C59.072 190.347 59.2987 189.353 59.752 188.5C60.2187 187.633 60.8654 186.967 61.692 186.5C62.532 186.033 63.492 185.8 64.572 185.8C65.612 185.8 66.5387 186.027 67.352 186.48C68.1654 186.933 68.7987 187.573 69.252 188.4C69.7054 189.213 69.932 190.153 69.932 191.22ZM67.552 190.5C67.5387 189.66 67.2387 188.987 66.652 188.48C66.0654 187.973 65.3387 187.72 64.472 187.72C63.6854 187.72 63.012 187.973 62.452 188.48C61.892 188.973 61.5587 189.647 61.452 190.5H67.552ZM71.4158 191.44C71.4158 190.333 71.6424 189.353 72.0958 188.5C72.5624 187.647 73.1891 186.987 73.9758 186.52C74.7758 186.04 75.6624 185.8 76.6358 185.8C77.3558 185.8 78.0624 185.96 78.7558 186.28C79.4624 186.587 80.0224 187 80.4358 187.52V182.2H82.7358V197H80.4358V195.34C80.0624 195.873 79.5424 196.313 78.8758 196.66C78.2224 197.007 77.4691 197.18 76.6158 197.18C75.6558 197.18 74.7758 196.94 73.9758 196.46C73.1891 195.967 72.5624 195.287 72.0958 194.42C71.6424 193.54 71.4158 192.547 71.4158 191.44ZM80.4358 191.48C80.4358 190.72 80.2758 190.06 79.9558 189.5C79.6491 188.94 79.2424 188.513 78.7358 188.22C78.2291 187.927 77.6824 187.78 77.0958 187.78C76.5091 187.78 75.9624 187.927 75.4558 188.22C74.9491 188.5 74.5358 188.92 74.2158 189.48C73.9091 190.027 73.7558 190.68 73.7558 191.44C73.7558 192.2 73.9091 192.867 74.2158 193.44C74.5358 194.013 74.9491 194.453 75.4558 194.76C75.9758 195.053 76.5224 195.2 77.0958 195.2C77.6824 195.2 78.2291 195.053 78.7358 194.76C79.2424 194.467 79.6491 194.04 79.9558 193.48C80.2758 192.907 80.4358 192.24 80.4358 191.48ZM89.7305 197.18C88.8638 197.18 88.0838 197.027 87.3905 196.72C86.7105 196.4 86.1705 195.973 85.7705 195.44C85.3705 194.893 85.1571 194.287 85.1305 193.62H87.4905C87.5305 194.087 87.7505 194.48 88.1505 194.8C88.5638 195.107 89.0771 195.26 89.6905 195.26C90.3305 195.26 90.8238 195.14 91.1705 194.9C91.5305 194.647 91.7105 194.327 91.7105 193.94C91.7105 193.527 91.5105 193.22 91.1105 193.02C90.7238 192.82 90.1038 192.6 89.2505 192.36C88.4238 192.133 87.7505 191.913 87.2305 191.7C86.7105 191.487 86.2571 191.16 85.8705 190.72C85.4971 190.28 85.3105 189.7 85.3105 188.98C85.3105 188.393 85.4838 187.86 85.8305 187.38C86.1771 186.887 86.6705 186.5 87.3105 186.22C87.9638 185.94 88.7105 185.8 89.5505 185.8C90.8038 185.8 91.8105 186.12 92.5705 186.76C93.3438 187.387 93.7571 188.247 93.8105 189.34H91.5305C91.4905 188.847 91.2905 188.453 90.9305 188.16C90.5705 187.867 90.0838 187.72 89.4705 187.72C88.8705 187.72 88.4105 187.833 88.0905 188.06C87.7705 188.287 87.6105 188.587 87.6105 188.96C87.6105 189.253 87.7171 189.5 87.9305 189.7C88.1438 189.9 88.4038 190.06 88.7105 190.18C89.0171 190.287 89.4705 190.427 90.0705 190.6C90.8705 190.813 91.5238 191.033 92.0305 191.26C92.5505 191.473 92.9971 191.793 93.3705 192.22C93.7438 192.647 93.9371 193.213 93.9505 193.92C93.9505 194.547 93.7771 195.107 93.4305 195.6C93.0838 196.093 92.5905 196.48 91.9505 196.76C91.3238 197.04 90.5838 197.18 89.7305 197.18Z" fill="#444444"/>
<path d="M46.608 40.152V43.44H42.144V57H38.04V43.44H33.576V40.152H46.608ZM47.8517 50.28C47.8517 48.904 48.1077 47.696 48.6197 46.656C49.1477 45.616 49.8597 44.816 50.7557 44.256C51.6517 43.696 52.6517 43.416 53.7557 43.416C54.6997 43.416 55.5237 43.608 56.2277 43.992C56.9477 44.376 57.4997 44.88 57.8837 45.504V43.608H61.9877V57H57.8837V55.104C57.4837 55.728 56.9237 56.232 56.2037 56.616C55.4997 57 54.6757 57.192 53.7317 57.192C52.6437 57.192 51.6517 56.912 50.7557 56.352C49.8597 55.776 49.1477 54.968 48.6197 53.928C48.1077 52.872 47.8517 51.656 47.8517 50.28ZM57.8837 50.304C57.8837 49.28 57.5957 48.472 57.0197 47.88C56.4597 47.288 55.7717 46.992 54.9557 46.992C54.1397 46.992 53.4437 47.288 52.8677 47.88C52.3077 48.456 52.0277 49.256 52.0277 50.28C52.0277 51.304 52.3077 52.12 52.8677 52.728C53.4437 53.32 54.1397 53.616 54.9557 53.616C55.7717 53.616 56.4597 53.32 57.0197 52.728C57.5957 52.136 57.8837 51.328 57.8837 50.304ZM67.0208 42.216C66.3008 42.216 65.7088 42.008 65.2448 41.592C64.7968 41.16 64.5728 40.632 64.5728 40.008C64.5728 39.368 64.7968 38.84 65.2448 38.424C65.7088 37.992 66.3008 37.776 67.0208 37.776C67.7248 37.776 68.3008 37.992 68.7488 38.424C69.2128 38.84 69.4448 39.368 69.4448 40.008C69.4448 40.632 69.2128 41.16 68.7488 41.592C68.3008 42.008 67.7248 42.216 67.0208 42.216ZM69.0608 43.608V57H64.9568V43.608H69.0608ZM76.1389 39.24V57H72.0349V39.24H76.1389ZM85.209 57.192C83.897 57.192 82.713 56.912 81.657 56.352C80.617 55.792 79.793 54.992 79.185 53.952C78.593 52.912 78.297 51.696 78.297 50.304C78.297 48.928 78.601 47.72 79.209 46.68C79.817 45.624 80.649 44.816 81.705 44.256C82.761 43.696 83.945 43.416 85.257 43.416C86.569 43.416 87.753 43.696 88.809 44.256C89.865 44.816 90.697 45.624 91.305 46.68C91.913 47.72 92.217 48.928 92.217 50.304C92.217 51.68 91.905 52.896 91.281 53.952C90.673 54.992 89.833 55.792 88.761 56.352C87.705 56.912 86.521 57.192 85.209 57.192ZM85.209 53.64C85.993 53.64 86.657 53.352 87.201 52.776C87.761 52.2 88.041 51.376 88.041 50.304C88.041 49.232 87.769 48.408 87.225 47.832C86.697 47.256 86.041 46.968 85.257 46.968C84.457 46.968 83.793 47.256 83.265 47.832C82.737 48.392 82.473 49.216 82.473 50.304C82.473 51.376 82.729 52.2 83.241 52.776C83.769 53.352 84.425 53.64 85.209 53.64ZM98.4983 45.84C98.9783 45.104 99.5783 44.528 100.298 44.112C101.018 43.68 101.818 43.464 102.698 43.464V47.808H101.57C100.546 47.808 99.7783 48.032 99.2663 48.48C98.7543 48.912 98.4983 49.68 98.4983 50.784V57H94.3943V43.608H98.4983V45.84ZM117.284 50.088C117.284 50.472 117.26 50.872 117.212 51.288H107.924C107.988 52.12 108.252 52.76 108.716 53.208C109.196 53.64 109.78 53.856 110.468 53.856C111.492 53.856 112.204 53.424 112.604 52.56H116.972C116.748 53.44 116.34 54.232 115.748 54.936C115.172 55.64 114.444 56.192 113.564 56.592C112.684 56.992 111.7 57.192 110.612 57.192C109.3 57.192 108.132 56.912 107.108 56.352C106.084 55.792 105.284 54.992 104.708 53.952C104.132 52.912 103.844 51.696 103.844 50.304C103.844 48.912 104.124 47.696 104.684 46.656C105.26 45.616 106.06 44.816 107.084 44.256C108.108 43.696 109.284 43.416 110.612 43.416C111.908 43.416 113.06 43.688 114.068 44.232C115.076 44.776 115.86 45.552 116.42 46.56C116.996 47.568 117.284 48.744 117.284 50.088ZM113.084 49.008C113.084 48.304 112.844 47.744 112.364 47.328C111.884 46.912 111.284 46.704 110.564 46.704C109.876 46.704 109.292 46.904 108.812 47.304C108.348 47.704 108.06 48.272 107.948 49.008H113.084ZM118.633 50.28C118.633 48.904 118.889 47.696 119.401 46.656C119.929 45.616 120.641 44.816 121.537 44.256C122.433 43.696 123.433 43.416 124.537 43.416C125.417 43.416 126.217 43.6 126.937 43.968C127.673 44.336 128.249 44.832 128.665 45.456V39.24H132.769V57H128.665V55.08C128.281 55.72 127.729 56.232 127.009 56.616C126.305 57 125.481 57.192 124.537 57.192C123.433 57.192 122.433 56.912 121.537 56.352C120.641 55.776 119.929 54.968 119.401 53.928C118.889 52.872 118.633 51.656 118.633 50.28ZM128.665 50.304C128.665 49.28 128.377 48.472 127.801 47.88C127.241 47.288 126.553 46.992 125.737 46.992C124.921 46.992 124.225 47.288 123.649 47.88C123.089 48.456 122.809 49.256 122.809 50.28C122.809 51.304 123.089 52.12 123.649 52.728C124.225 53.32 124.921 53.616 125.737 53.616C126.553 53.616 127.241 53.32 127.801 52.728C128.377 52.136 128.665 51.328 128.665 50.304ZM153.664 45.576C153.664 46.552 153.44 47.448 152.992 48.264C152.544 49.064 151.856 49.712 150.928 50.208C150 50.704 148.848 50.952 147.472 50.952H144.928V57H140.824V40.152H147.472C148.816 40.152 149.952 40.384 150.88 40.848C151.808 41.312 152.504 41.952 152.968 42.768C153.432 43.584 153.664 44.52 153.664 45.576ZM147.16 47.688C147.944 47.688 148.528 47.504 148.912 47.136C149.296 46.768 149.488 46.248 149.488 45.576C149.488 44.904 149.296 44.384 148.912 44.016C148.528 43.648 147.944 43.464 147.16 43.464H144.928V47.688H147.16ZM154.985 50.28C154.985 48.904 155.241 47.696 155.753 46.656C156.281 45.616 156.993 44.816 157.889 44.256C158.785 43.696 159.785 43.416 160.889 43.416C161.833 43.416 162.657 43.608 163.361 43.992C164.081 44.376 164.633 44.88 165.017 45.504V43.608H169.121V57H165.017V55.104C164.617 55.728 164.057 56.232 163.337 56.616C162.633 57 161.809 57.192 160.865 57.192C159.777 57.192 158.785 56.912 157.889 56.352C156.993 55.776 156.281 54.968 155.753 53.928C155.241 52.872 154.985 51.656 154.985 50.28ZM165.017 50.304C165.017 49.28 164.729 48.472 164.153 47.88C163.593 47.288 162.905 46.992 162.089 46.992C161.273 46.992 160.577 47.288 160.001 47.88C159.441 48.456 159.161 49.256 159.161 50.28C159.161 51.304 159.441 52.12 160.001 52.728C160.577 53.32 161.273 53.616 162.089 53.616C162.905 53.616 163.593 53.32 164.153 52.728C164.729 52.136 165.017 51.328 165.017 50.304ZM171.274 50.304C171.274 48.912 171.554 47.696 172.114 46.656C172.69 45.616 173.482 44.816 174.49 44.256C175.514 43.696 176.682 43.416 177.994 43.416C179.674 43.416 181.074 43.856 182.194 44.736C183.33 45.616 184.074 46.856 184.426 48.456H180.058C179.69 47.432 178.978 46.92 177.922 46.92C177.17 46.92 176.57 47.216 176.122 47.808C175.674 48.384 175.45 49.216 175.45 50.304C175.45 51.392 175.674 52.232 176.122 52.824C176.57 53.4 177.17 53.688 177.922 53.688C178.978 53.688 179.69 53.176 180.058 52.152H184.426C184.074 53.72 183.33 54.952 182.194 55.848C181.058 56.744 179.658 57.192 177.994 57.192C176.682 57.192 175.514 56.912 174.49 56.352C173.482 55.792 172.69 54.992 172.114 53.952C171.554 52.912 171.274 51.696 171.274 50.304ZM194.805 57L190.725 51.384V57H186.621V39.24H190.725V49.056L194.781 43.608H199.845L194.277 50.328L199.893 57H194.805ZM200.641 50.28C200.641 48.904 200.897 47.696 201.409 46.656C201.937 45.616 202.649 44.816 203.545 44.256C204.441 43.696 205.441 43.416 206.545 43.416C207.489 43.416 208.313 43.608 209.017 43.992C209.737 44.376 210.289 44.88 210.673 45.504V43.608H214.777V57H210.673V55.104C210.273 55.728 209.713 56.232 208.993 56.616C208.289 57 207.465 57.192 206.521 57.192C205.433 57.192 204.441 56.912 203.545 56.352C202.649 55.776 201.937 54.968 201.409 53.928C200.897 52.872 200.641 51.656 200.641 50.28ZM210.673 50.304C210.673 49.28 210.385 48.472 209.809 47.88C209.249 47.288 208.561 46.992 207.745 46.992C206.929 46.992 206.233 47.288 205.657 47.88C205.097 48.456 204.817 49.256 204.817 50.28C204.817 51.304 205.097 52.12 205.657 52.728C206.233 53.32 206.929 53.616 207.745 53.616C208.561 53.616 209.249 53.32 209.809 52.728C210.385 52.136 210.673 51.328 210.673 50.304ZM222.834 43.416C223.778 43.416 224.602 43.608 225.306 43.992C226.026 44.376 226.578 44.88 226.962 45.504V43.608H231.066V56.976C231.066 58.208 230.818 59.32 230.322 60.312C229.842 61.32 229.098 62.12 228.09 62.712C227.098 63.304 225.858 63.6 224.37 63.6C222.386 63.6 220.778 63.128 219.546 62.184C218.314 61.256 217.61 59.992 217.434 58.392H221.49C221.618 58.904 221.922 59.304 222.402 59.592C222.882 59.896 223.474 60.048 224.178 60.048C225.026 60.048 225.698 59.8 226.194 59.304C226.706 58.824 226.962 58.048 226.962 56.976V55.08C226.562 55.704 226.01 56.216 225.306 56.616C224.602 57 223.778 57.192 222.834 57.192C221.73 57.192 220.73 56.912 219.834 56.352C218.938 55.776 218.226 54.968 217.698 53.928C217.186 52.872 216.93 51.656 216.93 50.28C216.93 48.904 217.186 47.696 217.698 46.656C218.226 45.616 218.938 44.816 219.834 44.256C220.73 43.696 221.73 43.416 222.834 43.416ZM226.962 50.304C226.962 49.28 226.674 48.472 226.098 47.88C225.538 47.288 224.85 46.992 224.034 46.992C223.218 46.992 222.522 47.288 221.946 47.88C221.386 48.456 221.106 49.256 221.106 50.28C221.106 51.304 221.386 52.12 221.946 52.728C222.522 53.32 223.218 53.616 224.034 53.616C224.85 53.616 225.538 53.32 226.098 52.728C226.674 52.136 226.962 51.328 226.962 50.304ZM246.659 50.088C246.659 50.472 246.635 50.872 246.587 51.288H237.299C237.363 52.12 237.627 52.76 238.091 53.208C238.571 53.64 239.155 53.856 239.843 53.856C240.867 53.856 241.579 53.424 241.979 52.56H246.347C246.123 53.44 245.715 54.232 245.123 54.936C244.547 55.64 243.819 56.192 242.939 56.592C242.059 56.992 241.075 57.192 239.987 57.192C238.675 57.192 237.507 56.912 236.483 56.352C235.459 55.792 234.659 54.992 234.083 53.952C233.507 52.912 233.219 51.696 233.219 50.304C233.219 48.912 233.499 47.696 234.059 46.656C234.635 45.616 235.435 44.816 236.459 44.256C237.483 43.696 238.659 43.416 239.987 43.416C241.283 43.416 242.435 43.688 243.443 44.232C244.451 44.776 245.235 45.552 245.795 46.56C246.371 47.568 246.659 48.744 246.659 50.088ZM242.459 49.008C242.459 48.304 242.219 47.744 241.739 47.328C241.259 46.912 240.659 46.704 239.939 46.704C239.251 46.704 238.667 46.904 238.187 47.304C237.723 47.704 237.435 48.272 237.323 49.008H242.459ZM254.272 57.192C253.104 57.192 252.064 56.992 251.152 56.592C250.24 56.192 249.52 55.648 248.992 54.96C248.464 54.256 248.168 53.472 248.104 52.608H252.16C252.208 53.072 252.424 53.448 252.808 53.736C253.192 54.024 253.664 54.168 254.224 54.168C254.736 54.168 255.128 54.072 255.4 53.88C255.688 53.672 255.832 53.408 255.832 53.088C255.832 52.704 255.632 52.424 255.232 52.248C254.832 52.056 254.184 51.848 253.288 51.624C252.328 51.4 251.528 51.168 250.888 50.928C250.248 50.672 249.696 50.28 249.232 49.752C248.768 49.208 248.536 48.48 248.536 47.568C248.536 46.8 248.744 46.104 249.16 45.48C249.592 44.84 250.216 44.336 251.032 43.968C251.864 43.6 252.848 43.416 253.984 43.416C255.664 43.416 256.984 43.832 257.944 44.664C258.92 45.496 259.48 46.6 259.624 47.976H255.832C255.768 47.512 255.56 47.144 255.208 46.872C254.872 46.6 254.424 46.464 253.864 46.464C253.384 46.464 253.016 46.56 252.76 46.752C252.504 46.928 252.376 47.176 252.376 47.496C252.376 47.88 252.576 48.168 252.976 48.36C253.392 48.552 254.032 48.744 254.896 48.936C255.888 49.192 256.696 49.448 257.32 49.704C257.944 49.944 258.488 50.344 258.952 50.904C259.432 51.448 259.68 52.184 259.696 53.112C259.696 53.896 259.472 54.6 259.024 55.224C258.592 55.832 257.96 56.312 257.128 56.664C256.312 57.016 255.36 57.192 254.272 57.192Z" fill="#444444"/>
<rect x="210" y="210" width="70" height="70" rx="16" fill="#EF6C0D"/>
<path d="M228.496 244.75C228.496 241.31 229.156 238.6 230.476 236.62C231.816 234.64 233.966 233.65 236.926 233.65C239.886 233.65 242.026 234.64 243.346 236.62C244.686 238.6 245.356 241.31 245.356 244.75C245.356 248.23 244.686 250.96 243.346 252.94C242.026 254.92 239.886 255.91 236.926 255.91C233.966 255.91 231.816 254.92 230.476 252.94C229.156 250.96 228.496 248.23 228.496 244.75ZM240.316 244.75C240.316 242.73 240.096 241.18 239.656 240.1C239.216 239 238.306 238.45 236.926 238.45C235.546 238.45 234.636 239 234.196 240.1C233.756 241.18 233.536 242.73 233.536 244.75C233.536 246.11 233.616 247.24 233.776 248.14C233.936 249.02 234.256 249.74 234.736 250.3C235.236 250.84 235.966 251.11 236.926 251.11C237.886 251.11 238.606 250.84 239.086 250.3C239.586 249.74 239.916 249.02 240.076 248.14C240.236 247.24 240.316 246.11 240.316 244.75ZM247.886 251.89C248.566 251.35 248.876 251.1 248.816 251.14C250.776 249.52 252.316 248.19 253.436 247.15C254.576 246.11 255.536 245.02 256.316 243.88C257.096 242.74 257.486 241.63 257.486 240.55C257.486 239.73 257.296 239.09 256.916 238.63C256.536 238.17 255.966 237.94 255.206 237.94C254.446 237.94 253.846 238.23 253.406 238.81C252.986 239.37 252.776 240.17 252.776 241.21H247.826C247.866 239.51 248.226 238.09 248.906 236.95C249.606 235.81 250.516 234.97 251.636 234.43C252.776 233.89 254.036 233.62 255.416 233.62C257.796 233.62 259.586 234.23 260.786 235.45C262.006 236.67 262.616 238.26 262.616 240.22C262.616 242.36 261.886 244.35 260.426 246.19C258.966 248.01 257.106 249.79 254.846 251.53H262.946V255.7H247.886V251.89Z" fill="white"/>
</svg>
