<svg width="280" height="280" viewBox="0 0 280 280" fill="none" xmlns="http://www.w3.org/2000/svg">
<path fill-rule="evenodd" clip-rule="evenodd" d="M280 30C280 13.4315 266.569 0 250 0H30C13.4315 0 0 13.4315 0 30V250C0 266.569 13.4315 280 30 280H159.5C176.069 280 189.5 266.569 189.5 250V218C189.5 201.431 202.931 188 219.5 188H260C271.046 188 280 179.046 280 168V30Z" fill="#444444"/>
<path fill-rule="evenodd" clip-rule="evenodd" d="M280 30C280 13.4315 266.569 0 250 0H30C13.4315 0 0 13.4315 0 30V250C0 266.569 13.4315 280 30 280H159.5C176.069 280 189.5 266.569 189.5 250V218C189.5 201.431 202.931 188 219.5 188H260C271.046 188 280 179.046 280 168V30Z" fill="white" fill-opacity="0.95"/>
<path d="M44.56 91.1C44.2 90.4067 43.7 89.8867 43.06 89.54C42.42 89.18 41.68 89 40.84 89C39.92 89 39.1 89.2067 38.38 89.62C37.66 90.0333 37.0933 90.62 36.68 91.38C36.28 92.14 36.08 93.02 36.08 94.02C36.08 95.02 36.28 95.9067 36.68 96.68C37.0933 97.44 37.66 98.0267 38.38 98.44C39.1 98.8533 39.92 99.06 40.84 99.06C42.08 99.06 43.0867 98.7133 43.86 98.02C44.6333 97.3267 45.1067 96.3867 45.28 95.2H40.06V93.38H47.72V95.16C47.5733 96.24 47.1867 97.2333 46.56 98.14C45.9467 99.0467 45.14 99.7733 44.14 100.32C43.1533 100.853 42.0533 101.12 40.84 101.12C39.5333 101.12 38.34 100.82 37.26 100.22C36.18 99.6067 35.32 98.76 34.68 97.68C34.0533 96.6 33.74 95.38 33.74 94.02C33.74 92.66 34.0533 91.44 34.68 90.36C35.32 89.28 36.18 88.44 37.26 87.84C38.3533 87.2267 39.5467 86.92 40.84 86.92C42.32 86.92 43.6333 87.2867 44.78 88.02C45.94 88.74 46.78 89.7667 47.3 91.1H44.56ZM60.0688 95.22C60.0688 95.6333 60.0421 96.0067 59.9888 96.34H51.5688C51.6354 97.22 51.9621 97.9267 52.5488 98.46C53.1354 98.9933 53.8554 99.26 54.7088 99.26C55.9354 99.26 56.8021 98.7467 57.3088 97.72H59.7687C59.4354 98.7333 58.8288 99.5667 57.9488 100.22C57.0821 100.86 56.0021 101.18 54.7088 101.18C53.6554 101.18 52.7088 100.947 51.8688 100.48C51.0421 100 50.3888 99.3333 49.9088 98.48C49.4421 97.6133 49.2088 96.6133 49.2088 95.48C49.2088 94.3467 49.4354 93.3533 49.8888 92.5C50.3554 91.6333 51.0021 90.9667 51.8288 90.5C52.6688 90.0333 53.6288 89.8 54.7088 89.8C55.7488 89.8 56.6754 90.0267 57.4888 90.48C58.3021 90.9333 58.9354 91.5733 59.3888 92.4C59.8421 93.2133 60.0688 94.1533 60.0688 95.22ZM57.6888 94.5C57.6754 93.66 57.3754 92.9867 56.7888 92.48C56.2021 91.9733 55.4754 91.72 54.6088 91.72C53.8221 91.72 53.1488 91.9733 52.5888 92.48C52.0288 92.9733 51.6954 93.6467 51.5888 94.5H57.6888ZM64.9725 91.84V97.94C64.9725 98.3533 65.0658 98.6533 65.2525 98.84C65.4525 99.0133 65.7858 99.1 66.2525 99.1H67.6525V101H65.8525C64.8258 101 64.0392 100.76 63.4925 100.28C62.9458 99.8 62.6725 99.02 62.6725 97.94V91.84H61.3725V89.98H62.6725V87.24H64.9725V89.98H67.6525V91.84H64.9725ZM77.2292 91.6C77.6159 91.0933 78.1426 90.6667 78.8092 90.32C79.4759 89.9733 80.2292 89.8 81.0692 89.8C82.0292 89.8 82.9026 90.04 83.6892 90.52C84.4892 90.9867 85.1159 91.6467 85.5692 92.5C86.0226 93.3533 86.2492 94.3333 86.2492 95.44C86.2492 96.5467 86.0226 97.54 85.5692 98.42C85.1159 99.2867 84.4892 99.9667 83.6892 100.46C82.9026 100.94 82.0292 101.18 81.0692 101.18C80.2292 101.18 79.4826 101.013 78.8292 100.68C78.1759 100.333 77.6426 99.9067 77.2292 99.4V106.24H74.9492V89.98H77.2292V91.6ZM83.9292 95.44C83.9292 94.68 83.7692 94.0267 83.4492 93.48C83.1426 92.92 82.7292 92.5 82.2092 92.22C81.7026 91.9267 81.1559 91.78 80.5692 91.78C79.9959 91.78 79.4492 91.9267 78.9292 92.22C78.4226 92.5133 78.0092 92.94 77.6892 93.5C77.3826 94.06 77.2292 94.72 77.2292 95.48C77.2292 96.24 77.3826 96.9067 77.6892 97.48C78.0092 98.04 78.4226 98.4667 78.9292 98.76C79.4492 99.0533 79.9959 99.2 80.5692 99.2C81.1559 99.2 81.7026 99.0533 82.2092 98.76C82.7292 98.4533 83.1426 98.0133 83.4492 97.44C83.7692 96.8667 83.9292 96.2 83.9292 95.44ZM90.7839 91.58C91.1172 91.02 91.5572 90.5867 92.1039 90.28C92.6639 89.96 93.3239 89.8 94.0839 89.8V92.16H93.5039C92.6106 92.16 91.9306 92.3867 91.4639 92.84C91.0106 93.2933 90.7839 94.08 90.7839 95.2V101H88.5039V89.98H90.7839V91.58ZM100.96 101.18C99.9197 101.18 98.9797 100.947 98.1397 100.48C97.2997 100 96.6397 99.3333 96.1597 98.48C95.6797 97.6133 95.4397 96.6133 95.4397 95.48C95.4397 94.36 95.6864 93.3667 96.1797 92.5C96.673 91.6333 97.3464 90.9667 98.1997 90.5C99.053 90.0333 100.006 89.8 101.06 89.8C102.113 89.8 103.066 90.0333 103.92 90.5C104.773 90.9667 105.446 91.6333 105.94 92.5C106.433 93.3667 106.68 94.36 106.68 95.48C106.68 96.6 106.426 97.5933 105.92 98.46C105.413 99.3267 104.72 100 103.84 100.48C102.973 100.947 102.013 101.18 100.96 101.18ZM100.96 99.2C101.546 99.2 102.093 99.06 102.6 98.78C103.12 98.5 103.54 98.08 103.86 97.52C104.18 96.96 104.34 96.28 104.34 95.48C104.34 94.68 104.186 94.0067 103.88 93.46C103.573 92.9 103.166 92.48 102.66 92.2C102.153 91.92 101.606 91.78 101.02 91.78C100.433 91.78 99.8864 91.92 99.3797 92.2C98.8864 92.48 98.493 92.9 98.1997 93.46C97.9064 94.0067 97.7597 94.68 97.7597 95.48C97.7597 96.6667 98.0597 97.5867 98.6597 98.24C99.273 98.88 100.04 99.2 100.96 99.2ZM113.554 91.84H111.514V101H109.214V91.84H107.914V89.98H109.214V89.2C109.214 87.9333 109.547 87.0133 110.214 86.44C110.894 85.8533 111.954 85.56 113.394 85.56V87.46C112.7 87.46 112.214 87.5933 111.934 87.86C111.654 88.1133 111.514 88.56 111.514 89.2V89.98H113.554V91.84ZM125.674 95.22C125.674 95.6333 125.648 96.0067 125.594 96.34H117.174C117.241 97.22 117.568 97.9267 118.154 98.46C118.741 98.9933 119.461 99.26 120.314 99.26C121.541 99.26 122.408 98.7467 122.914 97.72H125.374C125.041 98.7333 124.434 99.5667 123.554 100.22C122.688 100.86 121.608 101.18 120.314 101.18C119.261 101.18 118.314 100.947 117.474 100.48C116.648 100 115.994 99.3333 115.514 98.48C115.048 97.6133 114.814 96.6133 114.814 95.48C114.814 94.3467 115.041 93.3533 115.494 92.5C115.961 91.6333 116.608 90.9667 117.434 90.5C118.274 90.0333 119.234 89.8 120.314 89.8C121.354 89.8 122.281 90.0267 123.094 90.48C123.908 90.9333 124.541 91.5733 124.994 92.4C125.448 93.2133 125.674 94.1533 125.674 95.22ZM123.294 94.5C123.281 93.66 122.981 92.9867 122.394 92.48C121.808 91.9733 121.081 91.72 120.214 91.72C119.428 91.72 118.754 91.9733 118.194 92.48C117.634 92.9733 117.301 93.6467 117.194 94.5H123.294ZM131.918 101.18C131.051 101.18 130.271 101.027 129.578 100.72C128.898 100.4 128.358 99.9733 127.958 99.44C127.558 98.8933 127.345 98.2867 127.318 97.62H129.678C129.718 98.0867 129.938 98.48 130.338 98.8C130.751 99.1067 131.265 99.26 131.878 99.26C132.518 99.26 133.011 99.14 133.358 98.9C133.718 98.6467 133.898 98.3267 133.898 97.94C133.898 97.5267 133.698 97.22 133.298 97.02C132.911 96.82 132.291 96.6 131.438 96.36C130.611 96.1333 129.938 95.9133 129.418 95.7C128.898 95.4867 128.445 95.16 128.058 94.72C127.685 94.28 127.498 93.7 127.498 92.98C127.498 92.3933 127.671 91.86 128.018 91.38C128.365 90.8867 128.858 90.5 129.498 90.22C130.151 89.94 130.898 89.8 131.738 89.8C132.991 89.8 133.998 90.12 134.758 90.76C135.531 91.3867 135.945 92.2467 135.998 93.34H133.718C133.678 92.8467 133.478 92.4533 133.118 92.16C132.758 91.8667 132.271 91.72 131.658 91.72C131.058 91.72 130.598 91.8333 130.278 92.06C129.958 92.2867 129.798 92.5867 129.798 92.96C129.798 93.2533 129.905 93.5 130.118 93.7C130.331 93.9 130.591 94.06 130.898 94.18C131.205 94.2867 131.658 94.4267 132.258 94.6C133.058 94.8133 133.711 95.0333 134.218 95.26C134.738 95.4733 135.185 95.7933 135.558 96.22C135.931 96.6467 136.125 97.2133 136.138 97.92C136.138 98.5467 135.965 99.1067 135.618 99.6C135.271 100.093 134.778 100.48 134.138 100.76C133.511 101.04 132.771 101.18 131.918 101.18ZM142.602 101.18C141.735 101.18 140.955 101.027 140.262 100.72C139.582 100.4 139.042 99.9733 138.642 99.44C138.242 98.8933 138.028 98.2867 138.002 97.62H140.362C140.402 98.0867 140.622 98.48 141.022 98.8C141.435 99.1067 141.948 99.26 142.562 99.26C143.202 99.26 143.695 99.14 144.042 98.9C144.402 98.6467 144.582 98.3267 144.582 97.94C144.582 97.5267 144.382 97.22 143.982 97.02C143.595 96.82 142.975 96.6 142.122 96.36C141.295 96.1333 140.622 95.9133 140.102 95.7C139.582 95.4867 139.128 95.16 138.742 94.72C138.368 94.28 138.182 93.7 138.182 92.98C138.182 92.3933 138.355 91.86 138.702 91.38C139.048 90.8867 139.542 90.5 140.182 90.22C140.835 89.94 141.582 89.8 142.422 89.8C143.675 89.8 144.682 90.12 145.442 90.76C146.215 91.3867 146.628 92.2467 146.682 93.34H144.402C144.362 92.8467 144.162 92.4533 143.802 92.16C143.442 91.8667 142.955 91.72 142.342 91.72C141.742 91.72 141.282 91.8333 140.962 92.06C140.642 92.2867 140.482 92.5867 140.482 92.96C140.482 93.2533 140.588 93.5 140.802 93.7C141.015 93.9 141.275 94.06 141.582 94.18C141.888 94.2867 142.342 94.4267 142.942 94.6C143.742 94.8133 144.395 95.0333 144.902 95.26C145.422 95.4733 145.868 95.7933 146.242 96.22C146.615 96.6467 146.808 97.2133 146.822 97.92C146.822 98.5467 146.648 99.1067 146.302 99.6C145.955 100.093 145.462 100.48 144.822 100.76C144.195 101.04 143.455 101.18 142.602 101.18ZM150.445 88.52C150.032 88.52 149.685 88.38 149.405 88.1C149.125 87.82 148.985 87.4733 148.985 87.06C148.985 86.6467 149.125 86.3 149.405 86.02C149.685 85.74 150.032 85.6 150.445 85.6C150.845 85.6 151.185 85.74 151.465 86.02C151.745 86.3 151.885 86.6467 151.885 87.06C151.885 87.4733 151.745 87.82 151.465 88.1C151.185 88.38 150.845 88.52 150.445 88.52ZM151.565 89.98V101H149.285V89.98H151.565ZM159.339 101.18C158.299 101.18 157.359 100.947 156.519 100.48C155.679 100 155.019 99.3333 154.539 98.48C154.059 97.6133 153.819 96.6133 153.819 95.48C153.819 94.36 154.065 93.3667 154.559 92.5C155.052 91.6333 155.725 90.9667 156.579 90.5C157.432 90.0333 158.385 89.8 159.439 89.8C160.492 89.8 161.445 90.0333 162.299 90.5C163.152 90.9667 163.825 91.6333 164.319 92.5C164.812 93.3667 165.059 94.36 165.059 95.48C165.059 96.6 164.805 97.5933 164.299 98.46C163.792 99.3267 163.099 100 162.219 100.48C161.352 100.947 160.392 101.18 159.339 101.18ZM159.339 99.2C159.925 99.2 160.472 99.06 160.979 98.78C161.499 98.5 161.919 98.08 162.239 97.52C162.559 96.96 162.719 96.28 162.719 95.48C162.719 94.68 162.565 94.0067 162.259 93.46C161.952 92.9 161.545 92.48 161.039 92.2C160.532 91.92 159.985 91.78 159.399 91.78C158.812 91.78 158.265 91.92 157.759 92.2C157.265 92.48 156.872 92.9 156.579 93.46C156.285 94.0067 156.139 94.68 156.139 95.48C156.139 96.6667 156.439 97.5867 157.039 98.24C157.652 98.88 158.419 99.2 159.339 99.2ZM172.873 89.8C173.739 89.8 174.513 89.98 175.193 90.34C175.886 90.7 176.426 91.2333 176.813 91.94C177.199 92.6467 177.393 93.5 177.393 94.5V101H175.133V94.84C175.133 93.8533 174.886 93.1 174.393 92.58C173.899 92.0467 173.226 91.78 172.373 91.78C171.519 91.78 170.839 92.0467 170.333 92.58C169.839 93.1 169.593 93.8533 169.593 94.84V101H167.313V89.98H169.593V91.24C169.966 90.7867 170.439 90.4333 171.013 90.18C171.599 89.9267 172.219 89.8 172.873 89.8ZM179.541 95.44C179.541 94.3333 179.767 93.3533 180.221 92.5C180.687 91.6467 181.314 90.9867 182.101 90.52C182.901 90.04 183.781 89.8 184.741 89.8C185.607 89.8 186.361 89.9733 187.001 90.32C187.654 90.6533 188.174 91.0733 188.561 91.58V89.98H190.861V101H188.561V99.36C188.174 99.88 187.647 100.313 186.981 100.66C186.314 101.007 185.554 101.18 184.701 101.18C183.754 101.18 182.887 100.94 182.101 100.46C181.314 99.9667 180.687 99.2867 180.221 98.42C179.767 97.54 179.541 96.5467 179.541 95.44ZM188.561 95.48C188.561 94.72 188.401 94.06 188.081 93.5C187.774 92.94 187.367 92.5133 186.861 92.22C186.354 91.9267 185.807 91.78 185.221 91.78C184.634 91.78 184.087 91.9267 183.581 92.22C183.074 92.5 182.661 92.92 182.341 93.48C182.034 94.0267 181.881 94.68 181.881 95.44C181.881 96.2 182.034 96.8667 182.341 97.44C182.661 98.0133 183.074 98.4533 183.581 98.76C184.101 99.0533 184.647 99.2 185.221 99.2C185.807 99.2 186.354 99.0533 186.861 98.76C187.367 98.4667 187.774 98.04 188.081 97.48C188.401 96.9067 188.561 96.24 188.561 95.48ZM196.135 86.2V101H193.855V86.2H196.135ZM38.5 133.18C37.6333 133.18 36.8533 133.027 36.16 132.72C35.48 132.4 34.94 131.973 34.54 131.44C34.14 130.893 33.9267 130.287 33.9 129.62H36.26C36.3 130.087 36.52 130.48 36.92 130.8C37.3333 131.107 37.8467 131.26 38.46 131.26C39.1 131.26 39.5933 131.14 39.94 130.9C40.3 130.647 40.48 130.327 40.48 129.94C40.48 129.527 40.28 129.22 39.88 129.02C39.4933 128.82 38.8733 128.6 38.02 128.36C37.1933 128.133 36.52 127.913 36 127.7C35.48 127.487 35.0267 127.16 34.64 126.72C34.2667 126.28 34.08 125.7 34.08 124.98C34.08 124.393 34.2533 123.86 34.6 123.38C34.9467 122.887 35.44 122.5 36.08 122.22C36.7333 121.94 37.48 121.8 38.32 121.8C39.5733 121.8 40.58 122.12 41.34 122.76C42.1133 123.387 42.5267 124.247 42.58 125.34H40.3C40.26 124.847 40.06 124.453 39.7 124.16C39.34 123.867 38.8533 123.72 38.24 123.72C37.64 123.72 37.18 123.833 36.86 124.06C36.54 124.287 36.38 124.587 36.38 124.96C36.38 125.253 36.4867 125.5 36.7 125.7C36.9133 125.9 37.1733 126.06 37.48 126.18C37.7867 126.287 38.24 126.427 38.84 126.6C39.64 126.813 40.2933 127.033 40.8 127.26C41.32 127.473 41.7667 127.793 42.14 128.22C42.5133 128.647 42.7067 129.213 42.72 129.92C42.72 130.547 42.5467 131.107 42.2 131.6C41.8533 132.093 41.36 132.48 40.72 132.76C40.0933 133.04 39.3533 133.18 38.5 133.18ZM55.2836 127.22C55.2836 127.633 55.2569 128.007 55.2036 128.34H46.7836C46.8503 129.22 47.1769 129.927 47.7636 130.46C48.3503 130.993 49.0703 131.26 49.9236 131.26C51.1503 131.26 52.0169 130.747 52.5236 129.72H54.9836C54.6503 130.733 54.0436 131.567 53.1636 132.22C52.2969 132.86 51.2169 133.18 49.9236 133.18C48.8703 133.18 47.9236 132.947 47.0836 132.48C46.2569 132 45.6036 131.333 45.1236 130.48C44.6569 129.613 44.4236 128.613 44.4236 127.48C44.4236 126.347 44.6503 125.353 45.1036 124.5C45.5703 123.633 46.2169 122.967 47.0436 122.5C47.8836 122.033 48.8436 121.8 49.9236 121.8C50.9636 121.8 51.8903 122.027 52.7036 122.48C53.5169 122.933 54.1503 123.573 54.6036 124.4C55.0569 125.213 55.2836 126.153 55.2836 127.22ZM52.9036 126.5C52.8903 125.66 52.5903 124.987 52.0036 124.48C51.4169 123.973 50.6903 123.72 49.8236 123.72C49.0369 123.72 48.3636 123.973 47.8036 124.48C47.2436 124.973 46.9103 125.647 46.8036 126.5H52.9036ZM59.8073 123.58C60.1407 123.02 60.5807 122.587 61.1273 122.28C61.6873 121.96 62.3473 121.8 63.1073 121.8V124.16H62.5273C61.634 124.16 60.954 124.387 60.4873 124.84C60.034 125.293 59.8073 126.08 59.8073 127.2V133H57.5273V121.98H59.8073V123.58ZM69.4631 130.96L72.5831 121.98H75.0031L70.8031 133H68.0831L63.9031 121.98H66.3431L69.4631 130.96ZM77.8866 120.52C77.4732 120.52 77.1266 120.38 76.8466 120.1C76.5666 119.82 76.4266 119.473 76.4266 119.06C76.4266 118.647 76.5666 118.3 76.8466 118.02C77.1266 117.74 77.4732 117.6 77.8866 117.6C78.2866 117.6 78.6266 117.74 78.9066 118.02C79.1866 118.3 79.3266 118.647 79.3266 119.06C79.3266 119.473 79.1866 119.82 78.9066 120.1C78.6266 120.38 78.2866 120.52 77.8866 120.52ZM79.0066 121.98V133H76.7266V121.98H79.0066ZM81.24 127.48C81.24 126.347 81.4667 125.353 81.92 124.5C82.3867 123.633 83.0267 122.967 83.84 122.5C84.6533 122.033 85.5867 121.8 86.64 121.8C87.9733 121.8 89.0733 122.12 89.94 122.76C90.82 123.387 91.4133 124.287 91.72 125.46H89.26C89.06 124.913 88.74 124.487 88.3 124.18C87.86 123.873 87.3067 123.72 86.64 123.72C85.7067 123.72 84.96 124.053 84.4 124.72C83.8533 125.373 83.58 126.293 83.58 127.48C83.58 128.667 83.8533 129.593 84.4 130.26C84.96 130.927 85.7067 131.26 86.64 131.26C87.96 131.26 88.8333 130.68 89.26 129.52H91.72C91.4 130.64 90.8 131.533 89.92 132.2C89.04 132.853 87.9467 133.18 86.64 133.18C85.5867 133.18 84.6533 132.947 83.84 132.48C83.0267 132 82.3867 131.333 81.92 130.48C81.4667 129.613 81.24 128.613 81.24 127.48ZM104.092 127.22C104.092 127.633 104.066 128.007 104.012 128.34H95.5922C95.6589 129.22 95.9855 129.927 96.5722 130.46C97.1589 130.993 97.8789 131.26 98.7322 131.26C99.9589 131.26 100.826 130.747 101.332 129.72H103.792C103.459 130.733 102.852 131.567 101.972 132.22C101.106 132.86 100.026 133.18 98.7322 133.18C97.6789 133.18 96.7322 132.947 95.8922 132.48C95.0655 132 94.4122 131.333 93.9322 130.48C93.4655 129.613 93.2322 128.613 93.2322 127.48C93.2322 126.347 93.4589 125.353 93.9122 124.5C94.3789 123.633 95.0255 122.967 95.8522 122.5C96.6922 122.033 97.6522 121.8 98.7322 121.8C99.7722 121.8 100.699 122.027 101.512 122.48C102.326 122.933 102.959 123.573 103.412 124.4C103.866 125.213 104.092 126.153 104.092 127.22ZM101.712 126.5C101.699 125.66 101.399 124.987 100.812 124.48C100.226 123.973 99.4989 123.72 98.6322 123.72C97.8455 123.72 97.1722 123.973 96.6122 124.48C96.0522 124.973 95.7189 125.647 95.6122 126.5H101.712ZM110.336 133.18C109.469 133.18 108.689 133.027 107.996 132.72C107.316 132.4 106.776 131.973 106.376 131.44C105.976 130.893 105.763 130.287 105.736 129.62H108.096C108.136 130.087 108.356 130.48 108.756 130.8C109.169 131.107 109.683 131.26 110.296 131.26C110.936 131.26 111.429 131.14 111.776 130.9C112.136 130.647 112.316 130.327 112.316 129.94C112.316 129.527 112.116 129.22 111.716 129.02C111.329 128.82 110.709 128.6 109.856 128.36C109.029 128.133 108.356 127.913 107.836 127.7C107.316 127.487 106.863 127.16 106.476 126.72C106.103 126.28 105.916 125.7 105.916 124.98C105.916 124.393 106.089 123.86 106.436 123.38C106.783 122.887 107.276 122.5 107.916 122.22C108.569 121.94 109.316 121.8 110.156 121.8C111.409 121.8 112.416 122.12 113.176 122.76C113.949 123.387 114.363 124.247 114.416 125.34H112.136C112.096 124.847 111.896 124.453 111.536 124.16C111.176 123.867 110.689 123.72 110.076 123.72C109.476 123.72 109.016 123.833 108.696 124.06C108.376 124.287 108.216 124.587 108.216 124.96C108.216 125.253 108.323 125.5 108.536 125.7C108.749 125.9 109.009 126.06 109.316 126.18C109.623 126.287 110.076 126.427 110.676 126.6C111.476 126.813 112.129 127.033 112.636 127.26C113.156 127.473 113.603 127.793 113.976 128.22C114.349 128.647 114.543 129.213 114.556 129.92C114.556 130.547 114.383 131.107 114.036 131.6C113.689 132.093 113.196 132.48 112.556 132.76C111.929 133.04 111.189 133.18 110.336 133.18ZM121.455 127.44C121.455 126.333 121.682 125.353 122.135 124.5C122.602 123.647 123.228 122.987 124.015 122.52C124.815 122.04 125.695 121.8 126.655 121.8C127.522 121.8 128.275 121.973 128.915 122.32C129.568 122.653 130.088 123.073 130.475 123.58V121.98H132.775V133H130.475V131.36C130.088 131.88 129.562 132.313 128.895 132.66C128.228 133.007 127.468 133.18 126.615 133.18C125.668 133.18 124.802 132.94 124.015 132.46C123.228 131.967 122.602 131.287 122.135 130.42C121.682 129.54 121.455 128.547 121.455 127.44ZM130.475 127.48C130.475 126.72 130.315 126.06 129.995 125.5C129.688 124.94 129.282 124.513 128.775 124.22C128.268 123.927 127.722 123.78 127.135 123.78C126.548 123.78 126.002 123.927 125.495 124.22C124.988 124.5 124.575 124.92 124.255 125.48C123.948 126.027 123.795 126.68 123.795 127.44C123.795 128.2 123.948 128.867 124.255 129.44C124.575 130.013 124.988 130.453 125.495 130.76C126.015 131.053 126.562 131.2 127.135 131.2C127.722 131.2 128.268 131.053 128.775 130.76C129.282 130.467 129.688 130.04 129.995 129.48C130.315 128.907 130.475 128.24 130.475 127.48ZM138.43 123.84V129.94C138.43 130.353 138.523 130.653 138.71 130.84C138.91 131.013 139.243 131.1 139.71 131.1H141.11V133H139.31C138.283 133 137.496 132.76 136.95 132.28C136.403 131.8 136.13 131.02 136.13 129.94V123.84H134.83V121.98H136.13V119.24H138.43V121.98H141.11V123.84H138.43ZM147.646 127.44C147.646 126.333 147.873 125.353 148.326 124.5C148.793 123.647 149.42 122.987 150.206 122.52C151.006 122.04 151.886 121.8 152.846 121.8C153.713 121.8 154.466 121.973 155.106 122.32C155.76 122.653 156.28 123.073 156.666 123.58V121.98H158.966V133H156.666V131.36C156.28 131.88 155.753 132.313 155.086 132.66C154.42 133.007 153.66 133.18 152.806 133.18C151.86 133.18 150.993 132.94 150.206 132.46C149.42 131.967 148.793 131.287 148.326 130.42C147.873 129.54 147.646 128.547 147.646 127.44ZM156.666 127.48C156.666 126.72 156.506 126.06 156.186 125.5C155.88 124.94 155.473 124.513 154.966 124.22C154.46 123.927 153.913 123.78 153.326 123.78C152.74 123.78 152.193 123.927 151.686 124.22C151.18 124.5 150.766 124.92 150.446 125.48C150.14 126.027 149.986 126.68 149.986 127.44C149.986 128.2 150.14 128.867 150.446 129.44C150.766 130.013 151.18 130.453 151.686 130.76C152.206 131.053 152.753 131.2 153.326 131.2C153.913 131.2 154.46 131.053 154.966 130.76C155.473 130.467 155.88 130.04 156.186 129.48C156.506 128.907 156.666 128.24 156.666 127.48ZM167.521 121.8C168.388 121.8 169.161 121.98 169.841 122.34C170.534 122.7 171.074 123.233 171.461 123.94C171.848 124.647 172.041 125.5 172.041 126.5V133H169.781V126.84C169.781 125.853 169.534 125.1 169.041 124.58C168.548 124.047 167.874 123.78 167.021 123.78C166.168 123.78 165.488 124.047 164.981 124.58C164.488 125.1 164.241 125.853 164.241 126.84V133H161.961V121.98H164.241V123.24C164.614 122.787 165.088 122.433 165.661 122.18C166.248 121.927 166.868 121.8 167.521 121.8ZM33.74 159.44C33.74 158.333 33.9667 157.353 34.42 156.5C34.8867 155.647 35.5133 154.987 36.3 154.52C37.1 154.04 37.98 153.8 38.94 153.8C39.8067 153.8 40.56 153.973 41.2 154.32C41.8533 154.653 42.3733 155.073 42.76 155.58V153.98H45.06V165H42.76V163.36C42.3733 163.88 41.8467 164.313 41.18 164.66C40.5133 165.007 39.7533 165.18 38.9 165.18C37.9533 165.18 37.0867 164.94 36.3 164.46C35.5133 163.967 34.8867 163.287 34.42 162.42C33.9667 161.54 33.74 160.547 33.74 159.44ZM42.76 159.48C42.76 158.72 42.6 158.06 42.28 157.5C41.9733 156.94 41.5667 156.513 41.06 156.22C40.5533 155.927 40.0067 155.78 39.42 155.78C38.8333 155.78 38.2867 155.927 37.78 156.22C37.2733 156.5 36.86 156.92 36.54 157.48C36.2333 158.027 36.08 158.68 36.08 159.44C36.08 160.2 36.2333 160.867 36.54 161.44C36.86 162.013 37.2733 162.453 37.78 162.76C38.3 163.053 38.8467 163.2 39.42 163.2C40.0067 163.2 40.5533 163.053 41.06 162.76C41.5667 162.467 41.9733 162.04 42.28 161.48C42.6 160.907 42.76 160.24 42.76 159.48ZM52.6747 155.84H50.6347V165H48.3347V155.84H47.0347V153.98H48.3347V153.2C48.3347 151.933 48.668 151.013 49.3347 150.44C50.0147 149.853 51.0747 149.56 52.5147 149.56V151.46C51.8214 151.46 51.3347 151.593 51.0547 151.86C50.7747 152.113 50.6347 152.56 50.6347 153.2V153.98H52.6747V155.84ZM59.3153 155.84H57.2753V165H54.9753V155.84H53.6753V153.98H54.9753V153.2C54.9753 151.933 55.3086 151.013 55.9753 150.44C56.6553 149.853 57.7153 149.56 59.1553 149.56V151.46C58.462 151.46 57.9753 151.593 57.6953 151.86C57.4153 152.113 57.2753 152.56 57.2753 153.2V153.98H59.3153V155.84ZM66.1159 165.18C65.0759 165.18 64.1359 164.947 63.2959 164.48C62.4559 164 61.7959 163.333 61.3159 162.48C60.8359 161.613 60.5959 160.613 60.5959 159.48C60.5959 158.36 60.8426 157.367 61.3359 156.5C61.8293 155.633 62.5026 154.967 63.3559 154.5C64.2093 154.033 65.1626 153.8 66.2159 153.8C67.2693 153.8 68.2226 154.033 69.0759 154.5C69.9293 154.967 70.6026 155.633 71.0959 156.5C71.5893 157.367 71.8359 158.36 71.8359 159.48C71.8359 160.6 71.5826 161.593 71.0759 162.46C70.5693 163.327 69.8759 164 68.9959 164.48C68.1293 164.947 67.1693 165.18 66.1159 165.18ZM66.1159 163.2C66.7026 163.2 67.2493 163.06 67.7559 162.78C68.2759 162.5 68.6959 162.08 69.0159 161.52C69.3359 160.96 69.4959 160.28 69.4959 159.48C69.4959 158.68 69.3426 158.007 69.0359 157.46C68.7293 156.9 68.3226 156.48 67.8159 156.2C67.3093 155.92 66.7626 155.78 66.1759 155.78C65.5893 155.78 65.0426 155.92 64.5359 156.2C64.0426 156.48 63.6493 156.9 63.3559 157.46C63.0626 158.007 62.9159 158.68 62.9159 159.48C62.9159 160.667 63.2159 161.587 63.8159 162.24C64.4293 162.88 65.1959 163.2 66.1159 163.2ZM76.3698 155.58C76.7032 155.02 77.1432 154.587 77.6898 154.28C78.2498 153.96 78.9098 153.8 79.6698 153.8V156.16H79.0898C78.1965 156.16 77.5165 156.387 77.0498 156.84C76.5965 157.293 76.3698 158.08 76.3698 159.2V165H74.0898V153.98H76.3698V155.58ZM81.0056 159.44C81.0056 158.333 81.2323 157.353 81.6856 156.5C82.1523 155.647 82.779 154.987 83.5656 154.52C84.3656 154.04 85.2523 153.8 86.2256 153.8C86.9456 153.8 87.6523 153.96 88.3456 154.28C89.0523 154.587 89.6123 155 90.0256 155.52V150.2H92.3256V165H90.0256V163.34C89.6523 163.873 89.1323 164.313 88.4656 164.66C87.8123 165.007 87.059 165.18 86.2056 165.18C85.2456 165.18 84.3656 164.94 83.5656 164.46C82.779 163.967 82.1523 163.287 81.6856 162.42C81.2323 161.54 81.0056 160.547 81.0056 159.44ZM90.0256 159.48C90.0256 158.72 89.8656 158.06 89.5456 157.5C89.239 156.94 88.8323 156.513 88.3256 156.22C87.819 155.927 87.2723 155.78 86.6856 155.78C86.099 155.78 85.5523 155.927 85.0456 156.22C84.539 156.5 84.1256 156.92 83.8056 157.48C83.499 158.027 83.3456 158.68 83.3456 159.44C83.3456 160.2 83.499 160.867 83.8056 161.44C84.1256 162.013 84.539 162.453 85.0456 162.76C85.5656 163.053 86.1123 163.2 86.6856 163.2C87.2723 163.2 87.819 163.053 88.3256 162.76C88.8323 162.467 89.239 162.04 89.5456 161.48C89.8656 160.907 90.0256 160.24 90.0256 159.48ZM94.5603 159.44C94.5603 158.333 94.787 157.353 95.2403 156.5C95.707 155.647 96.3336 154.987 97.1203 154.52C97.9203 154.04 98.8003 153.8 99.7603 153.8C100.627 153.8 101.38 153.973 102.02 154.32C102.674 154.653 103.194 155.073 103.58 155.58V153.98H105.88V165H103.58V163.36C103.194 163.88 102.667 164.313 102 164.66C101.334 165.007 100.574 165.18 99.7203 165.18C98.7736 165.18 97.907 164.94 97.1203 164.46C96.3336 163.967 95.707 163.287 95.2403 162.42C94.787 161.54 94.5603 160.547 94.5603 159.44ZM103.58 159.48C103.58 158.72 103.42 158.06 103.1 157.5C102.794 156.94 102.387 156.513 101.88 156.22C101.374 155.927 100.827 155.78 100.24 155.78C99.6536 155.78 99.107 155.927 98.6003 156.22C98.0936 156.5 97.6803 156.92 97.3603 157.48C97.0536 158.027 96.9003 158.68 96.9003 159.44C96.9003 160.2 97.0536 160.867 97.3603 161.44C97.6803 162.013 98.0936 162.453 98.6003 162.76C99.1203 163.053 99.667 163.2 100.24 163.2C100.827 163.2 101.374 163.053 101.88 162.76C102.387 162.467 102.794 162.04 103.1 161.48C103.42 160.907 103.58 160.24 103.58 159.48ZM111.155 155.62C111.542 155.087 112.068 154.653 112.735 154.32C113.415 153.973 114.168 153.8 114.995 153.8C115.968 153.8 116.848 154.033 117.635 154.5C118.422 154.967 119.042 155.633 119.495 156.5C119.948 157.353 120.175 158.333 120.175 159.44C120.175 160.547 119.948 161.54 119.495 162.42C119.042 163.287 118.415 163.967 117.615 164.46C116.828 164.94 115.955 165.18 114.995 165.18C114.142 165.18 113.382 165.013 112.715 164.68C112.062 164.347 111.542 163.92 111.155 163.4V165H108.875V150.2H111.155V155.62ZM117.855 159.44C117.855 158.68 117.695 158.027 117.375 157.48C117.068 156.92 116.655 156.5 116.135 156.22C115.628 155.927 115.082 155.78 114.495 155.78C113.922 155.78 113.375 155.927 112.855 156.22C112.348 156.513 111.935 156.94 111.615 157.5C111.308 158.06 111.155 158.72 111.155 159.48C111.155 160.24 111.308 160.907 111.615 161.48C111.935 162.04 112.348 162.467 112.855 162.76C113.375 163.053 113.922 163.2 114.495 163.2C115.082 163.2 115.628 163.053 116.135 162.76C116.655 162.453 117.068 162.013 117.375 161.44C117.695 160.867 117.855 160.2 117.855 159.44ZM124.71 150.2V165H122.43V150.2H124.71ZM137.803 159.22C137.803 159.633 137.776 160.007 137.723 160.34H129.303C129.37 161.22 129.696 161.927 130.283 162.46C130.87 162.993 131.59 163.26 132.443 163.26C133.67 163.26 134.536 162.747 135.043 161.72H137.503C137.17 162.733 136.563 163.567 135.683 164.22C134.816 164.86 133.736 165.18 132.443 165.18C131.39 165.18 130.443 164.947 129.603 164.48C128.776 164 128.123 163.333 127.643 162.48C127.176 161.613 126.943 160.613 126.943 159.48C126.943 158.347 127.17 157.353 127.623 156.5C128.09 155.633 128.736 154.967 129.563 154.5C130.403 154.033 131.363 153.8 132.443 153.8C133.483 153.8 134.41 154.027 135.223 154.48C136.036 154.933 136.67 155.573 137.123 156.4C137.576 157.213 137.803 158.153 137.803 159.22ZM135.423 158.5C135.41 157.66 135.11 156.987 134.523 156.48C133.936 155.973 133.21 155.72 132.343 155.72C131.556 155.72 130.883 155.973 130.323 156.48C129.763 156.973 129.43 157.647 129.323 158.5H135.423ZM147.522 155.6C147.909 155.093 148.436 154.667 149.102 154.32C149.769 153.973 150.522 153.8 151.362 153.8C152.322 153.8 153.196 154.04 153.982 154.52C154.782 154.987 155.409 155.647 155.862 156.5C156.316 157.353 156.542 158.333 156.542 159.44C156.542 160.547 156.316 161.54 155.862 162.42C155.409 163.287 154.782 163.967 153.982 164.46C153.196 164.94 152.322 165.18 151.362 165.18C150.522 165.18 149.776 165.013 149.122 164.68C148.469 164.333 147.936 163.907 147.522 163.4V170.24H145.242V153.98H147.522V155.6ZM154.222 159.44C154.222 158.68 154.062 158.027 153.742 157.48C153.436 156.92 153.022 156.5 152.502 156.22C151.996 155.927 151.449 155.78 150.862 155.78C150.289 155.78 149.742 155.927 149.222 156.22C148.716 156.513 148.302 156.94 147.982 157.5C147.676 158.06 147.522 158.72 147.522 159.48C147.522 160.24 147.676 160.907 147.982 161.48C148.302 162.04 148.716 162.467 149.222 162.76C149.742 163.053 150.289 163.2 150.862 163.2C151.449 163.2 151.996 163.053 152.502 162.76C153.022 162.453 153.436 162.013 153.742 161.44C154.062 160.867 154.222 160.2 154.222 159.44ZM161.077 155.58C161.41 155.02 161.85 154.587 162.397 154.28C162.957 153.96 163.617 153.8 164.377 153.8V156.16H163.797C162.904 156.16 162.224 156.387 161.757 156.84C161.304 157.293 161.077 158.08 161.077 159.2V165H158.797V153.98H161.077V155.58ZM167.633 152.52C167.219 152.52 166.873 152.38 166.593 152.1C166.313 151.82 166.173 151.473 166.173 151.06C166.173 150.647 166.313 150.3 166.593 150.02C166.873 149.74 167.219 149.6 167.633 149.6C168.033 149.6 168.373 149.74 168.653 150.02C168.933 150.3 169.073 150.647 169.073 151.06C169.073 151.473 168.933 151.82 168.653 152.1C168.373 152.38 168.033 152.52 167.633 152.52ZM168.753 153.98V165H166.473V153.98H168.753ZM170.986 159.48C170.986 158.347 171.213 157.353 171.666 156.5C172.133 155.633 172.773 154.967 173.586 154.5C174.399 154.033 175.333 153.8 176.386 153.8C177.719 153.8 178.819 154.12 179.686 154.76C180.566 155.387 181.159 156.287 181.466 157.46H179.006C178.806 156.913 178.486 156.487 178.046 156.18C177.606 155.873 177.053 155.72 176.386 155.72C175.453 155.72 174.706 156.053 174.146 156.72C173.599 157.373 173.326 158.293 173.326 159.48C173.326 160.667 173.599 161.593 174.146 162.26C174.706 162.927 175.453 163.26 176.386 163.26C177.706 163.26 178.579 162.68 179.006 161.52H181.466C181.146 162.64 180.546 163.533 179.666 164.2C178.786 164.853 177.693 165.18 176.386 165.18C175.333 165.18 174.399 164.947 173.586 164.48C172.773 164 172.133 163.333 171.666 162.48C171.213 161.613 170.986 160.613 170.986 159.48ZM193.838 159.22C193.838 159.633 193.812 160.007 193.758 160.34H185.338C185.405 161.22 185.732 161.927 186.318 162.46C186.905 162.993 187.625 163.26 188.478 163.26C189.705 163.26 190.572 162.747 191.078 161.72H193.538C193.205 162.733 192.598 163.567 191.718 164.22C190.852 164.86 189.772 165.18 188.478 165.18C187.425 165.18 186.478 164.947 185.638 164.48C184.812 164 184.158 163.333 183.678 162.48C183.212 161.613 182.978 160.613 182.978 159.48C182.978 158.347 183.205 157.353 183.658 156.5C184.125 155.633 184.772 154.967 185.598 154.5C186.438 154.033 187.398 153.8 188.478 153.8C189.518 153.8 190.445 154.027 191.258 154.48C192.072 154.933 192.705 155.573 193.158 156.4C193.612 157.213 193.838 158.153 193.838 159.22ZM191.458 158.5C191.445 157.66 191.145 156.987 190.558 156.48C189.972 155.973 189.245 155.72 188.378 155.72C187.592 155.72 186.918 155.973 186.358 156.48C185.798 156.973 185.465 157.647 185.358 158.5H191.458Z" fill="#444444"/>
<path d="M33.792 48.552C33.792 46.888 34.152 45.408 34.872 44.112C35.592 42.8 36.592 41.784 37.872 41.064C39.168 40.328 40.632 39.96 42.264 39.96C44.264 39.96 45.976 40.488 47.4 41.544C48.824 42.6 49.776 44.04 50.256 45.864H45.744C45.408 45.16 44.928 44.624 44.304 44.256C43.696 43.888 43 43.704 42.216 43.704C40.952 43.704 39.928 44.144 39.144 45.024C38.36 45.904 37.968 47.08 37.968 48.552C37.968 50.024 38.36 51.2 39.144 52.08C39.928 52.96 40.952 53.4 42.216 53.4C43 53.4 43.696 53.216 44.304 52.848C44.928 52.48 45.408 51.944 45.744 51.24H50.256C49.776 53.064 48.824 54.504 47.4 55.56C45.976 56.6 44.264 57.12 42.264 57.12C40.632 57.12 39.168 56.76 37.872 56.04C36.592 55.304 35.592 54.288 34.872 52.992C34.152 51.696 33.792 50.216 33.792 48.552ZM58.8653 57.192C57.5533 57.192 56.3693 56.912 55.3133 56.352C54.2733 55.792 53.4493 54.992 52.8413 53.952C52.2493 52.912 51.9533 51.696 51.9533 50.304C51.9533 48.928 52.2573 47.72 52.8652 46.68C53.4733 45.624 54.3053 44.816 55.3613 44.256C56.4173 43.696 57.6013 43.416 58.9133 43.416C60.2253 43.416 61.4093 43.696 62.4653 44.256C63.5213 44.816 64.3533 45.624 64.9613 46.68C65.5693 47.72 65.8733 48.928 65.8733 50.304C65.8733 51.68 65.5613 52.896 64.9373 53.952C64.3293 54.992 63.4893 55.792 62.4173 56.352C61.3613 56.912 60.1773 57.192 58.8653 57.192ZM58.8653 53.64C59.6493 53.64 60.3133 53.352 60.8573 52.776C61.4173 52.2 61.6973 51.376 61.6973 50.304C61.6973 49.232 61.4253 48.408 60.8813 47.832C60.3533 47.256 59.6973 46.968 58.9133 46.968C58.1133 46.968 57.4493 47.256 56.9213 47.832C56.3933 48.392 56.1293 49.216 56.1293 50.304C56.1293 51.376 56.3853 52.2 56.8973 52.776C57.4253 53.352 58.0813 53.64 58.8653 53.64ZM73.4985 57.192C72.3305 57.192 71.2905 56.992 70.3785 56.592C69.4665 56.192 68.7465 55.648 68.2185 54.96C67.6905 54.256 67.3945 53.472 67.3305 52.608H71.3865C71.4345 53.072 71.6505 53.448 72.0345 53.736C72.4185 54.024 72.8905 54.168 73.4505 54.168C73.9625 54.168 74.3545 54.072 74.6265 53.88C74.9145 53.672 75.0585 53.408 75.0585 53.088C75.0585 52.704 74.8585 52.424 74.4585 52.248C74.0585 52.056 73.4105 51.848 72.5145 51.624C71.5545 51.4 70.7545 51.168 70.1145 50.928C69.4745 50.672 68.9225 50.28 68.4585 49.752C67.9945 49.208 67.7625 48.48 67.7625 47.568C67.7625 46.8 67.9705 46.104 68.3865 45.48C68.8185 44.84 69.4425 44.336 70.2585 43.968C71.0905 43.6 72.0745 43.416 73.2105 43.416C74.8905 43.416 76.2105 43.832 77.1705 44.664C78.1465 45.496 78.7065 46.6 78.8505 47.976H75.0585C74.9945 47.512 74.7865 47.144 74.4345 46.872C74.0985 46.6 73.6505 46.464 73.0905 46.464C72.6105 46.464 72.2425 46.56 71.9865 46.752C71.7305 46.928 71.6025 47.176 71.6025 47.496C71.6025 47.88 71.8025 48.168 72.2025 48.36C72.6185 48.552 73.2585 48.744 74.1225 48.936C75.1145 49.192 75.9225 49.448 76.5465 49.704C77.1705 49.944 77.7145 50.344 78.1785 50.904C78.6585 51.448 78.9065 52.184 78.9225 53.112C78.9225 53.896 78.6985 54.6 78.2505 55.224C77.8185 55.832 77.1865 56.312 76.3545 56.664C75.5385 57.016 74.5865 57.192 73.4985 57.192ZM88.8973 53.52V57H86.8093C85.3213 57 84.1613 56.64 83.3293 55.92C82.4973 55.184 82.0813 53.992 82.0813 52.344V47.016H80.4493V43.608H82.0813V40.344H86.1853V43.608H88.8733V47.016H86.1853V52.392C86.1853 52.792 86.2813 53.08 86.4733 53.256C86.6653 53.432 86.9853 53.52 87.4333 53.52H88.8973ZM101.503 46.872V50.28H90.9433V46.872H101.503ZM109.209 43.44V46.848H114.705V50.016H109.209V53.712H115.425V57H105.105V40.152H115.425V43.44H109.209ZM124.81 47.016H122.602V57H118.498V47.016H117.01V43.608H118.498V43.224C118.498 41.576 118.97 40.328 119.914 39.48C120.858 38.616 122.242 38.184 124.066 38.184C124.37 38.184 124.594 38.192 124.738 38.208V41.688C123.954 41.64 123.402 41.752 123.082 42.024C122.762 42.296 122.602 42.784 122.602 43.488V43.608H124.81V47.016ZM133.458 47.016H131.25V57H127.146V47.016H125.658V43.608H127.146V43.224C127.146 41.576 127.618 40.328 128.562 39.48C129.506 38.616 130.89 38.184 132.714 38.184C133.018 38.184 133.242 38.192 133.386 38.208V41.688C132.602 41.64 132.05 41.752 131.73 42.024C131.41 42.296 131.25 42.784 131.25 43.488V43.608H133.458V47.016ZM148.01 50.088C148.01 50.472 147.986 50.872 147.938 51.288H138.65C138.714 52.12 138.978 52.76 139.442 53.208C139.922 53.64 140.506 53.856 141.194 53.856C142.218 53.856 142.93 53.424 143.33 52.56H147.698C147.474 53.44 147.066 54.232 146.474 54.936C145.898 55.64 145.17 56.192 144.29 56.592C143.41 56.992 142.426 57.192 141.338 57.192C140.026 57.192 138.858 56.912 137.834 56.352C136.81 55.792 136.01 54.992 135.434 53.952C134.858 52.912 134.57 51.696 134.57 50.304C134.57 48.912 134.85 47.696 135.41 46.656C135.986 45.616 136.786 44.816 137.81 44.256C138.834 43.696 140.01 43.416 141.338 43.416C142.634 43.416 143.786 43.688 144.794 44.232C145.802 44.776 146.586 45.552 147.146 46.56C147.722 47.568 148.01 48.744 148.01 50.088ZM143.81 49.008C143.81 48.304 143.57 47.744 143.09 47.328C142.61 46.912 142.01 46.704 141.29 46.704C140.602 46.704 140.018 46.904 139.538 47.304C139.074 47.704 138.786 48.272 138.674 49.008H143.81ZM149.36 50.304C149.36 48.912 149.64 47.696 150.2 46.656C150.776 45.616 151.568 44.816 152.576 44.256C153.6 43.696 154.768 43.416 156.08 43.416C157.76 43.416 159.16 43.856 160.28 44.736C161.416 45.616 162.16 46.856 162.512 48.456H158.144C157.776 47.432 157.064 46.92 156.008 46.92C155.256 46.92 154.656 47.216 154.208 47.808C153.76 48.384 153.536 49.216 153.536 50.304C153.536 51.392 153.76 52.232 154.208 52.824C154.656 53.4 155.256 53.688 156.008 53.688C157.064 53.688 157.776 53.176 158.144 52.152H162.512C162.16 53.72 161.416 54.952 160.28 55.848C159.144 56.744 157.744 57.192 156.08 57.192C154.768 57.192 153.6 56.912 152.576 56.352C151.568 55.792 150.776 54.992 150.2 53.952C149.64 52.912 149.36 51.696 149.36 50.304ZM172.171 53.52V57H170.083C168.595 57 167.435 56.64 166.603 55.92C165.771 55.184 165.355 53.992 165.355 52.344V47.016H163.723V43.608H165.355V40.344H169.459V43.608H172.147V47.016H169.459V52.392C169.459 52.792 169.555 53.08 169.747 53.256C169.939 53.432 170.259 53.52 170.707 53.52H172.171ZM176.521 42.216C175.801 42.216 175.209 42.008 174.745 41.592C174.297 41.16 174.073 40.632 174.073 40.008C174.073 39.368 174.297 38.84 174.745 38.424C175.209 37.992 175.801 37.776 176.521 37.776C177.225 37.776 177.801 37.992 178.249 38.424C178.713 38.84 178.945 39.368 178.945 40.008C178.945 40.632 178.713 41.16 178.249 41.592C177.801 42.008 177.225 42.216 176.521 42.216ZM178.561 43.608V57H174.457V43.608H178.561ZM187.559 53.16L190.463 43.608H194.831L190.079 57H185.015L180.263 43.608H184.655L187.559 53.16ZM209.182 50.088C209.182 50.472 209.158 50.872 209.11 51.288H199.822C199.886 52.12 200.15 52.76 200.614 53.208C201.094 53.64 201.678 53.856 202.366 53.856C203.39 53.856 204.102 53.424 204.502 52.56H208.87C208.646 53.44 208.238 54.232 207.646 54.936C207.07 55.64 206.342 56.192 205.462 56.592C204.582 56.992 203.598 57.192 202.51 57.192C201.198 57.192 200.03 56.912 199.006 56.352C197.982 55.792 197.182 54.992 196.606 53.952C196.03 52.912 195.742 51.696 195.742 50.304C195.742 48.912 196.022 47.696 196.582 46.656C197.158 45.616 197.958 44.816 198.982 44.256C200.006 43.696 201.182 43.416 202.51 43.416C203.806 43.416 204.958 43.688 205.966 44.232C206.974 44.776 207.758 45.552 208.318 46.56C208.894 47.568 209.182 48.744 209.182 50.088ZM204.982 49.008C204.982 48.304 204.742 47.744 204.262 47.328C203.782 46.912 203.182 46.704 202.462 46.704C201.774 46.704 201.19 46.904 200.71 47.304C200.246 47.704 199.958 48.272 199.846 49.008H204.982Z" fill="#444444"/>
<rect x="210" y="210" width="70" height="70" rx="16" fill="#EF6C0D"/>
<path d="M227.483 244.75C227.483 241.31 228.143 238.6 229.463 236.62C230.803 234.64 232.953 233.65 235.913 233.65C238.873 233.65 241.013 234.64 242.333 236.62C243.673 238.6 244.343 241.31 244.343 244.75C244.343 248.23 243.673 250.96 242.333 252.94C241.013 254.92 238.873 255.91 235.913 255.91C232.953 255.91 230.803 254.92 229.463 252.94C228.143 250.96 227.483 248.23 227.483 244.75ZM239.303 244.75C239.303 242.73 239.083 241.18 238.643 240.1C238.203 239 237.293 238.45 235.913 238.45C234.533 238.45 233.623 239 233.183 240.1C232.743 241.18 232.523 242.73 232.523 244.75C232.523 246.11 232.603 247.24 232.763 248.14C232.923 249.02 233.243 249.74 233.723 250.3C234.223 250.84 234.953 251.11 235.913 251.11C236.873 251.11 237.593 250.84 238.073 250.3C238.573 249.74 238.903 249.02 239.063 248.14C239.223 247.24 239.303 246.11 239.303 244.75ZM247.233 240.28C247.313 238.14 248.013 236.49 249.333 235.33C250.653 234.17 252.443 233.59 254.703 233.59C256.203 233.59 257.483 233.85 258.543 234.37C259.623 234.89 260.433 235.6 260.973 236.5C261.533 237.4 261.813 238.41 261.813 239.53C261.813 240.85 261.483 241.93 260.823 242.77C260.163 243.59 259.393 244.15 258.513 244.45V244.57C259.653 244.95 260.553 245.58 261.213 246.46C261.873 247.34 262.203 248.47 262.203 249.85C262.203 251.09 261.913 252.19 261.333 253.15C260.773 254.09 259.943 254.83 258.843 255.37C257.763 255.91 256.473 256.18 254.973 256.18C252.573 256.18 250.653 255.59 249.213 254.41C247.793 253.23 247.043 251.45 246.963 249.07H251.943C251.963 249.95 252.213 250.65 252.693 251.17C253.173 251.67 253.873 251.92 254.793 251.92C255.573 251.92 256.173 251.7 256.593 251.26C257.033 250.8 257.253 250.2 257.253 249.46C257.253 248.5 256.943 247.81 256.323 247.39C255.723 246.95 254.753 246.73 253.413 246.73H252.453V242.56H253.413C254.433 242.56 255.253 242.39 255.873 242.05C256.513 241.69 256.833 241.06 256.833 240.16C256.833 239.44 256.633 238.88 256.233 238.48C255.833 238.08 255.283 237.88 254.583 237.88C253.823 237.88 253.253 238.11 252.873 238.57C252.513 239.03 252.303 239.6 252.243 240.28H247.233Z" fill="white"/>
</svg>
