<svg width="280" height="280" viewBox="0 0 280 280" fill="none" xmlns="http://www.w3.org/2000/svg">
<path fill-rule="evenodd" clip-rule="evenodd" d="M280 30C280 13.4315 266.569 0 250 0H30C13.4315 0 0 13.4315 0 30V250C0 266.569 13.4315 280 30 280H159.5C176.069 280 189.5 266.569 189.5 250V218C189.5 201.431 202.931 188 219.5 188H260C271.046 188 280 179.046 280 168V30Z" fill="#444444"/>
<path fill-rule="evenodd" clip-rule="evenodd" d="M280 30C280 13.4315 266.569 0 250 0H30C13.4315 0 0 13.4315 0 30V250C0 266.569 13.4315 280 30 280H159.5C176.069 280 189.5 266.569 189.5 250V218C189.5 201.431 202.931 188 219.5 188H260C271.046 188 280 179.046 280 168V30Z" fill="white" fill-opacity="0.95"/>
<path d="M45.92 101H43.64L36.78 90.62V101H34.5V87.08H36.78L43.64 97.44V87.08H45.92V101ZM53.6941 101.18C52.6541 101.18 51.7141 100.947 50.8741 100.48C50.0341 100 49.3741 99.3333 48.8941 98.48C48.4141 97.6133 48.1741 96.6133 48.1741 95.48C48.1741 94.36 48.4207 93.3667 48.9141 92.5C49.4074 91.6333 50.0807 90.9667 50.9341 90.5C51.7874 90.0333 52.7407 89.8 53.7941 89.8C54.8474 89.8 55.8007 90.0333 56.6541 90.5C57.5074 90.9667 58.1807 91.6333 58.6741 92.5C59.1674 93.3667 59.4141 94.36 59.4141 95.48C59.4141 96.6 59.1607 97.5933 58.6541 98.46C58.1474 99.3267 57.4541 100 56.5741 100.48C55.7074 100.947 54.7474 101.18 53.6941 101.18ZM53.6941 99.2C54.2807 99.2 54.8274 99.06 55.3341 98.78C55.8541 98.5 56.2741 98.08 56.5941 97.52C56.9141 96.96 57.0741 96.28 57.0741 95.48C57.0741 94.68 56.9207 94.0067 56.6141 93.46C56.3074 92.9 55.9007 92.48 55.3941 92.2C54.8874 91.92 54.3407 91.78 53.7541 91.78C53.1674 91.78 52.6207 91.92 52.1141 92.2C51.6207 92.48 51.2274 92.9 50.9341 93.46C50.6407 94.0067 50.4941 94.68 50.4941 95.48C50.4941 96.6667 50.7941 97.5867 51.3941 98.24C52.0074 98.88 52.7741 99.2 53.6941 99.2ZM76.8433 89.98V101H74.5633V99.7C74.2033 100.153 73.7299 100.513 73.1433 100.78C72.5699 101.033 71.9566 101.16 71.3033 101.16C70.4366 101.16 69.6566 100.98 68.9633 100.62C68.2833 100.26 67.7433 99.7267 67.3433 99.02C66.9566 98.3133 66.7633 97.46 66.7633 96.46V89.98H69.0233V96.12C69.0233 97.1067 69.2699 97.8667 69.7633 98.4C70.2566 98.92 70.9299 99.18 71.7833 99.18C72.6366 99.18 73.3099 98.92 73.8033 98.4C74.3099 97.8667 74.5633 97.1067 74.5633 96.12V89.98H76.8433ZM82.1316 91.6C82.5182 91.0933 83.0449 90.6667 83.7116 90.32C84.3782 89.9733 85.1316 89.8 85.9716 89.8C86.9316 89.8 87.8049 90.04 88.5916 90.52C89.3916 90.9867 90.0182 91.6467 90.4716 92.5C90.9249 93.3533 91.1516 94.3333 91.1516 95.44C91.1516 96.5467 90.9249 97.54 90.4716 98.42C90.0182 99.2867 89.3916 99.9667 88.5916 100.46C87.8049 100.94 86.9316 101.18 85.9716 101.18C85.1316 101.18 84.3849 101.013 83.7316 100.68C83.0782 100.333 82.5449 99.9067 82.1316 99.4V106.24H79.8516V89.98H82.1316V91.6ZM88.8316 95.44C88.8316 94.68 88.6716 94.0267 88.3516 93.48C88.0449 92.92 87.6316 92.5 87.1116 92.22C86.6049 91.9267 86.0582 91.78 85.4716 91.78C84.8982 91.78 84.3516 91.9267 83.8316 92.22C83.3249 92.5133 82.9116 92.94 82.5916 93.5C82.2849 94.06 82.1316 94.72 82.1316 95.48C82.1316 96.24 82.2849 96.9067 82.5916 97.48C82.9116 98.04 83.3249 98.4667 83.8316 98.76C84.3516 99.0533 84.8982 99.2 85.4716 99.2C86.0582 99.2 86.6049 99.0533 87.1116 98.76C87.6316 98.4533 88.0449 98.0133 88.3516 97.44C88.6716 96.8667 88.8316 96.2 88.8316 95.44ZM98.0263 91.84H95.9863V101H93.6863V91.84H92.3863V89.98H93.6863V89.2C93.6863 87.9333 94.0196 87.0133 94.6863 86.44C95.3663 85.8533 96.4263 85.56 97.8663 85.56V87.46C97.1729 87.46 96.6863 87.5933 96.4063 87.86C96.1263 88.1133 95.9863 88.56 95.9863 89.2V89.98H98.0263V91.84ZM102.327 91.58C102.66 91.02 103.1 90.5867 103.647 90.28C104.207 89.96 104.867 89.8 105.627 89.8V92.16H105.047C104.154 92.16 103.474 92.3867 103.007 92.84C102.554 93.2933 102.327 94.08 102.327 95.2V101H100.047V89.98H102.327V91.58ZM112.503 101.18C111.463 101.18 110.523 100.947 109.683 100.48C108.843 100 108.183 99.3333 107.703 98.48C107.223 97.6133 106.983 96.6133 106.983 95.48C106.983 94.36 107.229 93.3667 107.723 92.5C108.216 91.6333 108.889 90.9667 109.743 90.5C110.596 90.0333 111.549 89.8 112.603 89.8C113.656 89.8 114.609 90.0333 115.463 90.5C116.316 90.9667 116.989 91.6333 117.483 92.5C117.976 93.3667 118.223 94.36 118.223 95.48C118.223 96.6 117.969 97.5933 117.463 98.46C116.956 99.3267 116.263 100 115.383 100.48C114.516 100.947 113.556 101.18 112.503 101.18ZM112.503 99.2C113.089 99.2 113.636 99.06 114.143 98.78C114.663 98.5 115.083 98.08 115.403 97.52C115.723 96.96 115.883 96.28 115.883 95.48C115.883 94.68 115.729 94.0067 115.423 93.46C115.116 92.9 114.709 92.48 114.203 92.2C113.696 91.92 113.149 91.78 112.563 91.78C111.976 91.78 111.429 91.92 110.923 92.2C110.429 92.48 110.036 92.9 109.743 93.46C109.449 94.0067 109.303 94.68 109.303 95.48C109.303 96.6667 109.603 97.5867 110.203 98.24C110.816 98.88 111.583 99.2 112.503 99.2ZM126.037 89.8C126.903 89.8 127.677 89.98 128.357 90.34C129.05 90.7 129.59 91.2333 129.977 91.94C130.363 92.6467 130.557 93.5 130.557 94.5V101H128.297V94.84C128.297 93.8533 128.05 93.1 127.557 92.58C127.063 92.0467 126.39 91.78 125.537 91.78C124.683 91.78 124.003 92.0467 123.497 92.58C123.003 93.1 122.757 93.8533 122.757 94.84V101H120.477V89.98H122.757V91.24C123.13 90.7867 123.603 90.4333 124.177 90.18C124.763 89.9267 125.383 89.8 126.037 89.8ZM136.125 91.84V97.94C136.125 98.3533 136.218 98.6533 136.405 98.84C136.605 99.0133 136.938 99.1 137.405 99.1H138.805V101H137.005C135.978 101 135.192 100.76 134.645 100.28C134.098 99.8 133.825 99.02 133.825 97.94V91.84H132.525V89.98H133.825V87.24H136.125V89.98H138.805V91.84H136.125ZM145.342 95.48C145.342 94.3467 145.568 93.3533 146.022 92.5C146.488 91.6333 147.128 90.9667 147.942 90.5C148.755 90.0333 149.688 89.8 150.742 89.8C152.075 89.8 153.175 90.12 154.042 90.76C154.922 91.3867 155.515 92.2867 155.822 93.46H153.362C153.162 92.9133 152.842 92.4867 152.402 92.18C151.962 91.8733 151.408 91.72 150.742 91.72C149.808 91.72 149.062 92.0533 148.502 92.72C147.955 93.3733 147.682 94.2933 147.682 95.48C147.682 96.6667 147.955 97.5933 148.502 98.26C149.062 98.9267 149.808 99.26 150.742 99.26C152.062 99.26 152.935 98.68 153.362 97.52H155.822C155.502 98.64 154.902 99.5333 154.022 100.2C153.142 100.853 152.048 101.18 150.742 101.18C149.688 101.18 148.755 100.947 147.942 100.48C147.128 100 146.488 99.3333 146.022 98.48C145.568 97.6133 145.342 96.6133 145.342 95.48ZM162.874 101.18C161.834 101.18 160.894 100.947 160.054 100.48C159.214 100 158.554 99.3333 158.074 98.48C157.594 97.6133 157.354 96.6133 157.354 95.48C157.354 94.36 157.6 93.3667 158.094 92.5C158.587 91.6333 159.26 90.9667 160.114 90.5C160.967 90.0333 161.92 89.8 162.974 89.8C164.027 89.8 164.98 90.0333 165.834 90.5C166.687 90.9667 167.36 91.6333 167.854 92.5C168.347 93.3667 168.594 94.36 168.594 95.48C168.594 96.6 168.34 97.5933 167.834 98.46C167.327 99.3267 166.634 100 165.754 100.48C164.887 100.947 163.927 101.18 162.874 101.18ZM162.874 99.2C163.46 99.2 164.007 99.06 164.514 98.78C165.034 98.5 165.454 98.08 165.774 97.52C166.094 96.96 166.254 96.28 166.254 95.48C166.254 94.68 166.1 94.0067 165.794 93.46C165.487 92.9 165.08 92.48 164.574 92.2C164.067 91.92 163.52 91.78 162.934 91.78C162.347 91.78 161.8 91.92 161.294 92.2C160.8 92.48 160.407 92.9 160.114 93.46C159.82 94.0067 159.674 94.68 159.674 95.48C159.674 96.6667 159.974 97.5867 160.574 98.24C161.187 98.88 161.954 99.2 162.874 99.2ZM174.848 101.18C173.981 101.18 173.201 101.027 172.508 100.72C171.828 100.4 171.288 99.9733 170.888 99.44C170.488 98.8933 170.274 98.2867 170.248 97.62H172.608C172.648 98.0867 172.868 98.48 173.268 98.8C173.681 99.1067 174.194 99.26 174.808 99.26C175.448 99.26 175.941 99.14 176.288 98.9C176.648 98.6467 176.828 98.3267 176.828 97.94C176.828 97.5267 176.628 97.22 176.228 97.02C175.841 96.82 175.221 96.6 174.368 96.36C173.541 96.1333 172.868 95.9133 172.348 95.7C171.828 95.4867 171.374 95.16 170.988 94.72C170.614 94.28 170.428 93.7 170.428 92.98C170.428 92.3933 170.601 91.86 170.948 91.38C171.294 90.8867 171.788 90.5 172.428 90.22C173.081 89.94 173.828 89.8 174.668 89.8C175.921 89.8 176.928 90.12 177.688 90.76C178.461 91.3867 178.874 92.2467 178.928 93.34H176.648C176.608 92.8467 176.408 92.4533 176.048 92.16C175.688 91.8667 175.201 91.72 174.588 91.72C173.988 91.72 173.528 91.8333 173.208 92.06C172.888 92.2867 172.728 92.5867 172.728 92.96C172.728 93.2533 172.834 93.5 173.048 93.7C173.261 93.9 173.521 94.06 173.828 94.18C174.134 94.2867 174.588 94.4267 175.188 94.6C175.988 94.8133 176.641 95.0333 177.148 95.26C177.668 95.4733 178.114 95.7933 178.488 96.22C178.861 96.6467 179.054 97.2133 179.068 97.92C179.068 98.5467 178.894 99.1067 178.548 99.6C178.201 100.093 177.708 100.48 177.068 100.76C176.441 101.04 175.701 101.18 174.848 101.18ZM184.191 91.84V97.94C184.191 98.3533 184.285 98.6533 184.471 98.84C184.671 99.0133 185.005 99.1 185.471 99.1H186.871V101H185.071C184.045 101 183.258 100.76 182.711 100.28C182.165 99.8 181.891 99.02 181.891 97.94V91.84H180.591V89.98H181.891V87.24H184.191V89.98H186.871V91.84H184.191ZM192.973 101.18C192.106 101.18 191.326 101.027 190.633 100.72C189.953 100.4 189.413 99.9733 189.013 99.44C188.613 98.8933 188.399 98.2867 188.373 97.62H190.733C190.773 98.0867 190.993 98.48 191.393 98.8C191.806 99.1067 192.319 99.26 192.933 99.26C193.573 99.26 194.066 99.14 194.413 98.9C194.773 98.6467 194.953 98.3267 194.953 97.94C194.953 97.5267 194.753 97.22 194.353 97.02C193.966 96.82 193.346 96.6 192.493 96.36C191.666 96.1333 190.993 95.9133 190.473 95.7C189.953 95.4867 189.499 95.16 189.113 94.72C188.739 94.28 188.553 93.7 188.553 92.98C188.553 92.3933 188.726 91.86 189.073 91.38C189.419 90.8867 189.913 90.5 190.553 90.22C191.206 89.94 191.953 89.8 192.793 89.8C194.046 89.8 195.053 90.12 195.813 90.76C196.586 91.3867 196.999 92.2467 197.053 93.34H194.773C194.733 92.8467 194.533 92.4533 194.173 92.16C193.813 91.8667 193.326 91.72 192.713 91.72C192.113 91.72 191.653 91.8333 191.333 92.06C191.013 92.2867 190.853 92.5867 190.853 92.96C190.853 93.2533 190.959 93.5 191.173 93.7C191.386 93.9 191.646 94.06 191.953 94.18C192.259 94.2867 192.713 94.4267 193.313 94.6C194.113 94.8133 194.766 95.0333 195.273 95.26C195.793 95.4733 196.239 95.7933 196.613 96.22C196.986 96.6467 197.179 97.2133 197.193 97.92C197.193 98.5467 197.019 99.1067 196.673 99.6C196.326 100.093 195.833 100.48 195.193 100.76C194.566 101.04 193.826 101.18 192.973 101.18ZM36.78 123.6C37.1667 123.093 37.6933 122.667 38.36 122.32C39.0267 121.973 39.78 121.8 40.62 121.8C41.58 121.8 42.4533 122.04 43.24 122.52C44.04 122.987 44.6667 123.647 45.12 124.5C45.5733 125.353 45.8 126.333 45.8 127.44C45.8 128.547 45.5733 129.54 45.12 130.42C44.6667 131.287 44.04 131.967 43.24 132.46C42.4533 132.94 41.58 133.18 40.62 133.18C39.78 133.18 39.0333 133.013 38.38 132.68C37.7267 132.333 37.1933 131.907 36.78 131.4V138.24H34.5V121.98H36.78V123.6ZM43.48 127.44C43.48 126.68 43.32 126.027 43 125.48C42.6933 124.92 42.28 124.5 41.76 124.22C41.2533 123.927 40.7067 123.78 40.12 123.78C39.5467 123.78 39 123.927 38.48 124.22C37.9733 124.513 37.56 124.94 37.24 125.5C36.9333 126.06 36.78 126.72 36.78 127.48C36.78 128.24 36.9333 128.907 37.24 129.48C37.56 130.04 37.9733 130.467 38.48 130.76C39 131.053 39.5467 131.2 40.12 131.2C40.7067 131.2 41.2533 131.053 41.76 130.76C42.28 130.453 42.6933 130.013 43 129.44C43.32 128.867 43.48 128.2 43.48 127.44ZM47.2947 127.44C47.2947 126.333 47.5214 125.353 47.9747 124.5C48.4414 123.647 49.068 122.987 49.8547 122.52C50.6547 122.04 51.5347 121.8 52.4947 121.8C53.3614 121.8 54.1147 121.973 54.7547 122.32C55.408 122.653 55.928 123.073 56.3147 123.58V121.98H58.6147V133H56.3147V131.36C55.928 131.88 55.4014 132.313 54.7347 132.66C54.068 133.007 53.308 133.18 52.4547 133.18C51.508 133.18 50.6414 132.94 49.8547 132.46C49.068 131.967 48.4414 131.287 47.9747 130.42C47.5214 129.54 47.2947 128.547 47.2947 127.44ZM56.3147 127.48C56.3147 126.72 56.1547 126.06 55.8347 125.5C55.528 124.94 55.1214 124.513 54.6147 124.22C54.108 123.927 53.5614 123.78 52.9747 123.78C52.388 123.78 51.8414 123.927 51.3347 124.22C50.828 124.5 50.4147 124.92 50.0947 125.48C49.788 126.027 49.6347 126.68 49.6347 127.44C49.6347 128.2 49.788 128.867 50.0947 129.44C50.4147 130.013 50.828 130.453 51.3347 130.76C51.8547 131.053 52.4014 131.2 52.9747 131.2C53.5614 131.2 54.108 131.053 54.6147 130.76C55.1214 130.467 55.528 130.04 55.8347 129.48C56.1547 128.907 56.3147 128.24 56.3147 127.48ZM71.5294 121.98L64.7694 138.18H62.4094L64.6494 132.82L60.3094 121.98H62.8494L65.9494 130.38L69.1694 121.98H71.5294ZM77.6853 127.44C77.6853 126.333 77.912 125.353 78.3653 124.5C78.832 123.647 79.4586 122.987 80.2453 122.52C81.0453 122.04 81.9253 121.8 82.8853 121.8C83.752 121.8 84.5053 121.973 85.1453 122.32C85.7986 122.653 86.3186 123.073 86.7053 123.58V121.98H89.0053V133H86.7053V131.36C86.3186 131.88 85.792 132.313 85.1253 132.66C84.4586 133.007 83.6986 133.18 82.8453 133.18C81.8986 133.18 81.032 132.94 80.2453 132.46C79.4586 131.967 78.832 131.287 78.3653 130.42C77.912 129.54 77.6853 128.547 77.6853 127.44ZM86.7053 127.48C86.7053 126.72 86.5453 126.06 86.2253 125.5C85.9186 124.94 85.512 124.513 85.0053 124.22C84.4986 123.927 83.952 123.78 83.3653 123.78C82.7786 123.78 82.232 123.927 81.7253 124.22C81.2186 124.5 80.8053 124.92 80.4853 125.48C80.1786 126.027 80.0253 126.68 80.0253 127.44C80.0253 128.2 80.1786 128.867 80.4853 129.44C80.8053 130.013 81.2186 130.453 81.7253 130.76C82.2453 131.053 82.792 131.2 83.3653 131.2C83.952 131.2 84.4986 131.053 85.0053 130.76C85.512 130.467 85.9186 130.04 86.2253 129.48C86.5453 128.907 86.7053 128.24 86.7053 127.48ZM96 133.18C95.1333 133.18 94.3533 133.027 93.66 132.72C92.98 132.4 92.44 131.973 92.04 131.44C91.64 130.893 91.4267 130.287 91.4 129.62H93.76C93.8 130.087 94.02 130.48 94.42 130.8C94.8333 131.107 95.3467 131.26 95.96 131.26C96.6 131.26 97.0933 131.14 97.44 130.9C97.8 130.647 97.98 130.327 97.98 129.94C97.98 129.527 97.78 129.22 97.38 129.02C96.9933 128.82 96.3733 128.6 95.52 128.36C94.6933 128.133 94.02 127.913 93.5 127.7C92.98 127.487 92.5267 127.16 92.14 126.72C91.7667 126.28 91.58 125.7 91.58 124.98C91.58 124.393 91.7533 123.86 92.1 123.38C92.4467 122.887 92.94 122.5 93.58 122.22C94.2333 121.94 94.98 121.8 95.82 121.8C97.0733 121.8 98.08 122.12 98.84 122.76C99.6133 123.387 100.027 124.247 100.08 125.34H97.8C97.76 124.847 97.56 124.453 97.2 124.16C96.84 123.867 96.3533 123.72 95.74 123.72C95.14 123.72 94.68 123.833 94.36 124.06C94.04 124.287 93.88 124.587 93.88 124.96C93.88 125.253 93.9867 125.5 94.2 125.7C94.4133 125.9 94.6733 126.06 94.98 126.18C95.2867 126.287 95.74 126.427 96.34 126.6C97.14 126.813 97.7933 127.033 98.3 127.26C98.82 127.473 99.2667 127.793 99.64 128.22C100.013 128.647 100.207 129.213 100.22 129.92C100.22 130.547 100.047 131.107 99.7 131.6C99.3533 132.093 98.86 132.48 98.22 132.76C97.5933 133.04 96.8533 133.18 96 133.18ZM122.679 121.98L119.259 133H116.859L114.639 124.86L112.419 133H110.019L106.579 121.98H108.899L111.199 130.84L113.539 121.98H115.919L118.159 130.8L120.439 121.98H122.679ZM134.483 127.22C134.483 127.633 134.456 128.007 134.403 128.34H125.983C126.049 129.22 126.376 129.927 126.963 130.46C127.549 130.993 128.269 131.26 129.123 131.26C130.349 131.26 131.216 130.747 131.723 129.72H134.183C133.849 130.733 133.243 131.567 132.363 132.22C131.496 132.86 130.416 133.18 129.123 133.18C128.069 133.18 127.123 132.947 126.283 132.48C125.456 132 124.803 131.333 124.323 130.48C123.856 129.613 123.623 128.613 123.623 127.48C123.623 126.347 123.849 125.353 124.303 124.5C124.769 123.633 125.416 122.967 126.243 122.5C127.083 122.033 128.043 121.8 129.123 121.8C130.163 121.8 131.089 122.027 131.903 122.48C132.716 122.933 133.349 123.573 133.803 124.4C134.256 125.213 134.483 126.153 134.483 127.22ZM132.103 126.5C132.089 125.66 131.789 124.987 131.203 124.48C130.616 123.973 129.889 123.72 129.023 123.72C128.236 123.72 127.563 123.973 127.003 124.48C126.443 124.973 126.109 125.647 126.003 126.5H132.103ZM146.362 121.8C147.215 121.8 147.969 121.973 148.622 122.32C149.289 122.653 149.809 123.073 150.182 123.58V121.98H152.482V133.18C152.482 134.193 152.269 135.093 151.842 135.88C151.415 136.68 150.795 137.307 149.982 137.76C149.182 138.213 148.222 138.44 147.102 138.44C145.609 138.44 144.369 138.087 143.382 137.38C142.395 136.687 141.835 135.74 141.702 134.54H143.962C144.135 135.113 144.502 135.573 145.062 135.92C145.635 136.28 146.315 136.46 147.102 136.46C148.022 136.46 148.762 136.18 149.322 135.62C149.895 135.06 150.182 134.247 150.182 133.18V131.34C149.795 131.86 149.269 132.3 148.602 132.66C147.949 133.007 147.202 133.18 146.362 133.18C145.402 133.18 144.522 132.94 143.722 132.46C142.935 131.967 142.309 131.287 141.842 130.42C141.389 129.54 141.162 128.547 141.162 127.44C141.162 126.333 141.389 125.353 141.842 124.5C142.309 123.647 142.935 122.987 143.722 122.52C144.522 122.04 145.402 121.8 146.362 121.8ZM150.182 127.48C150.182 126.72 150.022 126.06 149.702 125.5C149.395 124.94 148.989 124.513 148.482 124.22C147.975 123.927 147.429 123.78 146.842 123.78C146.255 123.78 145.709 123.927 145.202 124.22C144.695 124.5 144.282 124.92 143.962 125.48C143.655 126.027 143.502 126.68 143.502 127.44C143.502 128.2 143.655 128.867 143.962 129.44C144.282 130.013 144.695 130.453 145.202 130.76C145.722 131.053 146.269 131.2 146.842 131.2C147.429 131.2 147.975 131.053 148.482 130.76C148.989 130.467 149.395 130.04 149.702 129.48C150.022 128.907 150.182 128.24 150.182 127.48ZM160.257 133.18C159.217 133.18 158.277 132.947 157.437 132.48C156.597 132 155.937 131.333 155.457 130.48C154.977 129.613 154.737 128.613 154.737 127.48C154.737 126.36 154.983 125.367 155.477 124.5C155.97 123.633 156.643 122.967 157.497 122.5C158.35 122.033 159.303 121.8 160.357 121.8C161.41 121.8 162.363 122.033 163.217 122.5C164.07 122.967 164.743 123.633 165.237 124.5C165.73 125.367 165.977 126.36 165.977 127.48C165.977 128.6 165.723 129.593 165.217 130.46C164.71 131.327 164.017 132 163.137 132.48C162.27 132.947 161.31 133.18 160.257 133.18ZM160.257 131.2C160.843 131.2 161.39 131.06 161.897 130.78C162.417 130.5 162.837 130.08 163.157 129.52C163.477 128.96 163.637 128.28 163.637 127.48C163.637 126.68 163.483 126.007 163.177 125.46C162.87 124.9 162.463 124.48 161.957 124.2C161.45 123.92 160.903 123.78 160.317 123.78C159.73 123.78 159.183 123.92 158.677 124.2C158.183 124.48 157.79 124.9 157.497 125.46C157.203 126.007 157.057 126.68 157.057 127.48C157.057 128.667 157.357 129.587 157.957 130.24C158.57 130.88 159.337 131.2 160.257 131.2Z" fill="#444444"/>
<path d="M49.56 57H45.456L38.592 46.608V57H34.488V40.152H38.592L45.456 50.592V40.152H49.56V57ZM58.6309 57.192C57.3189 57.192 56.1349 56.912 55.0789 56.352C54.0389 55.792 53.2149 54.992 52.6069 53.952C52.0149 52.912 51.7189 51.696 51.7189 50.304C51.7189 48.928 52.0229 47.72 52.6309 46.68C53.2389 45.624 54.0709 44.816 55.1269 44.256C56.1829 43.696 57.3669 43.416 58.6789 43.416C59.9909 43.416 61.1749 43.696 62.2309 44.256C63.2869 44.816 64.1189 45.624 64.7269 46.68C65.3349 47.72 65.6389 48.928 65.6389 50.304C65.6389 51.68 65.3269 52.896 64.7029 53.952C64.0949 54.992 63.2549 55.792 62.1829 56.352C61.1269 56.912 59.9429 57.192 58.6309 57.192ZM58.6309 53.64C59.4149 53.64 60.0789 53.352 60.6229 52.776C61.1829 52.2 61.4629 51.376 61.4629 50.304C61.4629 49.232 61.1909 48.408 60.6469 47.832C60.1189 47.256 59.4629 46.968 58.6789 46.968C57.8789 46.968 57.2149 47.256 56.6869 47.832C56.1589 48.392 55.8949 49.216 55.8949 50.304C55.8949 51.376 56.1509 52.2 56.6629 52.776C57.1909 53.352 57.8469 53.64 58.6309 53.64ZM85.7421 45.576C85.7421 46.552 85.5181 47.448 85.0701 48.264C84.6221 49.064 83.9341 49.712 83.0061 50.208C82.0781 50.704 80.9261 50.952 79.5501 50.952H77.0061V57H72.9021V40.152H79.5501C80.8941 40.152 82.0301 40.384 82.9581 40.848C83.8861 41.312 84.5821 41.952 85.0461 42.768C85.5101 43.584 85.7421 44.52 85.7421 45.576ZM79.2381 47.688C80.0221 47.688 80.6061 47.504 80.9901 47.136C81.3741 46.768 81.5661 46.248 81.5661 45.576C81.5661 44.904 81.3741 44.384 80.9901 44.016C80.6061 43.648 80.0221 43.464 79.2381 43.464H77.0061V47.688H79.2381ZM91.9826 45.84C92.4626 45.104 93.0626 44.528 93.7826 44.112C94.5026 43.68 95.3026 43.464 96.1826 43.464V47.808H95.0546C94.0306 47.808 93.2626 48.032 92.7506 48.48C92.2386 48.912 91.9826 49.68 91.9826 50.784V57H87.8786V43.608H91.9826V45.84ZM110.768 50.088C110.768 50.472 110.744 50.872 110.696 51.288H101.408C101.472 52.12 101.736 52.76 102.2 53.208C102.68 53.64 103.264 53.856 103.952 53.856C104.976 53.856 105.688 53.424 106.088 52.56H110.456C110.232 53.44 109.824 54.232 109.232 54.936C108.656 55.64 107.928 56.192 107.048 56.592C106.168 56.992 105.184 57.192 104.096 57.192C102.784 57.192 101.616 56.912 100.592 56.352C99.5683 55.792 98.7683 54.992 98.1923 53.952C97.6163 52.912 97.3283 51.696 97.3283 50.304C97.3283 48.912 97.6083 47.696 98.1683 46.656C98.7443 45.616 99.5443 44.816 100.568 44.256C101.592 43.696 102.768 43.416 104.096 43.416C105.392 43.416 106.544 43.688 107.552 44.232C108.56 44.776 109.344 45.552 109.904 46.56C110.48 47.568 110.768 48.744 110.768 50.088ZM106.568 49.008C106.568 48.304 106.328 47.744 105.848 47.328C105.368 46.912 104.768 46.704 104.048 46.704C103.36 46.704 102.776 46.904 102.296 47.304C101.832 47.704 101.544 48.272 101.432 49.008H106.568ZM117.037 45.504C117.437 44.88 117.989 44.376 118.693 43.992C119.397 43.608 120.221 43.416 121.165 43.416C122.269 43.416 123.269 43.696 124.165 44.256C125.061 44.816 125.765 45.616 126.277 46.656C126.805 47.696 127.069 48.904 127.069 50.28C127.069 51.656 126.805 52.872 126.277 53.928C125.765 54.968 125.061 55.776 124.165 56.352C123.269 56.912 122.269 57.192 121.165 57.192C120.237 57.192 119.413 57 118.693 56.616C117.989 56.232 117.437 55.736 117.037 55.128V63.384H112.933V43.608H117.037V45.504ZM122.893 50.28C122.893 49.256 122.605 48.456 122.029 47.88C121.469 47.288 120.773 46.992 119.941 46.992C119.125 46.992 118.429 47.288 117.853 47.88C117.293 48.472 117.013 49.28 117.013 50.304C117.013 51.328 117.293 52.136 117.853 52.728C118.429 53.32 119.125 53.616 119.941 53.616C120.757 53.616 121.453 53.32 122.029 52.728C122.605 52.12 122.893 51.304 122.893 50.28ZM128.406 50.28C128.406 48.904 128.662 47.696 129.174 46.656C129.702 45.616 130.414 44.816 131.31 44.256C132.206 43.696 133.206 43.416 134.31 43.416C135.254 43.416 136.078 43.608 136.782 43.992C137.502 44.376 138.054 44.88 138.438 45.504V43.608H142.542V57H138.438V55.104C138.038 55.728 137.478 56.232 136.758 56.616C136.054 57 135.23 57.192 134.286 57.192C133.198 57.192 132.206 56.912 131.31 56.352C130.414 55.776 129.702 54.968 129.174 53.928C128.662 52.872 128.406 51.656 128.406 50.28ZM138.438 50.304C138.438 49.28 138.15 48.472 137.574 47.88C137.014 47.288 136.326 46.992 135.51 46.992C134.694 46.992 133.998 47.288 133.422 47.88C132.862 48.456 132.582 49.256 132.582 50.28C132.582 51.304 132.862 52.12 133.422 52.728C133.998 53.32 134.694 53.616 135.51 53.616C136.326 53.616 137.014 53.32 137.574 52.728C138.15 52.136 138.438 51.328 138.438 50.304ZM159.191 43.608L150.791 63.36H146.375L149.447 56.544L143.999 43.608H148.583L151.679 51.984L154.751 43.608H159.191ZM177.764 43.464C179.428 43.464 180.748 43.968 181.724 44.976C182.716 45.984 183.212 47.384 183.212 49.176V57H179.132V49.728C179.132 48.864 178.9 48.2 178.436 47.736C177.988 47.256 177.364 47.016 176.564 47.016C175.764 47.016 175.132 47.256 174.668 47.736C174.22 48.2 173.996 48.864 173.996 49.728V57H169.916V49.728C169.916 48.864 169.684 48.2 169.22 47.736C168.772 47.256 168.148 47.016 167.348 47.016C166.548 47.016 165.916 47.256 165.452 47.736C165.004 48.2 164.78 48.864 164.78 49.728V57H160.676V43.608H164.78V45.288C165.196 44.728 165.74 44.288 166.412 43.968C167.084 43.632 167.844 43.464 168.692 43.464C169.7 43.464 170.596 43.68 171.38 44.112C172.18 44.544 172.804 45.16 173.252 45.96C173.716 45.224 174.348 44.624 175.148 44.16C175.948 43.696 176.82 43.464 177.764 43.464ZM198.706 50.088C198.706 50.472 198.682 50.872 198.634 51.288H189.346C189.41 52.12 189.674 52.76 190.138 53.208C190.618 53.64 191.202 53.856 191.89 53.856C192.914 53.856 193.626 53.424 194.026 52.56H198.394C198.17 53.44 197.762 54.232 197.17 54.936C196.594 55.64 195.866 56.192 194.986 56.592C194.106 56.992 193.122 57.192 192.034 57.192C190.722 57.192 189.554 56.912 188.53 56.352C187.506 55.792 186.706 54.992 186.13 53.952C185.554 52.912 185.266 51.696 185.266 50.304C185.266 48.912 185.546 47.696 186.106 46.656C186.682 45.616 187.482 44.816 188.506 44.256C189.53 43.696 190.706 43.416 192.034 43.416C193.33 43.416 194.482 43.688 195.49 44.232C196.498 44.776 197.282 45.552 197.842 46.56C198.418 47.568 198.706 48.744 198.706 50.088ZM194.506 49.008C194.506 48.304 194.266 47.744 193.786 47.328C193.306 46.912 192.706 46.704 191.986 46.704C191.298 46.704 190.714 46.904 190.234 47.304C189.77 47.704 189.482 48.272 189.37 49.008H194.506ZM209.031 43.464C210.599 43.464 211.847 43.976 212.775 45C213.719 46.008 214.191 47.4 214.191 49.176V57H210.111V49.728C210.111 48.832 209.879 48.136 209.415 47.64C208.951 47.144 208.327 46.896 207.543 46.896C206.759 46.896 206.135 47.144 205.671 47.64C205.207 48.136 204.975 48.832 204.975 49.728V57H200.871V43.608H204.975V45.384C205.391 44.792 205.951 44.328 206.655 43.992C207.359 43.64 208.151 43.464 209.031 43.464ZM224.507 53.52V57H222.419C220.931 57 219.771 56.64 218.939 55.92C218.107 55.184 217.691 53.992 217.691 52.344V47.016H216.059V43.608H217.691V40.344H221.795V43.608H224.483V47.016H221.795V52.392C221.795 52.792 221.891 53.08 222.083 53.256C222.275 53.432 222.595 53.52 223.043 53.52H224.507ZM232.241 57.192C231.073 57.192 230.033 56.992 229.121 56.592C228.209 56.192 227.489 55.648 226.961 54.96C226.433 54.256 226.137 53.472 226.073 52.608H230.129C230.177 53.072 230.393 53.448 230.777 53.736C231.161 54.024 231.633 54.168 232.193 54.168C232.705 54.168 233.097 54.072 233.369 53.88C233.657 53.672 233.801 53.408 233.801 53.088C233.801 52.704 233.601 52.424 233.201 52.248C232.801 52.056 232.153 51.848 231.257 51.624C230.297 51.4 229.497 51.168 228.857 50.928C228.217 50.672 227.665 50.28 227.201 49.752C226.737 49.208 226.505 48.48 226.505 47.568C226.505 46.8 226.713 46.104 227.129 45.48C227.561 44.84 228.185 44.336 229.001 43.968C229.833 43.6 230.817 43.416 231.953 43.416C233.633 43.416 234.953 43.832 235.913 44.664C236.889 45.496 237.449 46.6 237.593 47.976H233.801C233.737 47.512 233.529 47.144 233.177 46.872C232.841 46.6 232.393 46.464 231.833 46.464C231.353 46.464 230.985 46.56 230.729 46.752C230.473 46.928 230.345 47.176 230.345 47.496C230.345 47.88 230.545 48.168 230.945 48.36C231.361 48.552 232.001 48.744 232.865 48.936C233.857 49.192 234.665 49.448 235.289 49.704C235.913 49.944 236.457 50.344 236.921 50.904C237.401 51.448 237.649 52.184 237.665 53.112C237.665 53.896 237.441 54.6 236.993 55.224C236.561 55.832 235.929 56.312 235.097 56.664C234.281 57.016 233.329 57.192 232.241 57.192Z" fill="#444444"/>
<rect x="210" y="210" width="70" height="70" rx="16" fill="#EF6C0D"/>
<path d="M226.413 244.75C226.413 241.31 227.073 238.6 228.393 236.62C229.733 234.64 231.883 233.65 234.843 233.65C237.803 233.65 239.943 234.64 241.263 236.62C242.603 238.6 243.273 241.31 243.273 244.75C243.273 248.23 242.603 250.96 241.263 252.94C239.943 254.92 237.803 255.91 234.843 255.91C231.883 255.91 229.733 254.92 228.393 252.94C227.073 250.96 226.413 248.23 226.413 244.75ZM238.233 244.75C238.233 242.73 238.013 241.18 237.573 240.1C237.133 239 236.223 238.45 234.843 238.45C233.463 238.45 232.553 239 232.113 240.1C231.673 241.18 231.453 242.73 231.453 244.75C231.453 246.11 231.533 247.24 231.693 248.14C231.853 249.02 232.173 249.74 232.653 250.3C233.153 250.84 233.883 251.11 234.843 251.11C235.803 251.11 236.523 250.84 237.003 250.3C237.503 249.74 237.833 249.02 237.993 248.14C238.153 247.24 238.233 246.11 238.233 244.75ZM246.104 252.1V247.96L255.584 234.4H261.314V247.66H263.774V252.1H261.314V256H256.184V252.1H246.104ZM256.544 240.04L251.504 247.66H256.544V240.04Z" fill="white"/>
</svg>
