<svg width="280" height="280" viewBox="0 0 280 280" fill="none" xmlns="http://www.w3.org/2000/svg">
<path fill-rule="evenodd" clip-rule="evenodd" d="M280 30C280 13.4315 266.569 0 250 0H30C13.4315 0 0 13.4315 0 30V250C0 266.569 13.4315 280 30 280H159.5C176.069 280 189.5 266.569 189.5 250V218C189.5 201.431 202.931 188 219.5 188H260C271.046 188 280 179.046 280 168V30Z" fill="#444444"/>
<path fill-rule="evenodd" clip-rule="evenodd" d="M280 30C280 13.4315 266.569 0 250 0H30C13.4315 0 0 13.4315 0 30V250C0 266.569 13.4315 280 30 280H159.5C176.069 280 189.5 266.569 189.5 250V218C189.5 201.431 202.931 188 219.5 188H260C271.046 188 280 179.046 280 168V30Z" fill="white" fill-opacity="0.95"/>
<path d="M45.26 103.52L42.82 100.88C42.22 101.053 41.56 101.14 40.84 101.14C39.5467 101.14 38.3533 100.84 37.26 100.24C36.18 99.6267 35.32 98.78 34.68 97.7C34.0533 96.6067 33.74 95.38 33.74 94.02C33.74 92.66 34.0533 91.44 34.68 90.36C35.32 89.28 36.18 88.44 37.26 87.84C38.3533 87.2267 39.5467 86.92 40.84 86.92C42.1467 86.92 43.34 87.2267 44.42 87.84C45.5133 88.44 46.3733 89.28 47 90.36C47.6267 91.44 47.94 92.66 47.94 94.02C47.94 95.3 47.66 96.46 47.1 97.5C46.5533 98.5267 45.7933 99.3533 44.82 99.98L48.16 103.52H45.26ZM36.08 94.02C36.08 95.0467 36.28 95.9533 36.68 96.74C37.0933 97.5133 37.66 98.1133 38.38 98.54C39.1 98.9533 39.92 99.16 40.84 99.16C41.76 99.16 42.58 98.9533 43.3 98.54C44.02 98.1133 44.58 97.5133 44.98 96.74C45.3933 95.9533 45.6 95.0467 45.6 94.02C45.6 92.9933 45.3933 92.0933 44.98 91.32C44.58 90.5467 44.02 89.9533 43.3 89.54C42.58 89.1267 41.76 88.92 40.84 88.92C39.92 88.92 39.1 89.1267 38.38 89.54C37.66 89.9533 37.0933 90.5467 36.68 91.32C36.28 92.0933 36.08 92.9933 36.08 94.02ZM60.2222 89.98V101H57.9422V99.7C57.5822 100.153 57.1089 100.513 56.5222 100.78C55.9489 101.033 55.3355 101.16 54.6822 101.16C53.8155 101.16 53.0355 100.98 52.3422 100.62C51.6622 100.26 51.1222 99.7267 50.7222 99.02C50.3355 98.3133 50.1422 97.46 50.1422 96.46V89.98H52.4022V96.12C52.4022 97.1067 52.6489 97.8667 53.1422 98.4C53.6355 98.92 54.3089 99.18 55.1622 99.18C56.0155 99.18 56.6889 98.92 57.1822 98.4C57.6889 97.8667 57.9422 97.1067 57.9422 96.12V89.98H60.2222ZM62.4705 95.44C62.4705 94.3333 62.6971 93.3533 63.1505 92.5C63.6171 91.6467 64.2438 90.9867 65.0305 90.52C65.8305 90.04 66.7105 89.8 67.6705 89.8C68.5371 89.8 69.2905 89.9733 69.9305 90.32C70.5838 90.6533 71.1038 91.0733 71.4905 91.58V89.98H73.7905V101H71.4905V99.36C71.1038 99.88 70.5771 100.313 69.9105 100.66C69.2438 101.007 68.4838 101.18 67.6305 101.18C66.6838 101.18 65.8171 100.94 65.0305 100.46C64.2438 99.9667 63.6171 99.2867 63.1505 98.42C62.6971 97.54 62.4705 96.5467 62.4705 95.44ZM71.4905 95.48C71.4905 94.72 71.3305 94.06 71.0105 93.5C70.7038 92.94 70.2971 92.5133 69.7905 92.22C69.2838 91.9267 68.7371 91.78 68.1505 91.78C67.5638 91.78 67.0171 91.9267 66.5105 92.22C66.0038 92.5 65.5905 92.92 65.2705 93.48C64.9638 94.0267 64.8105 94.68 64.8105 95.44C64.8105 96.2 64.9638 96.8667 65.2705 97.44C65.5905 98.0133 66.0038 98.4533 66.5105 98.76C67.0305 99.0533 67.5771 99.2 68.1505 99.2C68.7371 99.2 69.2838 99.0533 69.7905 98.76C70.2971 98.4667 70.7038 98.04 71.0105 97.48C71.3305 96.9067 71.4905 96.24 71.4905 95.48ZM79.0652 86.2V101H76.7852V86.2H79.0652ZM83.2186 88.52C82.8053 88.52 82.4586 88.38 82.1786 88.1C81.8986 87.82 81.7586 87.4733 81.7586 87.06C81.7586 86.6467 81.8986 86.3 82.1786 86.02C82.4586 85.74 82.8053 85.6 83.2186 85.6C83.6186 85.6 83.9586 85.74 84.2386 86.02C84.5186 86.3 84.6586 86.6467 84.6586 87.06C84.6586 87.4733 84.5186 87.82 84.2386 88.1C83.9586 88.38 83.6186 88.52 83.2186 88.52ZM84.3386 89.98V101H82.0586V89.98H84.3386ZM89.992 91.84V97.94C89.992 98.3533 90.0854 98.6533 90.272 98.84C90.472 99.0133 90.8054 99.1 91.272 99.1H92.672V101H90.872C89.8454 101 89.0587 100.76 88.512 100.28C87.9654 99.8 87.692 99.02 87.692 97.94V91.84H86.392V89.98H87.692V87.24H89.992V89.98H92.672V91.84H89.992ZM104.693 89.98L97.9334 106.18H95.5734L97.8134 100.82L93.4734 89.98H96.0134L99.1134 98.38L102.333 89.98H104.693ZM110.849 95.44C110.849 94.3333 111.076 93.3533 111.529 92.5C111.996 91.6467 112.623 90.9867 113.409 90.52C114.209 90.04 115.089 89.8 116.049 89.8C116.916 89.8 117.669 89.9733 118.309 90.32C118.963 90.6533 119.483 91.0733 119.869 91.58V89.98H122.169V101H119.869V99.36C119.483 99.88 118.956 100.313 118.289 100.66C117.623 101.007 116.863 101.18 116.009 101.18C115.063 101.18 114.196 100.94 113.409 100.46C112.623 99.9667 111.996 99.2867 111.529 98.42C111.076 97.54 110.849 96.5467 110.849 95.44ZM119.869 95.48C119.869 94.72 119.709 94.06 119.389 93.5C119.083 92.94 118.676 92.5133 118.169 92.22C117.663 91.9267 117.116 91.78 116.529 91.78C115.943 91.78 115.396 91.9267 114.889 92.22C114.383 92.5 113.969 92.92 113.649 93.48C113.343 94.0267 113.189 94.68 113.189 95.44C113.189 96.2 113.343 96.8667 113.649 97.44C113.969 98.0133 114.383 98.4533 114.889 98.76C115.409 99.0533 115.956 99.2 116.529 99.2C117.116 99.2 117.663 99.0533 118.169 98.76C118.676 98.4667 119.083 98.04 119.389 97.48C119.709 96.9067 119.869 96.24 119.869 95.48ZM129.164 101.18C128.297 101.18 127.517 101.027 126.824 100.72C126.144 100.4 125.604 99.9733 125.204 99.44C124.804 98.8933 124.591 98.2867 124.564 97.62H126.924C126.964 98.0867 127.184 98.48 127.584 98.8C127.997 99.1067 128.511 99.26 129.124 99.26C129.764 99.26 130.257 99.14 130.604 98.9C130.964 98.6467 131.144 98.3267 131.144 97.94C131.144 97.5267 130.944 97.22 130.544 97.02C130.157 96.82 129.537 96.6 128.684 96.36C127.857 96.1333 127.184 95.9133 126.664 95.7C126.144 95.4867 125.691 95.16 125.304 94.72C124.931 94.28 124.744 93.7 124.744 92.98C124.744 92.3933 124.917 91.86 125.264 91.38C125.611 90.8867 126.104 90.5 126.744 90.22C127.397 89.94 128.144 89.8 128.984 89.8C130.237 89.8 131.244 90.12 132.004 90.76C132.777 91.3867 133.191 92.2467 133.244 93.34H130.964C130.924 92.8467 130.724 92.4533 130.364 92.16C130.004 91.8667 129.517 91.72 128.904 91.72C128.304 91.72 127.844 91.8333 127.524 92.06C127.204 92.2867 127.044 92.5867 127.044 92.96C127.044 93.2533 127.151 93.5 127.364 93.7C127.577 93.9 127.837 94.06 128.144 94.18C128.451 94.2867 128.904 94.4267 129.504 94.6C130.304 94.8133 130.957 95.0333 131.464 95.26C131.984 95.4733 132.431 95.7933 132.804 96.22C133.177 96.6467 133.371 97.2133 133.384 97.92C133.384 98.5467 133.211 99.1067 132.864 99.6C132.517 100.093 132.024 100.48 131.384 100.76C130.757 101.04 130.017 101.18 129.164 101.18ZM139.848 101.18C138.981 101.18 138.201 101.027 137.508 100.72C136.828 100.4 136.288 99.9733 135.888 99.44C135.488 98.8933 135.274 98.2867 135.248 97.62H137.608C137.648 98.0867 137.868 98.48 138.268 98.8C138.681 99.1067 139.194 99.26 139.808 99.26C140.448 99.26 140.941 99.14 141.288 98.9C141.648 98.6467 141.828 98.3267 141.828 97.94C141.828 97.5267 141.628 97.22 141.228 97.02C140.841 96.82 140.221 96.6 139.368 96.36C138.541 96.1333 137.868 95.9133 137.348 95.7C136.828 95.4867 136.374 95.16 135.988 94.72C135.614 94.28 135.428 93.7 135.428 92.98C135.428 92.3933 135.601 91.86 135.948 91.38C136.294 90.8867 136.788 90.5 137.428 90.22C138.081 89.94 138.828 89.8 139.668 89.8C140.921 89.8 141.928 90.12 142.688 90.76C143.461 91.3867 143.874 92.2467 143.928 93.34H141.648C141.608 92.8467 141.408 92.4533 141.048 92.16C140.688 91.8667 140.201 91.72 139.588 91.72C138.988 91.72 138.528 91.8333 138.208 92.06C137.888 92.2867 137.728 92.5867 137.728 92.96C137.728 93.2533 137.834 93.5 138.048 93.7C138.261 93.9 138.521 94.06 138.828 94.18C139.134 94.2867 139.588 94.4267 140.188 94.6C140.988 94.8133 141.641 95.0333 142.148 95.26C142.668 95.4733 143.114 95.7933 143.488 96.22C143.861 96.6467 144.054 97.2133 144.068 97.92C144.068 98.5467 143.894 99.1067 143.548 99.6C143.201 100.093 142.708 100.48 142.068 100.76C141.441 101.04 140.701 101.18 139.848 101.18ZM156.511 89.98V101H154.231V99.7C153.871 100.153 153.398 100.513 152.811 100.78C152.238 101.033 151.625 101.16 150.971 101.16C150.105 101.16 149.325 100.98 148.631 100.62C147.951 100.26 147.411 99.7267 147.011 99.02C146.625 98.3133 146.431 97.46 146.431 96.46V89.98H148.691V96.12C148.691 97.1067 148.938 97.8667 149.431 98.4C149.925 98.92 150.598 99.18 151.451 99.18C152.305 99.18 152.978 98.92 153.471 98.4C153.978 97.8667 154.231 97.1067 154.231 96.12V89.98H156.511ZM161.8 91.58C162.133 91.02 162.573 90.5867 163.12 90.28C163.68 89.96 164.34 89.8 165.1 89.8V92.16H164.52C163.626 92.16 162.946 92.3867 162.48 92.84C162.026 93.2933 161.8 94.08 161.8 95.2V101H159.52V89.98H161.8V91.58ZM166.435 95.44C166.435 94.3333 166.662 93.3533 167.115 92.5C167.582 91.6467 168.209 90.9867 168.995 90.52C169.795 90.04 170.675 89.8 171.635 89.8C172.502 89.8 173.255 89.9733 173.895 90.32C174.549 90.6533 175.069 91.0733 175.455 91.58V89.98H177.755V101H175.455V99.36C175.069 99.88 174.542 100.313 173.875 100.66C173.209 101.007 172.449 101.18 171.595 101.18C170.649 101.18 169.782 100.94 168.995 100.46C168.209 99.9667 167.582 99.2867 167.115 98.42C166.662 97.54 166.435 96.5467 166.435 95.44ZM175.455 95.48C175.455 94.72 175.295 94.06 174.975 93.5C174.669 92.94 174.262 92.5133 173.755 92.22C173.249 91.9267 172.702 91.78 172.115 91.78C171.529 91.78 170.982 91.9267 170.475 92.22C169.969 92.5 169.555 92.92 169.235 93.48C168.929 94.0267 168.775 94.68 168.775 95.44C168.775 96.2 168.929 96.8667 169.235 97.44C169.555 98.0133 169.969 98.4533 170.475 98.76C170.995 99.0533 171.542 99.2 172.115 99.2C172.702 99.2 173.249 99.0533 173.755 98.76C174.262 98.4667 174.669 98.04 174.975 97.48C175.295 96.9067 175.455 96.24 175.455 95.48ZM186.31 89.8C187.177 89.8 187.95 89.98 188.63 90.34C189.323 90.7 189.863 91.2333 190.25 91.94C190.637 92.6467 190.83 93.5 190.83 94.5V101H188.57V94.84C188.57 93.8533 188.323 93.1 187.83 92.58C187.337 92.0467 186.663 91.78 185.81 91.78C184.957 91.78 184.277 92.0467 183.77 92.58C183.277 93.1 183.03 93.8533 183.03 94.84V101H180.75V89.98H183.03V91.24C183.403 90.7867 183.877 90.4333 184.45 90.18C185.037 89.9267 185.657 89.8 186.31 89.8ZM192.978 95.48C192.978 94.3467 193.205 93.3533 193.658 92.5C194.125 91.6333 194.765 90.9667 195.578 90.5C196.392 90.0333 197.325 89.8 198.378 89.8C199.712 89.8 200.812 90.12 201.678 90.76C202.558 91.3867 203.152 92.2867 203.458 93.46H200.998C200.798 92.9133 200.478 92.4867 200.038 92.18C199.598 91.8733 199.045 91.72 198.378 91.72C197.445 91.72 196.698 92.0533 196.138 92.72C195.592 93.3733 195.318 94.2933 195.318 95.48C195.318 96.6667 195.592 97.5933 196.138 98.26C196.698 98.9267 197.445 99.26 198.378 99.26C199.698 99.26 200.572 98.68 200.998 97.52H203.458C203.138 98.64 202.538 99.5333 201.658 100.2C200.778 100.853 199.685 101.18 198.378 101.18C197.325 101.18 196.392 100.947 195.578 100.48C194.765 100 194.125 99.3333 193.658 98.48C193.205 97.6133 192.978 96.6133 192.978 95.48ZM215.83 95.22C215.83 95.6333 215.804 96.0067 215.75 96.34H207.33C207.397 97.22 207.724 97.9267 208.31 98.46C208.897 98.9933 209.617 99.26 210.47 99.26C211.697 99.26 212.564 98.7467 213.07 97.72H215.53C215.197 98.7333 214.59 99.5667 213.71 100.22C212.844 100.86 211.764 101.18 210.47 101.18C209.417 101.18 208.47 100.947 207.63 100.48C206.804 100 206.15 99.3333 205.67 98.48C205.204 97.6133 204.97 96.6133 204.97 95.48C204.97 94.3467 205.197 93.3533 205.65 92.5C206.117 91.6333 206.764 90.9667 207.59 90.5C208.43 90.0333 209.39 89.8 210.47 89.8C211.51 89.8 212.437 90.0267 213.25 90.48C214.064 90.9333 214.697 91.5733 215.15 92.4C215.604 93.2133 215.83 94.1533 215.83 95.22ZM213.45 94.5C213.437 93.66 213.137 92.9867 212.55 92.48C211.964 91.9733 211.237 91.72 210.37 91.72C209.584 91.72 208.91 91.9733 208.35 92.48C207.79 92.9733 207.457 93.6467 207.35 94.5H213.45ZM37.16 123.84V129.94C37.16 130.353 37.2533 130.653 37.44 130.84C37.64 131.013 37.9733 131.1 38.44 131.1H39.84V133H38.04C37.0133 133 36.2267 132.76 35.68 132.28C35.1333 131.8 34.86 131.02 34.86 129.94V123.84H33.56V121.98H34.86V119.24H37.16V121.98H39.84V123.84H37.16ZM46.7214 133.18C45.6814 133.18 44.7414 132.947 43.9014 132.48C43.0614 132 42.4014 131.333 41.9214 130.48C41.4414 129.613 41.2014 128.613 41.2014 127.48C41.2014 126.36 41.4481 125.367 41.9414 124.5C42.4347 123.633 43.1081 122.967 43.9614 122.5C44.8147 122.033 45.7681 121.8 46.8214 121.8C47.8747 121.8 48.8281 122.033 49.6814 122.5C50.5347 122.967 51.2081 123.633 51.7014 124.5C52.1947 125.367 52.4414 126.36 52.4414 127.48C52.4414 128.6 52.1881 129.593 51.6814 130.46C51.1747 131.327 50.4814 132 49.6014 132.48C48.7347 132.947 47.7747 133.18 46.7214 133.18ZM46.7214 131.2C47.3081 131.2 47.8547 131.06 48.3614 130.78C48.8814 130.5 49.3014 130.08 49.6214 129.52C49.9414 128.96 50.1014 128.28 50.1014 127.48C50.1014 126.68 49.9481 126.007 49.6414 125.46C49.3347 124.9 48.9281 124.48 48.4214 124.2C47.9147 123.92 47.3681 123.78 46.7814 123.78C46.1947 123.78 45.6481 123.92 45.1414 124.2C44.6481 124.48 44.2547 124.9 43.9614 125.46C43.6681 126.007 43.5214 126.68 43.5214 127.48C43.5214 128.667 43.8214 129.587 44.4214 130.24C45.0347 130.88 45.8014 131.2 46.7214 131.2ZM69.9906 127.22C69.9906 127.633 69.964 128.007 69.9106 128.34H61.4906C61.5573 129.22 61.884 129.927 62.4706 130.46C63.0573 130.993 63.7773 131.26 64.6306 131.26C65.8573 131.26 66.724 130.747 67.2306 129.72H69.6906C69.3573 130.733 68.7506 131.567 67.8706 132.22C67.004 132.86 65.924 133.18 64.6306 133.18C63.5773 133.18 62.6306 132.947 61.7906 132.48C60.964 132 60.3106 131.333 59.8306 130.48C59.364 129.613 59.1306 128.613 59.1306 127.48C59.1306 126.347 59.3573 125.353 59.8106 124.5C60.2773 123.633 60.924 122.967 61.7506 122.5C62.5906 122.033 63.5506 121.8 64.6306 121.8C65.6706 121.8 66.5973 122.027 67.4106 122.48C68.224 122.933 68.8573 123.573 69.3106 124.4C69.764 125.213 69.9906 126.153 69.9906 127.22ZM67.6106 126.5C67.5973 125.66 67.2973 124.987 66.7106 124.48C66.124 123.973 65.3973 123.72 64.5306 123.72C63.744 123.72 63.0706 123.973 62.5106 124.48C61.9506 124.973 61.6173 125.647 61.5106 126.5H67.6106ZM77.7944 121.8C78.661 121.8 79.4344 121.98 80.1144 122.34C80.8077 122.7 81.3477 123.233 81.7344 123.94C82.121 124.647 82.3144 125.5 82.3144 126.5V133H80.0544V126.84C80.0544 125.853 79.8077 125.1 79.3144 124.58C78.821 124.047 78.1477 123.78 77.2944 123.78C76.441 123.78 75.761 124.047 75.2544 124.58C74.761 125.1 74.5144 125.853 74.5144 126.84V133H72.2344V121.98H74.5144V123.24C74.8877 122.787 75.361 122.433 75.9344 122.18C76.521 121.927 77.141 121.8 77.7944 121.8ZM89.2227 133.18C88.356 133.18 87.576 133.027 86.8827 132.72C86.2027 132.4 85.6627 131.973 85.2627 131.44C84.8627 130.893 84.6493 130.287 84.6227 129.62H86.9827C87.0227 130.087 87.2427 130.48 87.6427 130.8C88.056 131.107 88.5693 131.26 89.1827 131.26C89.8227 131.26 90.316 131.14 90.6627 130.9C91.0227 130.647 91.2027 130.327 91.2027 129.94C91.2027 129.527 91.0027 129.22 90.6027 129.02C90.216 128.82 89.596 128.6 88.7427 128.36C87.916 128.133 87.2427 127.913 86.7227 127.7C86.2027 127.487 85.7493 127.16 85.3627 126.72C84.9893 126.28 84.8027 125.7 84.8027 124.98C84.8027 124.393 84.976 123.86 85.3227 123.38C85.6693 122.887 86.1627 122.5 86.8027 122.22C87.456 121.94 88.2027 121.8 89.0427 121.8C90.296 121.8 91.3027 122.12 92.0627 122.76C92.836 123.387 93.2493 124.247 93.3027 125.34H91.0227C90.9827 124.847 90.7827 124.453 90.4227 124.16C90.0627 123.867 89.576 123.72 88.9627 123.72C88.3627 123.72 87.9027 123.833 87.5827 124.06C87.2627 124.287 87.1027 124.587 87.1027 124.96C87.1027 125.253 87.2093 125.5 87.4227 125.7C87.636 125.9 87.896 126.06 88.2027 126.18C88.5093 126.287 88.9627 126.427 89.5627 126.6C90.3627 126.813 91.016 127.033 91.5227 127.26C92.0427 127.473 92.4893 127.793 92.8627 128.22C93.236 128.647 93.4293 129.213 93.4427 129.92C93.4427 130.547 93.2693 131.107 92.9227 131.6C92.576 132.093 92.0827 132.48 91.4427 132.76C90.816 133.04 90.076 133.18 89.2227 133.18ZM105.886 121.98V133H103.606V131.7C103.246 132.153 102.773 132.513 102.186 132.78C101.613 133.033 101 133.16 100.346 133.16C99.4796 133.16 98.6996 132.98 98.0063 132.62C97.3263 132.26 96.7863 131.727 96.3863 131.02C95.9996 130.313 95.8063 129.46 95.8063 128.46V121.98H98.0663V128.12C98.0663 129.107 98.3129 129.867 98.8063 130.4C99.2996 130.92 99.9729 131.18 100.826 131.18C101.68 131.18 102.353 130.92 102.846 130.4C103.353 129.867 103.606 129.107 103.606 128.12V121.98H105.886ZM111.175 123.58C111.508 123.02 111.948 122.587 112.495 122.28C113.055 121.96 113.715 121.8 114.475 121.8V124.16H113.895C113.001 124.16 112.321 124.387 111.855 124.84C111.401 125.293 111.175 126.08 111.175 127.2V133H108.895V121.98H111.175V123.58ZM126.67 127.22C126.67 127.633 126.644 128.007 126.59 128.34H118.17C118.237 129.22 118.564 129.927 119.15 130.46C119.737 130.993 120.457 131.26 121.31 131.26C122.537 131.26 123.404 130.747 123.91 129.72H126.37C126.037 130.733 125.43 131.567 124.55 132.22C123.684 132.86 122.604 133.18 121.31 133.18C120.257 133.18 119.31 132.947 118.47 132.48C117.644 132 116.99 131.333 116.51 130.48C116.044 129.613 115.81 128.613 115.81 127.48C115.81 126.347 116.037 125.353 116.49 124.5C116.957 123.633 117.604 122.967 118.43 122.5C119.27 122.033 120.23 121.8 121.31 121.8C122.35 121.8 123.277 122.027 124.09 122.48C124.904 122.933 125.537 123.573 125.99 124.4C126.444 125.213 126.67 126.153 126.67 127.22ZM124.29 126.5C124.277 125.66 123.977 124.987 123.39 124.48C122.804 123.973 122.077 123.72 121.21 123.72C120.424 123.72 119.75 123.973 119.19 124.48C118.63 124.973 118.297 125.647 118.19 126.5H124.29ZM148.909 121.98L145.489 133H143.089L140.869 124.86L138.649 133H136.249L132.809 121.98H135.129L137.429 130.84L139.769 121.98H142.149L144.389 130.8L146.669 121.98H148.909ZM155.393 133.18C154.353 133.18 153.413 132.947 152.573 132.48C151.733 132 151.073 131.333 150.593 130.48C150.113 129.613 149.873 128.613 149.873 127.48C149.873 126.36 150.12 125.367 150.613 124.5C151.107 123.633 151.78 122.967 152.633 122.5C153.487 122.033 154.44 121.8 155.493 121.8C156.547 121.8 157.5 122.033 158.353 122.5C159.207 122.967 159.88 123.633 160.373 124.5C160.867 125.367 161.113 126.36 161.113 127.48C161.113 128.6 160.86 129.593 160.353 130.46C159.847 131.327 159.153 132 158.273 132.48C157.407 132.947 156.447 133.18 155.393 133.18ZM155.393 131.2C155.98 131.2 156.527 131.06 157.033 130.78C157.553 130.5 157.973 130.08 158.293 129.52C158.613 128.96 158.773 128.28 158.773 127.48C158.773 126.68 158.62 126.007 158.313 125.46C158.007 124.9 157.6 124.48 157.093 124.2C156.587 123.92 156.04 123.78 155.453 123.78C154.867 123.78 154.32 123.92 153.813 124.2C153.32 124.48 152.927 124.9 152.633 125.46C152.34 126.007 152.193 126.68 152.193 127.48C152.193 128.667 152.493 129.587 153.093 130.24C153.707 130.88 154.473 131.2 155.393 131.2ZM165.647 123.58C165.981 123.02 166.421 122.587 166.967 122.28C167.527 121.96 168.187 121.8 168.947 121.8V124.16H168.367C167.474 124.16 166.794 124.387 166.327 124.84C165.874 125.293 165.647 126.08 165.647 127.2V133H163.367V121.98H165.647V123.58ZM175.403 127.5L180.483 133H177.403L173.323 128.26V133H171.043V118.2H173.323V126.8L177.323 121.98H180.483L175.403 127.5ZM188.473 120.52C188.059 120.52 187.713 120.38 187.433 120.1C187.153 119.82 187.013 119.473 187.013 119.06C187.013 118.647 187.153 118.3 187.433 118.02C187.713 117.74 188.059 117.6 188.473 117.6C188.873 117.6 189.213 117.74 189.493 118.02C189.773 118.3 189.913 118.647 189.913 119.06C189.913 119.473 189.773 119.82 189.493 120.1C189.213 120.38 188.873 120.52 188.473 120.52ZM189.593 121.98V133H187.313V121.98H189.593ZM196.586 133.18C195.719 133.18 194.939 133.027 194.246 132.72C193.566 132.4 193.026 131.973 192.626 131.44C192.226 130.893 192.013 130.287 191.986 129.62H194.346C194.386 130.087 194.606 130.48 195.006 130.8C195.419 131.107 195.933 131.26 196.546 131.26C197.186 131.26 197.679 131.14 198.026 130.9C198.386 130.647 198.566 130.327 198.566 129.94C198.566 129.527 198.366 129.22 197.966 129.02C197.579 128.82 196.959 128.6 196.106 128.36C195.279 128.133 194.606 127.913 194.086 127.7C193.566 127.487 193.113 127.16 192.726 126.72C192.353 126.28 192.166 125.7 192.166 124.98C192.166 124.393 192.339 123.86 192.686 123.38C193.033 122.887 193.526 122.5 194.166 122.22C194.819 121.94 195.566 121.8 196.406 121.8C197.659 121.8 198.666 122.12 199.426 122.76C200.199 123.387 200.613 124.247 200.666 125.34H198.386C198.346 124.847 198.146 124.453 197.786 124.16C197.426 123.867 196.939 123.72 196.326 123.72C195.726 123.72 195.266 123.833 194.946 124.06C194.626 124.287 194.466 124.587 194.466 124.96C194.466 125.253 194.573 125.5 194.786 125.7C194.999 125.9 195.259 126.06 195.566 126.18C195.873 126.287 196.326 126.427 196.926 126.6C197.726 126.813 198.379 127.033 198.886 127.26C199.406 127.473 199.853 127.793 200.226 128.22C200.599 128.647 200.793 129.213 200.806 129.92C200.806 130.547 200.633 131.107 200.286 131.6C199.939 132.093 199.446 132.48 198.806 132.76C198.179 133.04 197.439 133.18 196.586 133.18ZM213.245 133.18C212.205 133.18 211.265 132.947 210.425 132.48C209.585 132 208.925 131.333 208.445 130.48C207.965 129.613 207.725 128.613 207.725 127.48C207.725 126.36 207.972 125.367 208.465 124.5C208.958 123.633 209.632 122.967 210.485 122.5C211.338 122.033 212.292 121.8 213.345 121.8C214.398 121.8 215.352 122.033 216.205 122.5C217.058 122.967 217.732 123.633 218.225 124.5C218.718 125.367 218.965 126.36 218.965 127.48C218.965 128.6 218.712 129.593 218.205 130.46C217.698 131.327 217.005 132 216.125 132.48C215.258 132.947 214.298 133.18 213.245 133.18ZM213.245 131.2C213.832 131.2 214.378 131.06 214.885 130.78C215.405 130.5 215.825 130.08 216.145 129.52C216.465 128.96 216.625 128.28 216.625 127.48C216.625 126.68 216.472 126.007 216.165 125.46C215.858 124.9 215.452 124.48 214.945 124.2C214.438 123.92 213.892 123.78 213.305 123.78C212.718 123.78 212.172 123.92 211.665 124.2C211.172 124.48 210.778 124.9 210.485 125.46C210.192 126.007 210.045 126.68 210.045 127.48C210.045 128.667 210.345 129.587 210.945 130.24C211.558 130.88 212.325 131.2 213.245 131.2ZM225.839 123.84H223.799V133H221.499V123.84H220.199V121.98H221.499V121.2C221.499 119.933 221.832 119.013 222.499 118.44C223.179 117.853 224.239 117.56 225.679 117.56V119.46C224.985 119.46 224.499 119.593 224.219 119.86C223.939 120.113 223.799 120.56 223.799 121.2V121.98H225.839V123.84ZM33.74 159.44C33.74 158.333 33.9667 157.353 34.42 156.5C34.8867 155.647 35.5133 154.987 36.3 154.52C37.1 154.04 37.98 153.8 38.94 153.8C39.8067 153.8 40.56 153.973 41.2 154.32C41.8533 154.653 42.3733 155.073 42.76 155.58V153.98H45.06V165H42.76V163.36C42.3733 163.88 41.8467 164.313 41.18 164.66C40.5133 165.007 39.7533 165.18 38.9 165.18C37.9533 165.18 37.0867 164.94 36.3 164.46C35.5133 163.967 34.8867 163.287 34.42 162.42C33.9667 161.54 33.74 160.547 33.74 159.44ZM42.76 159.48C42.76 158.72 42.6 158.06 42.28 157.5C41.9733 156.94 41.5667 156.513 41.06 156.22C40.5533 155.927 40.0067 155.78 39.42 155.78C38.8333 155.78 38.2867 155.927 37.78 156.22C37.2733 156.5 36.86 156.92 36.54 157.48C36.2333 158.027 36.08 158.68 36.08 159.44C36.08 160.2 36.2333 160.867 36.54 161.44C36.86 162.013 37.2733 162.453 37.78 162.76C38.3 163.053 38.8467 163.2 39.42 163.2C40.0067 163.2 40.5533 163.053 41.06 162.76C41.5667 162.467 41.9733 162.04 42.28 161.48C42.6 160.907 42.76 160.24 42.76 159.48ZM58.95 153.8C59.79 153.8 60.5367 153.98 61.19 154.34C61.8567 154.7 62.3767 155.233 62.75 155.94C63.1367 156.647 63.33 157.5 63.33 158.5V165H61.07V158.84C61.07 157.853 60.8233 157.1 60.33 156.58C59.8367 156.047 59.1633 155.78 58.31 155.78C57.4567 155.78 56.7767 156.047 56.27 156.58C55.7767 157.1 55.53 157.853 55.53 158.84V165H53.25V150.2H55.53V155.26C55.9167 154.793 56.4033 154.433 56.99 154.18C57.59 153.927 58.2433 153.8 58.95 153.8ZM67.3983 152.52C66.9849 152.52 66.6383 152.38 66.3583 152.1C66.0783 151.82 65.9383 151.473 65.9383 151.06C65.9383 150.647 66.0783 150.3 66.3583 150.02C66.6383 149.74 66.9849 149.6 67.3983 149.6C67.7983 149.6 68.1383 149.74 68.4183 150.02C68.6983 150.3 68.8383 150.647 68.8383 151.06C68.8383 151.473 68.6983 151.82 68.4183 152.1C68.1383 152.38 67.7983 152.52 67.3983 152.52ZM68.5183 153.98V165H66.2383V153.98H68.5183ZM75.9517 153.8C76.8051 153.8 77.5584 153.973 78.2117 154.32C78.8784 154.653 79.3984 155.073 79.7717 155.58V153.98H82.0717V165.18C82.0717 166.193 81.8584 167.093 81.4317 167.88C81.0051 168.68 80.3851 169.307 79.5717 169.76C78.7717 170.213 77.8117 170.44 76.6917 170.44C75.1984 170.44 73.9584 170.087 72.9717 169.38C71.9851 168.687 71.4251 167.74 71.2917 166.54H73.5517C73.7251 167.113 74.0917 167.573 74.6517 167.92C75.2251 168.28 75.9051 168.46 76.6917 168.46C77.6117 168.46 78.3517 168.18 78.9117 167.62C79.4851 167.06 79.7717 166.247 79.7717 165.18V163.34C79.3851 163.86 78.8584 164.3 78.1917 164.66C77.5384 165.007 76.7917 165.18 75.9517 165.18C74.9917 165.18 74.1117 164.94 73.3117 164.46C72.5251 163.967 71.8984 163.287 71.4317 162.42C70.9784 161.54 70.7517 160.547 70.7517 159.44C70.7517 158.333 70.9784 157.353 71.4317 156.5C71.8984 155.647 72.5251 154.987 73.3117 154.52C74.1117 154.04 74.9917 153.8 75.9517 153.8ZM79.7717 159.48C79.7717 158.72 79.6117 158.06 79.2917 157.5C78.9851 156.94 78.5784 156.513 78.0717 156.22C77.5651 155.927 77.0184 155.78 76.4317 155.78C75.8451 155.78 75.2984 155.927 74.7917 156.22C74.2851 156.5 73.8717 156.92 73.5517 157.48C73.2451 158.027 73.0917 158.68 73.0917 159.44C73.0917 160.2 73.2451 160.867 73.5517 161.44C73.8717 162.013 74.2851 162.453 74.7917 162.76C75.3117 163.053 75.8584 163.2 76.4317 163.2C77.0184 163.2 77.5651 163.053 78.0717 162.76C78.5784 162.467 78.9851 162.04 79.2917 161.48C79.6117 160.907 79.7717 160.24 79.7717 159.48ZM90.7664 153.8C91.6064 153.8 92.3531 153.98 93.0064 154.34C93.6731 154.7 94.1931 155.233 94.5664 155.94C94.9531 156.647 95.1464 157.5 95.1464 158.5V165H92.8864V158.84C92.8864 157.853 92.6397 157.1 92.1464 156.58C91.6531 156.047 90.9797 155.78 90.1264 155.78C89.2731 155.78 88.5931 156.047 88.0864 156.58C87.5931 157.1 87.3464 157.853 87.3464 158.84V165H85.0664V150.2H87.3464V155.26C87.7331 154.793 88.2197 154.433 88.8064 154.18C89.4064 153.927 90.0597 153.8 90.7664 153.8ZM107.25 165.18C106.383 165.18 105.603 165.027 104.91 164.72C104.23 164.4 103.69 163.973 103.29 163.44C102.89 162.893 102.677 162.287 102.65 161.62H105.01C105.05 162.087 105.27 162.48 105.67 162.8C106.083 163.107 106.597 163.26 107.21 163.26C107.85 163.26 108.343 163.14 108.69 162.9C109.05 162.647 109.23 162.327 109.23 161.94C109.23 161.527 109.03 161.22 108.63 161.02C108.243 160.82 107.623 160.6 106.77 160.36C105.943 160.133 105.27 159.913 104.75 159.7C104.23 159.487 103.777 159.16 103.39 158.72C103.017 158.28 102.83 157.7 102.83 156.98C102.83 156.393 103.003 155.86 103.35 155.38C103.697 154.887 104.19 154.5 104.83 154.22C105.483 153.94 106.23 153.8 107.07 153.8C108.323 153.8 109.33 154.12 110.09 154.76C110.863 155.387 111.277 156.247 111.33 157.34H109.05C109.01 156.847 108.81 156.453 108.45 156.16C108.09 155.867 107.603 155.72 106.99 155.72C106.39 155.72 105.93 155.833 105.61 156.06C105.29 156.287 105.13 156.587 105.13 156.96C105.13 157.253 105.237 157.5 105.45 157.7C105.663 157.9 105.923 158.06 106.23 158.18C106.537 158.287 106.99 158.427 107.59 158.6C108.39 158.813 109.043 159.033 109.55 159.26C110.07 159.473 110.517 159.793 110.89 160.22C111.263 160.647 111.457 161.213 111.47 161.92C111.47 162.547 111.297 163.107 110.95 163.6C110.603 164.093 110.11 164.48 109.47 164.76C108.843 165.04 108.103 165.18 107.25 165.18ZM116.594 155.84V161.94C116.594 162.353 116.687 162.653 116.874 162.84C117.074 163.013 117.407 163.1 117.874 163.1H119.274V165H117.474C116.447 165 115.66 164.76 115.114 164.28C114.567 163.8 114.294 163.02 114.294 161.94V155.84H112.994V153.98H114.294V151.24H116.594V153.98H119.274V155.84H116.594ZM120.615 159.44C120.615 158.333 120.842 157.353 121.295 156.5C121.762 155.647 122.388 154.987 123.175 154.52C123.975 154.04 124.855 153.8 125.815 153.8C126.682 153.8 127.435 153.973 128.075 154.32C128.728 154.653 129.248 155.073 129.635 155.58V153.98H131.935V165H129.635V163.36C129.248 163.88 128.722 164.313 128.055 164.66C127.388 165.007 126.628 165.18 125.775 165.18C124.828 165.18 123.962 164.94 123.175 164.46C122.388 163.967 121.762 163.287 121.295 162.42C120.842 161.54 120.615 160.547 120.615 159.44ZM129.635 159.48C129.635 158.72 129.475 158.06 129.155 157.5C128.848 156.94 128.442 156.513 127.935 156.22C127.428 155.927 126.882 155.78 126.295 155.78C125.708 155.78 125.162 155.927 124.655 156.22C124.148 156.5 123.735 156.92 123.415 157.48C123.108 158.027 122.955 158.68 122.955 159.44C122.955 160.2 123.108 160.867 123.415 161.44C123.735 162.013 124.148 162.453 124.655 162.76C125.175 163.053 125.722 163.2 126.295 163.2C126.882 163.2 127.428 163.053 127.935 162.76C128.442 162.467 128.848 162.04 129.155 161.48C129.475 160.907 129.635 160.24 129.635 159.48ZM140.49 153.8C141.356 153.8 142.13 153.98 142.81 154.34C143.503 154.7 144.043 155.233 144.43 155.94C144.816 156.647 145.01 157.5 145.01 158.5V165H142.75V158.84C142.75 157.853 142.503 157.1 142.01 156.58C141.516 156.047 140.843 155.78 139.99 155.78C139.136 155.78 138.456 156.047 137.95 156.58C137.456 157.1 137.21 157.853 137.21 158.84V165H134.93V153.98H137.21V155.24C137.583 154.787 138.056 154.433 138.63 154.18C139.216 153.927 139.836 153.8 140.49 153.8ZM147.158 159.44C147.158 158.333 147.385 157.353 147.838 156.5C148.305 155.647 148.931 154.987 149.718 154.52C150.518 154.04 151.405 153.8 152.378 153.8C153.098 153.8 153.805 153.96 154.498 154.28C155.205 154.587 155.765 155 156.178 155.52V150.2H158.478V165H156.178V163.34C155.805 163.873 155.285 164.313 154.618 164.66C153.965 165.007 153.211 165.18 152.358 165.18C151.398 165.18 150.518 164.94 149.718 164.46C148.931 163.967 148.305 163.287 147.838 162.42C147.385 161.54 147.158 160.547 147.158 159.44ZM156.178 159.48C156.178 158.72 156.018 158.06 155.698 157.5C155.391 156.94 154.985 156.513 154.478 156.22C153.971 155.927 153.425 155.78 152.838 155.78C152.251 155.78 151.705 155.927 151.198 156.22C150.691 156.5 150.278 156.92 149.958 157.48C149.651 158.027 149.498 158.68 149.498 159.44C149.498 160.2 149.651 160.867 149.958 161.44C150.278 162.013 150.691 162.453 151.198 162.76C151.718 163.053 152.265 163.2 152.838 163.2C153.425 163.2 153.971 163.053 154.478 162.76C154.985 162.467 155.391 162.04 155.698 161.48C156.018 160.907 156.178 160.24 156.178 159.48ZM160.713 159.44C160.713 158.333 160.939 157.353 161.393 156.5C161.859 155.647 162.486 154.987 163.273 154.52C164.073 154.04 164.953 153.8 165.913 153.8C166.779 153.8 167.533 153.973 168.173 154.32C168.826 154.653 169.346 155.073 169.733 155.58V153.98H172.033V165H169.733V163.36C169.346 163.88 168.819 164.313 168.153 164.66C167.486 165.007 166.726 165.18 165.873 165.18C164.926 165.18 164.059 164.94 163.273 164.46C162.486 163.967 161.859 163.287 161.393 162.42C160.939 161.54 160.713 160.547 160.713 159.44ZM169.733 159.48C169.733 158.72 169.573 158.06 169.253 157.5C168.946 156.94 168.539 156.513 168.033 156.22C167.526 155.927 166.979 155.78 166.393 155.78C165.806 155.78 165.259 155.927 164.753 156.22C164.246 156.5 163.833 156.92 163.513 157.48C163.206 158.027 163.053 158.68 163.053 159.44C163.053 160.2 163.206 160.867 163.513 161.44C163.833 162.013 164.246 162.453 164.753 162.76C165.273 163.053 165.819 163.2 166.393 163.2C166.979 163.2 167.526 163.053 168.033 162.76C168.539 162.467 168.946 162.04 169.253 161.48C169.573 160.907 169.733 160.24 169.733 159.48ZM177.307 155.58C177.641 155.02 178.081 154.587 178.627 154.28C179.187 153.96 179.847 153.8 180.607 153.8V156.16H180.027C179.134 156.16 178.454 156.387 177.987 156.84C177.534 157.293 177.307 158.08 177.307 159.2V165H175.027V153.98H177.307V155.58ZM181.943 159.44C181.943 158.333 182.17 157.353 182.623 156.5C183.09 155.647 183.716 154.987 184.503 154.52C185.303 154.04 186.19 153.8 187.163 153.8C187.883 153.8 188.59 153.96 189.283 154.28C189.99 154.587 190.55 155 190.963 155.52V150.2H193.263V165H190.963V163.34C190.59 163.873 190.07 164.313 189.403 164.66C188.75 165.007 187.996 165.18 187.143 165.18C186.183 165.18 185.303 164.94 184.503 164.46C183.716 163.967 183.09 163.287 182.623 162.42C182.17 161.54 181.943 160.547 181.943 159.44ZM190.963 159.48C190.963 158.72 190.803 158.06 190.483 157.5C190.176 156.94 189.77 156.513 189.263 156.22C188.756 155.927 188.21 155.78 187.623 155.78C187.036 155.78 186.49 155.927 185.983 156.22C185.476 156.5 185.063 156.92 184.743 157.48C184.436 158.027 184.283 158.68 184.283 159.44C184.283 160.2 184.436 160.867 184.743 161.44C185.063 162.013 185.476 162.453 185.983 162.76C186.503 163.053 187.05 163.2 187.623 163.2C188.21 163.2 188.756 163.053 189.263 162.76C189.77 162.467 190.176 162.04 190.483 161.48C190.803 160.907 190.963 160.24 190.963 159.48Z" fill="#444444"/>
<path d="M46.488 59.88L44.328 56.976C43.688 57.104 43.064 57.168 42.456 57.168C40.872 57.168 39.416 56.8 38.088 56.064C36.776 55.328 35.728 54.304 34.944 52.992C34.176 51.664 33.792 50.176 33.792 48.528C33.792 46.88 34.176 45.4 34.944 44.088C35.728 42.776 36.776 41.752 38.088 41.016C39.416 40.28 40.872 39.912 42.456 39.912C44.04 39.912 45.488 40.28 46.8 41.016C48.128 41.752 49.168 42.776 49.92 44.088C50.688 45.4 51.072 46.88 51.072 48.528C51.072 49.968 50.776 51.288 50.184 52.488C49.608 53.672 48.8 54.656 47.76 55.44L51.456 59.88H46.488ZM37.992 48.528C37.992 50.016 38.392 51.208 39.192 52.104C40.008 52.984 41.096 53.424 42.456 53.424C43.8 53.424 44.872 52.976 45.672 52.08C46.488 51.184 46.896 50 46.896 48.528C46.896 47.04 46.488 45.856 45.672 44.976C44.872 44.08 43.8 43.632 42.456 43.632C41.096 43.632 40.008 44.072 39.192 44.952C38.392 45.832 37.992 47.024 37.992 48.528ZM66.6261 43.608V57H62.5221V55.176C62.1061 55.768 61.5381 56.248 60.8181 56.616C60.1141 56.968 59.3301 57.144 58.4661 57.144C57.4421 57.144 56.5381 56.92 55.7541 56.472C54.9701 56.008 54.3621 55.344 53.9301 54.48C53.4981 53.616 53.2821 52.6 53.2821 51.432V43.608H57.3621V50.88C57.3621 51.776 57.5941 52.472 58.0581 52.968C58.5221 53.464 59.1461 53.712 59.9301 53.712C60.7301 53.712 61.3621 53.464 61.8261 52.968C62.2901 52.472 62.5221 51.776 62.5221 50.88V43.608H66.6261ZM68.7579 50.28C68.7579 48.904 69.0139 47.696 69.5259 46.656C70.0539 45.616 70.7659 44.816 71.6619 44.256C72.5579 43.696 73.5579 43.416 74.6619 43.416C75.6059 43.416 76.4299 43.608 77.1339 43.992C77.8539 44.376 78.4059 44.88 78.7899 45.504V43.608H82.8939V57H78.7899V55.104C78.3899 55.728 77.8299 56.232 77.1099 56.616C76.4059 57 75.5819 57.192 74.6379 57.192C73.5499 57.192 72.5579 56.912 71.6619 56.352C70.7659 55.776 70.0539 54.968 69.5259 53.928C69.0139 52.872 68.7579 51.656 68.7579 50.28ZM78.7899 50.304C78.7899 49.28 78.5019 48.472 77.9259 47.88C77.3659 47.288 76.6779 46.992 75.8619 46.992C75.0459 46.992 74.3499 47.288 73.7739 47.88C73.2139 48.456 72.9339 49.256 72.9339 50.28C72.9339 51.304 73.2139 52.12 73.7739 52.728C74.3499 53.32 75.0459 53.616 75.8619 53.616C76.6779 53.616 77.3659 53.32 77.9259 52.728C78.5019 52.136 78.7899 51.328 78.7899 50.304ZM89.967 39.24V57H85.863V39.24H89.967ZM95.0051 42.216C94.2851 42.216 93.6931 42.008 93.2291 41.592C92.7811 41.16 92.5571 40.632 92.5571 40.008C92.5571 39.368 92.7811 38.84 93.2291 38.424C93.6931 37.992 94.2851 37.776 95.0051 37.776C95.7091 37.776 96.2851 37.992 96.7331 38.424C97.1971 38.84 97.4291 39.368 97.4291 40.008C97.4291 40.632 97.1971 41.16 96.7331 41.592C96.2851 42.008 95.7091 42.216 95.0051 42.216ZM97.0451 43.608V57H92.9411V43.608H97.0451ZM107.483 53.52V57H105.395C103.907 57 102.747 56.64 101.915 55.92C101.083 55.184 100.667 53.992 100.667 52.344V47.016H99.0353V43.608H100.667V40.344H104.771V43.608H107.459V47.016H104.771V52.392C104.771 52.792 104.867 53.08 105.059 53.256C105.251 53.432 105.571 53.52 106.019 53.52H107.483ZM123.449 43.608L115.049 63.36H110.633L113.705 56.544L108.257 43.608H112.841L115.937 51.984L119.009 43.608H123.449ZM140.507 54.024H134.219L133.211 57H128.915L135.011 40.152H139.763L145.859 57H141.515L140.507 54.024ZM139.451 50.856L137.363 44.688L135.299 50.856H139.451ZM153.163 57.192C151.995 57.192 150.955 56.992 150.043 56.592C149.131 56.192 148.411 55.648 147.883 54.96C147.355 54.256 147.059 53.472 146.995 52.608H151.051C151.099 53.072 151.315 53.448 151.699 53.736C152.083 54.024 152.555 54.168 153.115 54.168C153.627 54.168 154.019 54.072 154.291 53.88C154.579 53.672 154.723 53.408 154.723 53.088C154.723 52.704 154.523 52.424 154.123 52.248C153.723 52.056 153.075 51.848 152.179 51.624C151.219 51.4 150.419 51.168 149.779 50.928C149.139 50.672 148.587 50.28 148.123 49.752C147.659 49.208 147.427 48.48 147.427 47.568C147.427 46.8 147.635 46.104 148.051 45.48C148.483 44.84 149.107 44.336 149.923 43.968C150.755 43.6 151.739 43.416 152.875 43.416C154.555 43.416 155.875 43.832 156.835 44.664C157.811 45.496 158.371 46.6 158.515 47.976H154.723C154.659 47.512 154.451 47.144 154.099 46.872C153.763 46.6 153.315 46.464 152.755 46.464C152.275 46.464 151.907 46.56 151.651 46.752C151.395 46.928 151.267 47.176 151.267 47.496C151.267 47.88 151.467 48.168 151.867 48.36C152.283 48.552 152.923 48.744 153.787 48.936C154.779 49.192 155.587 49.448 156.211 49.704C156.835 49.944 157.379 50.344 157.843 50.904C158.323 51.448 158.571 52.184 158.587 53.112C158.587 53.896 158.363 54.6 157.915 55.224C157.483 55.832 156.851 56.312 156.019 56.664C155.203 57.016 154.251 57.192 153.163 57.192ZM166.545 57.192C165.377 57.192 164.337 56.992 163.425 56.592C162.513 56.192 161.793 55.648 161.265 54.96C160.737 54.256 160.441 53.472 160.377 52.608H164.433C164.481 53.072 164.697 53.448 165.081 53.736C165.465 54.024 165.937 54.168 166.497 54.168C167.009 54.168 167.401 54.072 167.673 53.88C167.961 53.672 168.105 53.408 168.105 53.088C168.105 52.704 167.905 52.424 167.505 52.248C167.105 52.056 166.457 51.848 165.561 51.624C164.601 51.4 163.801 51.168 163.161 50.928C162.521 50.672 161.969 50.28 161.505 49.752C161.041 49.208 160.809 48.48 160.809 47.568C160.809 46.8 161.017 46.104 161.433 45.48C161.865 44.84 162.489 44.336 163.305 43.968C164.137 43.6 165.121 43.416 166.257 43.416C167.937 43.416 169.257 43.832 170.217 44.664C171.193 45.496 171.753 46.6 171.897 47.976H168.105C168.041 47.512 167.833 47.144 167.481 46.872C167.145 46.6 166.697 46.464 166.137 46.464C165.657 46.464 165.289 46.56 165.033 46.752C164.777 46.928 164.649 47.176 164.649 47.496C164.649 47.88 164.849 48.168 165.249 48.36C165.665 48.552 166.305 48.744 167.169 48.936C168.161 49.192 168.969 49.448 169.593 49.704C170.217 49.944 170.761 50.344 171.225 50.904C171.705 51.448 171.953 52.184 171.969 53.112C171.969 53.896 171.745 54.6 171.297 55.224C170.865 55.832 170.233 56.312 169.401 56.664C168.585 57.016 167.633 57.192 166.545 57.192ZM187.704 43.608V57H183.6V55.176C183.184 55.768 182.616 56.248 181.896 56.616C181.192 56.968 180.408 57.144 179.544 57.144C178.52 57.144 177.616 56.92 176.832 56.472C176.048 56.008 175.44 55.344 175.008 54.48C174.576 53.616 174.36 52.6 174.36 51.432V43.608H178.44V50.88C178.44 51.776 178.672 52.472 179.136 52.968C179.6 53.464 180.224 53.712 181.008 53.712C181.808 53.712 182.44 53.464 182.904 52.968C183.368 52.472 183.6 51.776 183.6 50.88V43.608H187.704ZM194.756 45.84C195.236 45.104 195.836 44.528 196.556 44.112C197.276 43.68 198.076 43.464 198.956 43.464V47.808H197.828C196.804 47.808 196.036 48.032 195.524 48.48C195.012 48.912 194.756 49.68 194.756 50.784V57H190.652V43.608H194.756V45.84ZM200.102 50.28C200.102 48.904 200.358 47.696 200.87 46.656C201.398 45.616 202.11 44.816 203.006 44.256C203.902 43.696 204.902 43.416 206.006 43.416C206.95 43.416 207.774 43.608 208.478 43.992C209.198 44.376 209.75 44.88 210.134 45.504V43.608H214.238V57H210.134V55.104C209.734 55.728 209.174 56.232 208.454 56.616C207.75 57 206.926 57.192 205.982 57.192C204.894 57.192 203.902 56.912 203.006 56.352C202.11 55.776 201.398 54.968 200.87 53.928C200.358 52.872 200.102 51.656 200.102 50.28ZM210.134 50.304C210.134 49.28 209.846 48.472 209.27 47.88C208.71 47.288 208.022 46.992 207.206 46.992C206.39 46.992 205.694 47.288 205.118 47.88C204.558 48.456 204.278 49.256 204.278 50.28C204.278 51.304 204.558 52.12 205.118 52.728C205.694 53.32 206.39 53.616 207.206 53.616C208.022 53.616 208.71 53.32 209.27 52.728C209.846 52.136 210.134 51.328 210.134 50.304ZM225.367 43.464C226.935 43.464 228.183 43.976 229.111 45C230.055 46.008 230.527 47.4 230.527 49.176V57H226.447V49.728C226.447 48.832 226.215 48.136 225.751 47.64C225.287 47.144 224.663 46.896 223.879 46.896C223.095 46.896 222.471 47.144 222.007 47.64C221.543 48.136 221.311 48.832 221.311 49.728V57H217.207V43.608H221.311V45.384C221.727 44.792 222.287 44.328 222.991 43.992C223.695 43.64 224.487 43.464 225.367 43.464ZM232.563 50.304C232.563 48.912 232.843 47.696 233.403 46.656C233.979 45.616 234.771 44.816 235.779 44.256C236.803 43.696 237.971 43.416 239.283 43.416C240.963 43.416 242.363 43.856 243.483 44.736C244.619 45.616 245.363 46.856 245.715 48.456H241.347C240.979 47.432 240.267 46.92 239.211 46.92C238.459 46.92 237.859 47.216 237.411 47.808C236.963 48.384 236.739 49.216 236.739 50.304C236.739 51.392 236.963 52.232 237.411 52.824C237.859 53.4 238.459 53.688 239.211 53.688C240.267 53.688 240.979 53.176 241.347 52.152H245.715C245.363 53.72 244.619 54.952 243.483 55.848C242.347 56.744 240.947 57.192 239.283 57.192C237.971 57.192 236.803 56.912 235.779 56.352C234.771 55.792 233.979 54.992 233.403 53.952C232.843 52.912 232.563 51.696 232.563 50.304ZM260.534 50.088C260.534 50.472 260.51 50.872 260.462 51.288H251.174C251.238 52.12 251.502 52.76 251.966 53.208C252.446 53.64 253.03 53.856 253.718 53.856C254.742 53.856 255.454 53.424 255.854 52.56H260.222C259.998 53.44 259.59 54.232 258.998 54.936C258.422 55.64 257.694 56.192 256.814 56.592C255.934 56.992 254.95 57.192 253.862 57.192C252.55 57.192 251.382 56.912 250.358 56.352C249.334 55.792 248.534 54.992 247.958 53.952C247.382 52.912 247.094 51.696 247.094 50.304C247.094 48.912 247.374 47.696 247.934 46.656C248.51 45.616 249.31 44.816 250.334 44.256C251.358 43.696 252.534 43.416 253.862 43.416C255.158 43.416 256.31 43.688 257.318 44.232C258.326 44.776 259.11 45.552 259.67 46.56C260.246 47.568 260.534 48.744 260.534 50.088ZM256.334 49.008C256.334 48.304 256.094 47.744 255.614 47.328C255.134 46.912 254.534 46.704 253.814 46.704C253.126 46.704 252.542 46.904 252.062 47.304C251.598 47.704 251.31 48.272 251.198 49.008H256.334Z" fill="#444444"/>
<rect x="210" y="210" width="70" height="70" rx="16" fill="#EF6C0D"/>
<path d="M226.809 244.75C226.809 241.31 227.469 238.6 228.789 236.62C230.129 234.64 232.279 233.65 235.239 233.65C238.199 233.65 240.339 234.64 241.659 236.62C242.999 238.6 243.669 241.31 243.669 244.75C243.669 248.23 242.999 250.96 241.659 252.94C240.339 254.92 238.199 255.91 235.239 255.91C232.279 255.91 230.129 254.92 228.789 252.94C227.469 250.96 226.809 248.23 226.809 244.75ZM238.629 244.75C238.629 242.73 238.409 241.18 237.969 240.1C237.529 239 236.619 238.45 235.239 238.45C233.859 238.45 232.949 239 232.509 240.1C232.069 241.18 231.849 242.73 231.849 244.75C231.849 246.11 231.929 247.24 232.089 248.14C232.249 249.02 232.569 249.74 233.049 250.3C233.549 250.84 234.279 251.11 235.239 251.11C236.199 251.11 236.919 250.84 237.399 250.3C237.899 249.74 238.229 249.02 238.389 248.14C238.549 247.24 238.629 246.11 238.629 244.75ZM261.799 238.57H252.439V242.71C252.839 242.27 253.399 241.91 254.119 241.63C254.839 241.35 255.619 241.21 256.459 241.21C257.959 241.21 259.199 241.55 260.179 242.23C261.179 242.91 261.909 243.79 262.369 244.87C262.829 245.95 263.059 247.12 263.059 248.38C263.059 250.72 262.399 252.58 261.079 253.96C259.759 255.32 257.899 256 255.499 256C253.899 256 252.509 255.73 251.329 255.19C250.149 254.63 249.239 253.86 248.599 252.88C247.959 251.9 247.609 250.77 247.549 249.49H252.559C252.679 250.11 252.969 250.63 253.429 251.05C253.889 251.45 254.519 251.65 255.319 251.65C256.259 251.65 256.959 251.35 257.419 250.75C257.879 250.15 258.109 249.35 258.109 248.35C258.109 247.37 257.869 246.62 257.389 246.1C256.909 245.58 256.209 245.32 255.289 245.32C254.609 245.32 254.049 245.49 253.609 245.83C253.169 246.15 252.879 246.58 252.739 247.12H247.789V234.07H261.799V238.57Z" fill="white"/>
</svg>
