<svg width="280" height="280" viewBox="0 0 280 280" fill="none" xmlns="http://www.w3.org/2000/svg">
<path fill-rule="evenodd" clip-rule="evenodd" d="M280 30C280 13.4315 266.569 0 250 0H30C13.4315 0 0 13.4315 0 30V250C0 266.569 13.4315 280 30 280H159.5C176.069 280 189.5 266.569 189.5 250V218C189.5 201.431 202.931 188 219.5 188H260C271.046 188 280 179.046 280 168V30Z" fill="#444444"/>
<path fill-rule="evenodd" clip-rule="evenodd" d="M280 30C280 13.4315 266.569 0 250 0H30C13.4315 0 0 13.4315 0 30V250C0 266.569 13.4315 280 30 280H159.5C176.069 280 189.5 266.569 189.5 250V218C189.5 201.431 202.931 188 219.5 188H260C271.046 188 280 179.046 280 168V30Z" fill="white" fill-opacity="0.95"/>
<path d="M45.6 87.1V101H43.32V94.92H36.78V101H34.5V87.1H36.78V93.06H43.32V87.1H45.6ZM49.7616 88.52C49.3482 88.52 49.0016 88.38 48.7216 88.1C48.4416 87.82 48.3016 87.4733 48.3016 87.06C48.3016 86.6467 48.4416 86.3 48.7216 86.02C49.0016 85.74 49.3482 85.6 49.7616 85.6C50.1616 85.6 50.5016 85.74 50.7816 86.02C51.0616 86.3 51.2016 86.6467 51.2016 87.06C51.2016 87.4733 51.0616 87.82 50.7816 88.1C50.5016 88.38 50.1616 88.52 49.7616 88.52ZM50.8816 89.98V101H48.6016V89.98H50.8816ZM58.315 89.8C59.1683 89.8 59.9217 89.9733 60.575 90.32C61.2417 90.6533 61.7617 91.0733 62.135 91.58V89.98H64.435V101.18C64.435 102.193 64.2217 103.093 63.795 103.88C63.3683 104.68 62.7483 105.307 61.935 105.76C61.135 106.213 60.175 106.44 59.055 106.44C57.5617 106.44 56.3217 106.087 55.335 105.38C54.3483 104.687 53.7883 103.74 53.655 102.54H55.915C56.0883 103.113 56.455 103.573 57.015 103.92C57.5883 104.28 58.2683 104.46 59.055 104.46C59.975 104.46 60.715 104.18 61.275 103.62C61.8483 103.06 62.135 102.247 62.135 101.18V99.34C61.7483 99.86 61.2217 100.3 60.555 100.66C59.9017 101.007 59.155 101.18 58.315 101.18C57.355 101.18 56.475 100.94 55.675 100.46C54.8883 99.9667 54.2617 99.2867 53.795 98.42C53.3417 97.54 53.115 96.5467 53.115 95.44C53.115 94.3333 53.3417 93.3533 53.795 92.5C54.2617 91.6467 54.8883 90.9867 55.675 90.52C56.475 90.04 57.355 89.8 58.315 89.8ZM62.135 95.48C62.135 94.72 61.975 94.06 61.655 93.5C61.3483 92.94 60.9417 92.5133 60.435 92.22C59.9283 91.9267 59.3817 91.78 58.795 91.78C58.2083 91.78 57.6617 91.9267 57.155 92.22C56.6483 92.5 56.235 92.92 55.915 93.48C55.6083 94.0267 55.455 94.68 55.455 95.44C55.455 96.2 55.6083 96.8667 55.915 97.44C56.235 98.0133 56.6483 98.4533 57.155 98.76C57.675 99.0533 58.2217 99.2 58.795 99.2C59.3817 99.2 59.9283 99.0533 60.435 98.76C60.9417 98.4667 61.3483 98.04 61.655 97.48C61.975 96.9067 62.135 96.24 62.135 95.48ZM73.1297 89.8C73.9697 89.8 74.7164 89.98 75.3697 90.34C76.0364 90.7 76.5564 91.2333 76.9297 91.94C77.3164 92.6467 77.5097 93.5 77.5097 94.5V101H75.2497V94.84C75.2497 93.8533 75.003 93.1 74.5097 92.58C74.0164 92.0467 73.343 91.78 72.4897 91.78C71.6364 91.78 70.9564 92.0467 70.4497 92.58C69.9564 93.1 69.7097 93.8533 69.7097 94.84V101H67.4297V86.2H69.7097V91.26C70.0964 90.7933 70.583 90.4333 71.1697 90.18C71.7697 89.9267 72.423 89.8 73.1297 89.8ZM82.698 86.2V101H80.418V86.2H82.698ZM95.6114 89.98L88.8514 106.18H86.4914L88.7314 100.82L84.3914 89.98H86.9314L90.0314 98.38L93.2514 89.98H95.6114ZM105.187 91.84V97.94C105.187 98.3533 105.281 98.6533 105.467 98.84C105.667 99.0133 106.001 99.1 106.467 99.1H107.867V101H106.067C105.041 101 104.254 100.76 103.707 100.28C103.161 99.8 102.887 99.02 102.887 97.94V91.84H101.587V89.98H102.887V87.24H105.187V89.98H107.867V91.84H105.187ZM112.249 91.58C112.582 91.02 113.022 90.5867 113.569 90.28C114.129 89.96 114.789 89.8 115.549 89.8V92.16H114.969C114.075 92.16 113.395 92.3867 112.929 92.84C112.475 93.2933 112.249 94.08 112.249 95.2V101H109.969V89.98H112.249V91.58ZM116.885 95.44C116.885 94.3333 117.111 93.3533 117.565 92.5C118.031 91.6467 118.658 90.9867 119.445 90.52C120.245 90.04 121.125 89.8 122.085 89.8C122.951 89.8 123.705 89.9733 124.345 90.32C124.998 90.6533 125.518 91.0733 125.905 91.58V89.98H128.205V101H125.905V99.36C125.518 99.88 124.991 100.313 124.325 100.66C123.658 101.007 122.898 101.18 122.045 101.18C121.098 101.18 120.231 100.94 119.445 100.46C118.658 99.9667 118.031 99.2867 117.565 98.42C117.111 97.54 116.885 96.5467 116.885 95.44ZM125.905 95.48C125.905 94.72 125.745 94.06 125.425 93.5C125.118 92.94 124.711 92.5133 124.205 92.22C123.698 91.9267 123.151 91.78 122.565 91.78C121.978 91.78 121.431 91.9267 120.925 92.22C120.418 92.5 120.005 92.92 119.685 93.48C119.378 94.0267 119.225 94.68 119.225 95.44C119.225 96.2 119.378 96.8667 119.685 97.44C120.005 98.0133 120.418 98.4533 120.925 98.76C121.445 99.0533 121.991 99.2 122.565 99.2C123.151 99.2 123.698 99.0533 124.205 98.76C124.711 98.4667 125.118 98.04 125.425 97.48C125.745 96.9067 125.905 96.24 125.905 95.48ZM132.359 88.52C131.946 88.52 131.599 88.38 131.319 88.1C131.039 87.82 130.899 87.4733 130.899 87.06C130.899 86.6467 131.039 86.3 131.319 86.02C131.599 85.74 131.946 85.6 132.359 85.6C132.759 85.6 133.099 85.74 133.379 86.02C133.659 86.3 133.799 86.6467 133.799 87.06C133.799 87.4733 133.659 87.82 133.379 88.1C133.099 88.38 132.759 88.52 132.359 88.52ZM133.479 89.98V101H131.199V89.98H133.479ZM142.033 89.8C142.899 89.8 143.673 89.98 144.353 90.34C145.046 90.7 145.586 91.2333 145.973 91.94C146.359 92.6467 146.553 93.5 146.553 94.5V101H144.293V94.84C144.293 93.8533 144.046 93.1 143.553 92.58C143.059 92.0467 142.386 91.78 141.533 91.78C140.679 91.78 139.999 92.0467 139.493 92.58C138.999 93.1 138.753 93.8533 138.753 94.84V101H136.473V89.98H138.753V91.24C139.126 90.7867 139.599 90.4333 140.173 90.18C140.759 89.9267 141.379 89.8 142.033 89.8ZM159.561 95.22C159.561 95.6333 159.534 96.0067 159.481 96.34H151.061C151.128 97.22 151.454 97.9267 152.041 98.46C152.628 98.9933 153.348 99.26 154.201 99.26C155.428 99.26 156.294 98.7467 156.801 97.72H159.261C158.928 98.7333 158.321 99.5667 157.441 100.22C156.574 100.86 155.494 101.18 154.201 101.18C153.148 101.18 152.201 100.947 151.361 100.48C150.534 100 149.881 99.3333 149.401 98.48C148.934 97.6133 148.701 96.6133 148.701 95.48C148.701 94.3467 148.928 93.3533 149.381 92.5C149.848 91.6333 150.494 90.9667 151.321 90.5C152.161 90.0333 153.121 89.8 154.201 89.8C155.241 89.8 156.168 90.0267 156.981 90.48C157.794 90.9333 158.428 91.5733 158.881 92.4C159.334 93.2133 159.561 94.1533 159.561 95.22ZM157.181 94.5C157.168 93.66 156.868 92.9867 156.281 92.48C155.694 91.9733 154.968 91.72 154.101 91.72C153.314 91.72 152.641 91.9733 152.081 92.48C151.521 92.9733 151.188 93.6467 151.081 94.5H157.181ZM161.045 95.44C161.045 94.3333 161.271 93.3533 161.725 92.5C162.191 91.6467 162.818 90.9867 163.605 90.52C164.405 90.04 165.291 89.8 166.265 89.8C166.985 89.8 167.691 89.96 168.385 90.28C169.091 90.5867 169.651 91 170.065 91.52V86.2H172.365V101H170.065V99.34C169.691 99.8733 169.171 100.313 168.505 100.66C167.851 101.007 167.098 101.18 166.245 101.18C165.285 101.18 164.405 100.94 163.605 100.46C162.818 99.9667 162.191 99.2867 161.725 98.42C161.271 97.54 161.045 96.5467 161.045 95.44ZM170.065 95.48C170.065 94.72 169.905 94.06 169.585 93.5C169.278 92.94 168.871 92.5133 168.365 92.22C167.858 91.9267 167.311 91.78 166.725 91.78C166.138 91.78 165.591 91.9267 165.085 92.22C164.578 92.5 164.165 92.92 163.845 93.48C163.538 94.0267 163.385 94.68 163.385 95.44C163.385 96.2 163.538 96.8667 163.845 97.44C164.165 98.0133 164.578 98.4533 165.085 98.76C165.605 99.0533 166.151 99.2 166.725 99.2C167.311 99.2 167.858 99.0533 168.365 98.76C168.871 98.4667 169.278 98.04 169.585 97.48C169.905 96.9067 170.065 96.24 170.065 95.48ZM38.76 130.96L41.88 121.98H44.3L40.1 133H37.38L33.2 121.98H35.64L38.76 130.96ZM47.1834 120.52C46.7701 120.52 46.4234 120.38 46.1434 120.1C45.8634 119.82 45.7234 119.473 45.7234 119.06C45.7234 118.647 45.8634 118.3 46.1434 118.02C46.4234 117.74 46.7701 117.6 47.1834 117.6C47.5834 117.6 47.9234 117.74 48.2034 118.02C48.4834 118.3 48.6234 118.647 48.6234 119.06C48.6234 119.473 48.4834 119.82 48.2034 120.1C47.9234 120.38 47.5834 120.52 47.1834 120.52ZM48.3034 121.98V133H46.0234V121.98H48.3034ZM53.5769 123.58C53.9102 123.02 54.3502 122.587 54.8969 122.28C55.4569 121.96 56.1169 121.8 56.8769 121.8V124.16H56.2969C55.4035 124.16 54.7235 124.387 54.2569 124.84C53.8035 125.293 53.5769 126.08 53.5769 127.2V133H51.2969V121.98H53.5769V123.58ZM61.6327 123.84V129.94C61.6327 130.353 61.726 130.653 61.9127 130.84C62.1127 131.013 62.446 131.1 62.9127 131.1H64.3127V133H62.5127C61.486 133 60.6993 132.76 60.1527 132.28C59.606 131.8 59.3327 131.02 59.3327 129.94V123.84H58.0327V121.98H59.3327V119.24H61.6327V121.98H64.3127V123.84H61.6327ZM76.3941 121.98V133H74.1141V131.7C73.7541 132.153 73.2807 132.513 72.6941 132.78C72.1207 133.033 71.5074 133.16 70.8541 133.16C69.9874 133.16 69.2074 132.98 68.5141 132.62C67.8341 132.26 67.2941 131.727 66.8941 131.02C66.5074 130.313 66.3141 129.46 66.3141 128.46V121.98H68.5741V128.12C68.5741 129.107 68.8207 129.867 69.3141 130.4C69.8074 130.92 70.4807 131.18 71.3341 131.18C72.1874 131.18 72.8607 130.92 73.3541 130.4C73.8607 129.867 74.1141 129.107 74.1141 128.12V121.98H76.3941ZM78.6423 127.44C78.6423 126.333 78.869 125.353 79.3223 124.5C79.789 123.647 80.4157 122.987 81.2023 122.52C82.0023 122.04 82.8823 121.8 83.8423 121.8C84.709 121.8 85.4623 121.973 86.1023 122.32C86.7557 122.653 87.2757 123.073 87.6623 123.58V121.98H89.9623V133H87.6623V131.36C87.2757 131.88 86.749 132.313 86.0823 132.66C85.4157 133.007 84.6557 133.18 83.8023 133.18C82.8557 133.18 81.989 132.94 81.2023 132.46C80.4157 131.967 79.789 131.287 79.3223 130.42C78.869 129.54 78.6423 128.547 78.6423 127.44ZM87.6623 127.48C87.6623 126.72 87.5023 126.06 87.1823 125.5C86.8757 124.94 86.469 124.513 85.9623 124.22C85.4557 123.927 84.909 123.78 84.3223 123.78C83.7357 123.78 83.189 123.927 82.6823 124.22C82.1757 124.5 81.7623 124.92 81.4423 125.48C81.1357 126.027 80.9823 126.68 80.9823 127.44C80.9823 128.2 81.1357 128.867 81.4423 129.44C81.7623 130.013 82.1757 130.453 82.6823 130.76C83.2023 131.053 83.749 131.2 84.3223 131.2C84.909 131.2 85.4557 131.053 85.9623 130.76C86.469 130.467 86.8757 130.04 87.1823 129.48C87.5023 128.907 87.6623 128.24 87.6623 127.48ZM95.237 118.2V133H92.957V118.2H95.237ZM102.666 127.44C102.666 126.333 102.892 125.353 103.346 124.5C103.812 123.647 104.439 122.987 105.226 122.52C106.026 122.04 106.906 121.8 107.866 121.8C108.732 121.8 109.486 121.973 110.126 122.32C110.779 122.653 111.299 123.073 111.686 123.58V121.98H113.986V133H111.686V131.36C111.299 131.88 110.772 132.313 110.106 132.66C109.439 133.007 108.679 133.18 107.826 133.18C106.879 133.18 106.012 132.94 105.226 132.46C104.439 131.967 103.812 131.287 103.346 130.42C102.892 129.54 102.666 128.547 102.666 127.44ZM111.686 127.48C111.686 126.72 111.526 126.06 111.206 125.5C110.899 124.94 110.492 124.513 109.986 124.22C109.479 123.927 108.932 123.78 108.346 123.78C107.759 123.78 107.212 123.927 106.706 124.22C106.199 124.5 105.786 124.92 105.466 125.48C105.159 126.027 105.006 126.68 105.006 127.44C105.006 128.2 105.159 128.867 105.466 129.44C105.786 130.013 106.199 130.453 106.706 130.76C107.226 131.053 107.772 131.2 108.346 131.2C108.932 131.2 109.479 131.053 109.986 130.76C110.492 130.467 110.899 130.04 111.206 129.48C111.526 128.907 111.686 128.24 111.686 127.48ZM120.98 133.18C120.114 133.18 119.334 133.027 118.64 132.72C117.96 132.4 117.42 131.973 117.02 131.44C116.62 130.893 116.407 130.287 116.38 129.62H118.74C118.78 130.087 119 130.48 119.4 130.8C119.814 131.107 120.327 131.26 120.94 131.26C121.58 131.26 122.074 131.14 122.42 130.9C122.78 130.647 122.96 130.327 122.96 129.94C122.96 129.527 122.76 129.22 122.36 129.02C121.974 128.82 121.354 128.6 120.5 128.36C119.674 128.133 119 127.913 118.48 127.7C117.96 127.487 117.507 127.16 117.12 126.72C116.747 126.28 116.56 125.7 116.56 124.98C116.56 124.393 116.734 123.86 117.08 123.38C117.427 122.887 117.92 122.5 118.56 122.22C119.214 121.94 119.96 121.8 120.8 121.8C122.054 121.8 123.06 122.12 123.82 122.76C124.594 123.387 125.007 124.247 125.06 125.34H122.78C122.74 124.847 122.54 124.453 122.18 124.16C121.82 123.867 121.334 123.72 120.72 123.72C120.12 123.72 119.66 123.833 119.34 124.06C119.02 124.287 118.86 124.587 118.86 124.96C118.86 125.253 118.967 125.5 119.18 125.7C119.394 125.9 119.654 126.06 119.96 126.18C120.267 126.287 120.72 126.427 121.32 126.6C122.12 126.813 122.774 127.033 123.28 127.26C123.8 127.473 124.247 127.793 124.62 128.22C124.994 128.647 125.187 129.213 125.2 129.92C125.2 130.547 125.027 131.107 124.68 131.6C124.334 132.093 123.84 132.48 123.2 132.76C122.574 133.04 121.834 133.18 120.98 133.18ZM131.664 133.18C130.797 133.18 130.017 133.027 129.324 132.72C128.644 132.4 128.104 131.973 127.704 131.44C127.304 130.893 127.091 130.287 127.064 129.62H129.424C129.464 130.087 129.684 130.48 130.084 130.8C130.497 131.107 131.011 131.26 131.624 131.26C132.264 131.26 132.757 131.14 133.104 130.9C133.464 130.647 133.644 130.327 133.644 129.94C133.644 129.527 133.444 129.22 133.044 129.02C132.657 128.82 132.037 128.6 131.184 128.36C130.357 128.133 129.684 127.913 129.164 127.7C128.644 127.487 128.191 127.16 127.804 126.72C127.431 126.28 127.244 125.7 127.244 124.98C127.244 124.393 127.417 123.86 127.764 123.38C128.111 122.887 128.604 122.5 129.244 122.22C129.897 121.94 130.644 121.8 131.484 121.8C132.737 121.8 133.744 122.12 134.504 122.76C135.277 123.387 135.691 124.247 135.744 125.34H133.464C133.424 124.847 133.224 124.453 132.864 124.16C132.504 123.867 132.017 123.72 131.404 123.72C130.804 123.72 130.344 123.833 130.024 124.06C129.704 124.287 129.544 124.587 129.544 124.96C129.544 125.253 129.651 125.5 129.864 125.7C130.077 125.9 130.337 126.06 130.644 126.18C130.951 126.287 131.404 126.427 132.004 126.6C132.804 126.813 133.457 127.033 133.964 127.26C134.484 127.473 134.931 127.793 135.304 128.22C135.677 128.647 135.871 129.213 135.884 129.92C135.884 130.547 135.711 131.107 135.364 131.6C135.017 132.093 134.524 132.48 133.884 132.76C133.257 133.04 132.517 133.18 131.664 133.18ZM139.508 120.52C139.094 120.52 138.748 120.38 138.468 120.1C138.188 119.82 138.048 119.473 138.048 119.06C138.048 118.647 138.188 118.3 138.468 118.02C138.748 117.74 139.094 117.6 139.508 117.6C139.908 117.6 140.248 117.74 140.528 118.02C140.808 118.3 140.948 118.647 140.948 119.06C140.948 119.473 140.808 119.82 140.528 120.1C140.248 120.38 139.908 120.52 139.508 120.52ZM140.628 121.98V133H138.348V121.98H140.628ZM147.621 133.18C146.754 133.18 145.974 133.027 145.281 132.72C144.601 132.4 144.061 131.973 143.661 131.44C143.261 130.893 143.048 130.287 143.021 129.62H145.381C145.421 130.087 145.641 130.48 146.041 130.8C146.454 131.107 146.968 131.26 147.581 131.26C148.221 131.26 148.714 131.14 149.061 130.9C149.421 130.647 149.601 130.327 149.601 129.94C149.601 129.527 149.401 129.22 149.001 129.02C148.614 128.82 147.994 128.6 147.141 128.36C146.314 128.133 145.641 127.913 145.121 127.7C144.601 127.487 144.148 127.16 143.761 126.72C143.388 126.28 143.201 125.7 143.201 124.98C143.201 124.393 143.374 123.86 143.721 123.38C144.068 122.887 144.561 122.5 145.201 122.22C145.854 121.94 146.601 121.8 147.441 121.8C148.694 121.8 149.701 122.12 150.461 122.76C151.234 123.387 151.648 124.247 151.701 125.34H149.421C149.381 124.847 149.181 124.453 148.821 124.16C148.461 123.867 147.974 123.72 147.361 123.72C146.761 123.72 146.301 123.833 145.981 124.06C145.661 124.287 145.501 124.587 145.501 124.96C145.501 125.253 145.608 125.5 145.821 125.7C146.034 125.9 146.294 126.06 146.601 126.18C146.908 126.287 147.361 126.427 147.961 126.6C148.761 126.813 149.414 127.033 149.921 127.26C150.441 127.473 150.888 127.793 151.261 128.22C151.634 128.647 151.828 129.213 151.841 129.92C151.841 130.547 151.668 131.107 151.321 131.6C150.974 132.093 150.481 132.48 149.841 132.76C149.214 133.04 148.474 133.18 147.621 133.18ZM156.965 123.84V129.94C156.965 130.353 157.058 130.653 157.245 130.84C157.445 131.013 157.778 131.1 158.245 131.1H159.645V133H157.845C156.818 133 156.031 132.76 155.485 132.28C154.938 131.8 154.665 131.02 154.665 129.94V123.84H153.365V121.98H154.665V119.24H156.965V121.98H159.645V123.84H156.965ZM160.986 127.44C160.986 126.333 161.213 125.353 161.666 124.5C162.133 123.647 162.759 122.987 163.546 122.52C164.346 122.04 165.226 121.8 166.186 121.8C167.053 121.8 167.806 121.973 168.446 122.32C169.099 122.653 169.619 123.073 170.006 123.58V121.98H172.306V133H170.006V131.36C169.619 131.88 169.093 132.313 168.426 132.66C167.759 133.007 166.999 133.18 166.146 133.18C165.199 133.18 164.333 132.94 163.546 132.46C162.759 131.967 162.133 131.287 161.666 130.42C161.213 129.54 160.986 128.547 160.986 127.44ZM170.006 127.48C170.006 126.72 169.846 126.06 169.526 125.5C169.219 124.94 168.813 124.513 168.306 124.22C167.799 123.927 167.253 123.78 166.666 123.78C166.079 123.78 165.533 123.927 165.026 124.22C164.519 124.5 164.106 124.92 163.786 125.48C163.479 126.027 163.326 126.68 163.326 127.44C163.326 128.2 163.479 128.867 163.786 129.44C164.106 130.013 164.519 130.453 165.026 130.76C165.546 131.053 166.093 131.2 166.666 131.2C167.253 131.2 167.799 131.053 168.306 130.76C168.813 130.467 169.219 130.04 169.526 129.48C169.846 128.907 170.006 128.24 170.006 127.48ZM180.861 121.8C181.727 121.8 182.501 121.98 183.181 122.34C183.874 122.7 184.414 123.233 184.801 123.94C185.187 124.647 185.381 125.5 185.381 126.5V133H183.121V126.84C183.121 125.853 182.874 125.1 182.381 124.58C181.887 124.047 181.214 123.78 180.361 123.78C179.507 123.78 178.827 124.047 178.321 124.58C177.827 125.1 177.581 125.853 177.581 126.84V133H175.301V121.98H177.581V123.24C177.954 122.787 178.427 122.433 179.001 122.18C179.587 121.927 180.207 121.8 180.861 121.8ZM187.529 127.48C187.529 126.347 187.756 125.353 188.209 124.5C188.676 123.633 189.316 122.967 190.129 122.5C190.942 122.033 191.876 121.8 192.929 121.8C194.262 121.8 195.362 122.12 196.229 122.76C197.109 123.387 197.702 124.287 198.009 125.46H195.549C195.349 124.913 195.029 124.487 194.589 124.18C194.149 123.873 193.596 123.72 192.929 123.72C191.996 123.72 191.249 124.053 190.689 124.72C190.142 125.373 189.869 126.293 189.869 127.48C189.869 128.667 190.142 129.593 190.689 130.26C191.249 130.927 191.996 131.26 192.929 131.26C194.249 131.26 195.122 130.68 195.549 129.52H198.009C197.689 130.64 197.089 131.533 196.209 132.2C195.329 132.853 194.236 133.18 192.929 133.18C191.876 133.18 190.942 132.947 190.129 132.48C189.316 132 188.676 131.333 188.209 130.48C187.756 129.613 187.529 128.613 187.529 127.48ZM210.381 127.22C210.381 127.633 210.355 128.007 210.301 128.34H201.881C201.948 129.22 202.275 129.927 202.861 130.46C203.448 130.993 204.168 131.26 205.021 131.26C206.248 131.26 207.115 130.747 207.621 129.72H210.081C209.748 130.733 209.141 131.567 208.261 132.22C207.395 132.86 206.315 133.18 205.021 133.18C203.968 133.18 203.021 132.947 202.181 132.48C201.355 132 200.701 131.333 200.221 130.48C199.755 129.613 199.521 128.613 199.521 127.48C199.521 126.347 199.748 125.353 200.201 124.5C200.668 123.633 201.315 122.967 202.141 122.5C202.981 122.033 203.941 121.8 205.021 121.8C206.061 121.8 206.988 122.027 207.801 122.48C208.615 122.933 209.248 123.573 209.701 124.4C210.155 125.213 210.381 126.153 210.381 127.22ZM208.001 126.5C207.988 125.66 207.688 124.987 207.101 124.48C206.515 123.973 205.788 123.72 204.921 123.72C204.135 123.72 203.461 123.973 202.901 124.48C202.341 124.973 202.008 125.647 201.901 126.5H208.001ZM217.06 127.44C217.06 126.333 217.287 125.353 217.74 124.5C218.207 123.647 218.834 122.987 219.62 122.52C220.42 122.04 221.3 121.8 222.26 121.8C223.127 121.8 223.88 121.973 224.52 122.32C225.174 122.653 225.694 123.073 226.08 123.58V121.98H228.38V133H226.08V131.36C225.694 131.88 225.167 132.313 224.5 132.66C223.834 133.007 223.074 133.18 222.22 133.18C221.274 133.18 220.407 132.94 219.62 132.46C218.834 131.967 218.207 131.287 217.74 130.42C217.287 129.54 217.06 128.547 217.06 127.44ZM226.08 127.48C226.08 126.72 225.92 126.06 225.6 125.5C225.294 124.94 224.887 124.513 224.38 124.22C223.874 123.927 223.327 123.78 222.74 123.78C222.154 123.78 221.607 123.927 221.1 124.22C220.594 124.5 220.18 124.92 219.86 125.48C219.554 126.027 219.4 126.68 219.4 127.44C219.4 128.2 219.554 128.867 219.86 129.44C220.18 130.013 220.594 130.453 221.1 130.76C221.62 131.053 222.167 131.2 222.74 131.2C223.327 131.2 223.874 131.053 224.38 130.76C224.887 130.467 225.294 130.04 225.6 129.48C225.92 128.907 226.08 128.24 226.08 127.48ZM234.035 123.84V129.94C234.035 130.353 234.128 130.653 234.315 130.84C234.515 131.013 234.848 131.1 235.315 131.1H236.715V133H234.915C233.888 133 233.102 132.76 232.555 132.28C232.008 131.8 231.735 131.02 231.735 129.94V123.84H230.435V121.98H231.735V119.24H234.035V121.98H236.715V123.84H234.035ZM44.42 153.98L37.66 170.18H35.3L37.54 164.82L33.2 153.98H35.74L38.84 162.38L42.06 153.98H44.42ZM50.9206 165.18C49.8806 165.18 48.9406 164.947 48.1006 164.48C47.2606 164 46.6006 163.333 46.1206 162.48C45.6406 161.613 45.4006 160.613 45.4006 159.48C45.4006 158.36 45.6473 157.367 46.1406 156.5C46.634 155.633 47.3073 154.967 48.1606 154.5C49.014 154.033 49.9673 153.8 51.0206 153.8C52.074 153.8 53.0273 154.033 53.8806 154.5C54.734 154.967 55.4073 155.633 55.9006 156.5C56.394 157.367 56.6406 158.36 56.6406 159.48C56.6406 160.6 56.3873 161.593 55.8806 162.46C55.374 163.327 54.6806 164 53.8006 164.48C52.934 164.947 51.974 165.18 50.9206 165.18ZM50.9206 163.2C51.5073 163.2 52.054 163.06 52.5606 162.78C53.0806 162.5 53.5006 162.08 53.8206 161.52C54.1406 160.96 54.3006 160.28 54.3006 159.48C54.3006 158.68 54.1473 158.007 53.8406 157.46C53.534 156.9 53.1273 156.48 52.6206 156.2C52.114 155.92 51.5673 155.78 50.9806 155.78C50.394 155.78 49.8473 155.92 49.3406 156.2C48.8473 156.48 48.454 156.9 48.1606 157.46C47.8673 158.007 47.7206 158.68 47.7206 159.48C47.7206 160.667 48.0206 161.587 48.6206 162.24C49.234 162.88 50.0006 163.2 50.9206 163.2ZM68.8745 153.98V165H66.5945V163.7C66.2345 164.153 65.7612 164.513 65.1745 164.78C64.6012 165.033 63.9879 165.16 63.3345 165.16C62.4679 165.16 61.6879 164.98 60.9945 164.62C60.3145 164.26 59.7745 163.727 59.3745 163.02C58.9879 162.313 58.7945 161.46 58.7945 160.46V153.98H61.0545V160.12C61.0545 161.107 61.3012 161.867 61.7945 162.4C62.2879 162.92 62.9612 163.18 63.8145 163.18C64.6679 163.18 65.3412 162.92 65.8345 162.4C66.3412 161.867 66.5945 161.107 66.5945 160.12V153.98H68.8745ZM74.1628 155.58C74.4961 155.02 74.9361 154.587 75.4828 154.28C76.0428 153.96 76.7028 153.8 77.4628 153.8V156.16H76.8828C75.9895 156.16 75.3095 156.387 74.8428 156.84C74.3895 157.293 74.1628 158.08 74.1628 159.2V165H71.8828V153.98H74.1628V155.58ZM88.7539 165.18C87.8872 165.18 87.1072 165.027 86.4139 164.72C85.7339 164.4 85.1939 163.973 84.7939 163.44C84.3939 162.893 84.1806 162.287 84.1539 161.62H86.5139C86.5539 162.087 86.7739 162.48 87.1739 162.8C87.5872 163.107 88.1006 163.26 88.7139 163.26C89.3539 163.26 89.8472 163.14 90.1939 162.9C90.5539 162.647 90.7339 162.327 90.7339 161.94C90.7339 161.527 90.5339 161.22 90.1339 161.02C89.7472 160.82 89.1272 160.6 88.2739 160.36C87.4472 160.133 86.7739 159.913 86.2539 159.7C85.7339 159.487 85.2806 159.16 84.8939 158.72C84.5206 158.28 84.3339 157.7 84.3339 156.98C84.3339 156.393 84.5072 155.86 84.8539 155.38C85.2006 154.887 85.6939 154.5 86.3339 154.22C86.9872 153.94 87.7339 153.8 88.5739 153.8C89.8272 153.8 90.8339 154.12 91.5939 154.76C92.3672 155.387 92.7806 156.247 92.8339 157.34H90.5539C90.5139 156.847 90.3139 156.453 89.9539 156.16C89.5939 155.867 89.1072 155.72 88.4939 155.72C87.8939 155.72 87.4339 155.833 87.1139 156.06C86.7939 156.287 86.6339 156.587 86.6339 156.96C86.6339 157.253 86.7406 157.5 86.9539 157.7C87.1672 157.9 87.4272 158.06 87.7339 158.18C88.0406 158.287 88.4939 158.427 89.0939 158.6C89.8939 158.813 90.5472 159.033 91.0539 159.26C91.5739 159.473 92.0206 159.793 92.3939 160.22C92.7672 160.647 92.9606 161.213 92.9739 161.92C92.9739 162.547 92.8006 163.107 92.4539 163.6C92.1072 164.093 91.6139 164.48 90.9739 164.76C90.3472 165.04 89.6072 165.18 88.7539 165.18ZM105.538 159.22C105.538 159.633 105.511 160.007 105.458 160.34H97.0375C97.1042 161.22 97.4308 161.927 98.0175 162.46C98.6042 162.993 99.3242 163.26 100.178 163.26C101.404 163.26 102.271 162.747 102.778 161.72H105.237C104.904 162.733 104.298 163.567 103.418 164.22C102.551 164.86 101.471 165.18 100.178 165.18C99.1242 165.18 98.1775 164.947 97.3375 164.48C96.5108 164 95.8575 163.333 95.3775 162.48C94.9108 161.613 94.6775 160.613 94.6775 159.48C94.6775 158.347 94.9042 157.353 95.3575 156.5C95.8242 155.633 96.4708 154.967 97.2975 154.5C98.1375 154.033 99.0975 153.8 100.178 153.8C101.218 153.8 102.144 154.027 102.958 154.48C103.771 154.933 104.404 155.573 104.858 156.4C105.311 157.213 105.538 158.153 105.538 159.22ZM103.158 158.5C103.144 157.66 102.844 156.987 102.258 156.48C101.671 155.973 100.944 155.72 100.078 155.72C99.2908 155.72 98.6175 155.973 98.0575 156.48C97.4975 156.973 97.1642 157.647 97.0575 158.5H103.158ZM110.061 155.58C110.395 155.02 110.835 154.587 111.381 154.28C111.941 153.96 112.601 153.8 113.361 153.8V156.16H112.781C111.888 156.16 111.208 156.387 110.741 156.84C110.288 157.293 110.061 158.08 110.061 159.2V165H107.781V153.98H110.061V155.58ZM119.717 162.96L122.837 153.98H125.257L121.057 165H118.337L114.157 153.98H116.597L119.717 162.96ZM128.14 152.52C127.727 152.52 127.38 152.38 127.1 152.1C126.82 151.82 126.68 151.473 126.68 151.06C126.68 150.647 126.82 150.3 127.1 150.02C127.38 149.74 127.727 149.6 128.14 149.6C128.54 149.6 128.88 149.74 129.16 150.02C129.44 150.3 129.58 150.647 129.58 151.06C129.58 151.473 129.44 151.82 129.16 152.1C128.88 152.38 128.54 152.52 128.14 152.52ZM129.26 153.98V165H126.98V153.98H129.26ZM131.494 159.48C131.494 158.347 131.721 157.353 132.174 156.5C132.641 155.633 133.281 154.967 134.094 154.5C134.907 154.033 135.841 153.8 136.894 153.8C138.227 153.8 139.327 154.12 140.194 154.76C141.074 155.387 141.667 156.287 141.974 157.46H139.514C139.314 156.913 138.994 156.487 138.554 156.18C138.114 155.873 137.561 155.72 136.894 155.72C135.961 155.72 135.214 156.053 134.654 156.72C134.107 157.373 133.834 158.293 133.834 159.48C133.834 160.667 134.107 161.593 134.654 162.26C135.214 162.927 135.961 163.26 136.894 163.26C138.214 163.26 139.087 162.68 139.514 161.52H141.974C141.654 162.64 141.054 163.533 140.174 164.2C139.294 164.853 138.201 165.18 136.894 165.18C135.841 165.18 134.907 164.947 134.094 164.48C133.281 164 132.641 163.333 132.174 162.48C131.721 161.613 131.494 160.613 131.494 159.48ZM154.346 159.22C154.346 159.633 154.319 160.007 154.266 160.34H145.846C145.913 161.22 146.239 161.927 146.826 162.46C147.413 162.993 148.133 163.26 148.986 163.26C150.213 163.26 151.079 162.747 151.586 161.72H154.046C153.713 162.733 153.106 163.567 152.226 164.22C151.359 164.86 150.279 165.18 148.986 165.18C147.933 165.18 146.986 164.947 146.146 164.48C145.319 164 144.666 163.333 144.186 162.48C143.719 161.613 143.486 160.613 143.486 159.48C143.486 158.347 143.713 157.353 144.166 156.5C144.633 155.633 145.279 154.967 146.106 154.5C146.946 154.033 147.906 153.8 148.986 153.8C150.026 153.8 150.953 154.027 151.766 154.48C152.579 154.933 153.213 155.573 153.666 156.4C154.119 157.213 154.346 158.153 154.346 159.22ZM151.966 158.5C151.953 157.66 151.653 156.987 151.066 156.48C150.479 155.973 149.753 155.72 148.886 155.72C148.099 155.72 147.426 155.973 146.866 156.48C146.306 156.973 145.973 157.647 145.866 158.5H151.966Z" fill="#444444"/>
<path d="M46.608 40.152V43.44H42.144V57H38.04V43.44H33.576V40.152H46.608ZM52.7717 45.84C53.2517 45.104 53.8517 44.528 54.5717 44.112C55.2917 43.68 56.0917 43.464 56.9717 43.464V47.808H55.8437C54.8197 47.808 54.0517 48.032 53.5397 48.48C53.0277 48.912 52.7717 49.68 52.7717 50.784V57H48.6677V43.608H52.7717V45.84ZM58.1173 50.28C58.1173 48.904 58.3733 47.696 58.8853 46.656C59.4133 45.616 60.1253 44.816 61.0213 44.256C61.9173 43.696 62.9173 43.416 64.0213 43.416C64.9653 43.416 65.7893 43.608 66.4933 43.992C67.2133 44.376 67.7653 44.88 68.1493 45.504V43.608H72.2533V57H68.1493V55.104C67.7493 55.728 67.1893 56.232 66.4693 56.616C65.7653 57 64.9413 57.192 63.9973 57.192C62.9093 57.192 61.9173 56.912 61.0213 56.352C60.1253 55.776 59.4133 54.968 58.8853 53.928C58.3733 52.872 58.1173 51.656 58.1173 50.28ZM68.1493 50.304C68.1493 49.28 67.8613 48.472 67.2853 47.88C66.7253 47.288 66.0373 46.992 65.2213 46.992C64.4053 46.992 63.7093 47.288 63.1333 47.88C62.5733 48.456 62.2933 49.256 62.2933 50.28C62.2933 51.304 62.5733 52.12 63.1333 52.728C63.7093 53.32 64.4053 53.616 65.2213 53.616C66.0373 53.616 66.7253 53.32 67.2853 52.728C67.8613 52.136 68.1493 51.328 68.1493 50.304ZM77.2864 42.216C76.5664 42.216 75.9744 42.008 75.5104 41.592C75.0624 41.16 74.8384 40.632 74.8384 40.008C74.8384 39.368 75.0624 38.84 75.5104 38.424C75.9744 37.992 76.5664 37.776 77.2864 37.776C77.9904 37.776 78.5664 37.992 79.0144 38.424C79.4784 38.84 79.7104 39.368 79.7104 40.008C79.7104 40.632 79.4784 41.16 79.0144 41.592C78.5664 42.008 77.9904 42.216 77.2864 42.216ZM79.3264 43.608V57H75.2224V43.608H79.3264ZM90.4605 43.464C92.0285 43.464 93.2765 43.976 94.2045 45C95.1485 46.008 95.6205 47.4 95.6205 49.176V57H91.5405V49.728C91.5405 48.832 91.3085 48.136 90.8445 47.64C90.3805 47.144 89.7565 46.896 88.9725 46.896C88.1885 46.896 87.5645 47.144 87.1005 47.64C86.6365 48.136 86.4045 48.832 86.4045 49.728V57H82.3005V43.608H86.4045V45.384C86.8205 44.792 87.3805 44.328 88.0845 43.992C88.7885 43.64 89.5805 43.464 90.4605 43.464ZM111.096 50.088C111.096 50.472 111.072 50.872 111.024 51.288H101.736C101.8 52.12 102.064 52.76 102.528 53.208C103.008 53.64 103.592 53.856 104.28 53.856C105.304 53.856 106.016 53.424 106.416 52.56H110.784C110.56 53.44 110.152 54.232 109.56 54.936C108.984 55.64 108.256 56.192 107.376 56.592C106.496 56.992 105.512 57.192 104.424 57.192C103.112 57.192 101.944 56.912 100.92 56.352C99.8964 55.792 99.0964 54.992 98.5204 53.952C97.9444 52.912 97.6564 51.696 97.6564 50.304C97.6564 48.912 97.9364 47.696 98.4964 46.656C99.0724 45.616 99.8724 44.816 100.896 44.256C101.92 43.696 103.096 43.416 104.424 43.416C105.72 43.416 106.872 43.688 107.88 44.232C108.888 44.776 109.672 45.552 110.232 46.56C110.808 47.568 111.096 48.744 111.096 50.088ZM106.896 49.008C106.896 48.304 106.656 47.744 106.176 47.328C105.696 46.912 105.096 46.704 104.376 46.704C103.688 46.704 103.104 46.904 102.624 47.304C102.16 47.704 101.872 48.272 101.76 49.008H106.896ZM112.445 50.28C112.445 48.904 112.701 47.696 113.213 46.656C113.741 45.616 114.453 44.816 115.349 44.256C116.245 43.696 117.245 43.416 118.349 43.416C119.229 43.416 120.029 43.6 120.749 43.968C121.485 44.336 122.061 44.832 122.477 45.456V39.24H126.581V57H122.477V55.08C122.093 55.72 121.541 56.232 120.821 56.616C120.117 57 119.293 57.192 118.349 57.192C117.245 57.192 116.245 56.912 115.349 56.352C114.453 55.776 113.741 54.968 113.213 53.928C112.701 52.872 112.445 51.656 112.445 50.28ZM122.477 50.304C122.477 49.28 122.189 48.472 121.613 47.88C121.053 47.288 120.365 46.992 119.549 46.992C118.733 46.992 118.037 47.288 117.461 47.88C116.901 48.456 116.621 49.256 116.621 50.28C116.621 51.304 116.901 52.12 117.461 52.728C118.037 53.32 118.733 53.616 119.549 53.616C120.365 53.616 121.053 53.32 121.613 52.728C122.189 52.136 122.477 51.328 122.477 50.304ZM140.732 57.168C139.5 57.168 138.396 56.968 137.42 56.568C136.444 56.168 135.66 55.576 135.068 54.792C134.492 54.008 134.188 53.064 134.156 51.96H138.524C138.588 52.584 138.804 53.064 139.172 53.4C139.54 53.72 140.02 53.88 140.612 53.88C141.22 53.88 141.7 53.744 142.052 53.472C142.404 53.184 142.58 52.792 142.58 52.296C142.58 51.88 142.436 51.536 142.148 51.264C141.876 50.992 141.532 50.768 141.116 50.592C140.716 50.416 140.14 50.216 139.388 49.992C138.3 49.656 137.412 49.32 136.724 48.984C136.036 48.648 135.444 48.152 134.948 47.496C134.452 46.84 134.204 45.984 134.204 44.928C134.204 43.36 134.772 42.136 135.908 41.256C137.044 40.36 138.524 39.912 140.348 39.912C142.204 39.912 143.7 40.36 144.836 41.256C145.972 42.136 146.58 43.368 146.66 44.952H142.22C142.188 44.408 141.988 43.984 141.62 43.68C141.252 43.36 140.78 43.2 140.204 43.2C139.708 43.2 139.308 43.336 139.004 43.608C138.7 43.864 138.548 44.24 138.548 44.736C138.548 45.28 138.804 45.704 139.316 46.008C139.828 46.312 140.628 46.64 141.716 46.992C142.804 47.36 143.684 47.712 144.356 48.048C145.044 48.384 145.636 48.872 146.132 49.512C146.628 50.152 146.876 50.976 146.876 51.984C146.876 52.944 146.628 53.816 146.132 54.6C145.652 55.384 144.948 56.008 144.02 56.472C143.092 56.936 141.996 57.168 140.732 57.168ZM156.866 53.52V57H154.778C153.29 57 152.13 56.64 151.298 55.92C150.466 55.184 150.05 53.992 150.05 52.344V47.016H148.418V43.608H150.05V40.344H154.154V43.608H156.842V47.016H154.154V52.392C154.154 52.792 154.25 53.08 154.442 53.256C154.634 53.432 154.954 53.52 155.402 53.52H156.866ZM158.336 50.28C158.336 48.904 158.592 47.696 159.104 46.656C159.632 45.616 160.344 44.816 161.24 44.256C162.136 43.696 163.136 43.416 164.24 43.416C165.184 43.416 166.008 43.608 166.712 43.992C167.432 44.376 167.984 44.88 168.368 45.504V43.608H172.472V57H168.368V55.104C167.968 55.728 167.408 56.232 166.688 56.616C165.984 57 165.16 57.192 164.216 57.192C163.128 57.192 162.136 56.912 161.24 56.352C160.344 55.776 159.632 54.968 159.104 53.928C158.592 52.872 158.336 51.656 158.336 50.28ZM168.368 50.304C168.368 49.28 168.08 48.472 167.504 47.88C166.944 47.288 166.256 46.992 165.44 46.992C164.624 46.992 163.928 47.288 163.352 47.88C162.792 48.456 162.512 49.256 162.512 50.28C162.512 51.304 162.792 52.12 163.352 52.728C163.928 53.32 164.624 53.616 165.44 53.616C166.256 53.616 166.944 53.32 167.504 52.728C168.08 52.136 168.368 51.328 168.368 50.304ZM182.161 47.016H179.953V57H175.849V47.016H174.361V43.608H175.849V43.224C175.849 41.576 176.321 40.328 177.265 39.48C178.209 38.616 179.593 38.184 181.417 38.184C181.721 38.184 181.945 38.192 182.089 38.208V41.688C181.305 41.64 180.753 41.752 180.433 42.024C180.113 42.296 179.953 42.784 179.953 43.488V43.608H182.161V47.016ZM190.81 47.016H188.602V57H184.498V47.016H183.01V43.608H184.498V43.224C184.498 41.576 184.97 40.328 185.914 39.48C186.858 38.616 188.242 38.184 190.066 38.184C190.37 38.184 190.594 38.192 190.738 38.208V41.688C189.954 41.64 189.402 41.752 189.082 42.024C188.762 42.296 188.602 42.784 188.602 43.488V43.608H190.81V47.016Z" fill="#444444"/>
<rect x="210" y="210" width="70" height="70" rx="16" fill="#EF6C0D"/>
<path d="M227.514 244.75C227.514 241.31 228.174 238.6 229.494 236.62C230.834 234.64 232.984 233.65 235.944 233.65C238.904 233.65 241.044 234.64 242.364 236.62C243.704 238.6 244.374 241.31 244.374 244.75C244.374 248.23 243.704 250.96 242.364 252.94C241.044 254.92 238.904 255.91 235.944 255.91C232.984 255.91 230.834 254.92 229.494 252.94C228.174 250.96 227.514 248.23 227.514 244.75ZM239.334 244.75C239.334 242.73 239.114 241.18 238.674 240.1C238.234 239 237.324 238.45 235.944 238.45C234.564 238.45 233.654 239 233.214 240.1C232.774 241.18 232.554 242.73 232.554 244.75C232.554 246.11 232.634 247.24 232.794 248.14C232.954 249.02 233.274 249.74 233.754 250.3C234.254 250.84 234.984 251.11 235.944 251.11C236.904 251.11 237.624 250.84 238.104 250.3C238.604 249.74 238.934 249.02 239.094 248.14C239.254 247.24 239.334 246.11 239.334 244.75ZM257.914 240.01C257.754 239.27 257.474 238.72 257.074 238.36C256.674 237.98 256.104 237.79 255.364 237.79C254.224 237.79 253.404 238.29 252.904 239.29C252.404 240.27 252.144 241.83 252.124 243.97C252.564 243.27 253.194 242.72 254.014 242.32C254.854 241.92 255.774 241.72 256.774 241.72C258.734 241.72 260.304 242.34 261.484 243.58C262.684 244.82 263.284 246.55 263.284 248.77C263.284 250.23 262.984 251.51 262.384 252.61C261.804 253.71 260.944 254.57 259.804 255.19C258.684 255.81 257.354 256.12 255.814 256.12C252.734 256.12 250.594 255.16 249.394 253.24C248.194 251.3 247.594 248.52 247.594 244.9C247.594 241.1 248.224 238.28 249.484 236.44C250.764 234.58 252.804 233.65 255.604 233.65C257.104 233.65 258.364 233.95 259.384 234.55C260.424 235.13 261.204 235.9 261.724 236.86C262.264 237.82 262.584 238.87 262.684 240.01H257.914ZM255.544 245.77C254.684 245.77 253.964 246.03 253.384 246.55C252.824 247.05 252.544 247.77 252.544 248.71C252.544 249.67 252.804 250.42 253.324 250.96C253.864 251.5 254.624 251.77 255.604 251.77C256.484 251.77 257.174 251.51 257.674 250.99C258.194 250.45 258.454 249.72 258.454 248.8C258.454 247.86 258.204 247.12 257.704 246.58C257.204 246.04 256.484 245.77 255.544 245.77Z" fill="white"/>
</svg>
