<svg width="280" height="280" viewBox="0 0 280 280" fill="none" xmlns="http://www.w3.org/2000/svg">
<path fill-rule="evenodd" clip-rule="evenodd" d="M280 30C280 13.4315 266.569 0 250 0H30C13.4315 0 0 13.4315 0 30V250C0 266.569 13.4315 280 30 280H159.5C176.069 280 189.5 266.569 189.5 250V218C189.5 201.431 202.931 188 219.5 188H260C271.046 188 280 179.046 280 168V30Z" fill="#444444"/>
<path fill-rule="evenodd" clip-rule="evenodd" d="M280 30C280 13.4315 266.569 0 250 0H30C13.4315 0 0 13.4315 0 30V250C0 266.569 13.4315 280 30 280H159.5C176.069 280 189.5 266.569 189.5 250V218C189.5 201.431 202.931 188 219.5 188H260C271.046 188 280 179.046 280 168V30Z" fill="white" fill-opacity="0.95"/>
<path d="M43.48 87.1V88.96H39.78V101H37.5V88.96H33.78V87.1H43.48ZM46.9491 88.52C46.5357 88.52 46.1891 88.38 45.9091 88.1C45.6291 87.82 45.4891 87.4733 45.4891 87.06C45.4891 86.6467 45.6291 86.3 45.9091 86.02C46.1891 85.74 46.5357 85.6 46.9491 85.6C47.3491 85.6 47.6891 85.74 47.9691 86.02C48.2491 86.3 48.3891 86.6467 48.3891 87.06C48.3891 87.4733 48.2491 87.82 47.9691 88.1C47.6891 88.38 47.3491 88.52 46.9491 88.52ZM48.0691 89.98V101H45.7891V89.98H48.0691ZM64.4025 89.8C65.2692 89.8 66.0425 89.98 66.7225 90.34C67.4158 90.7 67.9558 91.2333 68.3425 91.94C68.7425 92.6467 68.9425 93.5 68.9425 94.5V101H66.6825V94.84C66.6825 93.8533 66.4358 93.1 65.9425 92.58C65.4492 92.0467 64.7758 91.78 63.9225 91.78C63.0692 91.78 62.3892 92.0467 61.8825 92.58C61.3892 93.1 61.1425 93.8533 61.1425 94.84V101H58.8825V94.84C58.8825 93.8533 58.6358 93.1 58.1425 92.58C57.6492 92.0467 56.9758 91.78 56.1225 91.78C55.2692 91.78 54.5892 92.0467 54.0825 92.58C53.5892 93.1 53.3425 93.8533 53.3425 94.84V101H51.0625V89.98H53.3425V91.24C53.7158 90.7867 54.1892 90.4333 54.7625 90.18C55.3358 89.9267 55.9492 89.8 56.6025 89.8C57.4825 89.8 58.2692 89.9867 58.9625 90.36C59.6558 90.7333 60.1892 91.2733 60.5625 91.98C60.8958 91.3133 61.4158 90.7867 62.1225 90.4C62.8292 90 63.5892 89.8 64.4025 89.8ZM81.9438 95.22C81.9438 95.6333 81.9171 96.0067 81.8638 96.34H73.4438C73.5104 97.22 73.8371 97.9267 74.4238 98.46C75.0104 98.9933 75.7304 99.26 76.5838 99.26C77.8104 99.26 78.6771 98.7467 79.1838 97.72H81.6437C81.3104 98.7333 80.7038 99.5667 79.8238 100.22C78.9571 100.86 77.8771 101.18 76.5838 101.18C75.5304 101.18 74.5838 100.947 73.7438 100.48C72.9171 100 72.2638 99.3333 71.7838 98.48C71.3171 97.6133 71.0838 96.6133 71.0838 95.48C71.0838 94.3467 71.3104 93.3533 71.7638 92.5C72.2304 91.6333 72.8771 90.9667 73.7038 90.5C74.5438 90.0333 75.5038 89.8 76.5838 89.8C77.6238 89.8 78.5504 90.0267 79.3638 90.48C80.1771 90.9333 80.8104 91.5733 81.2638 92.4C81.7171 93.2133 81.9438 94.1533 81.9438 95.22ZM79.5638 94.5C79.5504 93.66 79.2504 92.9867 78.6638 92.48C78.0771 91.9733 77.3504 91.72 76.4838 91.72C75.6971 91.72 75.0238 91.9733 74.4638 92.48C73.9038 92.9733 73.5704 93.6467 73.4638 94.5H79.5638ZM86.4675 86.2V101H84.1875V86.2H86.4675ZM99.3809 89.98L92.6209 106.18H90.2609L92.5009 100.82L88.1609 89.98H90.7009L93.8009 98.38L97.0209 89.98H99.3809ZM105.537 95.48C105.537 94.3467 105.764 93.3533 106.217 92.5C106.684 91.6333 107.324 90.9667 108.137 90.5C108.95 90.0333 109.884 89.8 110.937 89.8C112.27 89.8 113.37 90.12 114.237 90.76C115.117 91.3867 115.71 92.2867 116.017 93.46H113.557C113.357 92.9133 113.037 92.4867 112.597 92.18C112.157 91.8733 111.604 91.72 110.937 91.72C110.004 91.72 109.257 92.0533 108.697 92.72C108.15 93.3733 107.877 94.2933 107.877 95.48C107.877 96.6667 108.15 97.5933 108.697 98.26C109.257 98.9267 110.004 99.26 110.937 99.26C112.257 99.26 113.13 98.68 113.557 97.52H116.017C115.697 98.64 115.097 99.5333 114.217 100.2C113.337 100.853 112.244 101.18 110.937 101.18C109.884 101.18 108.95 100.947 108.137 100.48C107.324 100 106.684 99.3333 106.217 98.48C105.764 97.6133 105.537 96.6133 105.537 95.48ZM123.069 101.18C122.029 101.18 121.089 100.947 120.249 100.48C119.409 100 118.749 99.3333 118.269 98.48C117.789 97.6133 117.549 96.6133 117.549 95.48C117.549 94.36 117.796 93.3667 118.289 92.5C118.782 91.6333 119.456 90.9667 120.309 90.5C121.162 90.0333 122.116 89.8 123.169 89.8C124.222 89.8 125.176 90.0333 126.029 90.5C126.882 90.9667 127.556 91.6333 128.049 92.5C128.542 93.3667 128.789 94.36 128.789 95.48C128.789 96.6 128.536 97.5933 128.029 98.46C127.522 99.3267 126.829 100 125.949 100.48C125.082 100.947 124.122 101.18 123.069 101.18ZM123.069 99.2C123.656 99.2 124.202 99.06 124.709 98.78C125.229 98.5 125.649 98.08 125.969 97.52C126.289 96.96 126.449 96.28 126.449 95.48C126.449 94.68 126.296 94.0067 125.989 93.46C125.682 92.9 125.276 92.48 124.769 92.2C124.262 91.92 123.716 91.78 123.129 91.78C122.542 91.78 121.996 91.92 121.489 92.2C120.996 92.48 120.602 92.9 120.309 93.46C120.016 94.0067 119.869 94.68 119.869 95.48C119.869 96.6667 120.169 97.5867 120.769 98.24C121.382 98.88 122.149 99.2 123.069 99.2ZM144.383 89.8C145.25 89.8 146.023 89.98 146.703 90.34C147.396 90.7 147.936 91.2333 148.323 91.94C148.723 92.6467 148.923 93.5 148.923 94.5V101H146.663V94.84C146.663 93.8533 146.416 93.1 145.923 92.58C145.43 92.0467 144.756 91.78 143.903 91.78C143.05 91.78 142.37 92.0467 141.863 92.58C141.37 93.1 141.123 93.8533 141.123 94.84V101H138.863V94.84C138.863 93.8533 138.616 93.1 138.123 92.58C137.63 92.0467 136.956 91.78 136.103 91.78C135.25 91.78 134.57 92.0467 134.063 92.58C133.57 93.1 133.323 93.8533 133.323 94.84V101H131.043V89.98H133.323V91.24C133.696 90.7867 134.17 90.4333 134.743 90.18C135.316 89.9267 135.93 89.8 136.583 89.8C137.463 89.8 138.25 89.9867 138.943 90.36C139.636 90.7333 140.17 91.2733 140.543 91.98C140.876 91.3133 141.396 90.7867 142.103 90.4C142.81 90 143.57 89.8 144.383 89.8ZM154.104 91.6C154.491 91.0933 155.018 90.6667 155.684 90.32C156.351 89.9733 157.104 89.8 157.944 89.8C158.904 89.8 159.778 90.04 160.564 90.52C161.364 90.9867 161.991 91.6467 162.444 92.5C162.898 93.3533 163.124 94.3333 163.124 95.44C163.124 96.5467 162.898 97.54 162.444 98.42C161.991 99.2867 161.364 99.9667 160.564 100.46C159.778 100.94 158.904 101.18 157.944 101.18C157.104 101.18 156.358 101.013 155.704 100.68C155.051 100.333 154.518 99.9067 154.104 99.4V106.24H151.824V89.98H154.104V91.6ZM160.804 95.44C160.804 94.68 160.644 94.0267 160.324 93.48C160.018 92.92 159.604 92.5 159.084 92.22C158.578 91.9267 158.031 91.78 157.444 91.78C156.871 91.78 156.324 91.9267 155.804 92.22C155.298 92.5133 154.884 92.94 154.564 93.5C154.258 94.06 154.104 94.72 154.104 95.48C154.104 96.24 154.258 96.9067 154.564 97.48C154.884 98.04 155.298 98.4667 155.804 98.76C156.324 99.0533 156.871 99.2 157.444 99.2C158.031 99.2 158.578 99.0533 159.084 98.76C159.604 98.4533 160.018 98.0133 160.324 97.44C160.644 96.8667 160.804 96.2 160.804 95.44ZM167.659 86.2V101H165.379V86.2H167.659ZM180.752 95.22C180.752 95.6333 180.726 96.0067 180.672 96.34H172.252C172.319 97.22 172.646 97.9267 173.232 98.46C173.819 98.9933 174.539 99.26 175.392 99.26C176.619 99.26 177.486 98.7467 177.992 97.72H180.452C180.119 98.7333 179.512 99.5667 178.632 100.22C177.766 100.86 176.686 101.18 175.392 101.18C174.339 101.18 173.392 100.947 172.552 100.48C171.726 100 171.072 99.3333 170.592 98.48C170.126 97.6133 169.892 96.6133 169.892 95.48C169.892 94.3467 170.119 93.3533 170.572 92.5C171.039 91.6333 171.686 90.9667 172.512 90.5C173.352 90.0333 174.312 89.8 175.392 89.8C176.432 89.8 177.359 90.0267 178.172 90.48C178.986 90.9333 179.619 91.5733 180.072 92.4C180.526 93.2133 180.752 94.1533 180.752 95.22ZM178.372 94.5C178.359 93.66 178.059 92.9867 177.472 92.48C176.886 91.9733 176.159 91.72 175.292 91.72C174.506 91.72 173.832 91.9733 173.272 92.48C172.712 92.9733 172.379 93.6467 172.272 94.5H178.372ZM185.656 91.84V97.94C185.656 98.3533 185.749 98.6533 185.936 98.84C186.136 99.0133 186.469 99.1 186.936 99.1H188.336V101H186.536C185.509 101 184.723 100.76 184.176 100.28C183.629 99.8 183.356 99.02 183.356 97.94V91.84H182.056V89.98H183.356V87.24H185.656V89.98H188.336V91.84H185.656ZM191.598 88.52C191.184 88.52 190.838 88.38 190.558 88.1C190.278 87.82 190.138 87.4733 190.138 87.06C190.138 86.6467 190.278 86.3 190.558 86.02C190.838 85.74 191.184 85.6 191.598 85.6C191.998 85.6 192.338 85.74 192.618 86.02C192.898 86.3 193.038 86.6467 193.038 87.06C193.038 87.4733 192.898 87.82 192.618 88.1C192.338 88.38 191.998 88.52 191.598 88.52ZM192.718 89.98V101H190.438V89.98H192.718ZM200.491 101.18C199.451 101.18 198.511 100.947 197.671 100.48C196.831 100 196.171 99.3333 195.691 98.48C195.211 97.6133 194.971 96.6133 194.971 95.48C194.971 94.36 195.218 93.3667 195.711 92.5C196.204 91.6333 196.878 90.9667 197.731 90.5C198.584 90.0333 199.538 89.8 200.591 89.8C201.644 89.8 202.598 90.0333 203.451 90.5C204.304 90.9667 204.978 91.6333 205.471 92.5C205.964 93.3667 206.211 94.36 206.211 95.48C206.211 96.6 205.958 97.5933 205.451 98.46C204.944 99.3267 204.251 100 203.371 100.48C202.504 100.947 201.544 101.18 200.491 101.18ZM200.491 99.2C201.078 99.2 201.624 99.06 202.131 98.78C202.651 98.5 203.071 98.08 203.391 97.52C203.711 96.96 203.871 96.28 203.871 95.48C203.871 94.68 203.718 94.0067 203.411 93.46C203.104 92.9 202.698 92.48 202.191 92.2C201.684 91.92 201.138 91.78 200.551 91.78C199.964 91.78 199.418 91.92 198.911 92.2C198.418 92.48 198.024 92.9 197.731 93.46C197.438 94.0067 197.291 94.68 197.291 95.48C197.291 96.6667 197.591 97.5867 198.191 98.24C198.804 98.88 199.571 99.2 200.491 99.2ZM214.025 89.8C214.892 89.8 215.665 89.98 216.345 90.34C217.038 90.7 217.578 91.2333 217.965 91.94C218.352 92.6467 218.545 93.5 218.545 94.5V101H216.285V94.84C216.285 93.8533 216.038 93.1 215.545 92.58C215.052 92.0467 214.378 91.78 213.525 91.78C212.672 91.78 211.992 92.0467 211.485 92.58C210.992 93.1 210.745 93.8533 210.745 94.84V101H208.465V89.98H210.745V91.24C211.118 90.7867 211.592 90.4333 212.165 90.18C212.752 89.9267 213.372 89.8 214.025 89.8ZM39.28 133.18C38.24 133.18 37.3 132.947 36.46 132.48C35.62 132 34.96 131.333 34.48 130.48C34 129.613 33.76 128.613 33.76 127.48C33.76 126.36 34.0067 125.367 34.5 124.5C34.9933 123.633 35.6667 122.967 36.52 122.5C37.3733 122.033 38.3267 121.8 39.38 121.8C40.4333 121.8 41.3867 122.033 42.24 122.5C43.0933 122.967 43.7667 123.633 44.26 124.5C44.7533 125.367 45 126.36 45 127.48C45 128.6 44.7467 129.593 44.24 130.46C43.7333 131.327 43.04 132 42.16 132.48C41.2933 132.947 40.3333 133.18 39.28 133.18ZM39.28 131.2C39.8667 131.2 40.4133 131.06 40.92 130.78C41.44 130.5 41.86 130.08 42.18 129.52C42.5 128.96 42.66 128.28 42.66 127.48C42.66 126.68 42.5067 126.007 42.2 125.46C41.8933 124.9 41.4867 124.48 40.98 124.2C40.4733 123.92 39.9267 123.78 39.34 123.78C38.7533 123.78 38.2067 123.92 37.7 124.2C37.2067 124.48 36.8133 124.9 36.52 125.46C36.2267 126.007 36.08 126.68 36.08 127.48C36.08 128.667 36.38 129.587 36.98 130.24C37.5933 130.88 38.36 131.2 39.28 131.2ZM51.8739 123.84H49.8339V133H47.5339V123.84H46.2339V121.98H47.5339V121.2C47.5339 119.933 47.8672 119.013 48.5339 118.44C49.2139 117.853 50.2739 117.56 51.7139 117.56V119.46C51.0206 119.46 50.5339 119.593 50.2539 119.86C49.9739 120.113 49.8339 120.56 49.8339 121.2V121.98H51.8739V123.84ZM61.7498 123.84V129.94C61.7498 130.353 61.8432 130.653 62.0298 130.84C62.2298 131.013 62.5632 131.1 63.0298 131.1H64.4298V133H62.6298C61.6032 133 60.8165 132.76 60.2698 132.28C59.7232 131.8 59.4498 131.02 59.4498 129.94V123.84H58.1498V121.98H59.4498V119.24H61.7498V121.98H64.4298V123.84H61.7498ZM65.7713 127.44C65.7713 126.333 65.9979 125.353 66.4513 124.5C66.9179 123.647 67.5446 122.987 68.3313 122.52C69.1313 122.04 70.0113 121.8 70.9713 121.8C71.8379 121.8 72.5913 121.973 73.2313 122.32C73.8846 122.653 74.4046 123.073 74.7913 123.58V121.98H77.0913V133H74.7913V131.36C74.4046 131.88 73.8779 132.313 73.2113 132.66C72.5446 133.007 71.7846 133.18 70.9313 133.18C69.9846 133.18 69.1179 132.94 68.3313 132.46C67.5446 131.967 66.9179 131.287 66.4513 130.42C65.9979 129.54 65.7713 128.547 65.7713 127.44ZM74.7913 127.48C74.7913 126.72 74.6313 126.06 74.3113 125.5C74.0046 124.94 73.5979 124.513 73.0913 124.22C72.5846 123.927 72.0379 123.78 71.4513 123.78C70.8646 123.78 70.3179 123.927 69.8113 124.22C69.3046 124.5 68.8913 124.92 68.5713 125.48C68.2646 126.027 68.1113 126.68 68.1113 127.44C68.1113 128.2 68.2646 128.867 68.5713 129.44C68.8913 130.013 69.3046 130.453 69.8113 130.76C70.3313 131.053 70.8779 131.2 71.4513 131.2C72.0379 131.2 72.5846 131.053 73.0913 130.76C73.5979 130.467 74.0046 130.04 74.3113 129.48C74.6313 128.907 74.7913 128.24 74.7913 127.48ZM84.0859 133.18C83.2193 133.18 82.4393 133.027 81.7459 132.72C81.0659 132.4 80.5259 131.973 80.1259 131.44C79.7259 130.893 79.5126 130.287 79.4859 129.62H81.8459C81.8859 130.087 82.1059 130.48 82.5059 130.8C82.9193 131.107 83.4326 131.26 84.0459 131.26C84.6859 131.26 85.1793 131.14 85.5259 130.9C85.8859 130.647 86.0659 130.327 86.0659 129.94C86.0659 129.527 85.8659 129.22 85.4659 129.02C85.0793 128.82 84.4593 128.6 83.6059 128.36C82.7793 128.133 82.1059 127.913 81.5859 127.7C81.0659 127.487 80.6126 127.16 80.2259 126.72C79.8526 126.28 79.6659 125.7 79.6659 124.98C79.6659 124.393 79.8393 123.86 80.1859 123.38C80.5326 122.887 81.0259 122.5 81.6659 122.22C82.3193 121.94 83.0659 121.8 83.9059 121.8C85.1593 121.8 86.1659 122.12 86.9259 122.76C87.6993 123.387 88.1126 124.247 88.1659 125.34H85.8859C85.8459 124.847 85.6459 124.453 85.2859 124.16C84.9259 123.867 84.4393 123.72 83.8259 123.72C83.2259 123.72 82.7659 123.833 82.4459 124.06C82.1259 124.287 81.9659 124.587 81.9659 124.96C81.9659 125.253 82.0726 125.5 82.2859 125.7C82.4993 125.9 82.7593 126.06 83.0659 126.18C83.3726 126.287 83.8259 126.427 84.4259 126.6C85.2259 126.813 85.8793 127.033 86.3859 127.26C86.9059 127.473 87.3526 127.793 87.7259 128.22C88.0993 128.647 88.2926 129.213 88.3059 129.92C88.3059 130.547 88.1326 131.107 87.7859 131.6C87.4393 132.093 86.9459 132.48 86.3059 132.76C85.6793 133.04 84.9393 133.18 84.0859 133.18ZM95.1295 127.5L100.21 133H97.1295L93.0495 128.26V133H90.7695V118.2H93.0495V126.8L97.0495 121.98H100.21L95.1295 127.5ZM105.844 133.18C104.977 133.18 104.197 133.027 103.504 132.72C102.824 132.4 102.284 131.973 101.884 131.44C101.484 130.893 101.27 130.287 101.244 129.62H103.604C103.644 130.087 103.864 130.48 104.264 130.8C104.677 131.107 105.19 131.26 105.804 131.26C106.444 131.26 106.937 131.14 107.284 130.9C107.644 130.647 107.824 130.327 107.824 129.94C107.824 129.527 107.624 129.22 107.224 129.02C106.837 128.82 106.217 128.6 105.364 128.36C104.537 128.133 103.864 127.913 103.344 127.7C102.824 127.487 102.37 127.16 101.984 126.72C101.61 126.28 101.424 125.7 101.424 124.98C101.424 124.393 101.597 123.86 101.944 123.38C102.29 122.887 102.784 122.5 103.424 122.22C104.077 121.94 104.824 121.8 105.664 121.8C106.917 121.8 107.924 122.12 108.684 122.76C109.457 123.387 109.87 124.247 109.924 125.34H107.644C107.604 124.847 107.404 124.453 107.044 124.16C106.684 123.867 106.197 123.72 105.584 123.72C104.984 123.72 104.524 123.833 104.204 124.06C103.884 124.287 103.724 124.587 103.724 124.96C103.724 125.253 103.83 125.5 104.044 125.7C104.257 125.9 104.517 126.06 104.824 126.18C105.13 126.287 105.584 126.427 106.184 126.6C106.984 126.813 107.637 127.033 108.144 127.26C108.664 127.473 109.11 127.793 109.484 128.22C109.857 128.647 110.05 129.213 110.064 129.92C110.064 130.547 109.89 131.107 109.544 131.6C109.197 132.093 108.704 132.48 108.064 132.76C107.437 133.04 106.697 133.18 105.844 133.18ZM120.383 123.84V129.94C120.383 130.353 120.476 130.653 120.663 130.84C120.863 131.013 121.196 131.1 121.663 131.1H123.063V133H121.263C120.236 133 119.449 132.76 118.903 132.28C118.356 131.8 118.083 131.02 118.083 129.94V123.84H116.783V121.98H118.083V119.24H120.383V121.98H123.063V123.84H120.383ZM129.944 133.18C128.904 133.18 127.964 132.947 127.124 132.48C126.284 132 125.624 131.333 125.144 130.48C124.664 129.613 124.424 128.613 124.424 127.48C124.424 126.36 124.671 125.367 125.164 124.5C125.657 123.633 126.331 122.967 127.184 122.5C128.037 122.033 128.991 121.8 130.044 121.8C131.097 121.8 132.051 122.033 132.904 122.5C133.757 122.967 134.431 123.633 134.924 124.5C135.417 125.367 135.664 126.36 135.664 127.48C135.664 128.6 135.411 129.593 134.904 130.46C134.397 131.327 133.704 132 132.824 132.48C131.957 132.947 130.997 133.18 129.944 133.18ZM129.944 131.2C130.531 131.2 131.077 131.06 131.584 130.78C132.104 130.5 132.524 130.08 132.844 129.52C133.164 128.96 133.324 128.28 133.324 127.48C133.324 126.68 133.171 126.007 132.864 125.46C132.557 124.9 132.151 124.48 131.644 124.2C131.137 123.92 130.591 123.78 130.004 123.78C129.417 123.78 128.871 123.92 128.364 124.2C127.871 124.48 127.477 124.9 127.184 125.46C126.891 126.007 126.744 126.68 126.744 127.48C126.744 128.667 127.044 129.587 127.644 130.24C128.257 130.88 129.024 131.2 129.944 131.2ZM156.453 121.8C157.32 121.8 158.093 121.98 158.773 122.34C159.467 122.7 160.007 123.233 160.393 123.94C160.793 124.647 160.993 125.5 160.993 126.5V133H158.733V126.84C158.733 125.853 158.487 125.1 157.993 124.58C157.5 124.047 156.827 123.78 155.973 123.78C155.12 123.78 154.44 124.047 153.933 124.58C153.44 125.1 153.193 125.853 153.193 126.84V133H150.933V126.84C150.933 125.853 150.687 125.1 150.193 124.58C149.7 124.047 149.027 123.78 148.173 123.78C147.32 123.78 146.64 124.047 146.133 124.58C145.64 125.1 145.393 125.853 145.393 126.84V133H143.113V121.98H145.393V123.24C145.767 122.787 146.24 122.433 146.813 122.18C147.387 121.927 148 121.8 148.653 121.8C149.533 121.8 150.32 121.987 151.013 122.36C151.707 122.733 152.24 123.273 152.613 123.98C152.947 123.313 153.467 122.787 154.173 122.4C154.88 122 155.64 121.8 156.453 121.8ZM173.995 127.22C173.995 127.633 173.968 128.007 173.915 128.34H165.495C165.561 129.22 165.888 129.927 166.475 130.46C167.061 130.993 167.781 131.26 168.635 131.26C169.861 131.26 170.728 130.747 171.235 129.72H173.695C173.361 130.733 172.755 131.567 171.875 132.22C171.008 132.86 169.928 133.18 168.635 133.18C167.581 133.18 166.635 132.947 165.795 132.48C164.968 132 164.315 131.333 163.835 130.48C163.368 129.613 163.135 128.613 163.135 127.48C163.135 126.347 163.361 125.353 163.815 124.5C164.281 123.633 164.928 122.967 165.755 122.5C166.595 122.033 167.555 121.8 168.635 121.8C169.675 121.8 170.601 122.027 171.415 122.48C172.228 122.933 172.861 123.573 173.315 124.4C173.768 125.213 173.995 126.153 173.995 127.22ZM171.615 126.5C171.601 125.66 171.301 124.987 170.715 124.48C170.128 123.973 169.401 123.72 168.535 123.72C167.748 123.72 167.075 123.973 166.515 124.48C165.955 124.973 165.621 125.647 165.515 126.5H171.615ZM186.338 127.22C186.338 127.633 186.312 128.007 186.258 128.34H177.838C177.905 129.22 178.232 129.927 178.818 130.46C179.405 130.993 180.125 131.26 180.978 131.26C182.205 131.26 183.072 130.747 183.578 129.72H186.038C185.705 130.733 185.098 131.567 184.218 132.22C183.352 132.86 182.272 133.18 180.978 133.18C179.925 133.18 178.978 132.947 178.138 132.48C177.312 132 176.658 131.333 176.178 130.48C175.712 129.613 175.478 128.613 175.478 127.48C175.478 126.347 175.705 125.353 176.158 124.5C176.625 123.633 177.272 122.967 178.098 122.5C178.938 122.033 179.898 121.8 180.978 121.8C182.018 121.8 182.945 122.027 183.758 122.48C184.572 122.933 185.205 123.573 185.658 124.4C186.112 125.213 186.338 126.153 186.338 127.22ZM183.958 126.5C183.945 125.66 183.645 124.987 183.058 124.48C182.472 123.973 181.745 123.72 180.878 123.72C180.092 123.72 179.418 123.973 178.858 124.48C178.298 124.973 177.965 125.647 177.858 126.5H183.958ZM191.242 123.84V129.94C191.242 130.353 191.335 130.653 191.522 130.84C191.722 131.013 192.055 131.1 192.522 131.1H193.922V133H192.122C191.095 133 190.309 132.76 189.762 132.28C189.215 131.8 188.942 131.02 188.942 129.94V123.84H187.642V121.98H188.942V119.24H191.242V121.98H193.922V123.84H191.242ZM44.42 153.98L37.66 170.18H35.3L37.54 164.82L33.2 153.98H35.74L38.84 162.38L42.06 153.98H44.42ZM50.9206 165.18C49.8806 165.18 48.9406 164.947 48.1006 164.48C47.2606 164 46.6006 163.333 46.1206 162.48C45.6406 161.613 45.4006 160.613 45.4006 159.48C45.4006 158.36 45.6473 157.367 46.1406 156.5C46.634 155.633 47.3073 154.967 48.1606 154.5C49.014 154.033 49.9673 153.8 51.0206 153.8C52.074 153.8 53.0273 154.033 53.8806 154.5C54.734 154.967 55.4073 155.633 55.9006 156.5C56.394 157.367 56.6406 158.36 56.6406 159.48C56.6406 160.6 56.3873 161.593 55.8806 162.46C55.374 163.327 54.6806 164 53.8006 164.48C52.934 164.947 51.974 165.18 50.9206 165.18ZM50.9206 163.2C51.5073 163.2 52.054 163.06 52.5606 162.78C53.0806 162.5 53.5006 162.08 53.8206 161.52C54.1406 160.96 54.3006 160.28 54.3006 159.48C54.3006 158.68 54.1473 158.007 53.8406 157.46C53.534 156.9 53.1273 156.48 52.6206 156.2C52.114 155.92 51.5673 155.78 50.9806 155.78C50.394 155.78 49.8473 155.92 49.3406 156.2C48.8473 156.48 48.454 156.9 48.1606 157.46C47.8673 158.007 47.7206 158.68 47.7206 159.48C47.7206 160.667 48.0206 161.587 48.6206 162.24C49.234 162.88 50.0006 163.2 50.9206 163.2ZM68.8745 153.98V165H66.5945V163.7C66.2345 164.153 65.7612 164.513 65.1745 164.78C64.6012 165.033 63.9879 165.16 63.3345 165.16C62.4679 165.16 61.6879 164.98 60.9945 164.62C60.3145 164.26 59.7745 163.727 59.3745 163.02C58.9879 162.313 58.7945 161.46 58.7945 160.46V153.98H61.0545V160.12C61.0545 161.107 61.3012 161.867 61.7945 162.4C62.2879 162.92 62.9612 163.18 63.8145 163.18C64.6679 163.18 65.3412 162.92 65.8345 162.4C66.3412 161.867 66.5945 161.107 66.5945 160.12V153.98H68.8745ZM74.1628 155.58C74.4961 155.02 74.9361 154.587 75.4828 154.28C76.0428 153.96 76.7028 153.8 77.4628 153.8V156.16H76.8828C75.9895 156.16 75.3095 156.387 74.8428 156.84C74.3895 157.293 74.1628 158.08 74.1628 159.2V165H71.8828V153.98H74.1628V155.58ZM83.9939 159.44C83.9939 158.333 84.2206 157.353 84.6739 156.5C85.1406 155.647 85.7672 154.987 86.5539 154.52C87.3539 154.04 88.2406 153.8 89.2139 153.8C89.9339 153.8 90.6406 153.96 91.3339 154.28C92.0406 154.587 92.6006 155 93.0139 155.52V150.2H95.3139V165H93.0139V163.34C92.6406 163.873 92.1206 164.313 91.4539 164.66C90.8006 165.007 90.0472 165.18 89.1939 165.18C88.2339 165.18 87.3539 164.94 86.5539 164.46C85.7672 163.967 85.1406 163.287 84.6739 162.42C84.2206 161.54 83.9939 160.547 83.9939 159.44ZM93.0139 159.48C93.0139 158.72 92.8539 158.06 92.5339 157.5C92.2272 156.94 91.8206 156.513 91.3139 156.22C90.8072 155.927 90.2606 155.78 89.6739 155.78C89.0872 155.78 88.5406 155.927 88.0339 156.22C87.5272 156.5 87.1139 156.92 86.7939 157.48C86.4872 158.027 86.3339 158.68 86.3339 159.44C86.3339 160.2 86.4872 160.867 86.7939 161.44C87.1139 162.013 87.5272 162.453 88.0339 162.76C88.5539 163.053 89.1006 163.2 89.6739 163.2C90.2606 163.2 90.8072 163.053 91.3139 162.76C91.8206 162.467 92.2272 162.04 92.5339 161.48C92.8539 160.907 93.0139 160.24 93.0139 159.48ZM108.409 159.22C108.409 159.633 108.382 160.007 108.329 160.34H99.9086C99.9753 161.22 100.302 161.927 100.889 162.46C101.475 162.993 102.195 163.26 103.049 163.26C104.275 163.26 105.142 162.747 105.649 161.72H108.109C107.775 162.733 107.169 163.567 106.289 164.22C105.422 164.86 104.342 165.18 103.049 165.18C101.995 165.18 101.049 164.947 100.209 164.48C99.3819 164 98.7286 163.333 98.2486 162.48C97.7819 161.613 97.5486 160.613 97.5486 159.48C97.5486 158.347 97.7753 157.353 98.2286 156.5C98.6953 155.633 99.3419 154.967 100.169 154.5C101.009 154.033 101.969 153.8 103.049 153.8C104.089 153.8 105.015 154.027 105.829 154.48C106.642 154.933 107.275 155.573 107.729 156.4C108.182 157.213 108.409 158.153 108.409 159.22ZM106.029 158.5C106.015 157.66 105.715 156.987 105.129 156.48C104.542 155.973 103.815 155.72 102.949 155.72C102.162 155.72 101.489 155.973 100.929 156.48C100.369 156.973 100.035 157.647 99.9286 158.5H106.029ZM109.892 159.44C109.892 158.333 110.119 157.353 110.572 156.5C111.039 155.647 111.666 154.987 112.452 154.52C113.252 154.04 114.132 153.8 115.092 153.8C115.959 153.8 116.712 153.973 117.352 154.32C118.006 154.653 118.526 155.073 118.912 155.58V153.98H121.212V165H118.912V163.36C118.526 163.88 117.999 164.313 117.332 164.66C116.666 165.007 115.906 165.18 115.052 165.18C114.106 165.18 113.239 164.94 112.452 164.46C111.666 163.967 111.039 163.287 110.572 162.42C110.119 161.54 109.892 160.547 109.892 159.44ZM118.912 159.48C118.912 158.72 118.752 158.06 118.432 157.5C118.126 156.94 117.719 156.513 117.212 156.22C116.706 155.927 116.159 155.78 115.572 155.78C114.986 155.78 114.439 155.927 113.932 156.22C113.426 156.5 113.012 156.92 112.692 157.48C112.386 158.027 112.232 158.68 112.232 159.44C112.232 160.2 112.386 160.867 112.692 161.44C113.012 162.013 113.426 162.453 113.932 162.76C114.452 163.053 114.999 163.2 115.572 163.2C116.159 163.2 116.706 163.053 117.212 162.76C117.719 162.467 118.126 162.04 118.432 161.48C118.752 160.907 118.912 160.24 118.912 159.48ZM123.447 159.44C123.447 158.333 123.674 157.353 124.127 156.5C124.594 155.647 125.22 154.987 126.007 154.52C126.807 154.04 127.694 153.8 128.667 153.8C129.387 153.8 130.094 153.96 130.787 154.28C131.494 154.587 132.054 155 132.467 155.52V150.2H134.767V165H132.467V163.34C132.094 163.873 131.574 164.313 130.907 164.66C130.254 165.007 129.5 165.18 128.647 165.18C127.687 165.18 126.807 164.94 126.007 164.46C125.22 163.967 124.594 163.287 124.127 162.42C123.674 161.54 123.447 160.547 123.447 159.44ZM132.467 159.48C132.467 158.72 132.307 158.06 131.987 157.5C131.68 156.94 131.274 156.513 130.767 156.22C130.26 155.927 129.714 155.78 129.127 155.78C128.54 155.78 127.994 155.927 127.487 156.22C126.98 156.5 126.567 156.92 126.247 157.48C125.94 158.027 125.787 158.68 125.787 159.44C125.787 160.2 125.94 160.867 126.247 161.44C126.567 162.013 126.98 162.453 127.487 162.76C128.007 163.053 128.554 163.2 129.127 163.2C129.714 163.2 130.26 163.053 130.767 162.76C131.274 162.467 131.68 162.04 131.987 161.48C132.307 160.907 132.467 160.24 132.467 159.48ZM140.042 150.2V165H137.762V150.2H140.042ZM144.195 152.52C143.782 152.52 143.435 152.38 143.155 152.1C142.875 151.82 142.735 151.473 142.735 151.06C142.735 150.647 142.875 150.3 143.155 150.02C143.435 149.74 143.782 149.6 144.195 149.6C144.595 149.6 144.935 149.74 145.215 150.02C145.495 150.3 145.635 150.647 145.635 151.06C145.635 151.473 145.495 151.82 145.215 152.1C144.935 152.38 144.595 152.52 144.195 152.52ZM145.315 153.98V165H143.035V153.98H145.315ZM153.869 153.8C154.735 153.8 155.509 153.98 156.189 154.34C156.882 154.7 157.422 155.233 157.809 155.94C158.195 156.647 158.389 157.5 158.389 158.5V165H156.129V158.84C156.129 157.853 155.882 157.1 155.389 156.58C154.895 156.047 154.222 155.78 153.369 155.78C152.515 155.78 151.835 156.047 151.329 156.58C150.835 157.1 150.589 157.853 150.589 158.84V165H148.309V153.98H150.589V155.24C150.962 154.787 151.435 154.433 152.009 154.18C152.595 153.927 153.215 153.8 153.869 153.8ZM171.397 159.22C171.397 159.633 171.37 160.007 171.317 160.34H162.897C162.964 161.22 163.29 161.927 163.877 162.46C164.464 162.993 165.184 163.26 166.037 163.26C167.264 163.26 168.13 162.747 168.637 161.72H171.097C170.764 162.733 170.157 163.567 169.277 164.22C168.41 164.86 167.33 165.18 166.037 165.18C164.984 165.18 164.037 164.947 163.197 164.48C162.37 164 161.717 163.333 161.237 162.48C160.77 161.613 160.537 160.613 160.537 159.48C160.537 158.347 160.764 157.353 161.217 156.5C161.684 155.633 162.33 154.967 163.157 154.5C163.997 154.033 164.957 153.8 166.037 153.8C167.077 153.8 168.004 154.027 168.817 154.48C169.63 154.933 170.264 155.573 170.717 156.4C171.17 157.213 171.397 158.153 171.397 159.22ZM169.017 158.5C169.004 157.66 168.704 156.987 168.117 156.48C167.53 155.973 166.804 155.72 165.937 155.72C165.15 155.72 164.477 155.973 163.917 156.48C163.357 156.973 163.024 157.647 162.917 158.5H169.017ZM177.641 165.18C176.774 165.18 175.994 165.027 175.301 164.72C174.621 164.4 174.081 163.973 173.681 163.44C173.281 162.893 173.067 162.287 173.041 161.62H175.401C175.441 162.087 175.661 162.48 176.061 162.8C176.474 163.107 176.987 163.26 177.601 163.26C178.241 163.26 178.734 163.14 179.081 162.9C179.441 162.647 179.621 162.327 179.621 161.94C179.621 161.527 179.421 161.22 179.021 161.02C178.634 160.82 178.014 160.6 177.161 160.36C176.334 160.133 175.661 159.913 175.141 159.7C174.621 159.487 174.167 159.16 173.781 158.72C173.407 158.28 173.221 157.7 173.221 156.98C173.221 156.393 173.394 155.86 173.741 155.38C174.087 154.887 174.581 154.5 175.221 154.22C175.874 153.94 176.621 153.8 177.461 153.8C178.714 153.8 179.721 154.12 180.481 154.76C181.254 155.387 181.667 156.247 181.721 157.34H179.441C179.401 156.847 179.201 156.453 178.841 156.16C178.481 155.867 177.994 155.72 177.381 155.72C176.781 155.72 176.321 155.833 176.001 156.06C175.681 156.287 175.521 156.587 175.521 156.96C175.521 157.253 175.627 157.5 175.841 157.7C176.054 157.9 176.314 158.06 176.621 158.18C176.927 158.287 177.381 158.427 177.981 158.6C178.781 158.813 179.434 159.033 179.941 159.26C180.461 159.473 180.907 159.793 181.281 160.22C181.654 160.647 181.847 161.213 181.861 161.92C181.861 162.547 181.687 163.107 181.341 163.6C180.994 164.093 180.501 164.48 179.861 164.76C179.234 165.04 178.494 165.18 177.641 165.18Z" fill="#444444"/>
<path d="M46.608 40.152V43.44H42.144V57H38.04V43.44H33.576V40.152H46.608ZM50.7317 42.216C50.0117 42.216 49.4197 42.008 48.9557 41.592C48.5077 41.16 48.2837 40.632 48.2837 40.008C48.2837 39.368 48.5077 38.84 48.9557 38.424C49.4197 37.992 50.0117 37.776 50.7317 37.776C51.4357 37.776 52.0117 37.992 52.4597 38.424C52.9237 38.84 53.1557 39.368 53.1557 40.008C53.1557 40.632 52.9237 41.16 52.4597 41.592C52.0117 42.008 51.4357 42.216 50.7317 42.216ZM52.7717 43.608V57H48.6677V43.608H52.7717ZM72.8338 43.464C74.4978 43.464 75.8178 43.968 76.7938 44.976C77.7858 45.984 78.2818 47.384 78.2818 49.176V57H74.2018V49.728C74.2018 48.864 73.9698 48.2 73.5058 47.736C73.0578 47.256 72.4338 47.016 71.6338 47.016C70.8338 47.016 70.2018 47.256 69.7378 47.736C69.2898 48.2 69.0658 48.864 69.0658 49.728V57H64.9858V49.728C64.9858 48.864 64.7538 48.2 64.2898 47.736C63.8418 47.256 63.2178 47.016 62.4178 47.016C61.6178 47.016 60.9858 47.256 60.5218 47.736C60.0738 48.2 59.8498 48.864 59.8498 49.728V57H55.7458V43.608H59.8498V45.288C60.2658 44.728 60.8098 44.288 61.4818 43.968C62.1538 43.632 62.9138 43.464 63.7618 43.464C64.7698 43.464 65.6658 43.68 66.4498 44.112C67.2498 44.544 67.8738 45.16 68.3218 45.96C68.7858 45.224 69.4178 44.624 70.2178 44.16C71.0178 43.696 71.8898 43.464 72.8338 43.464ZM93.7761 50.088C93.7761 50.472 93.7521 50.872 93.7041 51.288H84.4161C84.4801 52.12 84.7441 52.76 85.2081 53.208C85.6881 53.64 86.2721 53.856 86.9601 53.856C87.9841 53.856 88.6961 53.424 89.0961 52.56H93.4641C93.2401 53.44 92.8321 54.232 92.2401 54.936C91.6641 55.64 90.9361 56.192 90.0561 56.592C89.1761 56.992 88.1921 57.192 87.1041 57.192C85.7921 57.192 84.6241 56.912 83.6001 56.352C82.5761 55.792 81.7761 54.992 81.2001 53.952C80.6241 52.912 80.3361 51.696 80.3361 50.304C80.3361 48.912 80.6161 47.696 81.1761 46.656C81.7521 45.616 82.5521 44.816 83.5761 44.256C84.6001 43.696 85.7761 43.416 87.1041 43.416C88.4001 43.416 89.5521 43.688 90.5601 44.232C91.5681 44.776 92.3521 45.552 92.9121 46.56C93.4881 47.568 93.7761 48.744 93.7761 50.088ZM89.5761 49.008C89.5761 48.304 89.3361 47.744 88.8561 47.328C88.3761 46.912 87.7761 46.704 87.0561 46.704C86.3681 46.704 85.7841 46.904 85.3041 47.304C84.8401 47.704 84.5521 48.272 84.4401 49.008H89.5761ZM100.045 39.24V57H95.9411V39.24H100.045ZM116.699 43.608L108.299 63.36H103.883L106.955 56.544L101.507 43.608H106.091L109.187 51.984L112.259 43.608H116.699ZM129.581 40.152C131.357 40.152 132.909 40.504 134.237 41.208C135.565 41.912 136.589 42.904 137.309 44.184C138.045 45.448 138.413 46.912 138.413 48.576C138.413 50.224 138.045 51.688 137.309 52.968C136.589 54.248 135.557 55.24 134.213 55.944C132.885 56.648 131.341 57 129.581 57H123.269V40.152H129.581ZM129.317 53.448C130.869 53.448 132.077 53.024 132.941 52.176C133.805 51.328 134.237 50.128 134.237 48.576C134.237 47.024 133.805 45.816 132.941 44.952C132.077 44.088 130.869 43.656 129.317 43.656H127.373V53.448H129.317ZM153.331 50.088C153.331 50.472 153.307 50.872 153.259 51.288H143.971C144.035 52.12 144.299 52.76 144.763 53.208C145.243 53.64 145.827 53.856 146.515 53.856C147.539 53.856 148.251 53.424 148.651 52.56H153.019C152.795 53.44 152.387 54.232 151.795 54.936C151.219 55.64 150.491 56.192 149.611 56.592C148.731 56.992 147.747 57.192 146.659 57.192C145.347 57.192 144.179 56.912 143.155 56.352C142.131 55.792 141.331 54.992 140.755 53.952C140.179 52.912 139.891 51.696 139.891 50.304C139.891 48.912 140.171 47.696 140.731 46.656C141.307 45.616 142.107 44.816 143.131 44.256C144.155 43.696 145.331 43.416 146.659 43.416C147.955 43.416 149.107 43.688 150.115 44.232C151.123 44.776 151.907 45.552 152.467 46.56C153.043 47.568 153.331 48.744 153.331 50.088ZM149.131 49.008C149.131 48.304 148.891 47.744 148.411 47.328C147.931 46.912 147.331 46.704 146.611 46.704C145.923 46.704 145.339 46.904 144.859 47.304C144.395 47.704 144.107 48.272 143.995 49.008H149.131ZM159.6 39.24V57H155.496V39.24H159.6ZM164.638 42.216C163.918 42.216 163.326 42.008 162.862 41.592C162.414 41.16 162.19 40.632 162.19 40.008C162.19 39.368 162.414 38.84 162.862 38.424C163.326 37.992 163.918 37.776 164.638 37.776C165.342 37.776 165.918 37.992 166.366 38.424C166.83 38.84 167.062 39.368 167.062 40.008C167.062 40.632 166.83 41.16 166.366 41.592C165.918 42.008 165.342 42.216 164.638 42.216ZM166.678 43.608V57H162.574V43.608H166.678ZM175.676 53.16L178.58 43.608H182.948L178.196 57H173.132L168.38 43.608H172.772L175.676 53.16ZM197.299 50.088C197.299 50.472 197.276 50.872 197.228 51.288H187.94C188.004 52.12 188.268 52.76 188.732 53.208C189.212 53.64 189.796 53.856 190.484 53.856C191.508 53.856 192.22 53.424 192.62 52.56H196.988C196.764 53.44 196.356 54.232 195.764 54.936C195.188 55.64 194.46 56.192 193.58 56.592C192.7 56.992 191.716 57.192 190.628 57.192C189.316 57.192 188.148 56.912 187.124 56.352C186.1 55.792 185.3 54.992 184.724 53.952C184.148 52.912 183.86 51.696 183.86 50.304C183.86 48.912 184.14 47.696 184.7 46.656C185.276 45.616 186.076 44.816 187.1 44.256C188.124 43.696 189.3 43.416 190.628 43.416C191.924 43.416 193.076 43.688 194.084 44.232C195.092 44.776 195.876 45.552 196.436 46.56C197.012 47.568 197.299 48.744 197.299 50.088ZM193.1 49.008C193.1 48.304 192.86 47.744 192.38 47.328C191.9 46.912 191.3 46.704 190.58 46.704C189.892 46.704 189.308 46.904 188.828 47.304C188.364 47.704 188.076 48.272 187.964 49.008H193.1ZM203.569 45.84C204.049 45.104 204.649 44.528 205.369 44.112C206.089 43.68 206.889 43.464 207.769 43.464V47.808H206.641C205.617 47.808 204.849 48.032 204.337 48.48C203.825 48.912 203.569 49.68 203.569 50.784V57H199.465V43.608H203.569V45.84ZM223.41 43.608L215.01 63.36H210.594L213.666 56.544L208.218 43.608H212.802L215.898 51.984L218.97 43.608H223.41Z" fill="#444444"/>
<rect x="210" y="210" width="70" height="70" rx="16" fill="#EF6C0D"/>
<path d="M228.538 244.75C228.538 241.31 229.198 238.6 230.518 236.62C231.858 234.64 234.008 233.65 236.968 233.65C239.928 233.65 242.068 234.64 243.388 236.62C244.728 238.6 245.398 241.31 245.398 244.75C245.398 248.23 244.728 250.96 243.388 252.94C242.068 254.92 239.928 255.91 236.968 255.91C234.008 255.91 231.858 254.92 230.518 252.94C229.198 250.96 228.538 248.23 228.538 244.75ZM240.358 244.75C240.358 242.73 240.138 241.18 239.698 240.1C239.258 239 238.348 238.45 236.968 238.45C235.588 238.45 234.678 239 234.238 240.1C233.798 241.18 233.578 242.73 233.578 244.75C233.578 246.11 233.658 247.24 233.818 248.14C233.978 249.02 234.298 249.74 234.778 250.3C235.278 250.84 236.008 251.11 236.968 251.11C237.928 251.11 238.648 250.84 239.128 250.3C239.628 249.74 239.958 249.02 240.118 248.14C240.278 247.24 240.358 246.11 240.358 244.75ZM262.088 237.94L254.558 256H249.308L256.928 238.51H247.598V234.13H262.088V237.94Z" fill="white"/>
</svg>
