<svg width="280" height="280" viewBox="0 0 280 280" fill="none" xmlns="http://www.w3.org/2000/svg">
<path fill-rule="evenodd" clip-rule="evenodd" d="M280 30C280 13.4315 266.569 0 250 0H30C13.4315 0 0 13.4315 0 30V250C0 266.569 13.4315 280 30 280H159.5C176.069 280 189.5 266.569 189.5 250V218C189.5 201.431 202.931 188 219.5 188H260C271.046 188 280 179.046 280 168V30Z" fill="#444444"/>
<path fill-rule="evenodd" clip-rule="evenodd" d="M280 30C280 13.4315 266.569 0 250 0H30C13.4315 0 0 13.4315 0 30V250C0 266.569 13.4315 280 30 280H159.5C176.069 280 189.5 266.569 189.5 250V218C189.5 201.431 202.931 188 219.5 188H260C271.046 188 280 179.046 280 168V30Z" fill="white" fill-opacity="0.95"/>
<path d="M39.04 87.1C40.52 87.1 41.8133 87.3867 42.92 87.96C44.04 88.52 44.9 89.3333 45.5 90.4C46.1133 91.4533 46.42 92.6867 46.42 94.1C46.42 95.5133 46.1133 96.74 45.5 97.78C44.9 98.82 44.04 99.62 42.92 100.18C41.8133 100.727 40.52 101 39.04 101H34.5V87.1H39.04ZM39.04 99.14C40.6667 99.14 41.9133 98.7 42.78 97.82C43.6467 96.94 44.08 95.7 44.08 94.1C44.08 92.4867 43.6467 91.2267 42.78 90.32C41.9133 89.4133 40.6667 88.96 39.04 88.96H36.78V99.14H39.04ZM58.7797 95.22C58.7797 95.6333 58.753 96.0067 58.6997 96.34H50.2797C50.3464 97.22 50.673 97.9267 51.2597 98.46C51.8464 98.9933 52.5664 99.26 53.4197 99.26C54.6464 99.26 55.513 98.7467 56.0197 97.72H58.4797C58.1464 98.7333 57.5397 99.5667 56.6597 100.22C55.793 100.86 54.713 101.18 53.4197 101.18C52.3664 101.18 51.4197 100.947 50.5797 100.48C49.753 100 49.0997 99.3333 48.6197 98.48C48.153 97.6133 47.9197 96.6133 47.9197 95.48C47.9197 94.3467 48.1464 93.3533 48.5997 92.5C49.0664 91.6333 49.713 90.9667 50.5397 90.5C51.3797 90.0333 52.3397 89.8 53.4197 89.8C54.4597 89.8 55.3864 90.0267 56.1997 90.48C57.013 90.9333 57.6464 91.5733 58.0997 92.4C58.553 93.2133 58.7797 94.1533 58.7797 95.22ZM56.3997 94.5C56.3864 93.66 56.0864 92.9867 55.4997 92.48C54.913 91.9733 54.1864 91.72 53.3197 91.72C52.533 91.72 51.8597 91.9733 51.2997 92.48C50.7397 92.9733 50.4064 93.6467 50.2997 94.5H56.3997ZM60.2634 95.44C60.2634 94.3333 60.4901 93.3533 60.9434 92.5C61.4101 91.6467 62.0368 90.9867 62.8234 90.52C63.6234 90.04 64.5101 89.8 65.4834 89.8C66.2034 89.8 66.9101 89.96 67.6034 90.28C68.3101 90.5867 68.8701 91 69.2834 91.52V86.2H71.5834V101H69.2834V99.34C68.9101 99.8733 68.3901 100.313 67.7234 100.66C67.0701 101.007 66.3168 101.18 65.4634 101.18C64.5034 101.18 63.6234 100.94 62.8234 100.46C62.0368 99.9667 61.4101 99.2867 60.9434 98.42C60.4901 97.54 60.2634 96.5467 60.2634 95.44ZM69.2834 95.48C69.2834 94.72 69.1234 94.06 68.8034 93.5C68.4968 92.94 68.0901 92.5133 67.5834 92.22C67.0768 91.9267 66.5301 91.78 65.9434 91.78C65.3568 91.78 64.8101 91.9267 64.3034 92.22C63.7968 92.5 63.3834 92.92 63.0634 93.48C62.7568 94.0267 62.6034 94.68 62.6034 95.44C62.6034 96.2 62.7568 96.8667 63.0634 97.44C63.3834 98.0133 63.7968 98.4533 64.3034 98.76C64.8234 99.0533 65.3701 99.2 65.9434 99.2C66.5301 99.2 67.0768 99.0533 67.5834 98.76C68.0901 98.4667 68.4968 98.04 68.8034 97.48C69.1234 96.9067 69.2834 96.24 69.2834 95.48ZM75.7381 88.52C75.3248 88.52 74.9781 88.38 74.6981 88.1C74.4181 87.82 74.2781 87.4733 74.2781 87.06C74.2781 86.6467 74.4181 86.3 74.6981 86.02C74.9781 85.74 75.3248 85.6 75.7381 85.6C76.1381 85.6 76.4781 85.74 76.7581 86.02C77.0381 86.3 77.1781 86.6467 77.1781 87.06C77.1781 87.4733 77.0381 87.82 76.7581 88.1C76.4781 88.38 76.1381 88.52 75.7381 88.52ZM76.8581 89.98V101H74.5781V89.98H76.8581ZM79.0916 95.48C79.0916 94.3467 79.3182 93.3533 79.7716 92.5C80.2382 91.6333 80.8782 90.9667 81.6916 90.5C82.5049 90.0333 83.4382 89.8 84.4916 89.8C85.8249 89.8 86.9249 90.12 87.7916 90.76C88.6716 91.3867 89.2649 92.2867 89.5716 93.46H87.1116C86.9116 92.9133 86.5916 92.4867 86.1516 92.18C85.7116 91.8733 85.1582 91.72 84.4916 91.72C83.5582 91.72 82.8116 92.0533 82.2516 92.72C81.7049 93.3733 81.4316 94.2933 81.4316 95.48C81.4316 96.6667 81.7049 97.5933 82.2516 98.26C82.8116 98.9267 83.5582 99.26 84.4916 99.26C85.8116 99.26 86.6849 98.68 87.1116 97.52H89.5716C89.2516 98.64 88.6516 99.5333 87.7716 100.2C86.8916 100.853 85.7982 101.18 84.4916 101.18C83.4382 101.18 82.5049 100.947 81.6916 100.48C80.8782 100 80.2382 99.3333 79.7716 98.48C79.3182 97.6133 79.0916 96.6133 79.0916 95.48ZM91.0838 95.44C91.0838 94.3333 91.3104 93.3533 91.7638 92.5C92.2304 91.6467 92.8571 90.9867 93.6438 90.52C94.4438 90.04 95.3238 89.8 96.2838 89.8C97.1504 89.8 97.9038 89.9733 98.5438 90.32C99.1971 90.6533 99.7171 91.0733 100.104 91.58V89.98H102.404V101H100.104V99.36C99.7171 99.88 99.1904 100.313 98.5238 100.66C97.8571 101.007 97.0971 101.18 96.2438 101.18C95.2971 101.18 94.4304 100.94 93.6438 100.46C92.8571 99.9667 92.2304 99.2867 91.7638 98.42C91.3104 97.54 91.0838 96.5467 91.0838 95.44ZM100.104 95.48C100.104 94.72 99.9438 94.06 99.6238 93.5C99.3171 92.94 98.9104 92.5133 98.4038 92.22C97.8971 91.9267 97.3504 91.78 96.7638 91.78C96.1771 91.78 95.6304 91.9267 95.1238 92.22C94.6171 92.5 94.2038 92.92 93.8838 93.48C93.5771 94.0267 93.4238 94.68 93.4238 95.44C93.4238 96.2 93.5771 96.8667 93.8838 97.44C94.2038 98.0133 94.6171 98.4533 95.1238 98.76C95.6438 99.0533 96.1904 99.2 96.7638 99.2C97.3504 99.2 97.8971 99.0533 98.4038 98.76C98.9104 98.4667 99.3171 98.04 99.6238 97.48C99.9438 96.9067 100.104 96.24 100.104 95.48ZM108.058 91.84V97.94C108.058 98.3533 108.152 98.6533 108.338 98.84C108.538 99.0133 108.872 99.1 109.338 99.1H110.738V101H108.938C107.912 101 107.125 100.76 106.578 100.28C106.032 99.8 105.758 99.02 105.758 97.94V91.84H104.458V89.98H105.758V87.24H108.058V89.98H110.738V91.84H108.058ZM122.94 95.22C122.94 95.6333 122.913 96.0067 122.86 96.34H114.44C114.507 97.22 114.833 97.9267 115.42 98.46C116.007 98.9933 116.727 99.26 117.58 99.26C118.807 99.26 119.673 98.7467 120.18 97.72H122.64C122.307 98.7333 121.7 99.5667 120.82 100.22C119.953 100.86 118.873 101.18 117.58 101.18C116.527 101.18 115.58 100.947 114.74 100.48C113.913 100 113.26 99.3333 112.78 98.48C112.313 97.6133 112.08 96.6133 112.08 95.48C112.08 94.3467 112.307 93.3533 112.76 92.5C113.227 91.6333 113.873 90.9667 114.7 90.5C115.54 90.0333 116.5 89.8 117.58 89.8C118.62 89.8 119.547 90.0267 120.36 90.48C121.173 90.9333 121.807 91.5733 122.26 92.4C122.713 93.2133 122.94 94.1533 122.94 95.22ZM120.56 94.5C120.547 93.66 120.247 92.9867 119.66 92.48C119.073 91.9733 118.347 91.72 117.48 91.72C116.693 91.72 116.02 91.9733 115.46 92.48C114.9 92.9733 114.567 93.6467 114.46 94.5H120.56ZM124.424 95.44C124.424 94.3333 124.65 93.3533 125.104 92.5C125.57 91.6467 126.197 90.9867 126.984 90.52C127.784 90.04 128.67 89.8 129.644 89.8C130.364 89.8 131.07 89.96 131.764 90.28C132.47 90.5867 133.03 91 133.444 91.52V86.2H135.744V101H133.444V99.34C133.07 99.8733 132.55 100.313 131.884 100.66C131.23 101.007 130.477 101.18 129.624 101.18C128.664 101.18 127.784 100.94 126.984 100.46C126.197 99.9667 125.57 99.2867 125.104 98.42C124.65 97.54 124.424 96.5467 124.424 95.44ZM133.444 95.48C133.444 94.72 133.284 94.06 132.964 93.5C132.657 92.94 132.25 92.5133 131.744 92.22C131.237 91.9267 130.69 91.78 130.104 91.78C129.517 91.78 128.97 91.9267 128.464 92.22C127.957 92.5 127.544 92.92 127.224 93.48C126.917 94.0267 126.764 94.68 126.764 95.44C126.764 96.2 126.917 96.8667 127.224 97.44C127.544 98.0133 127.957 98.4533 128.464 98.76C128.984 99.0533 129.53 99.2 130.104 99.2C130.69 99.2 131.237 99.0533 131.744 98.76C132.25 98.4667 132.657 98.04 132.964 97.48C133.284 96.9067 133.444 96.24 133.444 95.48ZM147.934 101.18C147.067 101.18 146.287 101.027 145.594 100.72C144.914 100.4 144.374 99.9733 143.974 99.44C143.574 98.8933 143.36 98.2867 143.334 97.62H145.694C145.734 98.0867 145.954 98.48 146.354 98.8C146.767 99.1067 147.28 99.26 147.894 99.26C148.534 99.26 149.027 99.14 149.374 98.9C149.734 98.6467 149.914 98.3267 149.914 97.94C149.914 97.5267 149.714 97.22 149.314 97.02C148.927 96.82 148.307 96.6 147.454 96.36C146.627 96.1333 145.954 95.9133 145.434 95.7C144.914 95.4867 144.46 95.16 144.074 94.72C143.7 94.28 143.514 93.7 143.514 92.98C143.514 92.3933 143.687 91.86 144.034 91.38C144.38 90.8867 144.874 90.5 145.514 90.22C146.167 89.94 146.914 89.8 147.754 89.8C149.007 89.8 150.014 90.12 150.774 90.76C151.547 91.3867 151.96 92.2467 152.014 93.34H149.734C149.694 92.8467 149.494 92.4533 149.134 92.16C148.774 91.8667 148.287 91.72 147.674 91.72C147.074 91.72 146.614 91.8333 146.294 92.06C145.974 92.2867 145.814 92.5867 145.814 92.96C145.814 93.2533 145.92 93.5 146.134 93.7C146.347 93.9 146.607 94.06 146.914 94.18C147.22 94.2867 147.674 94.4267 148.274 94.6C149.074 94.8133 149.727 95.0333 150.234 95.26C150.754 95.4733 151.2 95.7933 151.574 96.22C151.947 96.6467 152.14 97.2133 152.154 97.92C152.154 98.5467 151.98 99.1067 151.634 99.6C151.287 100.093 150.794 100.48 150.154 100.76C149.527 101.04 148.787 101.18 147.934 101.18ZM164.597 89.98V101H162.317V99.7C161.957 100.153 161.484 100.513 160.897 100.78C160.324 101.033 159.711 101.16 159.057 101.16C158.191 101.16 157.411 100.98 156.717 100.62C156.037 100.26 155.497 99.7267 155.097 99.02C154.711 98.3133 154.517 97.46 154.517 96.46V89.98H156.777V96.12C156.777 97.1067 157.024 97.8667 157.517 98.4C158.011 98.92 158.684 99.18 159.537 99.18C160.391 99.18 161.064 98.92 161.557 98.4C162.064 97.8667 162.317 97.1067 162.317 96.12V89.98H164.597ZM169.885 91.6C170.272 91.0933 170.799 90.6667 171.465 90.32C172.132 89.9733 172.885 89.8 173.725 89.8C174.685 89.8 175.559 90.04 176.345 90.52C177.145 90.9867 177.772 91.6467 178.225 92.5C178.679 93.3533 178.905 94.3333 178.905 95.44C178.905 96.5467 178.679 97.54 178.225 98.42C177.772 99.2867 177.145 99.9667 176.345 100.46C175.559 100.94 174.685 101.18 173.725 101.18C172.885 101.18 172.139 101.013 171.485 100.68C170.832 100.333 170.299 99.9067 169.885 99.4V106.24H167.605V89.98H169.885V91.6ZM176.585 95.44C176.585 94.68 176.425 94.0267 176.105 93.48C175.799 92.92 175.385 92.5 174.865 92.22C174.359 91.9267 173.812 91.78 173.225 91.78C172.652 91.78 172.105 91.9267 171.585 92.22C171.079 92.5133 170.665 92.94 170.345 93.5C170.039 94.06 169.885 94.72 169.885 95.48C169.885 96.24 170.039 96.9067 170.345 97.48C170.665 98.04 171.079 98.4667 171.585 98.76C172.105 99.0533 172.652 99.2 173.225 99.2C173.812 99.2 174.359 99.0533 174.865 98.76C175.385 98.4533 175.799 98.0133 176.105 97.44C176.425 96.8667 176.585 96.2 176.585 95.44ZM183.44 91.6C183.827 91.0933 184.353 90.6667 185.02 90.32C185.687 89.9733 186.44 89.8 187.28 89.8C188.24 89.8 189.113 90.04 189.9 90.52C190.7 90.9867 191.327 91.6467 191.78 92.5C192.233 93.3533 192.46 94.3333 192.46 95.44C192.46 96.5467 192.233 97.54 191.78 98.42C191.327 99.2867 190.7 99.9667 189.9 100.46C189.113 100.94 188.24 101.18 187.28 101.18C186.44 101.18 185.693 101.013 185.04 100.68C184.387 100.333 183.853 99.9067 183.44 99.4V106.24H181.16V89.98H183.44V91.6ZM190.14 95.44C190.14 94.68 189.98 94.0267 189.66 93.48C189.353 92.92 188.94 92.5 188.42 92.22C187.913 91.9267 187.367 91.78 186.78 91.78C186.207 91.78 185.66 91.9267 185.14 92.22C184.633 92.5133 184.22 92.94 183.9 93.5C183.593 94.06 183.44 94.72 183.44 95.48C183.44 96.24 183.593 96.9067 183.9 97.48C184.22 98.04 184.633 98.4667 185.14 98.76C185.66 99.0533 186.207 99.2 186.78 99.2C187.367 99.2 187.913 99.0533 188.42 98.76C188.94 98.4533 189.353 98.0133 189.66 97.44C189.98 96.8667 190.14 96.2 190.14 95.44ZM199.495 101.18C198.455 101.18 197.515 100.947 196.675 100.48C195.835 100 195.175 99.3333 194.695 98.48C194.215 97.6133 193.975 96.6133 193.975 95.48C193.975 94.36 194.222 93.3667 194.715 92.5C195.208 91.6333 195.882 90.9667 196.735 90.5C197.588 90.0333 198.542 89.8 199.595 89.8C200.648 89.8 201.602 90.0333 202.455 90.5C203.308 90.9667 203.982 91.6333 204.475 92.5C204.968 93.3667 205.215 94.36 205.215 95.48C205.215 96.6 204.962 97.5933 204.455 98.46C203.948 99.3267 203.255 100 202.375 100.48C201.508 100.947 200.548 101.18 199.495 101.18ZM199.495 99.2C200.082 99.2 200.628 99.06 201.135 98.78C201.655 98.5 202.075 98.08 202.395 97.52C202.715 96.96 202.875 96.28 202.875 95.48C202.875 94.68 202.722 94.0067 202.415 93.46C202.108 92.9 201.702 92.48 201.195 92.2C200.688 91.92 200.142 91.78 199.555 91.78C198.968 91.78 198.422 91.92 197.915 92.2C197.422 92.48 197.028 92.9 196.735 93.46C196.442 94.0067 196.295 94.68 196.295 95.48C196.295 96.6667 196.595 97.5867 197.195 98.24C197.808 98.88 198.575 99.2 199.495 99.2ZM209.749 91.58C210.082 91.02 210.522 90.5867 211.069 90.28C211.629 89.96 212.289 89.8 213.049 89.8V92.16H212.469C211.575 92.16 210.895 92.3867 210.429 92.84C209.975 93.2933 209.749 94.08 209.749 95.2V101H207.469V89.98H209.749V91.58ZM217.805 91.84V97.94C217.805 98.3533 217.898 98.6533 218.085 98.84C218.285 99.0133 218.618 99.1 219.085 99.1H220.485V101H218.685C217.658 101 216.871 100.76 216.325 100.28C215.778 99.8 215.505 99.02 215.505 97.94V91.84H214.205V89.98H215.505V87.24H217.805V89.98H220.485V91.84H217.805ZM36.78 123.58C37.1133 123.02 37.5533 122.587 38.1 122.28C38.66 121.96 39.32 121.8 40.08 121.8V124.16H39.5C38.6067 124.16 37.9267 124.387 37.46 124.84C37.0067 125.293 36.78 126.08 36.78 127.2V133H34.5V121.98H36.78V123.58ZM46.9558 133.18C45.9158 133.18 44.9758 132.947 44.1358 132.48C43.2958 132 42.6358 131.333 42.1558 130.48C41.6758 129.613 41.4358 128.613 41.4358 127.48C41.4358 126.36 41.6824 125.367 42.1758 124.5C42.6691 123.633 43.3424 122.967 44.1958 122.5C45.0491 122.033 46.0024 121.8 47.0558 121.8C48.1091 121.8 49.0624 122.033 49.9158 122.5C50.7691 122.967 51.4424 123.633 51.9358 124.5C52.4291 125.367 52.6758 126.36 52.6758 127.48C52.6758 128.6 52.4224 129.593 51.9158 130.46C51.4091 131.327 50.7158 132 49.8358 132.48C48.9691 132.947 48.0091 133.18 46.9558 133.18ZM46.9558 131.2C47.5424 131.2 48.0891 131.06 48.5958 130.78C49.1158 130.5 49.5358 130.08 49.8558 129.52C50.1758 128.96 50.3358 128.28 50.3358 127.48C50.3358 126.68 50.1824 126.007 49.8758 125.46C49.5691 124.9 49.1624 124.48 48.6558 124.2C48.1491 123.92 47.6024 123.78 47.0158 123.78C46.4291 123.78 45.8824 123.92 45.3758 124.2C44.8824 124.48 44.4891 124.9 44.1958 125.46C43.9024 126.007 43.7558 126.68 43.7558 127.48C43.7558 128.667 44.0558 129.587 44.6558 130.24C45.2691 130.88 46.0358 131.2 46.9558 131.2ZM64.9097 121.98V133H62.6297V131.7C62.2697 132.153 61.7964 132.513 61.2097 132.78C60.6364 133.033 60.023 133.16 59.3697 133.16C58.503 133.16 57.723 132.98 57.0297 132.62C56.3497 132.26 55.8097 131.727 55.4097 131.02C55.023 130.313 54.8297 129.46 54.8297 128.46V121.98H57.0897V128.12C57.0897 129.107 57.3364 129.867 57.8297 130.4C58.323 130.92 58.9964 131.18 59.8497 131.18C60.703 131.18 61.3764 130.92 61.8697 130.4C62.3764 129.867 62.6297 129.107 62.6297 128.12V121.98H64.9097ZM73.478 121.8C74.3446 121.8 75.118 121.98 75.798 122.34C76.4913 122.7 77.0313 123.233 77.418 123.94C77.8046 124.647 77.998 125.5 77.998 126.5V133H75.738V126.84C75.738 125.853 75.4913 125.1 74.998 124.58C74.5046 124.047 73.8313 123.78 72.978 123.78C72.1246 123.78 71.4446 124.047 70.938 124.58C70.4446 125.1 70.198 125.853 70.198 126.84V133H67.918V121.98H70.198V123.24C70.5713 122.787 71.0446 122.433 71.618 122.18C72.2046 121.927 72.8246 121.8 73.478 121.8ZM80.1463 127.44C80.1463 126.333 80.3729 125.353 80.8263 124.5C81.2929 123.647 81.9196 122.987 82.7063 122.52C83.5063 122.04 84.3929 121.8 85.3663 121.8C86.0863 121.8 86.7929 121.96 87.4863 122.28C88.1929 122.587 88.7529 123 89.1663 123.52V118.2H91.4663V133H89.1663V131.34C88.7929 131.873 88.2729 132.313 87.6063 132.66C86.9529 133.007 86.1996 133.18 85.3463 133.18C84.3863 133.18 83.5063 132.94 82.7063 132.46C81.9196 131.967 81.2929 131.287 80.8263 130.42C80.3729 129.54 80.1463 128.547 80.1463 127.44ZM89.1663 127.48C89.1663 126.72 89.0063 126.06 88.6863 125.5C88.3796 124.94 87.9729 124.513 87.4663 124.22C86.9596 123.927 86.4129 123.78 85.8263 123.78C85.2396 123.78 84.6929 123.927 84.1863 124.22C83.6796 124.5 83.2663 124.92 82.9463 125.48C82.6396 126.027 82.4863 126.68 82.4863 127.44C82.4863 128.2 82.6396 128.867 82.9463 129.44C83.2663 130.013 83.6796 130.453 84.1863 130.76C84.7063 131.053 85.2529 131.2 85.8263 131.2C86.4129 131.2 86.9596 131.053 87.4663 130.76C87.9729 130.467 88.3796 130.04 88.6863 129.48C89.0063 128.907 89.1663 128.24 89.1663 127.48ZM102.921 124.8V126.72H94.7009V124.8H102.921ZM108.82 123.84V129.94C108.82 130.353 108.913 130.653 109.1 130.84C109.3 131.013 109.633 131.1 110.1 131.1H111.5V133H109.7C108.673 133 107.887 132.76 107.34 132.28C106.793 131.8 106.52 131.02 106.52 129.94V123.84H105.22V121.98H106.52V119.24H108.82V121.98H111.5V123.84H108.82ZM119.302 121.8C120.142 121.8 120.888 121.98 121.542 122.34C122.208 122.7 122.728 123.233 123.102 123.94C123.488 124.647 123.682 125.5 123.682 126.5V133H121.422V126.84C121.422 125.853 121.175 125.1 120.682 124.58C120.188 124.047 119.515 123.78 118.662 123.78C117.808 123.78 117.128 124.047 116.622 124.58C116.128 125.1 115.882 125.853 115.882 126.84V133H113.602V118.2H115.882V123.26C116.268 122.793 116.755 122.433 117.342 122.18C117.942 121.927 118.595 121.8 119.302 121.8ZM136.69 127.22C136.69 127.633 136.663 128.007 136.61 128.34H128.19C128.257 129.22 128.583 129.927 129.17 130.46C129.757 130.993 130.477 131.26 131.33 131.26C132.557 131.26 133.423 130.747 133.93 129.72H136.39C136.057 130.733 135.45 131.567 134.57 132.22C133.703 132.86 132.623 133.18 131.33 133.18C130.277 133.18 129.33 132.947 128.49 132.48C127.663 132 127.01 131.333 126.53 130.48C126.063 129.613 125.83 128.613 125.83 127.48C125.83 126.347 126.057 125.353 126.51 124.5C126.977 123.633 127.623 122.967 128.45 122.5C129.29 122.033 130.25 121.8 131.33 121.8C132.37 121.8 133.297 122.027 134.11 122.48C134.923 122.933 135.557 123.573 136.01 124.4C136.463 125.213 136.69 126.153 136.69 127.22ZM134.31 126.5C134.297 125.66 133.997 124.987 133.41 124.48C132.823 123.973 132.097 123.72 131.23 123.72C130.443 123.72 129.77 123.973 129.21 124.48C128.65 124.973 128.317 125.647 128.21 126.5H134.31ZM147.394 124.8V126.72H139.174V124.8H147.394ZM149.873 127.48C149.873 126.347 150.099 125.353 150.553 124.5C151.019 123.633 151.659 122.967 152.473 122.5C153.286 122.033 154.219 121.8 155.273 121.8C156.606 121.8 157.706 122.12 158.573 122.76C159.453 123.387 160.046 124.287 160.353 125.46H157.893C157.693 124.913 157.373 124.487 156.933 124.18C156.493 123.873 155.939 123.72 155.273 123.72C154.339 123.72 153.593 124.053 153.033 124.72C152.486 125.373 152.213 126.293 152.213 127.48C152.213 128.667 152.486 129.593 153.033 130.26C153.593 130.927 154.339 131.26 155.273 131.26C156.593 131.26 157.466 130.68 157.893 129.52H160.353C160.033 130.64 159.433 131.533 158.553 132.2C157.673 132.853 156.579 133.18 155.273 133.18C154.219 133.18 153.286 132.947 152.473 132.48C151.659 132 151.019 131.333 150.553 130.48C150.099 129.613 149.873 128.613 149.873 127.48ZM164.905 118.2V133H162.625V118.2H164.905ZM172.678 133.18C171.638 133.18 170.698 132.947 169.858 132.48C169.018 132 168.358 131.333 167.878 130.48C167.398 129.613 167.158 128.613 167.158 127.48C167.158 126.36 167.405 125.367 167.898 124.5C168.392 123.633 169.065 122.967 169.918 122.5C170.772 122.033 171.725 121.8 172.778 121.8C173.832 121.8 174.785 122.033 175.638 122.5C176.492 122.967 177.165 123.633 177.658 124.5C178.152 125.367 178.398 126.36 178.398 127.48C178.398 128.6 178.145 129.593 177.638 130.46C177.132 131.327 176.438 132 175.558 132.48C174.692 132.947 173.732 133.18 172.678 133.18ZM172.678 131.2C173.265 131.2 173.812 131.06 174.318 130.78C174.838 130.5 175.258 130.08 175.578 129.52C175.898 128.96 176.058 128.28 176.058 127.48C176.058 126.68 175.905 126.007 175.598 125.46C175.292 124.9 174.885 124.48 174.378 124.2C173.872 123.92 173.325 123.78 172.738 123.78C172.152 123.78 171.605 123.92 171.098 124.2C170.605 124.48 170.212 124.9 169.918 125.46C169.625 126.007 169.478 126.68 169.478 127.48C169.478 128.667 169.778 129.587 170.378 130.24C170.992 130.88 171.758 131.2 172.678 131.2ZM179.892 127.48C179.892 126.347 180.119 125.353 180.572 124.5C181.039 123.633 181.679 122.967 182.492 122.5C183.306 122.033 184.239 121.8 185.292 121.8C186.626 121.8 187.726 122.12 188.592 122.76C189.472 123.387 190.066 124.287 190.372 125.46H187.912C187.712 124.913 187.392 124.487 186.952 124.18C186.512 123.873 185.959 123.72 185.292 123.72C184.359 123.72 183.612 124.053 183.052 124.72C182.506 125.373 182.232 126.293 182.232 127.48C182.232 128.667 182.506 129.593 183.052 130.26C183.612 130.927 184.359 131.26 185.292 131.26C186.612 131.26 187.486 130.68 187.912 129.52H190.372C190.052 130.64 189.452 131.533 188.572 132.2C187.692 132.853 186.599 133.18 185.292 133.18C184.239 133.18 183.306 132.947 182.492 132.48C181.679 132 181.039 131.333 180.572 130.48C180.119 129.613 179.892 128.613 179.892 127.48ZM197.005 127.5L202.085 133H199.005L194.925 128.26V133H192.645V118.2H194.925V126.8L198.925 121.98H202.085L197.005 127.5Z" fill="#444444"/>
<path d="M40.8 40.152C42.576 40.152 44.128 40.504 45.456 41.208C46.784 41.912 47.808 42.904 48.528 44.184C49.264 45.448 49.632 46.912 49.632 48.576C49.632 50.224 49.264 51.688 48.528 52.968C47.808 54.248 46.776 55.24 45.432 55.944C44.104 56.648 42.56 57 40.8 57H34.488V40.152H40.8ZM40.536 53.448C42.088 53.448 43.296 53.024 44.16 52.176C45.024 51.328 45.456 50.128 45.456 48.576C45.456 47.024 45.024 45.816 44.16 44.952C43.296 44.088 42.088 43.656 40.536 43.656H38.592V53.448H40.536ZM64.5495 50.088C64.5495 50.472 64.5255 50.872 64.4775 51.288H55.1895C55.2535 52.12 55.5175 52.76 55.9815 53.208C56.4615 53.64 57.0455 53.856 57.7335 53.856C58.7575 53.856 59.4695 53.424 59.8695 52.56H64.2375C64.0135 53.44 63.6055 54.232 63.0135 54.936C62.4375 55.64 61.7095 56.192 60.8295 56.592C59.9495 56.992 58.9655 57.192 57.8775 57.192C56.5655 57.192 55.3975 56.912 54.3735 56.352C53.3495 55.792 52.5495 54.992 51.9735 53.952C51.3975 52.912 51.1095 51.696 51.1095 50.304C51.1095 48.912 51.3895 47.696 51.9495 46.656C52.5255 45.616 53.3255 44.816 54.3495 44.256C55.3735 43.696 56.5495 43.416 57.8775 43.416C59.1735 43.416 60.3255 43.688 61.3335 44.232C62.3415 44.776 63.1255 45.552 63.6855 46.56C64.2615 47.568 64.5495 48.744 64.5495 50.088ZM60.3495 49.008C60.3495 48.304 60.1095 47.744 59.6295 47.328C59.1495 46.912 58.5495 46.704 57.8295 46.704C57.1415 46.704 56.5575 46.904 56.0775 47.304C55.6135 47.704 55.3255 48.272 55.2135 49.008H60.3495ZM65.8986 50.28C65.8986 48.904 66.1546 47.696 66.6666 46.656C67.1946 45.616 67.9066 44.816 68.8026 44.256C69.6986 43.696 70.6986 43.416 71.8026 43.416C72.6826 43.416 73.4826 43.6 74.2026 43.968C74.9386 44.336 75.5146 44.832 75.9306 45.456V39.24H80.0346V57H75.9306V55.08C75.5466 55.72 74.9946 56.232 74.2746 56.616C73.5706 57 72.7466 57.192 71.8026 57.192C70.6986 57.192 69.6986 56.912 68.8026 56.352C67.9066 55.776 67.1946 54.968 66.6666 53.928C66.1546 52.872 65.8986 51.656 65.8986 50.28ZM75.9306 50.304C75.9306 49.28 75.6426 48.472 75.0666 47.88C74.5066 47.288 73.8186 46.992 73.0026 46.992C72.1866 46.992 71.4906 47.288 70.9146 47.88C70.3546 48.456 70.0746 49.256 70.0746 50.28C70.0746 51.304 70.3546 52.12 70.9146 52.728C71.4906 53.32 72.1866 53.616 73.0026 53.616C73.8186 53.616 74.5066 53.32 75.0666 52.728C75.6426 52.136 75.9306 51.328 75.9306 50.304ZM85.0676 42.216C84.3476 42.216 83.7556 42.008 83.2916 41.592C82.8436 41.16 82.6196 40.632 82.6196 40.008C82.6196 39.368 82.8436 38.84 83.2916 38.424C83.7556 37.992 84.3476 37.776 85.0676 37.776C85.7716 37.776 86.3476 37.992 86.7956 38.424C87.2596 38.84 87.4916 39.368 87.4916 40.008C87.4916 40.632 87.2596 41.16 86.7956 41.592C86.3476 42.008 85.7716 42.216 85.0676 42.216ZM87.1076 43.608V57H83.0036V43.608H87.1076ZM89.2658 50.304C89.2658 48.912 89.5458 47.696 90.1058 46.656C90.6818 45.616 91.4738 44.816 92.4818 44.256C93.5058 43.696 94.6738 43.416 95.9858 43.416C97.6658 43.416 99.0658 43.856 100.186 44.736C101.322 45.616 102.066 46.856 102.418 48.456H98.0498C97.6818 47.432 96.9698 46.92 95.9138 46.92C95.1618 46.92 94.5618 47.216 94.1138 47.808C93.6658 48.384 93.4418 49.216 93.4418 50.304C93.4418 51.392 93.6658 52.232 94.1138 52.824C94.5618 53.4 95.1618 53.688 95.9138 53.688C96.9698 53.688 97.6818 53.176 98.0498 52.152H102.418C102.066 53.72 101.322 54.952 100.186 55.848C99.0498 56.744 97.6498 57.192 95.9858 57.192C94.6738 57.192 93.5058 56.912 92.4818 56.352C91.4738 55.792 90.6818 54.992 90.1058 53.952C89.5458 52.912 89.2658 51.696 89.2658 50.304ZM103.797 50.28C103.797 48.904 104.053 47.696 104.565 46.656C105.093 45.616 105.805 44.816 106.701 44.256C107.597 43.696 108.597 43.416 109.701 43.416C110.645 43.416 111.469 43.608 112.173 43.992C112.893 44.376 113.445 44.88 113.829 45.504V43.608H117.933V57H113.829V55.104C113.429 55.728 112.869 56.232 112.149 56.616C111.445 57 110.621 57.192 109.677 57.192C108.589 57.192 107.597 56.912 106.701 56.352C105.805 55.776 105.093 54.968 104.565 53.928C104.053 52.872 103.797 51.656 103.797 50.28ZM113.829 50.304C113.829 49.28 113.541 48.472 112.965 47.88C112.405 47.288 111.717 46.992 110.901 46.992C110.085 46.992 109.389 47.288 108.813 47.88C108.253 48.456 107.973 49.256 107.973 50.28C107.973 51.304 108.253 52.12 108.813 52.728C109.389 53.32 110.085 53.616 110.901 53.616C111.717 53.616 112.405 53.32 112.965 52.728C113.541 52.136 113.829 51.328 113.829 50.304ZM128.366 53.52V57H126.278C124.79 57 123.63 56.64 122.798 55.92C121.966 55.184 121.55 53.992 121.55 52.344V47.016H119.918V43.608H121.55V40.344H125.654V43.608H128.342V47.016H125.654V52.392C125.654 52.792 125.75 53.08 125.942 53.256C126.134 53.432 126.454 53.52 126.902 53.52H128.366ZM143.276 50.088C143.276 50.472 143.252 50.872 143.204 51.288H133.916C133.98 52.12 134.244 52.76 134.708 53.208C135.188 53.64 135.772 53.856 136.46 53.856C137.484 53.856 138.196 53.424 138.596 52.56H142.964C142.74 53.44 142.332 54.232 141.74 54.936C141.164 55.64 140.436 56.192 139.556 56.592C138.676 56.992 137.692 57.192 136.604 57.192C135.292 57.192 134.124 56.912 133.1 56.352C132.076 55.792 131.276 54.992 130.7 53.952C130.124 52.912 129.836 51.696 129.836 50.304C129.836 48.912 130.116 47.696 130.676 46.656C131.252 45.616 132.052 44.816 133.076 44.256C134.1 43.696 135.276 43.416 136.604 43.416C137.9 43.416 139.052 43.688 140.06 44.232C141.068 44.776 141.852 45.552 142.412 46.56C142.988 47.568 143.276 48.744 143.276 50.088ZM139.076 49.008C139.076 48.304 138.836 47.744 138.356 47.328C137.876 46.912 137.276 46.704 136.556 46.704C135.868 46.704 135.284 46.904 134.804 47.304C134.34 47.704 134.052 48.272 133.94 49.008H139.076ZM144.625 50.28C144.625 48.904 144.881 47.696 145.393 46.656C145.921 45.616 146.633 44.816 147.529 44.256C148.425 43.696 149.425 43.416 150.529 43.416C151.409 43.416 152.209 43.6 152.929 43.968C153.665 44.336 154.241 44.832 154.657 45.456V39.24H158.761V57H154.657V55.08C154.273 55.72 153.721 56.232 153.001 56.616C152.297 57 151.473 57.192 150.529 57.192C149.425 57.192 148.425 56.912 147.529 56.352C146.633 55.776 145.921 54.968 145.393 53.928C144.881 52.872 144.625 51.656 144.625 50.28ZM154.657 50.304C154.657 49.28 154.369 48.472 153.793 47.88C153.233 47.288 152.545 46.992 151.729 46.992C150.913 46.992 150.217 47.288 149.641 47.88C149.081 48.456 148.801 49.256 148.801 50.28C148.801 51.304 149.081 52.12 149.641 52.728C150.217 53.32 150.913 53.616 151.729 53.616C152.545 53.616 153.233 53.32 153.793 52.728C154.369 52.136 154.657 51.328 154.657 50.304ZM172.912 57.168C171.68 57.168 170.576 56.968 169.6 56.568C168.624 56.168 167.84 55.576 167.248 54.792C166.672 54.008 166.368 53.064 166.336 51.96H170.704C170.768 52.584 170.984 53.064 171.352 53.4C171.72 53.72 172.2 53.88 172.792 53.88C173.4 53.88 173.88 53.744 174.232 53.472C174.584 53.184 174.76 52.792 174.76 52.296C174.76 51.88 174.616 51.536 174.328 51.264C174.056 50.992 173.712 50.768 173.296 50.592C172.896 50.416 172.32 50.216 171.568 49.992C170.48 49.656 169.592 49.32 168.904 48.984C168.216 48.648 167.624 48.152 167.128 47.496C166.632 46.84 166.384 45.984 166.384 44.928C166.384 43.36 166.952 42.136 168.088 41.256C169.224 40.36 170.704 39.912 172.528 39.912C174.384 39.912 175.88 40.36 177.016 41.256C178.152 42.136 178.76 43.368 178.84 44.952H174.4C174.368 44.408 174.168 43.984 173.8 43.68C173.432 43.36 172.96 43.2 172.384 43.2C171.888 43.2 171.488 43.336 171.184 43.608C170.88 43.864 170.728 44.24 170.728 44.736C170.728 45.28 170.984 45.704 171.496 46.008C172.008 46.312 172.808 46.64 173.896 46.992C174.984 47.36 175.864 47.712 176.536 48.048C177.224 48.384 177.816 48.872 178.312 49.512C178.808 50.152 179.056 50.976 179.056 51.984C179.056 52.944 178.808 53.816 178.312 54.6C177.832 55.384 177.128 56.008 176.2 56.472C175.272 56.936 174.176 57.168 172.912 57.168ZM194.806 43.608V57H190.702V55.176C190.286 55.768 189.718 56.248 188.998 56.616C188.294 56.968 187.51 57.144 186.646 57.144C185.622 57.144 184.718 56.92 183.934 56.472C183.15 56.008 182.542 55.344 182.11 54.48C181.678 53.616 181.462 52.6 181.462 51.432V43.608H185.542V50.88C185.542 51.776 185.774 52.472 186.238 52.968C186.702 53.464 187.326 53.712 188.11 53.712C188.91 53.712 189.542 53.464 190.006 52.968C190.47 52.472 190.702 51.776 190.702 50.88V43.608H194.806ZM201.858 45.504C202.258 44.88 202.81 44.376 203.514 43.992C204.218 43.608 205.042 43.416 205.986 43.416C207.09 43.416 208.09 43.696 208.986 44.256C209.882 44.816 210.586 45.616 211.098 46.656C211.626 47.696 211.89 48.904 211.89 50.28C211.89 51.656 211.626 52.872 211.098 53.928C210.586 54.968 209.882 55.776 208.986 56.352C208.09 56.912 207.09 57.192 205.986 57.192C205.058 57.192 204.234 57 203.514 56.616C202.81 56.232 202.258 55.736 201.858 55.128V63.384H197.754V43.608H201.858V45.504ZM207.714 50.28C207.714 49.256 207.426 48.456 206.85 47.88C206.29 47.288 205.594 46.992 204.762 46.992C203.946 46.992 203.25 47.288 202.674 47.88C202.114 48.472 201.834 49.28 201.834 50.304C201.834 51.328 202.114 52.136 202.674 52.728C203.25 53.32 203.946 53.616 204.762 53.616C205.578 53.616 206.274 53.32 206.85 52.728C207.426 52.12 207.714 51.304 207.714 50.28ZM218.147 45.504C218.547 44.88 219.099 44.376 219.803 43.992C220.507 43.608 221.331 43.416 222.275 43.416C223.379 43.416 224.379 43.696 225.275 44.256C226.171 44.816 226.875 45.616 227.387 46.656C227.915 47.696 228.179 48.904 228.179 50.28C228.179 51.656 227.915 52.872 227.387 53.928C226.875 54.968 226.171 55.776 225.275 56.352C224.379 56.912 223.379 57.192 222.275 57.192C221.347 57.192 220.523 57 219.803 56.616C219.099 56.232 218.547 55.736 218.147 55.128V63.384H214.043V43.608H218.147V45.504ZM224.003 50.28C224.003 49.256 223.715 48.456 223.139 47.88C222.579 47.288 221.883 46.992 221.051 46.992C220.235 46.992 219.539 47.288 218.963 47.88C218.403 48.472 218.123 49.28 218.123 50.304C218.123 51.328 218.403 52.136 218.963 52.728C219.539 53.32 220.235 53.616 221.051 53.616C221.867 53.616 222.563 53.32 223.139 52.728C223.715 52.12 224.003 51.304 224.003 50.28ZM236.428 57.192C235.116 57.192 233.932 56.912 232.876 56.352C231.836 55.792 231.012 54.992 230.404 53.952C229.812 52.912 229.516 51.696 229.516 50.304C229.516 48.928 229.82 47.72 230.428 46.68C231.036 45.624 231.868 44.816 232.924 44.256C233.98 43.696 235.164 43.416 236.476 43.416C237.788 43.416 238.972 43.696 240.028 44.256C241.084 44.816 241.916 45.624 242.524 46.68C243.132 47.72 243.436 48.928 243.436 50.304C243.436 51.68 243.124 52.896 242.5 53.952C241.892 54.992 241.052 55.792 239.98 56.352C238.924 56.912 237.74 57.192 236.428 57.192ZM236.428 53.64C237.212 53.64 237.876 53.352 238.42 52.776C238.98 52.2 239.26 51.376 239.26 50.304C239.26 49.232 238.988 48.408 238.444 47.832C237.916 47.256 237.26 46.968 236.476 46.968C235.676 46.968 235.012 47.256 234.484 47.832C233.956 48.392 233.692 49.216 233.692 50.304C233.692 51.376 233.948 52.2 234.46 52.776C234.988 53.352 235.644 53.64 236.428 53.64ZM249.717 45.84C250.197 45.104 250.797 44.528 251.517 44.112C252.237 43.68 253.037 43.464 253.917 43.464V47.808H252.789C251.765 47.808 250.997 48.032 250.485 48.48C249.973 48.912 249.717 49.68 249.717 50.784V57H245.613V43.608H249.717V45.84ZM263.343 53.52V57H261.255C259.767 57 258.607 56.64 257.775 55.92C256.943 55.184 256.527 53.992 256.527 52.344V47.016H254.895V43.608H256.527V40.344H260.631V43.608H263.319V47.016H260.631V52.392C260.631 52.792 260.727 53.08 260.919 53.256C261.111 53.432 261.431 53.52 261.879 53.52H263.343Z" fill="#444444"/>
<rect x="210" y="210" width="70" height="70" rx="16" fill="#EF6C0D"/>
<path d="M226.838 244.75C226.838 241.31 227.498 238.6 228.818 236.62C230.158 234.64 232.308 233.65 235.268 233.65C238.228 233.65 240.368 234.64 241.688 236.62C243.028 238.6 243.698 241.31 243.698 244.75C243.698 248.23 243.028 250.96 241.688 252.94C240.368 254.92 238.228 255.91 235.268 255.91C232.308 255.91 230.158 254.92 228.818 252.94C227.498 250.96 226.838 248.23 226.838 244.75ZM238.658 244.75C238.658 242.73 238.438 241.18 237.998 240.1C237.558 239 236.648 238.45 235.268 238.45C233.888 238.45 232.978 239 232.538 240.1C232.098 241.18 231.878 242.73 231.878 244.75C231.878 246.11 231.958 247.24 232.118 248.14C232.278 249.02 232.598 249.74 233.078 250.3C233.578 250.84 234.308 251.11 235.268 251.11C236.228 251.11 236.948 250.84 237.428 250.3C237.928 249.74 238.258 249.02 238.418 248.14C238.578 247.24 238.658 246.11 238.658 244.75ZM250.009 244.24C248.129 243.24 247.189 241.67 247.189 239.53C247.189 238.45 247.469 237.47 248.029 236.59C248.589 235.69 249.439 234.98 250.579 234.46C251.719 233.92 253.119 233.65 254.779 233.65C256.439 233.65 257.829 233.92 258.949 234.46C260.089 234.98 260.939 235.69 261.499 236.59C262.059 237.47 262.339 238.45 262.339 239.53C262.339 240.61 262.079 241.55 261.559 242.35C261.059 243.15 260.379 243.78 259.519 244.24C260.599 244.76 261.429 245.48 262.009 246.4C262.589 247.3 262.879 248.36 262.879 249.58C262.879 251 262.519 252.23 261.799 253.27C261.079 254.29 260.099 255.07 258.859 255.61C257.639 256.15 256.279 256.42 254.779 256.42C253.279 256.42 251.909 256.15 250.669 255.61C249.449 255.07 248.479 254.29 247.759 253.27C247.039 252.23 246.679 251 246.679 249.58C246.679 248.34 246.969 247.27 247.549 246.37C248.129 245.45 248.949 244.74 250.009 244.24ZM257.359 240.31C257.359 239.49 257.119 238.86 256.639 238.42C256.179 237.96 255.559 237.73 254.779 237.73C253.999 237.73 253.369 237.96 252.889 238.42C252.429 238.88 252.199 239.52 252.199 240.34C252.199 241.12 252.439 241.74 252.919 242.2C253.399 242.64 254.019 242.86 254.779 242.86C255.539 242.86 256.159 242.63 256.639 242.17C257.119 241.71 257.359 241.09 257.359 240.31ZM254.779 246.46C253.839 246.46 253.079 246.72 252.499 247.24C251.919 247.74 251.629 248.44 251.629 249.34C251.629 250.18 251.909 250.87 252.469 251.41C253.049 251.95 253.819 252.22 254.779 252.22C255.739 252.22 256.489 251.95 257.029 251.41C257.589 250.87 257.869 250.18 257.869 249.34C257.869 248.46 257.579 247.76 256.999 247.24C256.439 246.72 255.699 246.46 254.779 246.46Z" fill="white"/>
</svg>
