<svg width="70" height="58" viewBox="0 0 70 58" fill="none" xmlns="http://www.w3.org/2000/svg">
<path d="M46.1374 1.33938H0.853659C0.627255 1.33938 0.410123 1.42904 0.250031 1.58864C0.0899389 1.74824 0 1.96471 0 2.19042V56.7355C0 56.9612 0.0899389 57.1777 0.250031 57.3373C0.410123 57.4969 0.627255 57.5865 0.853659 57.5865H46.1374C46.3638 57.5865 46.581 57.4969 46.7411 57.3373C46.9012 57.1777 46.9911 56.9612 46.9911 56.7355V2.19042C46.9911 1.96471 46.9012 1.74824 46.7411 1.58864C46.581 1.42904 46.3638 1.33938 46.1374 1.33938ZM1.70732 3.04145H15.0945V55.8845H1.70732V3.04145ZM16.8019 3.04145H30.1892V55.8845H16.8019V3.04145ZM45.2838 55.8845H31.8965V3.04145H45.2838V55.8845Z" fill="white"/>
<path d="M63.883 0.756012C63.8576 0.531766 63.7439 0.326752 63.567 0.18599C63.39 0.0452292 63.1643 -0.0197727 62.9393 0.00525838L47.9392 1.68591C47.8278 1.69839 47.72 1.73263 47.6218 1.78667C47.5237 1.84071 47.4372 1.91349 47.3673 2.00085C47.2974 2.08822 47.2454 2.18846 47.2144 2.29584C47.1833 2.40323 47.1738 2.51566 47.1863 2.62672L53.2979 56.8306C53.3104 56.9416 53.3448 57.0492 53.399 57.147C53.4532 57.2448 53.5262 57.3311 53.6138 57.4008C53.7014 57.4705 53.802 57.5223 53.9097 57.5533C54.0174 57.5843 54.1302 57.5938 54.2416 57.5813L69.2417 55.9007C69.3531 55.8882 69.461 55.8539 69.5591 55.7999C69.6572 55.7459 69.7437 55.6731 69.8136 55.5857C69.8836 55.4983 69.9355 55.3981 69.9666 55.2907C69.9976 55.1833 70.0072 55.0709 69.9947 54.9598L63.883 0.756012ZM54.8993 55.7948L48.9783 3.2823L62.2811 1.79186L68.2021 54.3043L54.8993 55.7948Z" fill="white"/>
<path d="M8.401 8.8628C7.48584 8.86283 6.59124 9.1334 5.83033 9.64029C5.06942 10.1472 4.47638 10.8676 4.12619 11.7105C3.776 12.5534 3.68439 13.4809 3.86296 14.3758C4.04153 15.2706 4.48224 16.0925 5.12938 16.7376C5.77651 17.3827 6.601 17.822 7.49857 18C8.39615 18.1779 9.32651 18.0865 10.172 17.7374C11.0175 17.3882 11.7401 16.7969 12.2485 16.0383C12.7569 15.2797 13.0283 14.3879 13.0283 13.4755C13.0268 12.2526 12.5388 11.0801 11.6714 10.2153C10.8039 9.35056 9.62776 8.86415 8.401 8.8628ZM8.401 16.3864C7.82352 16.3863 7.25902 16.2156 6.77888 15.8957C6.29874 15.5759 5.92453 15.1212 5.70356 14.5894C5.48259 14.0575 5.42479 13.4722 5.53746 12.9076C5.65014 12.3429 5.92824 11.8243 6.33658 11.4172C6.74493 11.0102 7.26519 10.733 7.83157 10.6206C8.39795 10.5083 8.98502 10.566 9.51853 10.7863C10.052 11.0066 10.508 11.3797 10.8289 11.8584C11.1497 12.3371 11.3209 12.8998 11.3209 13.4755C11.32 14.2473 11.0121 14.9872 10.4647 15.5329C9.9173 16.0785 9.17512 16.3855 8.401 16.3864Z" fill="white"/>
<path d="M23.4956 8.8628C22.5804 8.86283 21.6858 9.1334 20.9249 9.64029C20.164 10.1472 19.571 10.8676 19.2208 11.7105C18.8706 12.5534 18.779 13.4809 18.9575 14.3758C19.1361 15.2706 19.5768 16.0925 20.224 16.7376C20.8711 17.3827 21.6956 17.822 22.5932 18C23.4907 18.1779 24.4211 18.0865 25.2666 17.7374C26.1121 17.3882 26.8347 16.7969 27.3431 16.0383C27.8515 15.2797 28.1229 14.3879 28.1228 13.4755C28.1214 12.2526 27.6334 11.0801 26.7659 10.2153C25.8985 9.35056 24.7223 8.86415 23.4956 8.8628ZM23.4956 16.3864C22.9181 16.3863 22.3536 16.2156 21.8735 15.8957C21.3933 15.5759 21.0191 15.1212 20.7981 14.5894C20.5772 14.0575 20.5194 13.4722 20.632 12.9076C20.7447 12.3429 21.0228 11.8243 21.4312 11.4172C21.8395 11.0102 22.3598 10.733 22.9262 10.6206C23.4925 10.5083 24.0796 10.566 24.6131 10.7863C25.1466 11.0066 25.6026 11.3797 25.9235 11.8584C26.2443 12.3371 26.4155 12.8998 26.4155 13.4755C26.4147 14.2473 26.1067 14.9872 25.5593 15.5329C25.0119 16.0786 24.2697 16.3855 23.4956 16.3864Z" fill="white"/>
<path d="M38.5901 18.0884C39.5053 18.0884 40.3998 17.8178 41.1608 17.311C41.9217 16.8041 42.5147 16.0836 42.8649 15.2407C43.2151 14.3978 43.3067 13.4703 43.1281 12.5755C42.9496 11.6807 42.5089 10.8588 41.8618 10.2137C41.2147 9.56859 40.3902 9.12927 39.4926 8.95129C38.595 8.77332 37.6647 8.86467 36.8192 9.21382C35.9737 9.56296 35.2511 10.1542 34.7426 10.9128C34.2342 11.6714 33.9628 12.5632 33.9628 13.4755C33.9643 14.6985 34.4523 15.871 35.3197 16.7358C36.1872 17.6006 37.3633 18.087 38.5901 18.0884ZM38.5901 10.5649C39.1676 10.5649 39.7321 10.7356 40.2122 11.0555C40.6924 11.3754 41.0666 11.83 41.2876 12.3619C41.5085 12.8938 41.5663 13.4791 41.4536 14.0437C41.3409 14.6083 41.0628 15.127 40.6545 15.534C40.2461 15.9411 39.7258 16.2183 39.1594 16.3306C38.5931 16.4429 38.006 16.3852 37.4725 16.1649C36.939 15.9445 36.483 15.5714 36.1622 15.0927C35.8414 14.614 35.6701 14.0513 35.6702 13.4755C35.6711 12.7038 35.979 11.964 36.5265 11.4183C37.0738 10.8727 37.816 10.5657 38.5901 10.5649Z" fill="white"/>
<path d="M56.7036 8.8628C55.7885 8.86286 54.8939 9.13345 54.133 9.64036C53.3721 10.1473 52.7791 10.8677 52.4289 11.7106C52.0787 12.5535 51.9871 13.481 52.1657 14.3758C52.3443 15.2706 52.785 16.0925 53.4322 16.7376C54.0793 17.3827 54.9038 17.822 55.8014 18C56.6989 18.1779 57.6293 18.0865 58.4748 17.7374C59.3202 17.3882 60.0429 16.7969 60.5513 16.0383C61.0597 15.2797 61.331 14.3879 61.331 13.4755C61.3296 12.2525 60.8416 11.08 59.9741 10.2153C59.1066 9.35051 57.9304 8.86412 56.7036 8.8628ZM56.7036 16.3864C56.1261 16.3863 55.5616 16.2155 55.0815 15.8957C54.6014 15.5758 54.2272 15.1212 54.0063 14.5893C53.7853 14.0574 53.7275 13.4721 53.8402 12.9075C53.9529 12.3429 54.231 11.8242 54.6394 11.4172C55.0477 11.0101 55.568 10.7329 56.1344 10.6206C56.7007 10.5083 57.2878 10.566 57.8213 10.7863C58.3548 11.0066 58.8108 11.3797 59.1316 11.8584C59.4525 12.3371 59.6237 12.8998 59.6237 13.4755C59.6228 14.2473 59.3148 14.9872 58.7674 15.5329C58.22 16.0786 57.4778 16.3855 56.7036 16.3864Z" fill="white"/>
<path d="M10.7291 29.5592C10.5027 29.5592 10.2856 29.6488 10.1255 29.8084C9.96537 29.968 9.87543 30.1845 9.87543 30.4102V44.9345C9.87543 45.1602 9.96537 45.3767 10.1255 45.5363C10.2856 45.6959 10.5027 45.7855 10.7291 45.7855C10.9555 45.7855 11.1726 45.6959 11.3327 45.5363C11.4928 45.3767 11.5827 45.1602 11.5827 44.9345V30.4102C11.5827 30.1845 11.4928 29.968 11.3327 29.8084C11.1726 29.6488 10.9555 29.5592 10.7291 29.5592Z" fill="white"/>
<path d="M6.07275 29.5592C5.84634 29.5592 5.62921 29.6488 5.46912 29.8084C5.30903 29.968 5.21909 30.1845 5.21909 30.4102V44.9345C5.21909 45.1602 5.30903 45.3767 5.46912 45.5363C5.62921 45.6959 5.84634 45.7855 6.07275 45.7855C6.29915 45.7855 6.51628 45.6959 6.67637 45.5363C6.83647 45.3767 6.9264 45.1602 6.9264 44.9345V30.4102C6.9264 30.1845 6.83647 29.968 6.67637 29.8084C6.51628 29.6488 6.29915 29.5592 6.07275 29.5592Z" fill="white"/>
<path d="M25.8232 29.5592C25.5968 29.5592 25.3797 29.6488 25.2196 29.8084C25.0595 29.968 24.9695 30.1845 24.9695 30.4102V44.9345C24.9695 45.1602 25.0595 45.3767 25.2196 45.5363C25.3797 45.6959 25.5968 45.7855 25.8232 45.7855C26.0496 45.7855 26.2667 45.6959 26.4268 45.5363C26.5869 45.3767 26.6768 45.1602 26.6768 44.9345V30.4102C26.6768 30.1845 26.5869 29.968 26.4268 29.8084C26.2667 29.6488 26.0496 29.5592 25.8232 29.5592Z" fill="white"/>
<path d="M21.1673 29.5592C20.9409 29.5592 20.7238 29.6488 20.5637 29.8084C20.4036 29.968 20.3137 30.1845 20.3137 30.4102V44.9345C20.3137 45.1602 20.4036 45.3767 20.5637 45.5363C20.7238 45.6959 20.9409 45.7855 21.1673 45.7855C21.3937 45.7855 21.6109 45.6959 21.771 45.5363C21.9311 45.3767 22.021 45.1602 22.021 44.9345V30.4102C22.021 30.1845 21.9311 29.968 21.771 29.8084C21.6109 29.6488 21.3937 29.5592 21.1673 29.5592Z" fill="white"/>
<path d="M40.9187 29.5592C40.6923 29.5592 40.4752 29.6488 40.3151 29.8084C40.155 29.968 40.0651 30.1845 40.0651 30.4102V44.9345C40.0651 45.1602 40.155 45.3767 40.3151 45.5363C40.4752 45.6959 40.6923 45.7855 40.9187 45.7855C41.1451 45.7855 41.3623 45.6959 41.5224 45.5363C41.6824 45.3767 41.7724 45.1602 41.7724 44.9345V30.4102C41.7724 30.1845 41.6824 29.968 41.5224 29.8084C41.3623 29.6488 41.1451 29.5592 40.9187 29.5592Z" fill="white"/>
<path d="M36.262 29.5592C36.0356 29.5592 35.8185 29.6488 35.6584 29.8084C35.4983 29.968 35.4084 30.1845 35.4084 30.4102V44.9345C35.4084 45.1602 35.4983 45.3767 35.6584 45.5363C35.8185 45.6959 36.0356 45.7855 36.262 45.7855C36.4885 45.7855 36.7056 45.6959 36.8657 45.5363C37.0258 45.3767 37.1157 45.1602 37.1157 44.9345V30.4102C37.1157 30.1845 37.0258 29.968 36.8657 29.8084C36.7056 29.6488 36.4885 29.5592 36.262 29.5592Z" fill="white"/>
<path d="M61.1955 29.371C60.9702 29.3931 60.7629 29.5036 60.6193 29.678C60.4757 29.8525 60.4075 30.0767 60.4296 30.3013L61.8589 44.7558C61.8797 44.9659 61.978 45.1608 62.1348 45.3026C62.2916 45.4445 62.4957 45.5232 62.7075 45.5234C62.736 45.5235 62.7645 45.5221 62.7928 45.5192C63.0181 45.497 63.2254 45.3866 63.369 45.2121C63.5126 45.0376 63.5808 44.8135 63.5586 44.5889L62.1287 30.1342C62.118 30.0229 62.0854 29.9148 62.0326 29.8161C61.9799 29.7174 61.9081 29.63 61.8213 29.5591C61.7346 29.4882 61.6347 29.435 61.5273 29.4027C61.4199 29.3705 61.3071 29.3597 61.1955 29.371Z" fill="white"/>
<path d="M57.4949 30.5895C57.4722 30.3653 57.3612 30.1593 57.1862 30.0166C57.0113 29.8739 56.7868 29.8062 56.5618 29.8283C56.3369 29.8504 56.1299 29.9606 55.9864 30.1346C55.8428 30.3086 55.7743 30.5323 55.7959 30.7566L57.225 45.2111C57.2458 45.4211 57.3442 45.616 57.501 45.7578C57.6578 45.8996 57.8619 45.9783 58.0736 45.9786C58.1021 45.9787 58.1306 45.9773 58.1589 45.9745C58.3843 45.9523 58.5915 45.8419 58.7351 45.6674C58.8788 45.493 58.947 45.2688 58.9248 45.0441L57.4949 30.5895Z" fill="white"/>
</svg>
