<svg width="50" height="50" viewBox="0 0 50 50" fill="none" xmlns="http://www.w3.org/2000/svg">
<circle cx="25" cy="25" r="24" fill="#444444"/>
<circle cx="25" cy="25" r="24" fill="white" fill-opacity="0.8"/>
<path d="M25 1.5C25 0.671573 25.6722 -0.0046903 26.4991 0.0449838C30.1242 0.262743 33.6648 1.26822 36.8714 2.99842C40.5188 4.96646 43.6198 7.81042 45.8952 11.2744C48.1706 14.7384 49.5491 18.7138 49.9068 22.8428C50.2644 26.9719 49.5898 31.1251 47.9439 34.9287C46.2979 38.7323 43.7321 42.0671 40.4774 44.6329C37.2226 47.1988 33.381 48.9152 29.2982 49.6277C25.2154 50.3403 21.0196 50.0266 17.0881 48.715C13.6317 47.5619 10.4751 45.6692 7.83481 43.1757C7.23252 42.6069 7.26534 41.654 7.86924 41.0869C8.47314 40.5198 9.41909 40.5538 10.026 41.1177C12.3225 43.2512 15.053 44.8735 18.0375 45.8692C21.4972 47.0234 25.1896 47.2995 28.7824 46.6724C32.3753 46.0453 35.7559 44.5349 38.6201 42.277C41.4842 40.019 43.7421 37.0844 45.1906 33.7373C46.6391 30.3901 47.2326 26.7353 46.9179 23.1017C46.6032 19.4681 45.3901 15.9698 43.3878 12.9215C41.3854 9.87317 38.6566 7.37048 35.4468 5.63861C32.678 4.14463 29.6262 3.26467 26.4989 3.05111C25.6724 2.99468 25 2.32843 25 1.5Z" fill="#444444"/>
<circle cx="25" cy="25" r="22" fill="#444444"/>
<circle cx="25" cy="25" r="22" fill="white" fill-opacity="0.95"/>
<path d="M27 19L21 25L27 31" stroke="#444444" stroke-width="2.5" stroke-linecap="round" stroke-linejoin="round"/>
</svg>
