<svg width="691" height="374" viewBox="0 0 691 374" fill="none" xmlns="http://www.w3.org/2000/svg">
<rect width="691" height="374" rx="30" fill="white"/>
<path d="M48.144 42.456V62H44.224V53.684H35.852V62H31.932V42.456H35.852V50.492H44.224V42.456H48.144ZM53.9903 44.64C53.2996 44.64 52.721 44.4253 52.2543 43.996C51.8063 43.548 51.5823 42.9973 51.5823 42.344C51.5823 41.6907 51.8063 41.1493 52.2543 40.72C52.721 40.272 53.2996 40.048 53.9903 40.048C54.681 40.048 55.2503 40.272 55.6983 40.72C56.165 41.1493 56.3983 41.6907 56.3983 42.344C56.3983 42.9973 56.165 43.548 55.6983 43.996C55.2503 44.4253 54.681 44.64 53.9903 44.64ZM55.9223 46.488V62H52.0023V46.488H55.9223ZM64.3593 49.708V57.212C64.3593 57.7347 64.4806 58.1173 64.7233 58.36C64.9846 58.584 65.4139 58.696 66.0113 58.696H67.8313V62H65.3673C62.0633 62 60.4113 60.3947 60.4113 57.184V49.708H58.5633V46.488H60.4113V42.652H64.3593V46.488H67.8313V49.708H64.3593ZM81.1866 42.456V54.552C81.1866 55.8773 81.532 56.8947 82.2226 57.604C82.9133 58.2947 83.884 58.64 85.1346 58.64C86.404 58.64 87.384 58.2947 88.0746 57.604C88.7653 56.8947 89.1106 55.8773 89.1106 54.552V42.456H93.0586V54.524C93.0586 56.1853 92.6946 57.5947 91.9666 58.752C91.2573 59.8907 90.296 60.7493 89.0826 61.328C87.888 61.9067 86.5533 62.196 85.0786 62.196C83.6226 62.196 82.2973 61.9067 81.1026 61.328C79.9266 60.7493 78.9933 59.8907 78.3026 58.752C77.612 57.5947 77.2666 56.1853 77.2666 54.524V42.456H81.1866ZM102.782 62.252C101.513 62.252 100.374 62.028 99.3661 61.58C98.3581 61.1133 97.5554 60.488 96.9581 59.704C96.3794 58.92 96.0621 58.052 96.0061 57.1H99.9541C100.029 57.6973 100.318 58.192 100.822 58.584C101.345 58.976 101.989 59.172 102.754 59.172C103.501 59.172 104.079 59.0227 104.49 58.724C104.919 58.4253 105.134 58.0427 105.134 57.576C105.134 57.072 104.873 56.6987 104.35 56.456C103.846 56.1947 103.034 55.9147 101.914 55.616C100.757 55.336 99.8047 55.0467 99.0581 54.748C98.3301 54.4493 97.6954 53.992 97.1541 53.376C96.6314 52.76 96.3701 51.9293 96.3701 50.884C96.3701 50.0253 96.6127 49.2413 97.0981 48.532C97.6021 47.8227 98.3114 47.2627 99.2261 46.852C100.159 46.4413 101.251 46.236 102.502 46.236C104.35 46.236 105.825 46.7027 106.926 47.636C108.027 48.5507 108.634 49.792 108.746 51.36H104.994C104.938 50.744 104.677 50.2587 104.21 49.904C103.762 49.5307 103.155 49.344 102.39 49.344C101.681 49.344 101.13 49.4747 100.738 49.736C100.365 49.9973 100.178 50.3613 100.178 50.828C100.178 51.3507 100.439 51.752 100.962 52.032C101.485 52.2933 102.297 52.564 103.398 52.844C104.518 53.124 105.442 53.4133 106.17 53.712C106.898 54.0107 107.523 54.4773 108.046 55.112C108.587 55.728 108.867 56.5493 108.886 57.576C108.886 58.472 108.634 59.2747 108.13 59.984C107.645 60.6933 106.935 61.2533 106.002 61.664C105.087 62.056 104.014 62.252 102.782 62.252ZM122.64 42.456V54.552C122.64 55.8773 122.985 56.8947 123.676 57.604C124.366 58.2947 125.337 58.64 126.588 58.64C127.857 58.64 128.837 58.2947 129.528 57.604C130.218 56.8947 130.564 55.8773 130.564 54.552V42.456H134.512V54.524C134.512 56.1853 134.148 57.5947 133.42 58.752C132.71 59.8907 131.749 60.7493 130.536 61.328C129.341 61.9067 128.006 62.196 126.532 62.196C125.076 62.196 123.75 61.9067 122.556 61.328C121.38 60.7493 120.446 59.8907 119.756 58.752C119.065 57.5947 118.72 56.1853 118.72 54.524V42.456H122.64ZM142.219 48.728C142.723 48.0187 143.414 47.4307 144.291 46.964C145.187 46.4787 146.205 46.236 147.343 46.236C148.669 46.236 149.863 46.5627 150.927 47.216C152.01 47.8693 152.859 48.8027 153.475 50.016C154.11 51.2107 154.427 52.6013 154.427 54.188C154.427 55.7747 154.11 57.184 153.475 58.416C152.859 59.6293 152.01 60.572 150.927 61.244C149.863 61.916 148.669 62.252 147.343 62.252C146.205 62.252 145.197 62.0187 144.319 61.552C143.461 61.0853 142.761 60.4973 142.219 59.788V69.392H138.299V46.488H142.219V48.728ZM150.423 54.188C150.423 53.2547 150.227 52.452 149.835 51.78C149.462 51.0893 148.958 50.5667 148.323 50.212C147.707 49.8573 147.035 49.68 146.307 49.68C145.598 49.68 144.926 49.8667 144.291 50.24C143.675 50.5947 143.171 51.1173 142.779 51.808C142.406 52.4987 142.219 53.3107 142.219 54.244C142.219 55.1773 142.406 55.9893 142.779 56.68C143.171 57.3707 143.675 57.9027 144.291 58.276C144.926 58.6307 145.598 58.808 146.307 58.808C147.035 58.808 147.707 58.6213 148.323 58.248C148.958 57.8747 149.462 57.3427 149.835 56.652C150.227 55.9613 150.423 55.14 150.423 54.188ZM162.344 42.12L161.896 55.644H158.592L158.116 42.12H162.344ZM160.328 62.196C159.618 62.196 159.03 61.9813 158.564 61.552C158.116 61.104 157.892 60.5533 157.892 59.9C157.892 59.2467 158.116 58.7053 158.564 58.276C159.03 57.828 159.618 57.604 160.328 57.604C161.018 57.604 161.588 57.828 162.036 58.276C162.484 58.7053 162.708 59.2467 162.708 59.9C162.708 60.5533 162.484 61.104 162.036 61.552C161.588 61.9813 161.018 62.196 160.328 62.196Z" fill="#444444"/>
<rect x="30" y="94" width="630" height="50" rx="10" fill="white"/>
<rect x="30" y="94" width="630" height="50" rx="10" fill="black" fill-opacity="0.1"/>
<path d="M61.25 125H59.612L53.024 115.01V125H51.386V112.436H53.024L59.612 122.408V112.436H61.25V125ZM63.4303 120.032C63.4303 119.024 63.6343 118.142 64.0423 117.386C64.4503 116.618 65.0083 116.024 65.7163 115.604C66.4363 115.184 67.2343 114.974 68.1103 114.974C68.9743 114.974 69.7243 115.16 70.3603 115.532C70.9963 115.904 71.4703 116.372 71.7823 116.936V115.136H73.4383V125H71.7823V123.164C71.4583 123.74 70.9723 124.22 70.3243 124.604C69.6883 124.976 68.9443 125.162 68.0923 125.162C67.2163 125.162 66.4243 124.946 65.7163 124.514C65.0083 124.082 64.4503 123.476 64.0423 122.696C63.6343 121.916 63.4303 121.028 63.4303 120.032ZM71.7823 120.05C71.7823 119.306 71.6323 118.658 71.3323 118.106C71.0323 117.554 70.6243 117.134 70.1083 116.846C69.6043 116.546 69.0463 116.396 68.4343 116.396C67.8223 116.396 67.2643 116.54 66.7603 116.828C66.2563 117.116 65.8543 117.536 65.5543 118.088C65.2543 118.64 65.1043 119.288 65.1043 120.032C65.1043 120.788 65.2543 121.448 65.5543 122.012C65.8543 122.564 66.2563 122.99 66.7603 123.29C67.2643 123.578 67.8223 123.722 68.4343 123.722C69.0463 123.722 69.6043 123.578 70.1083 123.29C70.6243 122.99 71.0323 122.564 71.3323 122.012C71.6323 121.448 71.7823 120.794 71.7823 120.05ZM88.0683 114.956C88.8363 114.956 89.5203 115.118 90.1203 115.442C90.7203 115.754 91.1943 116.228 91.5423 116.864C91.8903 117.5 92.0643 118.274 92.0643 119.186V125H90.4443V119.42C90.4443 118.436 90.1983 117.686 89.7063 117.17C89.2263 116.642 88.5723 116.378 87.7443 116.378C86.8923 116.378 86.2143 116.654 85.7103 117.206C85.2063 117.746 84.9543 118.532 84.9543 119.564V125H83.3343V119.42C83.3343 118.436 83.0883 117.686 82.5963 117.17C82.1163 116.642 81.4623 116.378 80.6343 116.378C79.7823 116.378 79.1043 116.654 78.6003 117.206C78.0963 117.746 77.8443 118.532 77.8443 119.564V125H76.2063V115.136H77.8443V116.558C78.1683 116.042 78.6003 115.646 79.1403 115.37C79.6923 115.094 80.2983 114.956 80.9583 114.956C81.7863 114.956 82.5183 115.142 83.1543 115.514C83.7903 115.886 84.2643 116.432 84.5763 117.152C84.8523 116.456 85.3083 115.916 85.9443 115.532C86.5803 115.148 87.2883 114.956 88.0683 114.956ZM103.751 119.69C103.751 120.002 103.733 120.332 103.697 120.68H95.8132C95.8732 121.652 96.2032 122.414 96.8032 122.966C97.4152 123.506 98.1532 123.776 99.0172 123.776C99.7252 123.776 100.313 123.614 100.781 123.29C101.261 122.954 101.597 122.51 101.789 121.958H103.553C103.289 122.906 102.761 123.68 101.969 124.28C101.177 124.868 100.193 125.162 99.0172 125.162C98.0812 125.162 97.2412 124.952 96.4972 124.532C95.7652 124.112 95.1892 123.518 94.7692 122.75C94.3492 121.97 94.1392 121.07 94.1392 120.05C94.1392 119.03 94.3432 118.136 94.7512 117.368C95.1592 116.6 95.7292 116.012 96.4612 115.604C97.2052 115.184 98.0572 114.974 99.0172 114.974C99.9532 114.974 100.781 115.178 101.501 115.586C102.221 115.994 102.773 116.558 103.157 117.278C103.553 117.986 103.751 118.79 103.751 119.69ZM102.059 119.348C102.059 118.724 101.921 118.19 101.645 117.746C101.369 117.29 100.991 116.948 100.511 116.72C100.043 116.48 99.5212 116.36 98.9452 116.36C98.1172 116.36 97.4092 116.624 96.8212 117.152C96.2452 117.68 95.9152 118.412 95.8312 119.348H102.059Z" fill="white"/>
<path d="M61.25 125H59.612L53.024 115.01V125H51.386V112.436H53.024L59.612 122.408V112.436H61.25V125ZM63.4303 120.032C63.4303 119.024 63.6343 118.142 64.0423 117.386C64.4503 116.618 65.0083 116.024 65.7163 115.604C66.4363 115.184 67.2343 114.974 68.1103 114.974C68.9743 114.974 69.7243 115.16 70.3603 115.532C70.9963 115.904 71.4703 116.372 71.7823 116.936V115.136H73.4383V125H71.7823V123.164C71.4583 123.74 70.9723 124.22 70.3243 124.604C69.6883 124.976 68.9443 125.162 68.0923 125.162C67.2163 125.162 66.4243 124.946 65.7163 124.514C65.0083 124.082 64.4503 123.476 64.0423 122.696C63.6343 121.916 63.4303 121.028 63.4303 120.032ZM71.7823 120.05C71.7823 119.306 71.6323 118.658 71.3323 118.106C71.0323 117.554 70.6243 117.134 70.1083 116.846C69.6043 116.546 69.0463 116.396 68.4343 116.396C67.8223 116.396 67.2643 116.54 66.7603 116.828C66.2563 117.116 65.8543 117.536 65.5543 118.088C65.2543 118.64 65.1043 119.288 65.1043 120.032C65.1043 120.788 65.2543 121.448 65.5543 122.012C65.8543 122.564 66.2563 122.99 66.7603 123.29C67.2643 123.578 67.8223 123.722 68.4343 123.722C69.0463 123.722 69.6043 123.578 70.1083 123.29C70.6243 122.99 71.0323 122.564 71.3323 122.012C71.6323 121.448 71.7823 120.794 71.7823 120.05ZM88.0683 114.956C88.8363 114.956 89.5203 115.118 90.1203 115.442C90.7203 115.754 91.1943 116.228 91.5423 116.864C91.8903 117.5 92.0643 118.274 92.0643 119.186V125H90.4443V119.42C90.4443 118.436 90.1983 117.686 89.7063 117.17C89.2263 116.642 88.5723 116.378 87.7443 116.378C86.8923 116.378 86.2143 116.654 85.7103 117.206C85.2063 117.746 84.9543 118.532 84.9543 119.564V125H83.3343V119.42C83.3343 118.436 83.0883 117.686 82.5963 117.17C82.1163 116.642 81.4623 116.378 80.6343 116.378C79.7823 116.378 79.1043 116.654 78.6003 117.206C78.0963 117.746 77.8443 118.532 77.8443 119.564V125H76.2063V115.136H77.8443V116.558C78.1683 116.042 78.6003 115.646 79.1403 115.37C79.6923 115.094 80.2983 114.956 80.9583 114.956C81.7863 114.956 82.5183 115.142 83.1543 115.514C83.7903 115.886 84.2643 116.432 84.5763 117.152C84.8523 116.456 85.3083 115.916 85.9443 115.532C86.5803 115.148 87.2883 114.956 88.0683 114.956ZM103.751 119.69C103.751 120.002 103.733 120.332 103.697 120.68H95.8132C95.8732 121.652 96.2032 122.414 96.8032 122.966C97.4152 123.506 98.1532 123.776 99.0172 123.776C99.7252 123.776 100.313 123.614 100.781 123.29C101.261 122.954 101.597 122.51 101.789 121.958H103.553C103.289 122.906 102.761 123.68 101.969 124.28C101.177 124.868 100.193 125.162 99.0172 125.162C98.0812 125.162 97.2412 124.952 96.4972 124.532C95.7652 124.112 95.1892 123.518 94.7692 122.75C94.3492 121.97 94.1392 121.07 94.1392 120.05C94.1392 119.03 94.3432 118.136 94.7512 117.368C95.1592 116.6 95.7292 116.012 96.4612 115.604C97.2052 115.184 98.0572 114.974 99.0172 114.974C99.9532 114.974 100.781 115.178 101.501 115.586C102.221 115.994 102.773 116.558 103.157 117.278C103.553 117.986 103.751 118.79 103.751 119.69ZM102.059 119.348C102.059 118.724 101.921 118.19 101.645 117.746C101.369 117.29 100.991 116.948 100.511 116.72C100.043 116.48 99.5212 116.36 98.9452 116.36C98.1172 116.36 97.4092 116.624 96.8212 117.152C96.2452 117.68 95.9152 118.412 95.8312 119.348H102.059Z" fill="black" fill-opacity="0.4"/>
<rect x="30" y="159" width="305" height="50" rx="10" fill="white"/>
<rect x="30" y="159" width="305" height="50" rx="10" fill="black" fill-opacity="0.1"/>
<path d="M59.774 181.126C59.774 182.17 59.414 183.04 58.694 183.736C57.986 184.42 56.9 184.762 55.436 184.762H53.024V190H51.386V177.454H55.436C56.852 177.454 57.926 177.796 58.658 178.48C59.402 179.164 59.774 180.046 59.774 181.126ZM55.436 183.412C56.348 183.412 57.02 183.214 57.452 182.818C57.884 182.422 58.1 181.858 58.1 181.126C58.1 179.578 57.212 178.804 55.436 178.804H53.024V183.412H55.436ZM66.7058 179.956C67.4498 179.956 68.1218 180.118 68.7218 180.442C69.3218 180.754 69.7898 181.228 70.1258 181.864C70.4738 182.5 70.6478 183.274 70.6478 184.186V190H69.0278V184.42C69.0278 183.436 68.7818 182.686 68.2898 182.17C67.7978 181.642 67.1258 181.378 66.2738 181.378C65.4098 181.378 64.7198 181.648 64.2038 182.188C63.6998 182.728 63.4478 183.514 63.4478 184.546V190H61.8098V176.68H63.4478V181.54C63.7718 181.036 64.2158 180.646 64.7798 180.37C65.3558 180.094 65.9978 179.956 66.7058 179.956ZM77.6255 190.162C76.7015 190.162 75.8615 189.952 75.1055 189.532C74.3615 189.112 73.7735 188.518 73.3415 187.75C72.9215 186.97 72.7115 186.07 72.7115 185.05C72.7115 184.042 72.9275 183.154 73.3595 182.386C73.8035 181.606 74.4035 181.012 75.1595 180.604C75.9155 180.184 76.7615 179.974 77.6975 179.974C78.6335 179.974 79.4795 180.184 80.2355 180.604C80.9915 181.012 81.5855 181.6 82.0175 182.368C82.4615 183.136 82.6835 184.03 82.6835 185.05C82.6835 186.07 82.4555 186.97 81.9995 187.75C81.5555 188.518 80.9495 189.112 80.1815 189.532C79.4135 189.952 78.5615 190.162 77.6255 190.162ZM77.6255 188.722C78.2135 188.722 78.7655 188.584 79.2815 188.308C79.7975 188.032 80.2115 187.618 80.5235 187.066C80.8475 186.514 81.0095 185.842 81.0095 185.05C81.0095 184.258 80.8535 183.586 80.5415 183.034C80.2295 182.482 79.8215 182.074 79.3175 181.81C78.8135 181.534 78.2675 181.396 77.6795 181.396C77.0795 181.396 76.5275 181.534 76.0235 181.81C75.5315 182.074 75.1355 182.482 74.8355 183.034C74.5355 183.586 74.3855 184.258 74.3855 185.05C74.3855 185.854 74.5295 186.532 74.8175 187.084C75.1175 187.636 75.5135 188.05 76.0055 188.326C76.4975 188.59 77.0375 188.722 77.6255 188.722ZM89.6432 179.956C90.8432 179.956 91.8152 180.322 92.5592 181.054C93.3032 181.774 93.6752 182.818 93.6752 184.186V190H92.0552V184.42C92.0552 183.436 91.8092 182.686 91.3172 182.17C90.8252 181.642 90.1532 181.378 89.3012 181.378C88.4372 181.378 87.7472 181.648 87.2312 182.188C86.7272 182.728 86.4752 183.514 86.4752 184.546V190H84.8372V180.136H86.4752V181.54C86.7992 181.036 87.2372 180.646 87.7892 180.37C88.3532 180.094 88.9712 179.956 89.6432 179.956ZM105.351 184.69C105.351 185.002 105.333 185.332 105.297 185.68H97.4128C97.4728 186.652 97.8028 187.414 98.4028 187.966C99.0148 188.506 99.7528 188.776 100.617 188.776C101.325 188.776 101.913 188.614 102.381 188.29C102.861 187.954 103.197 187.51 103.389 186.958H105.153C104.889 187.906 104.361 188.68 103.569 189.28C102.777 189.868 101.793 190.162 100.617 190.162C99.6808 190.162 98.8408 189.952 98.0968 189.532C97.3648 189.112 96.7888 188.518 96.3688 187.75C95.9488 186.97 95.7388 186.07 95.7388 185.05C95.7388 184.03 95.9428 183.136 96.3508 182.368C96.7588 181.6 97.3288 181.012 98.0608 180.604C98.8048 180.184 99.6568 179.974 100.617 179.974C101.553 179.974 102.381 180.178 103.101 180.586C103.821 180.994 104.373 181.558 104.757 182.278C105.153 182.986 105.351 183.79 105.351 184.69ZM103.659 184.348C103.659 183.724 103.521 183.19 103.245 182.746C102.969 182.29 102.591 181.948 102.111 181.72C101.643 181.48 101.121 181.36 100.545 181.36C99.7168 181.36 99.0088 181.624 98.4208 182.152C97.8448 182.68 97.5148 183.412 97.4308 184.348H103.659ZM122.176 190H120.538L113.95 180.01V190H112.312V177.436H113.95L120.538 187.408V177.436H122.176V190ZM133.716 180.136V190H132.078V188.542C131.766 189.046 131.328 189.442 130.764 189.73C130.212 190.006 129.6 190.144 128.928 190.144C128.16 190.144 127.47 189.988 126.858 189.676C126.246 189.352 125.76 188.872 125.4 188.236C125.052 187.6 124.878 186.826 124.878 185.914V180.136H126.498V185.698C126.498 186.67 126.744 187.42 127.236 187.948C127.728 188.464 128.4 188.722 129.252 188.722C130.128 188.722 130.818 188.452 131.322 187.912C131.826 187.372 132.078 186.586 132.078 185.554V180.136H133.716ZM148.344 179.956C149.112 179.956 149.796 180.118 150.396 180.442C150.996 180.754 151.47 181.228 151.818 181.864C152.166 182.5 152.34 183.274 152.34 184.186V190H150.72V184.42C150.72 183.436 150.474 182.686 149.982 182.17C149.502 181.642 148.848 181.378 148.02 181.378C147.168 181.378 146.49 181.654 145.986 182.206C145.482 182.746 145.23 183.532 145.23 184.564V190H143.61V184.42C143.61 183.436 143.364 182.686 142.872 182.17C142.392 181.642 141.738 181.378 140.91 181.378C140.058 181.378 139.38 181.654 138.876 182.206C138.372 182.746 138.12 183.532 138.12 184.564V190H136.482V180.136H138.12V181.558C138.444 181.042 138.876 180.646 139.416 180.37C139.968 180.094 140.574 179.956 141.234 179.956C142.062 179.956 142.794 180.142 143.43 180.514C144.066 180.886 144.54 181.432 144.852 182.152C145.128 181.456 145.584 180.916 146.22 180.532C146.856 180.148 147.564 179.956 148.344 179.956ZM156.665 181.972C157.001 181.384 157.493 180.904 158.141 180.532C158.789 180.16 159.527 179.974 160.355 179.974C161.243 179.974 162.041 180.184 162.749 180.604C163.457 181.024 164.015 181.618 164.423 182.386C164.831 183.142 165.035 184.024 165.035 185.032C165.035 186.028 164.831 186.916 164.423 187.696C164.015 188.476 163.451 189.082 162.731 189.514C162.023 189.946 161.231 190.162 160.355 190.162C159.503 190.162 158.753 189.976 158.105 189.604C157.469 189.232 156.989 188.758 156.665 188.182V190H155.027V176.68H156.665V181.972ZM163.361 185.032C163.361 184.288 163.211 183.64 162.911 183.088C162.611 182.536 162.203 182.116 161.687 181.828C161.183 181.54 160.625 181.396 160.013 181.396C159.413 181.396 158.855 181.546 158.339 181.846C157.835 182.134 157.427 182.56 157.115 183.124C156.815 183.676 156.665 184.318 156.665 185.05C156.665 185.794 156.815 186.448 157.115 187.012C157.427 187.564 157.835 187.99 158.339 188.29C158.855 188.578 159.413 188.722 160.013 188.722C160.625 188.722 161.183 188.578 161.687 188.29C162.203 187.99 162.611 187.564 162.911 187.012C163.211 186.448 163.361 185.788 163.361 185.032ZM176.191 184.69C176.191 185.002 176.173 185.332 176.137 185.68H168.253C168.313 186.652 168.643 187.414 169.243 187.966C169.855 188.506 170.593 188.776 171.457 188.776C172.165 188.776 172.753 188.614 173.221 188.29C173.701 187.954 174.037 187.51 174.229 186.958H175.993C175.729 187.906 175.201 188.68 174.409 189.28C173.617 189.868 172.633 190.162 171.457 190.162C170.521 190.162 169.681 189.952 168.937 189.532C168.205 189.112 167.629 188.518 167.209 187.75C166.789 186.97 166.579 186.07 166.579 185.05C166.579 184.03 166.783 183.136 167.191 182.368C167.599 181.6 168.169 181.012 168.901 180.604C169.645 180.184 170.497 179.974 171.457 179.974C172.393 179.974 173.221 180.178 173.941 180.586C174.661 180.994 175.213 181.558 175.597 182.278C175.993 182.986 176.191 183.79 176.191 184.69ZM174.499 184.348C174.499 183.724 174.361 183.19 174.085 182.746C173.809 182.29 173.431 181.948 172.951 181.72C172.483 181.48 171.961 181.36 171.385 181.36C170.557 181.36 169.849 181.624 169.261 182.152C168.685 182.68 168.355 183.412 168.271 184.348H174.499ZM179.991 181.738C180.279 181.174 180.687 180.736 181.215 180.424C181.755 180.112 182.409 179.956 183.177 179.956V181.648H182.745C180.909 181.648 179.991 182.644 179.991 184.636V190H178.353V180.136H179.991V181.738Z" fill="white"/>
<path d="M59.774 181.126C59.774 182.17 59.414 183.04 58.694 183.736C57.986 184.42 56.9 184.762 55.436 184.762H53.024V190H51.386V177.454H55.436C56.852 177.454 57.926 177.796 58.658 178.48C59.402 179.164 59.774 180.046 59.774 181.126ZM55.436 183.412C56.348 183.412 57.02 183.214 57.452 182.818C57.884 182.422 58.1 181.858 58.1 181.126C58.1 179.578 57.212 178.804 55.436 178.804H53.024V183.412H55.436ZM66.7058 179.956C67.4498 179.956 68.1218 180.118 68.7218 180.442C69.3218 180.754 69.7898 181.228 70.1258 181.864C70.4738 182.5 70.6478 183.274 70.6478 184.186V190H69.0278V184.42C69.0278 183.436 68.7818 182.686 68.2898 182.17C67.7978 181.642 67.1258 181.378 66.2738 181.378C65.4098 181.378 64.7198 181.648 64.2038 182.188C63.6998 182.728 63.4478 183.514 63.4478 184.546V190H61.8098V176.68H63.4478V181.54C63.7718 181.036 64.2158 180.646 64.7798 180.37C65.3558 180.094 65.9978 179.956 66.7058 179.956ZM77.6255 190.162C76.7015 190.162 75.8615 189.952 75.1055 189.532C74.3615 189.112 73.7735 188.518 73.3415 187.75C72.9215 186.97 72.7115 186.07 72.7115 185.05C72.7115 184.042 72.9275 183.154 73.3595 182.386C73.8035 181.606 74.4035 181.012 75.1595 180.604C75.9155 180.184 76.7615 179.974 77.6975 179.974C78.6335 179.974 79.4795 180.184 80.2355 180.604C80.9915 181.012 81.5855 181.6 82.0175 182.368C82.4615 183.136 82.6835 184.03 82.6835 185.05C82.6835 186.07 82.4555 186.97 81.9995 187.75C81.5555 188.518 80.9495 189.112 80.1815 189.532C79.4135 189.952 78.5615 190.162 77.6255 190.162ZM77.6255 188.722C78.2135 188.722 78.7655 188.584 79.2815 188.308C79.7975 188.032 80.2115 187.618 80.5235 187.066C80.8475 186.514 81.0095 185.842 81.0095 185.05C81.0095 184.258 80.8535 183.586 80.5415 183.034C80.2295 182.482 79.8215 182.074 79.3175 181.81C78.8135 181.534 78.2675 181.396 77.6795 181.396C77.0795 181.396 76.5275 181.534 76.0235 181.81C75.5315 182.074 75.1355 182.482 74.8355 183.034C74.5355 183.586 74.3855 184.258 74.3855 185.05C74.3855 185.854 74.5295 186.532 74.8175 187.084C75.1175 187.636 75.5135 188.05 76.0055 188.326C76.4975 188.59 77.0375 188.722 77.6255 188.722ZM89.6432 179.956C90.8432 179.956 91.8152 180.322 92.5592 181.054C93.3032 181.774 93.6752 182.818 93.6752 184.186V190H92.0552V184.42C92.0552 183.436 91.8092 182.686 91.3172 182.17C90.8252 181.642 90.1532 181.378 89.3012 181.378C88.4372 181.378 87.7472 181.648 87.2312 182.188C86.7272 182.728 86.4752 183.514 86.4752 184.546V190H84.8372V180.136H86.4752V181.54C86.7992 181.036 87.2372 180.646 87.7892 180.37C88.3532 180.094 88.9712 179.956 89.6432 179.956ZM105.351 184.69C105.351 185.002 105.333 185.332 105.297 185.68H97.4128C97.4728 186.652 97.8028 187.414 98.4028 187.966C99.0148 188.506 99.7528 188.776 100.617 188.776C101.325 188.776 101.913 188.614 102.381 188.29C102.861 187.954 103.197 187.51 103.389 186.958H105.153C104.889 187.906 104.361 188.68 103.569 189.28C102.777 189.868 101.793 190.162 100.617 190.162C99.6808 190.162 98.8408 189.952 98.0968 189.532C97.3648 189.112 96.7888 188.518 96.3688 187.75C95.9488 186.97 95.7388 186.07 95.7388 185.05C95.7388 184.03 95.9428 183.136 96.3508 182.368C96.7588 181.6 97.3288 181.012 98.0608 180.604C98.8048 180.184 99.6568 179.974 100.617 179.974C101.553 179.974 102.381 180.178 103.101 180.586C103.821 180.994 104.373 181.558 104.757 182.278C105.153 182.986 105.351 183.79 105.351 184.69ZM103.659 184.348C103.659 183.724 103.521 183.19 103.245 182.746C102.969 182.29 102.591 181.948 102.111 181.72C101.643 181.48 101.121 181.36 100.545 181.36C99.7168 181.36 99.0088 181.624 98.4208 182.152C97.8448 182.68 97.5148 183.412 97.4308 184.348H103.659ZM122.176 190H120.538L113.95 180.01V190H112.312V177.436H113.95L120.538 187.408V177.436H122.176V190ZM133.716 180.136V190H132.078V188.542C131.766 189.046 131.328 189.442 130.764 189.73C130.212 190.006 129.6 190.144 128.928 190.144C128.16 190.144 127.47 189.988 126.858 189.676C126.246 189.352 125.76 188.872 125.4 188.236C125.052 187.6 124.878 186.826 124.878 185.914V180.136H126.498V185.698C126.498 186.67 126.744 187.42 127.236 187.948C127.728 188.464 128.4 188.722 129.252 188.722C130.128 188.722 130.818 188.452 131.322 187.912C131.826 187.372 132.078 186.586 132.078 185.554V180.136H133.716ZM148.344 179.956C149.112 179.956 149.796 180.118 150.396 180.442C150.996 180.754 151.47 181.228 151.818 181.864C152.166 182.5 152.34 183.274 152.34 184.186V190H150.72V184.42C150.72 183.436 150.474 182.686 149.982 182.17C149.502 181.642 148.848 181.378 148.02 181.378C147.168 181.378 146.49 181.654 145.986 182.206C145.482 182.746 145.23 183.532 145.23 184.564V190H143.61V184.42C143.61 183.436 143.364 182.686 142.872 182.17C142.392 181.642 141.738 181.378 140.91 181.378C140.058 181.378 139.38 181.654 138.876 182.206C138.372 182.746 138.12 183.532 138.12 184.564V190H136.482V180.136H138.12V181.558C138.444 181.042 138.876 180.646 139.416 180.37C139.968 180.094 140.574 179.956 141.234 179.956C142.062 179.956 142.794 180.142 143.43 180.514C144.066 180.886 144.54 181.432 144.852 182.152C145.128 181.456 145.584 180.916 146.22 180.532C146.856 180.148 147.564 179.956 148.344 179.956ZM156.665 181.972C157.001 181.384 157.493 180.904 158.141 180.532C158.789 180.16 159.527 179.974 160.355 179.974C161.243 179.974 162.041 180.184 162.749 180.604C163.457 181.024 164.015 181.618 164.423 182.386C164.831 183.142 165.035 184.024 165.035 185.032C165.035 186.028 164.831 186.916 164.423 187.696C164.015 188.476 163.451 189.082 162.731 189.514C162.023 189.946 161.231 190.162 160.355 190.162C159.503 190.162 158.753 189.976 158.105 189.604C157.469 189.232 156.989 188.758 156.665 188.182V190H155.027V176.68H156.665V181.972ZM163.361 185.032C163.361 184.288 163.211 183.64 162.911 183.088C162.611 182.536 162.203 182.116 161.687 181.828C161.183 181.54 160.625 181.396 160.013 181.396C159.413 181.396 158.855 181.546 158.339 181.846C157.835 182.134 157.427 182.56 157.115 183.124C156.815 183.676 156.665 184.318 156.665 185.05C156.665 185.794 156.815 186.448 157.115 187.012C157.427 187.564 157.835 187.99 158.339 188.29C158.855 188.578 159.413 188.722 160.013 188.722C160.625 188.722 161.183 188.578 161.687 188.29C162.203 187.99 162.611 187.564 162.911 187.012C163.211 186.448 163.361 185.788 163.361 185.032ZM176.191 184.69C176.191 185.002 176.173 185.332 176.137 185.68H168.253C168.313 186.652 168.643 187.414 169.243 187.966C169.855 188.506 170.593 188.776 171.457 188.776C172.165 188.776 172.753 188.614 173.221 188.29C173.701 187.954 174.037 187.51 174.229 186.958H175.993C175.729 187.906 175.201 188.68 174.409 189.28C173.617 189.868 172.633 190.162 171.457 190.162C170.521 190.162 169.681 189.952 168.937 189.532C168.205 189.112 167.629 188.518 167.209 187.75C166.789 186.97 166.579 186.07 166.579 185.05C166.579 184.03 166.783 183.136 167.191 182.368C167.599 181.6 168.169 181.012 168.901 180.604C169.645 180.184 170.497 179.974 171.457 179.974C172.393 179.974 173.221 180.178 173.941 180.586C174.661 180.994 175.213 181.558 175.597 182.278C175.993 182.986 176.191 183.79 176.191 184.69ZM174.499 184.348C174.499 183.724 174.361 183.19 174.085 182.746C173.809 182.29 173.431 181.948 172.951 181.72C172.483 181.48 171.961 181.36 171.385 181.36C170.557 181.36 169.849 181.624 169.261 182.152C168.685 182.68 168.355 183.412 168.271 184.348H174.499ZM179.991 181.738C180.279 181.174 180.687 180.736 181.215 180.424C181.755 180.112 182.409 179.956 183.177 179.956V181.648H182.745C180.909 181.648 179.991 182.644 179.991 184.636V190H178.353V180.136H179.991V181.738Z" fill="black" fill-opacity="0.4"/>
<rect x="355" y="159" width="305" height="50" rx="10" fill="white"/>
<rect x="355" y="159" width="305" height="50" rx="10" fill="black" fill-opacity="0.1"/>
<path d="M389.112 177.544V190H387.474V180.712L383.334 190H382.182L378.024 180.694V190H376.386V177.544H378.15L382.758 187.84L387.366 177.544H389.112ZM391.278 185.032C391.278 184.024 391.482 183.142 391.89 182.386C392.298 181.618 392.856 181.024 393.564 180.604C394.284 180.184 395.082 179.974 395.958 179.974C396.822 179.974 397.572 180.16 398.208 180.532C398.844 180.904 399.318 181.372 399.63 181.936V180.136H401.286V190H399.63V188.164C399.306 188.74 398.82 189.22 398.172 189.604C397.536 189.976 396.792 190.162 395.94 190.162C395.064 190.162 394.272 189.946 393.564 189.514C392.856 189.082 392.298 188.476 391.89 187.696C391.482 186.916 391.278 186.028 391.278 185.032ZM399.63 185.05C399.63 184.306 399.48 183.658 399.18 183.106C398.88 182.554 398.472 182.134 397.956 181.846C397.452 181.546 396.894 181.396 396.282 181.396C395.67 181.396 395.112 181.54 394.608 181.828C394.104 182.116 393.702 182.536 393.402 183.088C393.102 183.64 392.952 184.288 392.952 185.032C392.952 185.788 393.102 186.448 393.402 187.012C393.702 187.564 394.104 187.99 394.608 188.29C395.112 188.578 395.67 188.722 396.282 188.722C396.894 188.722 397.452 188.578 397.956 188.29C398.472 187.99 398.88 187.564 399.18 187.012C399.48 186.448 399.63 185.794 399.63 185.05ZM404.9 178.534C404.588 178.534 404.324 178.426 404.108 178.21C403.892 177.994 403.784 177.73 403.784 177.418C403.784 177.106 403.892 176.842 404.108 176.626C404.324 176.41 404.588 176.302 404.9 176.302C405.2 176.302 405.452 176.41 405.656 176.626C405.872 176.842 405.98 177.106 405.98 177.418C405.98 177.73 405.872 177.994 405.656 178.21C405.452 178.426 405.2 178.534 404.9 178.534ZM405.692 180.136V190H404.054V180.136H405.692ZM410.122 176.68V190H408.484V176.68H410.122ZM425.128 187.21H419.656L418.648 190H416.92L421.456 177.526H423.346L427.864 190H426.136L425.128 187.21ZM424.66 185.878L422.392 179.542L420.124 185.878H424.66ZM429.229 185.032C429.229 184.024 429.433 183.142 429.841 182.386C430.249 181.618 430.807 181.024 431.515 180.604C432.235 180.184 433.039 179.974 433.927 179.974C434.695 179.974 435.409 180.154 436.069 180.514C436.729 180.862 437.233 181.324 437.581 181.9V176.68H439.237V190H437.581V188.146C437.257 188.734 436.777 189.22 436.141 189.604C435.505 189.976 434.761 190.162 433.909 190.162C433.033 190.162 432.235 189.946 431.515 189.514C430.807 189.082 430.249 188.476 429.841 187.696C429.433 186.916 429.229 186.028 429.229 185.032ZM437.581 185.05C437.581 184.306 437.431 183.658 437.131 183.106C436.831 182.554 436.423 182.134 435.907 181.846C435.403 181.546 434.845 181.396 434.233 181.396C433.621 181.396 433.063 181.54 432.559 181.828C432.055 182.116 431.653 182.536 431.353 183.088C431.053 183.64 430.903 184.288 430.903 185.032C430.903 185.788 431.053 186.448 431.353 187.012C431.653 187.564 432.055 187.99 432.559 188.29C433.063 188.578 433.621 188.722 434.233 188.722C434.845 188.722 435.403 188.578 435.907 188.29C436.423 187.99 436.831 187.564 437.131 187.012C437.431 186.448 437.581 185.794 437.581 185.05ZM441.393 185.032C441.393 184.024 441.597 183.142 442.005 182.386C442.413 181.618 442.971 181.024 443.679 180.604C444.399 180.184 445.203 179.974 446.091 179.974C446.859 179.974 447.573 180.154 448.233 180.514C448.893 180.862 449.397 181.324 449.745 181.9V176.68H451.401V190H449.745V188.146C449.421 188.734 448.941 189.22 448.305 189.604C447.669 189.976 446.925 190.162 446.073 190.162C445.197 190.162 444.399 189.946 443.679 189.514C442.971 189.082 442.413 188.476 442.005 187.696C441.597 186.916 441.393 186.028 441.393 185.032ZM449.745 185.05C449.745 184.306 449.595 183.658 449.295 183.106C448.995 182.554 448.587 182.134 448.071 181.846C447.567 181.546 447.009 181.396 446.397 181.396C445.785 181.396 445.227 181.54 444.723 181.828C444.219 182.116 443.817 182.536 443.517 183.088C443.217 183.64 443.067 184.288 443.067 185.032C443.067 185.788 443.217 186.448 443.517 187.012C443.817 187.564 444.219 187.99 444.723 188.29C445.227 188.578 445.785 188.722 446.397 188.722C447.009 188.722 447.567 188.578 448.071 188.29C448.587 187.99 448.995 187.564 449.295 187.012C449.595 186.448 449.745 185.794 449.745 185.05ZM455.807 181.738C456.095 181.174 456.503 180.736 457.031 180.424C457.571 180.112 458.225 179.956 458.993 179.956V181.648H458.561C456.725 181.648 455.807 182.644 455.807 184.636V190H454.169V180.136H455.807V181.738ZM469.884 184.69C469.884 185.002 469.866 185.332 469.83 185.68H461.946C462.006 186.652 462.336 187.414 462.936 187.966C463.548 188.506 464.286 188.776 465.15 188.776C465.858 188.776 466.446 188.614 466.914 188.29C467.394 187.954 467.73 187.51 467.922 186.958H469.686C469.422 187.906 468.894 188.68 468.102 189.28C467.31 189.868 466.326 190.162 465.15 190.162C464.214 190.162 463.374 189.952 462.63 189.532C461.898 189.112 461.322 188.518 460.902 187.75C460.482 186.97 460.272 186.07 460.272 185.05C460.272 184.03 460.476 183.136 460.884 182.368C461.292 181.6 461.862 181.012 462.594 180.604C463.338 180.184 464.19 179.974 465.15 179.974C466.086 179.974 466.914 180.178 467.634 180.586C468.354 180.994 468.906 181.558 469.29 182.278C469.686 182.986 469.884 183.79 469.884 184.69ZM468.192 184.348C468.192 183.724 468.054 183.19 467.778 182.746C467.502 182.29 467.124 181.948 466.644 181.72C466.176 181.48 465.654 181.36 465.078 181.36C464.25 181.36 463.542 181.624 462.954 182.152C462.378 182.68 462.048 183.412 461.964 184.348H468.192ZM475.538 190.162C474.782 190.162 474.104 190.036 473.504 189.784C472.904 189.52 472.43 189.16 472.082 188.704C471.734 188.236 471.542 187.702 471.506 187.102H473.198C473.246 187.594 473.474 187.996 473.882 188.308C474.302 188.62 474.848 188.776 475.52 188.776C476.144 188.776 476.636 188.638 476.996 188.362C477.356 188.086 477.536 187.738 477.536 187.318C477.536 186.886 477.344 186.568 476.96 186.364C476.576 186.148 475.982 185.938 475.178 185.734C474.446 185.542 473.846 185.35 473.378 185.158C472.922 184.954 472.526 184.66 472.19 184.276C471.866 183.88 471.704 183.364 471.704 182.728C471.704 182.224 471.854 181.762 472.154 181.342C472.454 180.922 472.88 180.592 473.432 180.352C473.984 180.1 474.614 179.974 475.322 179.974C476.414 179.974 477.296 180.25 477.968 180.802C478.64 181.354 479 182.11 479.048 183.07H477.41C477.374 182.554 477.164 182.14 476.78 181.828C476.408 181.516 475.904 181.36 475.268 181.36C474.68 181.36 474.212 181.486 473.864 181.738C473.516 181.99 473.342 182.32 473.342 182.728C473.342 183.052 473.444 183.322 473.648 183.538C473.864 183.742 474.128 183.91 474.44 184.042C474.764 184.162 475.208 184.3 475.772 184.456C476.48 184.648 477.056 184.84 477.5 185.032C477.944 185.212 478.322 185.488 478.634 185.86C478.958 186.232 479.126 186.718 479.138 187.318C479.138 187.858 478.988 188.344 478.688 188.776C478.388 189.208 477.962 189.55 477.41 189.802C476.87 190.042 476.246 190.162 475.538 190.162ZM484.942 190.162C484.186 190.162 483.508 190.036 482.908 189.784C482.308 189.52 481.834 189.16 481.486 188.704C481.138 188.236 480.946 187.702 480.91 187.102H482.602C482.65 187.594 482.878 187.996 483.286 188.308C483.706 188.62 484.252 188.776 484.924 188.776C485.548 188.776 486.04 188.638 486.4 188.362C486.76 188.086 486.94 187.738 486.94 187.318C486.94 186.886 486.748 186.568 486.364 186.364C485.98 186.148 485.386 185.938 484.582 185.734C483.85 185.542 483.25 185.35 482.782 185.158C482.326 184.954 481.93 184.66 481.594 184.276C481.27 183.88 481.108 183.364 481.108 182.728C481.108 182.224 481.258 181.762 481.558 181.342C481.858 180.922 482.284 180.592 482.836 180.352C483.388 180.1 484.018 179.974 484.726 179.974C485.818 179.974 486.7 180.25 487.372 180.802C488.044 181.354 488.404 182.11 488.452 183.07H486.814C486.778 182.554 486.568 182.14 486.184 181.828C485.812 181.516 485.308 181.36 484.672 181.36C484.084 181.36 483.616 181.486 483.268 181.738C482.92 181.99 482.746 182.32 482.746 182.728C482.746 183.052 482.848 183.322 483.052 183.538C483.268 183.742 483.532 183.91 483.844 184.042C484.168 184.162 484.612 184.3 485.176 184.456C485.884 184.648 486.46 184.84 486.904 185.032C487.348 185.212 487.726 185.488 488.038 185.86C488.362 186.232 488.53 186.718 488.542 187.318C488.542 187.858 488.392 188.344 488.092 188.776C487.792 189.208 487.366 189.55 486.814 189.802C486.274 190.042 485.65 190.162 484.942 190.162Z" fill="white"/>
<path d="M389.112 177.544V190H387.474V180.712L383.334 190H382.182L378.024 180.694V190H376.386V177.544H378.15L382.758 187.84L387.366 177.544H389.112ZM391.278 185.032C391.278 184.024 391.482 183.142 391.89 182.386C392.298 181.618 392.856 181.024 393.564 180.604C394.284 180.184 395.082 179.974 395.958 179.974C396.822 179.974 397.572 180.16 398.208 180.532C398.844 180.904 399.318 181.372 399.63 181.936V180.136H401.286V190H399.63V188.164C399.306 188.74 398.82 189.22 398.172 189.604C397.536 189.976 396.792 190.162 395.94 190.162C395.064 190.162 394.272 189.946 393.564 189.514C392.856 189.082 392.298 188.476 391.89 187.696C391.482 186.916 391.278 186.028 391.278 185.032ZM399.63 185.05C399.63 184.306 399.48 183.658 399.18 183.106C398.88 182.554 398.472 182.134 397.956 181.846C397.452 181.546 396.894 181.396 396.282 181.396C395.67 181.396 395.112 181.54 394.608 181.828C394.104 182.116 393.702 182.536 393.402 183.088C393.102 183.64 392.952 184.288 392.952 185.032C392.952 185.788 393.102 186.448 393.402 187.012C393.702 187.564 394.104 187.99 394.608 188.29C395.112 188.578 395.67 188.722 396.282 188.722C396.894 188.722 397.452 188.578 397.956 188.29C398.472 187.99 398.88 187.564 399.18 187.012C399.48 186.448 399.63 185.794 399.63 185.05ZM404.9 178.534C404.588 178.534 404.324 178.426 404.108 178.21C403.892 177.994 403.784 177.73 403.784 177.418C403.784 177.106 403.892 176.842 404.108 176.626C404.324 176.41 404.588 176.302 404.9 176.302C405.2 176.302 405.452 176.41 405.656 176.626C405.872 176.842 405.98 177.106 405.98 177.418C405.98 177.73 405.872 177.994 405.656 178.21C405.452 178.426 405.2 178.534 404.9 178.534ZM405.692 180.136V190H404.054V180.136H405.692ZM410.122 176.68V190H408.484V176.68H410.122ZM425.128 187.21H419.656L418.648 190H416.92L421.456 177.526H423.346L427.864 190H426.136L425.128 187.21ZM424.66 185.878L422.392 179.542L420.124 185.878H424.66ZM429.229 185.032C429.229 184.024 429.433 183.142 429.841 182.386C430.249 181.618 430.807 181.024 431.515 180.604C432.235 180.184 433.039 179.974 433.927 179.974C434.695 179.974 435.409 180.154 436.069 180.514C436.729 180.862 437.233 181.324 437.581 181.9V176.68H439.237V190H437.581V188.146C437.257 188.734 436.777 189.22 436.141 189.604C435.505 189.976 434.761 190.162 433.909 190.162C433.033 190.162 432.235 189.946 431.515 189.514C430.807 189.082 430.249 188.476 429.841 187.696C429.433 186.916 429.229 186.028 429.229 185.032ZM437.581 185.05C437.581 184.306 437.431 183.658 437.131 183.106C436.831 182.554 436.423 182.134 435.907 181.846C435.403 181.546 434.845 181.396 434.233 181.396C433.621 181.396 433.063 181.54 432.559 181.828C432.055 182.116 431.653 182.536 431.353 183.088C431.053 183.64 430.903 184.288 430.903 185.032C430.903 185.788 431.053 186.448 431.353 187.012C431.653 187.564 432.055 187.99 432.559 188.29C433.063 188.578 433.621 188.722 434.233 188.722C434.845 188.722 435.403 188.578 435.907 188.29C436.423 187.99 436.831 187.564 437.131 187.012C437.431 186.448 437.581 185.794 437.581 185.05ZM441.393 185.032C441.393 184.024 441.597 183.142 442.005 182.386C442.413 181.618 442.971 181.024 443.679 180.604C444.399 180.184 445.203 179.974 446.091 179.974C446.859 179.974 447.573 180.154 448.233 180.514C448.893 180.862 449.397 181.324 449.745 181.9V176.68H451.401V190H449.745V188.146C449.421 188.734 448.941 189.22 448.305 189.604C447.669 189.976 446.925 190.162 446.073 190.162C445.197 190.162 444.399 189.946 443.679 189.514C442.971 189.082 442.413 188.476 442.005 187.696C441.597 186.916 441.393 186.028 441.393 185.032ZM449.745 185.05C449.745 184.306 449.595 183.658 449.295 183.106C448.995 182.554 448.587 182.134 448.071 181.846C447.567 181.546 447.009 181.396 446.397 181.396C445.785 181.396 445.227 181.54 444.723 181.828C444.219 182.116 443.817 182.536 443.517 183.088C443.217 183.64 443.067 184.288 443.067 185.032C443.067 185.788 443.217 186.448 443.517 187.012C443.817 187.564 444.219 187.99 444.723 188.29C445.227 188.578 445.785 188.722 446.397 188.722C447.009 188.722 447.567 188.578 448.071 188.29C448.587 187.99 448.995 187.564 449.295 187.012C449.595 186.448 449.745 185.794 449.745 185.05ZM455.807 181.738C456.095 181.174 456.503 180.736 457.031 180.424C457.571 180.112 458.225 179.956 458.993 179.956V181.648H458.561C456.725 181.648 455.807 182.644 455.807 184.636V190H454.169V180.136H455.807V181.738ZM469.884 184.69C469.884 185.002 469.866 185.332 469.83 185.68H461.946C462.006 186.652 462.336 187.414 462.936 187.966C463.548 188.506 464.286 188.776 465.15 188.776C465.858 188.776 466.446 188.614 466.914 188.29C467.394 187.954 467.73 187.51 467.922 186.958H469.686C469.422 187.906 468.894 188.68 468.102 189.28C467.31 189.868 466.326 190.162 465.15 190.162C464.214 190.162 463.374 189.952 462.63 189.532C461.898 189.112 461.322 188.518 460.902 187.75C460.482 186.97 460.272 186.07 460.272 185.05C460.272 184.03 460.476 183.136 460.884 182.368C461.292 181.6 461.862 181.012 462.594 180.604C463.338 180.184 464.19 179.974 465.15 179.974C466.086 179.974 466.914 180.178 467.634 180.586C468.354 180.994 468.906 181.558 469.29 182.278C469.686 182.986 469.884 183.79 469.884 184.69ZM468.192 184.348C468.192 183.724 468.054 183.19 467.778 182.746C467.502 182.29 467.124 181.948 466.644 181.72C466.176 181.48 465.654 181.36 465.078 181.36C464.25 181.36 463.542 181.624 462.954 182.152C462.378 182.68 462.048 183.412 461.964 184.348H468.192ZM475.538 190.162C474.782 190.162 474.104 190.036 473.504 189.784C472.904 189.52 472.43 189.16 472.082 188.704C471.734 188.236 471.542 187.702 471.506 187.102H473.198C473.246 187.594 473.474 187.996 473.882 188.308C474.302 188.62 474.848 188.776 475.52 188.776C476.144 188.776 476.636 188.638 476.996 188.362C477.356 188.086 477.536 187.738 477.536 187.318C477.536 186.886 477.344 186.568 476.96 186.364C476.576 186.148 475.982 185.938 475.178 185.734C474.446 185.542 473.846 185.35 473.378 185.158C472.922 184.954 472.526 184.66 472.19 184.276C471.866 183.88 471.704 183.364 471.704 182.728C471.704 182.224 471.854 181.762 472.154 181.342C472.454 180.922 472.88 180.592 473.432 180.352C473.984 180.1 474.614 179.974 475.322 179.974C476.414 179.974 477.296 180.25 477.968 180.802C478.64 181.354 479 182.11 479.048 183.07H477.41C477.374 182.554 477.164 182.14 476.78 181.828C476.408 181.516 475.904 181.36 475.268 181.36C474.68 181.36 474.212 181.486 473.864 181.738C473.516 181.99 473.342 182.32 473.342 182.728C473.342 183.052 473.444 183.322 473.648 183.538C473.864 183.742 474.128 183.91 474.44 184.042C474.764 184.162 475.208 184.3 475.772 184.456C476.48 184.648 477.056 184.84 477.5 185.032C477.944 185.212 478.322 185.488 478.634 185.86C478.958 186.232 479.126 186.718 479.138 187.318C479.138 187.858 478.988 188.344 478.688 188.776C478.388 189.208 477.962 189.55 477.41 189.802C476.87 190.042 476.246 190.162 475.538 190.162ZM484.942 190.162C484.186 190.162 483.508 190.036 482.908 189.784C482.308 189.52 481.834 189.16 481.486 188.704C481.138 188.236 480.946 187.702 480.91 187.102H482.602C482.65 187.594 482.878 187.996 483.286 188.308C483.706 188.62 484.252 188.776 484.924 188.776C485.548 188.776 486.04 188.638 486.4 188.362C486.76 188.086 486.94 187.738 486.94 187.318C486.94 186.886 486.748 186.568 486.364 186.364C485.98 186.148 485.386 185.938 484.582 185.734C483.85 185.542 483.25 185.35 482.782 185.158C482.326 184.954 481.93 184.66 481.594 184.276C481.27 183.88 481.108 183.364 481.108 182.728C481.108 182.224 481.258 181.762 481.558 181.342C481.858 180.922 482.284 180.592 482.836 180.352C483.388 180.1 484.018 179.974 484.726 179.974C485.818 179.974 486.7 180.25 487.372 180.802C488.044 181.354 488.404 182.11 488.452 183.07H486.814C486.778 182.554 486.568 182.14 486.184 181.828C485.812 181.516 485.308 181.36 484.672 181.36C484.084 181.36 483.616 181.486 483.268 181.738C482.92 181.99 482.746 182.32 482.746 182.728C482.746 183.052 482.848 183.322 483.052 183.538C483.268 183.742 483.532 183.91 483.844 184.042C484.168 184.162 484.612 184.3 485.176 184.456C485.884 184.648 486.46 184.84 486.904 185.032C487.348 185.212 487.726 185.488 488.038 185.86C488.362 186.232 488.53 186.718 488.542 187.318C488.542 187.858 488.392 188.344 488.092 188.776C487.792 189.208 487.366 189.55 486.814 189.802C486.274 190.042 485.65 190.162 484.942 190.162Z" fill="black" fill-opacity="0.4"/>
<rect x="30" y="224" width="630" height="120" rx="10" fill="white"/>
<rect x="30" y="224" width="630" height="120" rx="10" fill="black" fill-opacity="0.1"/>
<path d="M64.112 277.544V290H62.474V280.712L58.334 290H57.182L53.024 280.694V290H51.386V277.544H53.15L57.758 287.84L62.366 277.544H64.112ZM75.8899 284.69C75.8899 285.002 75.8719 285.332 75.8359 285.68H67.9519C68.0119 286.652 68.3419 287.414 68.9419 287.966C69.5539 288.506 70.2919 288.776 71.1559 288.776C71.8639 288.776 72.4519 288.614 72.9199 288.29C73.3999 287.954 73.7359 287.51 73.9279 286.958H75.6919C75.4279 287.906 74.8999 288.68 74.1079 289.28C73.3159 289.868 72.3319 290.162 71.1559 290.162C70.2199 290.162 69.3799 289.952 68.6359 289.532C67.9039 289.112 67.3279 288.518 66.9079 287.75C66.4879 286.97 66.2779 286.07 66.2779 285.05C66.2779 284.03 66.4819 283.136 66.8899 282.368C67.2979 281.6 67.8679 281.012 68.5999 280.604C69.3439 280.184 70.1959 279.974 71.1559 279.974C72.0919 279.974 72.9199 280.178 73.6399 280.586C74.3599 280.994 74.9119 281.558 75.2959 282.278C75.6919 282.986 75.8899 283.79 75.8899 284.69ZM74.1979 284.348C74.1979 283.724 74.0599 283.19 73.7839 282.746C73.5079 282.29 73.1299 281.948 72.6499 281.72C72.1819 281.48 71.6599 281.36 71.0839 281.36C70.2559 281.36 69.5479 281.624 68.9599 282.152C68.3839 282.68 68.0539 283.412 67.9699 284.348H74.1979ZM81.544 290.162C80.788 290.162 80.11 290.036 79.51 289.784C78.91 289.52 78.436 289.16 78.088 288.704C77.74 288.236 77.548 287.702 77.512 287.102H79.204C79.252 287.594 79.48 287.996 79.888 288.308C80.308 288.62 80.854 288.776 81.526 288.776C82.15 288.776 82.642 288.638 83.002 288.362C83.362 288.086 83.542 287.738 83.542 287.318C83.542 286.886 83.35 286.568 82.966 286.364C82.582 286.148 81.988 285.938 81.184 285.734C80.452 285.542 79.852 285.35 79.384 285.158C78.928 284.954 78.532 284.66 78.196 284.276C77.872 283.88 77.71 283.364 77.71 282.728C77.71 282.224 77.86 281.762 78.16 281.342C78.46 280.922 78.886 280.592 79.438 280.352C79.99 280.1 80.62 279.974 81.328 279.974C82.42 279.974 83.302 280.25 83.974 280.802C84.646 281.354 85.006 282.11 85.054 283.07H83.416C83.38 282.554 83.17 282.14 82.786 281.828C82.414 281.516 81.91 281.36 81.274 281.36C80.686 281.36 80.218 281.486 79.87 281.738C79.522 281.99 79.348 282.32 79.348 282.728C79.348 283.052 79.45 283.322 79.654 283.538C79.87 283.742 80.134 283.91 80.446 284.042C80.77 284.162 81.214 284.3 81.778 284.456C82.486 284.648 83.062 284.84 83.506 285.032C83.95 285.212 84.328 285.488 84.64 285.86C84.964 286.232 85.132 286.718 85.144 287.318C85.144 287.858 84.994 288.344 84.694 288.776C84.394 289.208 83.968 289.55 83.416 289.802C82.876 290.042 82.252 290.162 81.544 290.162ZM90.9483 290.162C90.1923 290.162 89.5143 290.036 88.9143 289.784C88.3143 289.52 87.8403 289.16 87.4923 288.704C87.1443 288.236 86.9523 287.702 86.9163 287.102H88.6083C88.6563 287.594 88.8843 287.996 89.2923 288.308C89.7123 288.62 90.2583 288.776 90.9303 288.776C91.5543 288.776 92.0463 288.638 92.4063 288.362C92.7663 288.086 92.9463 287.738 92.9463 287.318C92.9463 286.886 92.7543 286.568 92.3703 286.364C91.9863 286.148 91.3923 285.938 90.5883 285.734C89.8563 285.542 89.2563 285.35 88.7883 285.158C88.3323 284.954 87.9363 284.66 87.6003 284.276C87.2763 283.88 87.1143 283.364 87.1143 282.728C87.1143 282.224 87.2643 281.762 87.5643 281.342C87.8643 280.922 88.2903 280.592 88.8423 280.352C89.3943 280.1 90.0243 279.974 90.7323 279.974C91.8243 279.974 92.7063 280.25 93.3783 280.802C94.0503 281.354 94.4103 282.11 94.4583 283.07H92.8203C92.7843 282.554 92.5743 282.14 92.1903 281.828C91.8183 281.516 91.3143 281.36 90.6783 281.36C90.0903 281.36 89.6223 281.486 89.2743 281.738C88.9263 281.99 88.7523 282.32 88.7523 282.728C88.7523 283.052 88.8543 283.322 89.0583 283.538C89.2743 283.742 89.5383 283.91 89.8503 284.042C90.1743 284.162 90.6183 284.3 91.1823 284.456C91.8903 284.648 92.4663 284.84 92.9103 285.032C93.3543 285.212 93.7323 285.488 94.0443 285.86C94.3683 286.232 94.5363 286.718 94.5483 287.318C94.5483 287.858 94.3983 288.344 94.0983 288.776C93.7983 289.208 93.3723 289.55 92.8203 289.802C92.2803 290.042 91.6563 290.162 90.9483 290.162ZM96.2486 285.032C96.2486 284.024 96.4526 283.142 96.8606 282.386C97.2686 281.618 97.8266 281.024 98.5346 280.604C99.2546 280.184 100.053 279.974 100.929 279.974C101.793 279.974 102.543 280.16 103.179 280.532C103.815 280.904 104.289 281.372 104.601 281.936V280.136H106.257V290H104.601V288.164C104.277 288.74 103.791 289.22 103.143 289.604C102.507 289.976 101.763 290.162 100.911 290.162C100.035 290.162 99.2426 289.946 98.5346 289.514C97.8266 289.082 97.2686 288.476 96.8606 287.696C96.4526 286.916 96.2486 286.028 96.2486 285.032ZM104.601 285.05C104.601 284.306 104.451 283.658 104.151 283.106C103.851 282.554 103.443 282.134 102.927 281.846C102.423 281.546 101.865 281.396 101.253 281.396C100.641 281.396 100.083 281.54 99.5786 281.828C99.0746 282.116 98.6726 282.536 98.3726 283.088C98.0726 283.64 97.9226 284.288 97.9226 285.032C97.9226 285.788 98.0726 286.448 98.3726 287.012C98.6726 287.564 99.0746 287.99 99.5786 288.29C100.083 288.578 100.641 288.722 101.253 288.722C101.865 288.722 102.423 288.578 102.927 288.29C103.443 287.99 103.851 287.564 104.151 287.012C104.451 286.448 104.601 285.794 104.601 285.05ZM113.093 279.974C113.945 279.974 114.689 280.16 115.325 280.532C115.973 280.904 116.453 281.372 116.765 281.936V280.136H118.421V290.216C118.421 291.116 118.229 291.914 117.845 292.61C117.461 293.318 116.909 293.87 116.189 294.266C115.481 294.662 114.653 294.86 113.705 294.86C112.409 294.86 111.329 294.554 110.465 293.942C109.601 293.33 109.091 292.496 108.935 291.44H110.555C110.735 292.04 111.107 292.52 111.671 292.88C112.235 293.252 112.913 293.438 113.705 293.438C114.605 293.438 115.337 293.156 115.901 292.592C116.477 292.028 116.765 291.236 116.765 290.216V288.146C116.441 288.722 115.961 289.202 115.325 289.586C114.689 289.97 113.945 290.162 113.093 290.162C112.217 290.162 111.419 289.946 110.699 289.514C109.991 289.082 109.433 288.476 109.025 287.696C108.617 286.916 108.413 286.028 108.413 285.032C108.413 284.024 108.617 283.142 109.025 282.386C109.433 281.618 109.991 281.024 110.699 280.604C111.419 280.184 112.217 279.974 113.093 279.974ZM116.765 285.05C116.765 284.306 116.615 283.658 116.315 283.106C116.015 282.554 115.607 282.134 115.091 281.846C114.587 281.546 114.029 281.396 113.417 281.396C112.805 281.396 112.247 281.54 111.743 281.828C111.239 282.116 110.837 282.536 110.537 283.088C110.237 283.64 110.087 284.288 110.087 285.032C110.087 285.788 110.237 286.448 110.537 287.012C110.837 287.564 111.239 287.99 111.743 288.29C112.247 288.578 112.805 288.722 113.417 288.722C114.029 288.722 114.587 288.578 115.091 288.29C115.607 287.99 116.015 287.564 116.315 287.012C116.615 286.448 116.765 285.794 116.765 285.05ZM130.189 284.69C130.189 285.002 130.171 285.332 130.135 285.68H122.251C122.311 286.652 122.641 287.414 123.241 287.966C123.853 288.506 124.591 288.776 125.455 288.776C126.163 288.776 126.751 288.614 127.219 288.29C127.699 287.954 128.035 287.51 128.227 286.958H129.991C129.727 287.906 129.199 288.68 128.407 289.28C127.615 289.868 126.631 290.162 125.455 290.162C124.519 290.162 123.679 289.952 122.935 289.532C122.203 289.112 121.627 288.518 121.207 287.75C120.787 286.97 120.577 286.07 120.577 285.05C120.577 284.03 120.781 283.136 121.189 282.368C121.597 281.6 122.167 281.012 122.899 280.604C123.643 280.184 124.495 279.974 125.455 279.974C126.391 279.974 127.219 280.178 127.939 280.586C128.659 280.994 129.211 281.558 129.595 282.278C129.991 282.986 130.189 283.79 130.189 284.69ZM128.497 284.348C128.497 283.724 128.359 283.19 128.083 282.746C127.807 282.29 127.429 281.948 126.949 281.72C126.481 281.48 125.959 281.36 125.383 281.36C124.555 281.36 123.847 281.624 123.259 282.152C122.683 282.68 122.353 283.412 122.269 284.348H128.497Z" fill="white"/>
<path d="M64.112 277.544V290H62.474V280.712L58.334 290H57.182L53.024 280.694V290H51.386V277.544H53.15L57.758 287.84L62.366 277.544H64.112ZM75.8899 284.69C75.8899 285.002 75.8719 285.332 75.8359 285.68H67.9519C68.0119 286.652 68.3419 287.414 68.9419 287.966C69.5539 288.506 70.2919 288.776 71.1559 288.776C71.8639 288.776 72.4519 288.614 72.9199 288.29C73.3999 287.954 73.7359 287.51 73.9279 286.958H75.6919C75.4279 287.906 74.8999 288.68 74.1079 289.28C73.3159 289.868 72.3319 290.162 71.1559 290.162C70.2199 290.162 69.3799 289.952 68.6359 289.532C67.9039 289.112 67.3279 288.518 66.9079 287.75C66.4879 286.97 66.2779 286.07 66.2779 285.05C66.2779 284.03 66.4819 283.136 66.8899 282.368C67.2979 281.6 67.8679 281.012 68.5999 280.604C69.3439 280.184 70.1959 279.974 71.1559 279.974C72.0919 279.974 72.9199 280.178 73.6399 280.586C74.3599 280.994 74.9119 281.558 75.2959 282.278C75.6919 282.986 75.8899 283.79 75.8899 284.69ZM74.1979 284.348C74.1979 283.724 74.0599 283.19 73.7839 282.746C73.5079 282.29 73.1299 281.948 72.6499 281.72C72.1819 281.48 71.6599 281.36 71.0839 281.36C70.2559 281.36 69.5479 281.624 68.9599 282.152C68.3839 282.68 68.0539 283.412 67.9699 284.348H74.1979ZM81.544 290.162C80.788 290.162 80.11 290.036 79.51 289.784C78.91 289.52 78.436 289.16 78.088 288.704C77.74 288.236 77.548 287.702 77.512 287.102H79.204C79.252 287.594 79.48 287.996 79.888 288.308C80.308 288.62 80.854 288.776 81.526 288.776C82.15 288.776 82.642 288.638 83.002 288.362C83.362 288.086 83.542 287.738 83.542 287.318C83.542 286.886 83.35 286.568 82.966 286.364C82.582 286.148 81.988 285.938 81.184 285.734C80.452 285.542 79.852 285.35 79.384 285.158C78.928 284.954 78.532 284.66 78.196 284.276C77.872 283.88 77.71 283.364 77.71 282.728C77.71 282.224 77.86 281.762 78.16 281.342C78.46 280.922 78.886 280.592 79.438 280.352C79.99 280.1 80.62 279.974 81.328 279.974C82.42 279.974 83.302 280.25 83.974 280.802C84.646 281.354 85.006 282.11 85.054 283.07H83.416C83.38 282.554 83.17 282.14 82.786 281.828C82.414 281.516 81.91 281.36 81.274 281.36C80.686 281.36 80.218 281.486 79.87 281.738C79.522 281.99 79.348 282.32 79.348 282.728C79.348 283.052 79.45 283.322 79.654 283.538C79.87 283.742 80.134 283.91 80.446 284.042C80.77 284.162 81.214 284.3 81.778 284.456C82.486 284.648 83.062 284.84 83.506 285.032C83.95 285.212 84.328 285.488 84.64 285.86C84.964 286.232 85.132 286.718 85.144 287.318C85.144 287.858 84.994 288.344 84.694 288.776C84.394 289.208 83.968 289.55 83.416 289.802C82.876 290.042 82.252 290.162 81.544 290.162ZM90.9483 290.162C90.1923 290.162 89.5143 290.036 88.9143 289.784C88.3143 289.52 87.8403 289.16 87.4923 288.704C87.1443 288.236 86.9523 287.702 86.9163 287.102H88.6083C88.6563 287.594 88.8843 287.996 89.2923 288.308C89.7123 288.62 90.2583 288.776 90.9303 288.776C91.5543 288.776 92.0463 288.638 92.4063 288.362C92.7663 288.086 92.9463 287.738 92.9463 287.318C92.9463 286.886 92.7543 286.568 92.3703 286.364C91.9863 286.148 91.3923 285.938 90.5883 285.734C89.8563 285.542 89.2563 285.35 88.7883 285.158C88.3323 284.954 87.9363 284.66 87.6003 284.276C87.2763 283.88 87.1143 283.364 87.1143 282.728C87.1143 282.224 87.2643 281.762 87.5643 281.342C87.8643 280.922 88.2903 280.592 88.8423 280.352C89.3943 280.1 90.0243 279.974 90.7323 279.974C91.8243 279.974 92.7063 280.25 93.3783 280.802C94.0503 281.354 94.4103 282.11 94.4583 283.07H92.8203C92.7843 282.554 92.5743 282.14 92.1903 281.828C91.8183 281.516 91.3143 281.36 90.6783 281.36C90.0903 281.36 89.6223 281.486 89.2743 281.738C88.9263 281.99 88.7523 282.32 88.7523 282.728C88.7523 283.052 88.8543 283.322 89.0583 283.538C89.2743 283.742 89.5383 283.91 89.8503 284.042C90.1743 284.162 90.6183 284.3 91.1823 284.456C91.8903 284.648 92.4663 284.84 92.9103 285.032C93.3543 285.212 93.7323 285.488 94.0443 285.86C94.3683 286.232 94.5363 286.718 94.5483 287.318C94.5483 287.858 94.3983 288.344 94.0983 288.776C93.7983 289.208 93.3723 289.55 92.8203 289.802C92.2803 290.042 91.6563 290.162 90.9483 290.162ZM96.2486 285.032C96.2486 284.024 96.4526 283.142 96.8606 282.386C97.2686 281.618 97.8266 281.024 98.5346 280.604C99.2546 280.184 100.053 279.974 100.929 279.974C101.793 279.974 102.543 280.16 103.179 280.532C103.815 280.904 104.289 281.372 104.601 281.936V280.136H106.257V290H104.601V288.164C104.277 288.74 103.791 289.22 103.143 289.604C102.507 289.976 101.763 290.162 100.911 290.162C100.035 290.162 99.2426 289.946 98.5346 289.514C97.8266 289.082 97.2686 288.476 96.8606 287.696C96.4526 286.916 96.2486 286.028 96.2486 285.032ZM104.601 285.05C104.601 284.306 104.451 283.658 104.151 283.106C103.851 282.554 103.443 282.134 102.927 281.846C102.423 281.546 101.865 281.396 101.253 281.396C100.641 281.396 100.083 281.54 99.5786 281.828C99.0746 282.116 98.6726 282.536 98.3726 283.088C98.0726 283.64 97.9226 284.288 97.9226 285.032C97.9226 285.788 98.0726 286.448 98.3726 287.012C98.6726 287.564 99.0746 287.99 99.5786 288.29C100.083 288.578 100.641 288.722 101.253 288.722C101.865 288.722 102.423 288.578 102.927 288.29C103.443 287.99 103.851 287.564 104.151 287.012C104.451 286.448 104.601 285.794 104.601 285.05ZM113.093 279.974C113.945 279.974 114.689 280.16 115.325 280.532C115.973 280.904 116.453 281.372 116.765 281.936V280.136H118.421V290.216C118.421 291.116 118.229 291.914 117.845 292.61C117.461 293.318 116.909 293.87 116.189 294.266C115.481 294.662 114.653 294.86 113.705 294.86C112.409 294.86 111.329 294.554 110.465 293.942C109.601 293.33 109.091 292.496 108.935 291.44H110.555C110.735 292.04 111.107 292.52 111.671 292.88C112.235 293.252 112.913 293.438 113.705 293.438C114.605 293.438 115.337 293.156 115.901 292.592C116.477 292.028 116.765 291.236 116.765 290.216V288.146C116.441 288.722 115.961 289.202 115.325 289.586C114.689 289.97 113.945 290.162 113.093 290.162C112.217 290.162 111.419 289.946 110.699 289.514C109.991 289.082 109.433 288.476 109.025 287.696C108.617 286.916 108.413 286.028 108.413 285.032C108.413 284.024 108.617 283.142 109.025 282.386C109.433 281.618 109.991 281.024 110.699 280.604C111.419 280.184 112.217 279.974 113.093 279.974ZM116.765 285.05C116.765 284.306 116.615 283.658 116.315 283.106C116.015 282.554 115.607 282.134 115.091 281.846C114.587 281.546 114.029 281.396 113.417 281.396C112.805 281.396 112.247 281.54 111.743 281.828C111.239 282.116 110.837 282.536 110.537 283.088C110.237 283.64 110.087 284.288 110.087 285.032C110.087 285.788 110.237 286.448 110.537 287.012C110.837 287.564 111.239 287.99 111.743 288.29C112.247 288.578 112.805 288.722 113.417 288.722C114.029 288.722 114.587 288.578 115.091 288.29C115.607 287.99 116.015 287.564 116.315 287.012C116.615 286.448 116.765 285.794 116.765 285.05ZM130.189 284.69C130.189 285.002 130.171 285.332 130.135 285.68H122.251C122.311 286.652 122.641 287.414 123.241 287.966C123.853 288.506 124.591 288.776 125.455 288.776C126.163 288.776 126.751 288.614 127.219 288.29C127.699 287.954 128.035 287.51 128.227 286.958H129.991C129.727 287.906 129.199 288.68 128.407 289.28C127.615 289.868 126.631 290.162 125.455 290.162C124.519 290.162 123.679 289.952 122.935 289.532C122.203 289.112 121.627 288.518 121.207 287.75C120.787 286.97 120.577 286.07 120.577 285.05C120.577 284.03 120.781 283.136 121.189 282.368C121.597 281.6 122.167 281.012 122.899 280.604C123.643 280.184 124.495 279.974 125.455 279.974C126.391 279.974 127.219 280.178 127.939 280.586C128.659 280.994 129.211 281.558 129.595 282.278C129.991 282.986 130.189 283.79 130.189 284.69ZM128.497 284.348C128.497 283.724 128.359 283.19 128.083 282.746C127.807 282.29 127.429 281.948 126.949 281.72C126.481 281.48 125.959 281.36 125.383 281.36C124.555 281.36 123.847 281.624 123.259 282.152C122.683 282.68 122.353 283.412 122.269 284.348H128.497Z" fill="black" fill-opacity="0.4"/>
<rect x="540" y="30" width="120" height="45" rx="10" fill="#E2CC06"/>
<path d="M572.621 59.126C571.745 59.126 570.953 58.976 570.245 58.676C569.549 58.376 568.997 57.944 568.589 57.38C568.181 56.816 567.971 56.15 567.959 55.382H570.659C570.695 55.898 570.875 56.306 571.199 56.606C571.535 56.906 571.991 57.056 572.567 57.056C573.155 57.056 573.617 56.918 573.953 56.642C574.289 56.354 574.457 55.982 574.457 55.526C574.457 55.154 574.343 54.848 574.115 54.608C573.887 54.368 573.599 54.182 573.251 54.05C572.915 53.906 572.447 53.75 571.847 53.582C571.031 53.342 570.365 53.108 569.849 52.88C569.345 52.64 568.907 52.286 568.535 51.818C568.175 51.338 567.995 50.702 567.995 49.91C567.995 49.166 568.181 48.518 568.553 47.966C568.925 47.414 569.447 46.994 570.119 46.706C570.791 46.406 571.559 46.256 572.423 46.256C573.719 46.256 574.769 46.574 575.573 47.21C576.389 47.834 576.839 48.71 576.923 49.838H574.151C574.127 49.406 573.941 49.052 573.593 48.776C573.257 48.488 572.807 48.344 572.243 48.344C571.751 48.344 571.355 48.47 571.055 48.722C570.767 48.974 570.623 49.34 570.623 49.82C570.623 50.156 570.731 50.438 570.947 50.666C571.175 50.882 571.451 51.062 571.775 51.206C572.111 51.338 572.579 51.494 573.179 51.674C573.995 51.914 574.661 52.154 575.177 52.394C575.693 52.634 576.137 52.994 576.509 53.474C576.881 53.954 577.067 54.584 577.067 55.364C577.067 56.036 576.893 56.66 576.545 57.236C576.197 57.812 575.687 58.274 575.015 58.622C574.343 58.958 573.545 59.126 572.621 59.126ZM588.666 49.028V59H586.128V57.74C585.804 58.172 585.378 58.514 584.85 58.766C584.334 59.006 583.77 59.126 583.158 59.126C582.378 59.126 581.688 58.964 581.088 58.64C580.488 58.304 580.014 57.818 579.666 57.182C579.33 56.534 579.162 55.766 579.162 54.878V49.028H581.682V54.518C581.682 55.31 581.88 55.922 582.276 56.354C582.672 56.774 583.212 56.984 583.896 56.984C584.592 56.984 585.138 56.774 585.534 56.354C585.93 55.922 586.128 55.31 586.128 54.518V49.028H588.666ZM593.672 50.486C593.996 50.006 594.44 49.616 595.004 49.316C595.58 49.016 596.234 48.866 596.966 48.866C597.818 48.866 598.586 49.076 599.27 49.496C599.966 49.916 600.512 50.516 600.908 51.296C601.316 52.064 601.52 52.958 601.52 53.978C601.52 54.998 601.316 55.904 600.908 56.696C600.512 57.476 599.966 58.082 599.27 58.514C598.586 58.946 597.818 59.162 596.966 59.162C596.222 59.162 595.568 59.018 595.004 58.73C594.452 58.43 594.008 58.046 593.672 57.578V59H591.152V45.68H593.672V50.486ZM598.946 53.978C598.946 53.378 598.82 52.862 598.568 52.43C598.328 51.986 598.004 51.65 597.596 51.422C597.2 51.194 596.768 51.08 596.3 51.08C595.844 51.08 595.412 51.2 595.004 51.44C594.608 51.668 594.284 52.004 594.032 52.448C593.792 52.892 593.672 53.414 593.672 54.014C593.672 54.614 593.792 55.136 594.032 55.58C594.284 56.024 594.608 56.366 595.004 56.606C595.412 56.834 595.844 56.948 596.3 56.948C596.768 56.948 597.2 56.828 597.596 56.588C598.004 56.348 598.328 56.006 598.568 55.562C598.82 55.118 598.946 54.59 598.946 53.978ZM615.735 48.884C616.959 48.884 617.943 49.262 618.687 50.018C619.443 50.762 619.821 51.806 619.821 53.15V59H617.301V53.492C617.301 52.712 617.103 52.118 616.707 51.71C616.311 51.29 615.771 51.08 615.087 51.08C614.403 51.08 613.857 51.29 613.449 51.71C613.053 52.118 612.855 52.712 612.855 53.492V59H610.335V53.492C610.335 52.712 610.137 52.118 609.741 51.71C609.345 51.29 608.805 51.08 608.121 51.08C607.425 51.08 606.873 51.29 606.465 51.71C606.069 52.118 605.871 52.712 605.871 53.492V59H603.351V49.028H605.871V50.234C606.195 49.814 606.609 49.484 607.113 49.244C607.629 49.004 608.193 48.884 608.805 48.884C609.585 48.884 610.281 49.052 610.893 49.388C611.505 49.712 611.979 50.18 612.315 50.792C612.639 50.216 613.107 49.754 613.719 49.406C614.343 49.058 615.015 48.884 615.735 48.884ZM623.491 47.84C623.047 47.84 622.675 47.702 622.375 47.426C622.087 47.138 621.943 46.784 621.943 46.364C621.943 45.944 622.087 45.596 622.375 45.32C622.675 45.032 623.047 44.888 623.491 44.888C623.935 44.888 624.301 45.032 624.589 45.32C624.889 45.596 625.039 45.944 625.039 46.364C625.039 46.784 624.889 47.138 624.589 47.426C624.301 47.702 623.935 47.84 623.491 47.84ZM624.733 49.028V59H622.213V49.028H624.733ZM630.156 51.098V55.922C630.156 56.258 630.234 56.504 630.39 56.66C630.558 56.804 630.834 56.876 631.218 56.876H632.388V59H630.804C628.68 59 627.618 57.968 627.618 55.904V51.098H626.43V49.028H627.618V46.562H630.156V49.028H632.388V51.098H630.156Z" fill="white"/>
</svg>
