<svg width="120" height="45" viewBox="0 0 120 45" fill="none" xmlns="http://www.w3.org/2000/svg">
<rect width="120" height="45" rx="10" fill="#E2CC06"/>
<path d="M32.621 29.126C31.745 29.126 30.953 28.976 30.245 28.676C29.549 28.376 28.997 27.944 28.589 27.38C28.181 26.816 27.971 26.15 27.959 25.382H30.659C30.695 25.898 30.875 26.306 31.199 26.606C31.535 26.906 31.991 27.056 32.567 27.056C33.155 27.056 33.617 26.918 33.953 26.642C34.289 26.354 34.457 25.982 34.457 25.526C34.457 25.154 34.343 24.848 34.115 24.608C33.887 24.368 33.599 24.182 33.251 24.05C32.915 23.906 32.447 23.75 31.847 23.582C31.031 23.342 30.365 23.108 29.849 22.88C29.345 22.64 28.907 22.286 28.535 21.818C28.175 21.338 27.995 20.702 27.995 19.91C27.995 19.166 28.181 18.518 28.553 17.966C28.925 17.414 29.447 16.994 30.119 16.706C30.791 16.406 31.559 16.256 32.423 16.256C33.719 16.256 34.769 16.574 35.573 17.21C36.389 17.834 36.839 18.71 36.923 19.838H34.151C34.127 19.406 33.941 19.052 33.593 18.776C33.257 18.488 32.807 18.344 32.243 18.344C31.751 18.344 31.355 18.47 31.055 18.722C30.767 18.974 30.623 19.34 30.623 19.82C30.623 20.156 30.731 20.438 30.947 20.666C31.175 20.882 31.451 21.062 31.775 21.206C32.111 21.338 32.579 21.494 33.179 21.674C33.995 21.914 34.661 22.154 35.177 22.394C35.693 22.634 36.137 22.994 36.509 23.474C36.881 23.954 37.067 24.584 37.067 25.364C37.067 26.036 36.893 26.66 36.545 27.236C36.197 27.812 35.687 28.274 35.015 28.622C34.343 28.958 33.545 29.126 32.621 29.126ZM48.6658 19.028V29H46.1278V27.74C45.8038 28.172 45.3778 28.514 44.8498 28.766C44.3338 29.006 43.7698 29.126 43.1578 29.126C42.3778 29.126 41.6878 28.964 41.0878 28.64C40.4878 28.304 40.0138 27.818 39.6658 27.182C39.3298 26.534 39.1618 25.766 39.1618 24.878V19.028H41.6818V24.518C41.6818 25.31 41.8798 25.922 42.2758 26.354C42.6718 26.774 43.2118 26.984 43.8958 26.984C44.5918 26.984 45.1378 26.774 45.5338 26.354C45.9298 25.922 46.1278 25.31 46.1278 24.518V19.028H48.6658ZM53.6722 20.486C53.9962 20.006 54.4402 19.616 55.0042 19.316C55.5802 19.016 56.2342 18.866 56.9662 18.866C57.8182 18.866 58.5862 19.076 59.2702 19.496C59.9662 19.916 60.5122 20.516 60.9082 21.296C61.3162 22.064 61.5202 22.958 61.5202 23.978C61.5202 24.998 61.3162 25.904 60.9082 26.696C60.5122 27.476 59.9662 28.082 59.2702 28.514C58.5862 28.946 57.8182 29.162 56.9662 29.162C56.2222 29.162 55.5682 29.018 55.0042 28.73C54.4522 28.43 54.0082 28.046 53.6722 27.578V29H51.1522V15.68H53.6722V20.486ZM58.9462 23.978C58.9462 23.378 58.8202 22.862 58.5682 22.43C58.3282 21.986 58.0042 21.65 57.5962 21.422C57.2002 21.194 56.7682 21.08 56.3002 21.08C55.8442 21.08 55.4122 21.2 55.0042 21.44C54.6082 21.668 54.2842 22.004 54.0322 22.448C53.7922 22.892 53.6722 23.414 53.6722 24.014C53.6722 24.614 53.7922 25.136 54.0322 25.58C54.2842 26.024 54.6082 26.366 55.0042 26.606C55.4122 26.834 55.8442 26.948 56.3002 26.948C56.7682 26.948 57.2002 26.828 57.5962 26.588C58.0042 26.348 58.3282 26.006 58.5682 25.562C58.8202 25.118 58.9462 24.59 58.9462 23.978ZM75.7354 18.884C76.9594 18.884 77.9434 19.262 78.6874 20.018C79.4434 20.762 79.8214 21.806 79.8214 23.15V29H77.3014V23.492C77.3014 22.712 77.1034 22.118 76.7074 21.71C76.3114 21.29 75.7714 21.08 75.0874 21.08C74.4034 21.08 73.8574 21.29 73.4494 21.71C73.0534 22.118 72.8554 22.712 72.8554 23.492V29H70.3354V23.492C70.3354 22.712 70.1374 22.118 69.7414 21.71C69.3454 21.29 68.8054 21.08 68.1214 21.08C67.4254 21.08 66.8734 21.29 66.4654 21.71C66.0694 22.118 65.8714 22.712 65.8714 23.492V29H63.3514V19.028H65.8714V20.234C66.1954 19.814 66.6094 19.484 67.1134 19.244C67.6294 19.004 68.1934 18.884 68.8054 18.884C69.5854 18.884 70.2814 19.052 70.8934 19.388C71.5054 19.712 71.9794 20.18 72.3154 20.792C72.6394 20.216 73.1074 19.754 73.7194 19.406C74.3434 19.058 75.0154 18.884 75.7354 18.884ZM83.4907 17.84C83.0467 17.84 82.6747 17.702 82.3747 17.426C82.0867 17.138 81.9427 16.784 81.9427 16.364C81.9427 15.944 82.0867 15.596 82.3747 15.32C82.6747 15.032 83.0467 14.888 83.4907 14.888C83.9347 14.888 84.3007 15.032 84.5887 15.32C84.8887 15.596 85.0387 15.944 85.0387 16.364C85.0387 16.784 84.8887 17.138 84.5887 17.426C84.3007 17.702 83.9347 17.84 83.4907 17.84ZM84.7327 19.028V29H82.2127V19.028H84.7327ZM90.1565 21.098V25.922C90.1565 26.258 90.2345 26.504 90.3905 26.66C90.5585 26.804 90.8345 26.876 91.2185 26.876H92.3885V29H90.8045C88.6805 29 87.6185 27.968 87.6185 25.904V21.098H86.4305V19.028H87.6185V16.562H90.1565V19.028H92.3885V21.098H90.1565Z" fill="white"/>
</svg>
