<svg width="420" height="260" viewBox="0 0 420 260" fill="none" xmlns="http://www.w3.org/2000/svg">
<rect width="420" height="260" rx="10" fill="black" fill-opacity="0.2"/>
<path d="M25.6941 24.832V36H23.4541V28.736L20.4621 36H18.7661L15.7581 28.736V36H13.5181V24.832H16.0621L19.6141 33.136L23.1661 24.832H25.6941ZM31.8447 36.144C30.9914 36.144 30.2234 35.9573 29.5407 35.584C28.858 35.2 28.3194 34.6613 27.9247 33.968C27.5407 33.2747 27.3487 32.4747 27.3487 31.568C27.3487 30.6613 27.546 29.8613 27.9407 29.168C28.346 28.4747 28.8954 27.9413 29.5887 27.568C30.282 27.184 31.0554 26.992 31.9087 26.992C32.762 26.992 33.5354 27.184 34.2287 27.568C34.922 27.9413 35.466 28.4747 35.8607 29.168C36.266 29.8613 36.4687 30.6613 36.4687 31.568C36.4687 32.4747 36.2607 33.2747 35.8447 33.968C35.4394 34.6613 34.8847 35.2 34.1807 35.584C33.4874 35.9573 32.7087 36.144 31.8447 36.144ZM31.8447 34.192C32.25 34.192 32.6287 34.096 32.9807 33.904C33.3434 33.7013 33.6314 33.4027 33.8447 33.008C34.058 32.6133 34.1647 32.1333 34.1647 31.568C34.1647 30.7253 33.9407 30.08 33.4927 29.632C33.0554 29.1733 32.5167 28.944 31.8767 28.944C31.2367 28.944 30.698 29.1733 30.2607 29.632C29.834 30.08 29.6207 30.7253 29.6207 31.568C29.6207 32.4107 29.8287 33.0613 30.2447 33.52C30.6714 33.968 31.2047 34.192 31.8447 34.192ZM43.0238 27.008C44.0798 27.008 44.9331 27.344 45.5838 28.016C46.2345 28.6773 46.5598 29.6053 46.5598 30.8V36H44.3198V31.104C44.3198 30.4 44.1438 29.8613 43.7918 29.488C43.4398 29.104 42.9598 28.912 42.3518 28.912C41.7331 28.912 41.2425 29.104 40.8798 29.488C40.5278 29.8613 40.3518 30.4 40.3518 31.104V36H38.1118V27.136H40.3518V28.24C40.6505 27.856 41.0291 27.5573 41.4878 27.344C41.9571 27.12 42.4691 27.008 43.0238 27.008Z" fill="white"/>
<path d="M83.8603 24.832V26.64H80.8843V36H78.6443V26.64H75.6683V24.832H83.8603ZM93.8626 27.136V36H91.6066V34.88C91.3186 35.264 90.94 35.568 90.4706 35.792C90.012 36.0053 89.5106 36.112 88.9666 36.112C88.2733 36.112 87.66 35.968 87.1266 35.68C86.5933 35.3813 86.172 34.9493 85.8626 34.384C85.564 33.808 85.4146 33.1253 85.4146 32.336V27.136H87.6546V32.016C87.6546 32.72 87.8306 33.264 88.1826 33.648C88.5346 34.0213 89.0146 34.208 89.6226 34.208C90.2413 34.208 90.7266 34.0213 91.0786 33.648C91.4306 33.264 91.6066 32.72 91.6066 32.016V27.136H93.8626ZM104.313 31.376C104.313 31.696 104.291 31.984 104.249 32.24H97.7688C97.8221 32.88 98.0461 33.3813 98.4408 33.744C98.8354 34.1067 99.3208 34.288 99.8968 34.288C100.729 34.288 101.321 33.9307 101.673 33.216H104.089C103.833 34.0693 103.342 34.7733 102.617 35.328C101.891 35.872 101.001 36.144 99.9448 36.144C99.0914 36.144 98.3234 35.9573 97.6408 35.584C96.9688 35.2 96.4408 34.6613 96.0568 33.968C95.6834 33.2747 95.4967 32.4747 95.4967 31.568C95.4967 30.6507 95.6834 29.8453 96.0568 29.152C96.4301 28.4587 96.9528 27.9253 97.6248 27.552C98.2968 27.1787 99.0701 26.992 99.9448 26.992C100.787 26.992 101.539 27.1733 102.201 27.536C102.873 27.8987 103.39 28.416 103.753 29.088C104.126 29.7493 104.313 30.512 104.313 31.376ZM101.993 30.736C101.982 30.16 101.774 29.7013 101.369 29.36C100.963 29.008 100.467 28.832 99.8808 28.832C99.3261 28.832 98.8568 29.0027 98.4728 29.344C98.0994 29.6747 97.8701 30.1387 97.7848 30.736H101.993Z" fill="white"/>
<path d="M147.477 24.832L144.357 36H141.717L139.621 28.048L137.429 36L134.805 36.016L131.797 24.832H134.197L136.165 33.504L138.437 24.832H140.933L143.077 33.456L145.061 24.832H147.477ZM157.18 31.376C157.18 31.696 157.159 31.984 157.116 32.24H150.636C150.689 32.88 150.913 33.3813 151.308 33.744C151.703 34.1067 152.188 34.288 152.764 34.288C153.596 34.288 154.188 33.9307 154.54 33.216H156.956C156.7 34.0693 156.209 34.7733 155.484 35.328C154.759 35.872 153.868 36.144 152.812 36.144C151.959 36.144 151.191 35.9573 150.508 35.584C149.836 35.2 149.308 34.6613 148.924 33.968C148.551 33.2747 148.364 32.4747 148.364 31.568C148.364 30.6507 148.551 29.8453 148.924 29.152C149.297 28.4587 149.82 27.9253 150.492 27.552C151.164 27.1787 151.937 26.992 152.812 26.992C153.655 26.992 154.407 27.1733 155.068 27.536C155.74 27.8987 156.257 28.416 156.62 29.088C156.993 29.7493 157.18 30.512 157.18 31.376ZM154.86 30.736C154.849 30.16 154.641 29.7013 154.236 29.36C153.831 29.008 153.335 28.832 152.748 28.832C152.193 28.832 151.724 29.0027 151.34 29.344C150.967 29.6747 150.737 30.1387 150.652 30.736H154.86ZM158.239 31.536C158.239 30.64 158.415 29.8453 158.767 29.152C159.13 28.4587 159.62 27.9253 160.239 27.552C160.858 27.1787 161.546 26.992 162.303 26.992C162.879 26.992 163.428 27.12 163.951 27.376C164.474 27.6213 164.89 27.952 165.199 28.368V24.16H167.471V36H165.199V34.688C164.922 35.1253 164.532 35.4773 164.031 35.744C163.53 36.0107 162.948 36.144 162.287 36.144C161.54 36.144 160.858 35.952 160.239 35.568C159.62 35.184 159.13 34.6453 158.767 33.952C158.415 33.248 158.239 32.4427 158.239 31.536ZM165.215 31.568C165.215 31.024 165.108 30.56 164.895 30.176C164.682 29.7813 164.394 29.4827 164.031 29.28C163.668 29.0667 163.279 28.96 162.863 28.96C162.447 28.96 162.063 29.0613 161.711 29.264C161.359 29.4667 161.071 29.7653 160.847 30.16C160.634 30.544 160.527 31.0027 160.527 31.536C160.527 32.0693 160.634 32.5387 160.847 32.944C161.071 33.3387 161.359 33.6427 161.711 33.856C162.074 34.0693 162.458 34.176 162.863 34.176C163.279 34.176 163.668 34.0747 164.031 33.872C164.394 33.6587 164.682 33.36 164.895 32.976C165.108 32.5813 165.215 32.112 165.215 31.568Z" fill="white"/>
<path d="M203.509 24.832V26.64H200.533V36H198.293V26.64H195.317V24.832H203.509ZM210.135 27.008C210.807 27.008 211.404 27.1573 211.927 27.456C212.45 27.744 212.855 28.176 213.143 28.752C213.442 29.3173 213.591 30 213.591 30.8V36H211.351V31.104C211.351 30.4 211.175 29.8613 210.823 29.488C210.471 29.104 209.991 28.912 209.383 28.912C208.764 28.912 208.274 29.104 207.911 29.488C207.559 29.8613 207.383 30.4 207.383 31.104V36H205.143V24.16H207.383V28.24C207.671 27.856 208.055 27.5573 208.535 27.344C209.015 27.12 209.548 27.008 210.135 27.008ZM224.089 27.136V36H221.833V34.88C221.545 35.264 221.167 35.568 220.697 35.792C220.239 36.0053 219.737 36.112 219.193 36.112C218.5 36.112 217.887 35.968 217.353 35.68C216.82 35.3813 216.399 34.9493 216.089 34.384C215.791 33.808 215.641 33.1253 215.641 32.336V27.136H217.881V32.016C217.881 32.72 218.057 33.264 218.409 33.648C218.761 34.0213 219.241 34.208 219.849 34.208C220.468 34.208 220.953 34.0213 221.305 33.648C221.657 33.264 221.833 32.72 221.833 32.016V27.136H224.089Z" fill="white"/>
<path d="M268.297 24.832V26.64H263.641V29.504H267.209V31.28H263.641V36H261.401V24.832H268.297ZM272.125 28.512C272.413 28.0427 272.787 27.6747 273.245 27.408C273.715 27.1413 274.248 27.008 274.845 27.008V29.36H274.253C273.549 29.36 273.016 29.5253 272.653 29.856C272.301 30.1867 272.125 30.7627 272.125 31.584V36H269.885V27.136H272.125V28.512ZM277.49 26.08C277.095 26.08 276.765 25.9573 276.498 25.712C276.242 25.456 276.114 25.1413 276.114 24.768C276.114 24.3947 276.242 24.0853 276.498 23.84C276.765 23.584 277.095 23.456 277.49 23.456C277.885 23.456 278.21 23.584 278.466 23.84C278.733 24.0853 278.866 24.3947 278.866 24.768C278.866 25.1413 278.733 25.456 278.466 25.712C278.21 25.9573 277.885 26.08 277.49 26.08ZM278.594 27.136V36H276.354V27.136H278.594Z" fill="white"/>
<path d="M321.562 36.112C320.783 36.112 320.079 35.9787 319.45 35.712C318.831 35.4453 318.34 35.0613 317.978 34.56C317.615 34.0587 317.428 33.4667 317.418 32.784H319.818C319.85 33.2427 320.01 33.6053 320.298 33.872C320.596 34.1387 321.002 34.272 321.514 34.272C322.036 34.272 322.447 34.1493 322.746 33.904C323.044 33.648 323.194 33.3173 323.194 32.912C323.194 32.5813 323.092 32.3093 322.89 32.096C322.687 31.8827 322.431 31.7173 322.122 31.6C321.823 31.472 321.407 31.3333 320.874 31.184C320.148 30.9707 319.556 30.7627 319.098 30.56C318.65 30.3467 318.26 30.032 317.93 29.616C317.61 29.1893 317.45 28.624 317.45 27.92C317.45 27.2587 317.615 26.6827 317.946 26.192C318.276 25.7013 318.74 25.328 319.338 25.072C319.935 24.8053 320.618 24.672 321.386 24.672C322.538 24.672 323.471 24.9547 324.186 25.52C324.911 26.0747 325.311 26.8533 325.386 27.856H322.922C322.9 27.472 322.735 27.1573 322.426 26.912C322.127 26.656 321.727 26.528 321.226 26.528C320.788 26.528 320.436 26.64 320.17 26.864C319.914 27.088 319.786 27.4133 319.786 27.84C319.786 28.1387 319.882 28.3893 320.074 28.592C320.276 28.784 320.522 28.944 320.81 29.072C321.108 29.1893 321.524 29.328 322.058 29.488C322.783 29.7013 323.375 29.9147 323.834 30.128C324.292 30.3413 324.687 30.6613 325.018 31.088C325.348 31.5147 325.514 32.0747 325.514 32.768C325.514 33.3653 325.359 33.92 325.05 34.432C324.74 34.944 324.287 35.3547 323.69 35.664C323.092 35.9627 322.383 36.112 321.562 36.112ZM326.88 31.536C326.88 30.64 327.056 29.8453 327.408 29.152C327.77 28.4587 328.256 27.9253 328.864 27.552C329.482 27.1787 330.17 26.992 330.928 26.992C331.589 26.992 332.165 27.1253 332.656 27.392C333.157 27.6587 333.557 27.9947 333.856 28.4V27.136H336.112V36H333.856V34.704C333.568 35.12 333.168 35.4667 332.656 35.744C332.154 36.0107 331.573 36.144 330.912 36.144C330.165 36.144 329.482 35.952 328.864 35.568C328.256 35.184 327.77 34.6453 327.408 33.952C327.056 33.248 326.88 32.4427 326.88 31.536ZM333.856 31.568C333.856 31.024 333.749 30.56 333.536 30.176C333.322 29.7813 333.034 29.4827 332.672 29.28C332.309 29.0667 331.92 28.96 331.504 28.96C331.088 28.96 330.704 29.0613 330.352 29.264C330 29.4667 329.712 29.7653 329.488 30.16C329.274 30.544 329.168 31.0027 329.168 31.536C329.168 32.0693 329.274 32.5387 329.488 32.944C329.712 33.3387 330 33.6427 330.352 33.856C330.714 34.0693 331.098 34.176 331.504 34.176C331.92 34.176 332.309 34.0747 332.672 33.872C333.034 33.6587 333.322 33.36 333.536 32.976C333.749 32.5813 333.856 32.112 333.856 31.568ZM340.907 28.976V33.264C340.907 33.5627 340.977 33.7813 341.115 33.92C341.265 34.048 341.51 34.112 341.851 34.112H342.891V36H341.483C339.595 36 338.651 35.0827 338.651 33.248V28.976H337.595V27.136H338.651V24.944H340.907V27.136H342.891V28.976H340.907Z" fill="white"/>
<path d="M379.507 36.112C378.728 36.112 378.024 35.9787 377.395 35.712C376.776 35.4453 376.286 35.0613 375.923 34.56C375.56 34.0587 375.374 33.4667 375.363 32.784H377.763C377.795 33.2427 377.955 33.6053 378.243 33.872C378.542 34.1387 378.947 34.272 379.459 34.272C379.982 34.272 380.392 34.1493 380.691 33.904C380.99 33.648 381.139 33.3173 381.139 32.912C381.139 32.5813 381.038 32.3093 380.835 32.096C380.632 31.8827 380.376 31.7173 380.067 31.6C379.768 31.472 379.352 31.3333 378.819 31.184C378.094 30.9707 377.502 30.7627 377.043 30.56C376.595 30.3467 376.206 30.032 375.875 29.616C375.555 29.1893 375.395 28.624 375.395 27.92C375.395 27.2587 375.56 26.6827 375.891 26.192C376.222 25.7013 376.686 25.328 377.283 25.072C377.88 24.8053 378.563 24.672 379.331 24.672C380.483 24.672 381.416 24.9547 382.131 25.52C382.856 26.0747 383.256 26.8533 383.331 27.856H380.867C380.846 27.472 380.68 27.1573 380.371 26.912C380.072 26.656 379.672 26.528 379.171 26.528C378.734 26.528 378.382 26.64 378.115 26.864C377.859 27.088 377.731 27.4133 377.731 27.84C377.731 28.1387 377.827 28.3893 378.019 28.592C378.222 28.784 378.467 28.944 378.755 29.072C379.054 29.1893 379.47 29.328 380.003 29.488C380.728 29.7013 381.32 29.9147 381.779 30.128C382.238 30.3413 382.632 30.6613 382.963 31.088C383.294 31.5147 383.459 32.0747 383.459 32.768C383.459 33.3653 383.304 33.92 382.995 34.432C382.686 34.944 382.232 35.3547 381.635 35.664C381.038 35.9627 380.328 36.112 379.507 36.112ZM393.769 27.136V36H391.513V34.88C391.225 35.264 390.846 35.568 390.377 35.792C389.918 36.0053 389.417 36.112 388.873 36.112C388.18 36.112 387.566 35.968 387.033 35.68C386.5 35.3813 386.078 34.9493 385.769 34.384C385.47 33.808 385.321 33.1253 385.321 32.336V27.136H387.561V32.016C387.561 32.72 387.737 33.264 388.089 33.648C388.441 34.0213 388.921 34.208 389.529 34.208C390.148 34.208 390.633 34.0213 390.985 33.648C391.337 33.264 391.513 32.72 391.513 32.016V27.136H393.769ZM400.891 27.008C401.947 27.008 402.8 27.344 403.451 28.016C404.102 28.6773 404.427 29.6053 404.427 30.8V36H402.187V31.104C402.187 30.4 402.011 29.8613 401.659 29.488C401.307 29.104 400.827 28.912 400.219 28.912C399.6 28.912 399.11 29.104 398.747 29.488C398.395 29.8613 398.219 30.4 398.219 31.104V36H395.979V27.136H398.219V28.24C398.518 27.856 398.896 27.5573 399.355 27.344C399.824 27.12 400.336 27.008 400.891 27.008Z" fill="white"/>
<rect x="10" y="50" width="40" height="40" rx="8" fill="black" fill-opacity="0.1"/>
<path d="M23.0381 70.016C23.0381 68.1707 23.3475 66.7307 23.9661 65.696C24.5955 64.6507 25.6728 64.128 27.1981 64.128C28.7235 64.128 29.7955 64.6507 30.4141 65.696C31.0435 66.7307 31.3581 68.1707 31.3581 70.016C31.3581 71.8827 31.0435 73.344 30.4141 74.4C29.7955 75.4453 28.7235 75.968 27.1981 75.968C25.6728 75.968 24.5955 75.4453 23.9661 74.4C23.3475 73.344 23.0381 71.8827 23.0381 70.016ZM29.5661 70.016C29.5661 69.152 29.5075 68.4213 29.3901 67.824C29.2835 67.2267 29.0595 66.7413 28.7181 66.368C28.3768 65.984 27.8701 65.792 27.1981 65.792C26.5261 65.792 26.0195 65.984 25.6781 66.368C25.3368 66.7413 25.1075 67.2267 24.9901 67.824C24.8835 68.4213 24.8301 69.152 24.8301 70.016C24.8301 70.912 24.8835 71.664 24.9901 72.272C25.0968 72.88 25.3208 73.3707 25.6621 73.744C26.0141 74.1173 26.5261 74.304 27.1981 74.304C27.8701 74.304 28.3768 74.1173 28.7181 73.744C29.0701 73.3707 29.2995 72.88 29.4061 72.272C29.5128 71.664 29.5661 70.912 29.5661 70.016ZM33.0481 66V64.336H36.3761V76H34.5361V66H33.0481Z" fill="white"/>
<rect x="70" y="50" width="40" height="40" rx="8" fill="black" fill-opacity="0.1"/>
<path d="M81.2178 70.016C81.2178 68.1707 81.5271 66.7307 82.1458 65.696C82.7751 64.6507 83.8525 64.128 85.3778 64.128C86.9031 64.128 87.9751 64.6507 88.5938 65.696C89.2231 66.7307 89.5378 68.1707 89.5378 70.016C89.5378 71.8827 89.2231 73.344 88.5938 74.4C87.9751 75.4453 86.9031 75.968 85.3778 75.968C83.8525 75.968 82.7751 75.4453 82.1458 74.4C81.5271 73.344 81.2178 71.8827 81.2178 70.016ZM87.7458 70.016C87.7458 69.152 87.6871 68.4213 87.5698 67.824C87.4631 67.2267 87.2391 66.7413 86.8978 66.368C86.5565 65.984 86.0498 65.792 85.3778 65.792C84.7058 65.792 84.1991 65.984 83.8578 66.368C83.5165 66.7413 83.2871 67.2267 83.1698 67.824C83.0631 68.4213 83.0098 69.152 83.0098 70.016C83.0098 70.912 83.0631 71.664 83.1698 72.272C83.2765 72.88 83.5005 73.3707 83.8418 73.744C84.1938 74.1173 84.7058 74.304 85.3778 74.304C86.0498 74.304 86.5565 74.1173 86.8978 73.744C87.2498 73.3707 87.4791 72.88 87.5858 72.272C87.6925 71.664 87.7458 70.912 87.7458 70.016ZM92.4758 73.52C93.4998 72.6347 94.3051 71.9093 94.8918 71.344C95.4891 70.768 95.9851 70.1707 96.3798 69.552C96.7745 68.9333 96.9718 68.3147 96.9718 67.696C96.9718 67.056 96.8171 66.5547 96.5078 66.192C96.2091 65.8293 95.7345 65.648 95.0838 65.648C94.4545 65.648 93.9638 65.8507 93.6118 66.256C93.2705 66.6507 93.0891 67.184 93.0678 67.856H91.3078C91.3398 66.64 91.7025 65.712 92.3958 65.072C93.0998 64.4213 93.9905 64.096 95.0678 64.096C96.2305 64.096 97.1371 64.416 97.7878 65.056C98.4491 65.696 98.7798 66.5493 98.7798 67.616C98.7798 68.384 98.5825 69.1253 98.1878 69.84C97.8038 70.544 97.3398 71.1787 96.7958 71.744C96.2625 72.2987 95.5798 72.944 94.7478 73.68L94.0278 74.32H99.0998V75.84H91.3238V74.512L92.4758 73.52Z" fill="white"/>
<rect x="130" y="50" width="40" height="40" rx="8" fill="black" fill-opacity="0.1"/>
<path d="M141.085 70.016C141.085 68.1707 141.394 66.7307 142.013 65.696C142.642 64.6507 143.72 64.128 145.245 64.128C146.77 64.128 147.842 64.6507 148.461 65.696C149.09 66.7307 149.405 68.1707 149.405 70.016C149.405 71.8827 149.09 73.344 148.461 74.4C147.842 75.4453 146.77 75.968 145.245 75.968C143.72 75.968 142.642 75.4453 142.013 74.4C141.394 73.344 141.085 71.8827 141.085 70.016ZM147.613 70.016C147.613 69.152 147.554 68.4213 147.437 67.824C147.33 67.2267 147.106 66.7413 146.765 66.368C146.424 65.984 145.917 65.792 145.245 65.792C144.573 65.792 144.066 65.984 143.725 66.368C143.384 66.7413 143.154 67.2267 143.037 67.824C142.93 68.4213 142.877 69.152 142.877 70.016C142.877 70.912 142.93 71.664 143.037 72.272C143.144 72.88 143.368 73.3707 143.709 73.744C144.061 74.1173 144.573 74.304 145.245 74.304C145.917 74.304 146.424 74.1173 146.765 73.744C147.117 73.3707 147.346 72.88 147.453 72.272C147.56 71.664 147.613 70.912 147.613 70.016ZM151.303 67.216C151.367 66.224 151.746 65.4507 152.439 64.896C153.143 64.3413 154.039 64.064 155.127 64.064C155.874 64.064 156.519 64.1973 157.063 64.464C157.607 64.7307 158.018 65.0933 158.295 65.552C158.572 66.0107 158.711 66.528 158.711 67.104C158.711 67.7653 158.535 68.3307 158.183 68.8C157.831 69.2693 157.41 69.584 156.919 69.744V69.808C157.548 70 158.039 70.352 158.391 70.864C158.743 71.3653 158.919 72.0107 158.919 72.8C158.919 73.4293 158.775 73.9893 158.487 74.48C158.199 74.9707 157.772 75.36 157.207 75.648C156.642 75.9253 155.964 76.064 155.175 76.064C154.023 76.064 153.074 75.7707 152.327 75.184C151.591 74.5867 151.196 73.7333 151.143 72.624H152.903C152.946 73.1893 153.164 73.6533 153.559 74.016C153.954 74.368 154.487 74.544 155.159 74.544C155.81 74.544 156.311 74.368 156.663 74.016C157.015 73.6533 157.191 73.1893 157.191 72.624C157.191 71.8773 156.951 71.3493 156.471 71.04C156.002 70.72 155.276 70.56 154.295 70.56H153.879V69.056H154.311C155.175 69.0453 155.831 68.9013 156.279 68.624C156.738 68.3467 156.967 67.9093 156.967 67.312C156.967 66.8 156.802 66.3947 156.471 66.096C156.14 65.7867 155.671 65.632 155.063 65.632C154.466 65.632 154.002 65.7867 153.671 66.096C153.34 66.3947 153.143 66.768 153.079 67.216H151.303Z" fill="white"/>
<rect x="190" y="50" width="40" height="40" rx="8" fill="white"/>
<path d="M200.655 70.016C200.655 68.1707 200.965 66.7307 201.583 65.696C202.213 64.6507 203.29 64.128 204.815 64.128C206.341 64.128 207.413 64.6507 208.031 65.696C208.661 66.7307 208.975 68.1707 208.975 70.016C208.975 71.8827 208.661 73.344 208.031 74.4C207.413 75.4453 206.341 75.968 204.815 75.968C203.29 75.968 202.213 75.4453 201.583 74.4C200.965 73.344 200.655 71.8827 200.655 70.016ZM207.183 70.016C207.183 69.152 207.125 68.4213 207.007 67.824C206.901 67.2267 206.677 66.7413 206.335 66.368C205.994 65.984 205.487 65.792 204.815 65.792C204.143 65.792 203.637 65.984 203.295 66.368C202.954 66.7413 202.725 67.2267 202.607 67.824C202.501 68.4213 202.447 69.152 202.447 70.016C202.447 70.912 202.501 71.664 202.607 72.272C202.714 72.88 202.938 73.3707 203.279 73.744C203.631 74.1173 204.143 74.304 204.815 74.304C205.487 74.304 205.994 74.1173 206.335 73.744C206.687 73.3707 206.917 72.88 207.023 72.272C207.13 71.664 207.183 70.912 207.183 70.016ZM210.681 73.568V72.192L216.057 64.48H218.265V71.984H219.753V73.568H218.265V76H216.473V73.568H210.681ZM216.553 66.336L212.777 71.984H216.553V66.336Z" fill="#444444"/>
<path d="M260.726 70.016C260.726 68.1707 261.035 66.7307 261.654 65.696C262.283 64.6507 263.36 64.128 264.886 64.128C266.411 64.128 267.483 64.6507 268.102 65.696C268.731 66.7307 269.046 68.1707 269.046 70.016C269.046 71.8827 268.731 73.344 268.102 74.4C267.483 75.4453 266.411 75.968 264.886 75.968C263.36 75.968 262.283 75.4453 261.654 74.4C261.035 73.344 260.726 71.8827 260.726 70.016ZM267.254 70.016C267.254 69.152 267.195 68.4213 267.078 67.824C266.971 67.2267 266.747 66.7413 266.406 66.368C266.064 65.984 265.558 65.792 264.886 65.792C264.214 65.792 263.707 65.984 263.366 66.368C263.024 66.7413 262.795 67.2267 262.678 67.824C262.571 68.4213 262.518 69.152 262.518 70.016C262.518 70.912 262.571 71.664 262.678 72.272C262.784 72.88 263.008 73.3707 263.35 73.744C263.702 74.1173 264.214 74.304 264.886 74.304C265.558 74.304 266.064 74.1173 266.406 73.744C266.758 73.3707 266.987 72.88 267.094 72.272C267.2 71.664 267.254 70.912 267.254 70.016ZM278.496 65.904H273.136V69.088C273.36 68.7893 273.69 68.5387 274.128 68.336C274.576 68.1333 275.05 68.032 275.552 68.032C276.448 68.032 277.173 68.224 277.728 68.608C278.293 68.992 278.693 69.4773 278.928 70.064C279.173 70.6507 279.296 71.2693 279.296 71.92C279.296 72.7093 279.141 73.4133 278.832 74.032C278.533 74.64 278.08 75.12 277.472 75.472C276.874 75.824 276.138 76 275.264 76C274.101 76 273.168 75.712 272.464 75.136C271.76 74.56 271.338 73.7973 271.2 72.848H272.976C273.093 73.3493 273.354 73.7493 273.76 74.048C274.165 74.336 274.672 74.48 275.28 74.48C276.037 74.48 276.602 74.2507 276.976 73.792C277.36 73.3333 277.552 72.7253 277.552 71.968C277.552 71.2 277.36 70.6133 276.976 70.208C276.592 69.792 276.026 69.584 275.28 69.584C274.757 69.584 274.314 69.7173 273.952 69.984C273.6 70.24 273.344 70.592 273.184 71.04H271.456V64.304H278.496V65.904Z" fill="white"/>
<path d="M320.702 70.016C320.702 68.1707 321.012 66.7307 321.63 65.696C322.26 64.6507 323.337 64.128 324.862 64.128C326.388 64.128 327.46 64.6507 328.078 65.696C328.708 66.7307 329.022 68.1707 329.022 70.016C329.022 71.8827 328.708 73.344 328.078 74.4C327.46 75.4453 326.388 75.968 324.862 75.968C323.337 75.968 322.26 75.4453 321.63 74.4C321.012 73.344 320.702 71.8827 320.702 70.016ZM327.23 70.016C327.23 69.152 327.172 68.4213 327.054 67.824C326.948 67.2267 326.724 66.7413 326.382 66.368C326.041 65.984 325.534 65.792 324.862 65.792C324.19 65.792 323.684 65.984 323.342 66.368C323.001 66.7413 322.772 67.2267 322.654 67.824C322.548 68.4213 322.494 69.152 322.494 70.016C322.494 70.912 322.548 71.664 322.654 72.272C322.761 72.88 322.985 73.3707 323.326 73.744C323.678 74.1173 324.19 74.304 324.862 74.304C325.534 74.304 326.041 74.1173 326.382 73.744C326.734 73.3707 326.964 72.88 327.07 72.272C327.177 71.664 327.23 70.912 327.23 70.016ZM337.224 67.04C337.107 66.5493 336.894 66.1813 336.584 65.936C336.275 65.6907 335.843 65.568 335.288 65.568C334.446 65.568 333.816 65.8933 333.4 66.544C332.984 67.184 332.766 68.2507 332.744 69.744C333.022 69.2747 333.427 68.912 333.96 68.656C334.494 68.4 335.07 68.272 335.688 68.272C336.392 68.272 337.011 68.4267 337.544 68.736C338.088 69.0347 338.51 69.472 338.808 70.048C339.118 70.624 339.272 71.312 339.272 72.112C339.272 72.8587 339.123 73.5253 338.824 74.112C338.536 74.6987 338.104 75.1627 337.528 75.504C336.952 75.8347 336.259 76 335.448 76C334.35 76 333.486 75.76 332.856 75.28C332.238 74.7893 331.8 74.1013 331.544 73.216C331.299 72.3307 331.176 71.2267 331.176 69.904C331.176 66 332.552 64.048 335.304 64.048C336.371 64.048 337.208 64.336 337.816 64.912C338.435 65.488 338.798 66.1973 338.904 67.04H337.224ZM335.288 69.808C334.638 69.808 334.083 70.0053 333.624 70.4C333.176 70.784 332.952 71.344 332.952 72.08C332.952 72.816 333.16 73.4027 333.576 73.84C334.003 74.2667 334.595 74.48 335.352 74.48C336.024 74.48 336.552 74.272 336.936 73.856C337.331 73.44 337.528 72.8853 337.528 72.192C337.528 71.4667 337.336 70.8907 336.952 70.464C336.579 70.0267 336.024 69.808 335.288 69.808Z" fill="white"/>
<path d="M381.358 70.016C381.358 68.1707 381.668 66.7307 382.286 65.696C382.916 64.6507 383.993 64.128 385.518 64.128C387.044 64.128 388.116 64.6507 388.734 65.696C389.364 66.7307 389.678 68.1707 389.678 70.016C389.678 71.8827 389.364 73.344 388.734 74.4C388.116 75.4453 387.044 75.968 385.518 75.968C383.993 75.968 382.916 75.4453 382.286 74.4C381.668 73.344 381.358 71.8827 381.358 70.016ZM387.886 70.016C387.886 69.152 387.828 68.4213 387.71 67.824C387.604 67.2267 387.38 66.7413 387.038 66.368C386.697 65.984 386.19 65.792 385.518 65.792C384.846 65.792 384.34 65.984 383.998 66.368C383.657 66.7413 383.428 67.2267 383.31 67.824C383.204 68.4213 383.15 69.152 383.15 70.016C383.15 70.912 383.204 71.664 383.31 72.272C383.417 72.88 383.641 73.3707 383.982 73.744C384.334 74.1173 384.846 74.304 385.518 74.304C386.19 74.304 386.697 74.1173 387.038 73.744C387.39 73.3707 387.62 72.88 387.726 72.272C387.833 71.664 387.886 70.912 387.886 70.016ZM399 65.744L394.552 76H392.712L397.208 65.936H391.288V64.384H399V65.744Z" fill="white"/>
<path d="M20.7334 110.016C20.7334 108.171 21.0428 106.731 21.6614 105.696C22.2908 104.651 23.3681 104.128 24.8934 104.128C26.4188 104.128 27.4908 104.651 28.1094 105.696C28.7388 106.731 29.0534 108.171 29.0534 110.016C29.0534 111.883 28.7388 113.344 28.1094 114.4C27.4908 115.445 26.4188 115.968 24.8934 115.968C23.3681 115.968 22.2908 115.445 21.6614 114.4C21.0428 113.344 20.7334 111.883 20.7334 110.016ZM27.2614 110.016C27.2614 109.152 27.2028 108.421 27.0854 107.824C26.9788 107.227 26.7548 106.741 26.4134 106.368C26.0721 105.984 25.5654 105.792 24.8934 105.792C24.2214 105.792 23.7148 105.984 23.3734 106.368C23.0321 106.741 22.8028 107.227 22.6854 107.824C22.5788 108.421 22.5254 109.152 22.5254 110.016C22.5254 110.912 22.5788 111.664 22.6854 112.272C22.7921 112.88 23.0161 113.371 23.3574 113.744C23.7094 114.117 24.2214 114.304 24.8934 114.304C25.5654 114.304 26.0721 114.117 26.4134 113.744C26.7654 113.371 26.9948 112.88 27.1014 112.272C27.2081 111.664 27.2614 110.912 27.2614 110.016ZM32.9514 109.904C31.8421 109.349 31.2874 108.475 31.2874 107.28C31.2874 106.704 31.4314 106.176 31.7194 105.696C32.0074 105.216 32.4394 104.837 33.0154 104.56C33.5914 104.272 34.2954 104.128 35.1274 104.128C35.9488 104.128 36.6474 104.272 37.2234 104.56C37.8101 104.837 38.2474 105.216 38.5354 105.696C38.8234 106.176 38.9674 106.704 38.9674 107.28C38.9674 107.877 38.8128 108.405 38.5034 108.864C38.2048 109.312 37.8048 109.659 37.3034 109.904C37.9114 110.128 38.3914 110.496 38.7434 111.008C39.0954 111.509 39.2714 112.101 39.2714 112.784C39.2714 113.477 39.0954 114.091 38.7434 114.624C38.3914 115.157 37.9008 115.568 37.2714 115.856C36.6421 116.144 35.9274 116.288 35.1274 116.288C34.3274 116.288 33.6128 116.144 32.9834 115.856C32.3648 115.568 31.8794 115.157 31.5274 114.624C31.1754 114.091 30.9994 113.477 30.9994 112.784C30.9994 112.091 31.1754 111.493 31.5274 110.992C31.8794 110.491 32.3541 110.128 32.9514 109.904ZM37.2234 107.504C37.2234 106.907 37.0368 106.448 36.6634 106.128C36.2901 105.808 35.7781 105.648 35.1274 105.648C34.4874 105.648 33.9808 105.808 33.6074 106.128C33.2341 106.448 33.0474 106.912 33.0474 107.52C33.0474 108.053 33.2394 108.491 33.6234 108.832C34.0181 109.163 34.5194 109.328 35.1274 109.328C35.7354 109.328 36.2368 109.157 36.6314 108.816C37.0261 108.475 37.2234 108.037 37.2234 107.504ZM35.1274 110.704C34.4234 110.704 33.8474 110.88 33.3994 111.232C32.9621 111.573 32.7434 112.069 32.7434 112.72C32.7434 113.328 32.9568 113.824 33.3834 114.208C33.8101 114.581 34.3914 114.768 35.1274 114.768C35.8528 114.768 36.4234 114.576 36.8394 114.192C37.2661 113.808 37.4794 113.317 37.4794 112.72C37.4794 112.08 37.2608 111.584 36.8234 111.232C36.3968 110.88 35.8314 110.704 35.1274 110.704Z" fill="white"/>
<path d="M80.7569 110.016C80.7569 108.171 81.0662 106.731 81.6849 105.696C82.3142 104.651 83.3915 104.128 84.9169 104.128C86.4422 104.128 87.5142 104.651 88.1329 105.696C88.7622 106.731 89.0769 108.171 89.0769 110.016C89.0769 111.883 88.7622 113.344 88.1329 114.4C87.5142 115.445 86.4422 115.968 84.9169 115.968C83.3915 115.968 82.3142 115.445 81.6849 114.4C81.0662 113.344 80.7569 111.883 80.7569 110.016ZM87.2849 110.016C87.2849 109.152 87.2262 108.421 87.1089 107.824C87.0022 107.227 86.7782 106.741 86.4369 106.368C86.0955 105.984 85.5889 105.792 84.9169 105.792C84.2449 105.792 83.7382 105.984 83.3969 106.368C83.0555 106.741 82.8262 107.227 82.7089 107.824C82.6022 108.421 82.5489 109.152 82.5489 110.016C82.5489 110.912 82.6022 111.664 82.7089 112.272C82.8155 112.88 83.0395 113.371 83.3809 113.744C83.7329 114.117 84.2449 114.304 84.9169 114.304C85.5889 114.304 86.0955 114.117 86.4369 113.744C86.7889 113.371 87.0182 112.88 87.1249 112.272C87.2315 111.664 87.2849 110.912 87.2849 110.016ZM93.2789 112.832C93.3855 113.365 93.6149 113.771 93.9669 114.048C94.3189 114.325 94.7935 114.464 95.3909 114.464C96.1482 114.464 96.7029 114.165 97.0549 113.568C97.4069 112.971 97.5829 111.952 97.5829 110.512C97.3269 110.875 96.9642 111.157 96.4949 111.36C96.0362 111.552 95.5349 111.648 94.9909 111.648C94.2975 111.648 93.6682 111.509 93.1029 111.232C92.5375 110.944 92.0895 110.523 91.7589 109.968C91.4389 109.403 91.2789 108.72 91.2789 107.92C91.2789 106.747 91.6202 105.813 92.3029 105.12C92.9962 104.416 93.9455 104.064 95.1509 104.064C96.6015 104.064 97.6309 104.549 98.2389 105.52C98.8575 106.48 99.1669 107.957 99.1669 109.952C99.1669 111.328 99.0495 112.453 98.8149 113.328C98.5909 114.203 98.1962 114.864 97.6309 115.312C97.0655 115.76 96.2815 115.984 95.2789 115.984C94.1375 115.984 93.2575 115.685 92.6389 115.088C92.0202 114.491 91.6735 113.739 91.5989 112.832H93.2789ZM95.3109 110.112C95.9509 110.112 96.4522 109.915 96.8149 109.52C97.1882 109.115 97.3749 108.581 97.3749 107.92C97.3749 107.184 97.1775 106.613 96.7829 106.208C96.3989 105.792 95.8709 105.584 95.1989 105.584C94.5269 105.584 93.9935 105.797 93.5989 106.224C93.2149 106.64 93.0229 107.189 93.0229 107.872C93.0229 108.523 93.2095 109.061 93.5829 109.488C93.9669 109.904 94.5429 110.112 95.3109 110.112Z" fill="white"/>
<path d="M142.798 106V104.336H146.126V116H144.286V106H142.798ZM148.632 110.016C148.632 108.171 148.941 106.731 149.56 105.696C150.189 104.651 151.267 104.128 152.792 104.128C154.317 104.128 155.389 104.651 156.008 105.696C156.637 106.731 156.952 108.171 156.952 110.016C156.952 111.883 156.637 113.344 156.008 114.4C155.389 115.445 154.317 115.968 152.792 115.968C151.267 115.968 150.189 115.445 149.56 114.4C148.941 113.344 148.632 111.883 148.632 110.016ZM155.16 110.016C155.16 109.152 155.101 108.421 154.984 107.824C154.877 107.227 154.653 106.741 154.312 106.368C153.971 105.984 153.464 105.792 152.792 105.792C152.12 105.792 151.613 105.984 151.272 106.368C150.931 106.741 150.701 107.227 150.584 107.824C150.477 108.421 150.424 109.152 150.424 110.016C150.424 110.912 150.477 111.664 150.584 112.272C150.691 112.88 150.915 113.371 151.256 113.744C151.608 114.117 152.12 114.304 152.792 114.304C153.464 114.304 153.971 114.117 154.312 113.744C154.664 113.371 154.893 112.88 155 112.272C155.107 111.664 155.16 110.912 155.16 110.016Z" fill="white"/>
<path d="M205.126 106V104.336H208.454V116H206.614V106H205.126ZM210.72 106V104.336H214.048V116H212.208V106H210.72Z" fill="white"/>
<path d="M263.306 106V104.336H266.634V116H264.794V106H263.306ZM270.148 113.52C271.172 112.635 271.977 111.909 272.564 111.344C273.161 110.768 273.657 110.171 274.052 109.552C274.446 108.933 274.644 108.315 274.644 107.696C274.644 107.056 274.489 106.555 274.18 106.192C273.881 105.829 273.406 105.648 272.756 105.648C272.126 105.648 271.636 105.851 271.284 106.256C270.942 106.651 270.761 107.184 270.74 107.856H268.98C269.012 106.64 269.374 105.712 270.068 105.072C270.772 104.421 271.662 104.096 272.74 104.096C273.902 104.096 274.809 104.416 275.46 105.056C276.121 105.696 276.452 106.549 276.452 107.616C276.452 108.384 276.254 109.125 275.86 109.84C275.476 110.544 275.012 111.179 274.468 111.744C273.934 112.299 273.252 112.944 272.42 113.68L271.7 114.32H276.772V115.84H268.996V114.512L270.148 113.52Z" fill="white"/>
<path d="M323.173 106V104.336H326.501V116H324.661V106H323.173ZM328.975 107.216C329.039 106.224 329.418 105.451 330.111 104.896C330.815 104.341 331.711 104.064 332.799 104.064C333.546 104.064 334.191 104.197 334.735 104.464C335.279 104.731 335.69 105.093 335.967 105.552C336.244 106.011 336.383 106.528 336.383 107.104C336.383 107.765 336.207 108.331 335.855 108.8C335.503 109.269 335.082 109.584 334.591 109.744V109.808C335.22 110 335.711 110.352 336.063 110.864C336.415 111.365 336.591 112.011 336.591 112.8C336.591 113.429 336.447 113.989 336.159 114.48C335.871 114.971 335.444 115.36 334.879 115.648C334.314 115.925 333.636 116.064 332.847 116.064C331.695 116.064 330.746 115.771 329.999 115.184C329.263 114.587 328.868 113.733 328.815 112.624H330.575C330.618 113.189 330.836 113.653 331.231 114.016C331.626 114.368 332.159 114.544 332.831 114.544C333.482 114.544 333.983 114.368 334.335 114.016C334.687 113.653 334.863 113.189 334.863 112.624C334.863 111.877 334.623 111.349 334.143 111.04C333.674 110.72 332.948 110.56 331.967 110.56H331.551V109.056H331.983C332.847 109.045 333.503 108.901 333.951 108.624C334.41 108.347 334.639 107.909 334.639 107.312C334.639 106.8 334.474 106.395 334.143 106.096C333.812 105.787 333.343 105.632 332.735 105.632C332.138 105.632 331.674 105.787 331.343 106.096C331.012 106.395 330.815 106.768 330.751 107.216H328.975Z" fill="white"/>
<path d="M382.743 106V104.336H386.071V116H384.231V106H382.743ZM388.353 113.568V112.192L393.729 104.48H395.937V111.984H397.425V113.568H395.937V116H394.145V113.568H388.353ZM394.225 106.336L390.449 111.984H394.225V106.336Z" fill="white"/>
<path d="M22.8138 146V144.336H26.1418V156H24.3018V146H22.8138ZM36.1675 145.904H30.8075V149.088C31.0315 148.789 31.3622 148.539 31.7995 148.336C32.2475 148.133 32.7222 148.032 33.2235 148.032C34.1195 148.032 34.8448 148.224 35.3995 148.608C35.9648 148.992 36.3648 149.477 36.5995 150.064C36.8448 150.651 36.9675 151.269 36.9675 151.92C36.9675 152.709 36.8128 153.413 36.5035 154.032C36.2048 154.64 35.7515 155.12 35.1435 155.472C34.5462 155.824 33.8102 156 32.9355 156C31.7728 156 30.8395 155.712 30.1355 155.136C29.4315 154.56 29.0102 153.797 28.8715 152.848H30.6475C30.7648 153.349 31.0262 153.749 31.4315 154.048C31.8368 154.336 32.3435 154.48 32.9515 154.48C33.7088 154.48 34.2742 154.251 34.6475 153.792C35.0315 153.333 35.2235 152.725 35.2235 151.968C35.2235 151.2 35.0315 150.613 34.6475 150.208C34.2635 149.792 33.6982 149.584 32.9515 149.584C32.4288 149.584 31.9862 149.717 31.6235 149.984C31.2715 150.24 31.0155 150.592 30.8555 151.04H29.1275V144.304H36.1675V145.904Z" fill="white"/>
<path d="M82.7903 146V144.336H86.1183V156H84.2783V146H82.7903ZM94.8961 147.04C94.7787 146.549 94.5654 146.181 94.2561 145.936C93.9467 145.691 93.5147 145.568 92.9601 145.568C92.1174 145.568 91.4881 145.893 91.0721 146.544C90.6561 147.184 90.4374 148.251 90.4161 149.744C90.6934 149.275 91.0987 148.912 91.6321 148.656C92.1654 148.4 92.7414 148.272 93.3601 148.272C94.0641 148.272 94.6827 148.427 95.2161 148.736C95.7601 149.035 96.1814 149.472 96.4801 150.048C96.7894 150.624 96.9441 151.312 96.9441 152.112C96.9441 152.859 96.7947 153.525 96.4961 154.112C96.2081 154.699 95.7761 155.163 95.2001 155.504C94.6241 155.835 93.9307 156 93.1201 156C92.0214 156 91.1574 155.76 90.5281 155.28C89.9094 154.789 89.4721 154.101 89.2161 153.216C88.9707 152.331 88.8481 151.227 88.8481 149.904C88.8481 146 90.2241 144.048 92.9761 144.048C94.0427 144.048 94.8801 144.336 95.4881 144.912C96.1067 145.488 96.4694 146.197 96.5761 147.04H94.8961ZM92.9601 149.808C92.3094 149.808 91.7547 150.005 91.2961 150.4C90.8481 150.784 90.6241 151.344 90.6241 152.08C90.6241 152.816 90.8321 153.403 91.2481 153.84C91.6747 154.267 92.2667 154.48 93.0241 154.48C93.6961 154.48 94.2241 154.272 94.6081 153.856C95.0027 153.44 95.2001 152.885 95.2001 152.192C95.2001 151.467 95.0081 150.891 94.6241 150.464C94.2507 150.027 93.6961 149.808 92.9601 149.808Z" fill="white"/>
<path d="M143.447 146V144.336H146.775V156H144.935V146H143.447ZM156.672 145.744L152.224 156H150.384L154.88 145.936H148.96V144.384H156.672V145.744Z" fill="white"/>
<path d="M202.822 146V144.336H206.15V156H204.31V146H202.822ZM210.623 149.904C209.514 149.349 208.959 148.475 208.959 147.28C208.959 146.704 209.103 146.176 209.391 145.696C209.679 145.216 210.111 144.837 210.687 144.56C211.263 144.272 211.967 144.128 212.799 144.128C213.621 144.128 214.319 144.272 214.895 144.56C215.482 144.837 215.919 145.216 216.207 145.696C216.495 146.176 216.639 146.704 216.639 147.28C216.639 147.877 216.485 148.405 216.175 148.864C215.877 149.312 215.477 149.659 214.975 149.904C215.583 150.128 216.063 150.496 216.415 151.008C216.767 151.509 216.943 152.101 216.943 152.784C216.943 153.477 216.767 154.091 216.415 154.624C216.063 155.157 215.573 155.568 214.943 155.856C214.314 156.144 213.599 156.288 212.799 156.288C211.999 156.288 211.285 156.144 210.655 155.856C210.037 155.568 209.551 155.157 209.199 154.624C208.847 154.091 208.671 153.477 208.671 152.784C208.671 152.091 208.847 151.493 209.199 150.992C209.551 150.491 210.026 150.128 210.623 149.904ZM214.895 147.504C214.895 146.907 214.709 146.448 214.335 146.128C213.962 145.808 213.45 145.648 212.799 145.648C212.159 145.648 211.653 145.808 211.279 146.128C210.906 146.448 210.719 146.912 210.719 147.52C210.719 148.053 210.911 148.491 211.295 148.832C211.69 149.163 212.191 149.328 212.799 149.328C213.407 149.328 213.909 149.157 214.303 148.816C214.698 148.475 214.895 148.037 214.895 147.504ZM212.799 150.704C212.095 150.704 211.519 150.88 211.071 151.232C210.634 151.573 210.415 152.069 210.415 152.72C210.415 153.328 210.629 153.824 211.055 154.208C211.482 154.581 212.063 154.768 212.799 154.768C213.525 154.768 214.095 154.576 214.511 154.192C214.938 153.808 215.151 153.317 215.151 152.72C215.151 152.08 214.933 151.584 214.495 151.232C214.069 150.88 213.503 150.704 212.799 150.704Z" fill="white"/>
<path d="M262.845 146V144.336H266.173V156H264.333V146H262.845ZM270.951 152.832C271.057 153.365 271.287 153.771 271.639 154.048C271.991 154.325 272.465 154.464 273.063 154.464C273.82 154.464 274.375 154.165 274.727 153.568C275.079 152.971 275.255 151.952 275.255 150.512C274.999 150.875 274.636 151.157 274.167 151.36C273.708 151.552 273.207 151.648 272.663 151.648C271.969 151.648 271.34 151.509 270.775 151.232C270.209 150.944 269.761 150.523 269.431 149.968C269.111 149.403 268.951 148.72 268.951 147.92C268.951 146.747 269.292 145.813 269.975 145.12C270.668 144.416 271.617 144.064 272.823 144.064C274.273 144.064 275.303 144.549 275.911 145.52C276.529 146.48 276.839 147.957 276.839 149.952C276.839 151.328 276.721 152.453 276.487 153.328C276.263 154.203 275.868 154.864 275.303 155.312C274.737 155.76 273.953 155.984 272.951 155.984C271.809 155.984 270.929 155.685 270.311 155.088C269.692 154.491 269.345 153.739 269.271 152.832H270.951ZM272.983 150.112C273.623 150.112 274.124 149.915 274.487 149.52C274.86 149.115 275.047 148.581 275.047 147.92C275.047 147.184 274.849 146.613 274.455 146.208C274.071 145.792 273.543 145.584 272.871 145.584C272.199 145.584 271.665 145.797 271.271 146.224C270.887 146.64 270.695 147.189 270.695 147.872C270.695 148.523 270.881 149.061 271.255 149.488C271.639 149.904 272.215 150.112 272.983 150.112Z" fill="white"/>
<path d="M322.226 153.52C323.25 152.635 324.055 151.909 324.642 151.344C325.239 150.768 325.735 150.171 326.13 149.552C326.524 148.933 326.722 148.315 326.722 147.696C326.722 147.056 326.567 146.555 326.258 146.192C325.959 145.829 325.484 145.648 324.834 145.648C324.204 145.648 323.714 145.851 323.362 146.256C323.02 146.651 322.839 147.184 322.818 147.856H321.058C321.09 146.64 321.452 145.712 322.146 145.072C322.85 144.421 323.74 144.096 324.818 144.096C325.98 144.096 326.887 144.416 327.538 145.056C328.199 145.696 328.53 146.549 328.53 147.616C328.53 148.384 328.332 149.125 327.938 149.84C327.554 150.544 327.09 151.179 326.546 151.744C326.012 152.299 325.33 152.944 324.498 153.68L323.778 154.32H328.85V155.84H321.074V154.512L322.226 153.52ZM330.452 150.016C330.452 148.171 330.762 146.731 331.38 145.696C332.01 144.651 333.087 144.128 334.612 144.128C336.138 144.128 337.21 144.651 337.828 145.696C338.458 146.731 338.772 148.171 338.772 150.016C338.772 151.883 338.458 153.344 337.828 154.4C337.21 155.445 336.138 155.968 334.612 155.968C333.087 155.968 332.01 155.445 331.38 154.4C330.762 153.344 330.452 151.883 330.452 150.016ZM336.98 150.016C336.98 149.152 336.922 148.421 336.804 147.824C336.698 147.227 336.474 146.741 336.132 146.368C335.791 145.984 335.284 145.792 334.612 145.792C333.94 145.792 333.434 145.984 333.092 146.368C332.751 146.741 332.522 147.227 332.404 147.824C332.298 148.421 332.244 149.152 332.244 150.016C332.244 150.912 332.298 151.664 332.404 152.272C332.511 152.88 332.735 153.371 333.076 153.744C333.428 154.117 333.94 154.304 334.612 154.304C335.284 154.304 335.791 154.117 336.132 153.744C336.484 153.371 336.714 152.88 336.82 152.272C336.927 151.664 336.98 150.912 336.98 150.016Z" fill="white"/>
<path d="M384.554 153.52C385.578 152.635 386.383 151.909 386.97 151.344C387.567 150.768 388.063 150.171 388.458 149.552C388.853 148.933 389.05 148.315 389.05 147.696C389.05 147.056 388.895 146.555 388.586 146.192C388.287 145.829 387.813 145.648 387.162 145.648C386.533 145.648 386.042 145.851 385.69 146.256C385.349 146.651 385.167 147.184 385.146 147.856H383.386C383.418 146.64 383.781 145.712 384.474 145.072C385.178 144.421 386.069 144.096 387.146 144.096C388.309 144.096 389.215 144.416 389.866 145.056C390.527 145.696 390.858 146.549 390.858 147.616C390.858 148.384 390.661 149.125 390.266 149.84C389.882 150.544 389.418 151.179 388.874 151.744C388.341 152.299 387.658 152.944 386.826 153.68L386.106 154.32H391.178V155.84H383.402V154.512L384.554 153.52ZM392.54 146V144.336H395.868V156H394.028V146H392.54Z" fill="white"/>
<path d="M22.7336 193.52C23.7576 192.635 24.563 191.909 25.1496 191.344C25.747 190.768 26.243 190.171 26.6376 189.552C27.0323 188.933 27.2296 188.315 27.2296 187.696C27.2296 187.056 27.075 186.555 26.7656 186.192C26.467 185.829 25.9923 185.648 25.3416 185.648C24.7123 185.648 24.2216 185.851 23.8696 186.256C23.5283 186.651 23.347 187.184 23.3256 187.856H21.5656C21.5976 186.64 21.9603 185.712 22.6536 185.072C23.3576 184.421 24.2483 184.096 25.3256 184.096C26.4883 184.096 27.395 184.416 28.0456 185.056C28.707 185.696 29.0376 186.549 29.0376 187.616C29.0376 188.384 28.8403 189.125 28.4456 189.84C28.0616 190.544 27.5976 191.179 27.0536 191.744C26.5203 192.299 25.8376 192.944 25.0056 193.68L24.2856 194.32H29.3576V195.84H21.5816V194.512L22.7336 193.52ZM31.968 193.52C32.992 192.635 33.7973 191.909 34.384 191.344C34.9813 190.768 35.4773 190.171 35.872 189.552C36.2667 188.933 36.464 188.315 36.464 187.696C36.464 187.056 36.3093 186.555 36 186.192C35.7013 185.829 35.2267 185.648 34.576 185.648C33.9467 185.648 33.456 185.851 33.104 186.256C32.7627 186.651 32.5813 187.184 32.56 187.856H30.8C30.832 186.64 31.1947 185.712 31.888 185.072C32.592 184.421 33.4827 184.096 34.56 184.096C35.7227 184.096 36.6293 184.416 37.28 185.056C37.9413 185.696 38.272 186.549 38.272 187.616C38.272 188.384 38.0747 189.125 37.68 189.84C37.296 190.544 36.832 191.179 36.288 191.744C35.7547 192.299 35.072 192.944 34.24 193.68L33.52 194.32H38.592V195.84H30.816V194.512L31.968 193.52Z" fill="white"/>
<path d="M82.6008 193.52C83.6248 192.635 84.4301 191.909 85.0168 191.344C85.6141 190.768 86.1101 190.171 86.5048 189.552C86.8995 188.933 87.0968 188.315 87.0968 187.696C87.0968 187.056 86.9421 186.555 86.6328 186.192C86.3341 185.829 85.8595 185.648 85.2088 185.648C84.5795 185.648 84.0888 185.851 83.7368 186.256C83.3955 186.651 83.2141 187.184 83.1928 187.856H81.4328C81.4648 186.64 81.8275 185.712 82.5208 185.072C83.2248 184.421 84.1155 184.096 85.1928 184.096C86.3555 184.096 87.2621 184.416 87.9128 185.056C88.5741 185.696 88.9048 186.549 88.9048 187.616C88.9048 188.384 88.7075 189.125 88.3128 189.84C87.9288 190.544 87.4648 191.179 86.9208 191.744C86.3875 192.299 85.7048 192.944 84.8728 193.68L84.1528 194.32H89.2248V195.84H81.4488V194.512L82.6008 193.52ZM90.7952 187.216C90.8592 186.224 91.2379 185.451 91.9312 184.896C92.6352 184.341 93.5312 184.064 94.6192 184.064C95.3659 184.064 96.0112 184.197 96.5552 184.464C97.0992 184.731 97.5099 185.093 97.7872 185.552C98.0645 186.011 98.2032 186.528 98.2032 187.104C98.2032 187.765 98.0272 188.331 97.6752 188.8C97.3232 189.269 96.9019 189.584 96.4112 189.744V189.808C97.0405 190 97.5312 190.352 97.8832 190.864C98.2352 191.365 98.4112 192.011 98.4112 192.8C98.4112 193.429 98.2672 193.989 97.9792 194.48C97.6912 194.971 97.2645 195.36 96.6992 195.648C96.1339 195.925 95.4565 196.064 94.6672 196.064C93.5152 196.064 92.5659 195.771 91.8192 195.184C91.0832 194.587 90.6885 193.733 90.6352 192.624H92.3952C92.4379 193.189 92.6565 193.653 93.0512 194.016C93.4459 194.368 93.9792 194.544 94.6512 194.544C95.3019 194.544 95.8032 194.368 96.1552 194.016C96.5072 193.653 96.6832 193.189 96.6832 192.624C96.6832 191.877 96.4432 191.349 95.9632 191.04C95.4939 190.72 94.7685 190.56 93.7872 190.56H93.3712V189.056H93.8032C94.6672 189.045 95.3232 188.901 95.7712 188.624C96.2299 188.347 96.4592 187.909 96.4592 187.312C96.4592 186.8 96.2939 186.395 95.9632 186.096C95.6325 185.787 95.1632 185.632 94.5552 185.632C93.9579 185.632 93.4939 185.787 93.1632 186.096C92.8325 186.395 92.6352 186.768 92.5712 187.216H90.7952Z" fill="white"/>
<path d="M142.171 193.52C143.195 192.635 144 191.909 144.587 191.344C145.184 190.768 145.68 190.171 146.075 189.552C146.47 188.933 146.667 188.315 146.667 187.696C146.667 187.056 146.512 186.555 146.203 186.192C145.904 185.829 145.43 185.648 144.779 185.648C144.15 185.648 143.659 185.851 143.307 186.256C142.966 186.651 142.784 187.184 142.763 187.856H141.003C141.035 186.64 141.398 185.712 142.091 185.072C142.795 184.421 143.686 184.096 144.763 184.096C145.926 184.096 146.832 184.416 147.483 185.056C148.144 185.696 148.475 186.549 148.475 187.616C148.475 188.384 148.278 189.125 147.883 189.84C147.499 190.544 147.035 191.179 146.491 191.744C145.958 192.299 145.275 192.944 144.443 193.68L143.723 194.32H148.795V195.84H141.019V194.512L142.171 193.52ZM150.174 193.568V192.192L155.55 184.48H157.758V191.984H159.246V193.568H157.758V196H155.966V193.568H150.174ZM156.046 186.336L152.27 191.984H156.046V186.336Z" fill="white"/>
<path d="M202.241 193.52C203.265 192.635 204.071 191.909 204.657 191.344C205.255 190.768 205.751 190.171 206.145 189.552C206.54 188.933 206.737 188.315 206.737 187.696C206.737 187.056 206.583 186.555 206.273 186.192C205.975 185.829 205.5 185.648 204.849 185.648C204.22 185.648 203.729 185.851 203.377 186.256C203.036 186.651 202.855 187.184 202.833 187.856H201.073C201.105 186.64 201.468 185.712 202.161 185.072C202.865 184.421 203.756 184.096 204.833 184.096C205.996 184.096 206.903 184.416 207.553 185.056C208.215 185.696 208.545 186.549 208.545 187.616C208.545 188.384 208.348 189.125 207.953 189.84C207.569 190.544 207.105 191.179 206.561 191.744C206.028 192.299 205.345 192.944 204.513 193.68L203.793 194.32H208.865V195.84H201.089V194.512L202.241 193.52ZM217.988 185.904H212.628V189.088C212.852 188.789 213.182 188.539 213.62 188.336C214.068 188.133 214.542 188.032 215.044 188.032C215.94 188.032 216.665 188.224 217.22 188.608C217.785 188.992 218.185 189.477 218.42 190.064C218.665 190.651 218.788 191.269 218.788 191.92C218.788 192.709 218.633 193.413 218.324 194.032C218.025 194.64 217.572 195.12 216.964 195.472C216.366 195.824 215.63 196 214.756 196C213.593 196 212.66 195.712 211.956 195.136C211.252 194.56 210.83 193.797 210.692 192.848H212.468C212.585 193.349 212.846 193.749 213.252 194.048C213.657 194.336 214.164 194.48 214.772 194.48C215.529 194.48 216.094 194.251 216.468 193.792C216.852 193.333 217.044 192.725 217.044 191.968C217.044 191.2 216.852 190.613 216.468 190.208C216.084 189.792 215.518 189.584 214.772 189.584C214.249 189.584 213.806 189.717 213.444 189.984C213.092 190.24 212.836 190.592 212.676 191.04H210.948V184.304H217.988V185.904Z" fill="white"/>
<path d="M262.218 193.52C263.242 192.635 264.047 191.909 264.634 191.344C265.231 190.768 265.727 190.171 266.122 189.552C266.517 188.933 266.714 188.315 266.714 187.696C266.714 187.056 266.559 186.555 266.25 186.192C265.951 185.829 265.477 185.648 264.826 185.648C264.197 185.648 263.706 185.851 263.354 186.256C263.013 186.651 262.831 187.184 262.81 187.856H261.05C261.082 186.64 261.445 185.712 262.138 185.072C262.842 184.421 263.733 184.096 264.81 184.096C265.973 184.096 266.879 184.416 267.53 185.056C268.191 185.696 268.522 186.549 268.522 187.616C268.522 188.384 268.325 189.125 267.93 189.84C267.546 190.544 267.082 191.179 266.538 191.744C266.005 192.299 265.322 192.944 264.49 193.68L263.77 194.32H268.842V195.84H261.066V194.512L262.218 193.52ZM276.716 187.04C276.599 186.549 276.386 186.181 276.076 185.936C275.767 185.691 275.335 185.568 274.78 185.568C273.938 185.568 273.308 185.893 272.892 186.544C272.476 187.184 272.258 188.251 272.236 189.744C272.514 189.275 272.919 188.912 273.452 188.656C273.986 188.4 274.562 188.272 275.18 188.272C275.884 188.272 276.503 188.427 277.036 188.736C277.58 189.035 278.002 189.472 278.3 190.048C278.61 190.624 278.764 191.312 278.764 192.112C278.764 192.859 278.615 193.525 278.316 194.112C278.028 194.699 277.596 195.163 277.02 195.504C276.444 195.835 275.751 196 274.94 196C273.842 196 272.978 195.76 272.348 195.28C271.73 194.789 271.292 194.101 271.036 193.216C270.791 192.331 270.668 191.227 270.668 189.904C270.668 186 272.044 184.048 274.796 184.048C275.863 184.048 276.7 184.336 277.308 184.912C277.927 185.488 278.29 186.197 278.396 187.04H276.716ZM274.78 189.808C274.13 189.808 273.575 190.005 273.116 190.4C272.668 190.784 272.444 191.344 272.444 192.08C272.444 192.816 272.652 193.403 273.068 193.84C273.495 194.267 274.087 194.48 274.844 194.48C275.516 194.48 276.044 194.272 276.428 193.856C276.823 193.44 277.02 192.885 277.02 192.192C277.02 191.467 276.828 190.891 276.444 190.464C276.071 190.027 275.516 189.808 274.78 189.808Z" fill="white"/>
<path d="M322.874 193.52C323.898 192.635 324.704 191.909 325.29 191.344C325.888 190.768 326.384 190.171 326.778 189.552C327.173 188.933 327.37 188.315 327.37 187.696C327.37 187.056 327.216 186.555 326.906 186.192C326.608 185.829 326.133 185.648 325.482 185.648C324.853 185.648 324.362 185.851 324.01 186.256C323.669 186.651 323.488 187.184 323.466 187.856H321.706C321.738 186.64 322.101 185.712 322.794 185.072C323.498 184.421 324.389 184.096 325.466 184.096C326.629 184.096 327.536 184.416 328.186 185.056C328.848 185.696 329.178 186.549 329.178 187.616C329.178 188.384 328.981 189.125 328.586 189.84C328.202 190.544 327.738 191.179 327.194 191.744C326.661 192.299 325.978 192.944 325.146 193.68L324.426 194.32H329.498V195.84H321.722V194.512L322.874 193.52ZM338.493 185.744L334.045 196H332.205L336.701 185.936H330.781V184.384H338.493V185.744Z" fill="white"/>
<path d="M382.249 193.52C383.273 192.635 384.079 191.909 384.665 191.344C385.263 190.768 385.759 190.171 386.153 189.552C386.548 188.933 386.745 188.315 386.745 187.696C386.745 187.056 386.591 186.555 386.281 186.192C385.983 185.829 385.508 185.648 384.857 185.648C384.228 185.648 383.737 185.851 383.385 186.256C383.044 186.651 382.863 187.184 382.841 187.856H381.081C381.113 186.64 381.476 185.712 382.169 185.072C382.873 184.421 383.764 184.096 384.841 184.096C386.004 184.096 386.911 184.416 387.561 185.056C388.223 185.696 388.553 186.549 388.553 187.616C388.553 188.384 388.356 189.125 387.961 189.84C387.577 190.544 387.113 191.179 386.569 191.744C386.036 192.299 385.353 192.944 384.521 193.68L383.801 194.32H388.873V195.84H381.097V194.512L382.249 193.52ZM392.444 189.904C391.334 189.349 390.78 188.475 390.78 187.28C390.78 186.704 390.924 186.176 391.212 185.696C391.5 185.216 391.932 184.837 392.508 184.56C393.084 184.272 393.788 184.128 394.62 184.128C395.441 184.128 396.14 184.272 396.716 184.56C397.302 184.837 397.74 185.216 398.028 185.696C398.316 186.176 398.46 186.704 398.46 187.28C398.46 187.877 398.305 188.405 397.996 188.864C397.697 189.312 397.297 189.659 396.796 189.904C397.404 190.128 397.884 190.496 398.236 191.008C398.588 191.509 398.764 192.101 398.764 192.784C398.764 193.477 398.588 194.091 398.236 194.624C397.884 195.157 397.393 195.568 396.764 195.856C396.134 196.144 395.42 196.288 394.62 196.288C393.82 196.288 393.105 196.144 392.476 195.856C391.857 195.568 391.372 195.157 391.02 194.624C390.668 194.091 390.492 193.477 390.492 192.784C390.492 192.091 390.668 191.493 391.02 190.992C391.372 190.491 391.846 190.128 392.444 189.904ZM396.716 187.504C396.716 186.907 396.529 186.448 396.156 186.128C395.782 185.808 395.27 185.648 394.62 185.648C393.98 185.648 393.473 185.808 393.1 186.128C392.726 186.448 392.54 186.912 392.54 187.52C392.54 188.053 392.732 188.491 393.116 188.832C393.51 189.163 394.012 189.328 394.62 189.328C395.228 189.328 395.729 189.157 396.124 188.816C396.518 188.475 396.716 188.037 396.716 187.504ZM394.62 190.704C393.916 190.704 393.34 190.88 392.892 191.232C392.454 191.573 392.236 192.069 392.236 192.72C392.236 193.328 392.449 193.824 392.876 194.208C393.302 194.581 393.884 194.768 394.62 194.768C395.345 194.768 395.916 194.576 396.332 194.192C396.758 193.808 396.972 193.317 396.972 192.72C396.972 192.08 396.753 191.584 396.316 191.232C395.889 190.88 395.324 190.704 394.62 190.704Z" fill="white"/>
<path d="M22.2727 233.52C23.2967 232.635 24.102 231.909 24.6887 231.344C25.286 230.768 25.782 230.171 26.1767 229.552C26.5714 228.933 26.7687 228.315 26.7687 227.696C26.7687 227.056 26.614 226.555 26.3047 226.192C26.006 225.829 25.5314 225.648 24.8807 225.648C24.2514 225.648 23.7607 225.851 23.4087 226.256C23.0674 226.651 22.886 227.184 22.8647 227.856H21.1047C21.1367 226.64 21.4994 225.712 22.1927 225.072C22.8967 224.421 23.7874 224.096 24.8647 224.096C26.0274 224.096 26.934 224.416 27.5847 225.056C28.246 225.696 28.5767 226.549 28.5767 227.616C28.5767 228.384 28.3794 229.125 27.9847 229.84C27.6007 230.544 27.1367 231.179 26.5927 231.744C26.0594 232.299 25.3767 232.944 24.5447 233.68L23.8247 234.32H28.8967V235.84H21.1207V234.512L22.2727 233.52ZM32.7711 232.832C32.8777 233.365 33.1071 233.771 33.4591 234.048C33.8111 234.325 34.2857 234.464 34.8831 234.464C35.6404 234.464 36.1951 234.165 36.5471 233.568C36.8991 232.971 37.0751 231.952 37.0751 230.512C36.8191 230.875 36.4564 231.157 35.9871 231.36C35.5284 231.552 35.0271 231.648 34.4831 231.648C33.7897 231.648 33.1604 231.509 32.5951 231.232C32.0297 230.944 31.5817 230.523 31.2511 229.968C30.9311 229.403 30.7711 228.72 30.7711 227.92C30.7711 226.747 31.1124 225.813 31.7951 225.12C32.4884 224.416 33.4377 224.064 34.6431 224.064C36.0937 224.064 37.1231 224.549 37.7311 225.52C38.3497 226.48 38.6591 227.957 38.6591 229.952C38.6591 231.328 38.5417 232.453 38.3071 233.328C38.0831 234.203 37.6884 234.864 37.1231 235.312C36.5577 235.76 35.7737 235.984 34.7711 235.984C33.6297 235.984 32.7497 235.685 32.1311 235.088C31.5124 234.491 31.1657 233.739 31.0911 232.832H32.7711ZM34.8031 230.112C35.4431 230.112 35.9444 229.915 36.3071 229.52C36.6804 229.115 36.8671 228.581 36.8671 227.92C36.8671 227.184 36.6697 226.613 36.2751 226.208C35.8911 225.792 35.3631 225.584 34.6911 225.584C34.0191 225.584 33.4857 225.797 33.0911 226.224C32.7071 226.64 32.5151 227.189 32.5151 227.872C32.5151 228.523 32.7017 229.061 33.0751 229.488C33.4591 229.904 34.0351 230.112 34.8031 230.112Z" fill="white"/>
<path d="M81.053 227.216C81.117 226.224 81.4957 225.451 82.189 224.896C82.893 224.341 83.789 224.064 84.877 224.064C85.6237 224.064 86.269 224.197 86.813 224.464C87.357 224.731 87.7677 225.093 88.045 225.552C88.3223 226.011 88.461 226.528 88.461 227.104C88.461 227.765 88.285 228.331 87.933 228.8C87.581 229.269 87.1597 229.584 86.669 229.744V229.808C87.2983 230 87.789 230.352 88.141 230.864C88.493 231.365 88.669 232.011 88.669 232.8C88.669 233.429 88.525 233.989 88.237 234.48C87.949 234.971 87.5223 235.36 86.957 235.648C86.3917 235.925 85.7143 236.064 84.925 236.064C83.773 236.064 82.8237 235.771 82.077 235.184C81.341 234.587 80.9463 233.733 80.893 232.624H82.653C82.6957 233.189 82.9143 233.653 83.309 234.016C83.7037 234.368 84.237 234.544 84.909 234.544C85.5597 234.544 86.061 234.368 86.413 234.016C86.765 233.653 86.941 233.189 86.941 232.624C86.941 231.877 86.701 231.349 86.221 231.04C85.7517 230.72 85.0263 230.56 84.045 230.56H83.629V229.056H84.061C84.925 229.045 85.581 228.901 86.029 228.624C86.4877 228.347 86.717 227.909 86.717 227.312C86.717 226.8 86.5517 226.395 86.221 226.096C85.8903 225.787 85.421 225.632 84.813 225.632C84.2157 225.632 83.7517 225.787 83.421 226.096C83.0903 226.395 82.893 226.768 82.829 227.216H81.053ZM90.585 230.016C90.585 228.171 90.8943 226.731 91.513 225.696C92.1423 224.651 93.2197 224.128 94.745 224.128C96.2703 224.128 97.3423 224.651 97.961 225.696C98.5903 226.731 98.905 228.171 98.905 230.016C98.905 231.883 98.5903 233.344 97.961 234.4C97.3423 235.445 96.2703 235.968 94.745 235.968C93.2197 235.968 92.1423 235.445 91.513 234.4C90.8943 233.344 90.585 231.883 90.585 230.016ZM97.113 230.016C97.113 229.152 97.0543 228.421 96.937 227.824C96.8303 227.227 96.6063 226.741 96.265 226.368C95.9237 225.984 95.417 225.792 94.745 225.792C94.073 225.792 93.5663 225.984 93.225 226.368C92.8837 226.741 92.6543 227.227 92.537 227.824C92.4303 228.421 92.377 229.152 92.377 230.016C92.377 230.912 92.4303 231.664 92.537 232.272C92.6437 232.88 92.8677 233.371 93.209 233.744C93.561 234.117 94.073 234.304 94.745 234.304C95.417 234.304 95.9237 234.117 96.265 233.744C96.617 233.371 96.8463 232.88 96.953 232.272C97.0597 231.664 97.113 230.912 97.113 230.016Z" fill="white"/>
<rect x="130" y="210" width="105" height="40" rx="8" fill="white"/>
<path d="M152.424 224.88V226.368H147.704V229.648H151.384V231.136H147.704V236H145.88V224.88H152.424ZM157.938 236.144C157.106 236.144 156.354 235.957 155.682 235.584C155.01 235.2 154.482 234.667 154.098 233.984C153.714 233.291 153.522 232.491 153.522 231.584C153.522 230.688 153.719 229.893 154.114 229.2C154.509 228.507 155.047 227.973 155.73 227.6C156.413 227.227 157.175 227.04 158.018 227.04C158.861 227.04 159.623 227.227 160.306 227.6C160.989 227.973 161.527 228.507 161.922 229.2C162.317 229.893 162.514 230.688 162.514 231.584C162.514 232.48 162.311 233.275 161.906 233.968C161.501 234.661 160.946 235.2 160.242 235.584C159.549 235.957 158.781 236.144 157.938 236.144ZM157.938 234.56C158.407 234.56 158.845 234.448 159.25 234.224C159.666 234 160.002 233.664 160.258 233.216C160.514 232.768 160.642 232.224 160.642 231.584C160.642 230.944 160.519 230.405 160.274 229.968C160.029 229.52 159.703 229.184 159.298 228.96C158.893 228.736 158.455 228.624 157.986 228.624C157.517 228.624 157.079 228.736 156.674 228.96C156.279 229.184 155.965 229.52 155.73 229.968C155.495 230.405 155.378 230.944 155.378 231.584C155.378 232.533 155.618 233.269 156.098 233.792C156.589 234.304 157.202 234.56 157.938 234.56ZM166.141 228.464C166.408 228.016 166.76 227.669 167.197 227.424C167.645 227.168 168.173 227.04 168.781 227.04V228.928H168.317C167.603 228.928 167.059 229.109 166.685 229.472C166.323 229.835 166.141 230.464 166.141 231.36V236H164.317V227.184H166.141V228.464ZM178.538 231.376C178.538 231.707 178.516 232.005 178.474 232.272H171.738C171.791 232.976 172.052 233.541 172.522 233.968C172.991 234.395 173.567 234.608 174.25 234.608C175.231 234.608 175.924 234.197 176.33 233.376H178.298C178.031 234.187 177.546 234.853 176.842 235.376C176.148 235.888 175.284 236.144 174.25 236.144C173.407 236.144 172.65 235.957 171.978 235.584C171.316 235.2 170.794 234.667 170.41 233.984C170.036 233.291 169.85 232.491 169.85 231.584C169.85 230.677 170.031 229.883 170.394 229.2C170.767 228.507 171.284 227.973 171.946 227.6C172.618 227.227 173.386 227.04 174.25 227.04C175.082 227.04 175.823 227.221 176.474 227.584C177.124 227.947 177.631 228.459 177.994 229.12C178.356 229.771 178.538 230.523 178.538 231.376ZM176.634 230.8C176.623 230.128 176.383 229.589 175.914 229.184C175.444 228.779 174.863 228.576 174.17 228.576C173.54 228.576 173.002 228.779 172.554 229.184C172.106 229.579 171.839 230.117 171.754 230.8H176.634ZM184.781 227.04C185.474 227.04 186.093 227.184 186.637 227.472C187.191 227.76 187.623 228.187 187.933 228.752C188.242 229.317 188.397 230 188.397 230.8V236H186.589V231.072C186.589 230.283 186.391 229.68 185.997 229.264C185.602 228.837 185.063 228.624 184.381 228.624C183.698 228.624 183.154 228.837 182.749 229.264C182.354 229.68 182.157 230.283 182.157 231.072V236H180.333V227.184H182.157V228.192C182.455 227.829 182.834 227.547 183.293 227.344C183.762 227.141 184.258 227.04 184.781 227.04ZM194.547 236.144C193.715 236.144 192.963 235.957 192.291 235.584C191.619 235.2 191.091 234.667 190.707 233.984C190.323 233.291 190.131 232.491 190.131 231.584C190.131 230.688 190.329 229.893 190.723 229.2C191.118 228.507 191.657 227.973 192.339 227.6C193.022 227.227 193.785 227.04 194.627 227.04C195.47 227.04 196.233 227.227 196.915 227.6C197.598 227.973 198.137 228.507 198.531 229.2C198.926 229.893 199.123 230.688 199.123 231.584C199.123 232.48 198.921 233.275 198.515 233.968C198.11 234.661 197.555 235.2 196.851 235.584C196.158 235.957 195.39 236.144 194.547 236.144ZM194.547 234.56C195.017 234.56 195.454 234.448 195.859 234.224C196.275 234 196.611 233.664 196.867 233.216C197.123 232.768 197.251 232.224 197.251 231.584C197.251 230.944 197.129 230.405 196.883 229.968C196.638 229.52 196.313 229.184 195.907 228.96C195.502 228.736 195.065 228.624 194.595 228.624C194.126 228.624 193.689 228.736 193.283 228.96C192.889 229.184 192.574 229.52 192.339 229.968C192.105 230.405 191.987 230.944 191.987 231.584C191.987 232.533 192.227 233.269 192.707 233.792C193.198 234.304 193.811 234.56 194.547 234.56ZM204.751 236.144C203.919 236.144 203.167 235.957 202.495 235.584C201.823 235.2 201.295 234.667 200.911 233.984C200.527 233.291 200.335 232.491 200.335 231.584C200.335 230.688 200.532 229.893 200.927 229.2C201.321 228.507 201.86 227.973 202.543 227.6C203.225 227.227 203.988 227.04 204.831 227.04C205.673 227.04 206.436 227.227 207.119 227.6C207.801 227.973 208.34 228.507 208.735 229.2C209.129 229.893 209.327 230.688 209.327 231.584C209.327 232.48 209.124 233.275 208.719 233.968C208.313 234.661 207.759 235.2 207.055 235.584C206.361 235.957 205.593 236.144 204.751 236.144ZM204.751 234.56C205.22 234.56 205.657 234.448 206.063 234.224C206.479 234 206.815 233.664 207.071 233.216C207.327 232.768 207.455 232.224 207.455 231.584C207.455 230.944 207.332 230.405 207.087 229.968C206.841 229.52 206.516 229.184 206.111 228.96C205.705 228.736 205.268 228.624 204.799 228.624C204.329 228.624 203.892 228.736 203.487 228.96C203.092 229.184 202.777 229.52 202.543 229.968C202.308 230.405 202.191 230.944 202.191 231.584C202.191 232.533 202.431 233.269 202.911 233.792C203.401 234.304 204.015 234.56 204.751 234.56ZM215.578 227.04C216.271 227.04 216.89 227.184 217.434 227.472C217.988 227.76 218.42 228.187 218.73 228.752C219.039 229.317 219.194 230 219.194 230.8V236H217.386V231.072C217.386 230.283 217.188 229.68 216.794 229.264C216.399 228.837 215.86 228.624 215.178 228.624C214.495 228.624 213.951 228.837 213.546 229.264C213.151 229.68 212.954 230.283 212.954 231.072V236H211.13V227.184H212.954V228.192C213.252 227.829 213.631 227.547 214.09 227.344C214.559 227.141 215.055 227.04 215.578 227.04Z" fill="#444444"/>
<rect x="255" y="210" width="105" height="40" rx="8" fill="black" fill-opacity="0.1"/>
<path d="M275.592 233.728H270.936L270.136 236H268.232L272.216 224.864H274.328L278.312 236H276.392L275.592 233.728ZM275.08 232.24L273.272 227.072L271.448 232.24H275.08ZM283.74 228.672H282.108V236H280.268V228.672H279.228V227.184H280.268V226.56C280.268 225.547 280.534 224.811 281.068 224.352C281.612 223.883 282.46 223.648 283.612 223.648V225.168C283.057 225.168 282.668 225.275 282.444 225.488C282.22 225.691 282.108 226.048 282.108 226.56V227.184H283.74V228.672ZM287.484 228.672V233.552C287.484 233.883 287.559 234.123 287.708 234.272C287.868 234.411 288.135 234.48 288.508 234.48H289.628V236H288.188C287.367 236 286.738 235.808 286.3 235.424C285.863 235.04 285.644 234.416 285.644 233.552V228.672H284.604V227.184H285.644V224.992H287.484V227.184H289.628V228.672H287.484ZM299.389 231.376C299.389 231.707 299.368 232.005 299.325 232.272H292.589C292.643 232.976 292.904 233.541 293.373 233.968C293.843 234.395 294.419 234.608 295.101 234.608C296.083 234.608 296.776 234.197 297.181 233.376H299.149C298.883 234.187 298.397 234.853 297.693 235.376C297 235.888 296.136 236.144 295.101 236.144C294.259 236.144 293.501 235.957 292.829 235.584C292.168 235.2 291.645 234.667 291.261 233.984C290.888 233.291 290.701 232.491 290.701 231.584C290.701 230.677 290.883 229.883 291.245 229.2C291.619 228.507 292.136 227.973 292.797 227.6C293.469 227.227 294.237 227.04 295.101 227.04C295.933 227.04 296.675 227.221 297.325 227.584C297.976 227.947 298.483 228.459 298.845 229.12C299.208 229.771 299.389 230.523 299.389 231.376ZM297.485 230.8C297.475 230.128 297.235 229.589 296.765 229.184C296.296 228.779 295.715 228.576 295.021 228.576C294.392 228.576 293.853 228.779 293.405 229.184C292.957 229.579 292.691 230.117 292.605 230.8H297.485ZM303.008 228.464C303.275 228.016 303.627 227.669 304.064 227.424C304.512 227.168 305.04 227.04 305.648 227.04V228.928H305.184C304.47 228.928 303.926 229.109 303.552 229.472C303.19 229.835 303.008 230.464 303.008 231.36V236H301.184V227.184H303.008V228.464ZM311.773 227.04C312.466 227.04 313.085 227.184 313.629 227.472C314.184 227.76 314.616 228.187 314.925 228.752C315.234 229.317 315.389 230 315.389 230.8V236H313.581V231.072C313.581 230.283 313.384 229.68 312.989 229.264C312.594 228.837 312.056 228.624 311.373 228.624C310.69 228.624 310.146 228.837 309.741 229.264C309.346 229.68 309.149 230.283 309.149 231.072V236H307.325V227.184H309.149V228.192C309.448 227.829 309.826 227.547 310.285 227.344C310.754 227.141 311.25 227.04 311.773 227.04ZM321.54 236.144C320.708 236.144 319.956 235.957 319.284 235.584C318.612 235.2 318.084 234.667 317.7 233.984C317.316 233.291 317.124 232.491 317.124 231.584C317.124 230.688 317.321 229.893 317.716 229.2C318.11 228.507 318.649 227.973 319.332 227.6C320.014 227.227 320.777 227.04 321.62 227.04C322.462 227.04 323.225 227.227 323.908 227.6C324.59 227.973 325.129 228.507 325.524 229.2C325.918 229.893 326.116 230.688 326.116 231.584C326.116 232.48 325.913 233.275 325.508 233.968C325.102 234.661 324.548 235.2 323.844 235.584C323.15 235.957 322.382 236.144 321.54 236.144ZM321.54 234.56C322.009 234.56 322.446 234.448 322.852 234.224C323.268 234 323.604 233.664 323.86 233.216C324.116 232.768 324.244 232.224 324.244 231.584C324.244 230.944 324.121 230.405 323.876 229.968C323.63 229.52 323.305 229.184 322.9 228.96C322.494 228.736 322.057 228.624 321.588 228.624C321.118 228.624 320.681 228.736 320.276 228.96C319.881 229.184 319.566 229.52 319.332 229.968C319.097 230.405 318.98 230.944 318.98 231.584C318.98 232.533 319.22 233.269 319.7 233.792C320.19 234.304 320.804 234.56 321.54 234.56ZM331.743 236.144C330.911 236.144 330.159 235.957 329.487 235.584C328.815 235.2 328.287 234.667 327.903 233.984C327.519 233.291 327.327 232.491 327.327 231.584C327.327 230.688 327.524 229.893 327.919 229.2C328.313 228.507 328.852 227.973 329.535 227.6C330.217 227.227 330.98 227.04 331.823 227.04C332.665 227.04 333.428 227.227 334.111 227.6C334.793 227.973 335.332 228.507 335.727 229.2C336.121 229.893 336.319 230.688 336.319 231.584C336.319 232.48 336.116 233.275 335.711 233.968C335.305 234.661 334.751 235.2 334.047 235.584C333.353 235.957 332.585 236.144 331.743 236.144ZM331.743 234.56C332.212 234.56 332.649 234.448 333.055 234.224C333.471 234 333.807 233.664 334.063 233.216C334.319 232.768 334.447 232.224 334.447 231.584C334.447 230.944 334.324 230.405 334.079 229.968C333.833 229.52 333.508 229.184 333.103 228.96C332.697 228.736 332.26 228.624 331.791 228.624C331.321 228.624 330.884 228.736 330.479 228.96C330.084 229.184 329.769 229.52 329.535 229.968C329.3 230.405 329.183 230.944 329.183 231.584C329.183 232.533 329.423 233.269 329.903 233.792C330.393 234.304 331.007 234.56 331.743 234.56ZM342.57 227.04C343.263 227.04 343.882 227.184 344.426 227.472C344.981 227.76 345.413 228.187 345.722 228.752C346.031 229.317 346.186 230 346.186 230.8V236H344.378V231.072C344.378 230.283 344.181 229.68 343.786 229.264C343.391 228.837 342.853 228.624 342.17 228.624C341.487 228.624 340.943 228.837 340.538 229.264C340.143 229.68 339.946 230.283 339.946 231.072V236H338.122V227.184H339.946V228.192C340.245 227.829 340.623 227.547 341.082 227.344C341.551 227.141 342.047 227.04 342.57 227.04Z" fill="white"/>
</svg>
