<svg width="50" height="50" viewBox="0 0 50 50" fill="none" xmlns="http://www.w3.org/2000/svg">
<circle cx="25" cy="25" r="24" fill="#444444"/>
<circle cx="25" cy="25" r="24" fill="white" fill-opacity="0.8"/>
<path d="M25 1.5C25 0.671573 25.6722 -0.00468969 26.4991 0.0449861C29.2695 0.21141 31.9965 0.838243 34.5671 1.90301C37.6002 3.15938 40.3562 5.00087 42.6777 7.32233C44.9991 9.6438 46.8406 12.3998 48.097 15.4329C49.3534 18.4661 50 21.717 50 25C50 28.2831 49.3534 31.534 48.097 34.5671C46.8406 37.6002 44.9991 40.3562 42.6777 42.6777C40.3562 44.9991 37.6002 46.8406 34.5671 48.097C31.9965 49.1618 29.2695 49.7886 26.4991 49.955C25.6722 50.0047 25 49.3284 25 48.5C25 47.6716 25.6724 47.0053 26.4989 46.9489C28.875 46.7866 31.2125 46.2393 33.419 45.3254C36.0882 44.2197 38.5135 42.5992 40.5563 40.5564C42.5992 38.5135 44.2197 36.0882 45.3253 33.419C46.431 30.7499 47 27.8891 47 25C47 22.1109 46.431 19.2501 45.3254 16.581C44.2197 13.9118 42.5992 11.4865 40.5564 9.44365C38.5135 7.40076 36.0882 5.78025 33.419 4.67465C31.2125 3.76068 28.875 3.21338 26.4989 3.05112C25.6724 2.99468 25 2.32843 25 1.5Z" fill="#444444"/>
<circle cx="25" cy="25" r="22" fill="#444444"/>
<circle cx="25" cy="25" r="22" fill="white" fill-opacity="0.95"/>
<path d="M27 19L21 25L27 31" stroke="#444444" stroke-width="2.5" stroke-linecap="round" stroke-linejoin="round"/>
</svg>
